%TF.GenerationSoftware,KiCad,Pcbnew,8.0.8*%
%TF.CreationDate,2025-08-16T13:44:24+01:00*%
%TF.ProjectId,UKMARSBOT_RP2040Wall-Sensor-Basic,554b4d41-5253-4424-9f54-5f5250323034,rev?*%
%TF.SameCoordinates,Original*%
%TF.FileFunction,Soldermask,Top*%
%TF.FilePolarity,Negative*%
%FSLAX46Y46*%
G04 Gerber Fmt 4.6, Leading zero omitted, Abs format (unit mm)*
G04 Created by KiCad (PCBNEW 8.0.8) date 2025-08-16 13:44:24*
%MOMM*%
%LPD*%
G01*
G04 APERTURE LIST*
G04 Aperture macros list*
%AMRotRect*
0 Rectangle, with rotation*
0 The origin of the aperture is its center*
0 $1 length*
0 $2 width*
0 $3 Rotation angle, in degrees counterclockwise*
0 Add horizontal line*
21,1,$1,$2,0,0,$3*%
G04 Aperture macros list end*
%ADD10RotRect,1.800000X1.800000X130.000000*%
%ADD11C,1.800000*%
%ADD12C,1.600000*%
%ADD13O,1.600000X1.600000*%
%ADD14R,1.500000X1.500000*%
%ADD15C,1.500000*%
%ADD16R,1.800000X1.800000*%
%ADD17R,1.600000X1.600000*%
%ADD18RotRect,1.800000X1.800000X230.000000*%
%ADD19C,6.400000*%
%ADD20R,1.700000X1.700000*%
%ADD21O,1.700000X1.700000*%
%ADD22RotRect,1.800000X1.800000X310.000000*%
%ADD23RotRect,1.800000X1.800000X50.000000*%
G04 APERTURE END LIST*
D10*
%TO.C,DLED1*%
X156050800Y-131469400D03*
D11*
X154418118Y-129523645D03*
%TD*%
D12*
%TO.C,R9*%
X122972000Y-143650000D03*
D13*
X122972000Y-136030000D03*
%TD*%
D14*
%TO.C,Q1*%
X134650000Y-132220000D03*
D15*
X134650000Y-129680000D03*
X134650000Y-127140000D03*
%TD*%
D12*
%TO.C,R10*%
X112616353Y-137359757D03*
D13*
X112616353Y-129739757D03*
%TD*%
D16*
%TO.C,D3*%
X173620000Y-133000000D03*
D11*
X173620000Y-130460000D03*
%TD*%
D12*
%TO.C,R15*%
X154722000Y-143396000D03*
D13*
X154722000Y-135776000D03*
%TD*%
D17*
%TO.C,C2*%
X105080000Y-139840000D03*
D12*
X105080000Y-142340000D03*
%TD*%
%TO.C,R12*%
X176200000Y-144920000D03*
D13*
X176200000Y-137300000D03*
%TD*%
D14*
%TO.C,Q2*%
X146594000Y-128918000D03*
D15*
X146594000Y-131458000D03*
X146594000Y-133998000D03*
%TD*%
D18*
%TO.C,DLED2*%
X126821900Y-129523600D03*
D11*
X125189217Y-131469356D03*
%TD*%
D19*
%TO.C,H2*%
X164770000Y-143650000D03*
%TD*%
D12*
%TO.C,R2*%
X118151185Y-150000000D03*
D13*
X110531185Y-150000000D03*
%TD*%
D20*
%TO.C,J1*%
X121590000Y-147460000D03*
D21*
X124130000Y-147460000D03*
X126670000Y-147460000D03*
X129210000Y-147460000D03*
X131750000Y-147460000D03*
X134290000Y-147460000D03*
X136830000Y-147460000D03*
X139370000Y-147460000D03*
X141910000Y-147460000D03*
X144450000Y-147460000D03*
X146990000Y-147460000D03*
X149530000Y-147460000D03*
X152070000Y-147460000D03*
X154610000Y-147460000D03*
X157150000Y-147460000D03*
X159690000Y-147460000D03*
%TD*%
D12*
%TO.C,R11*%
X145470954Y-136549991D03*
D13*
X145470954Y-144169991D03*
%TD*%
D12*
%TO.C,R3*%
X151620000Y-143396000D03*
D13*
X151620000Y-135776000D03*
%TD*%
D17*
%TO.C,C1*%
X105080000Y-147460000D03*
D12*
X105080000Y-149960000D03*
%TD*%
D19*
%TO.C,H1*%
X116495000Y-143650000D03*
%TD*%
D16*
%TO.C,D2*%
X164770000Y-133490000D03*
D11*
X164770000Y-136030000D03*
%TD*%
D12*
%TO.C,R1*%
X126274000Y-143650000D03*
D13*
X126274000Y-136030000D03*
%TD*%
D12*
%TO.C,R4*%
X129449231Y-136004628D03*
D13*
X129449231Y-143624628D03*
%TD*%
D16*
%TO.C,D1*%
X107620000Y-132982000D03*
D11*
X107620000Y-130442000D03*
%TD*%
D12*
%TO.C,R13*%
X158024000Y-143396000D03*
D13*
X158024000Y-135776000D03*
%TD*%
D12*
%TO.C,R7*%
X116172353Y-137359757D03*
D13*
X116172353Y-129739757D03*
%TD*%
D12*
%TO.C,R6*%
X148589168Y-136545384D03*
D13*
X148589168Y-144165384D03*
%TD*%
D16*
%TO.C,FLED1*%
X141920000Y-135152000D03*
D11*
X139380000Y-135152000D03*
%TD*%
D12*
%TO.C,R8*%
X135309218Y-135108196D03*
D13*
X135309218Y-142728196D03*
%TD*%
D12*
%TO.C,R14*%
X171120000Y-144939028D03*
D13*
X171120000Y-137319028D03*
%TD*%
D22*
%TO.C,RDPD1*%
X151620000Y-131952000D03*
D11*
X153252681Y-133897753D03*
%TD*%
D16*
%TO.C,FPD1*%
X139340000Y-138152000D03*
D11*
X141880000Y-138152000D03*
%TD*%
D23*
%TO.C,LDPD1*%
X127987300Y-133897800D03*
D11*
X129619981Y-131952047D03*
%TD*%
M02*
