%TF.GenerationSoftware,KiCad,Pcbnew,8.0.8*%
%TF.CreationDate,2025-03-19T15:02:35+00:00*%
%TF.ProjectId,UKMARSBOT_RP2040Wall-Sensor-Basic,554b4d41-5253-4424-9f54-5f5250323034,rev?*%
%TF.SameCoordinates,Original*%
%TF.FileFunction,Copper,L2,Bot*%
%TF.FilePolarity,Positive*%
%FSLAX46Y46*%
G04 Gerber Fmt 4.6, Leading zero omitted, Abs format (unit mm)*
G04 Created by KiCad (PCBNEW 8.0.8) date 2025-03-19 15:02:35*
%MOMM*%
%LPD*%
G01*
G04 APERTURE LIST*
G04 Aperture macros list*
%AMRotRect*
0 Rectangle, with rotation*
0 The origin of the aperture is its center*
0 $1 length*
0 $2 width*
0 $3 Rotation angle, in degrees counterclockwise*
0 Add horizontal line*
21,1,$1,$2,0,0,$3*%
G04 Aperture macros list end*
%TA.AperFunction,ComponentPad*%
%ADD10RotRect,1.800000X1.800000X130.000000*%
%TD*%
%TA.AperFunction,ComponentPad*%
%ADD11C,1.800000*%
%TD*%
%TA.AperFunction,ComponentPad*%
%ADD12C,1.600000*%
%TD*%
%TA.AperFunction,ComponentPad*%
%ADD13O,1.600000X1.600000*%
%TD*%
%TA.AperFunction,ComponentPad*%
%ADD14R,1.300000X1.300000*%
%TD*%
%TA.AperFunction,ComponentPad*%
%ADD15C,1.300000*%
%TD*%
%TA.AperFunction,ComponentPad*%
%ADD16R,1.600000X1.600000*%
%TD*%
%TA.AperFunction,ComponentPad*%
%ADD17R,1.800000X1.800000*%
%TD*%
%TA.AperFunction,ComponentPad*%
%ADD18RotRect,1.800000X1.800000X230.000000*%
%TD*%
%TA.AperFunction,ComponentPad*%
%ADD19C,6.400000*%
%TD*%
%TA.AperFunction,ComponentPad*%
%ADD20R,1.700000X1.700000*%
%TD*%
%TA.AperFunction,ComponentPad*%
%ADD21O,1.700000X1.700000*%
%TD*%
%TA.AperFunction,ComponentPad*%
%ADD22RotRect,1.800000X1.800000X310.000000*%
%TD*%
%TA.AperFunction,ComponentPad*%
%ADD23RotRect,1.800000X1.800000X50.000000*%
%TD*%
%TA.AperFunction,ViaPad*%
%ADD24C,0.600000*%
%TD*%
%TA.AperFunction,Conductor*%
%ADD25C,0.800000*%
%TD*%
G04 APERTURE END LIST*
D10*
%TO.P,DLED1,1,K*%
%TO.N,Net-(DLED1-K)*%
X156050800Y-131469400D03*
D11*
%TO.P,DLED1,2,A*%
%TO.N,Net-(DLED1-A)*%
X154418118Y-129523645D03*
%TD*%
D12*
%TO.P,R9,1*%
%TO.N,Net-(C2-Pad1)*%
X122972000Y-143650000D03*
D13*
%TO.P,R9,2*%
%TO.N,Net-(DLED2-A)*%
X122972000Y-136030000D03*
%TD*%
D14*
%TO.P,Q1,1,B*%
%TO.N,Net-(Q1-B)*%
X134910000Y-131458000D03*
D15*
%TO.P,Q1,2,E*%
%TO.N,GND*%
X133640000Y-130188000D03*
%TO.P,Q1,3,C*%
%TO.N,Net-(DLED1-K)*%
X134910000Y-128918000D03*
%TD*%
D16*
%TO.P,C1,1*%
%TO.N,Net-(C1-Pad1)*%
X175020000Y-146800000D03*
D12*
%TO.P,C1,2*%
%TO.N,GND*%
X175020000Y-149300000D03*
%TD*%
%TO.P,R10,1*%
%TO.N,SEN2DI0*%
X112812000Y-138570000D03*
D13*
%TO.P,R10,2*%
%TO.N,Net-(D1-A)*%
X112812000Y-130950000D03*
%TD*%
D17*
%TO.P,D3,1,K*%
%TO.N,GND*%
X173620000Y-133000000D03*
D11*
%TO.P,D3,2,A*%
%TO.N,Net-(D3-A)*%
X173620000Y-130460000D03*
%TD*%
D16*
%TO.P,C2,1*%
%TO.N,Net-(C2-Pad1)*%
X105446000Y-146952000D03*
D12*
%TO.P,C2,2*%
%TO.N,GND*%
X105446000Y-149452000D03*
%TD*%
%TO.P,R15,1*%
%TO.N,SEN1AIP*%
X154722000Y-143396000D03*
D13*
%TO.P,R15,2*%
%TO.N,GND*%
X154722000Y-135776000D03*
%TD*%
D12*
%TO.P,R12,1*%
%TO.N,SEN3DI0*%
X132624000Y-143650000D03*
D13*
%TO.P,R12,2*%
%TO.N,Net-(D2-A)*%
X132624000Y-136030000D03*
%TD*%
D14*
%TO.P,Q2,1,B*%
%TO.N,Net-(Q2-B)*%
X146594000Y-128918000D03*
D15*
%TO.P,Q2,2,E*%
%TO.N,GND*%
X147864000Y-130188000D03*
%TO.P,Q2,3,C*%
%TO.N,Net-(FLED1-K)*%
X146594000Y-131458000D03*
%TD*%
D18*
%TO.P,DLED2,1,K*%
%TO.N,Net-(DLED1-K)*%
X126821900Y-129523600D03*
D11*
%TO.P,DLED2,2,A*%
%TO.N,Net-(DLED2-A)*%
X125189217Y-131469356D03*
%TD*%
D19*
%TO.P,H2,1,1*%
%TO.N,GND*%
X164770000Y-143650000D03*
%TD*%
D20*
%TO.P,J1,1,Pin_1*%
%TO.N,5V*%
X121590000Y-147460000D03*
D21*
%TO.P,J1,2,Pin_2*%
%TO.N,GND*%
X124130000Y-147460000D03*
%TO.P,J1,3,Pin_3*%
%TO.N,Vcc*%
X126670000Y-147460000D03*
%TO.P,J1,4,Pin_4*%
%TO.N,SEN0DI0*%
X129210000Y-147460000D03*
%TO.P,J1,5,Pin_5*%
%TO.N,SEN1DI0*%
X131750000Y-147460000D03*
%TO.P,J1,6,Pin_6*%
%TO.N,SEN2DI0*%
X134290000Y-147460000D03*
%TO.P,J1,7,Pin_7*%
%TO.N,SEN3DI0*%
X136830000Y-147460000D03*
%TO.P,J1,8,Pin_8*%
%TO.N,SEN4DI0*%
X139370000Y-147460000D03*
%TO.P,J1,9,Pin_9*%
%TO.N,SEN0AIP*%
X141910000Y-147460000D03*
%TO.P,J1,10,Pin_10*%
%TO.N,SEN1AIP*%
X144450000Y-147460000D03*
%TO.P,J1,11,Pin_11*%
%TO.N,SEN2AIP*%
X146990000Y-147460000D03*
%TO.P,J1,12,Pin_12*%
%TO.N,unconnected-(J1-Pin_12-Pad12)*%
X149530000Y-147460000D03*
%TO.P,J1,13,Pin_13*%
%TO.N,unconnected-(J1-Pin_13-Pad13)*%
X152070000Y-147460000D03*
%TO.P,J1,14,Pin_14*%
%TO.N,unconnected-(J1-Pin_14-Pad14)*%
X154610000Y-147460000D03*
%TO.P,J1,15,Pin_15*%
%TO.N,unconnected-(J1-Pin_15-Pad15)*%
X157150000Y-147460000D03*
%TO.P,J1,16,Pin_16*%
%TO.N,unconnected-(J1-Pin_16-Pad16)*%
X159690000Y-147460000D03*
%TD*%
D12*
%TO.P,R11,1*%
%TO.N,SEN0AIP*%
X135672000Y-143650000D03*
D13*
%TO.P,R11,2*%
%TO.N,GND*%
X135672000Y-136030000D03*
%TD*%
D12*
%TO.P,R2,1*%
%TO.N,5V*%
X118146000Y-151270000D03*
D13*
%TO.P,R2,2*%
%TO.N,Net-(C2-Pad1)*%
X110526000Y-151270000D03*
%TD*%
D12*
%TO.P,R3,1*%
%TO.N,SEN1DI0*%
X151620000Y-143396000D03*
D13*
%TO.P,R3,2*%
%TO.N,Net-(Q2-B)*%
X151620000Y-135776000D03*
%TD*%
D19*
%TO.P,H1,1,1*%
%TO.N,GND*%
X116495000Y-143650000D03*
%TD*%
D17*
%TO.P,D2,1,K*%
%TO.N,GND*%
X141768000Y-141752000D03*
D11*
%TO.P,D2,2,A*%
%TO.N,Net-(D2-A)*%
X139228000Y-141752000D03*
%TD*%
D16*
%TO.P,C3,1*%
%TO.N,Vcc*%
X105700000Y-138316000D03*
D12*
%TO.P,C3,2*%
%TO.N,GND*%
X105700000Y-140816000D03*
%TD*%
%TO.P,R1,1*%
%TO.N,SEN0DI0*%
X126274000Y-143650000D03*
D13*
%TO.P,R1,2*%
%TO.N,Net-(Q1-B)*%
X126274000Y-136030000D03*
%TD*%
D12*
%TO.P,R4,1*%
%TO.N,Net-(Q1-B)*%
X129576000Y-136030000D03*
D13*
%TO.P,R4,2*%
%TO.N,GND*%
X129576000Y-143650000D03*
%TD*%
D17*
%TO.P,D1,1,K*%
%TO.N,GND*%
X107620000Y-132982000D03*
D11*
%TO.P,D1,2,A*%
%TO.N,Net-(D1-A)*%
X107620000Y-130442000D03*
%TD*%
D12*
%TO.P,R13,1*%
%TO.N,SEN2AIP*%
X158024000Y-143396000D03*
D13*
%TO.P,R13,2*%
%TO.N,GND*%
X158024000Y-135776000D03*
%TD*%
D12*
%TO.P,R7,1*%
%TO.N,Net-(C2-Pad1)*%
X116368000Y-138570000D03*
D13*
%TO.P,R7,2*%
%TO.N,Net-(DLED1-A)*%
X116368000Y-130950000D03*
%TD*%
D12*
%TO.P,R6,1*%
%TO.N,Net-(Q2-B)*%
X148572000Y-135776000D03*
D13*
%TO.P,R6,2*%
%TO.N,GND*%
X148572000Y-143396000D03*
%TD*%
D12*
%TO.P,R5,1*%
%TO.N,5V*%
X120320000Y-151270000D03*
D13*
%TO.P,R5,2*%
%TO.N,Net-(C1-Pad1)*%
X127940000Y-151270000D03*
%TD*%
D17*
%TO.P,FLED1,1,K*%
%TO.N,Net-(FLED1-K)*%
X141920000Y-135152000D03*
D11*
%TO.P,FLED1,2,A*%
%TO.N,Net-(FLED1-A)*%
X139380000Y-135152000D03*
%TD*%
D12*
%TO.P,R8,1*%
%TO.N,Net-(FLED1-A)*%
X145578000Y-135776000D03*
D13*
%TO.P,R8,2*%
%TO.N,Net-(C1-Pad1)*%
X145578000Y-143396000D03*
%TD*%
D12*
%TO.P,R14,1*%
%TO.N,SEN4DI0*%
X168793718Y-138102668D03*
D13*
%TO.P,R14,2*%
%TO.N,Net-(D3-A)*%
X168793718Y-130482668D03*
%TD*%
D22*
%TO.P,RDPD1,1,C*%
%TO.N,Vcc*%
X151620000Y-131952000D03*
D11*
%TO.P,RDPD1,2,E*%
%TO.N,SEN2AIP*%
X153252682Y-133897755D03*
%TD*%
D17*
%TO.P,FPD1,1,C*%
%TO.N,Vcc*%
X139340000Y-138152000D03*
D11*
%TO.P,FPD1,2,E*%
%TO.N,SEN1AIP*%
X141880000Y-138152000D03*
%TD*%
D23*
%TO.P,LDPD1,1,C*%
%TO.N,Vcc*%
X127987300Y-133897800D03*
D11*
%TO.P,LDPD1,2,E*%
%TO.N,SEN0AIP*%
X129619982Y-131952045D03*
%TD*%
D24*
%TO.N,SEN0AIP*%
X126104390Y-138047144D03*
%TO.N,Net-(C1-Pad1)*%
X163500000Y-138570000D03*
%TD*%
D25*
%TO.N,GND*%
X102540000Y-146546000D02*
X102540000Y-142380000D01*
X163116000Y-141996000D02*
X164770000Y-143650000D01*
X113661000Y-140816000D02*
X116495000Y-143650000D01*
X125400000Y-139840000D02*
X130480000Y-139840000D01*
X138100000Y-133602000D02*
X138100000Y-130188000D01*
X179723878Y-146476122D02*
X176900000Y-149300000D01*
X179727493Y-139107493D02*
X179727493Y-139557493D01*
X135672000Y-137188000D02*
X135672000Y-136030000D01*
X164770000Y-135776000D02*
X164770000Y-143650000D01*
X148572000Y-144608000D02*
X148572000Y-143396000D01*
X141768000Y-141752000D02*
X144936000Y-144920000D01*
X129576000Y-140744000D02*
X130480000Y-139840000D01*
X173620000Y-133000000D02*
X179727493Y-139107493D01*
X104300000Y-136302000D02*
X107620000Y-132982000D01*
X135672000Y-136030000D02*
X138100000Y-133602000D01*
X121130000Y-153000000D02*
X107160000Y-153000000D01*
X124372000Y-147218000D02*
X124372000Y-140868000D01*
X104104000Y-140816000D02*
X105700000Y-140816000D01*
X124130000Y-147460000D02*
X124372000Y-147218000D01*
X104300000Y-139416000D02*
X104300000Y-136302000D01*
X139856000Y-139840000D02*
X141768000Y-141752000D01*
X170844000Y-135776000D02*
X173620000Y-133000000D01*
X105700000Y-140816000D02*
X113661000Y-140816000D01*
X138100000Y-130188000D02*
X147864000Y-130188000D01*
X133640000Y-130188000D02*
X138100000Y-130188000D01*
X148572000Y-143396000D02*
X149972000Y-141996000D01*
X164770000Y-135776000D02*
X170844000Y-135776000D01*
X124130000Y-150000000D02*
X121130000Y-153000000D01*
X129576000Y-143650000D02*
X129576000Y-140744000D01*
X144936000Y-144920000D02*
X148260000Y-144920000D01*
X176900000Y-149300000D02*
X175020000Y-149300000D01*
X179727345Y-139839852D02*
X179727345Y-139841398D01*
X105700000Y-140816000D02*
X104300000Y-139416000D01*
X105446000Y-151286000D02*
X105446000Y-149452000D01*
X107160000Y-153000000D02*
X105446000Y-151286000D01*
X102540000Y-142380000D02*
X104104000Y-140816000D01*
X124372000Y-140868000D02*
X125400000Y-139840000D01*
X149972000Y-141996000D02*
X163116000Y-141996000D01*
X179727493Y-139557493D02*
X179727345Y-139839852D01*
X179727345Y-139841398D02*
X179723878Y-146476122D01*
X124130000Y-147460000D02*
X124130000Y-150000000D01*
X133020000Y-139840000D02*
X135672000Y-137188000D01*
X130480000Y-139840000D02*
X133020000Y-139840000D01*
X148260000Y-144920000D02*
X148572000Y-144608000D01*
X105446000Y-149452000D02*
X102540000Y-146546000D01*
X133020000Y-139840000D02*
X139856000Y-139840000D01*
X154722000Y-135776000D02*
X158024000Y-135776000D01*
X158024000Y-135776000D02*
X164770000Y-135776000D01*
%TO.N,Net-(FLED1-K)*%
X141920000Y-135152000D02*
X142900000Y-135152000D01*
X142900000Y-135152000D02*
X146594000Y-131458000D01*
%TO.N,SEN0AIP*%
X124372000Y-135285692D02*
X124372000Y-136314754D01*
X124372000Y-136314754D02*
X126104390Y-138047144D01*
X129619982Y-131952045D02*
X127705647Y-131952045D01*
X127705647Y-131952045D02*
X124372000Y-135285692D01*
%TO.N,SEN1DI0*%
X131750000Y-147460000D02*
X133200000Y-148910000D01*
X133200000Y-148910000D02*
X160780000Y-148910000D01*
X160960000Y-145702006D02*
X153926006Y-145702006D01*
X153926006Y-145702006D02*
X151620000Y-143396000D01*
X160780000Y-148910000D02*
X161140000Y-148550000D01*
X161140000Y-145882006D02*
X160960000Y-145702006D01*
X161140000Y-148550000D02*
X161140000Y-145882006D01*
%TO.N,Net-(Q1-B)*%
X129576000Y-136030000D02*
X130338000Y-136030000D01*
X130338000Y-136030000D02*
X134910000Y-131458000D01*
%TO.N,Net-(Q2-B)*%
X149371999Y-129521999D02*
X148768000Y-128918000D01*
X148572000Y-135776000D02*
X149371999Y-134976001D01*
X149371999Y-134976001D02*
X149371999Y-129521999D01*
X148768000Y-128918000D02*
X146594000Y-128918000D01*
%TO.N,Net-(C1-Pad1)*%
X149134000Y-139840000D02*
X162230000Y-139840000D01*
X145578000Y-143396000D02*
X149134000Y-139840000D01*
X163500000Y-138570000D02*
X162230000Y-139840000D01*
%TD*%
%TA.AperFunction,Conductor*%
%TO.N,GND*%
G36*
X168373363Y-123215185D02*
G01*
X168394005Y-123231819D01*
X174045256Y-128883070D01*
X174078741Y-128944393D01*
X174073757Y-129014085D01*
X174031885Y-129070018D01*
X173966421Y-129094435D01*
X173937166Y-129093060D01*
X173736049Y-129059500D01*
X173503951Y-129059500D01*
X173494543Y-129061070D01*
X173275015Y-129097702D01*
X173055504Y-129173061D01*
X173055495Y-129173064D01*
X172851371Y-129283531D01*
X172851365Y-129283535D01*
X172668222Y-129426081D01*
X172668219Y-129426084D01*
X172668216Y-129426086D01*
X172668216Y-129426087D01*
X172661570Y-129433307D01*
X172511016Y-129596852D01*
X172384075Y-129791151D01*
X172290842Y-130003699D01*
X172233866Y-130228691D01*
X172233864Y-130228702D01*
X172214700Y-130459993D01*
X172214700Y-130460006D01*
X172233864Y-130691297D01*
X172233866Y-130691308D01*
X172290842Y-130916300D01*
X172384075Y-131128848D01*
X172511018Y-131323150D01*
X172606167Y-131426510D01*
X172637089Y-131489164D01*
X172629228Y-131558590D01*
X172585081Y-131612746D01*
X172558271Y-131626674D01*
X172477911Y-131656646D01*
X172477906Y-131656649D01*
X172362812Y-131742809D01*
X172362809Y-131742812D01*
X172276649Y-131857906D01*
X172276645Y-131857913D01*
X172226403Y-131992620D01*
X172226401Y-131992627D01*
X172220000Y-132052155D01*
X172220000Y-132750000D01*
X173244722Y-132750000D01*
X173200667Y-132826306D01*
X173170000Y-132940756D01*
X173170000Y-133059244D01*
X173200667Y-133173694D01*
X173244722Y-133250000D01*
X172220000Y-133250000D01*
X172220000Y-133947844D01*
X172226401Y-134007372D01*
X172226403Y-134007379D01*
X172276645Y-134142086D01*
X172276649Y-134142093D01*
X172362809Y-134257187D01*
X172362812Y-134257190D01*
X172477906Y-134343350D01*
X172477913Y-134343354D01*
X172612620Y-134393596D01*
X172612627Y-134393598D01*
X172672155Y-134399999D01*
X172672172Y-134400000D01*
X173370000Y-134400000D01*
X173370000Y-133375277D01*
X173446306Y-133419333D01*
X173560756Y-133450000D01*
X173679244Y-133450000D01*
X173793694Y-133419333D01*
X173870000Y-133375277D01*
X173870000Y-134400000D01*
X174567828Y-134400000D01*
X174567844Y-134399999D01*
X174627372Y-134393598D01*
X174627379Y-134393596D01*
X174762086Y-134343354D01*
X174762093Y-134343350D01*
X174877187Y-134257190D01*
X174877190Y-134257187D01*
X174963350Y-134142093D01*
X174963354Y-134142086D01*
X175013596Y-134007379D01*
X175013598Y-134007372D01*
X175019999Y-133947844D01*
X175020000Y-133947827D01*
X175020000Y-133250000D01*
X173995278Y-133250000D01*
X174039333Y-133173694D01*
X174070000Y-133059244D01*
X174070000Y-132940756D01*
X174039333Y-132826306D01*
X173995278Y-132750000D01*
X175020000Y-132750000D01*
X175020000Y-132052172D01*
X175019999Y-132052155D01*
X175013598Y-131992627D01*
X175013596Y-131992620D01*
X174963354Y-131857913D01*
X174963350Y-131857906D01*
X174877190Y-131742812D01*
X174877187Y-131742809D01*
X174762093Y-131656649D01*
X174762086Y-131656645D01*
X174681729Y-131626674D01*
X174625795Y-131584803D01*
X174601378Y-131519338D01*
X174616230Y-131451065D01*
X174633826Y-131426516D01*
X174728979Y-131323153D01*
X174855924Y-131128849D01*
X174949157Y-130916300D01*
X175006134Y-130691305D01*
X175006135Y-130691297D01*
X175025300Y-130460006D01*
X175025300Y-130459993D01*
X175006135Y-130228702D01*
X175006134Y-130228699D01*
X175006134Y-130228695D01*
X174986215Y-130150037D01*
X174988840Y-130080217D01*
X175028796Y-130022900D01*
X175093397Y-129996283D01*
X175162133Y-130008817D01*
X175194102Y-130031916D01*
X180093045Y-134930859D01*
X180126530Y-134992182D01*
X180129364Y-135018605D01*
X180126715Y-140090526D01*
X180120193Y-152575468D01*
X180119827Y-153275565D01*
X180100107Y-153342594D01*
X180047280Y-153388321D01*
X179995827Y-153399500D01*
X101244500Y-153399500D01*
X101177461Y-153379815D01*
X101131706Y-153327011D01*
X101120500Y-153275500D01*
X101120500Y-151269998D01*
X109220532Y-151269998D01*
X109220532Y-151270001D01*
X109240364Y-151496686D01*
X109240366Y-151496697D01*
X109299258Y-151716488D01*
X109299261Y-151716497D01*
X109395431Y-151922732D01*
X109395432Y-151922734D01*
X109525954Y-152109141D01*
X109686858Y-152270045D01*
X109686861Y-152270047D01*
X109873266Y-152400568D01*
X110079504Y-152496739D01*
X110299308Y-152555635D01*
X110461230Y-152569801D01*
X110525998Y-152575468D01*
X110526000Y-152575468D01*
X110526002Y-152575468D01*
X110582673Y-152570509D01*
X110752692Y-152555635D01*
X110972496Y-152496739D01*
X111178734Y-152400568D01*
X111365139Y-152270047D01*
X111526047Y-152109139D01*
X111656568Y-151922734D01*
X111752739Y-151716496D01*
X111811635Y-151496692D01*
X111831468Y-151270000D01*
X111831468Y-151269998D01*
X116840532Y-151269998D01*
X116840532Y-151270001D01*
X116860364Y-151496686D01*
X116860366Y-151496697D01*
X116919258Y-151716488D01*
X116919261Y-151716497D01*
X117015431Y-151922732D01*
X117015432Y-151922734D01*
X117145954Y-152109141D01*
X117306858Y-152270045D01*
X117306861Y-152270047D01*
X117493266Y-152400568D01*
X117699504Y-152496739D01*
X117919308Y-152555635D01*
X118081230Y-152569801D01*
X118145998Y-152575468D01*
X118146000Y-152575468D01*
X118146002Y-152575468D01*
X118202673Y-152570509D01*
X118372692Y-152555635D01*
X118592496Y-152496739D01*
X118798734Y-152400568D01*
X118985139Y-152270047D01*
X118985141Y-152270045D01*
X119145319Y-152109868D01*
X119206642Y-152076383D01*
X119276334Y-152081367D01*
X119320681Y-152109868D01*
X119480858Y-152270045D01*
X119480861Y-152270047D01*
X119667266Y-152400568D01*
X119873504Y-152496739D01*
X120093308Y-152555635D01*
X120255230Y-152569801D01*
X120319998Y-152575468D01*
X120320000Y-152575468D01*
X120320002Y-152575468D01*
X120376673Y-152570509D01*
X120546692Y-152555635D01*
X120766496Y-152496739D01*
X120972734Y-152400568D01*
X121159139Y-152270047D01*
X121320047Y-152109139D01*
X121450568Y-151922734D01*
X121546739Y-151716496D01*
X121605635Y-151496692D01*
X121625468Y-151270000D01*
X121625468Y-151269998D01*
X126634532Y-151269998D01*
X126634532Y-151270001D01*
X126654364Y-151496686D01*
X126654366Y-151496697D01*
X126713258Y-151716488D01*
X126713261Y-151716497D01*
X126809431Y-151922732D01*
X126809432Y-151922734D01*
X126939954Y-152109141D01*
X127100858Y-152270045D01*
X127100861Y-152270047D01*
X127287266Y-152400568D01*
X127493504Y-152496739D01*
X127713308Y-152555635D01*
X127875230Y-152569801D01*
X127939998Y-152575468D01*
X127940000Y-152575468D01*
X127940002Y-152575468D01*
X127996673Y-152570509D01*
X128166692Y-152555635D01*
X128386496Y-152496739D01*
X128592734Y-152400568D01*
X128779139Y-152270047D01*
X128940047Y-152109139D01*
X129070568Y-151922734D01*
X129166739Y-151716496D01*
X129225635Y-151496692D01*
X129245468Y-151270000D01*
X129225635Y-151043308D01*
X129166739Y-150823504D01*
X129070568Y-150617266D01*
X128940047Y-150430861D01*
X128940045Y-150430858D01*
X128779141Y-150269954D01*
X128592734Y-150139432D01*
X128592732Y-150139431D01*
X128386497Y-150043261D01*
X128386488Y-150043258D01*
X128166697Y-149984366D01*
X128166693Y-149984365D01*
X128166692Y-149984365D01*
X128166691Y-149984364D01*
X128166686Y-149984364D01*
X127940002Y-149964532D01*
X127939998Y-149964532D01*
X127713313Y-149984364D01*
X127713302Y-149984366D01*
X127493511Y-150043258D01*
X127493502Y-150043261D01*
X127287267Y-150139431D01*
X127287265Y-150139432D01*
X127100858Y-150269954D01*
X126939954Y-150430858D01*
X126809432Y-150617265D01*
X126809431Y-150617267D01*
X126713261Y-150823502D01*
X126713258Y-150823511D01*
X126654366Y-151043302D01*
X126654364Y-151043313D01*
X126634532Y-151269998D01*
X121625468Y-151269998D01*
X121605635Y-151043308D01*
X121546739Y-150823504D01*
X121450568Y-150617266D01*
X121320047Y-150430861D01*
X121320045Y-150430858D01*
X121159141Y-150269954D01*
X120972734Y-150139432D01*
X120972732Y-150139431D01*
X120766497Y-150043261D01*
X120766488Y-150043258D01*
X120546697Y-149984366D01*
X120546693Y-149984365D01*
X120546692Y-149984365D01*
X120546691Y-149984364D01*
X120546686Y-149984364D01*
X120320002Y-149964532D01*
X120319998Y-149964532D01*
X120093313Y-149984364D01*
X120093302Y-149984366D01*
X119873511Y-150043258D01*
X119873502Y-150043261D01*
X119667267Y-150139431D01*
X119667265Y-150139432D01*
X119480858Y-150269954D01*
X119320681Y-150430132D01*
X119259358Y-150463617D01*
X119189666Y-150458633D01*
X119145319Y-150430132D01*
X118985141Y-150269954D01*
X118798734Y-150139432D01*
X118798732Y-150139431D01*
X118592497Y-150043261D01*
X118592488Y-150043258D01*
X118372697Y-149984366D01*
X118372693Y-149984365D01*
X118372692Y-149984365D01*
X118372691Y-149984364D01*
X118372686Y-149984364D01*
X118146002Y-149964532D01*
X118145998Y-149964532D01*
X117919313Y-149984364D01*
X117919302Y-149984366D01*
X117699511Y-150043258D01*
X117699502Y-150043261D01*
X117493267Y-150139431D01*
X117493265Y-150139432D01*
X117306858Y-150269954D01*
X117145954Y-150430858D01*
X117015432Y-150617265D01*
X117015431Y-150617267D01*
X116919261Y-150823502D01*
X116919258Y-150823511D01*
X116860366Y-151043302D01*
X116860364Y-151043313D01*
X116840532Y-151269998D01*
X111831468Y-151269998D01*
X111811635Y-151043308D01*
X111752739Y-150823504D01*
X111656568Y-150617266D01*
X111526047Y-150430861D01*
X111526045Y-150430858D01*
X111365141Y-150269954D01*
X111178734Y-150139432D01*
X111178732Y-150139431D01*
X110972497Y-150043261D01*
X110972488Y-150043258D01*
X110752697Y-149984366D01*
X110752693Y-149984365D01*
X110752692Y-149984365D01*
X110752691Y-149984364D01*
X110752686Y-149984364D01*
X110526002Y-149964532D01*
X110525998Y-149964532D01*
X110299313Y-149984364D01*
X110299302Y-149984366D01*
X110079511Y-150043258D01*
X110079502Y-150043261D01*
X109873267Y-150139431D01*
X109873265Y-150139432D01*
X109686858Y-150269954D01*
X109525954Y-150430858D01*
X109395432Y-150617265D01*
X109395431Y-150617267D01*
X109299261Y-150823502D01*
X109299258Y-150823511D01*
X109240366Y-151043302D01*
X109240364Y-151043313D01*
X109220532Y-151269998D01*
X101120500Y-151269998D01*
X101120500Y-149451997D01*
X104141034Y-149451997D01*
X104141034Y-149452002D01*
X104160858Y-149678599D01*
X104160860Y-149678610D01*
X104219730Y-149898317D01*
X104219735Y-149898331D01*
X104315863Y-150104478D01*
X104366974Y-150177472D01*
X105046000Y-149498446D01*
X105046000Y-149504661D01*
X105073259Y-149606394D01*
X105125920Y-149697606D01*
X105200394Y-149772080D01*
X105291606Y-149824741D01*
X105393339Y-149852000D01*
X105399553Y-149852000D01*
X104720526Y-150531025D01*
X104793513Y-150582132D01*
X104793521Y-150582136D01*
X104999668Y-150678264D01*
X104999682Y-150678269D01*
X105219389Y-150737139D01*
X105219400Y-150737141D01*
X105445998Y-150756966D01*
X105446002Y-150756966D01*
X105672599Y-150737141D01*
X105672610Y-150737139D01*
X105892317Y-150678269D01*
X105892331Y-150678264D01*
X106098478Y-150582136D01*
X106171471Y-150531024D01*
X105492447Y-149852000D01*
X105498661Y-149852000D01*
X105600394Y-149824741D01*
X105691606Y-149772080D01*
X105766080Y-149697606D01*
X105818741Y-149606394D01*
X105846000Y-149504661D01*
X105846000Y-149498447D01*
X106525024Y-150177471D01*
X106576136Y-150104478D01*
X106672264Y-149898331D01*
X106672269Y-149898317D01*
X106731139Y-149678610D01*
X106731141Y-149678599D01*
X106750966Y-149452002D01*
X106750966Y-149451997D01*
X106731141Y-149225400D01*
X106731139Y-149225389D01*
X106672269Y-149005682D01*
X106672264Y-149005668D01*
X106576136Y-148799521D01*
X106576132Y-148799513D01*
X106525025Y-148726526D01*
X105846000Y-149405551D01*
X105846000Y-149399339D01*
X105818741Y-149297606D01*
X105766080Y-149206394D01*
X105691606Y-149131920D01*
X105600394Y-149079259D01*
X105498661Y-149052000D01*
X105492445Y-149052000D01*
X106176646Y-148367800D01*
X106186492Y-148318807D01*
X106235107Y-148268624D01*
X106290633Y-148253981D01*
X106290576Y-148252900D01*
X106290571Y-148252854D01*
X106290573Y-148252853D01*
X106290564Y-148252676D01*
X106293857Y-148252499D01*
X106293872Y-148252499D01*
X106353483Y-148246091D01*
X106488331Y-148195796D01*
X106603546Y-148109546D01*
X106689796Y-147994331D01*
X106740091Y-147859483D01*
X106746500Y-147799873D01*
X106746499Y-146104128D01*
X106740091Y-146044517D01*
X106705630Y-145952123D01*
X106689797Y-145909671D01*
X106689793Y-145909664D01*
X106603547Y-145794455D01*
X106603544Y-145794452D01*
X106488335Y-145708206D01*
X106488328Y-145708202D01*
X106353482Y-145657908D01*
X106353483Y-145657908D01*
X106293883Y-145651501D01*
X106293881Y-145651500D01*
X106293873Y-145651500D01*
X106293864Y-145651500D01*
X104598129Y-145651500D01*
X104598123Y-145651501D01*
X104538516Y-145657908D01*
X104403671Y-145708202D01*
X104403664Y-145708206D01*
X104288455Y-145794452D01*
X104288452Y-145794455D01*
X104202206Y-145909664D01*
X104202202Y-145909671D01*
X104151908Y-146044517D01*
X104147519Y-146085348D01*
X104145501Y-146104123D01*
X104145500Y-146104135D01*
X104145500Y-147799870D01*
X104145501Y-147799876D01*
X104151908Y-147859483D01*
X104202202Y-147994328D01*
X104202206Y-147994335D01*
X104288452Y-148109544D01*
X104288455Y-148109547D01*
X104403664Y-148195793D01*
X104403671Y-148195797D01*
X104448618Y-148212561D01*
X104538517Y-148246091D01*
X104598127Y-148252500D01*
X104598153Y-148252499D01*
X104601453Y-148252678D01*
X104601372Y-148254183D01*
X104662672Y-148272112D01*
X104708483Y-148324867D01*
X104716016Y-148368464D01*
X105399553Y-149052000D01*
X105393339Y-149052000D01*
X105291606Y-149079259D01*
X105200394Y-149131920D01*
X105125920Y-149206394D01*
X105073259Y-149297606D01*
X105046000Y-149399339D01*
X105046000Y-149405552D01*
X104366974Y-148726526D01*
X104366973Y-148726526D01*
X104315868Y-148799512D01*
X104315866Y-148799516D01*
X104219734Y-149005673D01*
X104219730Y-149005682D01*
X104160860Y-149225389D01*
X104160858Y-149225400D01*
X104141034Y-149451997D01*
X101120500Y-149451997D01*
X101120500Y-143649999D01*
X112789922Y-143649999D01*
X112789922Y-143650000D01*
X112810219Y-144037287D01*
X112870886Y-144420323D01*
X112870887Y-144420330D01*
X112971262Y-144794936D01*
X113110244Y-145156994D01*
X113286310Y-145502543D01*
X113497523Y-145827783D01*
X113497525Y-145827785D01*
X113706096Y-146085348D01*
X115200747Y-144590697D01*
X115274588Y-144692330D01*
X115452670Y-144870412D01*
X115554301Y-144944251D01*
X114059650Y-146438902D01*
X114317214Y-146647475D01*
X114317216Y-146647476D01*
X114642456Y-146858689D01*
X114988005Y-147034755D01*
X115350063Y-147173737D01*
X115724669Y-147274112D01*
X115724676Y-147274113D01*
X116107712Y-147334780D01*
X116494999Y-147355078D01*
X116495001Y-147355078D01*
X116882287Y-147334780D01*
X117265323Y-147274113D01*
X117265330Y-147274112D01*
X117639936Y-147173737D01*
X118001994Y-147034755D01*
X118347543Y-146858689D01*
X118672771Y-146647484D01*
X118672784Y-146647474D01*
X118778168Y-146562135D01*
X120239500Y-146562135D01*
X120239500Y-148357870D01*
X120239501Y-148357876D01*
X120245908Y-148417483D01*
X120296202Y-148552328D01*
X120296206Y-148552335D01*
X120382452Y-148667544D01*
X120382455Y-148667547D01*
X120497664Y-148753793D01*
X120497671Y-148753797D01*
X120632517Y-148804091D01*
X120632516Y-148804091D01*
X120639444Y-148804835D01*
X120692127Y-148810500D01*
X122487872Y-148810499D01*
X122547483Y-148804091D01*
X122682331Y-148753796D01*
X122797546Y-148667546D01*
X122883796Y-148552331D01*
X122933002Y-148420401D01*
X122974872Y-148364468D01*
X123040337Y-148340050D01*
X123108610Y-148354901D01*
X123136865Y-148376053D01*
X123258917Y-148498105D01*
X123452421Y-148633600D01*
X123666507Y-148733429D01*
X123666516Y-148733433D01*
X123880000Y-148790634D01*
X123880000Y-147893012D01*
X123937007Y-147925925D01*
X124064174Y-147960000D01*
X124195826Y-147960000D01*
X124322993Y-147925925D01*
X124380000Y-147893012D01*
X124380000Y-148790633D01*
X124593483Y-148733433D01*
X124593492Y-148733429D01*
X124807578Y-148633600D01*
X125001082Y-148498105D01*
X125168105Y-148331082D01*
X125298119Y-148145405D01*
X125352696Y-148101781D01*
X125422195Y-148094588D01*
X125484549Y-148126110D01*
X125501269Y-148145405D01*
X125631505Y-148331401D01*
X125798599Y-148498495D01*
X125895384Y-148566265D01*
X125992165Y-148634032D01*
X125992167Y-148634033D01*
X125992170Y-148634035D01*
X126206337Y-148733903D01*
X126434592Y-148795063D01*
X126611034Y-148810500D01*
X126669999Y-148815659D01*
X126670000Y-148815659D01*
X126670001Y-148815659D01*
X126728966Y-148810500D01*
X126905408Y-148795063D01*
X127133663Y-148733903D01*
X127347830Y-148634035D01*
X127541401Y-148498495D01*
X127708495Y-148331401D01*
X127838425Y-148145842D01*
X127893002Y-148102217D01*
X127962500Y-148095023D01*
X128024855Y-148126546D01*
X128041575Y-148145842D01*
X128171281Y-148331082D01*
X128171505Y-148331401D01*
X128338599Y-148498495D01*
X128435384Y-148566265D01*
X128532165Y-148634032D01*
X128532167Y-148634033D01*
X128532170Y-148634035D01*
X128746337Y-148733903D01*
X128974592Y-148795063D01*
X129151034Y-148810500D01*
X129209999Y-148815659D01*
X129210000Y-148815659D01*
X129210001Y-148815659D01*
X129268966Y-148810500D01*
X129445408Y-148795063D01*
X129673663Y-148733903D01*
X129887830Y-148634035D01*
X130081401Y-148498495D01*
X130248495Y-148331401D01*
X130378425Y-148145842D01*
X130433002Y-148102217D01*
X130502500Y-148095023D01*
X130564855Y-148126546D01*
X130581575Y-148145842D01*
X130711281Y-148331082D01*
X130711505Y-148331401D01*
X130878599Y-148498495D01*
X130975384Y-148566265D01*
X131072165Y-148634032D01*
X131072167Y-148634033D01*
X131072170Y-148634035D01*
X131286337Y-148733903D01*
X131514592Y-148795063D01*
X131750000Y-148815659D01*
X131767945Y-148814088D01*
X131836442Y-148827852D01*
X131866435Y-148849935D01*
X132500536Y-149484035D01*
X132622895Y-149606394D01*
X132625966Y-149609465D01*
X132685039Y-149648936D01*
X132773453Y-149708013D01*
X132821452Y-149727895D01*
X132937334Y-149775895D01*
X133086438Y-149805553D01*
X133111304Y-149810499D01*
X133111308Y-149810500D01*
X133111309Y-149810500D01*
X160868693Y-149810500D01*
X160868694Y-149810499D01*
X161042666Y-149775895D01*
X161124606Y-149741953D01*
X161206547Y-149708013D01*
X161206549Y-149708011D01*
X161206552Y-149708010D01*
X161294955Y-149648939D01*
X161294955Y-149648938D01*
X161294959Y-149648936D01*
X161354036Y-149609464D01*
X161663503Y-149299997D01*
X173715034Y-149299997D01*
X173715034Y-149300002D01*
X173734858Y-149526599D01*
X173734860Y-149526610D01*
X173793730Y-149746317D01*
X173793735Y-149746331D01*
X173889863Y-149952478D01*
X173940974Y-150025472D01*
X174620000Y-149346446D01*
X174620000Y-149352661D01*
X174647259Y-149454394D01*
X174699920Y-149545606D01*
X174774394Y-149620080D01*
X174865606Y-149672741D01*
X174967339Y-149700000D01*
X174973553Y-149700000D01*
X174294526Y-150379025D01*
X174367513Y-150430132D01*
X174367521Y-150430136D01*
X174573668Y-150526264D01*
X174573682Y-150526269D01*
X174793389Y-150585139D01*
X174793400Y-150585141D01*
X175019998Y-150604966D01*
X175020002Y-150604966D01*
X175246599Y-150585141D01*
X175246610Y-150585139D01*
X175466317Y-150526269D01*
X175466331Y-150526264D01*
X175672478Y-150430136D01*
X175745471Y-150379024D01*
X175066447Y-149700000D01*
X175072661Y-149700000D01*
X175174394Y-149672741D01*
X175265606Y-149620080D01*
X175340080Y-149545606D01*
X175392741Y-149454394D01*
X175420000Y-149352661D01*
X175420000Y-149346447D01*
X176099024Y-150025471D01*
X176150136Y-149952478D01*
X176246264Y-149746331D01*
X176246269Y-149746317D01*
X176305139Y-149526610D01*
X176305141Y-149526599D01*
X176324966Y-149300002D01*
X176324966Y-149299997D01*
X176305141Y-149073400D01*
X176305139Y-149073389D01*
X176246269Y-148853682D01*
X176246264Y-148853668D01*
X176150136Y-148647521D01*
X176150132Y-148647513D01*
X176099025Y-148574526D01*
X175420000Y-149253551D01*
X175420000Y-149247339D01*
X175392741Y-149145606D01*
X175340080Y-149054394D01*
X175265606Y-148979920D01*
X175174394Y-148927259D01*
X175072661Y-148900000D01*
X175066445Y-148900000D01*
X175750646Y-148215800D01*
X175760492Y-148166807D01*
X175809107Y-148116624D01*
X175864633Y-148101981D01*
X175864576Y-148100900D01*
X175864571Y-148100854D01*
X175864573Y-148100853D01*
X175864564Y-148100676D01*
X175867857Y-148100499D01*
X175867872Y-148100499D01*
X175927483Y-148094091D01*
X176062331Y-148043796D01*
X176177546Y-147957546D01*
X176263796Y-147842331D01*
X176314091Y-147707483D01*
X176320500Y-147647873D01*
X176320499Y-145952128D01*
X176314091Y-145892517D01*
X176289942Y-145827771D01*
X176263797Y-145757671D01*
X176263793Y-145757664D01*
X176177547Y-145642455D01*
X176177544Y-145642452D01*
X176062335Y-145556206D01*
X176062328Y-145556202D01*
X175927482Y-145505908D01*
X175927483Y-145505908D01*
X175867883Y-145499501D01*
X175867881Y-145499500D01*
X175867873Y-145499500D01*
X175867864Y-145499500D01*
X174172129Y-145499500D01*
X174172123Y-145499501D01*
X174112516Y-145505908D01*
X173977671Y-145556202D01*
X173977664Y-145556206D01*
X173862455Y-145642452D01*
X173862452Y-145642455D01*
X173776206Y-145757664D01*
X173776202Y-145757671D01*
X173725908Y-145892517D01*
X173719501Y-145952116D01*
X173719501Y-145952123D01*
X173719500Y-145952135D01*
X173719500Y-147647870D01*
X173719501Y-147647876D01*
X173725908Y-147707483D01*
X173776202Y-147842328D01*
X173776206Y-147842335D01*
X173862452Y-147957544D01*
X173862455Y-147957547D01*
X173977664Y-148043793D01*
X173977671Y-148043797D01*
X174022618Y-148060561D01*
X174112517Y-148094091D01*
X174172127Y-148100500D01*
X174172153Y-148100499D01*
X174175453Y-148100678D01*
X174175372Y-148102183D01*
X174236672Y-148120112D01*
X174282483Y-148172867D01*
X174290016Y-148216464D01*
X174973553Y-148900000D01*
X174967339Y-148900000D01*
X174865606Y-148927259D01*
X174774394Y-148979920D01*
X174699920Y-149054394D01*
X174647259Y-149145606D01*
X174620000Y-149247339D01*
X174620000Y-149253552D01*
X173940974Y-148574526D01*
X173940973Y-148574526D01*
X173889868Y-148647512D01*
X173889866Y-148647516D01*
X173793734Y-148853673D01*
X173793730Y-148853682D01*
X173734860Y-149073389D01*
X173734858Y-149073400D01*
X173715034Y-149299997D01*
X161663503Y-149299997D01*
X161839464Y-149124036D01*
X161938013Y-148976547D01*
X162005895Y-148812666D01*
X162040500Y-148638692D01*
X162040500Y-148461308D01*
X162040500Y-146452453D01*
X162060185Y-146385414D01*
X162112989Y-146339659D01*
X162182147Y-146329715D01*
X162245703Y-146358740D01*
X162252181Y-146364772D01*
X162290815Y-146403406D01*
X162290823Y-146403413D01*
X162592214Y-146647474D01*
X162592216Y-146647476D01*
X162917456Y-146858689D01*
X163263005Y-147034755D01*
X163625063Y-147173737D01*
X163999669Y-147274112D01*
X163999676Y-147274113D01*
X164382712Y-147334780D01*
X164769999Y-147355078D01*
X164770001Y-147355078D01*
X165157287Y-147334780D01*
X165540323Y-147274113D01*
X165540330Y-147274112D01*
X165914936Y-147173737D01*
X166276994Y-147034755D01*
X166622543Y-146858689D01*
X166947771Y-146647484D01*
X166947784Y-146647474D01*
X167205348Y-146438902D01*
X165710698Y-144944252D01*
X165812330Y-144870412D01*
X165990412Y-144692330D01*
X166064252Y-144590698D01*
X167558902Y-146085348D01*
X167767474Y-145827784D01*
X167767484Y-145827771D01*
X167978689Y-145502543D01*
X168154755Y-145156994D01*
X168293737Y-144794936D01*
X168394112Y-144420330D01*
X168394113Y-144420323D01*
X168454780Y-144037287D01*
X168475078Y-143650000D01*
X168475078Y-143649999D01*
X168454780Y-143262712D01*
X168394113Y-142879676D01*
X168394112Y-142879669D01*
X168293737Y-142505063D01*
X168154755Y-142143005D01*
X167978689Y-141797456D01*
X167767476Y-141472216D01*
X167767475Y-141472214D01*
X167558902Y-141214650D01*
X166064251Y-142709301D01*
X165990412Y-142607670D01*
X165812330Y-142429588D01*
X165710698Y-142355748D01*
X167205349Y-140861096D01*
X166947785Y-140652525D01*
X166947783Y-140652523D01*
X166622543Y-140441310D01*
X166276994Y-140265244D01*
X165914936Y-140126262D01*
X165540330Y-140025887D01*
X165540323Y-140025886D01*
X165157287Y-139965219D01*
X164770001Y-139944922D01*
X164769999Y-139944922D01*
X164382712Y-139965219D01*
X163999676Y-140025886D01*
X163999669Y-140025887D01*
X163625063Y-140126262D01*
X163507779Y-140171284D01*
X163438138Y-140176932D01*
X163376499Y-140144032D01*
X163342431Y-140083030D01*
X163346752Y-140013295D01*
X163375658Y-139967841D01*
X164199464Y-139144036D01*
X164298012Y-138996547D01*
X164365895Y-138832666D01*
X164400500Y-138658692D01*
X164400500Y-138481308D01*
X164365895Y-138307334D01*
X164298012Y-138143454D01*
X164292921Y-138135835D01*
X164270759Y-138102666D01*
X167488250Y-138102666D01*
X167488250Y-138102669D01*
X167508082Y-138329354D01*
X167508084Y-138329365D01*
X167566976Y-138549156D01*
X167566979Y-138549165D01*
X167663149Y-138755400D01*
X167663150Y-138755402D01*
X167793672Y-138941809D01*
X167954576Y-139102713D01*
X167954579Y-139102715D01*
X168140984Y-139233236D01*
X168347222Y-139329407D01*
X168567026Y-139388303D01*
X168728948Y-139402469D01*
X168793716Y-139408136D01*
X168793718Y-139408136D01*
X168793720Y-139408136D01*
X168850391Y-139403177D01*
X169020410Y-139388303D01*
X169240214Y-139329407D01*
X169446452Y-139233236D01*
X169632857Y-139102715D01*
X169793765Y-138941807D01*
X169924286Y-138755402D01*
X170020457Y-138549164D01*
X170079353Y-138329360D01*
X170096352Y-138135052D01*
X170099186Y-138102669D01*
X170099186Y-138102666D01*
X170086569Y-137958452D01*
X170079353Y-137875976D01*
X170020457Y-137656172D01*
X169924286Y-137449934D01*
X169825514Y-137308871D01*
X169793763Y-137263526D01*
X169632859Y-137102622D01*
X169446452Y-136972100D01*
X169446450Y-136972099D01*
X169240215Y-136875929D01*
X169240206Y-136875926D01*
X169020415Y-136817034D01*
X169020411Y-136817033D01*
X169020410Y-136817033D01*
X169020409Y-136817032D01*
X169020404Y-136817032D01*
X168793720Y-136797200D01*
X168793716Y-136797200D01*
X168567031Y-136817032D01*
X168567020Y-136817034D01*
X168347229Y-136875926D01*
X168347220Y-136875929D01*
X168140985Y-136972099D01*
X168140983Y-136972100D01*
X167954576Y-137102622D01*
X167793672Y-137263526D01*
X167663150Y-137449933D01*
X167663149Y-137449935D01*
X167566979Y-137656170D01*
X167566976Y-137656179D01*
X167508084Y-137875970D01*
X167508082Y-137875981D01*
X167488250Y-138102666D01*
X164270759Y-138102666D01*
X164199465Y-137995966D01*
X164199459Y-137995959D01*
X164074040Y-137870540D01*
X164074033Y-137870534D01*
X163926547Y-137771988D01*
X163762666Y-137704105D01*
X163762658Y-137704103D01*
X163588696Y-137669500D01*
X163588692Y-137669500D01*
X163411308Y-137669500D01*
X163411303Y-137669500D01*
X163237341Y-137704103D01*
X163237333Y-137704105D01*
X163073451Y-137771988D01*
X162925965Y-137870534D01*
X162925958Y-137870540D01*
X161893319Y-138903181D01*
X161831996Y-138936666D01*
X161805638Y-138939500D01*
X149045306Y-138939500D01*
X148871341Y-138974103D01*
X148871332Y-138974106D01*
X148707459Y-139041983D01*
X148707446Y-139041990D01*
X148559966Y-139140534D01*
X148559964Y-139140537D01*
X145644945Y-142055553D01*
X145583622Y-142089038D01*
X145568072Y-142091400D01*
X145351312Y-142110364D01*
X145351302Y-142110366D01*
X145131511Y-142169258D01*
X145131502Y-142169261D01*
X144925267Y-142265431D01*
X144925265Y-142265432D01*
X144738858Y-142395954D01*
X144577954Y-142556858D01*
X144447432Y-142743265D01*
X144447431Y-142743267D01*
X144351261Y-142949502D01*
X144351258Y-142949511D01*
X144292366Y-143169302D01*
X144292364Y-143169313D01*
X144272532Y-143395998D01*
X144272532Y-143396001D01*
X144292364Y-143622686D01*
X144292366Y-143622697D01*
X144351258Y-143842488D01*
X144351261Y-143842497D01*
X144447431Y-144048732D01*
X144447432Y-144048734D01*
X144577954Y-144235141D01*
X144738858Y-144396045D01*
X144738861Y-144396047D01*
X144925266Y-144526568D01*
X145131504Y-144622739D01*
X145351308Y-144681635D01*
X145513230Y-144695801D01*
X145577998Y-144701468D01*
X145578000Y-144701468D01*
X145578002Y-144701468D01*
X145634673Y-144696509D01*
X145804692Y-144681635D01*
X146024496Y-144622739D01*
X146230734Y-144526568D01*
X146417139Y-144396047D01*
X146578047Y-144235139D01*
X146708568Y-144048734D01*
X146804739Y-143842496D01*
X146863635Y-143622692D01*
X146882599Y-143405924D01*
X146908051Y-143340857D01*
X146918438Y-143329060D01*
X147109948Y-143137550D01*
X147171269Y-143104067D01*
X147240961Y-143109051D01*
X147290936Y-143146000D01*
X148256314Y-143146000D01*
X148251920Y-143150394D01*
X148199259Y-143241606D01*
X148172000Y-143343339D01*
X148172000Y-143448661D01*
X148199259Y-143550394D01*
X148251920Y-143641606D01*
X148256314Y-143646000D01*
X147293128Y-143646000D01*
X147345730Y-143842317D01*
X147345734Y-143842326D01*
X147441865Y-144048482D01*
X147572342Y-144234820D01*
X147733179Y-144395657D01*
X147919517Y-144526134D01*
X148125673Y-144622265D01*
X148125682Y-144622269D01*
X148321999Y-144674872D01*
X148322000Y-144674871D01*
X148322000Y-143711686D01*
X148326394Y-143716080D01*
X148417606Y-143768741D01*
X148519339Y-143796000D01*
X148624661Y-143796000D01*
X148726394Y-143768741D01*
X148817606Y-143716080D01*
X148822000Y-143711686D01*
X148822000Y-144674872D01*
X149018317Y-144622269D01*
X149018326Y-144622265D01*
X149224482Y-144526134D01*
X149410820Y-144395657D01*
X149571657Y-144234820D01*
X149702134Y-144048482D01*
X149798265Y-143842326D01*
X149798269Y-143842317D01*
X149850872Y-143646000D01*
X148887686Y-143646000D01*
X148892080Y-143641606D01*
X148944741Y-143550394D01*
X148972000Y-143448661D01*
X148972000Y-143343339D01*
X148944741Y-143241606D01*
X148892080Y-143150394D01*
X148887686Y-143146000D01*
X149850872Y-143146000D01*
X149850872Y-143145999D01*
X149798269Y-142949682D01*
X149798265Y-142949673D01*
X149702134Y-142743517D01*
X149571657Y-142557179D01*
X149410820Y-142396342D01*
X149224482Y-142265865D01*
X149018328Y-142169734D01*
X148822000Y-142117127D01*
X148822000Y-143080314D01*
X148817606Y-143075920D01*
X148726394Y-143023259D01*
X148624661Y-142996000D01*
X148519339Y-142996000D01*
X148417606Y-143023259D01*
X148326394Y-143075920D01*
X148322000Y-143080314D01*
X148322000Y-142114871D01*
X148284544Y-142063574D01*
X148280389Y-141993828D01*
X148313549Y-141933949D01*
X149470680Y-140776819D01*
X149532003Y-140743334D01*
X149558361Y-140740500D01*
X162210302Y-140740500D01*
X162277341Y-140760185D01*
X162323096Y-140812989D01*
X162331685Y-140858131D01*
X163829301Y-142355747D01*
X163727670Y-142429588D01*
X163549588Y-142607670D01*
X163475748Y-142709301D01*
X161981096Y-141214649D01*
X161981095Y-141214649D01*
X161772531Y-141472206D01*
X161561310Y-141797456D01*
X161385244Y-142143005D01*
X161246262Y-142505063D01*
X161145887Y-142879669D01*
X161145886Y-142879676D01*
X161085219Y-143262712D01*
X161064922Y-143649999D01*
X161064922Y-143650000D01*
X161085219Y-144037287D01*
X161145886Y-144420323D01*
X161145887Y-144420330D01*
X161207634Y-144650774D01*
X161205971Y-144720624D01*
X161166808Y-144778486D01*
X161102580Y-144805990D01*
X161063670Y-144804485D01*
X161048692Y-144801506D01*
X161048691Y-144801506D01*
X158646455Y-144801506D01*
X158579416Y-144781821D01*
X158533661Y-144729017D01*
X158523717Y-144659859D01*
X158552742Y-144596303D01*
X158594048Y-144565125D01*
X158676734Y-144526568D01*
X158863139Y-144396047D01*
X159024047Y-144235139D01*
X159154568Y-144048734D01*
X159250739Y-143842496D01*
X159309635Y-143622692D01*
X159329468Y-143396000D01*
X159328599Y-143386072D01*
X159317807Y-143262712D01*
X159309635Y-143169308D01*
X159250739Y-142949504D01*
X159154568Y-142743266D01*
X159024047Y-142556861D01*
X159024045Y-142556858D01*
X158863141Y-142395954D01*
X158676734Y-142265432D01*
X158676732Y-142265431D01*
X158470497Y-142169261D01*
X158470488Y-142169258D01*
X158250697Y-142110366D01*
X158250693Y-142110365D01*
X158250692Y-142110365D01*
X158250691Y-142110364D01*
X158250686Y-142110364D01*
X158024002Y-142090532D01*
X158023998Y-142090532D01*
X157797313Y-142110364D01*
X157797302Y-142110366D01*
X157577511Y-142169258D01*
X157577502Y-142169261D01*
X157371267Y-142265431D01*
X157371265Y-142265432D01*
X157184858Y-142395954D01*
X157023954Y-142556858D01*
X156893432Y-142743265D01*
X156893431Y-142743267D01*
X156797261Y-142949502D01*
X156797258Y-142949511D01*
X156738366Y-143169302D01*
X156738364Y-143169313D01*
X156718532Y-143395998D01*
X156718532Y-143396001D01*
X156738364Y-143622686D01*
X156738366Y-143622697D01*
X156797258Y-143842488D01*
X156797261Y-143842497D01*
X156893431Y-144048732D01*
X156893432Y-144048734D01*
X157023954Y-144235141D01*
X157184858Y-144396045D01*
X157184861Y-144396047D01*
X157371266Y-144526568D01*
X157453951Y-144565124D01*
X157506389Y-144611296D01*
X157525541Y-144678490D01*
X157505325Y-144745371D01*
X157452160Y-144790706D01*
X157401545Y-144801506D01*
X155344455Y-144801506D01*
X155277416Y-144781821D01*
X155231661Y-144729017D01*
X155221717Y-144659859D01*
X155250742Y-144596303D01*
X155292048Y-144565125D01*
X155374734Y-144526568D01*
X155561139Y-144396047D01*
X155722047Y-144235139D01*
X155852568Y-144048734D01*
X155948739Y-143842496D01*
X156007635Y-143622692D01*
X156027468Y-143396000D01*
X156026599Y-143386072D01*
X156015807Y-143262712D01*
X156007635Y-143169308D01*
X155948739Y-142949504D01*
X155852568Y-142743266D01*
X155722047Y-142556861D01*
X155722045Y-142556858D01*
X155561141Y-142395954D01*
X155374734Y-142265432D01*
X155374732Y-142265431D01*
X155168497Y-142169261D01*
X155168488Y-142169258D01*
X154948697Y-142110366D01*
X154948693Y-142110365D01*
X154948692Y-142110365D01*
X154948691Y-142110364D01*
X154948686Y-142110364D01*
X154722002Y-142090532D01*
X154721998Y-142090532D01*
X154495313Y-142110364D01*
X154495302Y-142110366D01*
X154275511Y-142169258D01*
X154275502Y-142169261D01*
X154069267Y-142265431D01*
X154069265Y-142265432D01*
X153882858Y-142395954D01*
X153721954Y-142556858D01*
X153591432Y-142743265D01*
X153591431Y-142743267D01*
X153495261Y-142949502D01*
X153495258Y-142949511D01*
X153436366Y-143169302D01*
X153436364Y-143169313D01*
X153416532Y-143395998D01*
X153416532Y-143396000D01*
X153436364Y-143622686D01*
X153436837Y-143628086D01*
X153434758Y-143628267D01*
X153427999Y-143688718D01*
X153383927Y-143742935D01*
X153317540Y-143764718D01*
X153249915Y-143747151D01*
X153225960Y-143728460D01*
X152960446Y-143462946D01*
X152926961Y-143401623D01*
X152924599Y-143386072D01*
X152922896Y-143366603D01*
X152905635Y-143169308D01*
X152846739Y-142949504D01*
X152750568Y-142743266D01*
X152620047Y-142556861D01*
X152620045Y-142556858D01*
X152459141Y-142395954D01*
X152272734Y-142265432D01*
X152272732Y-142265431D01*
X152066497Y-142169261D01*
X152066488Y-142169258D01*
X151846697Y-142110366D01*
X151846693Y-142110365D01*
X151846692Y-142110365D01*
X151846691Y-142110364D01*
X151846686Y-142110364D01*
X151620002Y-142090532D01*
X151619998Y-142090532D01*
X151393313Y-142110364D01*
X151393302Y-142110366D01*
X151173511Y-142169258D01*
X151173502Y-142169261D01*
X150967267Y-142265431D01*
X150967265Y-142265432D01*
X150780858Y-142395954D01*
X150619954Y-142556858D01*
X150489432Y-142743265D01*
X150489431Y-142743267D01*
X150393261Y-142949502D01*
X150393258Y-142949511D01*
X150334366Y-143169302D01*
X150334364Y-143169313D01*
X150314532Y-143395998D01*
X150314532Y-143396001D01*
X150334364Y-143622686D01*
X150334366Y-143622697D01*
X150393258Y-143842488D01*
X150393261Y-143842497D01*
X150489431Y-144048732D01*
X150489432Y-144048734D01*
X150619954Y-144235141D01*
X150780858Y-144396045D01*
X150780861Y-144396047D01*
X150967266Y-144526568D01*
X151173504Y-144622739D01*
X151393308Y-144681635D01*
X151610073Y-144700599D01*
X151675141Y-144726051D01*
X151686946Y-144736446D01*
X153351964Y-146401465D01*
X153351967Y-146401468D01*
X153381956Y-146421506D01*
X153485419Y-146490638D01*
X153530224Y-146544250D01*
X153538931Y-146613575D01*
X153518103Y-146664863D01*
X153441575Y-146774158D01*
X153386999Y-146817783D01*
X153317500Y-146824977D01*
X153255146Y-146793455D01*
X153238425Y-146774158D01*
X153108494Y-146588597D01*
X152941402Y-146421506D01*
X152941395Y-146421501D01*
X152747834Y-146285967D01*
X152747830Y-146285965D01*
X152747828Y-146285964D01*
X152533663Y-146186097D01*
X152533659Y-146186096D01*
X152533655Y-146186094D01*
X152305413Y-146124938D01*
X152305403Y-146124936D01*
X152070001Y-146104341D01*
X152069999Y-146104341D01*
X151834596Y-146124936D01*
X151834586Y-146124938D01*
X151606344Y-146186094D01*
X151606335Y-146186098D01*
X151392171Y-146285964D01*
X151392169Y-146285965D01*
X151198597Y-146421505D01*
X151031505Y-146588597D01*
X150901575Y-146774158D01*
X150846998Y-146817783D01*
X150777500Y-146824977D01*
X150715145Y-146793454D01*
X150698425Y-146774158D01*
X150568494Y-146588597D01*
X150401402Y-146421506D01*
X150401395Y-146421501D01*
X150207834Y-146285967D01*
X150207830Y-146285965D01*
X150207828Y-146285964D01*
X149993663Y-146186097D01*
X149993659Y-146186096D01*
X149993655Y-146186094D01*
X149765413Y-146124938D01*
X149765403Y-146124936D01*
X149530001Y-146104341D01*
X149529999Y-146104341D01*
X149294596Y-146124936D01*
X149294586Y-146124938D01*
X149066344Y-146186094D01*
X149066335Y-146186098D01*
X148852171Y-146285964D01*
X148852169Y-146285965D01*
X148658597Y-146421505D01*
X148491505Y-146588597D01*
X148361575Y-146774158D01*
X148306998Y-146817783D01*
X148237500Y-146824977D01*
X148175145Y-146793454D01*
X148158425Y-146774158D01*
X148028494Y-146588597D01*
X147861402Y-146421506D01*
X147861395Y-146421501D01*
X147667834Y-146285967D01*
X147667830Y-146285965D01*
X147667828Y-146285964D01*
X147453663Y-146186097D01*
X147453659Y-146186096D01*
X147453655Y-146186094D01*
X147225413Y-146124938D01*
X147225403Y-146124936D01*
X146990001Y-146104341D01*
X146989999Y-146104341D01*
X146754596Y-146124936D01*
X146754586Y-146124938D01*
X146526344Y-146186094D01*
X146526335Y-146186098D01*
X146312171Y-146285964D01*
X146312169Y-146285965D01*
X146118597Y-146421505D01*
X145951505Y-146588597D01*
X145821575Y-146774158D01*
X145766998Y-146817783D01*
X145697500Y-146824977D01*
X145635145Y-146793454D01*
X145618425Y-146774158D01*
X145488494Y-146588597D01*
X145321402Y-146421506D01*
X145321395Y-146421501D01*
X145127834Y-146285967D01*
X145127830Y-146285965D01*
X145127828Y-146285964D01*
X144913663Y-146186097D01*
X144913659Y-146186096D01*
X144913655Y-146186094D01*
X144685413Y-146124938D01*
X144685403Y-146124936D01*
X144450001Y-146104341D01*
X144449999Y-146104341D01*
X144214596Y-146124936D01*
X144214586Y-146124938D01*
X143986344Y-146186094D01*
X143986335Y-146186098D01*
X143772171Y-146285964D01*
X143772169Y-146285965D01*
X143578597Y-146421505D01*
X143411505Y-146588597D01*
X143281575Y-146774158D01*
X143226998Y-146817783D01*
X143157500Y-146824977D01*
X143095145Y-146793454D01*
X143078425Y-146774158D01*
X142948494Y-146588597D01*
X142781402Y-146421506D01*
X142781395Y-146421501D01*
X142587834Y-146285967D01*
X142587830Y-146285965D01*
X142587828Y-146285964D01*
X142373663Y-146186097D01*
X142373659Y-146186096D01*
X142373655Y-146186094D01*
X142145413Y-146124938D01*
X142145403Y-146124936D01*
X141910001Y-146104341D01*
X141909999Y-146104341D01*
X141674596Y-146124936D01*
X141674586Y-146124938D01*
X141446344Y-146186094D01*
X141446335Y-146186098D01*
X141232171Y-146285964D01*
X141232169Y-146285965D01*
X141038597Y-146421505D01*
X140871505Y-146588597D01*
X140741575Y-146774158D01*
X140686998Y-146817783D01*
X140617500Y-146824977D01*
X140555145Y-146793454D01*
X140538425Y-146774158D01*
X140408494Y-146588597D01*
X140241402Y-146421506D01*
X140241395Y-146421501D01*
X140047834Y-146285967D01*
X140047830Y-146285965D01*
X140047828Y-146285964D01*
X139833663Y-146186097D01*
X139833659Y-146186096D01*
X139833655Y-146186094D01*
X139605413Y-146124938D01*
X139605403Y-146124936D01*
X139370001Y-146104341D01*
X139369999Y-146104341D01*
X139134596Y-146124936D01*
X139134586Y-146124938D01*
X138906344Y-146186094D01*
X138906335Y-146186098D01*
X138692171Y-146285964D01*
X138692169Y-146285965D01*
X138498597Y-146421505D01*
X138331505Y-146588597D01*
X138201575Y-146774158D01*
X138146998Y-146817783D01*
X138077500Y-146824977D01*
X138015145Y-146793454D01*
X137998425Y-146774158D01*
X137868494Y-146588597D01*
X137701402Y-146421506D01*
X137701395Y-146421501D01*
X137507834Y-146285967D01*
X137507830Y-146285965D01*
X137507828Y-146285964D01*
X137293663Y-146186097D01*
X137293659Y-146186096D01*
X137293655Y-146186094D01*
X137065413Y-146124938D01*
X137065403Y-146124936D01*
X136830001Y-146104341D01*
X136829999Y-146104341D01*
X136594596Y-146124936D01*
X136594586Y-146124938D01*
X136366344Y-146186094D01*
X136366335Y-146186098D01*
X136152171Y-146285964D01*
X136152169Y-146285965D01*
X135958597Y-146421505D01*
X135791505Y-146588597D01*
X135661575Y-146774158D01*
X135606998Y-146817783D01*
X135537500Y-146824977D01*
X135475145Y-146793454D01*
X135458425Y-146774158D01*
X135328494Y-146588597D01*
X135161402Y-146421506D01*
X135161395Y-146421501D01*
X134967834Y-146285967D01*
X134967830Y-146285965D01*
X134967828Y-146285964D01*
X134753663Y-146186097D01*
X134753659Y-146186096D01*
X134753655Y-146186094D01*
X134525413Y-146124938D01*
X134525403Y-146124936D01*
X134290001Y-146104341D01*
X134289999Y-146104341D01*
X134054596Y-146124936D01*
X134054586Y-146124938D01*
X133826344Y-146186094D01*
X133826335Y-146186098D01*
X133612171Y-146285964D01*
X133612169Y-146285965D01*
X133418597Y-146421505D01*
X133251505Y-146588597D01*
X133121575Y-146774158D01*
X133066998Y-146817783D01*
X132997500Y-146824977D01*
X132935145Y-146793454D01*
X132918425Y-146774158D01*
X132788494Y-146588597D01*
X132621402Y-146421506D01*
X132621395Y-146421501D01*
X132427834Y-146285967D01*
X132427830Y-146285965D01*
X132427828Y-146285964D01*
X132213663Y-146186097D01*
X132213659Y-146186096D01*
X132213655Y-146186094D01*
X131985413Y-146124938D01*
X131985403Y-146124936D01*
X131750001Y-146104341D01*
X131749999Y-146104341D01*
X131514596Y-146124936D01*
X131514586Y-146124938D01*
X131286344Y-146186094D01*
X131286335Y-146186098D01*
X131072171Y-146285964D01*
X131072169Y-146285965D01*
X130878597Y-146421505D01*
X130711505Y-146588597D01*
X130581575Y-146774158D01*
X130526998Y-146817783D01*
X130457500Y-146824977D01*
X130395145Y-146793454D01*
X130378425Y-146774158D01*
X130248494Y-146588597D01*
X130081402Y-146421506D01*
X130081395Y-146421501D01*
X129887834Y-146285967D01*
X129887830Y-146285965D01*
X129887828Y-146285964D01*
X129673663Y-146186097D01*
X129673659Y-146186096D01*
X129673655Y-146186094D01*
X129445413Y-146124938D01*
X129445403Y-146124936D01*
X129210001Y-146104341D01*
X129209999Y-146104341D01*
X128974596Y-146124936D01*
X128974586Y-146124938D01*
X128746344Y-146186094D01*
X128746335Y-146186098D01*
X128532171Y-146285964D01*
X128532169Y-146285965D01*
X128338597Y-146421505D01*
X128171505Y-146588597D01*
X128041575Y-146774158D01*
X127986998Y-146817783D01*
X127917500Y-146824977D01*
X127855145Y-146793454D01*
X127838425Y-146774158D01*
X127708494Y-146588597D01*
X127541402Y-146421506D01*
X127541395Y-146421501D01*
X127347834Y-146285967D01*
X127347830Y-146285965D01*
X127347828Y-146285964D01*
X127133663Y-146186097D01*
X127133659Y-146186096D01*
X127133655Y-146186094D01*
X126905413Y-146124938D01*
X126905403Y-146124936D01*
X126670001Y-146104341D01*
X126669999Y-146104341D01*
X126434596Y-146124936D01*
X126434586Y-146124938D01*
X126206344Y-146186094D01*
X126206335Y-146186098D01*
X125992171Y-146285964D01*
X125992169Y-146285965D01*
X125798597Y-146421505D01*
X125631508Y-146588594D01*
X125501269Y-146774595D01*
X125446692Y-146818219D01*
X125377193Y-146825412D01*
X125314839Y-146793890D01*
X125298119Y-146774594D01*
X125168113Y-146588926D01*
X125168108Y-146588920D01*
X125001082Y-146421894D01*
X124807578Y-146286399D01*
X124593492Y-146186570D01*
X124593486Y-146186567D01*
X124380000Y-146129364D01*
X124380000Y-147026988D01*
X124322993Y-146994075D01*
X124195826Y-146960000D01*
X124064174Y-146960000D01*
X123937007Y-146994075D01*
X123880000Y-147026988D01*
X123880000Y-146129364D01*
X123879999Y-146129364D01*
X123666513Y-146186567D01*
X123666507Y-146186570D01*
X123452422Y-146286399D01*
X123452420Y-146286400D01*
X123258926Y-146421886D01*
X123136865Y-146543947D01*
X123075542Y-146577431D01*
X123005850Y-146572447D01*
X122949917Y-146530575D01*
X122933002Y-146499598D01*
X122883797Y-146367671D01*
X122883793Y-146367664D01*
X122797547Y-146252455D01*
X122797544Y-146252452D01*
X122682335Y-146166206D01*
X122682328Y-146166202D01*
X122547482Y-146115908D01*
X122547483Y-146115908D01*
X122487883Y-146109501D01*
X122487881Y-146109500D01*
X122487873Y-146109500D01*
X122487864Y-146109500D01*
X120692129Y-146109500D01*
X120692123Y-146109501D01*
X120632516Y-146115908D01*
X120497671Y-146166202D01*
X120497664Y-146166206D01*
X120382455Y-146252452D01*
X120382452Y-146252455D01*
X120296206Y-146367664D01*
X120296202Y-146367671D01*
X120245908Y-146502517D01*
X120239501Y-146562116D01*
X120239500Y-146562135D01*
X118778168Y-146562135D01*
X118930348Y-146438902D01*
X117435698Y-144944252D01*
X117537330Y-144870412D01*
X117715412Y-144692330D01*
X117789252Y-144590698D01*
X119283902Y-146085348D01*
X119492474Y-145827784D01*
X119492484Y-145827771D01*
X119703689Y-145502543D01*
X119879755Y-145156994D01*
X120018737Y-144794936D01*
X120119112Y-144420330D01*
X120119113Y-144420323D01*
X120179780Y-144037287D01*
X120200078Y-143650000D01*
X120200078Y-143649999D01*
X120200078Y-143649998D01*
X121666532Y-143649998D01*
X121666532Y-143650001D01*
X121686364Y-143876686D01*
X121686366Y-143876697D01*
X121745258Y-144096488D01*
X121745261Y-144096497D01*
X121841431Y-144302732D01*
X121841432Y-144302734D01*
X121971954Y-144489141D01*
X122132858Y-144650045D01*
X122132861Y-144650047D01*
X122319266Y-144780568D01*
X122525504Y-144876739D01*
X122745308Y-144935635D01*
X122907230Y-144949801D01*
X122971998Y-144955468D01*
X122972000Y-144955468D01*
X122972002Y-144955468D01*
X123028673Y-144950509D01*
X123198692Y-144935635D01*
X123418496Y-144876739D01*
X123624734Y-144780568D01*
X123811139Y-144650047D01*
X123972047Y-144489139D01*
X124102568Y-144302734D01*
X124198739Y-144096496D01*
X124257635Y-143876692D01*
X124277468Y-143650000D01*
X124277468Y-143649998D01*
X124968532Y-143649998D01*
X124968532Y-143650001D01*
X124988364Y-143876686D01*
X124988366Y-143876697D01*
X125047258Y-144096488D01*
X125047261Y-144096497D01*
X125143431Y-144302732D01*
X125143432Y-144302734D01*
X125273954Y-144489141D01*
X125434858Y-144650045D01*
X125434861Y-144650047D01*
X125621266Y-144780568D01*
X125827504Y-144876739D01*
X126047308Y-144935635D01*
X126209230Y-144949801D01*
X126273998Y-144955468D01*
X126274000Y-144955468D01*
X126274002Y-144955468D01*
X126330673Y-144950509D01*
X126500692Y-144935635D01*
X126720496Y-144876739D01*
X126926734Y-144780568D01*
X127113139Y-144650047D01*
X127274047Y-144489139D01*
X127404568Y-144302734D01*
X127500739Y-144096496D01*
X127559635Y-143876692D01*
X127579468Y-143650000D01*
X127559635Y-143423308D01*
X127553389Y-143399999D01*
X128297127Y-143399999D01*
X128297128Y-143400000D01*
X129260314Y-143400000D01*
X129255920Y-143404394D01*
X129203259Y-143495606D01*
X129176000Y-143597339D01*
X129176000Y-143702661D01*
X129203259Y-143804394D01*
X129255920Y-143895606D01*
X129260314Y-143900000D01*
X128297128Y-143900000D01*
X128349730Y-144096317D01*
X128349734Y-144096326D01*
X128445865Y-144302482D01*
X128576342Y-144488820D01*
X128737179Y-144649657D01*
X128923517Y-144780134D01*
X129129673Y-144876265D01*
X129129682Y-144876269D01*
X129325999Y-144928872D01*
X129326000Y-144928871D01*
X129326000Y-143965686D01*
X129330394Y-143970080D01*
X129421606Y-144022741D01*
X129523339Y-144050000D01*
X129628661Y-144050000D01*
X129730394Y-144022741D01*
X129821606Y-143970080D01*
X129826000Y-143965686D01*
X129826000Y-144928872D01*
X130022317Y-144876269D01*
X130022326Y-144876265D01*
X130228482Y-144780134D01*
X130414820Y-144649657D01*
X130575657Y-144488820D01*
X130706134Y-144302482D01*
X130802265Y-144096326D01*
X130802269Y-144096317D01*
X130854872Y-143900000D01*
X129891686Y-143900000D01*
X129896080Y-143895606D01*
X129948741Y-143804394D01*
X129976000Y-143702661D01*
X129976000Y-143649998D01*
X131318532Y-143649998D01*
X131318532Y-143650001D01*
X131338364Y-143876686D01*
X131338366Y-143876697D01*
X131397258Y-144096488D01*
X131397261Y-144096497D01*
X131493431Y-144302732D01*
X131493432Y-144302734D01*
X131623954Y-144489141D01*
X131784858Y-144650045D01*
X131784861Y-144650047D01*
X131971266Y-144780568D01*
X132177504Y-144876739D01*
X132397308Y-144935635D01*
X132559230Y-144949801D01*
X132623998Y-144955468D01*
X132624000Y-144955468D01*
X132624002Y-144955468D01*
X132680673Y-144950509D01*
X132850692Y-144935635D01*
X133070496Y-144876739D01*
X133276734Y-144780568D01*
X133463139Y-144650047D01*
X133624047Y-144489139D01*
X133754568Y-144302734D01*
X133850739Y-144096496D01*
X133909635Y-143876692D01*
X133929468Y-143650000D01*
X133929468Y-143649998D01*
X134366532Y-143649998D01*
X134366532Y-143650001D01*
X134386364Y-143876686D01*
X134386366Y-143876697D01*
X134445258Y-144096488D01*
X134445261Y-144096497D01*
X134541431Y-144302732D01*
X134541432Y-144302734D01*
X134671954Y-144489141D01*
X134832858Y-144650045D01*
X134832861Y-144650047D01*
X135019266Y-144780568D01*
X135225504Y-144876739D01*
X135445308Y-144935635D01*
X135607230Y-144949801D01*
X135671998Y-144955468D01*
X135672000Y-144955468D01*
X135672002Y-144955468D01*
X135728673Y-144950509D01*
X135898692Y-144935635D01*
X136118496Y-144876739D01*
X136324734Y-144780568D01*
X136511139Y-144650047D01*
X136672047Y-144489139D01*
X136802568Y-144302734D01*
X136898739Y-144096496D01*
X136957635Y-143876692D01*
X136977468Y-143650000D01*
X136957635Y-143423308D01*
X136898739Y-143203504D01*
X136802568Y-142997266D01*
X136672047Y-142810861D01*
X136672045Y-142810858D01*
X136511141Y-142649954D01*
X136324734Y-142519432D01*
X136324732Y-142519431D01*
X136118497Y-142423261D01*
X136118488Y-142423258D01*
X135898697Y-142364366D01*
X135898693Y-142364365D01*
X135898692Y-142364365D01*
X135898691Y-142364364D01*
X135898686Y-142364364D01*
X135672002Y-142344532D01*
X135671998Y-142344532D01*
X135445313Y-142364364D01*
X135445302Y-142364366D01*
X135225511Y-142423258D01*
X135225502Y-142423261D01*
X135019267Y-142519431D01*
X135019265Y-142519432D01*
X134832858Y-142649954D01*
X134671954Y-142810858D01*
X134541432Y-142997265D01*
X134541431Y-142997267D01*
X134445261Y-143203502D01*
X134445258Y-143203511D01*
X134386366Y-143423302D01*
X134386364Y-143423313D01*
X134366532Y-143649998D01*
X133929468Y-143649998D01*
X133909635Y-143423308D01*
X133850739Y-143203504D01*
X133754568Y-142997266D01*
X133624047Y-142810861D01*
X133624045Y-142810858D01*
X133463141Y-142649954D01*
X133276734Y-142519432D01*
X133276732Y-142519431D01*
X133070497Y-142423261D01*
X133070488Y-142423258D01*
X132850697Y-142364366D01*
X132850693Y-142364365D01*
X132850692Y-142364365D01*
X132850691Y-142364364D01*
X132850686Y-142364364D01*
X132624002Y-142344532D01*
X132623998Y-142344532D01*
X132397313Y-142364364D01*
X132397302Y-142364366D01*
X132177511Y-142423258D01*
X132177502Y-142423261D01*
X131971267Y-142519431D01*
X131971265Y-142519432D01*
X131784858Y-142649954D01*
X131623954Y-142810858D01*
X131493432Y-142997265D01*
X131493431Y-142997267D01*
X131397261Y-143203502D01*
X131397258Y-143203511D01*
X131338366Y-143423302D01*
X131338364Y-143423313D01*
X131318532Y-143649998D01*
X129976000Y-143649998D01*
X129976000Y-143597339D01*
X129948741Y-143495606D01*
X129896080Y-143404394D01*
X129891686Y-143400000D01*
X130854872Y-143400000D01*
X130854872Y-143399999D01*
X130802269Y-143203682D01*
X130802265Y-143203673D01*
X130706134Y-142997517D01*
X130575657Y-142811179D01*
X130414820Y-142650342D01*
X130228482Y-142519865D01*
X130022328Y-142423734D01*
X129826000Y-142371127D01*
X129826000Y-143334314D01*
X129821606Y-143329920D01*
X129730394Y-143277259D01*
X129628661Y-143250000D01*
X129523339Y-143250000D01*
X129421606Y-143277259D01*
X129330394Y-143329920D01*
X129326000Y-143334314D01*
X129326000Y-142371127D01*
X129129671Y-142423734D01*
X128923517Y-142519865D01*
X128737179Y-142650342D01*
X128576342Y-142811179D01*
X128445865Y-142997517D01*
X128349734Y-143203673D01*
X128349730Y-143203682D01*
X128297127Y-143399999D01*
X127553389Y-143399999D01*
X127500739Y-143203504D01*
X127404568Y-142997266D01*
X127274047Y-142810861D01*
X127274045Y-142810858D01*
X127113141Y-142649954D01*
X126926734Y-142519432D01*
X126926732Y-142519431D01*
X126720497Y-142423261D01*
X126720488Y-142423258D01*
X126500697Y-142364366D01*
X126500693Y-142364365D01*
X126500692Y-142364365D01*
X126500691Y-142364364D01*
X126500686Y-142364364D01*
X126274002Y-142344532D01*
X126273998Y-142344532D01*
X126047313Y-142364364D01*
X126047302Y-142364366D01*
X125827511Y-142423258D01*
X125827502Y-142423261D01*
X125621267Y-142519431D01*
X125621265Y-142519432D01*
X125434858Y-142649954D01*
X125273954Y-142810858D01*
X125143432Y-142997265D01*
X125143431Y-142997267D01*
X125047261Y-143203502D01*
X125047258Y-143203511D01*
X124988366Y-143423302D01*
X124988364Y-143423313D01*
X124968532Y-143649998D01*
X124277468Y-143649998D01*
X124257635Y-143423308D01*
X124198739Y-143203504D01*
X124102568Y-142997266D01*
X123972047Y-142810861D01*
X123972045Y-142810858D01*
X123811141Y-142649954D01*
X123624734Y-142519432D01*
X123624732Y-142519431D01*
X123418497Y-142423261D01*
X123418488Y-142423258D01*
X123198697Y-142364366D01*
X123198693Y-142364365D01*
X123198692Y-142364365D01*
X123198691Y-142364364D01*
X123198686Y-142364364D01*
X122972002Y-142344532D01*
X122971998Y-142344532D01*
X122745313Y-142364364D01*
X122745302Y-142364366D01*
X122525511Y-142423258D01*
X122525502Y-142423261D01*
X122319267Y-142519431D01*
X122319265Y-142519432D01*
X122132858Y-142649954D01*
X121971954Y-142810858D01*
X121841432Y-142997265D01*
X121841431Y-142997267D01*
X121745261Y-143203502D01*
X121745258Y-143203511D01*
X121686366Y-143423302D01*
X121686364Y-143423313D01*
X121666532Y-143649998D01*
X120200078Y-143649998D01*
X120179780Y-143262712D01*
X120119113Y-142879676D01*
X120119112Y-142879669D01*
X120018737Y-142505063D01*
X119879755Y-142143005D01*
X119703689Y-141797456D01*
X119674165Y-141751993D01*
X137822700Y-141751993D01*
X137822700Y-141752006D01*
X137841864Y-141983297D01*
X137841866Y-141983308D01*
X137898842Y-142208300D01*
X137992075Y-142420848D01*
X138119016Y-142615147D01*
X138119019Y-142615151D01*
X138119021Y-142615153D01*
X138276216Y-142785913D01*
X138276219Y-142785915D01*
X138276222Y-142785918D01*
X138459365Y-142928464D01*
X138459371Y-142928468D01*
X138459374Y-142928470D01*
X138663497Y-143038936D01*
X138771228Y-143075920D01*
X138883015Y-143114297D01*
X138883017Y-143114297D01*
X138883019Y-143114298D01*
X139111951Y-143152500D01*
X139111952Y-143152500D01*
X139344048Y-143152500D01*
X139344049Y-143152500D01*
X139572981Y-143114298D01*
X139792503Y-143038936D01*
X139996626Y-142928470D01*
X140179784Y-142785913D01*
X140188511Y-142776432D01*
X140248394Y-142740441D01*
X140318232Y-142742538D01*
X140375850Y-142782060D01*
X140395924Y-142817080D01*
X140424645Y-142894086D01*
X140424649Y-142894093D01*
X140510809Y-143009187D01*
X140510812Y-143009190D01*
X140625906Y-143095350D01*
X140625913Y-143095354D01*
X140760620Y-143145596D01*
X140760627Y-143145598D01*
X140820155Y-143151999D01*
X140820172Y-143152000D01*
X141518000Y-143152000D01*
X141518000Y-142127277D01*
X141594306Y-142171333D01*
X141708756Y-142202000D01*
X141827244Y-142202000D01*
X141941694Y-142171333D01*
X142018000Y-142127277D01*
X142018000Y-143152000D01*
X142715828Y-143152000D01*
X142715844Y-143151999D01*
X142775372Y-143145598D01*
X142775379Y-143145596D01*
X142910086Y-143095354D01*
X142910093Y-143095350D01*
X143025187Y-143009190D01*
X143025190Y-143009187D01*
X143111350Y-142894093D01*
X143111354Y-142894086D01*
X143161596Y-142759379D01*
X143161598Y-142759372D01*
X143167999Y-142699844D01*
X143168000Y-142699827D01*
X143168000Y-142002000D01*
X142143278Y-142002000D01*
X142187333Y-141925694D01*
X142218000Y-141811244D01*
X142218000Y-141692756D01*
X142187333Y-141578306D01*
X142143278Y-141502000D01*
X143168000Y-141502000D01*
X143168000Y-140804172D01*
X143167999Y-140804155D01*
X143161598Y-140744627D01*
X143161596Y-140744620D01*
X143111354Y-140609913D01*
X143111350Y-140609906D01*
X143025190Y-140494812D01*
X143025187Y-140494809D01*
X142910093Y-140408649D01*
X142910086Y-140408645D01*
X142775379Y-140358403D01*
X142775372Y-140358401D01*
X142715844Y-140352000D01*
X142018000Y-140352000D01*
X142018000Y-141376722D01*
X141941694Y-141332667D01*
X141827244Y-141302000D01*
X141708756Y-141302000D01*
X141594306Y-141332667D01*
X141518000Y-141376722D01*
X141518000Y-140352000D01*
X140820155Y-140352000D01*
X140760627Y-140358401D01*
X140760620Y-140358403D01*
X140625913Y-140408645D01*
X140625906Y-140408649D01*
X140510812Y-140494809D01*
X140510809Y-140494812D01*
X140424649Y-140609906D01*
X140424646Y-140609911D01*
X140395924Y-140686920D01*
X140354052Y-140742853D01*
X140288588Y-140767270D01*
X140220315Y-140752418D01*
X140188514Y-140727571D01*
X140179784Y-140718087D01*
X140179779Y-140718083D01*
X140179777Y-140718081D01*
X139996634Y-140575535D01*
X139996628Y-140575531D01*
X139792504Y-140465064D01*
X139792495Y-140465061D01*
X139572984Y-140389702D01*
X139385404Y-140358401D01*
X139344049Y-140351500D01*
X139111951Y-140351500D01*
X139070596Y-140358401D01*
X138883015Y-140389702D01*
X138663504Y-140465061D01*
X138663495Y-140465064D01*
X138459371Y-140575531D01*
X138459365Y-140575535D01*
X138276222Y-140718081D01*
X138276219Y-140718084D01*
X138276216Y-140718086D01*
X138276216Y-140718087D01*
X138252975Y-140743334D01*
X138119016Y-140888852D01*
X137992075Y-141083151D01*
X137898842Y-141295699D01*
X137841866Y-141520691D01*
X137841864Y-141520702D01*
X137822700Y-141751993D01*
X119674165Y-141751993D01*
X119492476Y-141472216D01*
X119492475Y-141472214D01*
X119283902Y-141214650D01*
X117789251Y-142709301D01*
X117715412Y-142607670D01*
X117537330Y-142429588D01*
X117435698Y-142355748D01*
X118930349Y-140861096D01*
X118672785Y-140652525D01*
X118672783Y-140652523D01*
X118347543Y-140441310D01*
X118001994Y-140265244D01*
X117639936Y-140126262D01*
X117265330Y-140025887D01*
X117265323Y-140025886D01*
X116962573Y-139977935D01*
X116899438Y-139948006D01*
X116862507Y-139888694D01*
X116863505Y-139818832D01*
X116902115Y-139760599D01*
X116929562Y-139743082D01*
X117020734Y-139700568D01*
X117207139Y-139570047D01*
X117368047Y-139409139D01*
X117498568Y-139222734D01*
X117594739Y-139016496D01*
X117653635Y-138796692D01*
X117673468Y-138570000D01*
X117671644Y-138549156D01*
X117665042Y-138473686D01*
X117653635Y-138343308D01*
X117594739Y-138123504D01*
X117498568Y-137917266D01*
X117368047Y-137730861D01*
X117368045Y-137730858D01*
X117207141Y-137569954D01*
X117020734Y-137439432D01*
X117020732Y-137439431D01*
X116814497Y-137343261D01*
X116814488Y-137343258D01*
X116594697Y-137284366D01*
X116594693Y-137284365D01*
X116594692Y-137284365D01*
X116594691Y-137284364D01*
X116594686Y-137284364D01*
X116368002Y-137264532D01*
X116367998Y-137264532D01*
X116141313Y-137284364D01*
X116141302Y-137284366D01*
X115921511Y-137343258D01*
X115921502Y-137343261D01*
X115715267Y-137439431D01*
X115715265Y-137439432D01*
X115528858Y-137569954D01*
X115367954Y-137730858D01*
X115237432Y-137917265D01*
X115237431Y-137917267D01*
X115141261Y-138123502D01*
X115141258Y-138123511D01*
X115082366Y-138343302D01*
X115082364Y-138343313D01*
X115062532Y-138569998D01*
X115062532Y-138570001D01*
X115082364Y-138796686D01*
X115082366Y-138796697D01*
X115141258Y-139016488D01*
X115141261Y-139016497D01*
X115237431Y-139222732D01*
X115237432Y-139222734D01*
X115367954Y-139409141D01*
X115528858Y-139570045D01*
X115528861Y-139570047D01*
X115715266Y-139700568D01*
X115782243Y-139731800D01*
X115870832Y-139773110D01*
X115923271Y-139819283D01*
X115942423Y-139886476D01*
X115922207Y-139953357D01*
X115869042Y-139998692D01*
X115837825Y-140007965D01*
X115724676Y-140025886D01*
X115724669Y-140025887D01*
X115350063Y-140126262D01*
X114988005Y-140265244D01*
X114642456Y-140441310D01*
X114317206Y-140652531D01*
X114059649Y-140861095D01*
X114059649Y-140861096D01*
X115554301Y-142355748D01*
X115452670Y-142429588D01*
X115274588Y-142607670D01*
X115200748Y-142709301D01*
X113706096Y-141214649D01*
X113706095Y-141214649D01*
X113497531Y-141472206D01*
X113286310Y-141797456D01*
X113110244Y-142143005D01*
X112971262Y-142505063D01*
X112870887Y-142879669D01*
X112870886Y-142879676D01*
X112810219Y-143262712D01*
X112789922Y-143649999D01*
X101120500Y-143649999D01*
X101120500Y-140815997D01*
X104395034Y-140815997D01*
X104395034Y-140816002D01*
X104414858Y-141042599D01*
X104414860Y-141042610D01*
X104473730Y-141262317D01*
X104473735Y-141262331D01*
X104569863Y-141468478D01*
X104620974Y-141541472D01*
X105300000Y-140862446D01*
X105300000Y-140868661D01*
X105327259Y-140970394D01*
X105379920Y-141061606D01*
X105454394Y-141136080D01*
X105545606Y-141188741D01*
X105647339Y-141216000D01*
X105653553Y-141216000D01*
X104974526Y-141895025D01*
X105047513Y-141946132D01*
X105047521Y-141946136D01*
X105253668Y-142042264D01*
X105253682Y-142042269D01*
X105473389Y-142101139D01*
X105473400Y-142101141D01*
X105699998Y-142120966D01*
X105700002Y-142120966D01*
X105926599Y-142101141D01*
X105926610Y-142101139D01*
X106146317Y-142042269D01*
X106146331Y-142042264D01*
X106352478Y-141946136D01*
X106425471Y-141895024D01*
X105746447Y-141216000D01*
X105752661Y-141216000D01*
X105854394Y-141188741D01*
X105945606Y-141136080D01*
X106020080Y-141061606D01*
X106072741Y-140970394D01*
X106100000Y-140868661D01*
X106100000Y-140862447D01*
X106779024Y-141541471D01*
X106830136Y-141468478D01*
X106926264Y-141262331D01*
X106926269Y-141262317D01*
X106985139Y-141042610D01*
X106985141Y-141042599D01*
X107004966Y-140816002D01*
X107004966Y-140815997D01*
X106985141Y-140589400D01*
X106985139Y-140589389D01*
X106926269Y-140369682D01*
X106926264Y-140369668D01*
X106830136Y-140163521D01*
X106830132Y-140163513D01*
X106779025Y-140090526D01*
X106100000Y-140769551D01*
X106100000Y-140763339D01*
X106072741Y-140661606D01*
X106020080Y-140570394D01*
X105945606Y-140495920D01*
X105854394Y-140443259D01*
X105752661Y-140416000D01*
X105746445Y-140416000D01*
X106430646Y-139731800D01*
X106440492Y-139682807D01*
X106489107Y-139632624D01*
X106544633Y-139617981D01*
X106544576Y-139616900D01*
X106544571Y-139616854D01*
X106544573Y-139616853D01*
X106544564Y-139616676D01*
X106547857Y-139616499D01*
X106547872Y-139616499D01*
X106607483Y-139610091D01*
X106742331Y-139559796D01*
X106857546Y-139473546D01*
X106943796Y-139358331D01*
X106994091Y-139223483D01*
X107000500Y-139163873D01*
X107000500Y-138569998D01*
X111506532Y-138569998D01*
X111506532Y-138570001D01*
X111526364Y-138796686D01*
X111526366Y-138796697D01*
X111585258Y-139016488D01*
X111585261Y-139016497D01*
X111681431Y-139222732D01*
X111681432Y-139222734D01*
X111811954Y-139409141D01*
X111972858Y-139570045D01*
X111972861Y-139570047D01*
X112159266Y-139700568D01*
X112365504Y-139796739D01*
X112585308Y-139855635D01*
X112747230Y-139869801D01*
X112811998Y-139875468D01*
X112812000Y-139875468D01*
X112812002Y-139875468D01*
X112868673Y-139870509D01*
X113038692Y-139855635D01*
X113258496Y-139796739D01*
X113464734Y-139700568D01*
X113651139Y-139570047D01*
X113812047Y-139409139D01*
X113942568Y-139222734D01*
X114038739Y-139016496D01*
X114097635Y-138796692D01*
X114117468Y-138570000D01*
X114115644Y-138549156D01*
X114109042Y-138473686D01*
X114097635Y-138343308D01*
X114038739Y-138123504D01*
X113942568Y-137917266D01*
X113812047Y-137730861D01*
X113812045Y-137730858D01*
X113651141Y-137569954D01*
X113464734Y-137439432D01*
X113464732Y-137439431D01*
X113258497Y-137343261D01*
X113258488Y-137343258D01*
X113038697Y-137284366D01*
X113038693Y-137284365D01*
X113038692Y-137284365D01*
X113038691Y-137284364D01*
X113038686Y-137284364D01*
X112812002Y-137264532D01*
X112811998Y-137264532D01*
X112585313Y-137284364D01*
X112585302Y-137284366D01*
X112365511Y-137343258D01*
X112365502Y-137343261D01*
X112159267Y-137439431D01*
X112159265Y-137439432D01*
X111972858Y-137569954D01*
X111811954Y-137730858D01*
X111681432Y-137917265D01*
X111681431Y-137917267D01*
X111585261Y-138123502D01*
X111585258Y-138123511D01*
X111526366Y-138343302D01*
X111526364Y-138343313D01*
X111506532Y-138569998D01*
X107000500Y-138569998D01*
X107000499Y-137468128D01*
X106994091Y-137408517D01*
X106977090Y-137362936D01*
X106943797Y-137273671D01*
X106943793Y-137273664D01*
X106857547Y-137158455D01*
X106857544Y-137158452D01*
X106742335Y-137072206D01*
X106742328Y-137072202D01*
X106607482Y-137021908D01*
X106607483Y-137021908D01*
X106547883Y-137015501D01*
X106547881Y-137015500D01*
X106547873Y-137015500D01*
X106547864Y-137015500D01*
X104852129Y-137015500D01*
X104852123Y-137015501D01*
X104792516Y-137021908D01*
X104657671Y-137072202D01*
X104657664Y-137072206D01*
X104542455Y-137158452D01*
X104542452Y-137158455D01*
X104456206Y-137273664D01*
X104456202Y-137273671D01*
X104405908Y-137408517D01*
X104399501Y-137468116D01*
X104399501Y-137468123D01*
X104399500Y-137468135D01*
X104399500Y-139163870D01*
X104399501Y-139163876D01*
X104405908Y-139223483D01*
X104456202Y-139358328D01*
X104456206Y-139358335D01*
X104542452Y-139473544D01*
X104542455Y-139473547D01*
X104657664Y-139559793D01*
X104657671Y-139559797D01*
X104685148Y-139570045D01*
X104792517Y-139610091D01*
X104852127Y-139616500D01*
X104852153Y-139616499D01*
X104855453Y-139616678D01*
X104855372Y-139618183D01*
X104916672Y-139636112D01*
X104962483Y-139688867D01*
X104970016Y-139732464D01*
X105653553Y-140416000D01*
X105647339Y-140416000D01*
X105545606Y-140443259D01*
X105454394Y-140495920D01*
X105379920Y-140570394D01*
X105327259Y-140661606D01*
X105300000Y-140763339D01*
X105300000Y-140769552D01*
X104620974Y-140090526D01*
X104620973Y-140090526D01*
X104569868Y-140163512D01*
X104569866Y-140163516D01*
X104473734Y-140369673D01*
X104473730Y-140369682D01*
X104414860Y-140589389D01*
X104414858Y-140589400D01*
X104395034Y-140815997D01*
X101120500Y-140815997D01*
X101120500Y-136029998D01*
X121666532Y-136029998D01*
X121666532Y-136030001D01*
X121686364Y-136256686D01*
X121686366Y-136256697D01*
X121745258Y-136476488D01*
X121745261Y-136476497D01*
X121841431Y-136682732D01*
X121841432Y-136682734D01*
X121971954Y-136869141D01*
X122132858Y-137030045D01*
X122132861Y-137030047D01*
X122319266Y-137160568D01*
X122525504Y-137256739D01*
X122525509Y-137256740D01*
X122525511Y-137256741D01*
X122550845Y-137263529D01*
X122745308Y-137315635D01*
X122907230Y-137329801D01*
X122971998Y-137335468D01*
X122972000Y-137335468D01*
X122972002Y-137335468D01*
X123028673Y-137330509D01*
X123198692Y-137315635D01*
X123418496Y-137256739D01*
X123624734Y-137160568D01*
X123727471Y-137088631D01*
X123793675Y-137066305D01*
X123861442Y-137083315D01*
X123886273Y-137102526D01*
X125530350Y-138746604D01*
X125530354Y-138746607D01*
X125677836Y-138845152D01*
X125677842Y-138845155D01*
X125677843Y-138845156D01*
X125841724Y-138913038D01*
X125974760Y-138939500D01*
X126015693Y-138947642D01*
X126015697Y-138947643D01*
X126015698Y-138947643D01*
X126193082Y-138947643D01*
X126193083Y-138947642D01*
X126367056Y-138913038D01*
X126530936Y-138845156D01*
X126678425Y-138746607D01*
X126803853Y-138621179D01*
X126902402Y-138473690D01*
X126970284Y-138309810D01*
X127004889Y-138135835D01*
X127004889Y-137958452D01*
X126970284Y-137784478D01*
X126902402Y-137620597D01*
X126902401Y-137620596D01*
X126902398Y-137620590D01*
X126803853Y-137473108D01*
X126803850Y-137473104D01*
X126755005Y-137424259D01*
X126721520Y-137362936D01*
X126726504Y-137293244D01*
X126768376Y-137237311D01*
X126790274Y-137224200D01*
X126926734Y-137160568D01*
X127113139Y-137030047D01*
X127274047Y-136869139D01*
X127404568Y-136682734D01*
X127500739Y-136476496D01*
X127559635Y-136256692D01*
X127579468Y-136030000D01*
X127559635Y-135803308D01*
X127510663Y-135620541D01*
X127512326Y-135550694D01*
X127551488Y-135492831D01*
X127615717Y-135465327D01*
X127684619Y-135476913D01*
X127710143Y-135493460D01*
X127813186Y-135579923D01*
X127862972Y-135613333D01*
X127862975Y-135613334D01*
X127998599Y-135661484D01*
X128012975Y-135662282D01*
X128142301Y-135669471D01*
X128142307Y-135669469D01*
X128151135Y-135668698D01*
X128151338Y-135671020D01*
X128208448Y-135674195D01*
X128265039Y-135715174D01*
X128290492Y-135780242D01*
X128290492Y-135801857D01*
X128270532Y-136029998D01*
X128270532Y-136030001D01*
X128290364Y-136256686D01*
X128290366Y-136256697D01*
X128349258Y-136476488D01*
X128349261Y-136476497D01*
X128445431Y-136682732D01*
X128445432Y-136682734D01*
X128575954Y-136869141D01*
X128736858Y-137030045D01*
X128736861Y-137030047D01*
X128923266Y-137160568D01*
X129129504Y-137256739D01*
X129129509Y-137256740D01*
X129129511Y-137256741D01*
X129154845Y-137263529D01*
X129349308Y-137315635D01*
X129511230Y-137329801D01*
X129575998Y-137335468D01*
X129576000Y-137335468D01*
X129576002Y-137335468D01*
X129632673Y-137330509D01*
X129802692Y-137315635D01*
X130022496Y-137256739D01*
X130228734Y-137160568D01*
X130415139Y-137030047D01*
X130509937Y-136935247D01*
X130571258Y-136901764D01*
X130573353Y-136901327D01*
X130600666Y-136895895D01*
X130682606Y-136861953D01*
X130764547Y-136828013D01*
X130764549Y-136828011D01*
X130764552Y-136828010D01*
X130852955Y-136768939D01*
X130852955Y-136768938D01*
X130852959Y-136768936D01*
X130912036Y-136729464D01*
X131198178Y-136443320D01*
X131259501Y-136409836D01*
X131329192Y-136414820D01*
X131385126Y-136456691D01*
X131398239Y-136478594D01*
X131466504Y-136624987D01*
X131493431Y-136682732D01*
X131493432Y-136682734D01*
X131623954Y-136869141D01*
X131784858Y-137030045D01*
X131784861Y-137030047D01*
X131971266Y-137160568D01*
X132177504Y-137256739D01*
X132177509Y-137256740D01*
X132177511Y-137256741D01*
X132202845Y-137263529D01*
X132397308Y-137315635D01*
X132559230Y-137329801D01*
X132623998Y-137335468D01*
X132624000Y-137335468D01*
X132624002Y-137335468D01*
X132680673Y-137330509D01*
X132850692Y-137315635D01*
X133070496Y-137256739D01*
X133276734Y-137160568D01*
X133463139Y-137030047D01*
X133624047Y-136869139D01*
X133754568Y-136682734D01*
X133850739Y-136476496D01*
X133909635Y-136256692D01*
X133929468Y-136030000D01*
X133909635Y-135803308D01*
X133903389Y-135779999D01*
X134393127Y-135779999D01*
X134393128Y-135780000D01*
X135356314Y-135780000D01*
X135351920Y-135784394D01*
X135299259Y-135875606D01*
X135272000Y-135977339D01*
X135272000Y-136082661D01*
X135299259Y-136184394D01*
X135351920Y-136275606D01*
X135356314Y-136280000D01*
X134393128Y-136280000D01*
X134445730Y-136476317D01*
X134445734Y-136476326D01*
X134541865Y-136682482D01*
X134672342Y-136868820D01*
X134833179Y-137029657D01*
X135019517Y-137160134D01*
X135225673Y-137256265D01*
X135225682Y-137256269D01*
X135421999Y-137308872D01*
X135422000Y-137308871D01*
X135422000Y-136345686D01*
X135426394Y-136350080D01*
X135517606Y-136402741D01*
X135619339Y-136430000D01*
X135724661Y-136430000D01*
X135826394Y-136402741D01*
X135917606Y-136350080D01*
X135922000Y-136345686D01*
X135922000Y-137308872D01*
X136118317Y-137256269D01*
X136118326Y-137256265D01*
X136230120Y-137204135D01*
X137939500Y-137204135D01*
X137939500Y-139099870D01*
X137939501Y-139099876D01*
X137945908Y-139159483D01*
X137996202Y-139294328D01*
X137996206Y-139294335D01*
X138082452Y-139409544D01*
X138082455Y-139409547D01*
X138197664Y-139495793D01*
X138197671Y-139495797D01*
X138332517Y-139546091D01*
X138332516Y-139546091D01*
X138339444Y-139546835D01*
X138392127Y-139552500D01*
X140287872Y-139552499D01*
X140347483Y-139546091D01*
X140482331Y-139495796D01*
X140597546Y-139409546D01*
X140683796Y-139294331D01*
X140706583Y-139233236D01*
X140712455Y-139217493D01*
X140754326Y-139161559D01*
X140819790Y-139137141D01*
X140888063Y-139151992D01*
X140919866Y-139176843D01*
X140927302Y-139184920D01*
X140928215Y-139185912D01*
X140928222Y-139185918D01*
X141111365Y-139328464D01*
X141111371Y-139328468D01*
X141111374Y-139328470D01*
X141315497Y-139438936D01*
X141429487Y-139478068D01*
X141535015Y-139514297D01*
X141535017Y-139514297D01*
X141535019Y-139514298D01*
X141763951Y-139552500D01*
X141763952Y-139552500D01*
X141996048Y-139552500D01*
X141996049Y-139552500D01*
X142224981Y-139514298D01*
X142444503Y-139438936D01*
X142648626Y-139328470D01*
X142831784Y-139185913D01*
X142988979Y-139015153D01*
X143115924Y-138820849D01*
X143209157Y-138608300D01*
X143266134Y-138383305D01*
X143269448Y-138343313D01*
X143285300Y-138152006D01*
X143285300Y-138151993D01*
X143266135Y-137920702D01*
X143266133Y-137920691D01*
X143209157Y-137695699D01*
X143115924Y-137483151D01*
X142988983Y-137288852D01*
X142988980Y-137288849D01*
X142988979Y-137288847D01*
X142831784Y-137118087D01*
X142831779Y-137118083D01*
X142831777Y-137118081D01*
X142648634Y-136975535D01*
X142648628Y-136975531D01*
X142444504Y-136865064D01*
X142444495Y-136865061D01*
X142236862Y-136793780D01*
X142179847Y-136753394D01*
X142153716Y-136688595D01*
X142166767Y-136619955D01*
X142214856Y-136569267D01*
X142277123Y-136552499D01*
X142867872Y-136552499D01*
X142927483Y-136546091D01*
X143062331Y-136495796D01*
X143177546Y-136409546D01*
X143263796Y-136294331D01*
X143314091Y-136159483D01*
X143320500Y-136099873D01*
X143320499Y-136020332D01*
X143340183Y-135953295D01*
X143375607Y-135917231D01*
X143436565Y-135876501D01*
X143474036Y-135851464D01*
X144164405Y-135161095D01*
X144225728Y-135127610D01*
X144295419Y-135132594D01*
X144351353Y-135174465D01*
X144375770Y-135239930D01*
X144364469Y-135301180D01*
X144351260Y-135329506D01*
X144351258Y-135329511D01*
X144292366Y-135549302D01*
X144292364Y-135549313D01*
X144272532Y-135775998D01*
X144272532Y-135776001D01*
X144292364Y-136002686D01*
X144292366Y-136002697D01*
X144351258Y-136222488D01*
X144351261Y-136222497D01*
X144447431Y-136428732D01*
X144447432Y-136428734D01*
X144577954Y-136615141D01*
X144738858Y-136776045D01*
X144764187Y-136793780D01*
X144925266Y-136906568D01*
X145131504Y-137002739D01*
X145131509Y-137002740D01*
X145131511Y-137002741D01*
X145179129Y-137015500D01*
X145351308Y-137061635D01*
X145513230Y-137075801D01*
X145577998Y-137081468D01*
X145578000Y-137081468D01*
X145578002Y-137081468D01*
X145634673Y-137076509D01*
X145804692Y-137061635D01*
X146024496Y-137002739D01*
X146230734Y-136906568D01*
X146417139Y-136776047D01*
X146578047Y-136615139D01*
X146708568Y-136428734D01*
X146804739Y-136222496D01*
X146863635Y-136002692D01*
X146883468Y-135776000D01*
X146863635Y-135549308D01*
X146804739Y-135329504D01*
X146708568Y-135123266D01*
X146578047Y-134936861D01*
X146578045Y-134936858D01*
X146417141Y-134775954D01*
X146230734Y-134645432D01*
X146230732Y-134645431D01*
X146024497Y-134549261D01*
X146024488Y-134549258D01*
X145804697Y-134490366D01*
X145804693Y-134490365D01*
X145804692Y-134490365D01*
X145804691Y-134490364D01*
X145804686Y-134490364D01*
X145578002Y-134470532D01*
X145577998Y-134470532D01*
X145351313Y-134490364D01*
X145351302Y-134490366D01*
X145131511Y-134549258D01*
X145131496Y-134549263D01*
X145103177Y-134562469D01*
X145034100Y-134572960D01*
X144970316Y-134544438D01*
X144932078Y-134485961D01*
X144931525Y-134416094D01*
X144963093Y-134362406D01*
X146693617Y-132631881D01*
X146754938Y-132598398D01*
X146758463Y-132597684D01*
X146910198Y-132569321D01*
X147109019Y-132492298D01*
X147290302Y-132380052D01*
X147447872Y-132236407D01*
X147576366Y-132066255D01*
X147613028Y-131992627D01*
X147671403Y-131875394D01*
X147671403Y-131875393D01*
X147671405Y-131875389D01*
X147729756Y-131670310D01*
X147749429Y-131458000D01*
X147749958Y-131452292D01*
X147752218Y-131452501D01*
X147769114Y-131394961D01*
X147821918Y-131349206D01*
X147873429Y-131338000D01*
X147970561Y-131338000D01*
X148180058Y-131298837D01*
X148180059Y-131298837D01*
X148302705Y-131251325D01*
X148372329Y-131245463D01*
X148434069Y-131278173D01*
X148468324Y-131339070D01*
X148471499Y-131366952D01*
X148471499Y-134365699D01*
X148451814Y-134432738D01*
X148399010Y-134478493D01*
X148358312Y-134489227D01*
X148351020Y-134489865D01*
X148345308Y-134490365D01*
X148345306Y-134490365D01*
X148345302Y-134490366D01*
X148125511Y-134549258D01*
X148125502Y-134549261D01*
X147919267Y-134645431D01*
X147919265Y-134645432D01*
X147732858Y-134775954D01*
X147571954Y-134936858D01*
X147441432Y-135123265D01*
X147441431Y-135123267D01*
X147345261Y-135329502D01*
X147345258Y-135329511D01*
X147286366Y-135549302D01*
X147286364Y-135549313D01*
X147266532Y-135775998D01*
X147266532Y-135776001D01*
X147286364Y-136002686D01*
X147286366Y-136002697D01*
X147345258Y-136222488D01*
X147345261Y-136222497D01*
X147441431Y-136428732D01*
X147441432Y-136428734D01*
X147571954Y-136615141D01*
X147732858Y-136776045D01*
X147758187Y-136793780D01*
X147919266Y-136906568D01*
X148125504Y-137002739D01*
X148125509Y-137002740D01*
X148125511Y-137002741D01*
X148173129Y-137015500D01*
X148345308Y-137061635D01*
X148507230Y-137075801D01*
X148571998Y-137081468D01*
X148572000Y-137081468D01*
X148572002Y-137081468D01*
X148628673Y-137076509D01*
X148798692Y-137061635D01*
X149018496Y-137002739D01*
X149224734Y-136906568D01*
X149411139Y-136776047D01*
X149572047Y-136615139D01*
X149702568Y-136428734D01*
X149798739Y-136222496D01*
X149857635Y-136002692D01*
X149876599Y-135785924D01*
X149902051Y-135720857D01*
X149912431Y-135709067D01*
X150071462Y-135550037D01*
X150093709Y-135516742D01*
X150105102Y-135499690D01*
X150158713Y-135454885D01*
X150228038Y-135446176D01*
X150291066Y-135476330D01*
X150327786Y-135535772D01*
X150331733Y-135579387D01*
X150314532Y-135775997D01*
X150314532Y-135776001D01*
X150334364Y-136002686D01*
X150334366Y-136002697D01*
X150393258Y-136222488D01*
X150393261Y-136222497D01*
X150489431Y-136428732D01*
X150489432Y-136428734D01*
X150619954Y-136615141D01*
X150780858Y-136776045D01*
X150806187Y-136793780D01*
X150967266Y-136906568D01*
X151173504Y-137002739D01*
X151173509Y-137002740D01*
X151173511Y-137002741D01*
X151221129Y-137015500D01*
X151393308Y-137061635D01*
X151555230Y-137075801D01*
X151619998Y-137081468D01*
X151620000Y-137081468D01*
X151620002Y-137081468D01*
X151676673Y-137076509D01*
X151846692Y-137061635D01*
X152066496Y-137002739D01*
X152272734Y-136906568D01*
X152459139Y-136776047D01*
X152620047Y-136615139D01*
X152750568Y-136428734D01*
X152846739Y-136222496D01*
X152905635Y-136002692D01*
X152925468Y-135776000D01*
X152905635Y-135549308D01*
X152886081Y-135476330D01*
X152874275Y-135432269D01*
X152875938Y-135362419D01*
X152915101Y-135304557D01*
X152979329Y-135277053D01*
X153014453Y-135277866D01*
X153136633Y-135298255D01*
X153136634Y-135298255D01*
X153342552Y-135298255D01*
X153409591Y-135317940D01*
X153455346Y-135370744D01*
X153465290Y-135439902D01*
X153462327Y-135454349D01*
X153443128Y-135525999D01*
X153443128Y-135526000D01*
X154406314Y-135526000D01*
X154401920Y-135530394D01*
X154349259Y-135621606D01*
X154322000Y-135723339D01*
X154322000Y-135828661D01*
X154349259Y-135930394D01*
X154401920Y-136021606D01*
X154406314Y-136026000D01*
X153443128Y-136026000D01*
X153495730Y-136222317D01*
X153495734Y-136222326D01*
X153591865Y-136428482D01*
X153722342Y-136614820D01*
X153883179Y-136775657D01*
X154069517Y-136906134D01*
X154275673Y-137002265D01*
X154275682Y-137002269D01*
X154471999Y-137054872D01*
X154472000Y-137054871D01*
X154472000Y-136091686D01*
X154476394Y-136096080D01*
X154567606Y-136148741D01*
X154669339Y-136176000D01*
X154774661Y-136176000D01*
X154876394Y-136148741D01*
X154967606Y-136096080D01*
X154972000Y-136091686D01*
X154972000Y-137054872D01*
X155168317Y-137002269D01*
X155168326Y-137002265D01*
X155374482Y-136906134D01*
X155560820Y-136775657D01*
X155721657Y-136614820D01*
X155852134Y-136428482D01*
X155948265Y-136222326D01*
X155948269Y-136222317D01*
X156000872Y-136026000D01*
X155037686Y-136026000D01*
X155042080Y-136021606D01*
X155094741Y-135930394D01*
X155122000Y-135828661D01*
X155122000Y-135723339D01*
X155094741Y-135621606D01*
X155042080Y-135530394D01*
X155037686Y-135526000D01*
X156000872Y-135526000D01*
X156000872Y-135525999D01*
X156745127Y-135525999D01*
X156745128Y-135526000D01*
X157708314Y-135526000D01*
X157703920Y-135530394D01*
X157651259Y-135621606D01*
X157624000Y-135723339D01*
X157624000Y-135828661D01*
X157651259Y-135930394D01*
X157703920Y-136021606D01*
X157708314Y-136026000D01*
X156745128Y-136026000D01*
X156797730Y-136222317D01*
X156797734Y-136222326D01*
X156893865Y-136428482D01*
X157024342Y-136614820D01*
X157185179Y-136775657D01*
X157371517Y-136906134D01*
X157577673Y-137002265D01*
X157577682Y-137002269D01*
X157773999Y-137054872D01*
X157774000Y-137054871D01*
X157774000Y-136091686D01*
X157778394Y-136096080D01*
X157869606Y-136148741D01*
X157971339Y-136176000D01*
X158076661Y-136176000D01*
X158178394Y-136148741D01*
X158269606Y-136096080D01*
X158274000Y-136091686D01*
X158274000Y-137054872D01*
X158470317Y-137002269D01*
X158470326Y-137002265D01*
X158676482Y-136906134D01*
X158862820Y-136775657D01*
X159023657Y-136614820D01*
X159154134Y-136428482D01*
X159250265Y-136222326D01*
X159250269Y-136222317D01*
X159302872Y-136026000D01*
X158339686Y-136026000D01*
X158344080Y-136021606D01*
X158396741Y-135930394D01*
X158424000Y-135828661D01*
X158424000Y-135723339D01*
X158396741Y-135621606D01*
X158344080Y-135530394D01*
X158339686Y-135526000D01*
X159302872Y-135526000D01*
X159302872Y-135525999D01*
X159250269Y-135329682D01*
X159250265Y-135329673D01*
X159154134Y-135123517D01*
X159023657Y-134937179D01*
X158862820Y-134776342D01*
X158676482Y-134645865D01*
X158470328Y-134549734D01*
X158274000Y-134497127D01*
X158274000Y-135460314D01*
X158269606Y-135455920D01*
X158178394Y-135403259D01*
X158076661Y-135376000D01*
X157971339Y-135376000D01*
X157869606Y-135403259D01*
X157778394Y-135455920D01*
X157774000Y-135460314D01*
X157774000Y-134497127D01*
X157577671Y-134549734D01*
X157371517Y-134645865D01*
X157185179Y-134776342D01*
X157024342Y-134937179D01*
X156893865Y-135123517D01*
X156797734Y-135329673D01*
X156797730Y-135329682D01*
X156745127Y-135525999D01*
X156000872Y-135525999D01*
X155948269Y-135329682D01*
X155948265Y-135329673D01*
X155852134Y-135123517D01*
X155721657Y-134937179D01*
X155560820Y-134776342D01*
X155374482Y-134645865D01*
X155168328Y-134549734D01*
X154972000Y-134497127D01*
X154972000Y-135460314D01*
X154967606Y-135455920D01*
X154876394Y-135403259D01*
X154774661Y-135376000D01*
X154669339Y-135376000D01*
X154567606Y-135403259D01*
X154476394Y-135455920D01*
X154472000Y-135460314D01*
X154472000Y-134628689D01*
X154486951Y-134569660D01*
X154488594Y-134566621D01*
X154488606Y-134566604D01*
X154581839Y-134354055D01*
X154638816Y-134129060D01*
X154639228Y-134124086D01*
X154657982Y-133897761D01*
X154657982Y-133897748D01*
X154638817Y-133666457D01*
X154638815Y-133666446D01*
X154581839Y-133441454D01*
X154488606Y-133228906D01*
X154361665Y-133034607D01*
X154361662Y-133034604D01*
X154361661Y-133034602D01*
X154204466Y-132863842D01*
X154204461Y-132863838D01*
X154204459Y-132863836D01*
X154021316Y-132721290D01*
X154021310Y-132721286D01*
X153817186Y-132610819D01*
X153817177Y-132610816D01*
X153597666Y-132535457D01*
X153434102Y-132508163D01*
X153405087Y-132503321D01*
X153342203Y-132472871D01*
X153305764Y-132413257D01*
X153307339Y-132343405D01*
X153317618Y-132319874D01*
X153358852Y-132247131D01*
X153391671Y-132107001D01*
X153383684Y-131963301D01*
X153383684Y-131963299D01*
X153335533Y-131827672D01*
X153335529Y-131827666D01*
X153302128Y-131777891D01*
X152083561Y-130325661D01*
X152083557Y-130325657D01*
X152040339Y-130284119D01*
X151915132Y-130213148D01*
X151915127Y-130213146D01*
X151800295Y-130186253D01*
X151775001Y-130180329D01*
X151775000Y-130180329D01*
X151631299Y-130188315D01*
X151495672Y-130236466D01*
X151495666Y-130236470D01*
X151445891Y-130269871D01*
X150476205Y-131083536D01*
X150412197Y-131111549D01*
X150343204Y-131100510D01*
X150291133Y-131053923D01*
X150272499Y-130988547D01*
X150272499Y-129523638D01*
X153012818Y-129523638D01*
X153012818Y-129523651D01*
X153031982Y-129754942D01*
X153031984Y-129754953D01*
X153088960Y-129979945D01*
X153182193Y-130192493D01*
X153309134Y-130386792D01*
X153309137Y-130386796D01*
X153309139Y-130386798D01*
X153466334Y-130557558D01*
X153466337Y-130557560D01*
X153466340Y-130557563D01*
X153649483Y-130700109D01*
X153649489Y-130700113D01*
X153649492Y-130700115D01*
X153853615Y-130810581D01*
X154073137Y-130885943D01*
X154265712Y-130918078D01*
X154328595Y-130948527D01*
X154365035Y-131008142D01*
X154363460Y-131077994D01*
X154353177Y-131101532D01*
X154311947Y-131174269D01*
X154311946Y-131174272D01*
X154279129Y-131314398D01*
X154287115Y-131458100D01*
X154335266Y-131593727D01*
X154335270Y-131593733D01*
X154368671Y-131643508D01*
X155587238Y-133095738D01*
X155587242Y-133095742D01*
X155630460Y-133137280D01*
X155714530Y-133184933D01*
X155755669Y-133208252D01*
X155755670Y-133208252D01*
X155755672Y-133208253D01*
X155775869Y-133212983D01*
X155895799Y-133241071D01*
X156035716Y-133233294D01*
X156039500Y-133233084D01*
X156109447Y-133208251D01*
X156175128Y-133184933D01*
X156224911Y-133151526D01*
X157677135Y-131932964D01*
X157718681Y-131889738D01*
X157789652Y-131764531D01*
X157822471Y-131624401D01*
X157814484Y-131480701D01*
X157814484Y-131480699D01*
X157766333Y-131345072D01*
X157766329Y-131345066D01*
X157732928Y-131295291D01*
X157051054Y-130482666D01*
X167488250Y-130482666D01*
X167488250Y-130482669D01*
X167508082Y-130709354D01*
X167508084Y-130709365D01*
X167566976Y-130929156D01*
X167566979Y-130929165D01*
X167663149Y-131135400D01*
X167663150Y-131135402D01*
X167793672Y-131321809D01*
X167954576Y-131482713D01*
X167973188Y-131495745D01*
X168140984Y-131613236D01*
X168347222Y-131709407D01*
X168347227Y-131709408D01*
X168347229Y-131709409D01*
X168389544Y-131720747D01*
X168567026Y-131768303D01*
X168728948Y-131782469D01*
X168793716Y-131788136D01*
X168793718Y-131788136D01*
X168793720Y-131788136D01*
X168850391Y-131783177D01*
X169020410Y-131768303D01*
X169240214Y-131709407D01*
X169446452Y-131613236D01*
X169632857Y-131482715D01*
X169793765Y-131321807D01*
X169924286Y-131135402D01*
X170020457Y-130929164D01*
X170079353Y-130709360D01*
X170096352Y-130515052D01*
X170099186Y-130482669D01*
X170099186Y-130482666D01*
X170088822Y-130364204D01*
X170079353Y-130255976D01*
X170020457Y-130036172D01*
X169924286Y-129829934D01*
X169796845Y-129647928D01*
X169793763Y-129643526D01*
X169632859Y-129482622D01*
X169446452Y-129352100D01*
X169446450Y-129352099D01*
X169240215Y-129255929D01*
X169240206Y-129255926D01*
X169020415Y-129197034D01*
X169020411Y-129197033D01*
X169020410Y-129197033D01*
X169020409Y-129197032D01*
X169020404Y-129197032D01*
X168793720Y-129177200D01*
X168793716Y-129177200D01*
X168567031Y-129197032D01*
X168567020Y-129197034D01*
X168347229Y-129255926D01*
X168347220Y-129255929D01*
X168140985Y-129352099D01*
X168140983Y-129352100D01*
X167954576Y-129482622D01*
X167793672Y-129643526D01*
X167663150Y-129829933D01*
X167663149Y-129829935D01*
X167566979Y-130036170D01*
X167566976Y-130036179D01*
X167508084Y-130255970D01*
X167508082Y-130255981D01*
X167488250Y-130482666D01*
X157051054Y-130482666D01*
X156514361Y-129843061D01*
X156514357Y-129843057D01*
X156471139Y-129801519D01*
X156345932Y-129730548D01*
X156345927Y-129730546D01*
X156231095Y-129703653D01*
X156205801Y-129697729D01*
X156205800Y-129697729D01*
X156062101Y-129705715D01*
X155981554Y-129734311D01*
X155911792Y-129738189D01*
X155851008Y-129703735D01*
X155818500Y-129641888D01*
X155816493Y-129607215D01*
X155818844Y-129578852D01*
X155820123Y-129563399D01*
X155823418Y-129523649D01*
X155823418Y-129523638D01*
X155804253Y-129292347D01*
X155804251Y-129292336D01*
X155747275Y-129067344D01*
X155654042Y-128854796D01*
X155527101Y-128660497D01*
X155527098Y-128660494D01*
X155527097Y-128660492D01*
X155369902Y-128489732D01*
X155369897Y-128489728D01*
X155369895Y-128489726D01*
X155186752Y-128347180D01*
X155186746Y-128347176D01*
X154982622Y-128236709D01*
X154982613Y-128236706D01*
X154763102Y-128161347D01*
X154591400Y-128132695D01*
X154534167Y-128123145D01*
X154302069Y-128123145D01*
X154256282Y-128130785D01*
X154073133Y-128161347D01*
X153853622Y-128236706D01*
X153853613Y-128236709D01*
X153649489Y-128347176D01*
X153649483Y-128347180D01*
X153466340Y-128489726D01*
X153466337Y-128489729D01*
X153309134Y-128660497D01*
X153182193Y-128854796D01*
X153088960Y-129067344D01*
X153031984Y-129292336D01*
X153031982Y-129292347D01*
X153012818Y-129523638D01*
X150272499Y-129523638D01*
X150272499Y-129433307D01*
X150272498Y-129433306D01*
X150265729Y-129399272D01*
X150237894Y-129259333D01*
X150189894Y-129143451D01*
X150170012Y-129095452D01*
X150071463Y-128947964D01*
X149946034Y-128822535D01*
X149829188Y-128705689D01*
X149342039Y-128218538D01*
X149342038Y-128218537D01*
X149320182Y-128203934D01*
X149255204Y-128160517D01*
X149255202Y-128160516D01*
X149255202Y-128160515D01*
X149194544Y-128119985D01*
X149194542Y-128119984D01*
X149112607Y-128086046D01*
X149112606Y-128086046D01*
X149030666Y-128052105D01*
X149030658Y-128052103D01*
X148856696Y-128017500D01*
X148856692Y-128017500D01*
X148856691Y-128017500D01*
X147743751Y-128017500D01*
X147676712Y-127997815D01*
X147644485Y-127967812D01*
X147601548Y-127910457D01*
X147601546Y-127910454D01*
X147528430Y-127855719D01*
X147486335Y-127824206D01*
X147486328Y-127824202D01*
X147351482Y-127773908D01*
X147351483Y-127773908D01*
X147291883Y-127767501D01*
X147291881Y-127767500D01*
X147291873Y-127767500D01*
X147291864Y-127767500D01*
X145896129Y-127767500D01*
X145896123Y-127767501D01*
X145836516Y-127773908D01*
X145701671Y-127824202D01*
X145701664Y-127824206D01*
X145586455Y-127910452D01*
X145586452Y-127910455D01*
X145500206Y-128025664D01*
X145500202Y-128025671D01*
X145449908Y-128160517D01*
X145443501Y-128220116D01*
X145443500Y-128220135D01*
X145443500Y-129615870D01*
X145443501Y-129615876D01*
X145449908Y-129675483D01*
X145500202Y-129810328D01*
X145500206Y-129810335D01*
X145586452Y-129925544D01*
X145586455Y-129925547D01*
X145701664Y-130011793D01*
X145701671Y-130011797D01*
X145836517Y-130062091D01*
X145836516Y-130062091D01*
X145843444Y-130062835D01*
X145896127Y-130068500D01*
X146427760Y-130068499D01*
X146494797Y-130088183D01*
X146540552Y-130140987D01*
X146550496Y-130210146D01*
X146521471Y-130273702D01*
X146462693Y-130311476D01*
X146450544Y-130314387D01*
X146277802Y-130346679D01*
X146277799Y-130346679D01*
X146277799Y-130346680D01*
X146078982Y-130423701D01*
X146078980Y-130423702D01*
X145897699Y-130535947D01*
X145740127Y-130679593D01*
X145611632Y-130849746D01*
X145516596Y-131040605D01*
X145516596Y-131040607D01*
X145458244Y-131245689D01*
X145454759Y-131283292D01*
X145428971Y-131348228D01*
X145418969Y-131359529D01*
X143051646Y-133726852D01*
X142990323Y-133760337D01*
X142935797Y-133756467D01*
X142935035Y-133759693D01*
X142927483Y-133757908D01*
X142867883Y-133751501D01*
X142867881Y-133751500D01*
X142867873Y-133751500D01*
X142867864Y-133751500D01*
X140972129Y-133751500D01*
X140972123Y-133751501D01*
X140912516Y-133757908D01*
X140777671Y-133808202D01*
X140777664Y-133808206D01*
X140662455Y-133894452D01*
X140662452Y-133894455D01*
X140576206Y-134009664D01*
X140576203Y-134009670D01*
X140547544Y-134086508D01*
X140505672Y-134142441D01*
X140440208Y-134166858D01*
X140371935Y-134152006D01*
X140340135Y-134127158D01*
X140331784Y-134118087D01*
X140331778Y-134118082D01*
X140331777Y-134118081D01*
X140148634Y-133975535D01*
X140148628Y-133975531D01*
X139944504Y-133865064D01*
X139944495Y-133865061D01*
X139724984Y-133789702D01*
X139534450Y-133757908D01*
X139496049Y-133751500D01*
X139263951Y-133751500D01*
X139225550Y-133757908D01*
X139035015Y-133789702D01*
X138815504Y-133865061D01*
X138815495Y-133865064D01*
X138611371Y-133975531D01*
X138611365Y-133975535D01*
X138428222Y-134118081D01*
X138428219Y-134118084D01*
X138428216Y-134118086D01*
X138428216Y-134118087D01*
X138383319Y-134166858D01*
X138271016Y-134288852D01*
X138144075Y-134483151D01*
X138050842Y-134695699D01*
X137993866Y-134920691D01*
X137993864Y-134920702D01*
X137974700Y-135151993D01*
X137974700Y-135152006D01*
X137993864Y-135383297D01*
X137993866Y-135383308D01*
X138050842Y-135608300D01*
X138144075Y-135820848D01*
X138271016Y-136015147D01*
X138271019Y-136015151D01*
X138271021Y-136015153D01*
X138428216Y-136185913D01*
X138428219Y-136185915D01*
X138428222Y-136185918D01*
X138611365Y-136328464D01*
X138611371Y-136328468D01*
X138611374Y-136328470D01*
X138815497Y-136438936D01*
X138931026Y-136478597D01*
X139023137Y-136510219D01*
X139080152Y-136550604D01*
X139106283Y-136615404D01*
X139093232Y-136684044D01*
X139045143Y-136734731D01*
X138982874Y-136751500D01*
X138392129Y-136751500D01*
X138392123Y-136751501D01*
X138332516Y-136757908D01*
X138197671Y-136808202D01*
X138197664Y-136808206D01*
X138082455Y-136894452D01*
X138082452Y-136894455D01*
X137996206Y-137009664D01*
X137996202Y-137009671D01*
X137945908Y-137144517D01*
X137939501Y-137204116D01*
X137939500Y-137204135D01*
X136230120Y-137204135D01*
X136324482Y-137160134D01*
X136510820Y-137029657D01*
X136671657Y-136868820D01*
X136802134Y-136682482D01*
X136898265Y-136476326D01*
X136898269Y-136476317D01*
X136950872Y-136280000D01*
X135987686Y-136280000D01*
X135992080Y-136275606D01*
X136044741Y-136184394D01*
X136072000Y-136082661D01*
X136072000Y-135977339D01*
X136044741Y-135875606D01*
X135992080Y-135784394D01*
X135987686Y-135780000D01*
X136950872Y-135780000D01*
X136950872Y-135779999D01*
X136898269Y-135583682D01*
X136898265Y-135583673D01*
X136802134Y-135377517D01*
X136671657Y-135191179D01*
X136510820Y-135030342D01*
X136324482Y-134899865D01*
X136118328Y-134803734D01*
X135922000Y-134751127D01*
X135922000Y-135714314D01*
X135917606Y-135709920D01*
X135826394Y-135657259D01*
X135724661Y-135630000D01*
X135619339Y-135630000D01*
X135517606Y-135657259D01*
X135426394Y-135709920D01*
X135422000Y-135714314D01*
X135422000Y-134751127D01*
X135225671Y-134803734D01*
X135019517Y-134899865D01*
X134833179Y-135030342D01*
X134672342Y-135191179D01*
X134541865Y-135377517D01*
X134445734Y-135583673D01*
X134445730Y-135583682D01*
X134393127Y-135779999D01*
X133903389Y-135779999D01*
X133850739Y-135583504D01*
X133754568Y-135377266D01*
X133624047Y-135190861D01*
X133624045Y-135190858D01*
X133463141Y-135029954D01*
X133276734Y-134899432D01*
X133276732Y-134899431D01*
X133072597Y-134804240D01*
X133020158Y-134758067D01*
X133001006Y-134690873D01*
X133021222Y-134623992D01*
X133037316Y-134604181D01*
X134996680Y-132644817D01*
X135058003Y-132611333D01*
X135084361Y-132608499D01*
X135607871Y-132608499D01*
X135607872Y-132608499D01*
X135667483Y-132602091D01*
X135802331Y-132551796D01*
X135917546Y-132465546D01*
X136003796Y-132350331D01*
X136054091Y-132215483D01*
X136060500Y-132155873D01*
X136060499Y-130760128D01*
X136054091Y-130700517D01*
X136053940Y-130700113D01*
X136003797Y-130565671D01*
X136003793Y-130565664D01*
X135917547Y-130450455D01*
X135917544Y-130450452D01*
X135802335Y-130364206D01*
X135802328Y-130364202D01*
X135667482Y-130313908D01*
X135667483Y-130313908D01*
X135607883Y-130307501D01*
X135607881Y-130307500D01*
X135607873Y-130307500D01*
X135607865Y-130307500D01*
X135076245Y-130307500D01*
X135009206Y-130287815D01*
X134963451Y-130235011D01*
X134953507Y-130165853D01*
X134982532Y-130102297D01*
X135041310Y-130064523D01*
X135053450Y-130061613D01*
X135226198Y-130029321D01*
X135425019Y-129952298D01*
X135606302Y-129840052D01*
X135763872Y-129696407D01*
X135892366Y-129526255D01*
X135899315Y-129512299D01*
X135987403Y-129335394D01*
X135987403Y-129335393D01*
X135987405Y-129335389D01*
X136045756Y-129130310D01*
X136065429Y-128918000D01*
X136045756Y-128705690D01*
X135987405Y-128500611D01*
X135987403Y-128500606D01*
X135987403Y-128500605D01*
X135892367Y-128309746D01*
X135763872Y-128139593D01*
X135606302Y-127995948D01*
X135425019Y-127883702D01*
X135425017Y-127883701D01*
X135316012Y-127841473D01*
X135226198Y-127806679D01*
X135016610Y-127767500D01*
X134803390Y-127767500D01*
X134593802Y-127806679D01*
X134593799Y-127806679D01*
X134593799Y-127806680D01*
X134394982Y-127883701D01*
X134394980Y-127883702D01*
X134213699Y-127995947D01*
X134056127Y-128139593D01*
X133927632Y-128309746D01*
X133832596Y-128500605D01*
X133832596Y-128500607D01*
X133774244Y-128705689D01*
X133754042Y-128923708D01*
X133751781Y-128923498D01*
X133734886Y-128981039D01*
X133682082Y-129026794D01*
X133630571Y-129038000D01*
X133533439Y-129038000D01*
X133323941Y-129077162D01*
X133323936Y-129077163D01*
X133125210Y-129154149D01*
X133125201Y-129154154D01*
X133022992Y-129217438D01*
X133022991Y-129217439D01*
X133618553Y-129813000D01*
X133590630Y-129813000D01*
X133495255Y-129838556D01*
X133409745Y-129887925D01*
X133339925Y-129957745D01*
X133290556Y-130043255D01*
X133265000Y-130138630D01*
X133265000Y-130166553D01*
X132666835Y-129568389D01*
X132658056Y-129580015D01*
X132563066Y-129770783D01*
X132563058Y-129770803D01*
X132504738Y-129975780D01*
X132504737Y-129975783D01*
X132485073Y-130187999D01*
X132485073Y-130188000D01*
X132504737Y-130400216D01*
X132504738Y-130400219D01*
X132563058Y-130605196D01*
X132563066Y-130605216D01*
X132658060Y-130795990D01*
X132666834Y-130807609D01*
X132666835Y-130807609D01*
X133265000Y-130209445D01*
X133265000Y-130237370D01*
X133290556Y-130332745D01*
X133339925Y-130418255D01*
X133409745Y-130488075D01*
X133495255Y-130537444D01*
X133590630Y-130563000D01*
X133618552Y-130563000D01*
X133022991Y-131158559D01*
X133125204Y-131221847D01*
X133125208Y-131221849D01*
X133323936Y-131298836D01*
X133323942Y-131298838D01*
X133490128Y-131329903D01*
X133552410Y-131361571D01*
X133587683Y-131421883D01*
X133584750Y-131491691D01*
X133555025Y-131539473D01*
X130267169Y-134827329D01*
X130205846Y-134860814D01*
X130136154Y-134855830D01*
X130127084Y-134852031D01*
X130074110Y-134827329D01*
X130022496Y-134803261D01*
X130022493Y-134803260D01*
X130022488Y-134803258D01*
X129802697Y-134744366D01*
X129802693Y-134744365D01*
X129802692Y-134744365D01*
X129802691Y-134744364D01*
X129802686Y-134744364D01*
X129576002Y-134724532D01*
X129575998Y-134724532D01*
X129384049Y-134741325D01*
X129315549Y-134727558D01*
X129265366Y-134678943D01*
X129249433Y-134610914D01*
X129272809Y-134545071D01*
X129278253Y-134538091D01*
X129669425Y-134071911D01*
X129702833Y-134022128D01*
X129746986Y-133897761D01*
X129750984Y-133886500D01*
X129752175Y-133865064D01*
X129758971Y-133742799D01*
X129726152Y-133602669D01*
X129712360Y-133578338D01*
X129684923Y-133529933D01*
X129668989Y-133461905D01*
X129692364Y-133396061D01*
X129747625Y-133353307D01*
X129772380Y-133346479D01*
X129964963Y-133314343D01*
X130184485Y-133238981D01*
X130388608Y-133128515D01*
X130571766Y-132985958D01*
X130728961Y-132815198D01*
X130855906Y-132620894D01*
X130949139Y-132408345D01*
X131006116Y-132183350D01*
X131008393Y-132155873D01*
X131025282Y-131952051D01*
X131025282Y-131952038D01*
X131006117Y-131720747D01*
X131006115Y-131720736D01*
X130949139Y-131495744D01*
X130855906Y-131283196D01*
X130728965Y-131088897D01*
X130728962Y-131088894D01*
X130728961Y-131088892D01*
X130571766Y-130918132D01*
X130571761Y-130918128D01*
X130571759Y-130918126D01*
X130388616Y-130775580D01*
X130388610Y-130775576D01*
X130184486Y-130665109D01*
X130184477Y-130665106D01*
X129964966Y-130589747D01*
X129772065Y-130557558D01*
X129736031Y-130551545D01*
X129503933Y-130551545D01*
X129467899Y-130557558D01*
X129274997Y-130589747D01*
X129055486Y-130665106D01*
X129055477Y-130665109D01*
X128851353Y-130775576D01*
X128851347Y-130775580D01*
X128668204Y-130918126D01*
X128668194Y-130918135D01*
X128582220Y-131011528D01*
X128522333Y-131047519D01*
X128490991Y-131051545D01*
X127633944Y-131051545D01*
X127566905Y-131031860D01*
X127521150Y-130979056D01*
X127511206Y-130909898D01*
X127538954Y-130847839D01*
X128504025Y-129697711D01*
X128537433Y-129647928D01*
X128577561Y-129534899D01*
X128585584Y-129512300D01*
X128587233Y-129482622D01*
X128593571Y-129368599D01*
X128569432Y-129265530D01*
X128560753Y-129228472D01*
X128560751Y-129228467D01*
X128489781Y-129103262D01*
X128448237Y-129060036D01*
X127972078Y-128660492D01*
X126996011Y-127841475D01*
X126946228Y-127808067D01*
X126946229Y-127808067D01*
X126946227Y-127808066D01*
X126946224Y-127808065D01*
X126810600Y-127759915D01*
X126674086Y-127752328D01*
X126666899Y-127751929D01*
X126666898Y-127751929D01*
X126526772Y-127784746D01*
X126526767Y-127784748D01*
X126401562Y-127855718D01*
X126358336Y-127897262D01*
X125139773Y-129349491D01*
X125106368Y-129399271D01*
X125106365Y-129399275D01*
X125058215Y-129534899D01*
X125050229Y-129678601D01*
X125083046Y-129818727D01*
X125083048Y-129818732D01*
X125124276Y-129891466D01*
X125140210Y-129959495D01*
X125116835Y-130025338D01*
X125061573Y-130068092D01*
X125036811Y-130074922D01*
X124844232Y-130107058D01*
X124624721Y-130182417D01*
X124624712Y-130182420D01*
X124420588Y-130292887D01*
X124420582Y-130292891D01*
X124237439Y-130435437D01*
X124237436Y-130435440D01*
X124237433Y-130435442D01*
X124237433Y-130435443D01*
X124223614Y-130450455D01*
X124080233Y-130606208D01*
X123953292Y-130800507D01*
X123860059Y-131013055D01*
X123803083Y-131238047D01*
X123803081Y-131238058D01*
X123783917Y-131469349D01*
X123783917Y-131469362D01*
X123803081Y-131700653D01*
X123803083Y-131700664D01*
X123860059Y-131925656D01*
X123953292Y-132138204D01*
X124080233Y-132332503D01*
X124080236Y-132332507D01*
X124080238Y-132332509D01*
X124237433Y-132503269D01*
X124237436Y-132503271D01*
X124237439Y-132503274D01*
X124420582Y-132645820D01*
X124420588Y-132645824D01*
X124420591Y-132645826D01*
X124531217Y-132705694D01*
X124599873Y-132742849D01*
X124624714Y-132756292D01*
X124710904Y-132785881D01*
X124844232Y-132831653D01*
X124844234Y-132831653D01*
X124844236Y-132831654D01*
X125073168Y-132869856D01*
X125073169Y-132869856D01*
X125214973Y-132869856D01*
X125282012Y-132889541D01*
X125327767Y-132942345D01*
X125337711Y-133011503D01*
X125308686Y-133075059D01*
X125302654Y-133081537D01*
X123672540Y-134711650D01*
X123672537Y-134711653D01*
X123653546Y-134740077D01*
X123624617Y-134783372D01*
X123571005Y-134828177D01*
X123501680Y-134836884D01*
X123469110Y-134826863D01*
X123418496Y-134803261D01*
X123418492Y-134803260D01*
X123418488Y-134803258D01*
X123198697Y-134744366D01*
X123198693Y-134744365D01*
X123198692Y-134744365D01*
X123198691Y-134744364D01*
X123198686Y-134744364D01*
X122972002Y-134724532D01*
X122971998Y-134724532D01*
X122745313Y-134744364D01*
X122745302Y-134744366D01*
X122525511Y-134803258D01*
X122525502Y-134803261D01*
X122319267Y-134899431D01*
X122319265Y-134899432D01*
X122132858Y-135029954D01*
X121971954Y-135190858D01*
X121841432Y-135377265D01*
X121841431Y-135377267D01*
X121745261Y-135583502D01*
X121745258Y-135583511D01*
X121686366Y-135803302D01*
X121686364Y-135803313D01*
X121666532Y-136029998D01*
X101120500Y-136029998D01*
X101120500Y-135018676D01*
X101140185Y-134951637D01*
X101156819Y-134930995D01*
X103595517Y-132492297D01*
X106036402Y-130051410D01*
X106097725Y-130017926D01*
X106167417Y-130022910D01*
X106223350Y-130064782D01*
X106247767Y-130130246D01*
X106244289Y-130169530D01*
X106233867Y-130210684D01*
X106233864Y-130210702D01*
X106214700Y-130441993D01*
X106214700Y-130442006D01*
X106233864Y-130673297D01*
X106233866Y-130673308D01*
X106290842Y-130898300D01*
X106384075Y-131110848D01*
X106511018Y-131305150D01*
X106606167Y-131408510D01*
X106637089Y-131471164D01*
X106629228Y-131540590D01*
X106585081Y-131594746D01*
X106558271Y-131608674D01*
X106477911Y-131638646D01*
X106477906Y-131638649D01*
X106362812Y-131724809D01*
X106362809Y-131724812D01*
X106276649Y-131839906D01*
X106276645Y-131839913D01*
X106226403Y-131974620D01*
X106226401Y-131974627D01*
X106220000Y-132034155D01*
X106220000Y-132732000D01*
X107244722Y-132732000D01*
X107200667Y-132808306D01*
X107170000Y-132922756D01*
X107170000Y-133041244D01*
X107200667Y-133155694D01*
X107244722Y-133232000D01*
X106220000Y-133232000D01*
X106220000Y-133929844D01*
X106226401Y-133989372D01*
X106226403Y-133989379D01*
X106276645Y-134124086D01*
X106276649Y-134124093D01*
X106362809Y-134239187D01*
X106362812Y-134239190D01*
X106477906Y-134325350D01*
X106477913Y-134325354D01*
X106612620Y-134375596D01*
X106612627Y-134375598D01*
X106672155Y-134381999D01*
X106672172Y-134382000D01*
X107370000Y-134382000D01*
X107370000Y-133357277D01*
X107446306Y-133401333D01*
X107560756Y-133432000D01*
X107679244Y-133432000D01*
X107793694Y-133401333D01*
X107870000Y-133357277D01*
X107870000Y-134382000D01*
X108567828Y-134382000D01*
X108567844Y-134381999D01*
X108627372Y-134375598D01*
X108627379Y-134375596D01*
X108762086Y-134325354D01*
X108762093Y-134325350D01*
X108877187Y-134239190D01*
X108877190Y-134239187D01*
X108963350Y-134124093D01*
X108963354Y-134124086D01*
X109013596Y-133989379D01*
X109013598Y-133989372D01*
X109019999Y-133929844D01*
X109020000Y-133929827D01*
X109020000Y-133232000D01*
X107995278Y-133232000D01*
X108039333Y-133155694D01*
X108070000Y-133041244D01*
X108070000Y-132922756D01*
X108039333Y-132808306D01*
X107995278Y-132732000D01*
X109020000Y-132732000D01*
X109020000Y-132034172D01*
X109019999Y-132034155D01*
X109013598Y-131974627D01*
X109013596Y-131974620D01*
X108963354Y-131839913D01*
X108963350Y-131839906D01*
X108877190Y-131724812D01*
X108877187Y-131724809D01*
X108762093Y-131638649D01*
X108762086Y-131638645D01*
X108681729Y-131608674D01*
X108625795Y-131566803D01*
X108601378Y-131501338D01*
X108616230Y-131433065D01*
X108633826Y-131408516D01*
X108728979Y-131305153D01*
X108855924Y-131110849D01*
X108926480Y-130949998D01*
X111506532Y-130949998D01*
X111506532Y-130950001D01*
X111526364Y-131176686D01*
X111526366Y-131176697D01*
X111585258Y-131396488D01*
X111585261Y-131396497D01*
X111681431Y-131602732D01*
X111681432Y-131602734D01*
X111811954Y-131789141D01*
X111972858Y-131950045D01*
X111972861Y-131950047D01*
X112159266Y-132080568D01*
X112365504Y-132176739D01*
X112365509Y-132176740D01*
X112365511Y-132176741D01*
X112390188Y-132183353D01*
X112585308Y-132235635D01*
X112747230Y-132249801D01*
X112811998Y-132255468D01*
X112812000Y-132255468D01*
X112812002Y-132255468D01*
X112868673Y-132250509D01*
X113038692Y-132235635D01*
X113258496Y-132176739D01*
X113464734Y-132080568D01*
X113651139Y-131950047D01*
X113812047Y-131789139D01*
X113942568Y-131602734D01*
X114038739Y-131396496D01*
X114097635Y-131176692D01*
X114117468Y-130950000D01*
X114117468Y-130949998D01*
X115062532Y-130949998D01*
X115062532Y-130950001D01*
X115082364Y-131176686D01*
X115082366Y-131176697D01*
X115141258Y-131396488D01*
X115141261Y-131396497D01*
X115237431Y-131602732D01*
X115237432Y-131602734D01*
X115367954Y-131789141D01*
X115528858Y-131950045D01*
X115528861Y-131950047D01*
X115715266Y-132080568D01*
X115921504Y-132176739D01*
X115921509Y-132176740D01*
X115921511Y-132176741D01*
X115946188Y-132183353D01*
X116141308Y-132235635D01*
X116303230Y-132249801D01*
X116367998Y-132255468D01*
X116368000Y-132255468D01*
X116368002Y-132255468D01*
X116424673Y-132250509D01*
X116594692Y-132235635D01*
X116814496Y-132176739D01*
X117020734Y-132080568D01*
X117207139Y-131950047D01*
X117368047Y-131789139D01*
X117498568Y-131602734D01*
X117594739Y-131396496D01*
X117653635Y-131176692D01*
X117673468Y-130950000D01*
X117671644Y-130929156D01*
X117664530Y-130847839D01*
X117653635Y-130723308D01*
X117594739Y-130503504D01*
X117498568Y-130297266D01*
X117368047Y-130110861D01*
X117368045Y-130110858D01*
X117207141Y-129949954D01*
X117020734Y-129819432D01*
X117020732Y-129819431D01*
X116814497Y-129723261D01*
X116814488Y-129723258D01*
X116594697Y-129664366D01*
X116594693Y-129664365D01*
X116594692Y-129664365D01*
X116594691Y-129664364D01*
X116594686Y-129664364D01*
X116368002Y-129644532D01*
X116367998Y-129644532D01*
X116141313Y-129664364D01*
X116141302Y-129664366D01*
X115921511Y-129723258D01*
X115921502Y-129723261D01*
X115715267Y-129819431D01*
X115715265Y-129819432D01*
X115528858Y-129949954D01*
X115367954Y-130110858D01*
X115237432Y-130297265D01*
X115237431Y-130297267D01*
X115141261Y-130503502D01*
X115141258Y-130503511D01*
X115082366Y-130723302D01*
X115082364Y-130723313D01*
X115062532Y-130949998D01*
X114117468Y-130949998D01*
X114115644Y-130929156D01*
X114108530Y-130847839D01*
X114097635Y-130723308D01*
X114038739Y-130503504D01*
X113942568Y-130297266D01*
X113812047Y-130110861D01*
X113812045Y-130110858D01*
X113651141Y-129949954D01*
X113464734Y-129819432D01*
X113464732Y-129819431D01*
X113258497Y-129723261D01*
X113258488Y-129723258D01*
X113038697Y-129664366D01*
X113038693Y-129664365D01*
X113038692Y-129664365D01*
X113038691Y-129664364D01*
X113038686Y-129664364D01*
X112812002Y-129644532D01*
X112811998Y-129644532D01*
X112585313Y-129664364D01*
X112585302Y-129664366D01*
X112365511Y-129723258D01*
X112365502Y-129723261D01*
X112159267Y-129819431D01*
X112159265Y-129819432D01*
X111972858Y-129949954D01*
X111811954Y-130110858D01*
X111681432Y-130297265D01*
X111681431Y-130297267D01*
X111585261Y-130503502D01*
X111585258Y-130503511D01*
X111526366Y-130723302D01*
X111526364Y-130723313D01*
X111506532Y-130949998D01*
X108926480Y-130949998D01*
X108949157Y-130898300D01*
X109006134Y-130673305D01*
X109006813Y-130665109D01*
X109025300Y-130442006D01*
X109025300Y-130441993D01*
X109006135Y-130210702D01*
X109006133Y-130210691D01*
X108949157Y-129985699D01*
X108855924Y-129773151D01*
X108728983Y-129578852D01*
X108728980Y-129578849D01*
X108728979Y-129578847D01*
X108571784Y-129408087D01*
X108571779Y-129408083D01*
X108571777Y-129408081D01*
X108388634Y-129265535D01*
X108388628Y-129265531D01*
X108184504Y-129155064D01*
X108184495Y-129155061D01*
X107964984Y-129079702D01*
X107793282Y-129051050D01*
X107736049Y-129041500D01*
X107503951Y-129041500D01*
X107336440Y-129069452D01*
X107267075Y-129061070D01*
X107213253Y-129016517D01*
X107192063Y-128949938D01*
X107210231Y-128882472D01*
X107228345Y-128859467D01*
X112855995Y-123231819D01*
X112917318Y-123198334D01*
X112943676Y-123195500D01*
X167864108Y-123195500D01*
X168306324Y-123195500D01*
X168373363Y-123215185D01*
G37*
%TD.AperFunction*%
%TD*%
M02*
