%TF.GenerationSoftware,KiCad,Pcbnew,8.0.8*%
%TF.CreationDate,2025-08-16T13:44:24+01:00*%
%TF.ProjectId,UKMARSBOT_RP2040Wall-Sensor-Basic,554b4d41-5253-4424-9f54-5f5250323034,rev?*%
%TF.SameCoordinates,Original*%
%TF.FileFunction,Legend,Bot*%
%TF.FilePolarity,Positive*%
%FSLAX46Y46*%
G04 Gerber Fmt 4.6, Leading zero omitted, Abs format (unit mm)*
G04 Created by KiCad (PCBNEW 8.0.8) date 2025-08-16 13:44:24*
%MOMM*%
%LPD*%
G01*
G04 APERTURE LIST*
%ADD10C,0.187500*%
%ADD11C,0.120000*%
%ADD12C,0.300000*%
%ADD13C,0.150000*%
G04 APERTURE END LIST*
D10*
X131356655Y-131479001D02*
X131142393Y-131734349D01*
X131451827Y-132180482D02*
X131757917Y-131815699D01*
X131757917Y-131815699D02*
X130991872Y-131172912D01*
X130991872Y-131172912D02*
X130685783Y-131537695D01*
X127846059Y-136231288D02*
X127913146Y-136225419D01*
X127913146Y-136225419D02*
X128041451Y-136146593D01*
X128041451Y-136146593D02*
X128102669Y-136073636D01*
X128102669Y-136073636D02*
X128158017Y-135933592D01*
X128158017Y-135933592D02*
X128146279Y-135799418D01*
X128146279Y-135799418D02*
X128103931Y-135701722D01*
X128103931Y-135701722D02*
X127988627Y-135542808D01*
X127988627Y-135542808D02*
X127879192Y-135450981D01*
X127879192Y-135450981D02*
X127702670Y-135365023D01*
X127702670Y-135365023D02*
X127599104Y-135340284D01*
X127599104Y-135340284D02*
X127464930Y-135352023D01*
X127464930Y-135352023D02*
X127336625Y-135430849D01*
X127336625Y-135430849D02*
X127275407Y-135503805D01*
X127275407Y-135503805D02*
X127220058Y-135643849D01*
X127220058Y-135643849D02*
X127225928Y-135710936D01*
D11*
X176044862Y-151635855D02*
X175778195Y-152435855D01*
X175778195Y-152435855D02*
X175511529Y-151635855D01*
X174940100Y-152397760D02*
X175016291Y-152435855D01*
X175016291Y-152435855D02*
X175168672Y-152435855D01*
X175168672Y-152435855D02*
X175244862Y-152397760D01*
X175244862Y-152397760D02*
X175282958Y-152321569D01*
X175282958Y-152321569D02*
X175282958Y-152016807D01*
X175282958Y-152016807D02*
X175244862Y-151940617D01*
X175244862Y-151940617D02*
X175168672Y-151902521D01*
X175168672Y-151902521D02*
X175016291Y-151902521D01*
X175016291Y-151902521D02*
X174940100Y-151940617D01*
X174940100Y-151940617D02*
X174902005Y-152016807D01*
X174902005Y-152016807D02*
X174902005Y-152092998D01*
X174902005Y-152092998D02*
X175282958Y-152169188D01*
X174559148Y-152435855D02*
X174559148Y-151902521D01*
X174559148Y-152054902D02*
X174521053Y-151978712D01*
X174521053Y-151978712D02*
X174482958Y-151940617D01*
X174482958Y-151940617D02*
X174406767Y-151902521D01*
X174406767Y-151902521D02*
X174330577Y-151902521D01*
X174102006Y-152397760D02*
X174025815Y-152435855D01*
X174025815Y-152435855D02*
X173873434Y-152435855D01*
X173873434Y-152435855D02*
X173797244Y-152397760D01*
X173797244Y-152397760D02*
X173759148Y-152321569D01*
X173759148Y-152321569D02*
X173759148Y-152283474D01*
X173759148Y-152283474D02*
X173797244Y-152207283D01*
X173797244Y-152207283D02*
X173873434Y-152169188D01*
X173873434Y-152169188D02*
X173987720Y-152169188D01*
X173987720Y-152169188D02*
X174063910Y-152131093D01*
X174063910Y-152131093D02*
X174102006Y-152054902D01*
X174102006Y-152054902D02*
X174102006Y-152016807D01*
X174102006Y-152016807D02*
X174063910Y-151940617D01*
X174063910Y-151940617D02*
X173987720Y-151902521D01*
X173987720Y-151902521D02*
X173873434Y-151902521D01*
X173873434Y-151902521D02*
X173797244Y-151940617D01*
X173416291Y-152435855D02*
X173416291Y-151902521D01*
X173416291Y-151635855D02*
X173454387Y-151673950D01*
X173454387Y-151673950D02*
X173416291Y-151712045D01*
X173416291Y-151712045D02*
X173378196Y-151673950D01*
X173378196Y-151673950D02*
X173416291Y-151635855D01*
X173416291Y-151635855D02*
X173416291Y-151712045D01*
X172921054Y-152435855D02*
X172997244Y-152397760D01*
X172997244Y-152397760D02*
X173035339Y-152359664D01*
X173035339Y-152359664D02*
X173073435Y-152283474D01*
X173073435Y-152283474D02*
X173073435Y-152054902D01*
X173073435Y-152054902D02*
X173035339Y-151978712D01*
X173035339Y-151978712D02*
X172997244Y-151940617D01*
X172997244Y-151940617D02*
X172921054Y-151902521D01*
X172921054Y-151902521D02*
X172806768Y-151902521D01*
X172806768Y-151902521D02*
X172730577Y-151940617D01*
X172730577Y-151940617D02*
X172692482Y-151978712D01*
X172692482Y-151978712D02*
X172654387Y-152054902D01*
X172654387Y-152054902D02*
X172654387Y-152283474D01*
X172654387Y-152283474D02*
X172692482Y-152359664D01*
X172692482Y-152359664D02*
X172730577Y-152397760D01*
X172730577Y-152397760D02*
X172806768Y-152435855D01*
X172806768Y-152435855D02*
X172921054Y-152435855D01*
X172311529Y-151902521D02*
X172311529Y-152435855D01*
X172311529Y-151978712D02*
X172273434Y-151940617D01*
X172273434Y-151940617D02*
X172197244Y-151902521D01*
X172197244Y-151902521D02*
X172082958Y-151902521D01*
X172082958Y-151902521D02*
X172006767Y-151940617D01*
X172006767Y-151940617D02*
X171968672Y-152016807D01*
X171968672Y-152016807D02*
X171968672Y-152435855D01*
X171016291Y-151712045D02*
X170978195Y-151673950D01*
X170978195Y-151673950D02*
X170902005Y-151635855D01*
X170902005Y-151635855D02*
X170711529Y-151635855D01*
X170711529Y-151635855D02*
X170635338Y-151673950D01*
X170635338Y-151673950D02*
X170597243Y-151712045D01*
X170597243Y-151712045D02*
X170559148Y-151788236D01*
X170559148Y-151788236D02*
X170559148Y-151864426D01*
X170559148Y-151864426D02*
X170597243Y-151978712D01*
X170597243Y-151978712D02*
X171054386Y-152435855D01*
X171054386Y-152435855D02*
X170559148Y-152435855D01*
X170216290Y-152359664D02*
X170178195Y-152397760D01*
X170178195Y-152397760D02*
X170216290Y-152435855D01*
X170216290Y-152435855D02*
X170254386Y-152397760D01*
X170254386Y-152397760D02*
X170216290Y-152359664D01*
X170216290Y-152359664D02*
X170216290Y-152435855D01*
X169416291Y-152435855D02*
X169873434Y-152435855D01*
X169644862Y-152435855D02*
X169644862Y-151635855D01*
X169644862Y-151635855D02*
X169721053Y-151750140D01*
X169721053Y-151750140D02*
X169797243Y-151826331D01*
X169797243Y-151826331D02*
X169873434Y-151864426D01*
D10*
X138943963Y-140485127D02*
X138991582Y-140532747D01*
X138991582Y-140532747D02*
X139134439Y-140580366D01*
X139134439Y-140580366D02*
X139229677Y-140580366D01*
X139229677Y-140580366D02*
X139372534Y-140532747D01*
X139372534Y-140532747D02*
X139467772Y-140437508D01*
X139467772Y-140437508D02*
X139515391Y-140342270D01*
X139515391Y-140342270D02*
X139563010Y-140151794D01*
X139563010Y-140151794D02*
X139563010Y-140008937D01*
X139563010Y-140008937D02*
X139515391Y-139818461D01*
X139515391Y-139818461D02*
X139467772Y-139723223D01*
X139467772Y-139723223D02*
X139372534Y-139627985D01*
X139372534Y-139627985D02*
X139229677Y-139580366D01*
X139229677Y-139580366D02*
X139134439Y-139580366D01*
X139134439Y-139580366D02*
X138991582Y-139627985D01*
X138991582Y-139627985D02*
X138943963Y-139675604D01*
D12*
X176915489Y-149570828D02*
X176915489Y-150785114D01*
X176915489Y-150785114D02*
X176844060Y-150927971D01*
X176844060Y-150927971D02*
X176772632Y-150999400D01*
X176772632Y-150999400D02*
X176629774Y-151070828D01*
X176629774Y-151070828D02*
X176344060Y-151070828D01*
X176344060Y-151070828D02*
X176201203Y-150999400D01*
X176201203Y-150999400D02*
X176129774Y-150927971D01*
X176129774Y-150927971D02*
X176058346Y-150785114D01*
X176058346Y-150785114D02*
X176058346Y-149570828D01*
X175344060Y-151070828D02*
X175344060Y-149570828D01*
X174486917Y-151070828D02*
X175129774Y-150213685D01*
X174486917Y-149570828D02*
X175344060Y-150427971D01*
X173844060Y-151070828D02*
X173844060Y-149570828D01*
X173844060Y-149570828D02*
X173344060Y-150642257D01*
X173344060Y-150642257D02*
X172844060Y-149570828D01*
X172844060Y-149570828D02*
X172844060Y-151070828D01*
X172201202Y-150642257D02*
X171486917Y-150642257D01*
X172344059Y-151070828D02*
X171844059Y-149570828D01*
X171844059Y-149570828D02*
X171344059Y-151070828D01*
X169986917Y-151070828D02*
X170486917Y-150356542D01*
X170844060Y-151070828D02*
X170844060Y-149570828D01*
X170844060Y-149570828D02*
X170272631Y-149570828D01*
X170272631Y-149570828D02*
X170129774Y-149642257D01*
X170129774Y-149642257D02*
X170058345Y-149713685D01*
X170058345Y-149713685D02*
X169986917Y-149856542D01*
X169986917Y-149856542D02*
X169986917Y-150070828D01*
X169986917Y-150070828D02*
X170058345Y-150213685D01*
X170058345Y-150213685D02*
X170129774Y-150285114D01*
X170129774Y-150285114D02*
X170272631Y-150356542D01*
X170272631Y-150356542D02*
X170844060Y-150356542D01*
X169415488Y-150999400D02*
X169201203Y-151070828D01*
X169201203Y-151070828D02*
X168844060Y-151070828D01*
X168844060Y-151070828D02*
X168701203Y-150999400D01*
X168701203Y-150999400D02*
X168629774Y-150927971D01*
X168629774Y-150927971D02*
X168558345Y-150785114D01*
X168558345Y-150785114D02*
X168558345Y-150642257D01*
X168558345Y-150642257D02*
X168629774Y-150499400D01*
X168629774Y-150499400D02*
X168701203Y-150427971D01*
X168701203Y-150427971D02*
X168844060Y-150356542D01*
X168844060Y-150356542D02*
X169129774Y-150285114D01*
X169129774Y-150285114D02*
X169272631Y-150213685D01*
X169272631Y-150213685D02*
X169344060Y-150142257D01*
X169344060Y-150142257D02*
X169415488Y-149999400D01*
X169415488Y-149999400D02*
X169415488Y-149856542D01*
X169415488Y-149856542D02*
X169344060Y-149713685D01*
X169344060Y-149713685D02*
X169272631Y-149642257D01*
X169272631Y-149642257D02*
X169129774Y-149570828D01*
X169129774Y-149570828D02*
X168772631Y-149570828D01*
X168772631Y-149570828D02*
X168558345Y-149642257D01*
D10*
X153276335Y-135666822D02*
X153062073Y-135411474D01*
X152568985Y-135638737D02*
X152875074Y-136003520D01*
X152875074Y-136003520D02*
X153641118Y-135360733D01*
X153641118Y-135360733D02*
X153335029Y-134995950D01*
X149104531Y-131359223D02*
X149098662Y-131426310D01*
X149098662Y-131426310D02*
X149154010Y-131566354D01*
X149154010Y-131566354D02*
X149215228Y-131639311D01*
X149215228Y-131639311D02*
X149343533Y-131718137D01*
X149343533Y-131718137D02*
X149477708Y-131729875D01*
X149477708Y-131729875D02*
X149581273Y-131705136D01*
X149581273Y-131705136D02*
X149757796Y-131619178D01*
X149757796Y-131619178D02*
X149867231Y-131527352D01*
X149867231Y-131527352D02*
X149982535Y-131368437D01*
X149982535Y-131368437D02*
X150024883Y-131270741D01*
X150024883Y-131270741D02*
X150036621Y-131136567D01*
X150036621Y-131136567D02*
X149981273Y-130996523D01*
X149981273Y-130996523D02*
X149920055Y-130923566D01*
X149920055Y-130923566D02*
X149791750Y-130844740D01*
X149791750Y-130844740D02*
X149724663Y-130838871D01*
X142085706Y-140089937D02*
X141752373Y-140089937D01*
X141609516Y-140613747D02*
X142085706Y-140613747D01*
X142085706Y-140613747D02*
X142085706Y-139613747D01*
X142085706Y-139613747D02*
X141609516Y-139613747D01*
D13*
X160775474Y-128200033D02*
X161354520Y-128149292D01*
X161142781Y-128637773D02*
X161908826Y-127994985D01*
X161908826Y-127994985D02*
X161663954Y-127703159D01*
X161663954Y-127703159D02*
X161566258Y-127660811D01*
X161566258Y-127660811D02*
X161499171Y-127654941D01*
X161499171Y-127654941D02*
X161395605Y-127679681D01*
X161395605Y-127679681D02*
X161286171Y-127771508D01*
X161286171Y-127771508D02*
X161243823Y-127869204D01*
X161243823Y-127869204D02*
X161237954Y-127936291D01*
X161237954Y-127936291D02*
X161262693Y-128039857D01*
X161262693Y-128039857D02*
X161507565Y-128331683D01*
X160499994Y-127871728D02*
X161266038Y-127228941D01*
X161266038Y-127228941D02*
X161112994Y-127046549D01*
X161112994Y-127046549D02*
X160984689Y-126967723D01*
X160984689Y-126967723D02*
X160850514Y-126955984D01*
X160850514Y-126955984D02*
X160746949Y-126980724D01*
X160746949Y-126980724D02*
X160570426Y-127066681D01*
X160570426Y-127066681D02*
X160460991Y-127158508D01*
X160460991Y-127158508D02*
X160345687Y-127317422D01*
X160345687Y-127317422D02*
X160303339Y-127415118D01*
X160303339Y-127415118D02*
X160291601Y-127549293D01*
X160291601Y-127549293D02*
X160346949Y-127689337D01*
X160346949Y-127689337D02*
X160499994Y-127871728D01*
X159857206Y-127105684D02*
X160623251Y-126462896D01*
X160623251Y-126462896D02*
X160378379Y-126171070D01*
X160378379Y-126171070D02*
X160280683Y-126128722D01*
X160280683Y-126128722D02*
X160213596Y-126122853D01*
X160213596Y-126122853D02*
X160110030Y-126147592D01*
X160110030Y-126147592D02*
X160000595Y-126239419D01*
X160000595Y-126239419D02*
X159958248Y-126337115D01*
X159958248Y-126337115D02*
X159952378Y-126404202D01*
X159952378Y-126404202D02*
X159977118Y-126507768D01*
X159977118Y-126507768D02*
X160221989Y-126799594D01*
X159214419Y-126339639D02*
X159980463Y-125696852D01*
X159980463Y-125696852D02*
X159827418Y-125514460D01*
X159827418Y-125514460D02*
X159699113Y-125435634D01*
X159699113Y-125435634D02*
X159564939Y-125423895D01*
X159564939Y-125423895D02*
X159461373Y-125448635D01*
X159461373Y-125448635D02*
X159284851Y-125534592D01*
X159284851Y-125534592D02*
X159175416Y-125626419D01*
X159175416Y-125626419D02*
X159060112Y-125785333D01*
X159060112Y-125785333D02*
X159017764Y-125883029D01*
X159017764Y-125883029D02*
X159006025Y-126017204D01*
X159006025Y-126017204D02*
X159061374Y-126157248D01*
X159061374Y-126157248D02*
X159214419Y-126339639D01*
X158234933Y-125172333D02*
X158602240Y-125610073D01*
X158418586Y-125391203D02*
X159184631Y-124748416D01*
X159184631Y-124748416D02*
X159136414Y-124913199D01*
X159136414Y-124913199D02*
X159124675Y-125047374D01*
X159124675Y-125047374D02*
X159149415Y-125150939D01*
X141808119Y-128014011D02*
X142141452Y-128014011D01*
X142141452Y-128537821D02*
X142141452Y-127537821D01*
X142141452Y-127537821D02*
X141665262Y-127537821D01*
X141284309Y-128537821D02*
X141284309Y-127537821D01*
X141284309Y-127537821D02*
X140903357Y-127537821D01*
X140903357Y-127537821D02*
X140808119Y-127585440D01*
X140808119Y-127585440D02*
X140760500Y-127633059D01*
X140760500Y-127633059D02*
X140712881Y-127728297D01*
X140712881Y-127728297D02*
X140712881Y-127871154D01*
X140712881Y-127871154D02*
X140760500Y-127966392D01*
X140760500Y-127966392D02*
X140808119Y-128014011D01*
X140808119Y-128014011D02*
X140903357Y-128061630D01*
X140903357Y-128061630D02*
X141284309Y-128061630D01*
X140284309Y-128537821D02*
X140284309Y-127537821D01*
X140284309Y-127537821D02*
X140046214Y-127537821D01*
X140046214Y-127537821D02*
X139903357Y-127585440D01*
X139903357Y-127585440D02*
X139808119Y-127680678D01*
X139808119Y-127680678D02*
X139760500Y-127775916D01*
X139760500Y-127775916D02*
X139712881Y-127966392D01*
X139712881Y-127966392D02*
X139712881Y-128109249D01*
X139712881Y-128109249D02*
X139760500Y-128299725D01*
X139760500Y-128299725D02*
X139808119Y-128394963D01*
X139808119Y-128394963D02*
X139903357Y-128490202D01*
X139903357Y-128490202D02*
X140046214Y-128537821D01*
X140046214Y-128537821D02*
X140284309Y-128537821D01*
X138760500Y-128537821D02*
X139331928Y-128537821D01*
X139046214Y-128537821D02*
X139046214Y-127537821D01*
X139046214Y-127537821D02*
X139141452Y-127680678D01*
X139141452Y-127680678D02*
X139236690Y-127775916D01*
X139236690Y-127775916D02*
X139331928Y-127823535D01*
X122216580Y-125796765D02*
X122522669Y-125431982D01*
X122522669Y-125431982D02*
X121756624Y-124789194D01*
X122002317Y-126052113D02*
X121236272Y-125409326D01*
X121236272Y-125409326D02*
X121083228Y-125591717D01*
X121083228Y-125591717D02*
X121027879Y-125731761D01*
X121027879Y-125731761D02*
X121039618Y-125865936D01*
X121039618Y-125865936D02*
X121081966Y-125963632D01*
X121081966Y-125963632D02*
X121197270Y-126122546D01*
X121197270Y-126122546D02*
X121306705Y-126214373D01*
X121306705Y-126214373D02*
X121483227Y-126300330D01*
X121483227Y-126300330D02*
X121586793Y-126325070D01*
X121586793Y-126325070D02*
X121720967Y-126313331D01*
X121720967Y-126313331D02*
X121849272Y-126234505D01*
X121849272Y-126234505D02*
X122002317Y-126052113D01*
X121359529Y-126818158D02*
X120593485Y-126175370D01*
X120593485Y-126175370D02*
X120348613Y-126467197D01*
X120348613Y-126467197D02*
X120323874Y-126570762D01*
X120323874Y-126570762D02*
X120329743Y-126637849D01*
X120329743Y-126637849D02*
X120372091Y-126735546D01*
X120372091Y-126735546D02*
X120481526Y-126827372D01*
X120481526Y-126827372D02*
X120585091Y-126852112D01*
X120585091Y-126852112D02*
X120652179Y-126846243D01*
X120652179Y-126846243D02*
X120749875Y-126803895D01*
X120749875Y-126803895D02*
X120994746Y-126512069D01*
X120716742Y-127584202D02*
X119950697Y-126941415D01*
X119950697Y-126941415D02*
X119797653Y-127123806D01*
X119797653Y-127123806D02*
X119742304Y-127263850D01*
X119742304Y-127263850D02*
X119754043Y-127398025D01*
X119754043Y-127398025D02*
X119796390Y-127495721D01*
X119796390Y-127495721D02*
X119911695Y-127654635D01*
X119911695Y-127654635D02*
X120021130Y-127746462D01*
X120021130Y-127746462D02*
X120197652Y-127832419D01*
X120197652Y-127832419D02*
X120301217Y-127857159D01*
X120301217Y-127857159D02*
X120435392Y-127845420D01*
X120435392Y-127845420D02*
X120563697Y-127766594D01*
X120563697Y-127766594D02*
X120716742Y-127584202D01*
X119737256Y-128751508D02*
X120104563Y-128313768D01*
X119920909Y-128532638D02*
X119154865Y-127889851D01*
X119154865Y-127889851D02*
X119325518Y-127908721D01*
X119325518Y-127908721D02*
X119459692Y-127896982D01*
X119459692Y-127896982D02*
X119557388Y-127854634D01*
D11*
%TO.C,RDPD1*%
X152447328Y-131257789D02*
X152447328Y-131257789D01*
X152447328Y-131257789D02*
X154492667Y-129541546D01*
X154080009Y-133203542D02*
X154080009Y-133203542D01*
X154080009Y-133203542D02*
X156125347Y-131487299D01*
X154492667Y-129541546D02*
X152447328Y-131257789D01*
X154492667Y-129541546D02*
X154492667Y-129541546D01*
X156125347Y-131487299D02*
X154080009Y-133203542D01*
X156125347Y-131487299D02*
X156125347Y-131487299D01*
X156311756Y-131709452D02*
X154306258Y-129319394D01*
X156311756Y-131709452D02*
X157169725Y-130989530D01*
X156568871Y-132015870D02*
X156311756Y-131709452D01*
X157169725Y-130989530D02*
X157426840Y-131295948D01*
X157263190Y-126838233D02*
X154306258Y-129319394D01*
X157426840Y-131295948D02*
X156568871Y-132015870D01*
X159268687Y-129228292D02*
X156311756Y-131709452D01*
X157263190Y-126838233D02*
G75*
G02*
X159268687Y-129228292I1002748J-1195030D01*
G01*
%TO.C,FPD1*%
X139050000Y-130542000D02*
X139050000Y-134402000D01*
X139340000Y-134402000D02*
X139340000Y-134402000D01*
X139340000Y-134402000D02*
X139340000Y-137072000D01*
X139340000Y-137072000D02*
X139340000Y-134402000D01*
X139340000Y-137072000D02*
X139340000Y-137072000D01*
X141880000Y-134402000D02*
X141880000Y-134402000D01*
X141880000Y-134402000D02*
X141880000Y-137072000D01*
X141880000Y-137072000D02*
X141880000Y-134402000D01*
X141880000Y-137072000D02*
X141880000Y-137072000D01*
X142170000Y-130542000D02*
X142170000Y-134402000D01*
X142170000Y-133282000D02*
X142570000Y-133282000D01*
X142170000Y-134402000D02*
X139050000Y-134402000D01*
X142170000Y-134402000D02*
X142170000Y-133282000D01*
X142570000Y-133282000D02*
X142570000Y-134402000D01*
X142570000Y-134402000D02*
X142170000Y-134402000D01*
X139050000Y-130542000D02*
G75*
G02*
X142170000Y-130542000I1560000J0D01*
G01*
%TO.C,LDPD1*%
X121971293Y-129228339D02*
X124928225Y-131709499D01*
X123976791Y-126838281D02*
X126933722Y-129319441D01*
X125114633Y-131487346D02*
X125114633Y-131487346D01*
X125114633Y-131487346D02*
X127159972Y-133203589D01*
X126075752Y-128599519D02*
X126332868Y-128293101D01*
X126332868Y-128293101D02*
X127190837Y-129013023D01*
X126747314Y-129541594D02*
X126747314Y-129541594D01*
X126747314Y-129541594D02*
X128792653Y-131257836D01*
X126933722Y-129319441D02*
X124928225Y-131709499D01*
X126933722Y-129319441D02*
X126075752Y-128599519D01*
X127159972Y-133203589D02*
X125114633Y-131487346D01*
X127159972Y-133203589D02*
X127159972Y-133203589D01*
X127190837Y-129013023D02*
X126933722Y-129319441D01*
X128792653Y-131257836D02*
X126747314Y-129541594D01*
X128792653Y-131257836D02*
X128792653Y-131257836D01*
X121971293Y-129228339D02*
G75*
G02*
X123976791Y-126838281I1002749J1195029D01*
G01*
%TD*%
M02*
