M48
; DRILL file {KiCad 8.0.8} date 2025-03-19T15:02:42+0000
; FORMAT={-:-/ absolute / inch / decimal}
; #@! TF.CreationDate,2025-03-19T15:02:42+00:00
; #@! TF.GenerationSoftware,Kicad,Pcbnew,8.0.8
; #@! TF.FileFunction,Plated,1,2,PTH
FMAT,2
INCH
; #@! TA.AperFunction,Plated,PTH,ViaDrill
T1C0.0118
; #@! TA.AperFunction,Plated,PTH,ComponentDrill
T2C0.0295
; #@! TA.AperFunction,Plated,PTH,ComponentDrill
T3C0.0315
; #@! TA.AperFunction,Plated,PTH,ComponentDrill
T4C0.0354
; #@! TA.AperFunction,Plated,PTH,ComponentDrill
T5C0.0394
; #@! TA.AperFunction,Plated,PTH,ComponentDrill
T6C0.1260
%
G90
G05
T1
X4.9647Y-5.4349
X6.437Y-5.4555
T2
X5.2614Y-5.1255
X5.3114Y-5.0755
X5.3114Y-5.1755
X5.7714Y-5.0755
X5.7714Y-5.1755
X5.8214Y-5.1255
T3
X4.1514Y-5.7855
X4.1514Y-5.8839
X4.1614Y-5.4455
X4.1614Y-5.5439
X4.3514Y-5.9555
X4.4414Y-5.1555
X4.4414Y-5.4555
X4.5814Y-5.1555
X4.5814Y-5.4555
X4.6514Y-5.9555
X4.737Y-5.9555
X4.8414Y-5.3555
X4.8414Y-5.6555
X4.9714Y-5.3555
X4.9714Y-5.6555
X5.037Y-5.9555
X5.1014Y-5.3555
X5.1014Y-5.6555
X5.2214Y-5.3555
X5.2214Y-5.6555
X5.3414Y-5.3555
X5.3414Y-5.6555
X5.7314Y-5.3455
X5.7314Y-5.6455
X5.8493Y-5.3455
X5.8493Y-5.6455
X5.9693Y-5.3455
X5.9693Y-5.6455
X6.0914Y-5.3455
X6.0914Y-5.6455
X6.2214Y-5.3455
X6.2214Y-5.6455
X6.6454Y-5.1371
X6.6454Y-5.4371
X6.8906Y-5.7795
X6.8906Y-5.878
T4
X4.237Y-5.1355
X4.237Y-5.2355
X4.9287Y-5.176
X4.993Y-5.0994
X5.0389Y-5.2716
X5.1031Y-5.195
X5.4814Y-5.5808
X5.4858Y-5.4391
X5.4874Y-5.3209
X5.5814Y-5.5808
X5.5858Y-5.4391
X5.5874Y-5.3209
X5.9693Y-5.195
X6.0336Y-5.2716
X6.0795Y-5.0994
X6.1437Y-5.176
X6.8354Y-5.1362
X6.8354Y-5.2362
T5
X4.787Y-5.8055
X4.887Y-5.8055
X4.987Y-5.8055
X5.087Y-5.8055
X5.187Y-5.8055
X5.287Y-5.8055
X5.387Y-5.8055
X5.487Y-5.8055
X5.587Y-5.8055
X5.687Y-5.8055
X5.787Y-5.8055
X5.887Y-5.8055
X5.987Y-5.8055
X6.087Y-5.8055
X6.187Y-5.8055
X6.287Y-5.8055
T6
X4.5864Y-5.6555
X6.487Y-5.6555
M30
