M48
; DRILL file {KiCad 8.0.8} date 2025-08-16T13:44:30+0100
; FORMAT={-:-/ absolute / inch / decimal}
; #@! TF.CreationDate,2025-08-16T13:44:30+01:00
; #@! TF.GenerationSoftware,Kicad,Pcbnew,8.0.8
; #@! TF.FileFunction,Plated,1,2,PTH
FMAT,2
INCH
; #@! TA.AperFunction,Plated,PTH,ViaDrill
T1C0.0118
; #@! TA.AperFunction,Plated,PTH,ComponentDrill
T2C0.0315
; #@! TA.AperFunction,Plated,PTH,ComponentDrill
T3C0.0354
; #@! TA.AperFunction,Plated,PTH,ComponentDrill
T4C0.0394
; #@! TA.AperFunction,Plated,PTH,ComponentDrill
T5C0.1260
%
G90
G05
T1
X5.0348Y-5.4578
X5.0348Y-5.5631
X5.287Y-5.3729
X5.337Y-5.9055
X5.5402Y-5.3729
X5.737Y-5.9055
T2
X4.137Y-5.5055
X4.137Y-5.6039
X4.137Y-5.8055
X4.137Y-5.9039
X4.3516Y-5.9055
X4.4337Y-5.1079
X4.4337Y-5.4079
X4.5737Y-5.1079
X4.5737Y-5.4079
X4.6516Y-5.9055
X4.8414Y-5.3555
X4.8414Y-5.6555
X4.9714Y-5.3555
X4.9714Y-5.6555
X5.0964Y-5.3545
X5.0964Y-5.6545
X5.3012Y-5.0055
X5.3012Y-5.1055
X5.3012Y-5.2055
X5.3271Y-5.3192
X5.3271Y-5.6192
X5.7272Y-5.376
X5.7272Y-5.676
X5.7714Y-5.0755
X5.7714Y-5.1755
X5.7714Y-5.2755
X5.85Y-5.3758
X5.85Y-5.6758
X5.9693Y-5.3455
X5.9693Y-5.6455
X6.0914Y-5.3455
X6.0914Y-5.6455
X6.2214Y-5.3455
X6.2214Y-5.6455
X6.737Y-5.4063
X6.737Y-5.7063
X6.937Y-5.4055
X6.937Y-5.7055
T3
X4.237Y-5.1355
X4.237Y-5.2355
X4.9287Y-5.176
X4.993Y-5.0994
X5.0389Y-5.2716
X5.1031Y-5.195
X5.4858Y-5.4391
X5.4874Y-5.3209
X5.5858Y-5.4391
X5.5874Y-5.3209
X5.9693Y-5.195
X6.0336Y-5.2716
X6.0795Y-5.0994
X6.1437Y-5.176
X6.487Y-5.2555
X6.487Y-5.3555
X6.8354Y-5.1362
X6.8354Y-5.2362
T4
X4.787Y-5.8055
X4.887Y-5.8055
X4.987Y-5.8055
X5.087Y-5.8055
X5.187Y-5.8055
X5.287Y-5.8055
X5.387Y-5.8055
X5.487Y-5.8055
X5.587Y-5.8055
X5.687Y-5.8055
X5.787Y-5.8055
X5.887Y-5.8055
X5.987Y-5.8055
X6.087Y-5.8055
X6.187Y-5.8055
X6.287Y-5.8055
T5
X4.5864Y-5.6555
X6.487Y-5.6555
M30
