%TF.GenerationSoftware,KiCad,Pcbnew,8.0.8*%
%TF.CreationDate,2025-07-09T10:49:46+01:00*%
%TF.ProjectId,UKMARSBOT_RP2040Wall-Sensor-Basic,554b4d41-5253-4424-9f54-5f5250323034,rev?*%
%TF.SameCoordinates,Original*%
%TF.FileFunction,Legend,Top*%
%TF.FilePolarity,Positive*%
%FSLAX46Y46*%
G04 Gerber Fmt 4.6, Leading zero omitted, Abs format (unit mm)*
G04 Created by KiCad (PCBNEW 8.0.8) date 2025-07-09 10:49:46*
%MOMM*%
%LPD*%
G01*
G04 APERTURE LIST*
%ADD10C,0.187500*%
%ADD11C,0.120000*%
%ADD12C,0.150000*%
%ADD13C,0.200000*%
%ADD14C,0.300000*%
G04 APERTURE END LIST*
D10*
X171529069Y-129058107D02*
X172243355Y-129058107D01*
X171386212Y-129486678D02*
X171886212Y-127986678D01*
X171886212Y-127986678D02*
X172386212Y-129486678D01*
X105665237Y-134933865D02*
X105665237Y-133433865D01*
X106522380Y-134933865D02*
X105879523Y-134076722D01*
X106522380Y-133433865D02*
X105665237Y-134291008D01*
X108812326Y-128766878D02*
X109526612Y-128766878D01*
X108669469Y-129195449D02*
X109169469Y-127695449D01*
X109169469Y-127695449D02*
X109669469Y-129195449D01*
D11*
X146318572Y-150224365D02*
X146118572Y-149938651D01*
X145975715Y-150224365D02*
X145975715Y-149624365D01*
X145975715Y-149624365D02*
X146204286Y-149624365D01*
X146204286Y-149624365D02*
X146261429Y-149652936D01*
X146261429Y-149652936D02*
X146290000Y-149681508D01*
X146290000Y-149681508D02*
X146318572Y-149738651D01*
X146318572Y-149738651D02*
X146318572Y-149824365D01*
X146318572Y-149824365D02*
X146290000Y-149881508D01*
X146290000Y-149881508D02*
X146261429Y-149910079D01*
X146261429Y-149910079D02*
X146204286Y-149938651D01*
X146204286Y-149938651D02*
X145975715Y-149938651D01*
X146575715Y-150224365D02*
X146575715Y-149824365D01*
X146575715Y-149624365D02*
X146547143Y-149652936D01*
X146547143Y-149652936D02*
X146575715Y-149681508D01*
X146575715Y-149681508D02*
X146604286Y-149652936D01*
X146604286Y-149652936D02*
X146575715Y-149624365D01*
X146575715Y-149624365D02*
X146575715Y-149681508D01*
X147118572Y-149824365D02*
X147118572Y-150310079D01*
X147118572Y-150310079D02*
X147090000Y-150367222D01*
X147090000Y-150367222D02*
X147061429Y-150395794D01*
X147061429Y-150395794D02*
X147004286Y-150424365D01*
X147004286Y-150424365D02*
X146918572Y-150424365D01*
X146918572Y-150424365D02*
X146861429Y-150395794D01*
X147118572Y-150195794D02*
X147061429Y-150224365D01*
X147061429Y-150224365D02*
X146947143Y-150224365D01*
X146947143Y-150224365D02*
X146890000Y-150195794D01*
X146890000Y-150195794D02*
X146861429Y-150167222D01*
X146861429Y-150167222D02*
X146832857Y-150110079D01*
X146832857Y-150110079D02*
X146832857Y-149938651D01*
X146832857Y-149938651D02*
X146861429Y-149881508D01*
X146861429Y-149881508D02*
X146890000Y-149852936D01*
X146890000Y-149852936D02*
X146947143Y-149824365D01*
X146947143Y-149824365D02*
X147061429Y-149824365D01*
X147061429Y-149824365D02*
X147118572Y-149852936D01*
X147404286Y-150224365D02*
X147404286Y-149624365D01*
X147661429Y-150224365D02*
X147661429Y-149910079D01*
X147661429Y-149910079D02*
X147632857Y-149852936D01*
X147632857Y-149852936D02*
X147575714Y-149824365D01*
X147575714Y-149824365D02*
X147490000Y-149824365D01*
X147490000Y-149824365D02*
X147432857Y-149852936D01*
X147432857Y-149852936D02*
X147404286Y-149881508D01*
X147861428Y-149824365D02*
X148090000Y-149824365D01*
X147947143Y-149624365D02*
X147947143Y-150138651D01*
X147947143Y-150138651D02*
X147975714Y-150195794D01*
X147975714Y-150195794D02*
X148032857Y-150224365D01*
X148032857Y-150224365D02*
X148090000Y-150224365D01*
X146247142Y-151018902D02*
X146532857Y-151018902D01*
X146189999Y-151190331D02*
X146389999Y-150590331D01*
X146389999Y-150590331D02*
X146589999Y-151190331D01*
X146790000Y-151190331D02*
X146790000Y-150590331D01*
X146790000Y-150590331D02*
X146932857Y-150590331D01*
X146932857Y-150590331D02*
X147018571Y-150618902D01*
X147018571Y-150618902D02*
X147075714Y-150676045D01*
X147075714Y-150676045D02*
X147104285Y-150733188D01*
X147104285Y-150733188D02*
X147132857Y-150847474D01*
X147132857Y-150847474D02*
X147132857Y-150933188D01*
X147132857Y-150933188D02*
X147104285Y-151047474D01*
X147104285Y-151047474D02*
X147075714Y-151104617D01*
X147075714Y-151104617D02*
X147018571Y-151161760D01*
X147018571Y-151161760D02*
X146932857Y-151190331D01*
X146932857Y-151190331D02*
X146790000Y-151190331D01*
X147732857Y-151133188D02*
X147704285Y-151161760D01*
X147704285Y-151161760D02*
X147618571Y-151190331D01*
X147618571Y-151190331D02*
X147561428Y-151190331D01*
X147561428Y-151190331D02*
X147475714Y-151161760D01*
X147475714Y-151161760D02*
X147418571Y-151104617D01*
X147418571Y-151104617D02*
X147390000Y-151047474D01*
X147390000Y-151047474D02*
X147361428Y-150933188D01*
X147361428Y-150933188D02*
X147361428Y-150847474D01*
X147361428Y-150847474D02*
X147390000Y-150733188D01*
X147390000Y-150733188D02*
X147418571Y-150676045D01*
X147418571Y-150676045D02*
X147475714Y-150618902D01*
X147475714Y-150618902D02*
X147561428Y-150590331D01*
X147561428Y-150590331D02*
X147618571Y-150590331D01*
X147618571Y-150590331D02*
X147704285Y-150618902D01*
X147704285Y-150618902D02*
X147732857Y-150647474D01*
D10*
X129543800Y-130733895D02*
X128394733Y-129769714D01*
X130094761Y-130077286D02*
X129024930Y-130018782D01*
X128945694Y-129113104D02*
X129051343Y-130320675D01*
D11*
X144167456Y-131618250D02*
X144129361Y-131732536D01*
X144129361Y-131732536D02*
X144091265Y-131770631D01*
X144091265Y-131770631D02*
X144015075Y-131808727D01*
X144015075Y-131808727D02*
X143900789Y-131808727D01*
X143900789Y-131808727D02*
X143824599Y-131770631D01*
X143824599Y-131770631D02*
X143786504Y-131732536D01*
X143786504Y-131732536D02*
X143748408Y-131656346D01*
X143748408Y-131656346D02*
X143748408Y-131351584D01*
X143748408Y-131351584D02*
X144548408Y-131351584D01*
X144548408Y-131351584D02*
X144548408Y-131618250D01*
X144548408Y-131618250D02*
X144510313Y-131694441D01*
X144510313Y-131694441D02*
X144472218Y-131732536D01*
X144472218Y-131732536D02*
X144396027Y-131770631D01*
X144396027Y-131770631D02*
X144319837Y-131770631D01*
X144319837Y-131770631D02*
X144243646Y-131732536D01*
X144243646Y-131732536D02*
X144205551Y-131694441D01*
X144205551Y-131694441D02*
X144167456Y-131618250D01*
X144167456Y-131618250D02*
X144167456Y-131351584D01*
D10*
X151539342Y-129593620D02*
X151998476Y-130140794D01*
X151119210Y-129759665D02*
X152589671Y-129178506D01*
X152589671Y-129178506D02*
X151761998Y-130525710D01*
D11*
X131207143Y-149910079D02*
X131007143Y-149910079D01*
X131007143Y-150224365D02*
X131007143Y-149624365D01*
X131007143Y-149624365D02*
X131292857Y-149624365D01*
X131521429Y-150224365D02*
X131521429Y-149824365D01*
X131521429Y-149938651D02*
X131550000Y-149881508D01*
X131550000Y-149881508D02*
X131578572Y-149852936D01*
X131578572Y-149852936D02*
X131635714Y-149824365D01*
X131635714Y-149824365D02*
X131692857Y-149824365D01*
X131892858Y-149824365D02*
X131892858Y-150224365D01*
X131892858Y-149881508D02*
X131921429Y-149852936D01*
X131921429Y-149852936D02*
X131978572Y-149824365D01*
X131978572Y-149824365D02*
X132064286Y-149824365D01*
X132064286Y-149824365D02*
X132121429Y-149852936D01*
X132121429Y-149852936D02*
X132150001Y-149910079D01*
X132150001Y-149910079D02*
X132150001Y-150224365D01*
X132350000Y-149824365D02*
X132578572Y-149824365D01*
X132435715Y-149624365D02*
X132435715Y-150138651D01*
X132435715Y-150138651D02*
X132464286Y-150195794D01*
X132464286Y-150195794D02*
X132521429Y-150224365D01*
X132521429Y-150224365D02*
X132578572Y-150224365D01*
X131364286Y-151190331D02*
X131078572Y-151190331D01*
X131078572Y-151190331D02*
X131078572Y-150590331D01*
X131564286Y-150876045D02*
X131764286Y-150876045D01*
X131850000Y-151190331D02*
X131564286Y-151190331D01*
X131564286Y-151190331D02*
X131564286Y-150590331D01*
X131564286Y-150590331D02*
X131850000Y-150590331D01*
X132107143Y-151190331D02*
X132107143Y-150590331D01*
X132107143Y-150590331D02*
X132250000Y-150590331D01*
X132250000Y-150590331D02*
X132335714Y-150618902D01*
X132335714Y-150618902D02*
X132392857Y-150676045D01*
X132392857Y-150676045D02*
X132421428Y-150733188D01*
X132421428Y-150733188D02*
X132450000Y-150847474D01*
X132450000Y-150847474D02*
X132450000Y-150933188D01*
X132450000Y-150933188D02*
X132421428Y-151047474D01*
X132421428Y-151047474D02*
X132392857Y-151104617D01*
X132392857Y-151104617D02*
X132335714Y-151161760D01*
X132335714Y-151161760D02*
X132250000Y-151190331D01*
X132250000Y-151190331D02*
X132107143Y-151190331D01*
X136962329Y-132465083D02*
X136962329Y-132198417D01*
X137381377Y-132084131D02*
X137381377Y-132465083D01*
X137381377Y-132465083D02*
X136581377Y-132465083D01*
X136581377Y-132465083D02*
X136581377Y-132084131D01*
D10*
X125597846Y-134151629D02*
X126056980Y-133604455D01*
X125834324Y-134536545D02*
X125006651Y-133189341D01*
X125006651Y-133189341D02*
X126477111Y-133770500D01*
D11*
X137205044Y-126850620D02*
X137243140Y-126888716D01*
X137243140Y-126888716D02*
X137281235Y-127003001D01*
X137281235Y-127003001D02*
X137281235Y-127079192D01*
X137281235Y-127079192D02*
X137243140Y-127193478D01*
X137243140Y-127193478D02*
X137166949Y-127269668D01*
X137166949Y-127269668D02*
X137090759Y-127307763D01*
X137090759Y-127307763D02*
X136938378Y-127345859D01*
X136938378Y-127345859D02*
X136824092Y-127345859D01*
X136824092Y-127345859D02*
X136671711Y-127307763D01*
X136671711Y-127307763D02*
X136595520Y-127269668D01*
X136595520Y-127269668D02*
X136519330Y-127193478D01*
X136519330Y-127193478D02*
X136481235Y-127079192D01*
X136481235Y-127079192D02*
X136481235Y-127003001D01*
X136481235Y-127003001D02*
X136519330Y-126888716D01*
X136519330Y-126888716D02*
X136557425Y-126850620D01*
D12*
X126580291Y-133410772D02*
X125967456Y-132896542D01*
X125967456Y-132896542D02*
X126089891Y-132750629D01*
X126089891Y-132750629D02*
X126192535Y-132687568D01*
X126192535Y-132687568D02*
X126299875Y-132678177D01*
X126299875Y-132678177D02*
X126382727Y-132697969D01*
X126382727Y-132697969D02*
X126523945Y-132766735D01*
X126523945Y-132766735D02*
X126611493Y-132840196D01*
X126611493Y-132840196D02*
X126703736Y-132967327D01*
X126703736Y-132967327D02*
X126737615Y-133045484D01*
X126737615Y-133045484D02*
X126747006Y-133152824D01*
X126747006Y-133152824D02*
X126702727Y-133264859D01*
X126702727Y-133264859D02*
X126580291Y-133410772D01*
X127339393Y-132506110D02*
X127094521Y-132797936D01*
X127094521Y-132797936D02*
X126481686Y-132283706D01*
X127189794Y-132032473D02*
X127361204Y-131828194D01*
X127755674Y-132010005D02*
X127510803Y-132301832D01*
X127510803Y-132301832D02*
X126897967Y-131787601D01*
X126897967Y-131787601D02*
X127142839Y-131495775D01*
X127976059Y-131747361D02*
X127363223Y-131233131D01*
X127363223Y-131233131D02*
X127485659Y-131087218D01*
X127485659Y-131087218D02*
X127588303Y-131024157D01*
X127588303Y-131024157D02*
X127695643Y-131014766D01*
X127695643Y-131014766D02*
X127778495Y-131034557D01*
X127778495Y-131034557D02*
X127919713Y-131103323D01*
X127919713Y-131103323D02*
X128007261Y-131176785D01*
X128007261Y-131176785D02*
X128099504Y-131303916D01*
X128099504Y-131303916D02*
X128133382Y-131382073D01*
X128133382Y-131382073D02*
X128142773Y-131489413D01*
X128142773Y-131489413D02*
X128098494Y-131601448D01*
X128098494Y-131601448D02*
X127976059Y-131747361D01*
X127911331Y-130698452D02*
X127906636Y-130644782D01*
X127906636Y-130644782D02*
X127926428Y-130561930D01*
X127926428Y-130561930D02*
X128048863Y-130416017D01*
X128048863Y-130416017D02*
X128127020Y-130382139D01*
X128127020Y-130382139D02*
X128180690Y-130377443D01*
X128180690Y-130377443D02*
X128263542Y-130397235D01*
X128263542Y-130397235D02*
X128321908Y-130446209D01*
X128321908Y-130446209D02*
X128384969Y-130548853D01*
X128384969Y-130548853D02*
X128441315Y-131192891D01*
X128441315Y-131192891D02*
X128759647Y-130813516D01*
D11*
X123612337Y-150126173D02*
X123536147Y-150088078D01*
X123536147Y-150088078D02*
X123421861Y-150088078D01*
X123421861Y-150088078D02*
X123307575Y-150126173D01*
X123307575Y-150126173D02*
X123231385Y-150202363D01*
X123231385Y-150202363D02*
X123193290Y-150278554D01*
X123193290Y-150278554D02*
X123155194Y-150430935D01*
X123155194Y-150430935D02*
X123155194Y-150545221D01*
X123155194Y-150545221D02*
X123193290Y-150697602D01*
X123193290Y-150697602D02*
X123231385Y-150773792D01*
X123231385Y-150773792D02*
X123307575Y-150849983D01*
X123307575Y-150849983D02*
X123421861Y-150888078D01*
X123421861Y-150888078D02*
X123498052Y-150888078D01*
X123498052Y-150888078D02*
X123612337Y-150849983D01*
X123612337Y-150849983D02*
X123650433Y-150811887D01*
X123650433Y-150811887D02*
X123650433Y-150545221D01*
X123650433Y-150545221D02*
X123498052Y-150545221D01*
X123993290Y-150888078D02*
X123993290Y-150088078D01*
X123993290Y-150088078D02*
X124450433Y-150888078D01*
X124450433Y-150888078D02*
X124450433Y-150088078D01*
X124831385Y-150888078D02*
X124831385Y-150088078D01*
X124831385Y-150088078D02*
X125021861Y-150088078D01*
X125021861Y-150088078D02*
X125136147Y-150126173D01*
X125136147Y-150126173D02*
X125212337Y-150202363D01*
X125212337Y-150202363D02*
X125250432Y-150278554D01*
X125250432Y-150278554D02*
X125288528Y-150430935D01*
X125288528Y-150430935D02*
X125288528Y-150545221D01*
X125288528Y-150545221D02*
X125250432Y-150697602D01*
X125250432Y-150697602D02*
X125212337Y-150773792D01*
X125212337Y-150773792D02*
X125136147Y-150849983D01*
X125136147Y-150849983D02*
X125021861Y-150888078D01*
X125021861Y-150888078D02*
X124831385Y-150888078D01*
D12*
X152395986Y-130508892D02*
X153008821Y-129994662D01*
X153008821Y-129994662D02*
X153131257Y-130140575D01*
X153131257Y-130140575D02*
X153175536Y-130252610D01*
X153175536Y-130252610D02*
X153166145Y-130359950D01*
X153166145Y-130359950D02*
X153132267Y-130438106D01*
X153132267Y-130438106D02*
X153040023Y-130565238D01*
X153040023Y-130565238D02*
X152952475Y-130638699D01*
X152952475Y-130638699D02*
X152811257Y-130707465D01*
X152811257Y-130707465D02*
X152728405Y-130727257D01*
X152728405Y-130727257D02*
X152621065Y-130717866D01*
X152621065Y-130717866D02*
X152518421Y-130654805D01*
X152518421Y-130654805D02*
X152395986Y-130508892D01*
X153155087Y-131413554D02*
X152910216Y-131121727D01*
X152910216Y-131121727D02*
X153523051Y-130607497D01*
X153647506Y-131348474D02*
X153818916Y-131552752D01*
X153571369Y-131909659D02*
X153326497Y-131617832D01*
X153326497Y-131617832D02*
X153939333Y-131103602D01*
X153939333Y-131103602D02*
X154184204Y-131395429D01*
X153791753Y-132172303D02*
X154404589Y-131658073D01*
X154404589Y-131658073D02*
X154527025Y-131803986D01*
X154527025Y-131803986D02*
X154571303Y-131916021D01*
X154571303Y-131916021D02*
X154561912Y-132023361D01*
X154561912Y-132023361D02*
X154528034Y-132101518D01*
X154528034Y-132101518D02*
X154435791Y-132228649D01*
X154435791Y-132228649D02*
X154348243Y-132302110D01*
X154348243Y-132302110D02*
X154207025Y-132370876D01*
X154207025Y-132370876D02*
X154124173Y-132390668D01*
X154124173Y-132390668D02*
X154016833Y-132381277D01*
X154016833Y-132381277D02*
X153914189Y-132318216D01*
X153914189Y-132318216D02*
X153791753Y-132172303D01*
X154575342Y-133106148D02*
X154281496Y-132755956D01*
X154428419Y-132931052D02*
X155041255Y-132416822D01*
X155041255Y-132416822D02*
X154904732Y-132431918D01*
X154904732Y-132431918D02*
X154797393Y-132422527D01*
X154797393Y-132422527D02*
X154719236Y-132388649D01*
D11*
X141495714Y-150224365D02*
X141210000Y-150224365D01*
X141210000Y-150224365D02*
X141210000Y-149624365D01*
X141924285Y-150195794D02*
X141867142Y-150224365D01*
X141867142Y-150224365D02*
X141752857Y-150224365D01*
X141752857Y-150224365D02*
X141695714Y-150195794D01*
X141695714Y-150195794D02*
X141667142Y-150138651D01*
X141667142Y-150138651D02*
X141667142Y-149910079D01*
X141667142Y-149910079D02*
X141695714Y-149852936D01*
X141695714Y-149852936D02*
X141752857Y-149824365D01*
X141752857Y-149824365D02*
X141867142Y-149824365D01*
X141867142Y-149824365D02*
X141924285Y-149852936D01*
X141924285Y-149852936D02*
X141952857Y-149910079D01*
X141952857Y-149910079D02*
X141952857Y-149967222D01*
X141952857Y-149967222D02*
X141667142Y-150024365D01*
X142124285Y-149824365D02*
X142352857Y-149824365D01*
X142210000Y-150224365D02*
X142210000Y-149710079D01*
X142210000Y-149710079D02*
X142238571Y-149652936D01*
X142238571Y-149652936D02*
X142295714Y-149624365D01*
X142295714Y-149624365D02*
X142352857Y-149624365D01*
X142467142Y-149824365D02*
X142695714Y-149824365D01*
X142552857Y-149624365D02*
X142552857Y-150138651D01*
X142552857Y-150138651D02*
X142581428Y-150195794D01*
X142581428Y-150195794D02*
X142638571Y-150224365D01*
X142638571Y-150224365D02*
X142695714Y-150224365D01*
X141167142Y-151018902D02*
X141452857Y-151018902D01*
X141109999Y-151190331D02*
X141309999Y-150590331D01*
X141309999Y-150590331D02*
X141509999Y-151190331D01*
X141710000Y-151190331D02*
X141710000Y-150590331D01*
X141710000Y-150590331D02*
X141852857Y-150590331D01*
X141852857Y-150590331D02*
X141938571Y-150618902D01*
X141938571Y-150618902D02*
X141995714Y-150676045D01*
X141995714Y-150676045D02*
X142024285Y-150733188D01*
X142024285Y-150733188D02*
X142052857Y-150847474D01*
X142052857Y-150847474D02*
X142052857Y-150933188D01*
X142052857Y-150933188D02*
X142024285Y-151047474D01*
X142024285Y-151047474D02*
X141995714Y-151104617D01*
X141995714Y-151104617D02*
X141938571Y-151161760D01*
X141938571Y-151161760D02*
X141852857Y-151190331D01*
X141852857Y-151190331D02*
X141710000Y-151190331D01*
X142652857Y-151133188D02*
X142624285Y-151161760D01*
X142624285Y-151161760D02*
X142538571Y-151190331D01*
X142538571Y-151190331D02*
X142481428Y-151190331D01*
X142481428Y-151190331D02*
X142395714Y-151161760D01*
X142395714Y-151161760D02*
X142338571Y-151104617D01*
X142338571Y-151104617D02*
X142310000Y-151047474D01*
X142310000Y-151047474D02*
X142281428Y-150933188D01*
X142281428Y-150933188D02*
X142281428Y-150847474D01*
X142281428Y-150847474D02*
X142310000Y-150733188D01*
X142310000Y-150733188D02*
X142338571Y-150676045D01*
X142338571Y-150676045D02*
X142395714Y-150618902D01*
X142395714Y-150618902D02*
X142481428Y-150590331D01*
X142481428Y-150590331D02*
X142538571Y-150590331D01*
X142538571Y-150590331D02*
X142624285Y-150618902D01*
X142624285Y-150618902D02*
X142652857Y-150647474D01*
D10*
X163980497Y-132026678D02*
X163980497Y-130526678D01*
X164837640Y-132026678D02*
X164194783Y-131169535D01*
X164837640Y-130526678D02*
X163980497Y-131383821D01*
D11*
X144217527Y-128597676D02*
X144217527Y-128864342D01*
X143798479Y-128978628D02*
X143798479Y-128597676D01*
X143798479Y-128597676D02*
X144598479Y-128597676D01*
X144598479Y-128597676D02*
X144598479Y-128978628D01*
X128367143Y-150224365D02*
X128367143Y-149624365D01*
X128367143Y-149624365D02*
X128510000Y-149624365D01*
X128510000Y-149624365D02*
X128595714Y-149652936D01*
X128595714Y-149652936D02*
X128652857Y-149710079D01*
X128652857Y-149710079D02*
X128681428Y-149767222D01*
X128681428Y-149767222D02*
X128710000Y-149881508D01*
X128710000Y-149881508D02*
X128710000Y-149967222D01*
X128710000Y-149967222D02*
X128681428Y-150081508D01*
X128681428Y-150081508D02*
X128652857Y-150138651D01*
X128652857Y-150138651D02*
X128595714Y-150195794D01*
X128595714Y-150195794D02*
X128510000Y-150224365D01*
X128510000Y-150224365D02*
X128367143Y-150224365D01*
X128967143Y-150224365D02*
X128967143Y-149824365D01*
X128967143Y-149624365D02*
X128938571Y-149652936D01*
X128938571Y-149652936D02*
X128967143Y-149681508D01*
X128967143Y-149681508D02*
X128995714Y-149652936D01*
X128995714Y-149652936D02*
X128967143Y-149624365D01*
X128967143Y-149624365D02*
X128967143Y-149681508D01*
X129510000Y-150224365D02*
X129510000Y-149910079D01*
X129510000Y-149910079D02*
X129481428Y-149852936D01*
X129481428Y-149852936D02*
X129424285Y-149824365D01*
X129424285Y-149824365D02*
X129310000Y-149824365D01*
X129310000Y-149824365D02*
X129252857Y-149852936D01*
X129510000Y-150195794D02*
X129452857Y-150224365D01*
X129452857Y-150224365D02*
X129310000Y-150224365D01*
X129310000Y-150224365D02*
X129252857Y-150195794D01*
X129252857Y-150195794D02*
X129224285Y-150138651D01*
X129224285Y-150138651D02*
X129224285Y-150081508D01*
X129224285Y-150081508D02*
X129252857Y-150024365D01*
X129252857Y-150024365D02*
X129310000Y-149995794D01*
X129310000Y-149995794D02*
X129452857Y-149995794D01*
X129452857Y-149995794D02*
X129510000Y-149967222D01*
X130052857Y-149824365D02*
X130052857Y-150310079D01*
X130052857Y-150310079D02*
X130024285Y-150367222D01*
X130024285Y-150367222D02*
X129995714Y-150395794D01*
X129995714Y-150395794D02*
X129938571Y-150424365D01*
X129938571Y-150424365D02*
X129852857Y-150424365D01*
X129852857Y-150424365D02*
X129795714Y-150395794D01*
X130052857Y-150195794D02*
X129995714Y-150224365D01*
X129995714Y-150224365D02*
X129881428Y-150224365D01*
X129881428Y-150224365D02*
X129824285Y-150195794D01*
X129824285Y-150195794D02*
X129795714Y-150167222D01*
X129795714Y-150167222D02*
X129767142Y-150110079D01*
X129767142Y-150110079D02*
X129767142Y-149938651D01*
X129767142Y-149938651D02*
X129795714Y-149881508D01*
X129795714Y-149881508D02*
X129824285Y-149852936D01*
X129824285Y-149852936D02*
X129881428Y-149824365D01*
X129881428Y-149824365D02*
X129995714Y-149824365D01*
X129995714Y-149824365D02*
X130052857Y-149852936D01*
X128824286Y-151190331D02*
X128538572Y-151190331D01*
X128538572Y-151190331D02*
X128538572Y-150590331D01*
X129024286Y-150876045D02*
X129224286Y-150876045D01*
X129310000Y-151190331D02*
X129024286Y-151190331D01*
X129024286Y-151190331D02*
X129024286Y-150590331D01*
X129024286Y-150590331D02*
X129310000Y-150590331D01*
X129567143Y-151190331D02*
X129567143Y-150590331D01*
X129567143Y-150590331D02*
X129710000Y-150590331D01*
X129710000Y-150590331D02*
X129795714Y-150618902D01*
X129795714Y-150618902D02*
X129852857Y-150676045D01*
X129852857Y-150676045D02*
X129881428Y-150733188D01*
X129881428Y-150733188D02*
X129910000Y-150847474D01*
X129910000Y-150847474D02*
X129910000Y-150933188D01*
X129910000Y-150933188D02*
X129881428Y-151047474D01*
X129881428Y-151047474D02*
X129852857Y-151104617D01*
X129852857Y-151104617D02*
X129795714Y-151161760D01*
X129795714Y-151161760D02*
X129710000Y-151190331D01*
X129710000Y-151190331D02*
X129567143Y-151190331D01*
X169545712Y-152411331D02*
X169688569Y-152811331D01*
X169688569Y-152811331D02*
X169831426Y-152411331D01*
X170031426Y-152268474D02*
X170059998Y-152239902D01*
X170059998Y-152239902D02*
X170117141Y-152211331D01*
X170117141Y-152211331D02*
X170259998Y-152211331D01*
X170259998Y-152211331D02*
X170317141Y-152239902D01*
X170317141Y-152239902D02*
X170345712Y-152268474D01*
X170345712Y-152268474D02*
X170374283Y-152325617D01*
X170374283Y-152325617D02*
X170374283Y-152382760D01*
X170374283Y-152382760D02*
X170345712Y-152468474D01*
X170345712Y-152468474D02*
X170002855Y-152811331D01*
X170002855Y-152811331D02*
X170374283Y-152811331D01*
X170631427Y-152754188D02*
X170659998Y-152782760D01*
X170659998Y-152782760D02*
X170631427Y-152811331D01*
X170631427Y-152811331D02*
X170602855Y-152782760D01*
X170602855Y-152782760D02*
X170631427Y-152754188D01*
X170631427Y-152754188D02*
X170631427Y-152811331D01*
X171031426Y-152211331D02*
X171088569Y-152211331D01*
X171088569Y-152211331D02*
X171145712Y-152239902D01*
X171145712Y-152239902D02*
X171174284Y-152268474D01*
X171174284Y-152268474D02*
X171202855Y-152325617D01*
X171202855Y-152325617D02*
X171231426Y-152439902D01*
X171231426Y-152439902D02*
X171231426Y-152582760D01*
X171231426Y-152582760D02*
X171202855Y-152697045D01*
X171202855Y-152697045D02*
X171174284Y-152754188D01*
X171174284Y-152754188D02*
X171145712Y-152782760D01*
X171145712Y-152782760D02*
X171088569Y-152811331D01*
X171088569Y-152811331D02*
X171031426Y-152811331D01*
X171031426Y-152811331D02*
X170974284Y-152782760D01*
X170974284Y-152782760D02*
X170945712Y-152754188D01*
X170945712Y-152754188D02*
X170917141Y-152697045D01*
X170917141Y-152697045D02*
X170888569Y-152582760D01*
X170888569Y-152582760D02*
X170888569Y-152439902D01*
X170888569Y-152439902D02*
X170917141Y-152325617D01*
X170917141Y-152325617D02*
X170945712Y-152268474D01*
X170945712Y-152268474D02*
X170974284Y-152239902D01*
X170974284Y-152239902D02*
X171031426Y-152211331D01*
X171917141Y-152268474D02*
X171945713Y-152239902D01*
X171945713Y-152239902D02*
X172002856Y-152211331D01*
X172002856Y-152211331D02*
X172145713Y-152211331D01*
X172145713Y-152211331D02*
X172202856Y-152239902D01*
X172202856Y-152239902D02*
X172231427Y-152268474D01*
X172231427Y-152268474D02*
X172259998Y-152325617D01*
X172259998Y-152325617D02*
X172259998Y-152382760D01*
X172259998Y-152382760D02*
X172231427Y-152468474D01*
X172231427Y-152468474D02*
X171888570Y-152811331D01*
X171888570Y-152811331D02*
X172259998Y-152811331D01*
X172631427Y-152211331D02*
X172688570Y-152211331D01*
X172688570Y-152211331D02*
X172745713Y-152239902D01*
X172745713Y-152239902D02*
X172774285Y-152268474D01*
X172774285Y-152268474D02*
X172802856Y-152325617D01*
X172802856Y-152325617D02*
X172831427Y-152439902D01*
X172831427Y-152439902D02*
X172831427Y-152582760D01*
X172831427Y-152582760D02*
X172802856Y-152697045D01*
X172802856Y-152697045D02*
X172774285Y-152754188D01*
X172774285Y-152754188D02*
X172745713Y-152782760D01*
X172745713Y-152782760D02*
X172688570Y-152811331D01*
X172688570Y-152811331D02*
X172631427Y-152811331D01*
X172631427Y-152811331D02*
X172574285Y-152782760D01*
X172574285Y-152782760D02*
X172545713Y-152754188D01*
X172545713Y-152754188D02*
X172517142Y-152697045D01*
X172517142Y-152697045D02*
X172488570Y-152582760D01*
X172488570Y-152582760D02*
X172488570Y-152439902D01*
X172488570Y-152439902D02*
X172517142Y-152325617D01*
X172517142Y-152325617D02*
X172545713Y-152268474D01*
X172545713Y-152268474D02*
X172574285Y-152239902D01*
X172574285Y-152239902D02*
X172631427Y-152211331D01*
X173059999Y-152268474D02*
X173088571Y-152239902D01*
X173088571Y-152239902D02*
X173145714Y-152211331D01*
X173145714Y-152211331D02*
X173288571Y-152211331D01*
X173288571Y-152211331D02*
X173345714Y-152239902D01*
X173345714Y-152239902D02*
X173374285Y-152268474D01*
X173374285Y-152268474D02*
X173402856Y-152325617D01*
X173402856Y-152325617D02*
X173402856Y-152382760D01*
X173402856Y-152382760D02*
X173374285Y-152468474D01*
X173374285Y-152468474D02*
X173031428Y-152811331D01*
X173031428Y-152811331D02*
X173402856Y-152811331D01*
X173945714Y-152211331D02*
X173660000Y-152211331D01*
X173660000Y-152211331D02*
X173631428Y-152497045D01*
X173631428Y-152497045D02*
X173660000Y-152468474D01*
X173660000Y-152468474D02*
X173717143Y-152439902D01*
X173717143Y-152439902D02*
X173860000Y-152439902D01*
X173860000Y-152439902D02*
X173917143Y-152468474D01*
X173917143Y-152468474D02*
X173945714Y-152497045D01*
X173945714Y-152497045D02*
X173974285Y-152554188D01*
X173974285Y-152554188D02*
X173974285Y-152697045D01*
X173974285Y-152697045D02*
X173945714Y-152754188D01*
X173945714Y-152754188D02*
X173917143Y-152782760D01*
X173917143Y-152782760D02*
X173860000Y-152811331D01*
X173860000Y-152811331D02*
X173717143Y-152811331D01*
X173717143Y-152811331D02*
X173660000Y-152782760D01*
X173660000Y-152782760D02*
X173631428Y-152754188D01*
X174231429Y-152582760D02*
X174688572Y-152582760D01*
X175088571Y-152211331D02*
X175145714Y-152211331D01*
X175145714Y-152211331D02*
X175202857Y-152239902D01*
X175202857Y-152239902D02*
X175231429Y-152268474D01*
X175231429Y-152268474D02*
X175260000Y-152325617D01*
X175260000Y-152325617D02*
X175288571Y-152439902D01*
X175288571Y-152439902D02*
X175288571Y-152582760D01*
X175288571Y-152582760D02*
X175260000Y-152697045D01*
X175260000Y-152697045D02*
X175231429Y-152754188D01*
X175231429Y-152754188D02*
X175202857Y-152782760D01*
X175202857Y-152782760D02*
X175145714Y-152811331D01*
X175145714Y-152811331D02*
X175088571Y-152811331D01*
X175088571Y-152811331D02*
X175031429Y-152782760D01*
X175031429Y-152782760D02*
X175002857Y-152754188D01*
X175002857Y-152754188D02*
X174974286Y-152697045D01*
X174974286Y-152697045D02*
X174945714Y-152582760D01*
X174945714Y-152582760D02*
X174945714Y-152439902D01*
X174945714Y-152439902D02*
X174974286Y-152325617D01*
X174974286Y-152325617D02*
X175002857Y-152268474D01*
X175002857Y-152268474D02*
X175031429Y-152239902D01*
X175031429Y-152239902D02*
X175088571Y-152211331D01*
X175488572Y-152211331D02*
X175888572Y-152211331D01*
X175888572Y-152211331D02*
X175631429Y-152811331D01*
X176117144Y-152582760D02*
X176574287Y-152582760D01*
X176974286Y-152211331D02*
X177031429Y-152211331D01*
X177031429Y-152211331D02*
X177088572Y-152239902D01*
X177088572Y-152239902D02*
X177117144Y-152268474D01*
X177117144Y-152268474D02*
X177145715Y-152325617D01*
X177145715Y-152325617D02*
X177174286Y-152439902D01*
X177174286Y-152439902D02*
X177174286Y-152582760D01*
X177174286Y-152582760D02*
X177145715Y-152697045D01*
X177145715Y-152697045D02*
X177117144Y-152754188D01*
X177117144Y-152754188D02*
X177088572Y-152782760D01*
X177088572Y-152782760D02*
X177031429Y-152811331D01*
X177031429Y-152811331D02*
X176974286Y-152811331D01*
X176974286Y-152811331D02*
X176917144Y-152782760D01*
X176917144Y-152782760D02*
X176888572Y-152754188D01*
X176888572Y-152754188D02*
X176860001Y-152697045D01*
X176860001Y-152697045D02*
X176831429Y-152582760D01*
X176831429Y-152582760D02*
X176831429Y-152439902D01*
X176831429Y-152439902D02*
X176860001Y-152325617D01*
X176860001Y-152325617D02*
X176888572Y-152268474D01*
X176888572Y-152268474D02*
X176917144Y-152239902D01*
X176917144Y-152239902D02*
X176974286Y-152211331D01*
X177374287Y-152211331D02*
X177774287Y-152211331D01*
X177774287Y-152211331D02*
X177517144Y-152811331D01*
D12*
X139380095Y-136577165D02*
X139113429Y-136577165D01*
X139113429Y-136996213D02*
X139113429Y-136196213D01*
X139113429Y-136196213D02*
X139494381Y-136196213D01*
X140180095Y-136996213D02*
X139799143Y-136996213D01*
X139799143Y-136996213D02*
X139799143Y-136196213D01*
X140446762Y-136577165D02*
X140713428Y-136577165D01*
X140827714Y-136996213D02*
X140446762Y-136996213D01*
X140446762Y-136996213D02*
X140446762Y-136196213D01*
X140446762Y-136196213D02*
X140827714Y-136196213D01*
X141170572Y-136996213D02*
X141170572Y-136196213D01*
X141170572Y-136196213D02*
X141361048Y-136196213D01*
X141361048Y-136196213D02*
X141475334Y-136234308D01*
X141475334Y-136234308D02*
X141551524Y-136310498D01*
X141551524Y-136310498D02*
X141589619Y-136386689D01*
X141589619Y-136386689D02*
X141627715Y-136539070D01*
X141627715Y-136539070D02*
X141627715Y-136653356D01*
X141627715Y-136653356D02*
X141589619Y-136805737D01*
X141589619Y-136805737D02*
X141551524Y-136881927D01*
X141551524Y-136881927D02*
X141475334Y-136958118D01*
X141475334Y-136958118D02*
X141361048Y-136996213D01*
X141361048Y-136996213D02*
X141170572Y-136996213D01*
X142389619Y-136996213D02*
X141932476Y-136996213D01*
X142161048Y-136996213D02*
X142161048Y-136196213D01*
X142161048Y-136196213D02*
X142084857Y-136310498D01*
X142084857Y-136310498D02*
X142008667Y-136386689D01*
X142008667Y-136386689D02*
X141932476Y-136424784D01*
D11*
X121421186Y-150138149D02*
X121040234Y-150138149D01*
X121040234Y-150138149D02*
X121002138Y-150519101D01*
X121002138Y-150519101D02*
X121040234Y-150481006D01*
X121040234Y-150481006D02*
X121116424Y-150442911D01*
X121116424Y-150442911D02*
X121306900Y-150442911D01*
X121306900Y-150442911D02*
X121383091Y-150481006D01*
X121383091Y-150481006D02*
X121421186Y-150519101D01*
X121421186Y-150519101D02*
X121459281Y-150595292D01*
X121459281Y-150595292D02*
X121459281Y-150785768D01*
X121459281Y-150785768D02*
X121421186Y-150861958D01*
X121421186Y-150861958D02*
X121383091Y-150900054D01*
X121383091Y-150900054D02*
X121306900Y-150938149D01*
X121306900Y-150938149D02*
X121116424Y-150938149D01*
X121116424Y-150938149D02*
X121040234Y-150900054D01*
X121040234Y-150900054D02*
X121002138Y-150861958D01*
X121687853Y-150138149D02*
X121954520Y-150938149D01*
X121954520Y-150938149D02*
X122221186Y-150138149D01*
D12*
X129904050Y-139981294D02*
X129427859Y-140314627D01*
X129904050Y-140552722D02*
X128904050Y-140552722D01*
X128904050Y-140552722D02*
X128904050Y-140171770D01*
X128904050Y-140171770D02*
X128951669Y-140076532D01*
X128951669Y-140076532D02*
X128999288Y-140028913D01*
X128999288Y-140028913D02*
X129094526Y-139981294D01*
X129094526Y-139981294D02*
X129237383Y-139981294D01*
X129237383Y-139981294D02*
X129332621Y-140028913D01*
X129332621Y-140028913D02*
X129380240Y-140076532D01*
X129380240Y-140076532D02*
X129427859Y-140171770D01*
X129427859Y-140171770D02*
X129427859Y-140552722D01*
X129237383Y-139124151D02*
X129904050Y-139124151D01*
X128856431Y-139362246D02*
X129570716Y-139600341D01*
X129570716Y-139600341D02*
X129570716Y-138981294D01*
D10*
X174140497Y-135836678D02*
X174140497Y-134336678D01*
X174997640Y-135836678D02*
X174354783Y-134979535D01*
X174997640Y-134336678D02*
X174140497Y-135193821D01*
D11*
X137012400Y-129594721D02*
X137050495Y-129480435D01*
X137050495Y-129480435D02*
X137088591Y-129442340D01*
X137088591Y-129442340D02*
X137164781Y-129404244D01*
X137164781Y-129404244D02*
X137279067Y-129404244D01*
X137279067Y-129404244D02*
X137355257Y-129442340D01*
X137355257Y-129442340D02*
X137393353Y-129480435D01*
X137393353Y-129480435D02*
X137431448Y-129556625D01*
X137431448Y-129556625D02*
X137431448Y-129861387D01*
X137431448Y-129861387D02*
X136631448Y-129861387D01*
X136631448Y-129861387D02*
X136631448Y-129594721D01*
X136631448Y-129594721D02*
X136669543Y-129518530D01*
X136669543Y-129518530D02*
X136707638Y-129480435D01*
X136707638Y-129480435D02*
X136783829Y-129442340D01*
X136783829Y-129442340D02*
X136860019Y-129442340D01*
X136860019Y-129442340D02*
X136936210Y-129480435D01*
X136936210Y-129480435D02*
X136974305Y-129518530D01*
X136974305Y-129518530D02*
X137012400Y-129594721D01*
X137012400Y-129594721D02*
X137012400Y-129861387D01*
D13*
X167850476Y-151055552D02*
X168040952Y-151722219D01*
X168040952Y-151722219D02*
X168231428Y-151246028D01*
X168231428Y-151246028D02*
X168421904Y-151722219D01*
X168421904Y-151722219D02*
X168612380Y-151055552D01*
X168898095Y-151055552D02*
X169088571Y-151722219D01*
X169088571Y-151722219D02*
X169279047Y-151246028D01*
X169279047Y-151246028D02*
X169469523Y-151722219D01*
X169469523Y-151722219D02*
X169659999Y-151055552D01*
X169945714Y-151055552D02*
X170136190Y-151722219D01*
X170136190Y-151722219D02*
X170326666Y-151246028D01*
X170326666Y-151246028D02*
X170517142Y-151722219D01*
X170517142Y-151722219D02*
X170707618Y-151055552D01*
X171088571Y-151626980D02*
X171136190Y-151674600D01*
X171136190Y-151674600D02*
X171088571Y-151722219D01*
X171088571Y-151722219D02*
X171040952Y-151674600D01*
X171040952Y-151674600D02*
X171088571Y-151626980D01*
X171088571Y-151626980D02*
X171088571Y-151722219D01*
X171993332Y-151055552D02*
X171993332Y-151722219D01*
X171564761Y-151055552D02*
X171564761Y-151579361D01*
X171564761Y-151579361D02*
X171612380Y-151674600D01*
X171612380Y-151674600D02*
X171707618Y-151722219D01*
X171707618Y-151722219D02*
X171850475Y-151722219D01*
X171850475Y-151722219D02*
X171945713Y-151674600D01*
X171945713Y-151674600D02*
X171993332Y-151626980D01*
X172469523Y-151722219D02*
X172469523Y-150722219D01*
X172564761Y-151341266D02*
X172850475Y-151722219D01*
X172850475Y-151055552D02*
X172469523Y-151436504D01*
X173279047Y-151722219D02*
X173279047Y-151055552D01*
X173279047Y-151150790D02*
X173326666Y-151103171D01*
X173326666Y-151103171D02*
X173421904Y-151055552D01*
X173421904Y-151055552D02*
X173564761Y-151055552D01*
X173564761Y-151055552D02*
X173659999Y-151103171D01*
X173659999Y-151103171D02*
X173707618Y-151198409D01*
X173707618Y-151198409D02*
X173707618Y-151722219D01*
X173707618Y-151198409D02*
X173755237Y-151103171D01*
X173755237Y-151103171D02*
X173850475Y-151055552D01*
X173850475Y-151055552D02*
X173993332Y-151055552D01*
X173993332Y-151055552D02*
X174088571Y-151103171D01*
X174088571Y-151103171D02*
X174136190Y-151198409D01*
X174136190Y-151198409D02*
X174136190Y-151722219D01*
X175040951Y-151722219D02*
X175040951Y-151198409D01*
X175040951Y-151198409D02*
X174993332Y-151103171D01*
X174993332Y-151103171D02*
X174898094Y-151055552D01*
X174898094Y-151055552D02*
X174707618Y-151055552D01*
X174707618Y-151055552D02*
X174612380Y-151103171D01*
X175040951Y-151674600D02*
X174945713Y-151722219D01*
X174945713Y-151722219D02*
X174707618Y-151722219D01*
X174707618Y-151722219D02*
X174612380Y-151674600D01*
X174612380Y-151674600D02*
X174564761Y-151579361D01*
X174564761Y-151579361D02*
X174564761Y-151484123D01*
X174564761Y-151484123D02*
X174612380Y-151388885D01*
X174612380Y-151388885D02*
X174707618Y-151341266D01*
X174707618Y-151341266D02*
X174945713Y-151341266D01*
X174945713Y-151341266D02*
X175040951Y-151293647D01*
X175517142Y-151722219D02*
X175517142Y-151055552D01*
X175517142Y-151246028D02*
X175564761Y-151150790D01*
X175564761Y-151150790D02*
X175612380Y-151103171D01*
X175612380Y-151103171D02*
X175707618Y-151055552D01*
X175707618Y-151055552D02*
X175802856Y-151055552D01*
X176088571Y-151674600D02*
X176183809Y-151722219D01*
X176183809Y-151722219D02*
X176374285Y-151722219D01*
X176374285Y-151722219D02*
X176469523Y-151674600D01*
X176469523Y-151674600D02*
X176517142Y-151579361D01*
X176517142Y-151579361D02*
X176517142Y-151531742D01*
X176517142Y-151531742D02*
X176469523Y-151436504D01*
X176469523Y-151436504D02*
X176374285Y-151388885D01*
X176374285Y-151388885D02*
X176231428Y-151388885D01*
X176231428Y-151388885D02*
X176136190Y-151341266D01*
X176136190Y-151341266D02*
X176088571Y-151246028D01*
X176088571Y-151246028D02*
X176088571Y-151198409D01*
X176088571Y-151198409D02*
X176136190Y-151103171D01*
X176136190Y-151103171D02*
X176231428Y-151055552D01*
X176231428Y-151055552D02*
X176374285Y-151055552D01*
X176374285Y-151055552D02*
X176469523Y-151103171D01*
X176945714Y-151626980D02*
X176993333Y-151674600D01*
X176993333Y-151674600D02*
X176945714Y-151722219D01*
X176945714Y-151722219D02*
X176898095Y-151674600D01*
X176898095Y-151674600D02*
X176945714Y-151626980D01*
X176945714Y-151626980D02*
X176945714Y-151722219D01*
X177564761Y-151722219D02*
X177469523Y-151674600D01*
X177469523Y-151674600D02*
X177421904Y-151626980D01*
X177421904Y-151626980D02*
X177374285Y-151531742D01*
X177374285Y-151531742D02*
X177374285Y-151246028D01*
X177374285Y-151246028D02*
X177421904Y-151150790D01*
X177421904Y-151150790D02*
X177469523Y-151103171D01*
X177469523Y-151103171D02*
X177564761Y-151055552D01*
X177564761Y-151055552D02*
X177707618Y-151055552D01*
X177707618Y-151055552D02*
X177802856Y-151103171D01*
X177802856Y-151103171D02*
X177850475Y-151150790D01*
X177850475Y-151150790D02*
X177898094Y-151246028D01*
X177898094Y-151246028D02*
X177898094Y-151531742D01*
X177898094Y-151531742D02*
X177850475Y-151626980D01*
X177850475Y-151626980D02*
X177802856Y-151674600D01*
X177802856Y-151674600D02*
X177707618Y-151722219D01*
X177707618Y-151722219D02*
X177564761Y-151722219D01*
X178326666Y-151722219D02*
X178326666Y-151055552D01*
X178326666Y-151246028D02*
X178374285Y-151150790D01*
X178374285Y-151150790D02*
X178421904Y-151103171D01*
X178421904Y-151103171D02*
X178517142Y-151055552D01*
X178517142Y-151055552D02*
X178612380Y-151055552D01*
X179374285Y-151055552D02*
X179374285Y-151865076D01*
X179374285Y-151865076D02*
X179326666Y-151960314D01*
X179326666Y-151960314D02*
X179279047Y-152007933D01*
X179279047Y-152007933D02*
X179183809Y-152055552D01*
X179183809Y-152055552D02*
X179040952Y-152055552D01*
X179040952Y-152055552D02*
X178945714Y-152007933D01*
X179374285Y-151674600D02*
X179279047Y-151722219D01*
X179279047Y-151722219D02*
X179088571Y-151722219D01*
X179088571Y-151722219D02*
X178993333Y-151674600D01*
X178993333Y-151674600D02*
X178945714Y-151626980D01*
X178945714Y-151626980D02*
X178898095Y-151531742D01*
X178898095Y-151531742D02*
X178898095Y-151246028D01*
X178898095Y-151246028D02*
X178945714Y-151150790D01*
X178945714Y-151150790D02*
X178993333Y-151103171D01*
X178993333Y-151103171D02*
X179088571Y-151055552D01*
X179088571Y-151055552D02*
X179279047Y-151055552D01*
X179279047Y-151055552D02*
X179374285Y-151103171D01*
D10*
X166449069Y-136678107D02*
X167163355Y-136678107D01*
X166306212Y-137106678D02*
X166806212Y-135606678D01*
X166806212Y-135606678D02*
X167306212Y-137106678D01*
X137836855Y-136245690D02*
X138551141Y-136245690D01*
X137693998Y-136674261D02*
X138193998Y-135174261D01*
X138193998Y-135174261D02*
X138693998Y-136674261D01*
D11*
X143774528Y-134162068D02*
X143736433Y-134123972D01*
X143736433Y-134123972D02*
X143698337Y-134009687D01*
X143698337Y-134009687D02*
X143698337Y-133933496D01*
X143698337Y-133933496D02*
X143736433Y-133819210D01*
X143736433Y-133819210D02*
X143812623Y-133743020D01*
X143812623Y-133743020D02*
X143888813Y-133704925D01*
X143888813Y-133704925D02*
X144041194Y-133666829D01*
X144041194Y-133666829D02*
X144155480Y-133666829D01*
X144155480Y-133666829D02*
X144307861Y-133704925D01*
X144307861Y-133704925D02*
X144384052Y-133743020D01*
X144384052Y-133743020D02*
X144460242Y-133819210D01*
X144460242Y-133819210D02*
X144498337Y-133933496D01*
X144498337Y-133933496D02*
X144498337Y-134009687D01*
X144498337Y-134009687D02*
X144460242Y-134123972D01*
X144460242Y-134123972D02*
X144422147Y-134162068D01*
D10*
X154541712Y-133873472D02*
X155690779Y-132909290D01*
X155092673Y-134530081D02*
X155336062Y-133486663D01*
X156241740Y-133565900D02*
X155034170Y-133460251D01*
D11*
X133875714Y-150224365D02*
X133590000Y-150224365D01*
X133590000Y-150224365D02*
X133590000Y-149624365D01*
X134304285Y-150195794D02*
X134247142Y-150224365D01*
X134247142Y-150224365D02*
X134132857Y-150224365D01*
X134132857Y-150224365D02*
X134075714Y-150195794D01*
X134075714Y-150195794D02*
X134047142Y-150138651D01*
X134047142Y-150138651D02*
X134047142Y-149910079D01*
X134047142Y-149910079D02*
X134075714Y-149852936D01*
X134075714Y-149852936D02*
X134132857Y-149824365D01*
X134132857Y-149824365D02*
X134247142Y-149824365D01*
X134247142Y-149824365D02*
X134304285Y-149852936D01*
X134304285Y-149852936D02*
X134332857Y-149910079D01*
X134332857Y-149910079D02*
X134332857Y-149967222D01*
X134332857Y-149967222D02*
X134047142Y-150024365D01*
X134504285Y-149824365D02*
X134732857Y-149824365D01*
X134590000Y-150224365D02*
X134590000Y-149710079D01*
X134590000Y-149710079D02*
X134618571Y-149652936D01*
X134618571Y-149652936D02*
X134675714Y-149624365D01*
X134675714Y-149624365D02*
X134732857Y-149624365D01*
X134847142Y-149824365D02*
X135075714Y-149824365D01*
X134932857Y-149624365D02*
X134932857Y-150138651D01*
X134932857Y-150138651D02*
X134961428Y-150195794D01*
X134961428Y-150195794D02*
X135018571Y-150224365D01*
X135018571Y-150224365D02*
X135075714Y-150224365D01*
X133904286Y-151190331D02*
X133618572Y-151190331D01*
X133618572Y-151190331D02*
X133618572Y-150590331D01*
X134104286Y-150876045D02*
X134304286Y-150876045D01*
X134390000Y-151190331D02*
X134104286Y-151190331D01*
X134104286Y-151190331D02*
X134104286Y-150590331D01*
X134104286Y-150590331D02*
X134390000Y-150590331D01*
X134647143Y-151190331D02*
X134647143Y-150590331D01*
X134647143Y-150590331D02*
X134790000Y-150590331D01*
X134790000Y-150590331D02*
X134875714Y-150618902D01*
X134875714Y-150618902D02*
X134932857Y-150676045D01*
X134932857Y-150676045D02*
X134961428Y-150733188D01*
X134961428Y-150733188D02*
X134990000Y-150847474D01*
X134990000Y-150847474D02*
X134990000Y-150933188D01*
X134990000Y-150933188D02*
X134961428Y-151047474D01*
X134961428Y-151047474D02*
X134932857Y-151104617D01*
X134932857Y-151104617D02*
X134875714Y-151161760D01*
X134875714Y-151161760D02*
X134790000Y-151190331D01*
X134790000Y-151190331D02*
X134647143Y-151190331D01*
X136215715Y-150224365D02*
X136215715Y-149624365D01*
X136215715Y-149624365D02*
X136415715Y-150052936D01*
X136415715Y-150052936D02*
X136615715Y-149624365D01*
X136615715Y-149624365D02*
X136615715Y-150224365D01*
X136901429Y-150224365D02*
X136901429Y-149824365D01*
X136901429Y-149624365D02*
X136872857Y-149652936D01*
X136872857Y-149652936D02*
X136901429Y-149681508D01*
X136901429Y-149681508D02*
X136930000Y-149652936D01*
X136930000Y-149652936D02*
X136901429Y-149624365D01*
X136901429Y-149624365D02*
X136901429Y-149681508D01*
X137444286Y-150224365D02*
X137444286Y-149624365D01*
X137444286Y-150195794D02*
X137387143Y-150224365D01*
X137387143Y-150224365D02*
X137272857Y-150224365D01*
X137272857Y-150224365D02*
X137215714Y-150195794D01*
X137215714Y-150195794D02*
X137187143Y-150167222D01*
X137187143Y-150167222D02*
X137158571Y-150110079D01*
X137158571Y-150110079D02*
X137158571Y-149938651D01*
X137158571Y-149938651D02*
X137187143Y-149881508D01*
X137187143Y-149881508D02*
X137215714Y-149852936D01*
X137215714Y-149852936D02*
X137272857Y-149824365D01*
X137272857Y-149824365D02*
X137387143Y-149824365D01*
X137387143Y-149824365D02*
X137444286Y-149852936D01*
X136444286Y-151190331D02*
X136158572Y-151190331D01*
X136158572Y-151190331D02*
X136158572Y-150590331D01*
X136644286Y-150876045D02*
X136844286Y-150876045D01*
X136930000Y-151190331D02*
X136644286Y-151190331D01*
X136644286Y-151190331D02*
X136644286Y-150590331D01*
X136644286Y-150590331D02*
X136930000Y-150590331D01*
X137187143Y-151190331D02*
X137187143Y-150590331D01*
X137187143Y-150590331D02*
X137330000Y-150590331D01*
X137330000Y-150590331D02*
X137415714Y-150618902D01*
X137415714Y-150618902D02*
X137472857Y-150676045D01*
X137472857Y-150676045D02*
X137501428Y-150733188D01*
X137501428Y-150733188D02*
X137530000Y-150847474D01*
X137530000Y-150847474D02*
X137530000Y-150933188D01*
X137530000Y-150933188D02*
X137501428Y-151047474D01*
X137501428Y-151047474D02*
X137472857Y-151104617D01*
X137472857Y-151104617D02*
X137415714Y-151161760D01*
X137415714Y-151161760D02*
X137330000Y-151190331D01*
X137330000Y-151190331D02*
X137187143Y-151190331D01*
X125832913Y-150038007D02*
X126099580Y-150838007D01*
X126099580Y-150838007D02*
X126366246Y-150038007D01*
X126975770Y-150799912D02*
X126899579Y-150838007D01*
X126899579Y-150838007D02*
X126747198Y-150838007D01*
X126747198Y-150838007D02*
X126671008Y-150799912D01*
X126671008Y-150799912D02*
X126632913Y-150761816D01*
X126632913Y-150761816D02*
X126594817Y-150685626D01*
X126594817Y-150685626D02*
X126594817Y-150457054D01*
X126594817Y-150457054D02*
X126632913Y-150380864D01*
X126632913Y-150380864D02*
X126671008Y-150342769D01*
X126671008Y-150342769D02*
X126747198Y-150304673D01*
X126747198Y-150304673D02*
X126899579Y-150304673D01*
X126899579Y-150304673D02*
X126975770Y-150342769D01*
X127661484Y-150799912D02*
X127585293Y-150838007D01*
X127585293Y-150838007D02*
X127432912Y-150838007D01*
X127432912Y-150838007D02*
X127356722Y-150799912D01*
X127356722Y-150799912D02*
X127318627Y-150761816D01*
X127318627Y-150761816D02*
X127280531Y-150685626D01*
X127280531Y-150685626D02*
X127280531Y-150457054D01*
X127280531Y-150457054D02*
X127318627Y-150380864D01*
X127318627Y-150380864D02*
X127356722Y-150342769D01*
X127356722Y-150342769D02*
X127432912Y-150304673D01*
X127432912Y-150304673D02*
X127585293Y-150304673D01*
X127585293Y-150304673D02*
X127661484Y-150342769D01*
X138698572Y-150224365D02*
X138498572Y-149938651D01*
X138355715Y-150224365D02*
X138355715Y-149624365D01*
X138355715Y-149624365D02*
X138584286Y-149624365D01*
X138584286Y-149624365D02*
X138641429Y-149652936D01*
X138641429Y-149652936D02*
X138670000Y-149681508D01*
X138670000Y-149681508D02*
X138698572Y-149738651D01*
X138698572Y-149738651D02*
X138698572Y-149824365D01*
X138698572Y-149824365D02*
X138670000Y-149881508D01*
X138670000Y-149881508D02*
X138641429Y-149910079D01*
X138641429Y-149910079D02*
X138584286Y-149938651D01*
X138584286Y-149938651D02*
X138355715Y-149938651D01*
X138955715Y-150224365D02*
X138955715Y-149824365D01*
X138955715Y-149624365D02*
X138927143Y-149652936D01*
X138927143Y-149652936D02*
X138955715Y-149681508D01*
X138955715Y-149681508D02*
X138984286Y-149652936D01*
X138984286Y-149652936D02*
X138955715Y-149624365D01*
X138955715Y-149624365D02*
X138955715Y-149681508D01*
X139498572Y-149824365D02*
X139498572Y-150310079D01*
X139498572Y-150310079D02*
X139470000Y-150367222D01*
X139470000Y-150367222D02*
X139441429Y-150395794D01*
X139441429Y-150395794D02*
X139384286Y-150424365D01*
X139384286Y-150424365D02*
X139298572Y-150424365D01*
X139298572Y-150424365D02*
X139241429Y-150395794D01*
X139498572Y-150195794D02*
X139441429Y-150224365D01*
X139441429Y-150224365D02*
X139327143Y-150224365D01*
X139327143Y-150224365D02*
X139270000Y-150195794D01*
X139270000Y-150195794D02*
X139241429Y-150167222D01*
X139241429Y-150167222D02*
X139212857Y-150110079D01*
X139212857Y-150110079D02*
X139212857Y-149938651D01*
X139212857Y-149938651D02*
X139241429Y-149881508D01*
X139241429Y-149881508D02*
X139270000Y-149852936D01*
X139270000Y-149852936D02*
X139327143Y-149824365D01*
X139327143Y-149824365D02*
X139441429Y-149824365D01*
X139441429Y-149824365D02*
X139498572Y-149852936D01*
X139784286Y-150224365D02*
X139784286Y-149624365D01*
X140041429Y-150224365D02*
X140041429Y-149910079D01*
X140041429Y-149910079D02*
X140012857Y-149852936D01*
X140012857Y-149852936D02*
X139955714Y-149824365D01*
X139955714Y-149824365D02*
X139870000Y-149824365D01*
X139870000Y-149824365D02*
X139812857Y-149852936D01*
X139812857Y-149852936D02*
X139784286Y-149881508D01*
X140241428Y-149824365D02*
X140470000Y-149824365D01*
X140327143Y-149624365D02*
X140327143Y-150138651D01*
X140327143Y-150138651D02*
X140355714Y-150195794D01*
X140355714Y-150195794D02*
X140412857Y-150224365D01*
X140412857Y-150224365D02*
X140470000Y-150224365D01*
X138984286Y-151190331D02*
X138698572Y-151190331D01*
X138698572Y-151190331D02*
X138698572Y-150590331D01*
X139184286Y-150876045D02*
X139384286Y-150876045D01*
X139470000Y-151190331D02*
X139184286Y-151190331D01*
X139184286Y-151190331D02*
X139184286Y-150590331D01*
X139184286Y-150590331D02*
X139470000Y-150590331D01*
X139727143Y-151190331D02*
X139727143Y-150590331D01*
X139727143Y-150590331D02*
X139870000Y-150590331D01*
X139870000Y-150590331D02*
X139955714Y-150618902D01*
X139955714Y-150618902D02*
X140012857Y-150676045D01*
X140012857Y-150676045D02*
X140041428Y-150733188D01*
X140041428Y-150733188D02*
X140070000Y-150847474D01*
X140070000Y-150847474D02*
X140070000Y-150933188D01*
X140070000Y-150933188D02*
X140041428Y-151047474D01*
X140041428Y-151047474D02*
X140012857Y-151104617D01*
X140012857Y-151104617D02*
X139955714Y-151161760D01*
X139955714Y-151161760D02*
X139870000Y-151190331D01*
X139870000Y-151190331D02*
X139727143Y-151190331D01*
D14*
X124890000Y-123778328D02*
X124890000Y-124992614D01*
X124890000Y-124992614D02*
X124961429Y-125135471D01*
X124961429Y-125135471D02*
X125032858Y-125206900D01*
X125032858Y-125206900D02*
X125175715Y-125278328D01*
X125175715Y-125278328D02*
X125461429Y-125278328D01*
X125461429Y-125278328D02*
X125604286Y-125206900D01*
X125604286Y-125206900D02*
X125675715Y-125135471D01*
X125675715Y-125135471D02*
X125747143Y-124992614D01*
X125747143Y-124992614D02*
X125747143Y-123778328D01*
X126461429Y-125278328D02*
X126461429Y-123778328D01*
X127318572Y-125278328D02*
X126675715Y-124421185D01*
X127318572Y-123778328D02*
X126461429Y-124635471D01*
X127961429Y-125278328D02*
X127961429Y-123778328D01*
X127961429Y-123778328D02*
X128461429Y-124849757D01*
X128461429Y-124849757D02*
X128961429Y-123778328D01*
X128961429Y-123778328D02*
X128961429Y-125278328D01*
X129604287Y-124849757D02*
X130318573Y-124849757D01*
X129461430Y-125278328D02*
X129961430Y-123778328D01*
X129961430Y-123778328D02*
X130461430Y-125278328D01*
X131818572Y-125278328D02*
X131318572Y-124564042D01*
X130961429Y-125278328D02*
X130961429Y-123778328D01*
X130961429Y-123778328D02*
X131532858Y-123778328D01*
X131532858Y-123778328D02*
X131675715Y-123849757D01*
X131675715Y-123849757D02*
X131747144Y-123921185D01*
X131747144Y-123921185D02*
X131818572Y-124064042D01*
X131818572Y-124064042D02*
X131818572Y-124278328D01*
X131818572Y-124278328D02*
X131747144Y-124421185D01*
X131747144Y-124421185D02*
X131675715Y-124492614D01*
X131675715Y-124492614D02*
X131532858Y-124564042D01*
X131532858Y-124564042D02*
X130961429Y-124564042D01*
X132390001Y-125206900D02*
X132604287Y-125278328D01*
X132604287Y-125278328D02*
X132961429Y-125278328D01*
X132961429Y-125278328D02*
X133104287Y-125206900D01*
X133104287Y-125206900D02*
X133175715Y-125135471D01*
X133175715Y-125135471D02*
X133247144Y-124992614D01*
X133247144Y-124992614D02*
X133247144Y-124849757D01*
X133247144Y-124849757D02*
X133175715Y-124706900D01*
X133175715Y-124706900D02*
X133104287Y-124635471D01*
X133104287Y-124635471D02*
X132961429Y-124564042D01*
X132961429Y-124564042D02*
X132675715Y-124492614D01*
X132675715Y-124492614D02*
X132532858Y-124421185D01*
X132532858Y-124421185D02*
X132461429Y-124349757D01*
X132461429Y-124349757D02*
X132390001Y-124206900D01*
X132390001Y-124206900D02*
X132390001Y-124064042D01*
X132390001Y-124064042D02*
X132461429Y-123921185D01*
X132461429Y-123921185D02*
X132532858Y-123849757D01*
X132532858Y-123849757D02*
X132675715Y-123778328D01*
X132675715Y-123778328D02*
X133032858Y-123778328D01*
X133032858Y-123778328D02*
X133247144Y-123849757D01*
X135818572Y-123849757D02*
X135675715Y-123778328D01*
X135675715Y-123778328D02*
X135461429Y-123778328D01*
X135461429Y-123778328D02*
X135247143Y-123849757D01*
X135247143Y-123849757D02*
X135104286Y-123992614D01*
X135104286Y-123992614D02*
X135032857Y-124135471D01*
X135032857Y-124135471D02*
X134961429Y-124421185D01*
X134961429Y-124421185D02*
X134961429Y-124635471D01*
X134961429Y-124635471D02*
X135032857Y-124921185D01*
X135032857Y-124921185D02*
X135104286Y-125064042D01*
X135104286Y-125064042D02*
X135247143Y-125206900D01*
X135247143Y-125206900D02*
X135461429Y-125278328D01*
X135461429Y-125278328D02*
X135604286Y-125278328D01*
X135604286Y-125278328D02*
X135818572Y-125206900D01*
X135818572Y-125206900D02*
X135890000Y-125135471D01*
X135890000Y-125135471D02*
X135890000Y-124635471D01*
X135890000Y-124635471D02*
X135604286Y-124635471D01*
X137104286Y-125206900D02*
X136961429Y-125278328D01*
X136961429Y-125278328D02*
X136675715Y-125278328D01*
X136675715Y-125278328D02*
X136532857Y-125206900D01*
X136532857Y-125206900D02*
X136461429Y-125064042D01*
X136461429Y-125064042D02*
X136461429Y-124492614D01*
X136461429Y-124492614D02*
X136532857Y-124349757D01*
X136532857Y-124349757D02*
X136675715Y-124278328D01*
X136675715Y-124278328D02*
X136961429Y-124278328D01*
X136961429Y-124278328D02*
X137104286Y-124349757D01*
X137104286Y-124349757D02*
X137175715Y-124492614D01*
X137175715Y-124492614D02*
X137175715Y-124635471D01*
X137175715Y-124635471D02*
X136461429Y-124778328D01*
X137818571Y-125278328D02*
X137818571Y-124278328D01*
X137818571Y-124421185D02*
X137890000Y-124349757D01*
X137890000Y-124349757D02*
X138032857Y-124278328D01*
X138032857Y-124278328D02*
X138247143Y-124278328D01*
X138247143Y-124278328D02*
X138390000Y-124349757D01*
X138390000Y-124349757D02*
X138461429Y-124492614D01*
X138461429Y-124492614D02*
X138461429Y-125278328D01*
X138461429Y-124492614D02*
X138532857Y-124349757D01*
X138532857Y-124349757D02*
X138675714Y-124278328D01*
X138675714Y-124278328D02*
X138890000Y-124278328D01*
X138890000Y-124278328D02*
X139032857Y-124349757D01*
X139032857Y-124349757D02*
X139104286Y-124492614D01*
X139104286Y-124492614D02*
X139104286Y-125278328D01*
X139818571Y-125278328D02*
X139818571Y-124278328D01*
X139818571Y-123778328D02*
X139747143Y-123849757D01*
X139747143Y-123849757D02*
X139818571Y-123921185D01*
X139818571Y-123921185D02*
X139890000Y-123849757D01*
X139890000Y-123849757D02*
X139818571Y-123778328D01*
X139818571Y-123778328D02*
X139818571Y-123921185D01*
X140532857Y-124278328D02*
X140532857Y-125278328D01*
X140532857Y-124421185D02*
X140604286Y-124349757D01*
X140604286Y-124349757D02*
X140747143Y-124278328D01*
X140747143Y-124278328D02*
X140961429Y-124278328D01*
X140961429Y-124278328D02*
X141104286Y-124349757D01*
X141104286Y-124349757D02*
X141175715Y-124492614D01*
X141175715Y-124492614D02*
X141175715Y-125278328D01*
X141890000Y-125278328D02*
X141890000Y-124278328D01*
X141890000Y-123778328D02*
X141818572Y-123849757D01*
X141818572Y-123849757D02*
X141890000Y-123921185D01*
X141890000Y-123921185D02*
X141961429Y-123849757D01*
X141961429Y-123849757D02*
X141890000Y-123778328D01*
X141890000Y-123778328D02*
X141890000Y-123921185D01*
X143604286Y-123778328D02*
X143961429Y-125278328D01*
X143961429Y-125278328D02*
X144247143Y-124206900D01*
X144247143Y-124206900D02*
X144532858Y-125278328D01*
X144532858Y-125278328D02*
X144890001Y-123778328D01*
X146104287Y-125278328D02*
X146104287Y-124492614D01*
X146104287Y-124492614D02*
X146032858Y-124349757D01*
X146032858Y-124349757D02*
X145890001Y-124278328D01*
X145890001Y-124278328D02*
X145604287Y-124278328D01*
X145604287Y-124278328D02*
X145461429Y-124349757D01*
X146104287Y-125206900D02*
X145961429Y-125278328D01*
X145961429Y-125278328D02*
X145604287Y-125278328D01*
X145604287Y-125278328D02*
X145461429Y-125206900D01*
X145461429Y-125206900D02*
X145390001Y-125064042D01*
X145390001Y-125064042D02*
X145390001Y-124921185D01*
X145390001Y-124921185D02*
X145461429Y-124778328D01*
X145461429Y-124778328D02*
X145604287Y-124706900D01*
X145604287Y-124706900D02*
X145961429Y-124706900D01*
X145961429Y-124706900D02*
X146104287Y-124635471D01*
X147032858Y-125278328D02*
X146890001Y-125206900D01*
X146890001Y-125206900D02*
X146818572Y-125064042D01*
X146818572Y-125064042D02*
X146818572Y-123778328D01*
X147818572Y-125278328D02*
X147675715Y-125206900D01*
X147675715Y-125206900D02*
X147604286Y-125064042D01*
X147604286Y-125064042D02*
X147604286Y-123778328D01*
X149461429Y-125206900D02*
X149675715Y-125278328D01*
X149675715Y-125278328D02*
X150032857Y-125278328D01*
X150032857Y-125278328D02*
X150175715Y-125206900D01*
X150175715Y-125206900D02*
X150247143Y-125135471D01*
X150247143Y-125135471D02*
X150318572Y-124992614D01*
X150318572Y-124992614D02*
X150318572Y-124849757D01*
X150318572Y-124849757D02*
X150247143Y-124706900D01*
X150247143Y-124706900D02*
X150175715Y-124635471D01*
X150175715Y-124635471D02*
X150032857Y-124564042D01*
X150032857Y-124564042D02*
X149747143Y-124492614D01*
X149747143Y-124492614D02*
X149604286Y-124421185D01*
X149604286Y-124421185D02*
X149532857Y-124349757D01*
X149532857Y-124349757D02*
X149461429Y-124206900D01*
X149461429Y-124206900D02*
X149461429Y-124064042D01*
X149461429Y-124064042D02*
X149532857Y-123921185D01*
X149532857Y-123921185D02*
X149604286Y-123849757D01*
X149604286Y-123849757D02*
X149747143Y-123778328D01*
X149747143Y-123778328D02*
X150104286Y-123778328D01*
X150104286Y-123778328D02*
X150318572Y-123849757D01*
X151532857Y-125206900D02*
X151390000Y-125278328D01*
X151390000Y-125278328D02*
X151104286Y-125278328D01*
X151104286Y-125278328D02*
X150961428Y-125206900D01*
X150961428Y-125206900D02*
X150890000Y-125064042D01*
X150890000Y-125064042D02*
X150890000Y-124492614D01*
X150890000Y-124492614D02*
X150961428Y-124349757D01*
X150961428Y-124349757D02*
X151104286Y-124278328D01*
X151104286Y-124278328D02*
X151390000Y-124278328D01*
X151390000Y-124278328D02*
X151532857Y-124349757D01*
X151532857Y-124349757D02*
X151604286Y-124492614D01*
X151604286Y-124492614D02*
X151604286Y-124635471D01*
X151604286Y-124635471D02*
X150890000Y-124778328D01*
X152247142Y-124278328D02*
X152247142Y-125278328D01*
X152247142Y-124421185D02*
X152318571Y-124349757D01*
X152318571Y-124349757D02*
X152461428Y-124278328D01*
X152461428Y-124278328D02*
X152675714Y-124278328D01*
X152675714Y-124278328D02*
X152818571Y-124349757D01*
X152818571Y-124349757D02*
X152890000Y-124492614D01*
X152890000Y-124492614D02*
X152890000Y-125278328D01*
X153532857Y-125206900D02*
X153675714Y-125278328D01*
X153675714Y-125278328D02*
X153961428Y-125278328D01*
X153961428Y-125278328D02*
X154104285Y-125206900D01*
X154104285Y-125206900D02*
X154175714Y-125064042D01*
X154175714Y-125064042D02*
X154175714Y-124992614D01*
X154175714Y-124992614D02*
X154104285Y-124849757D01*
X154104285Y-124849757D02*
X153961428Y-124778328D01*
X153961428Y-124778328D02*
X153747143Y-124778328D01*
X153747143Y-124778328D02*
X153604285Y-124706900D01*
X153604285Y-124706900D02*
X153532857Y-124564042D01*
X153532857Y-124564042D02*
X153532857Y-124492614D01*
X153532857Y-124492614D02*
X153604285Y-124349757D01*
X153604285Y-124349757D02*
X153747143Y-124278328D01*
X153747143Y-124278328D02*
X153961428Y-124278328D01*
X153961428Y-124278328D02*
X154104285Y-124349757D01*
X155032857Y-125278328D02*
X154890000Y-125206900D01*
X154890000Y-125206900D02*
X154818571Y-125135471D01*
X154818571Y-125135471D02*
X154747143Y-124992614D01*
X154747143Y-124992614D02*
X154747143Y-124564042D01*
X154747143Y-124564042D02*
X154818571Y-124421185D01*
X154818571Y-124421185D02*
X154890000Y-124349757D01*
X154890000Y-124349757D02*
X155032857Y-124278328D01*
X155032857Y-124278328D02*
X155247143Y-124278328D01*
X155247143Y-124278328D02*
X155390000Y-124349757D01*
X155390000Y-124349757D02*
X155461429Y-124421185D01*
X155461429Y-124421185D02*
X155532857Y-124564042D01*
X155532857Y-124564042D02*
X155532857Y-124992614D01*
X155532857Y-124992614D02*
X155461429Y-125135471D01*
X155461429Y-125135471D02*
X155390000Y-125206900D01*
X155390000Y-125206900D02*
X155247143Y-125278328D01*
X155247143Y-125278328D02*
X155032857Y-125278328D01*
X156175714Y-125278328D02*
X156175714Y-124278328D01*
X156175714Y-124564042D02*
X156247143Y-124421185D01*
X156247143Y-124421185D02*
X156318572Y-124349757D01*
X156318572Y-124349757D02*
X156461429Y-124278328D01*
X156461429Y-124278328D02*
X156604286Y-124278328D01*
D10*
X143048913Y-136774403D02*
X143048913Y-135274403D01*
X143906056Y-136774403D02*
X143263199Y-135917260D01*
X143906056Y-135274403D02*
X143048913Y-136131546D01*
D11*
X143635714Y-149910079D02*
X143435714Y-149910079D01*
X143435714Y-150224365D02*
X143435714Y-149624365D01*
X143435714Y-149624365D02*
X143721428Y-149624365D01*
X143950000Y-150224365D02*
X143950000Y-149824365D01*
X143950000Y-149938651D02*
X143978571Y-149881508D01*
X143978571Y-149881508D02*
X144007143Y-149852936D01*
X144007143Y-149852936D02*
X144064285Y-149824365D01*
X144064285Y-149824365D02*
X144121428Y-149824365D01*
X144407143Y-150224365D02*
X144350000Y-150195794D01*
X144350000Y-150195794D02*
X144321429Y-150167222D01*
X144321429Y-150167222D02*
X144292857Y-150110079D01*
X144292857Y-150110079D02*
X144292857Y-149938651D01*
X144292857Y-149938651D02*
X144321429Y-149881508D01*
X144321429Y-149881508D02*
X144350000Y-149852936D01*
X144350000Y-149852936D02*
X144407143Y-149824365D01*
X144407143Y-149824365D02*
X144492857Y-149824365D01*
X144492857Y-149824365D02*
X144550000Y-149852936D01*
X144550000Y-149852936D02*
X144578572Y-149881508D01*
X144578572Y-149881508D02*
X144607143Y-149938651D01*
X144607143Y-149938651D02*
X144607143Y-150110079D01*
X144607143Y-150110079D02*
X144578572Y-150167222D01*
X144578572Y-150167222D02*
X144550000Y-150195794D01*
X144550000Y-150195794D02*
X144492857Y-150224365D01*
X144492857Y-150224365D02*
X144407143Y-150224365D01*
X144864286Y-149824365D02*
X144864286Y-150224365D01*
X144864286Y-149881508D02*
X144892857Y-149852936D01*
X144892857Y-149852936D02*
X144950000Y-149824365D01*
X144950000Y-149824365D02*
X145035714Y-149824365D01*
X145035714Y-149824365D02*
X145092857Y-149852936D01*
X145092857Y-149852936D02*
X145121429Y-149910079D01*
X145121429Y-149910079D02*
X145121429Y-150224365D01*
X145321428Y-149824365D02*
X145550000Y-149824365D01*
X145407143Y-149624365D02*
X145407143Y-150138651D01*
X145407143Y-150138651D02*
X145435714Y-150195794D01*
X145435714Y-150195794D02*
X145492857Y-150224365D01*
X145492857Y-150224365D02*
X145550000Y-150224365D01*
X143707142Y-151018902D02*
X143992857Y-151018902D01*
X143649999Y-151190331D02*
X143849999Y-150590331D01*
X143849999Y-150590331D02*
X144049999Y-151190331D01*
X144250000Y-151190331D02*
X144250000Y-150590331D01*
X144250000Y-150590331D02*
X144392857Y-150590331D01*
X144392857Y-150590331D02*
X144478571Y-150618902D01*
X144478571Y-150618902D02*
X144535714Y-150676045D01*
X144535714Y-150676045D02*
X144564285Y-150733188D01*
X144564285Y-150733188D02*
X144592857Y-150847474D01*
X144592857Y-150847474D02*
X144592857Y-150933188D01*
X144592857Y-150933188D02*
X144564285Y-151047474D01*
X144564285Y-151047474D02*
X144535714Y-151104617D01*
X144535714Y-151104617D02*
X144478571Y-151161760D01*
X144478571Y-151161760D02*
X144392857Y-151190331D01*
X144392857Y-151190331D02*
X144250000Y-151190331D01*
X145192857Y-151133188D02*
X145164285Y-151161760D01*
X145164285Y-151161760D02*
X145078571Y-151190331D01*
X145078571Y-151190331D02*
X145021428Y-151190331D01*
X145021428Y-151190331D02*
X144935714Y-151161760D01*
X144935714Y-151161760D02*
X144878571Y-151104617D01*
X144878571Y-151104617D02*
X144850000Y-151047474D01*
X144850000Y-151047474D02*
X144821428Y-150933188D01*
X144821428Y-150933188D02*
X144821428Y-150847474D01*
X144821428Y-150847474D02*
X144850000Y-150733188D01*
X144850000Y-150733188D02*
X144878571Y-150676045D01*
X144878571Y-150676045D02*
X144935714Y-150618902D01*
X144935714Y-150618902D02*
X145021428Y-150590331D01*
X145021428Y-150590331D02*
X145078571Y-150590331D01*
X145078571Y-150590331D02*
X145164285Y-150618902D01*
X145164285Y-150618902D02*
X145192857Y-150647474D01*
D12*
X156971750Y-126297094D02*
X157737794Y-125654307D01*
X157737794Y-125654307D02*
X157890839Y-125836698D01*
X157890839Y-125836698D02*
X157946188Y-125976742D01*
X157946188Y-125976742D02*
X157934449Y-126110917D01*
X157934449Y-126110917D02*
X157892101Y-126208613D01*
X157892101Y-126208613D02*
X157776797Y-126367527D01*
X157776797Y-126367527D02*
X157667362Y-126459354D01*
X157667362Y-126459354D02*
X157490840Y-126545311D01*
X157490840Y-126545311D02*
X157387274Y-126570051D01*
X157387274Y-126570051D02*
X157253100Y-126558312D01*
X157253100Y-126558312D02*
X157124795Y-126479486D01*
X157124795Y-126479486D02*
X156971750Y-126297094D01*
X157920627Y-127427922D02*
X157614538Y-127063139D01*
X157614538Y-127063139D02*
X158380582Y-126420351D01*
X158536151Y-127346572D02*
X158750414Y-127601920D01*
X158440979Y-128048053D02*
X158134890Y-127683270D01*
X158134890Y-127683270D02*
X158900934Y-127040482D01*
X158900934Y-127040482D02*
X159207023Y-127405266D01*
X158716459Y-128376358D02*
X159482504Y-127733570D01*
X159482504Y-127733570D02*
X159635549Y-127915962D01*
X159635549Y-127915962D02*
X159690897Y-128056006D01*
X159690897Y-128056006D02*
X159679158Y-128190180D01*
X159679158Y-128190180D02*
X159636811Y-128287876D01*
X159636811Y-128287876D02*
X159521506Y-128446790D01*
X159521506Y-128446790D02*
X159412071Y-128538617D01*
X159412071Y-128538617D02*
X159235549Y-128624575D01*
X159235549Y-128624575D02*
X159131984Y-128649314D01*
X159131984Y-128649314D02*
X158997809Y-128637576D01*
X158997809Y-128637576D02*
X158869504Y-128558750D01*
X158869504Y-128558750D02*
X158716459Y-128376358D01*
X159695945Y-129543664D02*
X159328638Y-129105924D01*
X159512292Y-129324794D02*
X160278336Y-128682006D01*
X160278336Y-128682006D02*
X160107683Y-128700877D01*
X160107683Y-128700877D02*
X159973509Y-128689138D01*
X159973509Y-128689138D02*
X159875813Y-128646790D01*
X123426819Y-140006666D02*
X122950628Y-140339999D01*
X123426819Y-140578094D02*
X122426819Y-140578094D01*
X122426819Y-140578094D02*
X122426819Y-140197142D01*
X122426819Y-140197142D02*
X122474438Y-140101904D01*
X122474438Y-140101904D02*
X122522057Y-140054285D01*
X122522057Y-140054285D02*
X122617295Y-140006666D01*
X122617295Y-140006666D02*
X122760152Y-140006666D01*
X122760152Y-140006666D02*
X122855390Y-140054285D01*
X122855390Y-140054285D02*
X122903009Y-140101904D01*
X122903009Y-140101904D02*
X122950628Y-140197142D01*
X122950628Y-140197142D02*
X122950628Y-140578094D01*
X123426819Y-139530475D02*
X123426819Y-139339999D01*
X123426819Y-139339999D02*
X123379200Y-139244761D01*
X123379200Y-139244761D02*
X123331580Y-139197142D01*
X123331580Y-139197142D02*
X123188723Y-139101904D01*
X123188723Y-139101904D02*
X122998247Y-139054285D01*
X122998247Y-139054285D02*
X122617295Y-139054285D01*
X122617295Y-139054285D02*
X122522057Y-139101904D01*
X122522057Y-139101904D02*
X122474438Y-139149523D01*
X122474438Y-139149523D02*
X122426819Y-139244761D01*
X122426819Y-139244761D02*
X122426819Y-139435237D01*
X122426819Y-139435237D02*
X122474438Y-139530475D01*
X122474438Y-139530475D02*
X122522057Y-139578094D01*
X122522057Y-139578094D02*
X122617295Y-139625713D01*
X122617295Y-139625713D02*
X122855390Y-139625713D01*
X122855390Y-139625713D02*
X122950628Y-139578094D01*
X122950628Y-139578094D02*
X122998247Y-139530475D01*
X122998247Y-139530475D02*
X123045866Y-139435237D01*
X123045866Y-139435237D02*
X123045866Y-139244761D01*
X123045866Y-139244761D02*
X122998247Y-139149523D01*
X122998247Y-139149523D02*
X122950628Y-139101904D01*
X122950628Y-139101904D02*
X122855390Y-139054285D01*
X131640057Y-129775238D02*
X131592438Y-129870476D01*
X131592438Y-129870476D02*
X131497200Y-129965714D01*
X131497200Y-129965714D02*
X131354342Y-130108571D01*
X131354342Y-130108571D02*
X131306723Y-130203809D01*
X131306723Y-130203809D02*
X131306723Y-130299047D01*
X131544819Y-130251428D02*
X131497200Y-130346666D01*
X131497200Y-130346666D02*
X131401961Y-130441904D01*
X131401961Y-130441904D02*
X131211485Y-130489523D01*
X131211485Y-130489523D02*
X130878152Y-130489523D01*
X130878152Y-130489523D02*
X130687676Y-130441904D01*
X130687676Y-130441904D02*
X130592438Y-130346666D01*
X130592438Y-130346666D02*
X130544819Y-130251428D01*
X130544819Y-130251428D02*
X130544819Y-130060952D01*
X130544819Y-130060952D02*
X130592438Y-129965714D01*
X130592438Y-129965714D02*
X130687676Y-129870476D01*
X130687676Y-129870476D02*
X130878152Y-129822857D01*
X130878152Y-129822857D02*
X131211485Y-129822857D01*
X131211485Y-129822857D02*
X131401961Y-129870476D01*
X131401961Y-129870476D02*
X131497200Y-129965714D01*
X131497200Y-129965714D02*
X131544819Y-130060952D01*
X131544819Y-130060952D02*
X131544819Y-130251428D01*
X131544819Y-128870476D02*
X131544819Y-129441904D01*
X131544819Y-129156190D02*
X130544819Y-129156190D01*
X130544819Y-129156190D02*
X130687676Y-129251428D01*
X130687676Y-129251428D02*
X130782914Y-129346666D01*
X130782914Y-129346666D02*
X130830533Y-129441904D01*
X110789823Y-135564588D02*
X110313632Y-135897921D01*
X110789823Y-136136016D02*
X109789823Y-136136016D01*
X109789823Y-136136016D02*
X109789823Y-135755064D01*
X109789823Y-135755064D02*
X109837442Y-135659826D01*
X109837442Y-135659826D02*
X109885061Y-135612207D01*
X109885061Y-135612207D02*
X109980299Y-135564588D01*
X109980299Y-135564588D02*
X110123156Y-135564588D01*
X110123156Y-135564588D02*
X110218394Y-135612207D01*
X110218394Y-135612207D02*
X110266013Y-135659826D01*
X110266013Y-135659826D02*
X110313632Y-135755064D01*
X110313632Y-135755064D02*
X110313632Y-136136016D01*
X110789823Y-134612207D02*
X110789823Y-135183635D01*
X110789823Y-134897921D02*
X109789823Y-134897921D01*
X109789823Y-134897921D02*
X109932680Y-134993159D01*
X109932680Y-134993159D02*
X110027918Y-135088397D01*
X110027918Y-135088397D02*
X110075537Y-135183635D01*
X109789823Y-133993159D02*
X109789823Y-133897921D01*
X109789823Y-133897921D02*
X109837442Y-133802683D01*
X109837442Y-133802683D02*
X109885061Y-133755064D01*
X109885061Y-133755064D02*
X109980299Y-133707445D01*
X109980299Y-133707445D02*
X110170775Y-133659826D01*
X110170775Y-133659826D02*
X110408870Y-133659826D01*
X110408870Y-133659826D02*
X110599346Y-133707445D01*
X110599346Y-133707445D02*
X110694584Y-133755064D01*
X110694584Y-133755064D02*
X110742204Y-133802683D01*
X110742204Y-133802683D02*
X110789823Y-133897921D01*
X110789823Y-133897921D02*
X110789823Y-133993159D01*
X110789823Y-133993159D02*
X110742204Y-134088397D01*
X110742204Y-134088397D02*
X110694584Y-134136016D01*
X110694584Y-134136016D02*
X110599346Y-134183635D01*
X110599346Y-134183635D02*
X110408870Y-134231254D01*
X110408870Y-134231254D02*
X110170775Y-134231254D01*
X110170775Y-134231254D02*
X109980299Y-134183635D01*
X109980299Y-134183635D02*
X109885061Y-134136016D01*
X109885061Y-134136016D02*
X109837442Y-134088397D01*
X109837442Y-134088397D02*
X109789823Y-133993159D01*
X176480224Y-134080785D02*
X176480224Y-133080785D01*
X176480224Y-133080785D02*
X176718319Y-133080785D01*
X176718319Y-133080785D02*
X176861176Y-133128404D01*
X176861176Y-133128404D02*
X176956414Y-133223642D01*
X176956414Y-133223642D02*
X177004033Y-133318880D01*
X177004033Y-133318880D02*
X177051652Y-133509356D01*
X177051652Y-133509356D02*
X177051652Y-133652213D01*
X177051652Y-133652213D02*
X177004033Y-133842689D01*
X177004033Y-133842689D02*
X176956414Y-133937927D01*
X176956414Y-133937927D02*
X176861176Y-134033166D01*
X176861176Y-134033166D02*
X176718319Y-134080785D01*
X176718319Y-134080785D02*
X176480224Y-134080785D01*
X177384986Y-133080785D02*
X178004033Y-133080785D01*
X178004033Y-133080785D02*
X177670700Y-133461737D01*
X177670700Y-133461737D02*
X177813557Y-133461737D01*
X177813557Y-133461737D02*
X177908795Y-133509356D01*
X177908795Y-133509356D02*
X177956414Y-133556975D01*
X177956414Y-133556975D02*
X178004033Y-133652213D01*
X178004033Y-133652213D02*
X178004033Y-133890308D01*
X178004033Y-133890308D02*
X177956414Y-133985546D01*
X177956414Y-133985546D02*
X177908795Y-134033166D01*
X177908795Y-134033166D02*
X177813557Y-134080785D01*
X177813557Y-134080785D02*
X177527843Y-134080785D01*
X177527843Y-134080785D02*
X177432605Y-134033166D01*
X177432605Y-134033166D02*
X177384986Y-133985546D01*
X155176819Y-140228857D02*
X154700628Y-140562190D01*
X155176819Y-140800285D02*
X154176819Y-140800285D01*
X154176819Y-140800285D02*
X154176819Y-140419333D01*
X154176819Y-140419333D02*
X154224438Y-140324095D01*
X154224438Y-140324095D02*
X154272057Y-140276476D01*
X154272057Y-140276476D02*
X154367295Y-140228857D01*
X154367295Y-140228857D02*
X154510152Y-140228857D01*
X154510152Y-140228857D02*
X154605390Y-140276476D01*
X154605390Y-140276476D02*
X154653009Y-140324095D01*
X154653009Y-140324095D02*
X154700628Y-140419333D01*
X154700628Y-140419333D02*
X154700628Y-140800285D01*
X155176819Y-139276476D02*
X155176819Y-139847904D01*
X155176819Y-139562190D02*
X154176819Y-139562190D01*
X154176819Y-139562190D02*
X154319676Y-139657428D01*
X154319676Y-139657428D02*
X154414914Y-139752666D01*
X154414914Y-139752666D02*
X154462533Y-139847904D01*
X154176819Y-138371714D02*
X154176819Y-138847904D01*
X154176819Y-138847904D02*
X154653009Y-138895523D01*
X154653009Y-138895523D02*
X154605390Y-138847904D01*
X154605390Y-138847904D02*
X154557771Y-138752666D01*
X154557771Y-138752666D02*
X154557771Y-138514571D01*
X154557771Y-138514571D02*
X154605390Y-138419333D01*
X154605390Y-138419333D02*
X154653009Y-138371714D01*
X154653009Y-138371714D02*
X154748247Y-138324095D01*
X154748247Y-138324095D02*
X154986342Y-138324095D01*
X154986342Y-138324095D02*
X155081580Y-138371714D01*
X155081580Y-138371714D02*
X155129200Y-138419333D01*
X155129200Y-138419333D02*
X155176819Y-138514571D01*
X155176819Y-138514571D02*
X155176819Y-138752666D01*
X155176819Y-138752666D02*
X155129200Y-138847904D01*
X155129200Y-138847904D02*
X155081580Y-138895523D01*
X109189580Y-141256666D02*
X109237200Y-141304285D01*
X109237200Y-141304285D02*
X109284819Y-141447142D01*
X109284819Y-141447142D02*
X109284819Y-141542380D01*
X109284819Y-141542380D02*
X109237200Y-141685237D01*
X109237200Y-141685237D02*
X109141961Y-141780475D01*
X109141961Y-141780475D02*
X109046723Y-141828094D01*
X109046723Y-141828094D02*
X108856247Y-141875713D01*
X108856247Y-141875713D02*
X108713390Y-141875713D01*
X108713390Y-141875713D02*
X108522914Y-141828094D01*
X108522914Y-141828094D02*
X108427676Y-141780475D01*
X108427676Y-141780475D02*
X108332438Y-141685237D01*
X108332438Y-141685237D02*
X108284819Y-141542380D01*
X108284819Y-141542380D02*
X108284819Y-141447142D01*
X108284819Y-141447142D02*
X108332438Y-141304285D01*
X108332438Y-141304285D02*
X108380057Y-141256666D01*
X108380057Y-140875713D02*
X108332438Y-140828094D01*
X108332438Y-140828094D02*
X108284819Y-140732856D01*
X108284819Y-140732856D02*
X108284819Y-140494761D01*
X108284819Y-140494761D02*
X108332438Y-140399523D01*
X108332438Y-140399523D02*
X108380057Y-140351904D01*
X108380057Y-140351904D02*
X108475295Y-140304285D01*
X108475295Y-140304285D02*
X108570533Y-140304285D01*
X108570533Y-140304285D02*
X108713390Y-140351904D01*
X108713390Y-140351904D02*
X109284819Y-140923332D01*
X109284819Y-140923332D02*
X109284819Y-140304285D01*
X179194819Y-141752857D02*
X178718628Y-142086190D01*
X179194819Y-142324285D02*
X178194819Y-142324285D01*
X178194819Y-142324285D02*
X178194819Y-141943333D01*
X178194819Y-141943333D02*
X178242438Y-141848095D01*
X178242438Y-141848095D02*
X178290057Y-141800476D01*
X178290057Y-141800476D02*
X178385295Y-141752857D01*
X178385295Y-141752857D02*
X178528152Y-141752857D01*
X178528152Y-141752857D02*
X178623390Y-141800476D01*
X178623390Y-141800476D02*
X178671009Y-141848095D01*
X178671009Y-141848095D02*
X178718628Y-141943333D01*
X178718628Y-141943333D02*
X178718628Y-142324285D01*
X179194819Y-140800476D02*
X179194819Y-141371904D01*
X179194819Y-141086190D02*
X178194819Y-141086190D01*
X178194819Y-141086190D02*
X178337676Y-141181428D01*
X178337676Y-141181428D02*
X178432914Y-141276666D01*
X178432914Y-141276666D02*
X178480533Y-141371904D01*
X178290057Y-140419523D02*
X178242438Y-140371904D01*
X178242438Y-140371904D02*
X178194819Y-140276666D01*
X178194819Y-140276666D02*
X178194819Y-140038571D01*
X178194819Y-140038571D02*
X178242438Y-139943333D01*
X178242438Y-139943333D02*
X178290057Y-139895714D01*
X178290057Y-139895714D02*
X178385295Y-139848095D01*
X178385295Y-139848095D02*
X178480533Y-139848095D01*
X178480533Y-139848095D02*
X178623390Y-139895714D01*
X178623390Y-139895714D02*
X179194819Y-140467142D01*
X179194819Y-140467142D02*
X179194819Y-139848095D01*
X150704057Y-131553238D02*
X150656438Y-131648476D01*
X150656438Y-131648476D02*
X150561200Y-131743714D01*
X150561200Y-131743714D02*
X150418342Y-131886571D01*
X150418342Y-131886571D02*
X150370723Y-131981809D01*
X150370723Y-131981809D02*
X150370723Y-132077047D01*
X150608819Y-132029428D02*
X150561200Y-132124666D01*
X150561200Y-132124666D02*
X150465961Y-132219904D01*
X150465961Y-132219904D02*
X150275485Y-132267523D01*
X150275485Y-132267523D02*
X149942152Y-132267523D01*
X149942152Y-132267523D02*
X149751676Y-132219904D01*
X149751676Y-132219904D02*
X149656438Y-132124666D01*
X149656438Y-132124666D02*
X149608819Y-132029428D01*
X149608819Y-132029428D02*
X149608819Y-131838952D01*
X149608819Y-131838952D02*
X149656438Y-131743714D01*
X149656438Y-131743714D02*
X149751676Y-131648476D01*
X149751676Y-131648476D02*
X149942152Y-131600857D01*
X149942152Y-131600857D02*
X150275485Y-131600857D01*
X150275485Y-131600857D02*
X150465961Y-131648476D01*
X150465961Y-131648476D02*
X150561200Y-131743714D01*
X150561200Y-131743714D02*
X150608819Y-131838952D01*
X150608819Y-131838952D02*
X150608819Y-132029428D01*
X149704057Y-131219904D02*
X149656438Y-131172285D01*
X149656438Y-131172285D02*
X149608819Y-131077047D01*
X149608819Y-131077047D02*
X149608819Y-130838952D01*
X149608819Y-130838952D02*
X149656438Y-130743714D01*
X149656438Y-130743714D02*
X149704057Y-130696095D01*
X149704057Y-130696095D02*
X149799295Y-130648476D01*
X149799295Y-130648476D02*
X149894533Y-130648476D01*
X149894533Y-130648476D02*
X150037390Y-130696095D01*
X150037390Y-130696095D02*
X150608819Y-131267523D01*
X150608819Y-131267523D02*
X150608819Y-130648476D01*
X121727618Y-129807396D02*
X120961574Y-129164608D01*
X120961574Y-129164608D02*
X121114618Y-128982217D01*
X121114618Y-128982217D02*
X121242924Y-128903391D01*
X121242924Y-128903391D02*
X121377098Y-128891652D01*
X121377098Y-128891652D02*
X121480664Y-128916391D01*
X121480664Y-128916391D02*
X121657186Y-129002349D01*
X121657186Y-129002349D02*
X121766621Y-129094176D01*
X121766621Y-129094176D02*
X121881925Y-129253090D01*
X121881925Y-129253090D02*
X121924273Y-129350786D01*
X121924273Y-129350786D02*
X121936011Y-129484960D01*
X121936011Y-129484960D02*
X121880663Y-129625004D01*
X121880663Y-129625004D02*
X121727618Y-129807396D01*
X122676495Y-128676568D02*
X122370406Y-129041351D01*
X122370406Y-129041351D02*
X121604361Y-128398564D01*
X122489496Y-128084522D02*
X122703759Y-127829174D01*
X123196847Y-128056437D02*
X122890758Y-128421220D01*
X122890758Y-128421220D02*
X122124713Y-127778432D01*
X122124713Y-127778432D02*
X122430803Y-127413649D01*
X123472328Y-127728132D02*
X122706283Y-127085344D01*
X122706283Y-127085344D02*
X122859328Y-126902953D01*
X122859328Y-126902953D02*
X122987633Y-126824127D01*
X122987633Y-126824127D02*
X123121807Y-126812388D01*
X123121807Y-126812388D02*
X123225373Y-126837128D01*
X123225373Y-126837128D02*
X123401895Y-126923085D01*
X123401895Y-126923085D02*
X123511330Y-127014912D01*
X123511330Y-127014912D02*
X123626634Y-127173826D01*
X123626634Y-127173826D02*
X123668982Y-127271522D01*
X123668982Y-127271522D02*
X123680721Y-127405697D01*
X123680721Y-127405697D02*
X123625372Y-127545741D01*
X123625372Y-127545741D02*
X123472328Y-127728132D01*
X123391418Y-126416996D02*
X123385549Y-126349909D01*
X123385549Y-126349909D02*
X123410289Y-126246343D01*
X123410289Y-126246343D02*
X123563333Y-126063952D01*
X123563333Y-126063952D02*
X123661030Y-126021604D01*
X123661030Y-126021604D02*
X123728117Y-126015735D01*
X123728117Y-126015735D02*
X123831682Y-126040474D01*
X123831682Y-126040474D02*
X123904639Y-126101692D01*
X123904639Y-126101692D02*
X123983465Y-126229997D01*
X123983465Y-126229997D02*
X124053897Y-127035044D01*
X124053897Y-127035044D02*
X124451814Y-126560826D01*
X114174518Y-147959027D02*
X113841185Y-147482836D01*
X113603090Y-147959027D02*
X113603090Y-146959027D01*
X113603090Y-146959027D02*
X113984042Y-146959027D01*
X113984042Y-146959027D02*
X114079280Y-147006646D01*
X114079280Y-147006646D02*
X114126899Y-147054265D01*
X114126899Y-147054265D02*
X114174518Y-147149503D01*
X114174518Y-147149503D02*
X114174518Y-147292360D01*
X114174518Y-147292360D02*
X114126899Y-147387598D01*
X114126899Y-147387598D02*
X114079280Y-147435217D01*
X114079280Y-147435217D02*
X113984042Y-147482836D01*
X113984042Y-147482836D02*
X113603090Y-147482836D01*
X114555471Y-147054265D02*
X114603090Y-147006646D01*
X114603090Y-147006646D02*
X114698328Y-146959027D01*
X114698328Y-146959027D02*
X114936423Y-146959027D01*
X114936423Y-146959027D02*
X115031661Y-147006646D01*
X115031661Y-147006646D02*
X115079280Y-147054265D01*
X115079280Y-147054265D02*
X115126899Y-147149503D01*
X115126899Y-147149503D02*
X115126899Y-147244741D01*
X115126899Y-147244741D02*
X115079280Y-147387598D01*
X115079280Y-147387598D02*
X114507852Y-147959027D01*
X114507852Y-147959027D02*
X115126899Y-147959027D01*
X159356666Y-149454819D02*
X159356666Y-150169104D01*
X159356666Y-150169104D02*
X159309047Y-150311961D01*
X159309047Y-150311961D02*
X159213809Y-150407200D01*
X159213809Y-150407200D02*
X159070952Y-150454819D01*
X159070952Y-150454819D02*
X158975714Y-150454819D01*
X160356666Y-150454819D02*
X159785238Y-150454819D01*
X160070952Y-150454819D02*
X160070952Y-149454819D01*
X160070952Y-149454819D02*
X159975714Y-149597676D01*
X159975714Y-149597676D02*
X159880476Y-149692914D01*
X159880476Y-149692914D02*
X159785238Y-149740533D01*
X145925773Y-141002848D02*
X145449582Y-141336181D01*
X145925773Y-141574276D02*
X144925773Y-141574276D01*
X144925773Y-141574276D02*
X144925773Y-141193324D01*
X144925773Y-141193324D02*
X144973392Y-141098086D01*
X144973392Y-141098086D02*
X145021011Y-141050467D01*
X145021011Y-141050467D02*
X145116249Y-141002848D01*
X145116249Y-141002848D02*
X145259106Y-141002848D01*
X145259106Y-141002848D02*
X145354344Y-141050467D01*
X145354344Y-141050467D02*
X145401963Y-141098086D01*
X145401963Y-141098086D02*
X145449582Y-141193324D01*
X145449582Y-141193324D02*
X145449582Y-141574276D01*
X145925773Y-140050467D02*
X145925773Y-140621895D01*
X145925773Y-140336181D02*
X144925773Y-140336181D01*
X144925773Y-140336181D02*
X145068630Y-140431419D01*
X145068630Y-140431419D02*
X145163868Y-140526657D01*
X145163868Y-140526657D02*
X145211487Y-140621895D01*
X145925773Y-139098086D02*
X145925773Y-139669514D01*
X145925773Y-139383800D02*
X144925773Y-139383800D01*
X144925773Y-139383800D02*
X145068630Y-139479038D01*
X145068630Y-139479038D02*
X145163868Y-139574276D01*
X145163868Y-139574276D02*
X145211487Y-139669514D01*
X152074819Y-139752666D02*
X151598628Y-140085999D01*
X152074819Y-140324094D02*
X151074819Y-140324094D01*
X151074819Y-140324094D02*
X151074819Y-139943142D01*
X151074819Y-139943142D02*
X151122438Y-139847904D01*
X151122438Y-139847904D02*
X151170057Y-139800285D01*
X151170057Y-139800285D02*
X151265295Y-139752666D01*
X151265295Y-139752666D02*
X151408152Y-139752666D01*
X151408152Y-139752666D02*
X151503390Y-139800285D01*
X151503390Y-139800285D02*
X151551009Y-139847904D01*
X151551009Y-139847904D02*
X151598628Y-139943142D01*
X151598628Y-139943142D02*
X151598628Y-140324094D01*
X151074819Y-139419332D02*
X151074819Y-138800285D01*
X151074819Y-138800285D02*
X151455771Y-139133618D01*
X151455771Y-139133618D02*
X151455771Y-138990761D01*
X151455771Y-138990761D02*
X151503390Y-138895523D01*
X151503390Y-138895523D02*
X151551009Y-138847904D01*
X151551009Y-138847904D02*
X151646247Y-138800285D01*
X151646247Y-138800285D02*
X151884342Y-138800285D01*
X151884342Y-138800285D02*
X151979580Y-138847904D01*
X151979580Y-138847904D02*
X152027200Y-138895523D01*
X152027200Y-138895523D02*
X152074819Y-138990761D01*
X152074819Y-138990761D02*
X152074819Y-139276475D01*
X152074819Y-139276475D02*
X152027200Y-139371713D01*
X152027200Y-139371713D02*
X151979580Y-139419332D01*
X109189580Y-148876666D02*
X109237200Y-148924285D01*
X109237200Y-148924285D02*
X109284819Y-149067142D01*
X109284819Y-149067142D02*
X109284819Y-149162380D01*
X109284819Y-149162380D02*
X109237200Y-149305237D01*
X109237200Y-149305237D02*
X109141961Y-149400475D01*
X109141961Y-149400475D02*
X109046723Y-149448094D01*
X109046723Y-149448094D02*
X108856247Y-149495713D01*
X108856247Y-149495713D02*
X108713390Y-149495713D01*
X108713390Y-149495713D02*
X108522914Y-149448094D01*
X108522914Y-149448094D02*
X108427676Y-149400475D01*
X108427676Y-149400475D02*
X108332438Y-149305237D01*
X108332438Y-149305237D02*
X108284819Y-149162380D01*
X108284819Y-149162380D02*
X108284819Y-149067142D01*
X108284819Y-149067142D02*
X108332438Y-148924285D01*
X108332438Y-148924285D02*
X108380057Y-148876666D01*
X109284819Y-147924285D02*
X109284819Y-148495713D01*
X109284819Y-148209999D02*
X108284819Y-148209999D01*
X108284819Y-148209999D02*
X108427676Y-148305237D01*
X108427676Y-148305237D02*
X108522914Y-148400475D01*
X108522914Y-148400475D02*
X108570533Y-148495713D01*
X167884819Y-134228094D02*
X166884819Y-134228094D01*
X166884819Y-134228094D02*
X166884819Y-133989999D01*
X166884819Y-133989999D02*
X166932438Y-133847142D01*
X166932438Y-133847142D02*
X167027676Y-133751904D01*
X167027676Y-133751904D02*
X167122914Y-133704285D01*
X167122914Y-133704285D02*
X167313390Y-133656666D01*
X167313390Y-133656666D02*
X167456247Y-133656666D01*
X167456247Y-133656666D02*
X167646723Y-133704285D01*
X167646723Y-133704285D02*
X167741961Y-133751904D01*
X167741961Y-133751904D02*
X167837200Y-133847142D01*
X167837200Y-133847142D02*
X167884819Y-133989999D01*
X167884819Y-133989999D02*
X167884819Y-134228094D01*
X166980057Y-133275713D02*
X166932438Y-133228094D01*
X166932438Y-133228094D02*
X166884819Y-133132856D01*
X166884819Y-133132856D02*
X166884819Y-132894761D01*
X166884819Y-132894761D02*
X166932438Y-132799523D01*
X166932438Y-132799523D02*
X166980057Y-132751904D01*
X166980057Y-132751904D02*
X167075295Y-132704285D01*
X167075295Y-132704285D02*
X167170533Y-132704285D01*
X167170533Y-132704285D02*
X167313390Y-132751904D01*
X167313390Y-132751904D02*
X167884819Y-133323332D01*
X167884819Y-133323332D02*
X167884819Y-132704285D01*
X126728819Y-140006666D02*
X126252628Y-140339999D01*
X126728819Y-140578094D02*
X125728819Y-140578094D01*
X125728819Y-140578094D02*
X125728819Y-140197142D01*
X125728819Y-140197142D02*
X125776438Y-140101904D01*
X125776438Y-140101904D02*
X125824057Y-140054285D01*
X125824057Y-140054285D02*
X125919295Y-140006666D01*
X125919295Y-140006666D02*
X126062152Y-140006666D01*
X126062152Y-140006666D02*
X126157390Y-140054285D01*
X126157390Y-140054285D02*
X126205009Y-140101904D01*
X126205009Y-140101904D02*
X126252628Y-140197142D01*
X126252628Y-140197142D02*
X126252628Y-140578094D01*
X126728819Y-139054285D02*
X126728819Y-139625713D01*
X126728819Y-139339999D02*
X125728819Y-139339999D01*
X125728819Y-139339999D02*
X125871676Y-139435237D01*
X125871676Y-139435237D02*
X125966914Y-139530475D01*
X125966914Y-139530475D02*
X126014533Y-139625713D01*
X103388312Y-133871951D02*
X103388312Y-132871951D01*
X103388312Y-132871951D02*
X103626407Y-132871951D01*
X103626407Y-132871951D02*
X103769264Y-132919570D01*
X103769264Y-132919570D02*
X103864502Y-133014808D01*
X103864502Y-133014808D02*
X103912121Y-133110046D01*
X103912121Y-133110046D02*
X103959740Y-133300522D01*
X103959740Y-133300522D02*
X103959740Y-133443379D01*
X103959740Y-133443379D02*
X103912121Y-133633855D01*
X103912121Y-133633855D02*
X103864502Y-133729093D01*
X103864502Y-133729093D02*
X103769264Y-133824332D01*
X103769264Y-133824332D02*
X103626407Y-133871951D01*
X103626407Y-133871951D02*
X103388312Y-133871951D01*
X104912121Y-133871951D02*
X104340693Y-133871951D01*
X104626407Y-133871951D02*
X104626407Y-132871951D01*
X104626407Y-132871951D02*
X104531169Y-133014808D01*
X104531169Y-133014808D02*
X104435931Y-133110046D01*
X104435931Y-133110046D02*
X104340693Y-133157665D01*
X158478819Y-140228857D02*
X158002628Y-140562190D01*
X158478819Y-140800285D02*
X157478819Y-140800285D01*
X157478819Y-140800285D02*
X157478819Y-140419333D01*
X157478819Y-140419333D02*
X157526438Y-140324095D01*
X157526438Y-140324095D02*
X157574057Y-140276476D01*
X157574057Y-140276476D02*
X157669295Y-140228857D01*
X157669295Y-140228857D02*
X157812152Y-140228857D01*
X157812152Y-140228857D02*
X157907390Y-140276476D01*
X157907390Y-140276476D02*
X157955009Y-140324095D01*
X157955009Y-140324095D02*
X158002628Y-140419333D01*
X158002628Y-140419333D02*
X158002628Y-140800285D01*
X158478819Y-139276476D02*
X158478819Y-139847904D01*
X158478819Y-139562190D02*
X157478819Y-139562190D01*
X157478819Y-139562190D02*
X157621676Y-139657428D01*
X157621676Y-139657428D02*
X157716914Y-139752666D01*
X157716914Y-139752666D02*
X157764533Y-139847904D01*
X157478819Y-138943142D02*
X157478819Y-138324095D01*
X157478819Y-138324095D02*
X157859771Y-138657428D01*
X157859771Y-138657428D02*
X157859771Y-138514571D01*
X157859771Y-138514571D02*
X157907390Y-138419333D01*
X157907390Y-138419333D02*
X157955009Y-138371714D01*
X157955009Y-138371714D02*
X158050247Y-138324095D01*
X158050247Y-138324095D02*
X158288342Y-138324095D01*
X158288342Y-138324095D02*
X158383580Y-138371714D01*
X158383580Y-138371714D02*
X158431200Y-138419333D01*
X158431200Y-138419333D02*
X158478819Y-138514571D01*
X158478819Y-138514571D02*
X158478819Y-138800285D01*
X158478819Y-138800285D02*
X158431200Y-138895523D01*
X158431200Y-138895523D02*
X158383580Y-138943142D01*
X119309172Y-133716423D02*
X118832981Y-134049756D01*
X119309172Y-134287851D02*
X118309172Y-134287851D01*
X118309172Y-134287851D02*
X118309172Y-133906899D01*
X118309172Y-133906899D02*
X118356791Y-133811661D01*
X118356791Y-133811661D02*
X118404410Y-133764042D01*
X118404410Y-133764042D02*
X118499648Y-133716423D01*
X118499648Y-133716423D02*
X118642505Y-133716423D01*
X118642505Y-133716423D02*
X118737743Y-133764042D01*
X118737743Y-133764042D02*
X118785362Y-133811661D01*
X118785362Y-133811661D02*
X118832981Y-133906899D01*
X118832981Y-133906899D02*
X118832981Y-134287851D01*
X118309172Y-133383089D02*
X118309172Y-132716423D01*
X118309172Y-132716423D02*
X119309172Y-133144994D01*
X149043987Y-140522050D02*
X148567796Y-140855383D01*
X149043987Y-141093478D02*
X148043987Y-141093478D01*
X148043987Y-141093478D02*
X148043987Y-140712526D01*
X148043987Y-140712526D02*
X148091606Y-140617288D01*
X148091606Y-140617288D02*
X148139225Y-140569669D01*
X148139225Y-140569669D02*
X148234463Y-140522050D01*
X148234463Y-140522050D02*
X148377320Y-140522050D01*
X148377320Y-140522050D02*
X148472558Y-140569669D01*
X148472558Y-140569669D02*
X148520177Y-140617288D01*
X148520177Y-140617288D02*
X148567796Y-140712526D01*
X148567796Y-140712526D02*
X148567796Y-141093478D01*
X148043987Y-139664907D02*
X148043987Y-139855383D01*
X148043987Y-139855383D02*
X148091606Y-139950621D01*
X148091606Y-139950621D02*
X148139225Y-139998240D01*
X148139225Y-139998240D02*
X148282082Y-140093478D01*
X148282082Y-140093478D02*
X148472558Y-140141097D01*
X148472558Y-140141097D02*
X148853510Y-140141097D01*
X148853510Y-140141097D02*
X148948748Y-140093478D01*
X148948748Y-140093478D02*
X148996368Y-140045859D01*
X148996368Y-140045859D02*
X149043987Y-139950621D01*
X149043987Y-139950621D02*
X149043987Y-139760145D01*
X149043987Y-139760145D02*
X148996368Y-139664907D01*
X148996368Y-139664907D02*
X148948748Y-139617288D01*
X148948748Y-139617288D02*
X148853510Y-139569669D01*
X148853510Y-139569669D02*
X148615415Y-139569669D01*
X148615415Y-139569669D02*
X148520177Y-139617288D01*
X148520177Y-139617288D02*
X148472558Y-139664907D01*
X148472558Y-139664907D02*
X148424939Y-139760145D01*
X148424939Y-139760145D02*
X148424939Y-139950621D01*
X148424939Y-139950621D02*
X148472558Y-140045859D01*
X148472558Y-140045859D02*
X148520177Y-140093478D01*
X148520177Y-140093478D02*
X148615415Y-140141097D01*
X139061523Y-131897009D02*
X138728190Y-131897009D01*
X138728190Y-132420819D02*
X138728190Y-131420819D01*
X138728190Y-131420819D02*
X139204380Y-131420819D01*
X140061523Y-132420819D02*
X139585333Y-132420819D01*
X139585333Y-132420819D02*
X139585333Y-131420819D01*
X140394857Y-131897009D02*
X140728190Y-131897009D01*
X140871047Y-132420819D02*
X140394857Y-132420819D01*
X140394857Y-132420819D02*
X140394857Y-131420819D01*
X140394857Y-131420819D02*
X140871047Y-131420819D01*
X141299619Y-132420819D02*
X141299619Y-131420819D01*
X141299619Y-131420819D02*
X141537714Y-131420819D01*
X141537714Y-131420819D02*
X141680571Y-131468438D01*
X141680571Y-131468438D02*
X141775809Y-131563676D01*
X141775809Y-131563676D02*
X141823428Y-131658914D01*
X141823428Y-131658914D02*
X141871047Y-131849390D01*
X141871047Y-131849390D02*
X141871047Y-131992247D01*
X141871047Y-131992247D02*
X141823428Y-132182723D01*
X141823428Y-132182723D02*
X141775809Y-132277961D01*
X141775809Y-132277961D02*
X141680571Y-132373200D01*
X141680571Y-132373200D02*
X141537714Y-132420819D01*
X141537714Y-132420819D02*
X141299619Y-132420819D01*
X142823428Y-132420819D02*
X142252000Y-132420819D01*
X142537714Y-132420819D02*
X142537714Y-131420819D01*
X142537714Y-131420819D02*
X142442476Y-131563676D01*
X142442476Y-131563676D02*
X142347238Y-131658914D01*
X142347238Y-131658914D02*
X142252000Y-131706533D01*
X135764037Y-139084862D02*
X135287846Y-139418195D01*
X135764037Y-139656290D02*
X134764037Y-139656290D01*
X134764037Y-139656290D02*
X134764037Y-139275338D01*
X134764037Y-139275338D02*
X134811656Y-139180100D01*
X134811656Y-139180100D02*
X134859275Y-139132481D01*
X134859275Y-139132481D02*
X134954513Y-139084862D01*
X134954513Y-139084862D02*
X135097370Y-139084862D01*
X135097370Y-139084862D02*
X135192608Y-139132481D01*
X135192608Y-139132481D02*
X135240227Y-139180100D01*
X135240227Y-139180100D02*
X135287846Y-139275338D01*
X135287846Y-139275338D02*
X135287846Y-139656290D01*
X135192608Y-138513433D02*
X135144989Y-138608671D01*
X135144989Y-138608671D02*
X135097370Y-138656290D01*
X135097370Y-138656290D02*
X135002132Y-138703909D01*
X135002132Y-138703909D02*
X134954513Y-138703909D01*
X134954513Y-138703909D02*
X134859275Y-138656290D01*
X134859275Y-138656290D02*
X134811656Y-138608671D01*
X134811656Y-138608671D02*
X134764037Y-138513433D01*
X134764037Y-138513433D02*
X134764037Y-138322957D01*
X134764037Y-138322957D02*
X134811656Y-138227719D01*
X134811656Y-138227719D02*
X134859275Y-138180100D01*
X134859275Y-138180100D02*
X134954513Y-138132481D01*
X134954513Y-138132481D02*
X135002132Y-138132481D01*
X135002132Y-138132481D02*
X135097370Y-138180100D01*
X135097370Y-138180100D02*
X135144989Y-138227719D01*
X135144989Y-138227719D02*
X135192608Y-138322957D01*
X135192608Y-138322957D02*
X135192608Y-138513433D01*
X135192608Y-138513433D02*
X135240227Y-138608671D01*
X135240227Y-138608671D02*
X135287846Y-138656290D01*
X135287846Y-138656290D02*
X135383084Y-138703909D01*
X135383084Y-138703909D02*
X135573560Y-138703909D01*
X135573560Y-138703909D02*
X135668798Y-138656290D01*
X135668798Y-138656290D02*
X135716418Y-138608671D01*
X135716418Y-138608671D02*
X135764037Y-138513433D01*
X135764037Y-138513433D02*
X135764037Y-138322957D01*
X135764037Y-138322957D02*
X135716418Y-138227719D01*
X135716418Y-138227719D02*
X135668798Y-138180100D01*
X135668798Y-138180100D02*
X135573560Y-138132481D01*
X135573560Y-138132481D02*
X135383084Y-138132481D01*
X135383084Y-138132481D02*
X135287846Y-138180100D01*
X135287846Y-138180100D02*
X135240227Y-138227719D01*
X135240227Y-138227719D02*
X135192608Y-138322957D01*
X169204819Y-141771885D02*
X168728628Y-142105218D01*
X169204819Y-142343313D02*
X168204819Y-142343313D01*
X168204819Y-142343313D02*
X168204819Y-141962361D01*
X168204819Y-141962361D02*
X168252438Y-141867123D01*
X168252438Y-141867123D02*
X168300057Y-141819504D01*
X168300057Y-141819504D02*
X168395295Y-141771885D01*
X168395295Y-141771885D02*
X168538152Y-141771885D01*
X168538152Y-141771885D02*
X168633390Y-141819504D01*
X168633390Y-141819504D02*
X168681009Y-141867123D01*
X168681009Y-141867123D02*
X168728628Y-141962361D01*
X168728628Y-141962361D02*
X168728628Y-142343313D01*
X169204819Y-140819504D02*
X169204819Y-141390932D01*
X169204819Y-141105218D02*
X168204819Y-141105218D01*
X168204819Y-141105218D02*
X168347676Y-141200456D01*
X168347676Y-141200456D02*
X168442914Y-141295694D01*
X168442914Y-141295694D02*
X168490533Y-141390932D01*
X168538152Y-139962361D02*
X169204819Y-139962361D01*
X168157200Y-140200456D02*
X168871485Y-140438551D01*
X168871485Y-140438551D02*
X168871485Y-139819504D01*
D11*
%TO.C,DLED1*%
X154258723Y-127451260D02*
X155116690Y-126731332D01*
X154515835Y-127757677D02*
X154258723Y-127451260D01*
X154515835Y-127757677D02*
X159234673Y-123798110D01*
X155116690Y-126731332D02*
X155373811Y-127037756D01*
X155245452Y-128829438D02*
X155245452Y-128829438D01*
X155245452Y-128829438D02*
X155345035Y-128745873D01*
X155345035Y-128745873D02*
X155245452Y-128829438D01*
X155345035Y-128745873D02*
X155345035Y-128745873D01*
X155373811Y-127037756D02*
X154515835Y-127757677D01*
X156878129Y-130775189D02*
X156878129Y-130775189D01*
X156878129Y-130775189D02*
X156977712Y-130691623D01*
X156977712Y-130691623D02*
X156878129Y-130775189D01*
X156977712Y-130691623D02*
X156977712Y-130691623D01*
X157806915Y-131679830D02*
X154515835Y-127757677D01*
X157806915Y-131679830D02*
X162525745Y-127720250D01*
X159234673Y-123798110D02*
G75*
G02*
X162525746Y-127720251I1645539J-1961068D01*
G01*
%TO.C,R9*%
X121602000Y-136570000D02*
X121932000Y-136570000D01*
X121602000Y-143110000D02*
X121602000Y-136570000D01*
X121932000Y-143110000D02*
X121602000Y-143110000D01*
X124012000Y-143110000D02*
X124342000Y-143110000D01*
X124342000Y-136570000D02*
X124012000Y-136570000D01*
X124342000Y-143110000D02*
X124342000Y-136570000D01*
%TO.C,Q1*%
X136500000Y-131480000D02*
X136500000Y-127880000D01*
X132050000Y-129680000D02*
G75*
G02*
X133551193Y-127323600I2600000J0D01*
G01*
X133551193Y-132036400D02*
G75*
G02*
X132050000Y-129680000I1098807J2356400D01*
G01*
X135772795Y-127355816D02*
G75*
G02*
X136500000Y-127880000I-1122795J-2324184D01*
G01*
X136500000Y-131480000D02*
G75*
G02*
X135772795Y-132004184I-1850000J1800000D01*
G01*
%TO.C,R10*%
X111246353Y-130279757D02*
X111576353Y-130279757D01*
X111246353Y-136819757D02*
X111246353Y-130279757D01*
X111576353Y-136819757D02*
X111246353Y-136819757D01*
X113656353Y-136819757D02*
X113986353Y-136819757D01*
X113986353Y-130279757D02*
X113656353Y-130279757D01*
X113986353Y-136819757D02*
X113986353Y-130279757D01*
%TO.C,D3*%
X172384000Y-133290000D02*
X172540000Y-133290000D01*
X174700000Y-133290000D02*
X174856000Y-133290000D01*
X172384484Y-133290000D02*
G75*
G02*
X172539939Y-130058603I1235516J1560000D01*
G01*
X172540000Y-132770961D02*
G75*
G02*
X172539951Y-130689090I1080000J1040961D01*
G01*
X174700049Y-130689090D02*
G75*
G02*
X174700000Y-132770961I-1080049J-1040910D01*
G01*
X174700061Y-130058603D02*
G75*
G02*
X174855516Y-133290000I-1080061J-1671397D01*
G01*
%TO.C,R15*%
X153352000Y-136316000D02*
X153682000Y-136316000D01*
X153352000Y-142856000D02*
X153352000Y-136316000D01*
X153682000Y-142856000D02*
X153352000Y-142856000D01*
X155762000Y-142856000D02*
X156092000Y-142856000D01*
X156092000Y-136316000D02*
X155762000Y-136316000D01*
X156092000Y-142856000D02*
X156092000Y-136316000D01*
%TO.C,C2*%
X104040000Y-141330000D02*
X102511000Y-141330000D01*
X104040000Y-141370000D02*
X102515000Y-141370000D01*
X104040000Y-141410000D02*
X102519000Y-141410000D01*
X104040000Y-141450000D02*
X102524000Y-141450000D01*
X104040000Y-141490000D02*
X102530000Y-141490000D01*
X104040000Y-141530000D02*
X102537000Y-141530000D01*
X104040000Y-141570000D02*
X102544000Y-141570000D01*
X104040000Y-141610000D02*
X102552000Y-141610000D01*
X104040000Y-141650000D02*
X102560000Y-141650000D01*
X104040000Y-141690000D02*
X102569000Y-141690000D01*
X104040000Y-141730000D02*
X102579000Y-141730000D01*
X104040000Y-141770000D02*
X102589000Y-141770000D01*
X104040000Y-141811000D02*
X102600000Y-141811000D01*
X104040000Y-141851000D02*
X102612000Y-141851000D01*
X104040000Y-141891000D02*
X102625000Y-141891000D01*
X104040000Y-141931000D02*
X102638000Y-141931000D01*
X104040000Y-141971000D02*
X102652000Y-141971000D01*
X104040000Y-142011000D02*
X102666000Y-142011000D01*
X104040000Y-142051000D02*
X102682000Y-142051000D01*
X104040000Y-142091000D02*
X102698000Y-142091000D01*
X104040000Y-142131000D02*
X102715000Y-142131000D01*
X104040000Y-142171000D02*
X102732000Y-142171000D01*
X104040000Y-142211000D02*
X102751000Y-142211000D01*
X104040000Y-142251000D02*
X102770000Y-142251000D01*
X104040000Y-142291000D02*
X102790000Y-142291000D01*
X104040000Y-142331000D02*
X102812000Y-142331000D01*
X104040000Y-142371000D02*
X102833000Y-142371000D01*
X104040000Y-142411000D02*
X102856000Y-142411000D01*
X104040000Y-142451000D02*
X102880000Y-142451000D01*
X104040000Y-142491000D02*
X102905000Y-142491000D01*
X104040000Y-142531000D02*
X102931000Y-142531000D01*
X104040000Y-142571000D02*
X102958000Y-142571000D01*
X104040000Y-142611000D02*
X102985000Y-142611000D01*
X104040000Y-142651000D02*
X103015000Y-142651000D01*
X104040000Y-142691000D02*
X103045000Y-142691000D01*
X104040000Y-142731000D02*
X103076000Y-142731000D01*
X104040000Y-142771000D02*
X103109000Y-142771000D01*
X104040000Y-142811000D02*
X103143000Y-142811000D01*
X104040000Y-142851000D02*
X103179000Y-142851000D01*
X104040000Y-142891000D02*
X103216000Y-142891000D01*
X104040000Y-142931000D02*
X103254000Y-142931000D01*
X104040000Y-142971000D02*
X103295000Y-142971000D01*
X104040000Y-143011000D02*
X103337000Y-143011000D01*
X104040000Y-143051000D02*
X103381000Y-143051000D01*
X104040000Y-143091000D02*
X103427000Y-143091000D01*
X104040000Y-143131000D02*
X103475000Y-143131000D01*
X104040000Y-143171000D02*
X103526000Y-143171000D01*
X104040000Y-143211000D02*
X103580000Y-143211000D01*
X104040000Y-143251000D02*
X103637000Y-143251000D01*
X104040000Y-143291000D02*
X103697000Y-143291000D01*
X104040000Y-143331000D02*
X103761000Y-143331000D01*
X104040000Y-143371000D02*
X103829000Y-143371000D01*
X105364000Y-143691000D02*
X104796000Y-143691000D01*
X105598000Y-143651000D02*
X104562000Y-143651000D01*
X105757000Y-143611000D02*
X104403000Y-143611000D01*
X105885000Y-143571000D02*
X104275000Y-143571000D01*
X105995000Y-143531000D02*
X104165000Y-143531000D01*
X106091000Y-143491000D02*
X104069000Y-143491000D01*
X106178000Y-143451000D02*
X103982000Y-143451000D01*
X106258000Y-143411000D02*
X103902000Y-143411000D01*
X106331000Y-143371000D02*
X106120000Y-143371000D01*
X106399000Y-143331000D02*
X106120000Y-143331000D01*
X106463000Y-143291000D02*
X106120000Y-143291000D01*
X106523000Y-143251000D02*
X106120000Y-143251000D01*
X106555000Y-138285225D02*
X106555000Y-138785225D01*
X106580000Y-143211000D02*
X106120000Y-143211000D01*
X106634000Y-143171000D02*
X106120000Y-143171000D01*
X106685000Y-143131000D02*
X106120000Y-143131000D01*
X106733000Y-143091000D02*
X106120000Y-143091000D01*
X106779000Y-143051000D02*
X106120000Y-143051000D01*
X106805000Y-138535225D02*
X106305000Y-138535225D01*
X106823000Y-143011000D02*
X106120000Y-143011000D01*
X106865000Y-142971000D02*
X106120000Y-142971000D01*
X106906000Y-142931000D02*
X106120000Y-142931000D01*
X106944000Y-142891000D02*
X106120000Y-142891000D01*
X106981000Y-142851000D02*
X106120000Y-142851000D01*
X107017000Y-142811000D02*
X106120000Y-142811000D01*
X107051000Y-142771000D02*
X106120000Y-142771000D01*
X107084000Y-142731000D02*
X106120000Y-142731000D01*
X107115000Y-142691000D02*
X106120000Y-142691000D01*
X107145000Y-142651000D02*
X106120000Y-142651000D01*
X107175000Y-142611000D02*
X106120000Y-142611000D01*
X107202000Y-142571000D02*
X106120000Y-142571000D01*
X107229000Y-142531000D02*
X106120000Y-142531000D01*
X107255000Y-142491000D02*
X106120000Y-142491000D01*
X107280000Y-142451000D02*
X106120000Y-142451000D01*
X107304000Y-142411000D02*
X106120000Y-142411000D01*
X107327000Y-142371000D02*
X106120000Y-142371000D01*
X107348000Y-142331000D02*
X106120000Y-142331000D01*
X107370000Y-142291000D02*
X106120000Y-142291000D01*
X107390000Y-142251000D02*
X106120000Y-142251000D01*
X107409000Y-142211000D02*
X106120000Y-142211000D01*
X107428000Y-142171000D02*
X106120000Y-142171000D01*
X107445000Y-142131000D02*
X106120000Y-142131000D01*
X107462000Y-142091000D02*
X106120000Y-142091000D01*
X107478000Y-142051000D02*
X106120000Y-142051000D01*
X107494000Y-142011000D02*
X106120000Y-142011000D01*
X107508000Y-141971000D02*
X106120000Y-141971000D01*
X107522000Y-141931000D02*
X106120000Y-141931000D01*
X107535000Y-141891000D02*
X106120000Y-141891000D01*
X107548000Y-141851000D02*
X106120000Y-141851000D01*
X107560000Y-141811000D02*
X106120000Y-141811000D01*
X107571000Y-141770000D02*
X106120000Y-141770000D01*
X107581000Y-141730000D02*
X106120000Y-141730000D01*
X107591000Y-141690000D02*
X106120000Y-141690000D01*
X107600000Y-141650000D02*
X106120000Y-141650000D01*
X107608000Y-141610000D02*
X106120000Y-141610000D01*
X107616000Y-141570000D02*
X106120000Y-141570000D01*
X107623000Y-141530000D02*
X106120000Y-141530000D01*
X107630000Y-141490000D02*
X106120000Y-141490000D01*
X107636000Y-141450000D02*
X106120000Y-141450000D01*
X107641000Y-141410000D02*
X106120000Y-141410000D01*
X107645000Y-141370000D02*
X106120000Y-141370000D01*
X107649000Y-141330000D02*
X106120000Y-141330000D01*
X107653000Y-141290000D02*
X102507000Y-141290000D01*
X107656000Y-141250000D02*
X102504000Y-141250000D01*
X107658000Y-141210000D02*
X102502000Y-141210000D01*
X107659000Y-141170000D02*
X102501000Y-141170000D01*
X107660000Y-141090000D02*
X102500000Y-141090000D01*
X107660000Y-141130000D02*
X102500000Y-141130000D01*
X107700000Y-141090000D02*
G75*
G02*
X102460000Y-141090000I-2620000J0D01*
G01*
X102460000Y-141090000D02*
G75*
G02*
X107700000Y-141090000I2620000J0D01*
G01*
%TO.C,R12*%
X174830000Y-137840000D02*
X175160000Y-137840000D01*
X174830000Y-144380000D02*
X174830000Y-137840000D01*
X175160000Y-144380000D02*
X174830000Y-144380000D01*
X177240000Y-144380000D02*
X177570000Y-144380000D01*
X177570000Y-137840000D02*
X177240000Y-137840000D01*
X177570000Y-144380000D02*
X177570000Y-137840000D01*
%TO.C,Q2*%
X144744000Y-129658000D02*
X144744000Y-133258000D01*
X144744000Y-129658000D02*
G75*
G02*
X145471205Y-129133816I1850000J-1800000D01*
G01*
X145471205Y-133782184D02*
G75*
G02*
X144744000Y-133258000I1122795J2324184D01*
G01*
X147692807Y-129101600D02*
G75*
G02*
X149194000Y-131458000I-1098807J-2356400D01*
G01*
X149194000Y-131458000D02*
G75*
G02*
X147692807Y-133814400I-2600000J0D01*
G01*
%TO.C,DLED2*%
X122318021Y-131266274D02*
X122575142Y-130959851D01*
X122575142Y-130959851D02*
X123433109Y-131679779D01*
X123175996Y-131986193D02*
X122318021Y-131266274D01*
X123433109Y-131679779D02*
X118714281Y-127720203D01*
X123433109Y-131679779D02*
X123175996Y-131986193D01*
X124262305Y-130691581D02*
X124262305Y-130691581D01*
X124262305Y-130691581D02*
X124361888Y-130775148D01*
X124361888Y-130775148D02*
X124262305Y-130691581D01*
X124361888Y-130775148D02*
X124361888Y-130775148D01*
X125894989Y-128745828D02*
X125894989Y-128745828D01*
X125894989Y-128745828D02*
X125994572Y-128829388D01*
X125994572Y-128829388D02*
X125894989Y-128745828D01*
X125994572Y-128829388D02*
X125994572Y-128829388D01*
X126724185Y-127757634D02*
X122005344Y-123798060D01*
X126724185Y-127757634D02*
X123433109Y-131679779D01*
X118714281Y-127720203D02*
G75*
G02*
X122005344Y-123798060I1645536J1961068D01*
G01*
%TO.C,R2*%
X111071185Y-148630000D02*
X111071185Y-148960000D01*
X111071185Y-151370000D02*
X111071185Y-151040000D01*
X117611185Y-148630000D02*
X111071185Y-148630000D01*
X117611185Y-148960000D02*
X117611185Y-148630000D01*
X117611185Y-151040000D02*
X117611185Y-151370000D01*
X117611185Y-151370000D02*
X111071185Y-151370000D01*
%TO.C,J1*%
X120260000Y-148790000D02*
X120260000Y-147460000D01*
X121590000Y-148790000D02*
X120260000Y-148790000D01*
X122860000Y-146130000D02*
X161020000Y-146130000D01*
X122860000Y-148790000D02*
X122860000Y-146130000D01*
X122860000Y-148790000D02*
X161020000Y-148790000D01*
X161020000Y-148790000D02*
X161020000Y-146130000D01*
%TO.C,R11*%
X144100954Y-137089991D02*
X144100954Y-143629991D01*
X144100954Y-143629991D02*
X144430954Y-143629991D01*
X144430954Y-137089991D02*
X144100954Y-137089991D01*
X146510954Y-137089991D02*
X146840954Y-137089991D01*
X146840954Y-137089991D02*
X146840954Y-143629991D01*
X146840954Y-143629991D02*
X146510954Y-143629991D01*
%TO.C,R3*%
X150250000Y-136316000D02*
X150580000Y-136316000D01*
X150250000Y-142856000D02*
X150250000Y-136316000D01*
X150580000Y-142856000D02*
X150250000Y-142856000D01*
X152660000Y-142856000D02*
X152990000Y-142856000D01*
X152990000Y-136316000D02*
X152660000Y-136316000D01*
X152990000Y-142856000D02*
X152990000Y-136316000D01*
%TO.C,C1*%
X104040000Y-148950000D02*
X102511000Y-148950000D01*
X104040000Y-148990000D02*
X102515000Y-148990000D01*
X104040000Y-149030000D02*
X102519000Y-149030000D01*
X104040000Y-149070000D02*
X102524000Y-149070000D01*
X104040000Y-149110000D02*
X102530000Y-149110000D01*
X104040000Y-149150000D02*
X102537000Y-149150000D01*
X104040000Y-149190000D02*
X102544000Y-149190000D01*
X104040000Y-149230000D02*
X102552000Y-149230000D01*
X104040000Y-149270000D02*
X102560000Y-149270000D01*
X104040000Y-149310000D02*
X102569000Y-149310000D01*
X104040000Y-149350000D02*
X102579000Y-149350000D01*
X104040000Y-149390000D02*
X102589000Y-149390000D01*
X104040000Y-149431000D02*
X102600000Y-149431000D01*
X104040000Y-149471000D02*
X102612000Y-149471000D01*
X104040000Y-149511000D02*
X102625000Y-149511000D01*
X104040000Y-149551000D02*
X102638000Y-149551000D01*
X104040000Y-149591000D02*
X102652000Y-149591000D01*
X104040000Y-149631000D02*
X102666000Y-149631000D01*
X104040000Y-149671000D02*
X102682000Y-149671000D01*
X104040000Y-149711000D02*
X102698000Y-149711000D01*
X104040000Y-149751000D02*
X102715000Y-149751000D01*
X104040000Y-149791000D02*
X102732000Y-149791000D01*
X104040000Y-149831000D02*
X102751000Y-149831000D01*
X104040000Y-149871000D02*
X102770000Y-149871000D01*
X104040000Y-149911000D02*
X102790000Y-149911000D01*
X104040000Y-149951000D02*
X102812000Y-149951000D01*
X104040000Y-149991000D02*
X102833000Y-149991000D01*
X104040000Y-150031000D02*
X102856000Y-150031000D01*
X104040000Y-150071000D02*
X102880000Y-150071000D01*
X104040000Y-150111000D02*
X102905000Y-150111000D01*
X104040000Y-150151000D02*
X102931000Y-150151000D01*
X104040000Y-150191000D02*
X102958000Y-150191000D01*
X104040000Y-150231000D02*
X102985000Y-150231000D01*
X104040000Y-150271000D02*
X103015000Y-150271000D01*
X104040000Y-150311000D02*
X103045000Y-150311000D01*
X104040000Y-150351000D02*
X103076000Y-150351000D01*
X104040000Y-150391000D02*
X103109000Y-150391000D01*
X104040000Y-150431000D02*
X103143000Y-150431000D01*
X104040000Y-150471000D02*
X103179000Y-150471000D01*
X104040000Y-150511000D02*
X103216000Y-150511000D01*
X104040000Y-150551000D02*
X103254000Y-150551000D01*
X104040000Y-150591000D02*
X103295000Y-150591000D01*
X104040000Y-150631000D02*
X103337000Y-150631000D01*
X104040000Y-150671000D02*
X103381000Y-150671000D01*
X104040000Y-150711000D02*
X103427000Y-150711000D01*
X104040000Y-150751000D02*
X103475000Y-150751000D01*
X104040000Y-150791000D02*
X103526000Y-150791000D01*
X104040000Y-150831000D02*
X103580000Y-150831000D01*
X104040000Y-150871000D02*
X103637000Y-150871000D01*
X104040000Y-150911000D02*
X103697000Y-150911000D01*
X104040000Y-150951000D02*
X103761000Y-150951000D01*
X104040000Y-150991000D02*
X103829000Y-150991000D01*
X105364000Y-151311000D02*
X104796000Y-151311000D01*
X105598000Y-151271000D02*
X104562000Y-151271000D01*
X105757000Y-151231000D02*
X104403000Y-151231000D01*
X105885000Y-151191000D02*
X104275000Y-151191000D01*
X105995000Y-151151000D02*
X104165000Y-151151000D01*
X106091000Y-151111000D02*
X104069000Y-151111000D01*
X106178000Y-151071000D02*
X103982000Y-151071000D01*
X106258000Y-151031000D02*
X103902000Y-151031000D01*
X106331000Y-150991000D02*
X106120000Y-150991000D01*
X106399000Y-150951000D02*
X106120000Y-150951000D01*
X106463000Y-150911000D02*
X106120000Y-150911000D01*
X106523000Y-150871000D02*
X106120000Y-150871000D01*
X106555000Y-145905225D02*
X106555000Y-146405225D01*
X106580000Y-150831000D02*
X106120000Y-150831000D01*
X106634000Y-150791000D02*
X106120000Y-150791000D01*
X106685000Y-150751000D02*
X106120000Y-150751000D01*
X106733000Y-150711000D02*
X106120000Y-150711000D01*
X106779000Y-150671000D02*
X106120000Y-150671000D01*
X106805000Y-146155225D02*
X106305000Y-146155225D01*
X106823000Y-150631000D02*
X106120000Y-150631000D01*
X106865000Y-150591000D02*
X106120000Y-150591000D01*
X106906000Y-150551000D02*
X106120000Y-150551000D01*
X106944000Y-150511000D02*
X106120000Y-150511000D01*
X106981000Y-150471000D02*
X106120000Y-150471000D01*
X107017000Y-150431000D02*
X106120000Y-150431000D01*
X107051000Y-150391000D02*
X106120000Y-150391000D01*
X107084000Y-150351000D02*
X106120000Y-150351000D01*
X107115000Y-150311000D02*
X106120000Y-150311000D01*
X107145000Y-150271000D02*
X106120000Y-150271000D01*
X107175000Y-150231000D02*
X106120000Y-150231000D01*
X107202000Y-150191000D02*
X106120000Y-150191000D01*
X107229000Y-150151000D02*
X106120000Y-150151000D01*
X107255000Y-150111000D02*
X106120000Y-150111000D01*
X107280000Y-150071000D02*
X106120000Y-150071000D01*
X107304000Y-150031000D02*
X106120000Y-150031000D01*
X107327000Y-149991000D02*
X106120000Y-149991000D01*
X107348000Y-149951000D02*
X106120000Y-149951000D01*
X107370000Y-149911000D02*
X106120000Y-149911000D01*
X107390000Y-149871000D02*
X106120000Y-149871000D01*
X107409000Y-149831000D02*
X106120000Y-149831000D01*
X107428000Y-149791000D02*
X106120000Y-149791000D01*
X107445000Y-149751000D02*
X106120000Y-149751000D01*
X107462000Y-149711000D02*
X106120000Y-149711000D01*
X107478000Y-149671000D02*
X106120000Y-149671000D01*
X107494000Y-149631000D02*
X106120000Y-149631000D01*
X107508000Y-149591000D02*
X106120000Y-149591000D01*
X107522000Y-149551000D02*
X106120000Y-149551000D01*
X107535000Y-149511000D02*
X106120000Y-149511000D01*
X107548000Y-149471000D02*
X106120000Y-149471000D01*
X107560000Y-149431000D02*
X106120000Y-149431000D01*
X107571000Y-149390000D02*
X106120000Y-149390000D01*
X107581000Y-149350000D02*
X106120000Y-149350000D01*
X107591000Y-149310000D02*
X106120000Y-149310000D01*
X107600000Y-149270000D02*
X106120000Y-149270000D01*
X107608000Y-149230000D02*
X106120000Y-149230000D01*
X107616000Y-149190000D02*
X106120000Y-149190000D01*
X107623000Y-149150000D02*
X106120000Y-149150000D01*
X107630000Y-149110000D02*
X106120000Y-149110000D01*
X107636000Y-149070000D02*
X106120000Y-149070000D01*
X107641000Y-149030000D02*
X106120000Y-149030000D01*
X107645000Y-148990000D02*
X106120000Y-148990000D01*
X107649000Y-148950000D02*
X106120000Y-148950000D01*
X107653000Y-148910000D02*
X102507000Y-148910000D01*
X107656000Y-148870000D02*
X102504000Y-148870000D01*
X107658000Y-148830000D02*
X102502000Y-148830000D01*
X107659000Y-148790000D02*
X102501000Y-148790000D01*
X107660000Y-148710000D02*
X102500000Y-148710000D01*
X107660000Y-148750000D02*
X102500000Y-148750000D01*
X107700000Y-148710000D02*
G75*
G02*
X102460000Y-148710000I-2620000J0D01*
G01*
X102460000Y-148710000D02*
G75*
G02*
X107700000Y-148710000I2620000J0D01*
G01*
%TO.C,D2*%
X163690000Y-133200000D02*
X163534000Y-133200000D01*
X166006000Y-133200000D02*
X165850000Y-133200000D01*
X163689939Y-136431397D02*
G75*
G02*
X163534484Y-133200000I1080061J1671397D01*
G01*
X163689951Y-135800910D02*
G75*
G02*
X163690000Y-133719039I1080049J1040910D01*
G01*
X165850000Y-133719039D02*
G75*
G02*
X165850049Y-135800910I-1080000J-1040961D01*
G01*
X166005516Y-133200000D02*
G75*
G02*
X165850061Y-136431397I-1235516J-1560000D01*
G01*
%TO.C,R1*%
X124904000Y-136570000D02*
X125234000Y-136570000D01*
X124904000Y-143110000D02*
X124904000Y-136570000D01*
X125234000Y-143110000D02*
X124904000Y-143110000D01*
X127314000Y-143110000D02*
X127644000Y-143110000D01*
X127644000Y-136570000D02*
X127314000Y-136570000D01*
X127644000Y-143110000D02*
X127644000Y-136570000D01*
%TO.C,R4*%
X128079231Y-136544628D02*
X128079231Y-143084628D01*
X128079231Y-143084628D02*
X128409231Y-143084628D01*
X128409231Y-136544628D02*
X128079231Y-136544628D01*
X130489231Y-136544628D02*
X130819231Y-136544628D01*
X130819231Y-136544628D02*
X130819231Y-143084628D01*
X130819231Y-143084628D02*
X130489231Y-143084628D01*
%TO.C,D1*%
X106384000Y-133272000D02*
X106540000Y-133272000D01*
X108700000Y-133272000D02*
X108856000Y-133272000D01*
X106384484Y-133272000D02*
G75*
G02*
X106539939Y-130040603I1235516J1560000D01*
G01*
X106540000Y-132752961D02*
G75*
G02*
X106539951Y-130671090I1080000J1040961D01*
G01*
X108700049Y-130671090D02*
G75*
G02*
X108700000Y-132752961I-1080049J-1040910D01*
G01*
X108700061Y-130040603D02*
G75*
G02*
X108855516Y-133272000I-1080061J-1671397D01*
G01*
%TO.C,R13*%
X156654000Y-136316000D02*
X156984000Y-136316000D01*
X156654000Y-142856000D02*
X156654000Y-136316000D01*
X156984000Y-142856000D02*
X156654000Y-142856000D01*
X159064000Y-142856000D02*
X159394000Y-142856000D01*
X159394000Y-136316000D02*
X159064000Y-136316000D01*
X159394000Y-142856000D02*
X159394000Y-136316000D01*
%TO.C,R7*%
X114802353Y-130279757D02*
X115132353Y-130279757D01*
X114802353Y-136819757D02*
X114802353Y-130279757D01*
X115132353Y-136819757D02*
X114802353Y-136819757D01*
X117212353Y-136819757D02*
X117542353Y-136819757D01*
X117542353Y-130279757D02*
X117212353Y-130279757D01*
X117542353Y-136819757D02*
X117542353Y-130279757D01*
%TO.C,R6*%
X147219168Y-137085384D02*
X147219168Y-143625384D01*
X147219168Y-143625384D02*
X147549168Y-143625384D01*
X147549168Y-137085384D02*
X147219168Y-137085384D01*
X149629168Y-137085384D02*
X149959168Y-137085384D01*
X149959168Y-137085384D02*
X149959168Y-143625384D01*
X149959168Y-143625384D02*
X149629168Y-143625384D01*
%TO.C,FLED1*%
X137690000Y-132822000D02*
X138090000Y-132822000D01*
X137690000Y-133942000D02*
X137690000Y-132822000D01*
X138090000Y-132822000D02*
X138090000Y-133942000D01*
X138090000Y-133942000D02*
X137690000Y-133942000D01*
X138090000Y-133942000D02*
X138090000Y-127782000D01*
X139380000Y-133942000D02*
X139380000Y-133942000D01*
X139380000Y-133942000D02*
X139380000Y-134072000D01*
X139380000Y-134072000D02*
X139380000Y-133942000D01*
X139380000Y-134072000D02*
X139380000Y-134072000D01*
X141920000Y-133942000D02*
X141920000Y-133942000D01*
X141920000Y-133942000D02*
X141920000Y-134072000D01*
X141920000Y-134072000D02*
X141920000Y-133942000D01*
X141920000Y-134072000D02*
X141920000Y-134072000D01*
X143210000Y-133942000D02*
X138090000Y-133942000D01*
X143210000Y-133942000D02*
X143210000Y-127782000D01*
X138090000Y-127782000D02*
G75*
G02*
X143210000Y-127782000I2560000J0D01*
G01*
%TO.C,R8*%
X133939218Y-135648196D02*
X133939218Y-142188196D01*
X133939218Y-142188196D02*
X134269218Y-142188196D01*
X134269218Y-135648196D02*
X133939218Y-135648196D01*
X136349218Y-135648196D02*
X136679218Y-135648196D01*
X136679218Y-135648196D02*
X136679218Y-142188196D01*
X136679218Y-142188196D02*
X136349218Y-142188196D01*
%TO.C,R14*%
X169750000Y-137859028D02*
X170080000Y-137859028D01*
X169750000Y-144399028D02*
X169750000Y-137859028D01*
X170080000Y-144399028D02*
X169750000Y-144399028D01*
X172160000Y-144399028D02*
X172490000Y-144399028D01*
X172490000Y-137859028D02*
X172160000Y-137859028D01*
X172490000Y-144399028D02*
X172490000Y-137859028D01*
%TD*%
M02*
