%TF.GenerationSoftware,KiCad,Pcbnew,8.0.8*%
%TF.CreationDate,2025-03-19T14:40:51+00:00*%
%TF.ProjectId,UKMARSBOT_RP2040Chassis,554b4d41-5253-4424-9f54-5f5250323034,rev?*%
%TF.SameCoordinates,Original*%
%TF.FileFunction,Soldermask,Top*%
%TF.FilePolarity,Negative*%
%FSLAX46Y46*%
G04 Gerber Fmt 4.6, Leading zero omitted, Abs format (unit mm)*
G04 Created by KiCad (PCBNEW 8.0.8) date 2025-03-19 14:40:51*
%MOMM*%
%LPD*%
G01*
G04 APERTURE LIST*
G04 Aperture macros list*
%AMRoundRect*
0 Rectangle with rounded corners*
0 $1 Rounding radius*
0 $2 $3 $4 $5 $6 $7 $8 $9 X,Y pos of 4 corners*
0 Add a 4 corners polygon primitive as box body*
4,1,4,$2,$3,$4,$5,$6,$7,$8,$9,$2,$3,0*
0 Add four circle primitives for the rounded corners*
1,1,$1+$1,$2,$3*
1,1,$1+$1,$4,$5*
1,1,$1+$1,$6,$7*
1,1,$1+$1,$8,$9*
0 Add four rect primitives between the rounded corners*
20,1,$1+$1,$2,$3,$4,$5,0*
20,1,$1+$1,$4,$5,$6,$7,0*
20,1,$1+$1,$6,$7,$8,$9,0*
20,1,$1+$1,$8,$9,$2,$3,0*%
G04 Aperture macros list end*
%ADD10R,1.700000X1.700000*%
%ADD11O,1.700000X1.700000*%
%ADD12C,3.200000*%
%ADD13R,1.905000X2.000000*%
%ADD14O,1.905000X2.000000*%
%ADD15C,1.600000*%
%ADD16R,1.600000X1.600000*%
%ADD17RoundRect,0.101600X-0.762000X-1.524000X0.762000X-1.524000X0.762000X1.524000X-0.762000X1.524000X0*%
%ADD18O,1.727200X3.251200*%
%ADD19R,3.200000X3.200000*%
%ADD20O,3.200000X3.200000*%
%ADD21RoundRect,0.101600X0.762000X1.524000X-0.762000X1.524000X-0.762000X-1.524000X0.762000X-1.524000X0*%
%ADD22O,2.000000X1.200000*%
%ADD23O,1.600000X1.600000*%
%ADD24RoundRect,0.250000X0.620000X0.845000X-0.620000X0.845000X-0.620000X-0.845000X0.620000X-0.845000X0*%
%ADD25O,1.740000X2.190000*%
G04 APERTURE END LIST*
D10*
%TO.C,J7*%
X93980000Y-137110000D03*
D11*
X91440000Y-137110000D03*
X88900000Y-137110000D03*
%TD*%
D12*
%TO.C,H4*%
X170020000Y-77380000D03*
%TD*%
D13*
%TO.C,U2*%
X91520000Y-65610000D03*
D14*
X94060000Y-65610000D03*
X96600000Y-65610000D03*
%TD*%
D15*
%TO.C,C1*%
X87000000Y-67710000D03*
X87000000Y-62710000D03*
%TD*%
D12*
%TO.C,H1*%
X91290000Y-101510000D03*
%TD*%
D15*
%TO.C,C2*%
X101600000Y-67710000D03*
X101600000Y-62710000D03*
%TD*%
D12*
%TO.C,H6*%
X170020000Y-125640000D03*
%TD*%
D16*
%TO.C,C3*%
X149860000Y-137160000D03*
D15*
X147360000Y-137160000D03*
%TD*%
D12*
%TO.C,H2*%
X177590000Y-101510000D03*
%TD*%
%TO.C,M2*%
X111490000Y-128785000D03*
X129490000Y-128785000D03*
%TD*%
%TO.C,M1*%
X129490000Y-74310000D03*
X111490000Y-74310000D03*
%TD*%
%TO.C,H5*%
X161290000Y-125730000D03*
%TD*%
D17*
%TO.C,J1*%
X149860000Y-73660000D03*
D18*
X147320000Y-73406000D03*
X144780000Y-73660000D03*
X142240000Y-73406000D03*
X139700000Y-73660000D03*
X137160000Y-73406000D03*
%TD*%
D12*
%TO.C,H3*%
X161290000Y-77470000D03*
%TD*%
D19*
%TO.C,D1*%
X160020000Y-109220000D03*
D20*
X160020000Y-93980000D03*
%TD*%
D10*
%TO.C,J4*%
X106680000Y-121920000D03*
D11*
X106680000Y-119380000D03*
X106680000Y-116840000D03*
X106680000Y-114300000D03*
X106680000Y-111760000D03*
X106680000Y-109220000D03*
%TD*%
D16*
%TO.C,C4*%
X147360000Y-66040000D03*
D15*
X149860000Y-66040000D03*
%TD*%
D21*
%TO.C,J2*%
X137160000Y-129286000D03*
D18*
X139700000Y-129540000D03*
X142240000Y-129286000D03*
X144780000Y-129540000D03*
X147320000Y-129286000D03*
X149860000Y-129540000D03*
%TD*%
D22*
%TO.C,U1*%
X154940000Y-106680000D03*
X154940000Y-104140000D03*
X154940000Y-101600000D03*
X154940000Y-99060000D03*
X154940000Y-96520000D03*
X154940000Y-93980000D03*
X140440000Y-93980000D03*
X140440000Y-96520000D03*
X140440000Y-99060000D03*
X140440000Y-101600000D03*
X140440000Y-104140000D03*
X140440000Y-106680000D03*
%TD*%
D10*
%TO.C,J3*%
X106680000Y-81280000D03*
D11*
X106680000Y-83820000D03*
X106680000Y-86360000D03*
X106680000Y-88900000D03*
X106680000Y-91440000D03*
X106680000Y-93980000D03*
%TD*%
D15*
%TO.C,R1*%
X154940000Y-109220000D03*
D23*
X147320000Y-109220000D03*
%TD*%
D24*
%TO.C,J6*%
X93980000Y-130810000D03*
D25*
X91440000Y-130810000D03*
%TD*%
M02*
