%TF.GenerationSoftware,KiCad,Pcbnew,8.0.8*%
%TF.CreationDate,2025-08-16T13:49:53+01:00*%
%TF.ProjectId,UKMARSBOT_RP2040Chassis,554b4d41-5253-4424-9f54-5f5250323034,rev?*%
%TF.SameCoordinates,Original*%
%TF.FileFunction,Copper,L2,Bot*%
%TF.FilePolarity,Positive*%
%FSLAX46Y46*%
G04 Gerber Fmt 4.6, Leading zero omitted, Abs format (unit mm)*
G04 Created by KiCad (PCBNEW 8.0.8) date 2025-08-16 13:49:53*
%MOMM*%
%LPD*%
G01*
G04 APERTURE LIST*
%TA.AperFunction,ComponentPad*%
%ADD10R,1.500000X1.500000*%
%TD*%
%TA.AperFunction,ComponentPad*%
%ADD11C,1.600000*%
%TD*%
%TA.AperFunction,ComponentPad*%
%ADD12C,1.524000*%
%TD*%
%TA.AperFunction,ComponentPad*%
%ADD13R,1.905000X2.000000*%
%TD*%
%TA.AperFunction,ComponentPad*%
%ADD14O,1.905000X2.000000*%
%TD*%
%TA.AperFunction,ComponentPad*%
%ADD15O,1.524000X3.048000*%
%TD*%
%TA.AperFunction,ComponentPad*%
%ADD16R,1.600000X1.600000*%
%TD*%
%TA.AperFunction,ComponentPad*%
%ADD17R,1.524000X3.048000*%
%TD*%
%TA.AperFunction,ComponentPad*%
%ADD18R,3.200000X3.200000*%
%TD*%
%TA.AperFunction,ComponentPad*%
%ADD19O,3.200000X3.200000*%
%TD*%
%TA.AperFunction,ComponentPad*%
%ADD20R,3.048000X1.524000*%
%TD*%
%TA.AperFunction,ComponentPad*%
%ADD21O,3.048000X1.524000*%
%TD*%
%TA.AperFunction,ComponentPad*%
%ADD22R,1.700000X1.700000*%
%TD*%
%TA.AperFunction,ComponentPad*%
%ADD23O,1.700000X1.700000*%
%TD*%
%TA.AperFunction,ViaPad*%
%ADD24C,0.800000*%
%TD*%
%TA.AperFunction,Conductor*%
%ADD25C,1.250000*%
%TD*%
%TA.AperFunction,Conductor*%
%ADD26C,0.800000*%
%TD*%
%TA.AperFunction,Conductor*%
%ADD27C,0.600000*%
%TD*%
G04 APERTURE END LIST*
D10*
%TO.P,J7,1,Pin_1*%
%TO.N,/PWR_IN*%
X91440000Y-137160000D03*
D11*
%TO.P,J7,2,Pin_2*%
%TO.N,unconnected-(J7-Pin_2-Pad2)*%
X88900000Y-137160000D03*
%TO.P,J7,3,Pin_3*%
%TO.N,/PWR*%
X93980000Y-137160000D03*
D12*
%TO.P,J7,4*%
%TO.N,N/C*%
X96520000Y-137160000D03*
%TO.P,J7,5*%
X86360000Y-137160000D03*
%TD*%
D13*
%TO.P,U2,1,VI*%
%TO.N,Vbatt*%
X91520000Y-65610000D03*
D14*
%TO.P,U2,2,GND*%
%TO.N,GND*%
X94060000Y-65610000D03*
%TO.P,U2,3,VO*%
%TO.N,5V*%
X96600000Y-65610000D03*
%TD*%
D15*
%TO.P,C1,1*%
%TO.N,Vbatt*%
X87000000Y-67710000D03*
%TO.P,C1,2*%
%TO.N,GND*%
X87000000Y-62710000D03*
%TD*%
%TO.P,C2,1*%
%TO.N,5V*%
X101600000Y-67710000D03*
%TO.P,C2,2*%
%TO.N,GND*%
X101600000Y-62710000D03*
%TD*%
D16*
%TO.P,C3,1*%
%TO.N,Vbatt*%
X134620000Y-113030000D03*
D11*
%TO.P,C3,2*%
%TO.N,GND*%
X132120000Y-113030000D03*
%TD*%
D17*
%TO.P,J1,1,GND*%
%TO.N,GND*%
X149860000Y-73660000D03*
D15*
%TO.P,J1,2,B*%
%TO.N,LQB*%
X147320000Y-73660000D03*
%TO.P,J1,3,A*%
%TO.N,LQA*%
X144780000Y-73660000D03*
%TO.P,J1,4,VCC*%
%TO.N,Vcc*%
X142240000Y-73660000D03*
%TO.P,J1,5,M2*%
%TO.N,LEFT_MOTOR_1*%
X139700000Y-73660000D03*
%TO.P,J1,6,M1*%
%TO.N,LEFT_MOTOR_2*%
X137160000Y-73660000D03*
%TD*%
D18*
%TO.P,D1,1,K*%
%TO.N,Vbatt*%
X160020000Y-93980000D03*
D19*
%TO.P,D1,2,A*%
%TO.N,/PWR*%
X160020000Y-109220000D03*
%TD*%
D20*
%TO.P,J4,1,Pin_1*%
%TO.N,LQB*%
X106680000Y-121920000D03*
D21*
%TO.P,J4,2,Pin_2*%
%TO.N,LQA*%
X106680000Y-119380000D03*
%TO.P,J4,3,Pin_3*%
%TO.N,RQB*%
X106680000Y-116840000D03*
%TO.P,J4,4,Pin_4*%
%TO.N,RQA*%
X106680000Y-114300000D03*
%TO.P,J4,5,Pin_5*%
%TO.N,Vcc*%
X106680000Y-111760000D03*
%TO.P,J4,6,Pin_6*%
%TO.N,Vbatt*%
X106680000Y-109220000D03*
%TD*%
D16*
%TO.P,C4,1*%
%TO.N,5V*%
X132120000Y-90170000D03*
D11*
%TO.P,C4,2*%
%TO.N,GND*%
X134620000Y-90170000D03*
%TD*%
D17*
%TO.P,J2,1,GND*%
%TO.N,GND*%
X137160000Y-129286000D03*
D15*
%TO.P,J2,2,B*%
%TO.N,RQB*%
X139700000Y-129286000D03*
%TO.P,J2,3,A*%
%TO.N,RQA*%
X142240000Y-129286000D03*
%TO.P,J2,4,VCC*%
%TO.N,Vcc*%
X144780000Y-129286000D03*
%TO.P,J2,5,M2*%
%TO.N,RIGHT_MOTOR_1*%
X147320000Y-129286000D03*
%TO.P,J2,6,M1*%
%TO.N,RIGHT_MOTOR_2*%
X149860000Y-129286000D03*
%TD*%
D21*
%TO.P,U1,1,SLEEP*%
%TO.N,Net-(U1-SLEEP)*%
X154940000Y-106680000D03*
%TO.P,U1,2,OUT1*%
%TO.N,LEFT_MOTOR_1*%
X154940000Y-104140000D03*
%TO.P,U1,3,OUT2*%
%TO.N,LEFT_MOTOR_2*%
X154940000Y-101600000D03*
%TO.P,U1,4,OUT3*%
%TO.N,RIGHT_MOTOR_1*%
X154940000Y-99060000D03*
%TO.P,U1,5,OUT4*%
%TO.N,RIGHT_MOTOR_2*%
X154940000Y-96520000D03*
%TO.P,U1,6,FAULT*%
%TO.N,unconnected-(U1-FAULT-Pad6)*%
X154940000Y-93980000D03*
%TO.P,U1,7,IN1*%
%TO.N,LMTR1*%
X140440000Y-93980000D03*
%TO.P,U1,8,IN2*%
%TO.N,LMTR2*%
X140440000Y-96520000D03*
%TO.P,U1,9,VCC*%
%TO.N,Vbatt*%
X140440000Y-99060000D03*
%TO.P,U1,10,GND*%
%TO.N,GND*%
X140440000Y-101600000D03*
%TO.P,U1,11,IN3*%
%TO.N,RMTR1*%
X140440000Y-104140000D03*
%TO.P,U1,12,IN4*%
%TO.N,RMTR2*%
X140440000Y-106680000D03*
%TD*%
D20*
%TO.P,J3,1,Pin_1*%
%TO.N,5V*%
X106680000Y-81280000D03*
D21*
%TO.P,J3,2,Pin_2*%
%TO.N,GND*%
X106680000Y-83820000D03*
%TO.P,J3,3,Pin_3*%
%TO.N,LMTR1*%
X106680000Y-86360000D03*
%TO.P,J3,4,Pin_4*%
%TO.N,LMTR2*%
X106680000Y-88900000D03*
%TO.P,J3,5,Pin_5*%
%TO.N,RMTR1*%
X106680000Y-91440000D03*
%TO.P,J3,6,Pin_6*%
%TO.N,RMTR2*%
X106680000Y-93980000D03*
%TD*%
D14*
%TO.P,R1,1*%
%TO.N,Net-(U1-SLEEP)*%
X154940000Y-109220000D03*
%TO.P,R1,2*%
%TO.N,Vbatt*%
X147320000Y-109220000D03*
%TD*%
D22*
%TO.P,J6,1,Pin_1*%
%TO.N,GND*%
X93980000Y-130810000D03*
D23*
%TO.P,J6,2,Pin_2*%
%TO.N,/PWR_IN*%
X91440000Y-130810000D03*
%TD*%
D24*
%TO.N,Vcc*%
X142240000Y-78740000D03*
X142240000Y-86360000D03*
%TO.N,LQB*%
X147320000Y-66040000D03*
%TO.N,LQA*%
X104140000Y-76200000D03*
X96520000Y-76200000D03*
X137160000Y-78740000D03*
%TD*%
D25*
%TO.N,GND*%
X94397526Y-98642474D02*
X94397526Y-73997526D01*
X95515000Y-129275000D02*
X95515000Y-99759948D01*
D26*
X87000000Y-62710000D02*
X93980000Y-62710000D01*
D25*
X99913000Y-64397000D02*
X99913000Y-69433000D01*
X94060000Y-74228000D02*
X94060000Y-73660000D01*
X134620000Y-85090000D02*
X134620000Y-90170000D01*
X132120000Y-116800000D02*
X132120000Y-113030000D01*
D26*
X93980000Y-62710000D02*
X101600000Y-62710000D01*
D25*
X140440000Y-101600000D02*
X139190000Y-101600000D01*
X133350000Y-83820000D02*
X134620000Y-85090000D01*
X134620000Y-87768630D02*
X134620000Y-88900000D01*
X93980000Y-130810000D02*
X95515000Y-129275000D01*
X134620000Y-90170000D02*
X134620000Y-97030000D01*
X149860000Y-82550000D02*
X149860000Y-73660000D01*
X138810000Y-101980000D02*
X132120000Y-108670000D01*
X132120000Y-108670000D02*
X132120000Y-113030000D01*
X99913000Y-69433000D02*
X109220000Y-78740000D01*
X95515000Y-99759948D02*
X94397526Y-98642474D01*
X109220000Y-83150000D02*
X108550000Y-83820000D01*
X132120000Y-116800000D02*
X137160000Y-121840000D01*
X108550000Y-83820000D02*
X133350000Y-83820000D01*
X139190000Y-101600000D02*
X138810000Y-101980000D01*
X143510000Y-88900000D02*
X149860000Y-82550000D01*
X94397526Y-73997526D02*
X94060000Y-73660000D01*
X134620000Y-97030000D02*
X138810000Y-101220000D01*
X138810000Y-101220000D02*
X138810000Y-101980000D01*
X109220000Y-78740000D02*
X109220000Y-83150000D01*
X94060000Y-62790000D02*
X93980000Y-62710000D01*
X94060000Y-65610000D02*
X94060000Y-62790000D01*
D26*
X101600000Y-62710000D02*
X101205000Y-63105000D01*
D25*
X137160000Y-121840000D02*
X137160000Y-129286000D01*
X101600000Y-62710000D02*
X99913000Y-64397000D01*
X94060000Y-73660000D02*
X94060000Y-65610000D01*
%TO.N,Vbatt*%
X146050000Y-93980000D02*
X146050000Y-97790000D01*
X146050000Y-97790000D02*
X144780000Y-99060000D01*
X160020000Y-93980000D02*
X160020000Y-90170000D01*
X144780000Y-99060000D02*
X140440000Y-99060000D01*
X149860000Y-90170000D02*
X146050000Y-93980000D01*
X160020000Y-90170000D02*
X149860000Y-90170000D01*
D26*
%TO.N,Vcc*%
X142240000Y-86360000D02*
X142240000Y-78740000D01*
%TO.N,RIGHT_MOTOR_1*%
X147320000Y-129286000D02*
X147320000Y-128486000D01*
X147320000Y-128486000D02*
X147536000Y-128270000D01*
D27*
%TO.N,LQB*%
X147320000Y-73406000D02*
X147320000Y-66040000D01*
%TO.N,LQA*%
X104140000Y-76200000D02*
X96520000Y-76200000D01*
X139700000Y-78740000D02*
X137160000Y-78740000D01*
X144780000Y-74422000D02*
X144780000Y-73660000D01*
X143002000Y-76200000D02*
X144780000Y-74422000D01*
X139700000Y-78740000D02*
X142240000Y-76200000D01*
X142240000Y-76200000D02*
X143002000Y-76200000D01*
%TD*%
%TA.AperFunction,Conductor*%
%TO.N,GND*%
G36*
X100650940Y-60899685D02*
G01*
X100696695Y-60952489D01*
X100706639Y-61021647D01*
X100677614Y-61085203D01*
X100671582Y-61091681D01*
X100637403Y-61125859D01*
X100637403Y-61125860D01*
X100520641Y-61286567D01*
X100430457Y-61463562D01*
X100369075Y-61652476D01*
X100369075Y-61652479D01*
X100338000Y-61848678D01*
X100338000Y-62460000D01*
X101157749Y-62460000D01*
X101126619Y-62513919D01*
X101092000Y-62643120D01*
X101092000Y-62776880D01*
X101126619Y-62906081D01*
X101157749Y-62960000D01*
X100338000Y-62960000D01*
X100338000Y-63571321D01*
X100369075Y-63767520D01*
X100369075Y-63767523D01*
X100430457Y-63956437D01*
X100520641Y-64133432D01*
X100637403Y-64294139D01*
X100637403Y-64294140D01*
X100777859Y-64434596D01*
X100938567Y-64551358D01*
X101115562Y-64641542D01*
X101304473Y-64702922D01*
X101350000Y-64710133D01*
X101350000Y-63152251D01*
X101403919Y-63183381D01*
X101533120Y-63218000D01*
X101666880Y-63218000D01*
X101796081Y-63183381D01*
X101850000Y-63152251D01*
X101850000Y-64710132D01*
X101895526Y-64702922D01*
X102084437Y-64641542D01*
X102261432Y-64551358D01*
X102422139Y-64434596D01*
X102422140Y-64434596D01*
X102562596Y-64294140D01*
X102562596Y-64294139D01*
X102679358Y-64133432D01*
X102769542Y-63956437D01*
X102830924Y-63767523D01*
X102830924Y-63767520D01*
X102862000Y-63571321D01*
X102862000Y-62960000D01*
X102042251Y-62960000D01*
X102073381Y-62906081D01*
X102108000Y-62776880D01*
X102108000Y-62643120D01*
X102073381Y-62513919D01*
X102042251Y-62460000D01*
X102862000Y-62460000D01*
X102862000Y-61848678D01*
X102830924Y-61652479D01*
X102830924Y-61652476D01*
X102769542Y-61463562D01*
X102679358Y-61286567D01*
X102562596Y-61125860D01*
X102562596Y-61125859D01*
X102528418Y-61091681D01*
X102494933Y-61030358D01*
X102499917Y-60960666D01*
X102541789Y-60904733D01*
X102607253Y-60880316D01*
X102616099Y-60880000D01*
X103846000Y-60880000D01*
X103913039Y-60899685D01*
X103958794Y-60952489D01*
X103970000Y-61004000D01*
X103970000Y-67770016D01*
X103972547Y-67912854D01*
X103972547Y-67912857D01*
X104013209Y-68195669D01*
X104013211Y-68195679D01*
X104093708Y-68469826D01*
X104212393Y-68729710D01*
X104212402Y-68729726D01*
X104366872Y-68970085D01*
X104366878Y-68970092D01*
X104553978Y-69186019D01*
X104553980Y-69186021D01*
X104769907Y-69373121D01*
X104769914Y-69373127D01*
X105010273Y-69527597D01*
X105010289Y-69527606D01*
X105270173Y-69646291D01*
X105270177Y-69646292D01*
X105270179Y-69646293D01*
X105544326Y-69726790D01*
X105827139Y-69767452D01*
X105861153Y-69768058D01*
X105969984Y-69770000D01*
X134990000Y-69770000D01*
X134990016Y-69770000D01*
X135089381Y-69768227D01*
X135132861Y-69767452D01*
X135415674Y-69726790D01*
X135689821Y-69646293D01*
X135689824Y-69646291D01*
X135689826Y-69646291D01*
X135949710Y-69527606D01*
X135949714Y-69527603D01*
X135949722Y-69527600D01*
X136190086Y-69373127D01*
X136406020Y-69186020D01*
X136593127Y-68970086D01*
X136747600Y-68729722D01*
X136747603Y-68729714D01*
X136747606Y-68729710D01*
X136866291Y-68469826D01*
X136866291Y-68469824D01*
X136866293Y-68469821D01*
X136946790Y-68195674D01*
X136987452Y-67912861D01*
X136990000Y-67770000D01*
X136990000Y-64510018D01*
X154990000Y-64510018D01*
X154990000Y-70509981D01*
X154992467Y-70667140D01*
X155031852Y-70978906D01*
X155031854Y-70978919D01*
X155110007Y-71283306D01*
X155110008Y-71283309D01*
X155225691Y-71575492D01*
X155225695Y-71575500D01*
X155377085Y-71850878D01*
X155377091Y-71850887D01*
X155377093Y-71850891D01*
X155561813Y-72105135D01*
X155776940Y-72334223D01*
X156019084Y-72534542D01*
X156019088Y-72534545D01*
X156238676Y-72673899D01*
X156284425Y-72702932D01*
X156432107Y-72772426D01*
X156568772Y-72836736D01*
X156568776Y-72836737D01*
X156568779Y-72836739D01*
X156867661Y-72933852D01*
X157176357Y-72992739D01*
X157176361Y-72992739D01*
X157176365Y-72992740D01*
X157176362Y-72992740D01*
X157489995Y-73012472D01*
X157490000Y-73012472D01*
X157490005Y-73012472D01*
X157803635Y-72992740D01*
X157803638Y-72992739D01*
X157803643Y-72992739D01*
X158112339Y-72933852D01*
X158411221Y-72836739D01*
X158695575Y-72702932D01*
X158960916Y-72534542D01*
X159203060Y-72334223D01*
X159418187Y-72105135D01*
X159602907Y-71850891D01*
X159754304Y-71575501D01*
X159869992Y-71283306D01*
X159948146Y-70978916D01*
X159977800Y-70744176D01*
X159987532Y-70667140D01*
X159987532Y-70667138D01*
X159987533Y-70667131D01*
X159990000Y-70510000D01*
X159990000Y-64510000D01*
X159987533Y-64352869D01*
X159983407Y-64320211D01*
X159948147Y-64041093D01*
X159948145Y-64041080D01*
X159869992Y-63736693D01*
X159869991Y-63736690D01*
X159754308Y-63444507D01*
X159754304Y-63444499D01*
X159602914Y-63169121D01*
X159602911Y-63169116D01*
X159602907Y-63169109D01*
X159418187Y-62914865D01*
X159203060Y-62685777D01*
X158960916Y-62485458D01*
X158960915Y-62485457D01*
X158960911Y-62485454D01*
X158695577Y-62317069D01*
X158695571Y-62317066D01*
X158411227Y-62183263D01*
X158411222Y-62183261D01*
X158272553Y-62138205D01*
X158112339Y-62086148D01*
X157803643Y-62027261D01*
X157803640Y-62027260D01*
X157803636Y-62027260D01*
X157803632Y-62027259D01*
X157490005Y-62007529D01*
X157489995Y-62007529D01*
X157176367Y-62027259D01*
X157176363Y-62027260D01*
X157176358Y-62027260D01*
X157176357Y-62027261D01*
X156867661Y-62086148D01*
X156867655Y-62086150D01*
X156568777Y-62183261D01*
X156568772Y-62183263D01*
X156284428Y-62317066D01*
X156284422Y-62317069D01*
X156019088Y-62485454D01*
X155776938Y-62685779D01*
X155561817Y-62914860D01*
X155561814Y-62914863D01*
X155561813Y-62914865D01*
X155455930Y-63060598D01*
X155377092Y-63169110D01*
X155377085Y-63169121D01*
X155225695Y-63444499D01*
X155225691Y-63444507D01*
X155110008Y-63736690D01*
X155110007Y-63736693D01*
X155031854Y-64041080D01*
X155031852Y-64041093D01*
X154992467Y-64352859D01*
X154992467Y-64352869D01*
X154991143Y-64437235D01*
X154990000Y-64510018D01*
X136990000Y-64510018D01*
X136990000Y-61004000D01*
X137009685Y-60936961D01*
X137062489Y-60891206D01*
X137114000Y-60880000D01*
X169958638Y-60880000D01*
X170025677Y-60899685D01*
X170046319Y-60916319D01*
X182673681Y-73543681D01*
X182707166Y-73605004D01*
X182710000Y-73631362D01*
X182710000Y-129408638D01*
X182690315Y-129475677D01*
X182673681Y-129496319D01*
X170046319Y-142123681D01*
X169984996Y-142157166D01*
X169958638Y-142160000D01*
X137114000Y-142160000D01*
X137046961Y-142140315D01*
X137001206Y-142087511D01*
X136990000Y-142036000D01*
X136990000Y-135269983D01*
X136987452Y-135127145D01*
X136987452Y-135127142D01*
X136987452Y-135127139D01*
X136946790Y-134844326D01*
X136866293Y-134570179D01*
X136866292Y-134570177D01*
X136866291Y-134570173D01*
X136747606Y-134310289D01*
X136747597Y-134310273D01*
X136593127Y-134069914D01*
X136593121Y-134069907D01*
X136406021Y-133853980D01*
X136406019Y-133853978D01*
X136190092Y-133666878D01*
X136190085Y-133666872D01*
X135949726Y-133512402D01*
X135949710Y-133512393D01*
X135689826Y-133393708D01*
X135415679Y-133313211D01*
X135415669Y-133313209D01*
X135132855Y-133272547D01*
X134990016Y-133270000D01*
X134990000Y-133270000D01*
X105970000Y-133270000D01*
X105969984Y-133270000D01*
X105827145Y-133272547D01*
X105827142Y-133272547D01*
X105544330Y-133313209D01*
X105544320Y-133313211D01*
X105270173Y-133393708D01*
X105010289Y-133512393D01*
X105010273Y-133512402D01*
X104769914Y-133666872D01*
X104769907Y-133666878D01*
X104553980Y-133853978D01*
X104553978Y-133853980D01*
X104366878Y-134069907D01*
X104366872Y-134069914D01*
X104212402Y-134310273D01*
X104212393Y-134310289D01*
X104093708Y-134570173D01*
X104013211Y-134844320D01*
X104013209Y-134844330D01*
X103972547Y-135127142D01*
X103972547Y-135127145D01*
X103970000Y-135269983D01*
X103970000Y-142036000D01*
X103950315Y-142103039D01*
X103897511Y-142148794D01*
X103846000Y-142160000D01*
X86241362Y-142160000D01*
X86174323Y-142140315D01*
X86153681Y-142123681D01*
X83686319Y-139656319D01*
X83652834Y-139594996D01*
X83650000Y-139568638D01*
X83650000Y-137160000D01*
X85292359Y-137160000D01*
X85312872Y-137368284D01*
X85312873Y-137368286D01*
X85373628Y-137568569D01*
X85466233Y-137741821D01*
X85472291Y-137753153D01*
X85605063Y-137914936D01*
X85759868Y-138041981D01*
X85766850Y-138047711D01*
X85951431Y-138146372D01*
X86151714Y-138207127D01*
X86360000Y-138227641D01*
X86568286Y-138207127D01*
X86768569Y-138146372D01*
X86953150Y-138047711D01*
X87114936Y-137914936D01*
X87247711Y-137753150D01*
X87346372Y-137568569D01*
X87407127Y-137368286D01*
X87427641Y-137160000D01*
X87427641Y-137159999D01*
X87794785Y-137159999D01*
X87794785Y-137160000D01*
X87813602Y-137363082D01*
X87869417Y-137559247D01*
X87869422Y-137559260D01*
X87960327Y-137741821D01*
X88083237Y-137904581D01*
X88233958Y-138041980D01*
X88233960Y-138041982D01*
X88333141Y-138103392D01*
X88407363Y-138149348D01*
X88597544Y-138223024D01*
X88798024Y-138260500D01*
X88798026Y-138260500D01*
X89001974Y-138260500D01*
X89001976Y-138260500D01*
X89202456Y-138223024D01*
X89392637Y-138149348D01*
X89566041Y-138041981D01*
X89716764Y-137904579D01*
X89839673Y-137741821D01*
X89930582Y-137559250D01*
X89986397Y-137363083D01*
X90005215Y-137160000D01*
X89986397Y-136956917D01*
X89930582Y-136760750D01*
X89925940Y-136751428D01*
X89886272Y-136671764D01*
X89839673Y-136578179D01*
X89716764Y-136415421D01*
X89716762Y-136415418D01*
X89661599Y-136365131D01*
X90389500Y-136365131D01*
X90389500Y-137954856D01*
X90389502Y-137954882D01*
X90392413Y-137979987D01*
X90392415Y-137979991D01*
X90437793Y-138082764D01*
X90437794Y-138082765D01*
X90517235Y-138162206D01*
X90620009Y-138207585D01*
X90645135Y-138210500D01*
X92234864Y-138210499D01*
X92234879Y-138210497D01*
X92234882Y-138210497D01*
X92259987Y-138207586D01*
X92259988Y-138207585D01*
X92259991Y-138207585D01*
X92362765Y-138162206D01*
X92442206Y-138082765D01*
X92487585Y-137979991D01*
X92490500Y-137954865D01*
X92490499Y-137159999D01*
X92874785Y-137159999D01*
X92874785Y-137160000D01*
X92893602Y-137363082D01*
X92949417Y-137559247D01*
X92949422Y-137559260D01*
X93040327Y-137741821D01*
X93163237Y-137904581D01*
X93313958Y-138041980D01*
X93313960Y-138041982D01*
X93413141Y-138103392D01*
X93487363Y-138149348D01*
X93677544Y-138223024D01*
X93878024Y-138260500D01*
X93878026Y-138260500D01*
X94081974Y-138260500D01*
X94081976Y-138260500D01*
X94282456Y-138223024D01*
X94472637Y-138149348D01*
X94646041Y-138041981D01*
X94796764Y-137904579D01*
X94919673Y-137741821D01*
X95010582Y-137559250D01*
X95066397Y-137363083D01*
X95085215Y-137160000D01*
X95452359Y-137160000D01*
X95472872Y-137368284D01*
X95472873Y-137368286D01*
X95533628Y-137568569D01*
X95626233Y-137741821D01*
X95632291Y-137753153D01*
X95765063Y-137914936D01*
X95919868Y-138041981D01*
X95926850Y-138047711D01*
X96111431Y-138146372D01*
X96311714Y-138207127D01*
X96520000Y-138227641D01*
X96728286Y-138207127D01*
X96928569Y-138146372D01*
X97113150Y-138047711D01*
X97274936Y-137914936D01*
X97407711Y-137753150D01*
X97506372Y-137568569D01*
X97567127Y-137368286D01*
X97587641Y-137160000D01*
X97567127Y-136951714D01*
X97506372Y-136751431D01*
X97407711Y-136566850D01*
X97407708Y-136566846D01*
X97274936Y-136405063D01*
X97113153Y-136272291D01*
X97113151Y-136272290D01*
X97113150Y-136272289D01*
X96928569Y-136173628D01*
X96828427Y-136143250D01*
X96728284Y-136112872D01*
X96520000Y-136092359D01*
X96311715Y-136112872D01*
X96111428Y-136173629D01*
X95926846Y-136272291D01*
X95765063Y-136405063D01*
X95632291Y-136566846D01*
X95533629Y-136751428D01*
X95533628Y-136751430D01*
X95533628Y-136751431D01*
X95530801Y-136760750D01*
X95472872Y-136951715D01*
X95452359Y-137160000D01*
X95085215Y-137160000D01*
X95066397Y-136956917D01*
X95010582Y-136760750D01*
X95005940Y-136751428D01*
X94966272Y-136671764D01*
X94919673Y-136578179D01*
X94796764Y-136415421D01*
X94796762Y-136415418D01*
X94646041Y-136278019D01*
X94646039Y-136278017D01*
X94472642Y-136170655D01*
X94472635Y-136170651D01*
X94323491Y-136112873D01*
X94282456Y-136096976D01*
X94081976Y-136059500D01*
X93878024Y-136059500D01*
X93677544Y-136096976D01*
X93677541Y-136096976D01*
X93677541Y-136096977D01*
X93487364Y-136170651D01*
X93487357Y-136170655D01*
X93313960Y-136278017D01*
X93313958Y-136278019D01*
X93163237Y-136415418D01*
X93040327Y-136578178D01*
X92949422Y-136760739D01*
X92949417Y-136760752D01*
X92893602Y-136956917D01*
X92874785Y-137159999D01*
X92490499Y-137159999D01*
X92490499Y-136365136D01*
X92490497Y-136365117D01*
X92487586Y-136340012D01*
X92487585Y-136340010D01*
X92487585Y-136340009D01*
X92442206Y-136237235D01*
X92362765Y-136157794D01*
X92362763Y-136157793D01*
X92259992Y-136112415D01*
X92234865Y-136109500D01*
X90645143Y-136109500D01*
X90645117Y-136109502D01*
X90620012Y-136112413D01*
X90620008Y-136112415D01*
X90517235Y-136157793D01*
X90437794Y-136237234D01*
X90392415Y-136340006D01*
X90392415Y-136340008D01*
X90389500Y-136365131D01*
X89661599Y-136365131D01*
X89566041Y-136278019D01*
X89566039Y-136278017D01*
X89392642Y-136170655D01*
X89392635Y-136170651D01*
X89243491Y-136112873D01*
X89202456Y-136096976D01*
X89001976Y-136059500D01*
X88798024Y-136059500D01*
X88597544Y-136096976D01*
X88597541Y-136096976D01*
X88597541Y-136096977D01*
X88407364Y-136170651D01*
X88407357Y-136170655D01*
X88233960Y-136278017D01*
X88233958Y-136278019D01*
X88083237Y-136415418D01*
X87960327Y-136578178D01*
X87869422Y-136760739D01*
X87869417Y-136760752D01*
X87813602Y-136956917D01*
X87794785Y-137159999D01*
X87427641Y-137159999D01*
X87407127Y-136951714D01*
X87346372Y-136751431D01*
X87247711Y-136566850D01*
X87247708Y-136566846D01*
X87114936Y-136405063D01*
X86953153Y-136272291D01*
X86953151Y-136272290D01*
X86953150Y-136272289D01*
X86768569Y-136173628D01*
X86668427Y-136143250D01*
X86568284Y-136112872D01*
X86360000Y-136092359D01*
X86151715Y-136112872D01*
X85951428Y-136173629D01*
X85766846Y-136272291D01*
X85605063Y-136405063D01*
X85472291Y-136566846D01*
X85373629Y-136751428D01*
X85373628Y-136751430D01*
X85373628Y-136751431D01*
X85370801Y-136760750D01*
X85312872Y-136951715D01*
X85292359Y-137160000D01*
X83650000Y-137160000D01*
X83650000Y-132510018D01*
X154990000Y-132510018D01*
X154990000Y-138509981D01*
X154992467Y-138667140D01*
X155031852Y-138978906D01*
X155031854Y-138978919D01*
X155110007Y-139283306D01*
X155110008Y-139283309D01*
X155225691Y-139575492D01*
X155225695Y-139575500D01*
X155377085Y-139850878D01*
X155377091Y-139850887D01*
X155377093Y-139850891D01*
X155561813Y-140105135D01*
X155776940Y-140334223D01*
X156019084Y-140534542D01*
X156019088Y-140534545D01*
X156238676Y-140673899D01*
X156284425Y-140702932D01*
X156450322Y-140780997D01*
X156568772Y-140836736D01*
X156568776Y-140836737D01*
X156568779Y-140836739D01*
X156867661Y-140933852D01*
X157176357Y-140992739D01*
X157176361Y-140992739D01*
X157176365Y-140992740D01*
X157176362Y-140992740D01*
X157489995Y-141012472D01*
X157490000Y-141012472D01*
X157490005Y-141012472D01*
X157803635Y-140992740D01*
X157803638Y-140992739D01*
X157803643Y-140992739D01*
X158112339Y-140933852D01*
X158411221Y-140836739D01*
X158695575Y-140702932D01*
X158960916Y-140534542D01*
X159203060Y-140334223D01*
X159418187Y-140105135D01*
X159602907Y-139850891D01*
X159754304Y-139575501D01*
X159757022Y-139568638D01*
X159869991Y-139283309D01*
X159869992Y-139283306D01*
X159948145Y-138978919D01*
X159948146Y-138978916D01*
X159987533Y-138667131D01*
X159990000Y-138510000D01*
X159990000Y-132510000D01*
X159987533Y-132352869D01*
X159978556Y-132281811D01*
X159948147Y-132041093D01*
X159948145Y-132041080D01*
X159869992Y-131736693D01*
X159869991Y-131736690D01*
X159754308Y-131444507D01*
X159754304Y-131444499D01*
X159602914Y-131169121D01*
X159602911Y-131169116D01*
X159602907Y-131169109D01*
X159418187Y-130914865D01*
X159203060Y-130685777D01*
X158960916Y-130485458D01*
X158960915Y-130485457D01*
X158960911Y-130485454D01*
X158695577Y-130317069D01*
X158695571Y-130317066D01*
X158411227Y-130183263D01*
X158411222Y-130183261D01*
X158259504Y-130133965D01*
X158112339Y-130086148D01*
X157803643Y-130027261D01*
X157803640Y-130027260D01*
X157803636Y-130027260D01*
X157803632Y-130027259D01*
X157490005Y-130007529D01*
X157489995Y-130007529D01*
X157176367Y-130027259D01*
X157176363Y-130027260D01*
X157176358Y-130027260D01*
X157176357Y-130027261D01*
X156867661Y-130086148D01*
X156867655Y-130086150D01*
X156568777Y-130183261D01*
X156568772Y-130183263D01*
X156284428Y-130317066D01*
X156284422Y-130317069D01*
X156019088Y-130485454D01*
X155776938Y-130685779D01*
X155561817Y-130914860D01*
X155561814Y-130914863D01*
X155561813Y-130914865D01*
X155549078Y-130932393D01*
X155377092Y-131169110D01*
X155377085Y-131169121D01*
X155225695Y-131444499D01*
X155225691Y-131444507D01*
X155110008Y-131736690D01*
X155110007Y-131736693D01*
X155031854Y-132041080D01*
X155031852Y-132041093D01*
X154992467Y-132352859D01*
X154990000Y-132510018D01*
X83650000Y-132510018D01*
X83650000Y-130810000D01*
X90284571Y-130810000D01*
X90304244Y-131022310D01*
X90357675Y-131210099D01*
X90362596Y-131227392D01*
X90362596Y-131227394D01*
X90457632Y-131418253D01*
X90529385Y-131513268D01*
X90586128Y-131588407D01*
X90743698Y-131732052D01*
X90924981Y-131844298D01*
X91123802Y-131921321D01*
X91333390Y-131960500D01*
X91333392Y-131960500D01*
X91546608Y-131960500D01*
X91546610Y-131960500D01*
X91756198Y-131921321D01*
X91955019Y-131844298D01*
X92136302Y-131732052D01*
X92293872Y-131588407D01*
X92407047Y-131438540D01*
X92463155Y-131396905D01*
X92532867Y-131392214D01*
X92594049Y-131425956D01*
X92627276Y-131487419D01*
X92630000Y-131513268D01*
X92630000Y-131707844D01*
X92636401Y-131767372D01*
X92636403Y-131767379D01*
X92686645Y-131902086D01*
X92686649Y-131902093D01*
X92772809Y-132017187D01*
X92772812Y-132017190D01*
X92887906Y-132103350D01*
X92887913Y-132103354D01*
X93022620Y-132153596D01*
X93022627Y-132153598D01*
X93082155Y-132159999D01*
X93082172Y-132160000D01*
X93730000Y-132160000D01*
X93730000Y-131243012D01*
X93787007Y-131275925D01*
X93914174Y-131310000D01*
X94045826Y-131310000D01*
X94172993Y-131275925D01*
X94230000Y-131243012D01*
X94230000Y-132160000D01*
X94877828Y-132160000D01*
X94877844Y-132159999D01*
X94937372Y-132153598D01*
X94937379Y-132153596D01*
X95072086Y-132103354D01*
X95072093Y-132103350D01*
X95187187Y-132017190D01*
X95187190Y-132017187D01*
X95273350Y-131902093D01*
X95273354Y-131902086D01*
X95323596Y-131767379D01*
X95323598Y-131767372D01*
X95329999Y-131707844D01*
X95330000Y-131707827D01*
X95330000Y-131060000D01*
X94413012Y-131060000D01*
X94445925Y-131002993D01*
X94480000Y-130875826D01*
X94480000Y-130744174D01*
X94445925Y-130617007D01*
X94413012Y-130560000D01*
X95330000Y-130560000D01*
X95330000Y-129912172D01*
X95329999Y-129912155D01*
X95323598Y-129852627D01*
X95323596Y-129852620D01*
X95273354Y-129717913D01*
X95273350Y-129717906D01*
X95187190Y-129602812D01*
X95187187Y-129602809D01*
X95072093Y-129516649D01*
X95072086Y-129516645D01*
X94937379Y-129466403D01*
X94937372Y-129466401D01*
X94877844Y-129460000D01*
X94230000Y-129460000D01*
X94230000Y-130376988D01*
X94172993Y-130344075D01*
X94045826Y-130310000D01*
X93914174Y-130310000D01*
X93787007Y-130344075D01*
X93730000Y-130376988D01*
X93730000Y-129460000D01*
X93082155Y-129460000D01*
X93022627Y-129466401D01*
X93022620Y-129466403D01*
X92887913Y-129516645D01*
X92887906Y-129516649D01*
X92772812Y-129602809D01*
X92772809Y-129602812D01*
X92686649Y-129717906D01*
X92686645Y-129717913D01*
X92636403Y-129852620D01*
X92636401Y-129852627D01*
X92630000Y-129912155D01*
X92630000Y-130106731D01*
X92610315Y-130173770D01*
X92557511Y-130219525D01*
X92488353Y-130229469D01*
X92424797Y-130200444D01*
X92407046Y-130181458D01*
X92293872Y-130031593D01*
X92267475Y-130007529D01*
X92136302Y-129887948D01*
X91955019Y-129775702D01*
X91955017Y-129775701D01*
X91805829Y-129717906D01*
X91756198Y-129698679D01*
X91546610Y-129659500D01*
X91333390Y-129659500D01*
X91123802Y-129698679D01*
X91123799Y-129698679D01*
X91123799Y-129698680D01*
X90924982Y-129775701D01*
X90924980Y-129775702D01*
X90743699Y-129887947D01*
X90586127Y-130031593D01*
X90457632Y-130201746D01*
X90362596Y-130392605D01*
X90362596Y-130392607D01*
X90304244Y-130597689D01*
X90290671Y-130744174D01*
X90284571Y-130810000D01*
X83650000Y-130810000D01*
X83650000Y-128608119D01*
X107889500Y-128608119D01*
X107889500Y-128961881D01*
X107896615Y-129034117D01*
X107924173Y-129313929D01*
X107924176Y-129313946D01*
X107993185Y-129660884D01*
X107993188Y-129660895D01*
X108095882Y-129999436D01*
X108153895Y-130139491D01*
X108228753Y-130320215D01*
X108231262Y-130326271D01*
X108231264Y-130326276D01*
X108398017Y-130638247D01*
X108398028Y-130638265D01*
X108594558Y-130932393D01*
X108594568Y-130932407D01*
X108818992Y-131205869D01*
X109069130Y-131456007D01*
X109069135Y-131456011D01*
X109069136Y-131456012D01*
X109342598Y-131680436D01*
X109636741Y-131876976D01*
X109636750Y-131876981D01*
X109636752Y-131876982D01*
X109948723Y-132043735D01*
X109948725Y-132043735D01*
X109948731Y-132043739D01*
X110275565Y-132179118D01*
X110614095Y-132281809D01*
X110614101Y-132281810D01*
X110614104Y-132281811D01*
X110614115Y-132281814D01*
X110831674Y-132325088D01*
X110961060Y-132350825D01*
X111313119Y-132385500D01*
X111313122Y-132385500D01*
X111666878Y-132385500D01*
X111666881Y-132385500D01*
X112018940Y-132350825D01*
X112190679Y-132316663D01*
X112365884Y-132281814D01*
X112365895Y-132281811D01*
X112365895Y-132281810D01*
X112365905Y-132281809D01*
X112704435Y-132179118D01*
X113031269Y-132043739D01*
X113343259Y-131876976D01*
X113637402Y-131680436D01*
X113910864Y-131456012D01*
X114161012Y-131205864D01*
X114385436Y-130932402D01*
X114581976Y-130638259D01*
X114748739Y-130326269D01*
X114884118Y-129999435D01*
X114986809Y-129660905D01*
X114986811Y-129660895D01*
X114986814Y-129660884D01*
X115048079Y-129352880D01*
X115055825Y-129313940D01*
X115090500Y-128961881D01*
X115090500Y-128608119D01*
X125889500Y-128608119D01*
X125889500Y-128961881D01*
X125896615Y-129034117D01*
X125924173Y-129313929D01*
X125924176Y-129313946D01*
X125993185Y-129660884D01*
X125993188Y-129660895D01*
X126095882Y-129999436D01*
X126153895Y-130139491D01*
X126228753Y-130320215D01*
X126231262Y-130326271D01*
X126231264Y-130326276D01*
X126398017Y-130638247D01*
X126398028Y-130638265D01*
X126594558Y-130932393D01*
X126594568Y-130932407D01*
X126818992Y-131205869D01*
X127069130Y-131456007D01*
X127069135Y-131456011D01*
X127069136Y-131456012D01*
X127342598Y-131680436D01*
X127636741Y-131876976D01*
X127636750Y-131876981D01*
X127636752Y-131876982D01*
X127948723Y-132043735D01*
X127948725Y-132043735D01*
X127948731Y-132043739D01*
X128275565Y-132179118D01*
X128614095Y-132281809D01*
X128614101Y-132281810D01*
X128614104Y-132281811D01*
X128614115Y-132281814D01*
X128831674Y-132325088D01*
X128961060Y-132350825D01*
X129313119Y-132385500D01*
X129313122Y-132385500D01*
X129666878Y-132385500D01*
X129666881Y-132385500D01*
X130018940Y-132350825D01*
X130190679Y-132316663D01*
X130365884Y-132281814D01*
X130365895Y-132281811D01*
X130365895Y-132281810D01*
X130365905Y-132281809D01*
X130704435Y-132179118D01*
X131031269Y-132043739D01*
X131343259Y-131876976D01*
X131637402Y-131680436D01*
X131910864Y-131456012D01*
X132161012Y-131205864D01*
X132385436Y-130932402D01*
X132581976Y-130638259D01*
X132748739Y-130326269D01*
X132884118Y-129999435D01*
X132986809Y-129660905D01*
X132986811Y-129660895D01*
X132986814Y-129660884D01*
X133048079Y-129352880D01*
X133055825Y-129313940D01*
X133090500Y-128961881D01*
X133090500Y-128608119D01*
X133055825Y-128256060D01*
X133009013Y-128020719D01*
X132986814Y-127909115D01*
X132986811Y-127909104D01*
X132986810Y-127909101D01*
X132986809Y-127909095D01*
X132927675Y-127714155D01*
X135898000Y-127714155D01*
X135898000Y-129036000D01*
X136717749Y-129036000D01*
X136686619Y-129089919D01*
X136652000Y-129219120D01*
X136652000Y-129352880D01*
X136686619Y-129482081D01*
X136717749Y-129536000D01*
X135898000Y-129536000D01*
X135898000Y-130857844D01*
X135904401Y-130917372D01*
X135904403Y-130917379D01*
X135954645Y-131052086D01*
X135954649Y-131052093D01*
X136040809Y-131167187D01*
X136040812Y-131167190D01*
X136155906Y-131253350D01*
X136155913Y-131253354D01*
X136290620Y-131303596D01*
X136290627Y-131303598D01*
X136350155Y-131309999D01*
X136350172Y-131310000D01*
X136910000Y-131310000D01*
X136910000Y-129728251D01*
X136963919Y-129759381D01*
X137093120Y-129794000D01*
X137226880Y-129794000D01*
X137356081Y-129759381D01*
X137410000Y-129728251D01*
X137410000Y-131310000D01*
X137969828Y-131310000D01*
X137969844Y-131309999D01*
X138029372Y-131303598D01*
X138029379Y-131303596D01*
X138164086Y-131253354D01*
X138164093Y-131253350D01*
X138279187Y-131167190D01*
X138279190Y-131167187D01*
X138365350Y-131052093D01*
X138365354Y-131052086D01*
X138415596Y-130917379D01*
X138415598Y-130917372D01*
X138421999Y-130857844D01*
X138422000Y-130857827D01*
X138422000Y-130328250D01*
X138441685Y-130261211D01*
X138494489Y-130215456D01*
X138563647Y-130205512D01*
X138627203Y-130234537D01*
X138664977Y-130293315D01*
X138667617Y-130304059D01*
X138678329Y-130357912D01*
X138678331Y-130357920D01*
X138758423Y-130551280D01*
X138874703Y-130725306D01*
X139022693Y-130873296D01*
X139196719Y-130989576D01*
X139275746Y-131022310D01*
X139390080Y-131069669D01*
X139595348Y-131110499D01*
X139595352Y-131110500D01*
X139595353Y-131110500D01*
X139804648Y-131110500D01*
X139804649Y-131110499D01*
X140009920Y-131069669D01*
X140203282Y-130989575D01*
X140377304Y-130873298D01*
X140525298Y-130725304D01*
X140641575Y-130551282D01*
X140721669Y-130357920D01*
X140762500Y-130152647D01*
X140762500Y-128419353D01*
X140762499Y-128419348D01*
X141177500Y-128419348D01*
X141177500Y-130152651D01*
X141218329Y-130357912D01*
X141218331Y-130357920D01*
X141298423Y-130551280D01*
X141414703Y-130725306D01*
X141562693Y-130873296D01*
X141736719Y-130989576D01*
X141815746Y-131022310D01*
X141930080Y-131069669D01*
X142135348Y-131110499D01*
X142135352Y-131110500D01*
X142135353Y-131110500D01*
X142344648Y-131110500D01*
X142344649Y-131110499D01*
X142549920Y-131069669D01*
X142743282Y-130989575D01*
X142917304Y-130873298D01*
X143065298Y-130725304D01*
X143181575Y-130551282D01*
X143261669Y-130357920D01*
X143302500Y-130152647D01*
X143302500Y-128419353D01*
X143302499Y-128419348D01*
X143717500Y-128419348D01*
X143717500Y-130152651D01*
X143758329Y-130357912D01*
X143758331Y-130357920D01*
X143838423Y-130551280D01*
X143954703Y-130725306D01*
X144102693Y-130873296D01*
X144276719Y-130989576D01*
X144355746Y-131022310D01*
X144470080Y-131069669D01*
X144675348Y-131110499D01*
X144675352Y-131110500D01*
X144675353Y-131110500D01*
X144884648Y-131110500D01*
X144884649Y-131110499D01*
X145089920Y-131069669D01*
X145283282Y-130989575D01*
X145457304Y-130873298D01*
X145605298Y-130725304D01*
X145721575Y-130551282D01*
X145801669Y-130357920D01*
X145842500Y-130152647D01*
X145842500Y-128432503D01*
X146157500Y-128432503D01*
X146157500Y-130139496D01*
X146185625Y-130317069D01*
X146186124Y-130320219D01*
X146242669Y-130494245D01*
X146305219Y-130617007D01*
X146325743Y-130657286D01*
X146433288Y-130805312D01*
X146562687Y-130934711D01*
X146683259Y-131022310D01*
X146710717Y-131042259D01*
X146873755Y-131125331D01*
X147047781Y-131181876D01*
X147115554Y-131192610D01*
X147228504Y-131210500D01*
X147228509Y-131210500D01*
X147411496Y-131210500D01*
X147511895Y-131194597D01*
X147592219Y-131181876D01*
X147766245Y-131125331D01*
X147929283Y-131042259D01*
X148012397Y-130981873D01*
X148077312Y-130934711D01*
X148077314Y-130934708D01*
X148077318Y-130934706D01*
X148206706Y-130805318D01*
X148206708Y-130805314D01*
X148206711Y-130805312D01*
X148264839Y-130725304D01*
X148314259Y-130657283D01*
X148397331Y-130494245D01*
X148453876Y-130320219D01*
X148463222Y-130261211D01*
X148467527Y-130234031D01*
X148497456Y-130170896D01*
X148556768Y-130133965D01*
X148626630Y-130134963D01*
X148684863Y-130173573D01*
X148712473Y-130234031D01*
X148725625Y-130317069D01*
X148726124Y-130320219D01*
X148782669Y-130494245D01*
X148845219Y-130617007D01*
X148865743Y-130657286D01*
X148973288Y-130805312D01*
X149102687Y-130934711D01*
X149223259Y-131022310D01*
X149250717Y-131042259D01*
X149413755Y-131125331D01*
X149587781Y-131181876D01*
X149655554Y-131192610D01*
X149768504Y-131210500D01*
X149768509Y-131210500D01*
X149951496Y-131210500D01*
X150051895Y-131194597D01*
X150132219Y-131181876D01*
X150306245Y-131125331D01*
X150469283Y-131042259D01*
X150552397Y-130981873D01*
X150617312Y-130934711D01*
X150617314Y-130934708D01*
X150617318Y-130934706D01*
X150746706Y-130805318D01*
X150746708Y-130805314D01*
X150746711Y-130805312D01*
X150804839Y-130725304D01*
X150854259Y-130657283D01*
X150937331Y-130494245D01*
X150993876Y-130320219D01*
X151010469Y-130215456D01*
X151022500Y-130139496D01*
X151022500Y-128432503D01*
X150994555Y-128256070D01*
X150993876Y-128251781D01*
X150937331Y-128077755D01*
X150854259Y-127914717D01*
X150827152Y-127877407D01*
X150746711Y-127766687D01*
X150617312Y-127637288D01*
X150469286Y-127529743D01*
X150469285Y-127529742D01*
X150469283Y-127529741D01*
X150306245Y-127446669D01*
X150132219Y-127390124D01*
X150132217Y-127390123D01*
X150132215Y-127390123D01*
X149951496Y-127361500D01*
X149951491Y-127361500D01*
X149768509Y-127361500D01*
X149768504Y-127361500D01*
X149587784Y-127390123D01*
X149413752Y-127446670D01*
X149250713Y-127529743D01*
X149102687Y-127637288D01*
X148973288Y-127766687D01*
X148865743Y-127914713D01*
X148782670Y-128077752D01*
X148726123Y-128251784D01*
X148712473Y-128337968D01*
X148682544Y-128401103D01*
X148623232Y-128438034D01*
X148553370Y-128437036D01*
X148495137Y-128398426D01*
X148467527Y-128337968D01*
X148454555Y-128256070D01*
X148453876Y-128251781D01*
X148397331Y-128077755D01*
X148314259Y-127914717D01*
X148287152Y-127877407D01*
X148206711Y-127766687D01*
X148077312Y-127637288D01*
X147929286Y-127529743D01*
X147929285Y-127529742D01*
X147929283Y-127529741D01*
X147766245Y-127446669D01*
X147592219Y-127390124D01*
X147592217Y-127390123D01*
X147592215Y-127390123D01*
X147411496Y-127361500D01*
X147411491Y-127361500D01*
X147228509Y-127361500D01*
X147228504Y-127361500D01*
X147047784Y-127390123D01*
X146873752Y-127446670D01*
X146710713Y-127529743D01*
X146562687Y-127637288D01*
X146433288Y-127766687D01*
X146325743Y-127914713D01*
X146242670Y-128077752D01*
X146186123Y-128251784D01*
X146157500Y-128432503D01*
X145842500Y-128432503D01*
X145842500Y-128419353D01*
X145801669Y-128214080D01*
X145745200Y-128077752D01*
X145721576Y-128020719D01*
X145605296Y-127846693D01*
X145457306Y-127698703D01*
X145283280Y-127582423D01*
X145089920Y-127502331D01*
X145089912Y-127502329D01*
X144884651Y-127461500D01*
X144884647Y-127461500D01*
X144675353Y-127461500D01*
X144675348Y-127461500D01*
X144470087Y-127502329D01*
X144470079Y-127502331D01*
X144276719Y-127582423D01*
X144102693Y-127698703D01*
X143954703Y-127846693D01*
X143838423Y-128020719D01*
X143758331Y-128214079D01*
X143758329Y-128214087D01*
X143717500Y-128419348D01*
X143302499Y-128419348D01*
X143261669Y-128214080D01*
X143205200Y-128077752D01*
X143181576Y-128020719D01*
X143065296Y-127846693D01*
X142917306Y-127698703D01*
X142743280Y-127582423D01*
X142549920Y-127502331D01*
X142549912Y-127502329D01*
X142344651Y-127461500D01*
X142344647Y-127461500D01*
X142135353Y-127461500D01*
X142135348Y-127461500D01*
X141930087Y-127502329D01*
X141930079Y-127502331D01*
X141736719Y-127582423D01*
X141562693Y-127698703D01*
X141414703Y-127846693D01*
X141298423Y-128020719D01*
X141218331Y-128214079D01*
X141218329Y-128214087D01*
X141177500Y-128419348D01*
X140762499Y-128419348D01*
X140721669Y-128214080D01*
X140665200Y-128077752D01*
X140641576Y-128020719D01*
X140525296Y-127846693D01*
X140377306Y-127698703D01*
X140203280Y-127582423D01*
X140009920Y-127502331D01*
X140009912Y-127502329D01*
X139804651Y-127461500D01*
X139804647Y-127461500D01*
X139595353Y-127461500D01*
X139595348Y-127461500D01*
X139390087Y-127502329D01*
X139390079Y-127502331D01*
X139196719Y-127582423D01*
X139022693Y-127698703D01*
X138874703Y-127846693D01*
X138758423Y-128020719D01*
X138678331Y-128214079D01*
X138678329Y-128214087D01*
X138667617Y-128267940D01*
X138635232Y-128329851D01*
X138574516Y-128364425D01*
X138504747Y-128360686D01*
X138448075Y-128319819D01*
X138422494Y-128254801D01*
X138422000Y-128243749D01*
X138422000Y-127714172D01*
X138421999Y-127714155D01*
X138415598Y-127654627D01*
X138415596Y-127654620D01*
X138365354Y-127519913D01*
X138365350Y-127519906D01*
X138279190Y-127404812D01*
X138279187Y-127404809D01*
X138164093Y-127318649D01*
X138164086Y-127318645D01*
X138029379Y-127268403D01*
X138029372Y-127268401D01*
X137969844Y-127262000D01*
X137410000Y-127262000D01*
X137410000Y-128843748D01*
X137356081Y-128812619D01*
X137226880Y-128778000D01*
X137093120Y-128778000D01*
X136963919Y-128812619D01*
X136910000Y-128843748D01*
X136910000Y-127262000D01*
X136350155Y-127262000D01*
X136290627Y-127268401D01*
X136290620Y-127268403D01*
X136155913Y-127318645D01*
X136155906Y-127318649D01*
X136040812Y-127404809D01*
X136040809Y-127404812D01*
X135954649Y-127519906D01*
X135954645Y-127519913D01*
X135904403Y-127654620D01*
X135904401Y-127654627D01*
X135898000Y-127714155D01*
X132927675Y-127714155D01*
X132884118Y-127570565D01*
X132748739Y-127243731D01*
X132715353Y-127181271D01*
X132581982Y-126931752D01*
X132581981Y-126931750D01*
X132581976Y-126931741D01*
X132385436Y-126637598D01*
X132161012Y-126364136D01*
X132161011Y-126364135D01*
X132161007Y-126364130D01*
X131910869Y-126113992D01*
X131637407Y-125889568D01*
X131637406Y-125889567D01*
X131637402Y-125889564D01*
X131343259Y-125693024D01*
X131343254Y-125693021D01*
X131343247Y-125693017D01*
X131081523Y-125553122D01*
X157689500Y-125553122D01*
X157689500Y-125906877D01*
X157724173Y-126258929D01*
X157724176Y-126258946D01*
X157793185Y-126605884D01*
X157793188Y-126605895D01*
X157892034Y-126931752D01*
X157895882Y-126944435D01*
X158019854Y-127243731D01*
X158031262Y-127271271D01*
X158031264Y-127271276D01*
X158198017Y-127583247D01*
X158198028Y-127583265D01*
X158394558Y-127877393D01*
X158394568Y-127877407D01*
X158618992Y-128150869D01*
X158869130Y-128401007D01*
X158869135Y-128401011D01*
X158869136Y-128401012D01*
X159142598Y-128625436D01*
X159436741Y-128821976D01*
X159436750Y-128821981D01*
X159436752Y-128821982D01*
X159748723Y-128988735D01*
X159748725Y-128988735D01*
X159748731Y-128988739D01*
X160075565Y-129124118D01*
X160414095Y-129226809D01*
X160414101Y-129226810D01*
X160414104Y-129226811D01*
X160414115Y-129226814D01*
X160631674Y-129270088D01*
X160761060Y-129295825D01*
X161113119Y-129330500D01*
X161113122Y-129330500D01*
X161466878Y-129330500D01*
X161466881Y-129330500D01*
X161818940Y-129295825D01*
X161990679Y-129261663D01*
X162165884Y-129226814D01*
X162165895Y-129226811D01*
X162165895Y-129226810D01*
X162165905Y-129226809D01*
X162504435Y-129124118D01*
X162831269Y-128988739D01*
X163143259Y-128821976D01*
X163437402Y-128625436D01*
X163710864Y-128401012D01*
X163961012Y-128150864D01*
X164185436Y-127877402D01*
X164381976Y-127583259D01*
X164548739Y-127271269D01*
X164684118Y-126944435D01*
X164786809Y-126605905D01*
X164786811Y-126605895D01*
X164786814Y-126605884D01*
X164834901Y-126364130D01*
X164855825Y-126258940D01*
X164890500Y-125906881D01*
X164890500Y-125553119D01*
X164881636Y-125463122D01*
X166419500Y-125463122D01*
X166419500Y-125816877D01*
X166454173Y-126168929D01*
X166454176Y-126168946D01*
X166523185Y-126515884D01*
X166523188Y-126515895D01*
X166625882Y-126854436D01*
X166761262Y-127181271D01*
X166761264Y-127181276D01*
X166928017Y-127493247D01*
X166928028Y-127493265D01*
X167124558Y-127787393D01*
X167124568Y-127787407D01*
X167348992Y-128060869D01*
X167599130Y-128311007D01*
X167599135Y-128311011D01*
X167599136Y-128311012D01*
X167872598Y-128535436D01*
X168166741Y-128731976D01*
X168166750Y-128731981D01*
X168166752Y-128731982D01*
X168478723Y-128898735D01*
X168478725Y-128898735D01*
X168478731Y-128898739D01*
X168805565Y-129034118D01*
X169144095Y-129136809D01*
X169144101Y-129136810D01*
X169144104Y-129136811D01*
X169144115Y-129136814D01*
X169361674Y-129180088D01*
X169491060Y-129205825D01*
X169843119Y-129240500D01*
X169843122Y-129240500D01*
X170196878Y-129240500D01*
X170196881Y-129240500D01*
X170548940Y-129205825D01*
X170720679Y-129171663D01*
X170895884Y-129136814D01*
X170895895Y-129136811D01*
X170895895Y-129136810D01*
X170895905Y-129136809D01*
X171234435Y-129034118D01*
X171561269Y-128898739D01*
X171873259Y-128731976D01*
X172167402Y-128535436D01*
X172440864Y-128311012D01*
X172691012Y-128060864D01*
X172915436Y-127787402D01*
X173111976Y-127493259D01*
X173278739Y-127181269D01*
X173414118Y-126854435D01*
X173516809Y-126515905D01*
X173516811Y-126515895D01*
X173516814Y-126515884D01*
X173551663Y-126340679D01*
X173585825Y-126168940D01*
X173620500Y-125816881D01*
X173620500Y-125463119D01*
X173585825Y-125111060D01*
X173560088Y-124981674D01*
X173516814Y-124764115D01*
X173516811Y-124764104D01*
X173516810Y-124764101D01*
X173516809Y-124764095D01*
X173414118Y-124425565D01*
X173278739Y-124098731D01*
X173111976Y-123786741D01*
X172915436Y-123492598D01*
X172691012Y-123219136D01*
X172691011Y-123219135D01*
X172691007Y-123219130D01*
X172440869Y-122968992D01*
X172167407Y-122744568D01*
X172167406Y-122744567D01*
X172167402Y-122744564D01*
X171873259Y-122548024D01*
X171873254Y-122548021D01*
X171873247Y-122548017D01*
X171561276Y-122381264D01*
X171561271Y-122381262D01*
X171234436Y-122245882D01*
X170895895Y-122143188D01*
X170895884Y-122143185D01*
X170548946Y-122074176D01*
X170548929Y-122074173D01*
X170282700Y-122047952D01*
X170196881Y-122039500D01*
X169843119Y-122039500D01*
X169763748Y-122047317D01*
X169491070Y-122074173D01*
X169491053Y-122074176D01*
X169144115Y-122143185D01*
X169144104Y-122143188D01*
X168805563Y-122245882D01*
X168478728Y-122381262D01*
X168478723Y-122381264D01*
X168166752Y-122548017D01*
X168166734Y-122548028D01*
X167872606Y-122744558D01*
X167872592Y-122744568D01*
X167599130Y-122968992D01*
X167348992Y-123219130D01*
X167124568Y-123492592D01*
X167124558Y-123492606D01*
X166928028Y-123786734D01*
X166928017Y-123786752D01*
X166761264Y-124098723D01*
X166761262Y-124098728D01*
X166625882Y-124425563D01*
X166523188Y-124764104D01*
X166523185Y-124764115D01*
X166454176Y-125111053D01*
X166454173Y-125111070D01*
X166419500Y-125463122D01*
X164881636Y-125463122D01*
X164855825Y-125201060D01*
X164830088Y-125071674D01*
X164786814Y-124854115D01*
X164786811Y-124854104D01*
X164786810Y-124854101D01*
X164786809Y-124854095D01*
X164684118Y-124515565D01*
X164548739Y-124188731D01*
X164500628Y-124098723D01*
X164381982Y-123876752D01*
X164381981Y-123876750D01*
X164381976Y-123876741D01*
X164185436Y-123582598D01*
X163961012Y-123309136D01*
X163961011Y-123309135D01*
X163961007Y-123309130D01*
X163710869Y-123058992D01*
X163437407Y-122834568D01*
X163437406Y-122834567D01*
X163437402Y-122834564D01*
X163143259Y-122638024D01*
X163143254Y-122638021D01*
X163143247Y-122638017D01*
X162831276Y-122471264D01*
X162831271Y-122471262D01*
X162504436Y-122335882D01*
X162165895Y-122233188D01*
X162165884Y-122233185D01*
X161818946Y-122164176D01*
X161818929Y-122164173D01*
X161552700Y-122137952D01*
X161466881Y-122129500D01*
X161113119Y-122129500D01*
X161033748Y-122137317D01*
X160761070Y-122164173D01*
X160761053Y-122164176D01*
X160414115Y-122233185D01*
X160414104Y-122233188D01*
X160075563Y-122335882D01*
X159748728Y-122471262D01*
X159748723Y-122471264D01*
X159436752Y-122638017D01*
X159436734Y-122638028D01*
X159142606Y-122834558D01*
X159142592Y-122834568D01*
X158869130Y-123058992D01*
X158618992Y-123309130D01*
X158394568Y-123582592D01*
X158394558Y-123582606D01*
X158198028Y-123876734D01*
X158198017Y-123876752D01*
X158031264Y-124188723D01*
X158031262Y-124188728D01*
X157895882Y-124515563D01*
X157793188Y-124854104D01*
X157793185Y-124854115D01*
X157724176Y-125201053D01*
X157724173Y-125201070D01*
X157689500Y-125553122D01*
X131081523Y-125553122D01*
X131031276Y-125526264D01*
X131031271Y-125526262D01*
X130704436Y-125390882D01*
X130365895Y-125288188D01*
X130365884Y-125288185D01*
X130018946Y-125219176D01*
X130018929Y-125219173D01*
X129752700Y-125192952D01*
X129666881Y-125184500D01*
X129313119Y-125184500D01*
X129233748Y-125192317D01*
X128961070Y-125219173D01*
X128961053Y-125219176D01*
X128614115Y-125288185D01*
X128614104Y-125288188D01*
X128275563Y-125390882D01*
X127948728Y-125526262D01*
X127948723Y-125526264D01*
X127636752Y-125693017D01*
X127636734Y-125693028D01*
X127342606Y-125889558D01*
X127342592Y-125889568D01*
X127069130Y-126113992D01*
X126818992Y-126364130D01*
X126594568Y-126637592D01*
X126594558Y-126637606D01*
X126398028Y-126931734D01*
X126398017Y-126931752D01*
X126231264Y-127243723D01*
X126231262Y-127243728D01*
X126095882Y-127570563D01*
X125993188Y-127909104D01*
X125993185Y-127909115D01*
X125924176Y-128256053D01*
X125924173Y-128256070D01*
X125906796Y-128432509D01*
X125889500Y-128608119D01*
X115090500Y-128608119D01*
X115055825Y-128256060D01*
X115009013Y-128020719D01*
X114986814Y-127909115D01*
X114986811Y-127909104D01*
X114986810Y-127909101D01*
X114986809Y-127909095D01*
X114884118Y-127570565D01*
X114748739Y-127243731D01*
X114715353Y-127181271D01*
X114581982Y-126931752D01*
X114581981Y-126931750D01*
X114581976Y-126931741D01*
X114385436Y-126637598D01*
X114161012Y-126364136D01*
X114161011Y-126364135D01*
X114161007Y-126364130D01*
X113910869Y-126113992D01*
X113637407Y-125889568D01*
X113637406Y-125889567D01*
X113637402Y-125889564D01*
X113343259Y-125693024D01*
X113343254Y-125693021D01*
X113343247Y-125693017D01*
X113031276Y-125526264D01*
X113031271Y-125526262D01*
X112704436Y-125390882D01*
X112365895Y-125288188D01*
X112365884Y-125288185D01*
X112018946Y-125219176D01*
X112018929Y-125219173D01*
X111752700Y-125192952D01*
X111666881Y-125184500D01*
X111313119Y-125184500D01*
X111233748Y-125192317D01*
X110961070Y-125219173D01*
X110961053Y-125219176D01*
X110614115Y-125288185D01*
X110614104Y-125288188D01*
X110275563Y-125390882D01*
X109948728Y-125526262D01*
X109948723Y-125526264D01*
X109636752Y-125693017D01*
X109636734Y-125693028D01*
X109342606Y-125889558D01*
X109342592Y-125889568D01*
X109069130Y-126113992D01*
X108818992Y-126364130D01*
X108594568Y-126637592D01*
X108594558Y-126637606D01*
X108398028Y-126931734D01*
X108398017Y-126931752D01*
X108231264Y-127243723D01*
X108231262Y-127243728D01*
X108095882Y-127570563D01*
X107993188Y-127909104D01*
X107993185Y-127909115D01*
X107924176Y-128256053D01*
X107924173Y-128256070D01*
X107906796Y-128432509D01*
X107889500Y-128608119D01*
X83650000Y-128608119D01*
X83650000Y-121113131D01*
X104855500Y-121113131D01*
X104855500Y-122726856D01*
X104855502Y-122726882D01*
X104858413Y-122751987D01*
X104858415Y-122751991D01*
X104903793Y-122854764D01*
X104903794Y-122854765D01*
X104983235Y-122934206D01*
X105086009Y-122979585D01*
X105111135Y-122982500D01*
X108248864Y-122982499D01*
X108248879Y-122982497D01*
X108248882Y-122982497D01*
X108273987Y-122979586D01*
X108273988Y-122979585D01*
X108273991Y-122979585D01*
X108376765Y-122934206D01*
X108456206Y-122854765D01*
X108501585Y-122751991D01*
X108504500Y-122726865D01*
X108504499Y-121113136D01*
X108504497Y-121113117D01*
X108501586Y-121088012D01*
X108501585Y-121088010D01*
X108501585Y-121088009D01*
X108456206Y-120985235D01*
X108376765Y-120905794D01*
X108376763Y-120905793D01*
X108273992Y-120860415D01*
X108248865Y-120857500D01*
X105111143Y-120857500D01*
X105111117Y-120857502D01*
X105086012Y-120860413D01*
X105086008Y-120860415D01*
X104983235Y-120905793D01*
X104903794Y-120985234D01*
X104858415Y-121088006D01*
X104858415Y-121088008D01*
X104855500Y-121113131D01*
X83650000Y-121113131D01*
X83650000Y-119275348D01*
X104855500Y-119275348D01*
X104855500Y-119484651D01*
X104896329Y-119689912D01*
X104896331Y-119689920D01*
X104976423Y-119883280D01*
X105092703Y-120057306D01*
X105240693Y-120205296D01*
X105414719Y-120321576D01*
X105511399Y-120361622D01*
X105608080Y-120401669D01*
X105813348Y-120442499D01*
X105813352Y-120442500D01*
X105813353Y-120442500D01*
X107546648Y-120442500D01*
X107546649Y-120442499D01*
X107751920Y-120401669D01*
X107945282Y-120321575D01*
X108119304Y-120205298D01*
X108267298Y-120057304D01*
X108383575Y-119883282D01*
X108463669Y-119689920D01*
X108504500Y-119484647D01*
X108504500Y-119275353D01*
X108463669Y-119070080D01*
X108423622Y-118973399D01*
X108383576Y-118876719D01*
X108267296Y-118702693D01*
X108119306Y-118554703D01*
X107945280Y-118438423D01*
X107751920Y-118358331D01*
X107751912Y-118358329D01*
X107546651Y-118317500D01*
X107546647Y-118317500D01*
X105813353Y-118317500D01*
X105813348Y-118317500D01*
X105608087Y-118358329D01*
X105608079Y-118358331D01*
X105414719Y-118438423D01*
X105240693Y-118554703D01*
X105092703Y-118702693D01*
X104976423Y-118876719D01*
X104896331Y-119070079D01*
X104896329Y-119070087D01*
X104855500Y-119275348D01*
X83650000Y-119275348D01*
X83650000Y-116735348D01*
X104855500Y-116735348D01*
X104855500Y-116944651D01*
X104896329Y-117149912D01*
X104896331Y-117149920D01*
X104976423Y-117343280D01*
X105092703Y-117517306D01*
X105240693Y-117665296D01*
X105414719Y-117781576D01*
X105511399Y-117821622D01*
X105608080Y-117861669D01*
X105813348Y-117902499D01*
X105813352Y-117902500D01*
X105813353Y-117902500D01*
X107546648Y-117902500D01*
X107546649Y-117902499D01*
X107751920Y-117861669D01*
X107945282Y-117781575D01*
X108119304Y-117665298D01*
X108267298Y-117517304D01*
X108383575Y-117343282D01*
X108463669Y-117149920D01*
X108504500Y-116944647D01*
X108504500Y-116735353D01*
X108463669Y-116530080D01*
X108423622Y-116433399D01*
X108383576Y-116336719D01*
X108267296Y-116162693D01*
X108119306Y-116014703D01*
X107945280Y-115898423D01*
X107751920Y-115818331D01*
X107751912Y-115818329D01*
X107546651Y-115777500D01*
X107546647Y-115777500D01*
X105813353Y-115777500D01*
X105813348Y-115777500D01*
X105608087Y-115818329D01*
X105608079Y-115818331D01*
X105414719Y-115898423D01*
X105240693Y-116014703D01*
X105092703Y-116162693D01*
X104976423Y-116336719D01*
X104896331Y-116530079D01*
X104896329Y-116530087D01*
X104855500Y-116735348D01*
X83650000Y-116735348D01*
X83650000Y-114195348D01*
X104855500Y-114195348D01*
X104855500Y-114404651D01*
X104896329Y-114609912D01*
X104896331Y-114609920D01*
X104976423Y-114803280D01*
X105092703Y-114977306D01*
X105240693Y-115125296D01*
X105414719Y-115241576D01*
X105511399Y-115281622D01*
X105608080Y-115321669D01*
X105813348Y-115362499D01*
X105813352Y-115362500D01*
X105813353Y-115362500D01*
X107546648Y-115362500D01*
X107546649Y-115362499D01*
X107751920Y-115321669D01*
X107945282Y-115241575D01*
X108119304Y-115125298D01*
X108267298Y-114977304D01*
X108383575Y-114803282D01*
X108463669Y-114609920D01*
X108504500Y-114404647D01*
X108504500Y-114195353D01*
X108463669Y-113990080D01*
X108415945Y-113874865D01*
X108383576Y-113796719D01*
X108267296Y-113622693D01*
X108119306Y-113474703D01*
X107945280Y-113358423D01*
X107751920Y-113278331D01*
X107751912Y-113278329D01*
X107546651Y-113237500D01*
X107546647Y-113237500D01*
X105813353Y-113237500D01*
X105813348Y-113237500D01*
X105608087Y-113278329D01*
X105608079Y-113278331D01*
X105414719Y-113358423D01*
X105240693Y-113474703D01*
X105092703Y-113622693D01*
X104976423Y-113796719D01*
X104896331Y-113990079D01*
X104896329Y-113990087D01*
X104855500Y-114195348D01*
X83650000Y-114195348D01*
X83650000Y-113029997D01*
X130815034Y-113029997D01*
X130815034Y-113030002D01*
X130834858Y-113256599D01*
X130834860Y-113256610D01*
X130893730Y-113476317D01*
X130893735Y-113476331D01*
X130989863Y-113682478D01*
X131040974Y-113755472D01*
X131720000Y-113076446D01*
X131720000Y-113082661D01*
X131747259Y-113184394D01*
X131799920Y-113275606D01*
X131874394Y-113350080D01*
X131965606Y-113402741D01*
X132067339Y-113430000D01*
X132073553Y-113430000D01*
X131394526Y-114109025D01*
X131467513Y-114160132D01*
X131467521Y-114160136D01*
X131673668Y-114256264D01*
X131673682Y-114256269D01*
X131893389Y-114315139D01*
X131893400Y-114315141D01*
X132119998Y-114334966D01*
X132120002Y-114334966D01*
X132346599Y-114315141D01*
X132346610Y-114315139D01*
X132566317Y-114256269D01*
X132566331Y-114256264D01*
X132772478Y-114160136D01*
X132845471Y-114109024D01*
X132166447Y-113430000D01*
X132172661Y-113430000D01*
X132274394Y-113402741D01*
X132365606Y-113350080D01*
X132440080Y-113275606D01*
X132492741Y-113184394D01*
X132520000Y-113082661D01*
X132520000Y-113076447D01*
X133199024Y-113755471D01*
X133250135Y-113682480D01*
X133283117Y-113611748D01*
X133329289Y-113559308D01*
X133396482Y-113540155D01*
X133463363Y-113560370D01*
X133508699Y-113613534D01*
X133519500Y-113664150D01*
X133519500Y-113874856D01*
X133519502Y-113874882D01*
X133522413Y-113899987D01*
X133522415Y-113899991D01*
X133567793Y-114002764D01*
X133567794Y-114002765D01*
X133647235Y-114082206D01*
X133750009Y-114127585D01*
X133775135Y-114130500D01*
X135464864Y-114130499D01*
X135464879Y-114130497D01*
X135464882Y-114130497D01*
X135489987Y-114127586D01*
X135489988Y-114127585D01*
X135489991Y-114127585D01*
X135592765Y-114082206D01*
X135672206Y-114002765D01*
X135717585Y-113899991D01*
X135720500Y-113874865D01*
X135720499Y-112185136D01*
X135720497Y-112185117D01*
X135717586Y-112160012D01*
X135717585Y-112160010D01*
X135717585Y-112160009D01*
X135672206Y-112057235D01*
X135592765Y-111977794D01*
X135592763Y-111977793D01*
X135489992Y-111932415D01*
X135464865Y-111929500D01*
X133775143Y-111929500D01*
X133775117Y-111929502D01*
X133750012Y-111932413D01*
X133750008Y-111932415D01*
X133647235Y-111977793D01*
X133567794Y-112057234D01*
X133522415Y-112160006D01*
X133522415Y-112160008D01*
X133519500Y-112185131D01*
X133519500Y-112395846D01*
X133499815Y-112462885D01*
X133447011Y-112508640D01*
X133377853Y-112518584D01*
X133314297Y-112489559D01*
X133283118Y-112448251D01*
X133250134Y-112377517D01*
X133250132Y-112377513D01*
X133199025Y-112304526D01*
X132520000Y-112983551D01*
X132520000Y-112977339D01*
X132492741Y-112875606D01*
X132440080Y-112784394D01*
X132365606Y-112709920D01*
X132274394Y-112657259D01*
X132172661Y-112630000D01*
X132166445Y-112630000D01*
X132845472Y-111950974D01*
X132772478Y-111899863D01*
X132566331Y-111803735D01*
X132566317Y-111803730D01*
X132346610Y-111744860D01*
X132346599Y-111744858D01*
X132120002Y-111725034D01*
X132119998Y-111725034D01*
X131893400Y-111744858D01*
X131893389Y-111744860D01*
X131673682Y-111803730D01*
X131673673Y-111803734D01*
X131467516Y-111899866D01*
X131467512Y-111899868D01*
X131394526Y-111950973D01*
X131394526Y-111950974D01*
X132073553Y-112630000D01*
X132067339Y-112630000D01*
X131965606Y-112657259D01*
X131874394Y-112709920D01*
X131799920Y-112784394D01*
X131747259Y-112875606D01*
X131720000Y-112977339D01*
X131720000Y-112983552D01*
X131040974Y-112304526D01*
X131040973Y-112304526D01*
X130989868Y-112377512D01*
X130989866Y-112377516D01*
X130893734Y-112583673D01*
X130893730Y-112583682D01*
X130834860Y-112803389D01*
X130834858Y-112803400D01*
X130815034Y-113029997D01*
X83650000Y-113029997D01*
X83650000Y-111655348D01*
X104855500Y-111655348D01*
X104855500Y-111864651D01*
X104896329Y-112069912D01*
X104896331Y-112069920D01*
X104976423Y-112263280D01*
X105092703Y-112437306D01*
X105240693Y-112585296D01*
X105414719Y-112701576D01*
X105511399Y-112741622D01*
X105608080Y-112781669D01*
X105813348Y-112822499D01*
X105813352Y-112822500D01*
X105813353Y-112822500D01*
X107546648Y-112822500D01*
X107546649Y-112822499D01*
X107751920Y-112781669D01*
X107945282Y-112701575D01*
X108119304Y-112585298D01*
X108267298Y-112437304D01*
X108383575Y-112263282D01*
X108463669Y-112069920D01*
X108504500Y-111864647D01*
X108504500Y-111655353D01*
X108463669Y-111450080D01*
X108423622Y-111353399D01*
X108383576Y-111256719D01*
X108267296Y-111082693D01*
X108119306Y-110934703D01*
X107945280Y-110818423D01*
X107751920Y-110738331D01*
X107751912Y-110738329D01*
X107546651Y-110697500D01*
X107546647Y-110697500D01*
X105813353Y-110697500D01*
X105813348Y-110697500D01*
X105608087Y-110738329D01*
X105608079Y-110738331D01*
X105414719Y-110818423D01*
X105240693Y-110934703D01*
X105092703Y-111082693D01*
X104976423Y-111256719D01*
X104896331Y-111450079D01*
X104896329Y-111450087D01*
X104855500Y-111655348D01*
X83650000Y-111655348D01*
X83650000Y-109115348D01*
X104855500Y-109115348D01*
X104855500Y-109324651D01*
X104896329Y-109529912D01*
X104896331Y-109529920D01*
X104976423Y-109723280D01*
X105092703Y-109897306D01*
X105240693Y-110045296D01*
X105414719Y-110161576D01*
X105511399Y-110201622D01*
X105608080Y-110241669D01*
X105813348Y-110282499D01*
X105813352Y-110282500D01*
X105813353Y-110282500D01*
X107546648Y-110282500D01*
X107546649Y-110282499D01*
X107751920Y-110241669D01*
X107945282Y-110161575D01*
X108119304Y-110045298D01*
X108267298Y-109897304D01*
X108383575Y-109723282D01*
X108463669Y-109529920D01*
X108504500Y-109324647D01*
X108504500Y-109115353D01*
X108496251Y-109073881D01*
X146067000Y-109073881D01*
X146067000Y-109366118D01*
X146097853Y-109560913D01*
X146158797Y-109748482D01*
X146158799Y-109748485D01*
X146248338Y-109924215D01*
X146364265Y-110083775D01*
X146503725Y-110223235D01*
X146663285Y-110339162D01*
X146839015Y-110428701D01*
X146839017Y-110428702D01*
X146932801Y-110459174D01*
X147026588Y-110489647D01*
X147116807Y-110503936D01*
X147221382Y-110520500D01*
X147221387Y-110520500D01*
X147418618Y-110520500D01*
X147513052Y-110505542D01*
X147613412Y-110489647D01*
X147800985Y-110428701D01*
X147976715Y-110339162D01*
X148136275Y-110223235D01*
X148275735Y-110083775D01*
X148391662Y-109924215D01*
X148481201Y-109748485D01*
X148542147Y-109560912D01*
X148558042Y-109460552D01*
X148573000Y-109366118D01*
X148573000Y-109073881D01*
X148555050Y-108960559D01*
X148542147Y-108879088D01*
X148511674Y-108785301D01*
X148481202Y-108691517D01*
X148476964Y-108683199D01*
X148391662Y-108515785D01*
X148275735Y-108356225D01*
X148136275Y-108216765D01*
X147976715Y-108100838D01*
X147800982Y-108011297D01*
X147613413Y-107950353D01*
X147418618Y-107919500D01*
X147418613Y-107919500D01*
X147221387Y-107919500D01*
X147221382Y-107919500D01*
X147026586Y-107950353D01*
X146839017Y-108011297D01*
X146663284Y-108100838D01*
X146503722Y-108216767D01*
X146364267Y-108356222D01*
X146248338Y-108515784D01*
X146158797Y-108691517D01*
X146097853Y-108879086D01*
X146067000Y-109073881D01*
X108496251Y-109073881D01*
X108463669Y-108910080D01*
X108423622Y-108813399D01*
X108383576Y-108716719D01*
X108267296Y-108542693D01*
X108119306Y-108394703D01*
X107945280Y-108278423D01*
X107751920Y-108198331D01*
X107751912Y-108198329D01*
X107546651Y-108157500D01*
X107546647Y-108157500D01*
X105813353Y-108157500D01*
X105813348Y-108157500D01*
X105608087Y-108198329D01*
X105608079Y-108198331D01*
X105414719Y-108278423D01*
X105240693Y-108394703D01*
X105092703Y-108542693D01*
X104976423Y-108716719D01*
X104896331Y-108910079D01*
X104896329Y-108910087D01*
X104855500Y-109115348D01*
X83650000Y-109115348D01*
X83650000Y-106575348D01*
X138615500Y-106575348D01*
X138615500Y-106784651D01*
X138656329Y-106989912D01*
X138656331Y-106989920D01*
X138736423Y-107183280D01*
X138852703Y-107357306D01*
X139000693Y-107505296D01*
X139174719Y-107621576D01*
X139271399Y-107661622D01*
X139368080Y-107701669D01*
X139573348Y-107742499D01*
X139573352Y-107742500D01*
X139573353Y-107742500D01*
X141306648Y-107742500D01*
X141306649Y-107742499D01*
X141511920Y-107701669D01*
X141705282Y-107621575D01*
X141879304Y-107505298D01*
X142027298Y-107357304D01*
X142143575Y-107183282D01*
X142223669Y-106989920D01*
X142264500Y-106784647D01*
X142264500Y-106575353D01*
X142264499Y-106575348D01*
X153115500Y-106575348D01*
X153115500Y-106784651D01*
X153156329Y-106989912D01*
X153156331Y-106989920D01*
X153236423Y-107183280D01*
X153352703Y-107357306D01*
X153500693Y-107505296D01*
X153674719Y-107621576D01*
X153771399Y-107661622D01*
X153868080Y-107701669D01*
X154073348Y-107742499D01*
X154073352Y-107742500D01*
X154503387Y-107742500D01*
X154570426Y-107762185D01*
X154616181Y-107814989D01*
X154626125Y-107884147D01*
X154597100Y-107947703D01*
X154541705Y-107984431D01*
X154459017Y-108011297D01*
X154283284Y-108100838D01*
X154123722Y-108216767D01*
X153984267Y-108356222D01*
X153868338Y-108515784D01*
X153778797Y-108691517D01*
X153717853Y-108879086D01*
X153687000Y-109073881D01*
X153687000Y-109366118D01*
X153717853Y-109560913D01*
X153778797Y-109748482D01*
X153778799Y-109748485D01*
X153868338Y-109924215D01*
X153984265Y-110083775D01*
X154123725Y-110223235D01*
X154283285Y-110339162D01*
X154459015Y-110428701D01*
X154459017Y-110428702D01*
X154552801Y-110459174D01*
X154646588Y-110489647D01*
X154736807Y-110503936D01*
X154841382Y-110520500D01*
X154841387Y-110520500D01*
X155038618Y-110520500D01*
X155133052Y-110505542D01*
X155233412Y-110489647D01*
X155420985Y-110428701D01*
X155596715Y-110339162D01*
X155756275Y-110223235D01*
X155895735Y-110083775D01*
X156011662Y-109924215D01*
X156101201Y-109748485D01*
X156162147Y-109560912D01*
X156178042Y-109460552D01*
X156193000Y-109366118D01*
X156193000Y-109219998D01*
X158114645Y-109219998D01*
X158114645Y-109220001D01*
X158134039Y-109491160D01*
X158134040Y-109491167D01*
X158184533Y-109723280D01*
X158191825Y-109756801D01*
X158268330Y-109961920D01*
X158286830Y-110011519D01*
X158417109Y-110250107D01*
X158417110Y-110250108D01*
X158417113Y-110250113D01*
X158580029Y-110467742D01*
X158580033Y-110467746D01*
X158580038Y-110467752D01*
X158772247Y-110659961D01*
X158772253Y-110659966D01*
X158772258Y-110659971D01*
X158989887Y-110822887D01*
X158989891Y-110822889D01*
X158989892Y-110822890D01*
X159228481Y-110953169D01*
X159228480Y-110953169D01*
X159228484Y-110953170D01*
X159228487Y-110953172D01*
X159483199Y-111048175D01*
X159748840Y-111105961D01*
X160000605Y-111123967D01*
X160019999Y-111125355D01*
X160020000Y-111125355D01*
X160020001Y-111125355D01*
X160038100Y-111124060D01*
X160291160Y-111105961D01*
X160556801Y-111048175D01*
X160811513Y-110953172D01*
X160811517Y-110953169D01*
X160811519Y-110953169D01*
X160930813Y-110888029D01*
X161050113Y-110822887D01*
X161267742Y-110659971D01*
X161459971Y-110467742D01*
X161622887Y-110250113D01*
X161753172Y-110011513D01*
X161848175Y-109756801D01*
X161905961Y-109491160D01*
X161925355Y-109220000D01*
X161905961Y-108948840D01*
X161848175Y-108683199D01*
X161753172Y-108428487D01*
X161753170Y-108428484D01*
X161753169Y-108428480D01*
X161622890Y-108189892D01*
X161622889Y-108189891D01*
X161622887Y-108189887D01*
X161459971Y-107972258D01*
X161459966Y-107972253D01*
X161459961Y-107972247D01*
X161267752Y-107780038D01*
X161267746Y-107780033D01*
X161267742Y-107780029D01*
X161050113Y-107617113D01*
X161050108Y-107617110D01*
X161050107Y-107617109D01*
X160811518Y-107486830D01*
X160811519Y-107486830D01*
X160761920Y-107468330D01*
X160556801Y-107391825D01*
X160556794Y-107391823D01*
X160556793Y-107391823D01*
X160291167Y-107334040D01*
X160291160Y-107334039D01*
X160020001Y-107314645D01*
X160019999Y-107314645D01*
X159748839Y-107334039D01*
X159748832Y-107334040D01*
X159483206Y-107391823D01*
X159483202Y-107391824D01*
X159483199Y-107391825D01*
X159355843Y-107439326D01*
X159228480Y-107486830D01*
X158989892Y-107617109D01*
X158989891Y-107617110D01*
X158772259Y-107780028D01*
X158772247Y-107780038D01*
X158580038Y-107972247D01*
X158580028Y-107972259D01*
X158417110Y-108189891D01*
X158417109Y-108189892D01*
X158286830Y-108428480D01*
X158265872Y-108484671D01*
X158191825Y-108683199D01*
X158191824Y-108683202D01*
X158191823Y-108683206D01*
X158134040Y-108948832D01*
X158134039Y-108948839D01*
X158114645Y-109219998D01*
X156193000Y-109219998D01*
X156193000Y-109073881D01*
X156175050Y-108960559D01*
X156162147Y-108879088D01*
X156131674Y-108785301D01*
X156101202Y-108691517D01*
X156096964Y-108683199D01*
X156011662Y-108515785D01*
X155895735Y-108356225D01*
X155756275Y-108216765D01*
X155596715Y-108100838D01*
X155420982Y-108011297D01*
X155338295Y-107984431D01*
X155280620Y-107944994D01*
X155253421Y-107880635D01*
X155265335Y-107811789D01*
X155312579Y-107760313D01*
X155376613Y-107742500D01*
X155806648Y-107742500D01*
X155806649Y-107742499D01*
X156011920Y-107701669D01*
X156205282Y-107621575D01*
X156379304Y-107505298D01*
X156527298Y-107357304D01*
X156643575Y-107183282D01*
X156723669Y-106989920D01*
X156764500Y-106784647D01*
X156764500Y-106575353D01*
X156723669Y-106370080D01*
X156683622Y-106273399D01*
X156643576Y-106176719D01*
X156527296Y-106002693D01*
X156379306Y-105854703D01*
X156205280Y-105738423D01*
X156011920Y-105658331D01*
X156011912Y-105658329D01*
X155806651Y-105617500D01*
X155806647Y-105617500D01*
X154073353Y-105617500D01*
X154073348Y-105617500D01*
X153868087Y-105658329D01*
X153868079Y-105658331D01*
X153674719Y-105738423D01*
X153500693Y-105854703D01*
X153352703Y-106002693D01*
X153236423Y-106176719D01*
X153156331Y-106370079D01*
X153156329Y-106370087D01*
X153115500Y-106575348D01*
X142264499Y-106575348D01*
X142223669Y-106370080D01*
X142183622Y-106273399D01*
X142143576Y-106176719D01*
X142027296Y-106002693D01*
X141879306Y-105854703D01*
X141705280Y-105738423D01*
X141511920Y-105658331D01*
X141511912Y-105658329D01*
X141306651Y-105617500D01*
X141306647Y-105617500D01*
X139573353Y-105617500D01*
X139573348Y-105617500D01*
X139368087Y-105658329D01*
X139368079Y-105658331D01*
X139174719Y-105738423D01*
X139000693Y-105854703D01*
X138852703Y-106002693D01*
X138736423Y-106176719D01*
X138656331Y-106370079D01*
X138656329Y-106370087D01*
X138615500Y-106575348D01*
X83650000Y-106575348D01*
X83650000Y-101333122D01*
X87689500Y-101333122D01*
X87689500Y-101686877D01*
X87724173Y-102038929D01*
X87724176Y-102038946D01*
X87793185Y-102385884D01*
X87793188Y-102385895D01*
X87895882Y-102724436D01*
X88031262Y-103051271D01*
X88031264Y-103051276D01*
X88198017Y-103363247D01*
X88198028Y-103363265D01*
X88394558Y-103657393D01*
X88394568Y-103657407D01*
X88618992Y-103930869D01*
X88869130Y-104181007D01*
X88869135Y-104181011D01*
X88869136Y-104181012D01*
X89142598Y-104405436D01*
X89436741Y-104601976D01*
X89436750Y-104601981D01*
X89436752Y-104601982D01*
X89748723Y-104768735D01*
X89748725Y-104768735D01*
X89748731Y-104768739D01*
X90075565Y-104904118D01*
X90414095Y-105006809D01*
X90414101Y-105006810D01*
X90414104Y-105006811D01*
X90414115Y-105006814D01*
X90631674Y-105050088D01*
X90761060Y-105075825D01*
X91113119Y-105110500D01*
X91113122Y-105110500D01*
X91466878Y-105110500D01*
X91466881Y-105110500D01*
X91818940Y-105075825D01*
X91990679Y-105041663D01*
X92165884Y-105006814D01*
X92165895Y-105006811D01*
X92165895Y-105006810D01*
X92165905Y-105006809D01*
X92504435Y-104904118D01*
X92831269Y-104768739D01*
X93143259Y-104601976D01*
X93437402Y-104405436D01*
X93710864Y-104181012D01*
X93961012Y-103930864D01*
X94185436Y-103657402D01*
X94381976Y-103363259D01*
X94548739Y-103051269D01*
X94684118Y-102724435D01*
X94786809Y-102385905D01*
X94786811Y-102385895D01*
X94786814Y-102385884D01*
X94848974Y-102073381D01*
X94855825Y-102038940D01*
X94890500Y-101686881D01*
X94890500Y-101349999D01*
X138439865Y-101349999D01*
X138439865Y-101350000D01*
X139997749Y-101350000D01*
X139966619Y-101403919D01*
X139932000Y-101533120D01*
X139932000Y-101666880D01*
X139966619Y-101796081D01*
X139997749Y-101850000D01*
X138439865Y-101850000D01*
X138447074Y-101895517D01*
X138508456Y-102084435D01*
X138598641Y-102261432D01*
X138715403Y-102422139D01*
X138715403Y-102422140D01*
X138855859Y-102562596D01*
X139016567Y-102679358D01*
X139193562Y-102769542D01*
X139382476Y-102830924D01*
X139382480Y-102830925D01*
X139493025Y-102848433D01*
X139556160Y-102878362D01*
X139593092Y-102937673D01*
X139592094Y-103007535D01*
X139553485Y-103065768D01*
X139497820Y-103092523D01*
X139368085Y-103118329D01*
X139368079Y-103118331D01*
X139174719Y-103198423D01*
X139000693Y-103314703D01*
X138852703Y-103462693D01*
X138736423Y-103636719D01*
X138656331Y-103830079D01*
X138656329Y-103830087D01*
X138615500Y-104035348D01*
X138615500Y-104244651D01*
X138656329Y-104449912D01*
X138656331Y-104449920D01*
X138736423Y-104643280D01*
X138852703Y-104817306D01*
X139000693Y-104965296D01*
X139174719Y-105081576D01*
X139244548Y-105110500D01*
X139368080Y-105161669D01*
X139573348Y-105202499D01*
X139573352Y-105202500D01*
X139573353Y-105202500D01*
X141306648Y-105202500D01*
X141306649Y-105202499D01*
X141511920Y-105161669D01*
X141705282Y-105081575D01*
X141879304Y-104965298D01*
X142027298Y-104817304D01*
X142143575Y-104643282D01*
X142223669Y-104449920D01*
X142264500Y-104244647D01*
X142264500Y-104035353D01*
X142223669Y-103830080D01*
X142152139Y-103657393D01*
X142143576Y-103636719D01*
X142027296Y-103462693D01*
X141879306Y-103314703D01*
X141705280Y-103198423D01*
X141511920Y-103118331D01*
X141511914Y-103118329D01*
X141382179Y-103092523D01*
X141320268Y-103060138D01*
X141285694Y-102999422D01*
X141289434Y-102929653D01*
X141330301Y-102872981D01*
X141386974Y-102848432D01*
X141497527Y-102830922D01*
X141686437Y-102769542D01*
X141863432Y-102679358D01*
X142024139Y-102562596D01*
X142024140Y-102562596D01*
X142164596Y-102422140D01*
X142164596Y-102422139D01*
X142281358Y-102261432D01*
X142371543Y-102084435D01*
X142432925Y-101895517D01*
X142440134Y-101850000D01*
X140882251Y-101850000D01*
X140913381Y-101796081D01*
X140948000Y-101666880D01*
X140948000Y-101533120D01*
X140913381Y-101403919D01*
X140882251Y-101350000D01*
X142440135Y-101350000D01*
X142440134Y-101349999D01*
X142432925Y-101304482D01*
X142371543Y-101115564D01*
X142281358Y-100938567D01*
X142164596Y-100777860D01*
X142164596Y-100777859D01*
X142024140Y-100637403D01*
X141863432Y-100520641D01*
X141686437Y-100430457D01*
X141497522Y-100369075D01*
X141386973Y-100351566D01*
X141323838Y-100321637D01*
X141286907Y-100262325D01*
X141287905Y-100192463D01*
X141326515Y-100134230D01*
X141382180Y-100107476D01*
X141428042Y-100098353D01*
X141511920Y-100081669D01*
X141705282Y-100001575D01*
X141705285Y-100001573D01*
X141707970Y-100000139D01*
X141709941Y-99999645D01*
X141710910Y-99999244D01*
X141710969Y-99999387D01*
X141766418Y-99985500D01*
X144871156Y-99985500D01*
X144991445Y-99961572D01*
X145049958Y-99949933D01*
X145206002Y-99885298D01*
X145218387Y-99880168D01*
X145218391Y-99880166D01*
X145312459Y-99817312D01*
X145369972Y-99778883D01*
X146768883Y-98379972D01*
X146820526Y-98302682D01*
X146870166Y-98228391D01*
X146870168Y-98228387D01*
X146914916Y-98120354D01*
X146939933Y-98059958D01*
X146972249Y-97897500D01*
X146975500Y-97881156D01*
X146975500Y-96428503D01*
X153015500Y-96428503D01*
X153015500Y-96611496D01*
X153017584Y-96624651D01*
X153044124Y-96792219D01*
X153056371Y-96829912D01*
X153100670Y-96966247D01*
X153183743Y-97129286D01*
X153291288Y-97277312D01*
X153420687Y-97406711D01*
X153559205Y-97507348D01*
X153568717Y-97514259D01*
X153731755Y-97597331D01*
X153905781Y-97653876D01*
X153945336Y-97660140D01*
X153991968Y-97667527D01*
X154055103Y-97697456D01*
X154092034Y-97756768D01*
X154091036Y-97826630D01*
X154052426Y-97884863D01*
X153991968Y-97912473D01*
X153905784Y-97926123D01*
X153731752Y-97982670D01*
X153568713Y-98065743D01*
X153420687Y-98173288D01*
X153291288Y-98302687D01*
X153183743Y-98450713D01*
X153100670Y-98613752D01*
X153044123Y-98787784D01*
X153015500Y-98968503D01*
X153015500Y-99151496D01*
X153017584Y-99164651D01*
X153044124Y-99332219D01*
X153100669Y-99506245D01*
X153177356Y-99656752D01*
X153183743Y-99669286D01*
X153291288Y-99817312D01*
X153420687Y-99946711D01*
X153559205Y-100047348D01*
X153568717Y-100054259D01*
X153731755Y-100137331D01*
X153905781Y-100193876D01*
X153945336Y-100200140D01*
X153991968Y-100207527D01*
X154055103Y-100237456D01*
X154092034Y-100296768D01*
X154091036Y-100366630D01*
X154052426Y-100424863D01*
X153991968Y-100452473D01*
X153905784Y-100466123D01*
X153905781Y-100466124D01*
X153737997Y-100520641D01*
X153731752Y-100522670D01*
X153568713Y-100605743D01*
X153420687Y-100713288D01*
X153291288Y-100842687D01*
X153183743Y-100990713D01*
X153100670Y-101153752D01*
X153044123Y-101327784D01*
X153015500Y-101508503D01*
X153015500Y-101691496D01*
X153044123Y-101872215D01*
X153044124Y-101872219D01*
X153100669Y-102046245D01*
X153114495Y-102073381D01*
X153183743Y-102209286D01*
X153291288Y-102357312D01*
X153420687Y-102486711D01*
X153525136Y-102562596D01*
X153568717Y-102594259D01*
X153731755Y-102677331D01*
X153905781Y-102733876D01*
X153945336Y-102740140D01*
X153991968Y-102747527D01*
X154055103Y-102777456D01*
X154092034Y-102836768D01*
X154091036Y-102906630D01*
X154052426Y-102964863D01*
X153991968Y-102992473D01*
X153905784Y-103006123D01*
X153731752Y-103062670D01*
X153568713Y-103145743D01*
X153420687Y-103253288D01*
X153291288Y-103382687D01*
X153183743Y-103530713D01*
X153100670Y-103693752D01*
X153044123Y-103867784D01*
X153015500Y-104048503D01*
X153015500Y-104231496D01*
X153043050Y-104405441D01*
X153044124Y-104412219D01*
X153100669Y-104586245D01*
X153114119Y-104612643D01*
X153183743Y-104749286D01*
X153291288Y-104897312D01*
X153420687Y-105026711D01*
X153536015Y-105110500D01*
X153568717Y-105134259D01*
X153731755Y-105217331D01*
X153905781Y-105273876D01*
X153973554Y-105284610D01*
X154086504Y-105302500D01*
X154086509Y-105302500D01*
X155793496Y-105302500D01*
X155893895Y-105286597D01*
X155974219Y-105273876D01*
X156148245Y-105217331D01*
X156311283Y-105134259D01*
X156394397Y-105073873D01*
X156459312Y-105026711D01*
X156459314Y-105026708D01*
X156459318Y-105026706D01*
X156588706Y-104897318D01*
X156588708Y-104897314D01*
X156588711Y-104897312D01*
X156682123Y-104768739D01*
X156696259Y-104749283D01*
X156779331Y-104586245D01*
X156835876Y-104412219D01*
X156862416Y-104244651D01*
X156864500Y-104231496D01*
X156864500Y-104048503D01*
X156835876Y-103867784D01*
X156835876Y-103867781D01*
X156779331Y-103693755D01*
X156696259Y-103530717D01*
X156689348Y-103521205D01*
X156588711Y-103382687D01*
X156459312Y-103253288D01*
X156311286Y-103145743D01*
X156311285Y-103145742D01*
X156311283Y-103145741D01*
X156148245Y-103062669D01*
X155974219Y-103006124D01*
X155974217Y-103006123D01*
X155974215Y-103006123D01*
X155888031Y-102992473D01*
X155824896Y-102962544D01*
X155787965Y-102903232D01*
X155788963Y-102833370D01*
X155827573Y-102775137D01*
X155888031Y-102747527D01*
X155921478Y-102742229D01*
X155974219Y-102733876D01*
X156148245Y-102677331D01*
X156311283Y-102594259D01*
X156394397Y-102533873D01*
X156459312Y-102486711D01*
X156459314Y-102486708D01*
X156459318Y-102486706D01*
X156588706Y-102357318D01*
X156588708Y-102357314D01*
X156588711Y-102357312D01*
X156635873Y-102292397D01*
X156696259Y-102209283D01*
X156779331Y-102046245D01*
X156835876Y-101872219D01*
X156848597Y-101791895D01*
X156864500Y-101691496D01*
X156864500Y-101508503D01*
X156839395Y-101349999D01*
X156835876Y-101327781D01*
X156779331Y-101153755D01*
X156696259Y-100990717D01*
X156658370Y-100938567D01*
X156588711Y-100842687D01*
X156459312Y-100713288D01*
X156311286Y-100605743D01*
X156311285Y-100605742D01*
X156311283Y-100605741D01*
X156148245Y-100522669D01*
X155974219Y-100466124D01*
X155974217Y-100466123D01*
X155974215Y-100466123D01*
X155888031Y-100452473D01*
X155824896Y-100422544D01*
X155787965Y-100363232D01*
X155788963Y-100293370D01*
X155827573Y-100235137D01*
X155888031Y-100207527D01*
X155921478Y-100202229D01*
X155974219Y-100193876D01*
X156148245Y-100137331D01*
X156311283Y-100054259D01*
X156429003Y-99968731D01*
X156459312Y-99946711D01*
X156459314Y-99946708D01*
X156459318Y-99946706D01*
X156588706Y-99817318D01*
X156588708Y-99817314D01*
X156588711Y-99817312D01*
X156646839Y-99737304D01*
X156696259Y-99669283D01*
X156779331Y-99506245D01*
X156835876Y-99332219D01*
X156862416Y-99164651D01*
X156864500Y-99151496D01*
X156864500Y-98968503D01*
X156835876Y-98787784D01*
X156835876Y-98787781D01*
X156779331Y-98613755D01*
X156696259Y-98450717D01*
X156672509Y-98418028D01*
X156588711Y-98302687D01*
X156459312Y-98173288D01*
X156311286Y-98065743D01*
X156311285Y-98065742D01*
X156311283Y-98065741D01*
X156148245Y-97982669D01*
X155974219Y-97926124D01*
X155974217Y-97926123D01*
X155974215Y-97926123D01*
X155888031Y-97912473D01*
X155824896Y-97882544D01*
X155787965Y-97823232D01*
X155788963Y-97753370D01*
X155827573Y-97695137D01*
X155888031Y-97667527D01*
X155921478Y-97662229D01*
X155974219Y-97653876D01*
X156148245Y-97597331D01*
X156311283Y-97514259D01*
X156409413Y-97442964D01*
X156459312Y-97406711D01*
X156459314Y-97406708D01*
X156459318Y-97406706D01*
X156588706Y-97277318D01*
X156588708Y-97277314D01*
X156588711Y-97277312D01*
X156646839Y-97197304D01*
X156696259Y-97129283D01*
X156779331Y-96966245D01*
X156835876Y-96792219D01*
X156862416Y-96624651D01*
X156864500Y-96611496D01*
X156864500Y-96428503D01*
X156835876Y-96247784D01*
X156835876Y-96247781D01*
X156779331Y-96073755D01*
X156696259Y-95910717D01*
X156674305Y-95880500D01*
X156588711Y-95762687D01*
X156459312Y-95633288D01*
X156311286Y-95525743D01*
X156311285Y-95525742D01*
X156311283Y-95525741D01*
X156148245Y-95442669D01*
X155974219Y-95386124D01*
X155974217Y-95386123D01*
X155974215Y-95386123D01*
X155793496Y-95357500D01*
X155793491Y-95357500D01*
X154086509Y-95357500D01*
X154086504Y-95357500D01*
X153905784Y-95386123D01*
X153731752Y-95442670D01*
X153568713Y-95525743D01*
X153420687Y-95633288D01*
X153291288Y-95762687D01*
X153183743Y-95910713D01*
X153100670Y-96073752D01*
X153044123Y-96247784D01*
X153015500Y-96428503D01*
X146975500Y-96428503D01*
X146975500Y-94414716D01*
X146995185Y-94347677D01*
X147011819Y-94327035D01*
X147463506Y-93875348D01*
X153115500Y-93875348D01*
X153115500Y-94084651D01*
X153156329Y-94289912D01*
X153156331Y-94289920D01*
X153236423Y-94483280D01*
X153352703Y-94657306D01*
X153500693Y-94805296D01*
X153674719Y-94921576D01*
X153771399Y-94961622D01*
X153868080Y-95001669D01*
X154073348Y-95042499D01*
X154073352Y-95042500D01*
X154073353Y-95042500D01*
X155806648Y-95042500D01*
X155806649Y-95042499D01*
X156011920Y-95001669D01*
X156205282Y-94921575D01*
X156379304Y-94805298D01*
X156527298Y-94657304D01*
X156643575Y-94483282D01*
X156723669Y-94289920D01*
X156764500Y-94084647D01*
X156764500Y-93875353D01*
X156723669Y-93670080D01*
X156670454Y-93541608D01*
X156643576Y-93476719D01*
X156527296Y-93302693D01*
X156379306Y-93154703D01*
X156205280Y-93038423D01*
X156011920Y-92958331D01*
X156011912Y-92958329D01*
X155806651Y-92917500D01*
X155806647Y-92917500D01*
X154073353Y-92917500D01*
X154073348Y-92917500D01*
X153868087Y-92958329D01*
X153868079Y-92958331D01*
X153674719Y-93038423D01*
X153500693Y-93154703D01*
X153352703Y-93302693D01*
X153236423Y-93476719D01*
X153156331Y-93670079D01*
X153156329Y-93670087D01*
X153115500Y-93875348D01*
X147463506Y-93875348D01*
X150207035Y-91131819D01*
X150268358Y-91098334D01*
X150294716Y-91095500D01*
X158970500Y-91095500D01*
X159037539Y-91115185D01*
X159083294Y-91167989D01*
X159094500Y-91219500D01*
X159094500Y-91955500D01*
X159074815Y-92022539D01*
X159022011Y-92068294D01*
X158970500Y-92079500D01*
X158375143Y-92079500D01*
X158375117Y-92079502D01*
X158350012Y-92082413D01*
X158350008Y-92082415D01*
X158247235Y-92127793D01*
X158167794Y-92207234D01*
X158122415Y-92310006D01*
X158122415Y-92310008D01*
X158119500Y-92335131D01*
X158119500Y-95624856D01*
X158119502Y-95624882D01*
X158122413Y-95649987D01*
X158122415Y-95649991D01*
X158167793Y-95752764D01*
X158167794Y-95752765D01*
X158247235Y-95832206D01*
X158350009Y-95877585D01*
X158375135Y-95880500D01*
X161664864Y-95880499D01*
X161664879Y-95880497D01*
X161664882Y-95880497D01*
X161689987Y-95877586D01*
X161689988Y-95877585D01*
X161689991Y-95877585D01*
X161792765Y-95832206D01*
X161872206Y-95752765D01*
X161917585Y-95649991D01*
X161920500Y-95624865D01*
X161920499Y-92335136D01*
X161920497Y-92335117D01*
X161917586Y-92310012D01*
X161917585Y-92310010D01*
X161917585Y-92310009D01*
X161872206Y-92207235D01*
X161792765Y-92127794D01*
X161769012Y-92117306D01*
X161689992Y-92082415D01*
X161664868Y-92079500D01*
X161664865Y-92079500D01*
X161069500Y-92079500D01*
X161002461Y-92059815D01*
X160956706Y-92007011D01*
X160945500Y-91955500D01*
X160945500Y-90078843D01*
X160909934Y-89900047D01*
X160909933Y-89900046D01*
X160909933Y-89900042D01*
X160885716Y-89841576D01*
X160840168Y-89731612D01*
X160840166Y-89731608D01*
X160738885Y-89580030D01*
X160738880Y-89580024D01*
X160609975Y-89451119D01*
X160609967Y-89451113D01*
X160458391Y-89349833D01*
X160458387Y-89349831D01*
X160289962Y-89280068D01*
X160289952Y-89280065D01*
X160111156Y-89244500D01*
X160111154Y-89244500D01*
X149951154Y-89244500D01*
X149768846Y-89244500D01*
X149768841Y-89244500D01*
X149590049Y-89280064D01*
X149590041Y-89280066D01*
X149481235Y-89325136D01*
X149481234Y-89325136D01*
X149421612Y-89349831D01*
X149421608Y-89349833D01*
X149270032Y-89451113D01*
X149270029Y-89451115D01*
X149205573Y-89515571D01*
X149141117Y-89580028D01*
X149141115Y-89580030D01*
X145442587Y-93278557D01*
X145331119Y-93390024D01*
X145331113Y-93390032D01*
X145229833Y-93541608D01*
X145229831Y-93541612D01*
X145160068Y-93710037D01*
X145160065Y-93710047D01*
X145124500Y-93888843D01*
X145124500Y-97355283D01*
X145104815Y-97422322D01*
X145088181Y-97442964D01*
X144432964Y-98098181D01*
X144371641Y-98131666D01*
X144345283Y-98134500D01*
X141766418Y-98134500D01*
X141710969Y-98120612D01*
X141710910Y-98120756D01*
X141709941Y-98120354D01*
X141707970Y-98119861D01*
X141705285Y-98118426D01*
X141511920Y-98038331D01*
X141511912Y-98038329D01*
X141306651Y-97997500D01*
X141306647Y-97997500D01*
X139573353Y-97997500D01*
X139573348Y-97997500D01*
X139368087Y-98038329D01*
X139368079Y-98038331D01*
X139174719Y-98118423D01*
X139000693Y-98234703D01*
X138852703Y-98382693D01*
X138736423Y-98556719D01*
X138656331Y-98750079D01*
X138656329Y-98750087D01*
X138615500Y-98955348D01*
X138615500Y-99164651D01*
X138656329Y-99369912D01*
X138656331Y-99369920D01*
X138736423Y-99563280D01*
X138852703Y-99737306D01*
X139000693Y-99885296D01*
X139174719Y-100001576D01*
X139271399Y-100041622D01*
X139368080Y-100081669D01*
X139423742Y-100092740D01*
X139497819Y-100107476D01*
X139559730Y-100139861D01*
X139594304Y-100200576D01*
X139590565Y-100270346D01*
X139549699Y-100327018D01*
X139493026Y-100351566D01*
X139382479Y-100369075D01*
X139382476Y-100369075D01*
X139193562Y-100430457D01*
X139016567Y-100520641D01*
X138855860Y-100637403D01*
X138855859Y-100637403D01*
X138715403Y-100777859D01*
X138715403Y-100777860D01*
X138598641Y-100938567D01*
X138508456Y-101115564D01*
X138447074Y-101304482D01*
X138439865Y-101349999D01*
X94890500Y-101349999D01*
X94890500Y-101333119D01*
X94855825Y-100981060D01*
X94802562Y-100713288D01*
X94786814Y-100634115D01*
X94786811Y-100634104D01*
X94786810Y-100634101D01*
X94786809Y-100634095D01*
X94684118Y-100295565D01*
X94548739Y-99968731D01*
X94541813Y-99955774D01*
X94381982Y-99656752D01*
X94381981Y-99656750D01*
X94381976Y-99656741D01*
X94185436Y-99362598D01*
X93961012Y-99089136D01*
X93961011Y-99089135D01*
X93961007Y-99089130D01*
X93710869Y-98838992D01*
X93437407Y-98614568D01*
X93437406Y-98614567D01*
X93437402Y-98614564D01*
X93143259Y-98418024D01*
X93143254Y-98418021D01*
X93143247Y-98418017D01*
X92831276Y-98251264D01*
X92831271Y-98251262D01*
X92504436Y-98115882D01*
X92165895Y-98013188D01*
X92165884Y-98013185D01*
X91818946Y-97944176D01*
X91818929Y-97944173D01*
X91552700Y-97917952D01*
X91466881Y-97909500D01*
X91113119Y-97909500D01*
X91033748Y-97917317D01*
X90761070Y-97944173D01*
X90761053Y-97944176D01*
X90414115Y-98013185D01*
X90414104Y-98013188D01*
X90075563Y-98115882D01*
X89748728Y-98251262D01*
X89748723Y-98251264D01*
X89436752Y-98418017D01*
X89436734Y-98418028D01*
X89142606Y-98614558D01*
X89142592Y-98614568D01*
X88869130Y-98838992D01*
X88618992Y-99089130D01*
X88394568Y-99362592D01*
X88394558Y-99362606D01*
X88198028Y-99656734D01*
X88198017Y-99656752D01*
X88031264Y-99968723D01*
X88031262Y-99968728D01*
X87895882Y-100295563D01*
X87793188Y-100634104D01*
X87793185Y-100634115D01*
X87724176Y-100981053D01*
X87724173Y-100981070D01*
X87697317Y-101253748D01*
X87690026Y-101327784D01*
X87689500Y-101333122D01*
X83650000Y-101333122D01*
X83650000Y-96415348D01*
X138615500Y-96415348D01*
X138615500Y-96624651D01*
X138656329Y-96829912D01*
X138656331Y-96829920D01*
X138736423Y-97023280D01*
X138852703Y-97197306D01*
X139000693Y-97345296D01*
X139174719Y-97461576D01*
X139271399Y-97501622D01*
X139368080Y-97541669D01*
X139573348Y-97582499D01*
X139573352Y-97582500D01*
X139573353Y-97582500D01*
X141306648Y-97582500D01*
X141306649Y-97582499D01*
X141511920Y-97541669D01*
X141705282Y-97461575D01*
X141879304Y-97345298D01*
X142027298Y-97197304D01*
X142143575Y-97023282D01*
X142223669Y-96829920D01*
X142264500Y-96624647D01*
X142264500Y-96415353D01*
X142223669Y-96210080D01*
X142167200Y-96073752D01*
X142143576Y-96016719D01*
X142027296Y-95842693D01*
X141879306Y-95694703D01*
X141705280Y-95578423D01*
X141511920Y-95498331D01*
X141511912Y-95498329D01*
X141306651Y-95457500D01*
X141306647Y-95457500D01*
X139573353Y-95457500D01*
X139573348Y-95457500D01*
X139368087Y-95498329D01*
X139368079Y-95498331D01*
X139174719Y-95578423D01*
X139000693Y-95694703D01*
X138852703Y-95842693D01*
X138736423Y-96016719D01*
X138656331Y-96210079D01*
X138656329Y-96210087D01*
X138615500Y-96415348D01*
X83650000Y-96415348D01*
X83650000Y-93875348D01*
X104855500Y-93875348D01*
X104855500Y-94084651D01*
X104896329Y-94289912D01*
X104896331Y-94289920D01*
X104976423Y-94483280D01*
X105092703Y-94657306D01*
X105240693Y-94805296D01*
X105414719Y-94921576D01*
X105511399Y-94961622D01*
X105608080Y-95001669D01*
X105813348Y-95042499D01*
X105813352Y-95042500D01*
X105813353Y-95042500D01*
X107546648Y-95042500D01*
X107546649Y-95042499D01*
X107751920Y-95001669D01*
X107945282Y-94921575D01*
X108119304Y-94805298D01*
X108267298Y-94657304D01*
X108383575Y-94483282D01*
X108463669Y-94289920D01*
X108504500Y-94084647D01*
X108504500Y-93875353D01*
X108504499Y-93875348D01*
X138615500Y-93875348D01*
X138615500Y-94084651D01*
X138656329Y-94289912D01*
X138656331Y-94289920D01*
X138736423Y-94483280D01*
X138852703Y-94657306D01*
X139000693Y-94805296D01*
X139174719Y-94921576D01*
X139271399Y-94961622D01*
X139368080Y-95001669D01*
X139573348Y-95042499D01*
X139573352Y-95042500D01*
X139573353Y-95042500D01*
X141306648Y-95042500D01*
X141306649Y-95042499D01*
X141511920Y-95001669D01*
X141705282Y-94921575D01*
X141879304Y-94805298D01*
X142027298Y-94657304D01*
X142143575Y-94483282D01*
X142223669Y-94289920D01*
X142264500Y-94084647D01*
X142264500Y-93875353D01*
X142223669Y-93670080D01*
X142170454Y-93541608D01*
X142143576Y-93476719D01*
X142027296Y-93302693D01*
X141879306Y-93154703D01*
X141705280Y-93038423D01*
X141511920Y-92958331D01*
X141511912Y-92958329D01*
X141306651Y-92917500D01*
X141306647Y-92917500D01*
X139573353Y-92917500D01*
X139573348Y-92917500D01*
X139368087Y-92958329D01*
X139368079Y-92958331D01*
X139174719Y-93038423D01*
X139000693Y-93154703D01*
X138852703Y-93302693D01*
X138736423Y-93476719D01*
X138656331Y-93670079D01*
X138656329Y-93670087D01*
X138615500Y-93875348D01*
X108504499Y-93875348D01*
X108463669Y-93670080D01*
X108410454Y-93541608D01*
X108383576Y-93476719D01*
X108267296Y-93302693D01*
X108119306Y-93154703D01*
X107945280Y-93038423D01*
X107751920Y-92958331D01*
X107751912Y-92958329D01*
X107546651Y-92917500D01*
X107546647Y-92917500D01*
X105813353Y-92917500D01*
X105813348Y-92917500D01*
X105608087Y-92958329D01*
X105608079Y-92958331D01*
X105414719Y-93038423D01*
X105240693Y-93154703D01*
X105092703Y-93302693D01*
X104976423Y-93476719D01*
X104896331Y-93670079D01*
X104896329Y-93670087D01*
X104855500Y-93875348D01*
X83650000Y-93875348D01*
X83650000Y-91335348D01*
X104855500Y-91335348D01*
X104855500Y-91544651D01*
X104896329Y-91749912D01*
X104896331Y-91749920D01*
X104976423Y-91943280D01*
X105092703Y-92117306D01*
X105240693Y-92265296D01*
X105414719Y-92381576D01*
X105511399Y-92421622D01*
X105608080Y-92461669D01*
X105813348Y-92502499D01*
X105813352Y-92502500D01*
X105813353Y-92502500D01*
X107546648Y-92502500D01*
X107546649Y-92502499D01*
X107751920Y-92461669D01*
X107945282Y-92381575D01*
X108119304Y-92265298D01*
X108267298Y-92117304D01*
X108383575Y-91943282D01*
X108463669Y-91749920D01*
X108504500Y-91544647D01*
X108504500Y-91335353D01*
X108463669Y-91130080D01*
X108415945Y-91014865D01*
X108383576Y-90936719D01*
X108267296Y-90762693D01*
X108119306Y-90614703D01*
X107945280Y-90498423D01*
X107751920Y-90418331D01*
X107751912Y-90418329D01*
X107546651Y-90377500D01*
X107546647Y-90377500D01*
X105813353Y-90377500D01*
X105813348Y-90377500D01*
X105608087Y-90418329D01*
X105608079Y-90418331D01*
X105414719Y-90498423D01*
X105240693Y-90614703D01*
X105092703Y-90762693D01*
X104976423Y-90936719D01*
X104896331Y-91130079D01*
X104896329Y-91130087D01*
X104855500Y-91335348D01*
X83650000Y-91335348D01*
X83650000Y-88795348D01*
X104855500Y-88795348D01*
X104855500Y-89004651D01*
X104896329Y-89209912D01*
X104896331Y-89209920D01*
X104976423Y-89403280D01*
X105092703Y-89577306D01*
X105240693Y-89725296D01*
X105414719Y-89841576D01*
X105511399Y-89881622D01*
X105608080Y-89921669D01*
X105813348Y-89962499D01*
X105813352Y-89962500D01*
X105813353Y-89962500D01*
X107546648Y-89962500D01*
X107546649Y-89962499D01*
X107751920Y-89921669D01*
X107945282Y-89841575D01*
X108119304Y-89725298D01*
X108267298Y-89577304D01*
X108383575Y-89403282D01*
X108415947Y-89325131D01*
X131019500Y-89325131D01*
X131019500Y-91014856D01*
X131019502Y-91014882D01*
X131022413Y-91039987D01*
X131022415Y-91039991D01*
X131067793Y-91142764D01*
X131067794Y-91142765D01*
X131147235Y-91222206D01*
X131250009Y-91267585D01*
X131275135Y-91270500D01*
X132964864Y-91270499D01*
X132964879Y-91270497D01*
X132964882Y-91270497D01*
X132989987Y-91267586D01*
X132989988Y-91267585D01*
X132989991Y-91267585D01*
X133092765Y-91222206D01*
X133172206Y-91142765D01*
X133217585Y-91039991D01*
X133220500Y-91014865D01*
X133220499Y-90804151D01*
X133240183Y-90737114D01*
X133292987Y-90691359D01*
X133362145Y-90681415D01*
X133425701Y-90710440D01*
X133456881Y-90751748D01*
X133489864Y-90822480D01*
X133540974Y-90895472D01*
X134220000Y-90216446D01*
X134220000Y-90222661D01*
X134247259Y-90324394D01*
X134299920Y-90415606D01*
X134374394Y-90490080D01*
X134465606Y-90542741D01*
X134567339Y-90570000D01*
X134573553Y-90570000D01*
X133894526Y-91249025D01*
X133967513Y-91300132D01*
X133967521Y-91300136D01*
X134173668Y-91396264D01*
X134173682Y-91396269D01*
X134393389Y-91455139D01*
X134393400Y-91455141D01*
X134619998Y-91474966D01*
X134620002Y-91474966D01*
X134846599Y-91455141D01*
X134846610Y-91455139D01*
X135066317Y-91396269D01*
X135066331Y-91396264D01*
X135272478Y-91300136D01*
X135345471Y-91249024D01*
X134666447Y-90570000D01*
X134672661Y-90570000D01*
X134774394Y-90542741D01*
X134865606Y-90490080D01*
X134940080Y-90415606D01*
X134992741Y-90324394D01*
X135020000Y-90222661D01*
X135020000Y-90216447D01*
X135699024Y-90895471D01*
X135750136Y-90822478D01*
X135846264Y-90616331D01*
X135846269Y-90616317D01*
X135905139Y-90396610D01*
X135905141Y-90396599D01*
X135924966Y-90170002D01*
X135924966Y-90169997D01*
X135905141Y-89943400D01*
X135905139Y-89943389D01*
X135846269Y-89723682D01*
X135846264Y-89723668D01*
X135750136Y-89517521D01*
X135750132Y-89517513D01*
X135699025Y-89444526D01*
X135020000Y-90123551D01*
X135020000Y-90117339D01*
X134992741Y-90015606D01*
X134940080Y-89924394D01*
X134865606Y-89849920D01*
X134774394Y-89797259D01*
X134672661Y-89770000D01*
X134666445Y-89770000D01*
X135345472Y-89090974D01*
X135272478Y-89039863D01*
X135066331Y-88943735D01*
X135066317Y-88943730D01*
X134846610Y-88884860D01*
X134846599Y-88884858D01*
X134620002Y-88865034D01*
X134619998Y-88865034D01*
X134393400Y-88884858D01*
X134393389Y-88884860D01*
X134173682Y-88943730D01*
X134173673Y-88943734D01*
X133967516Y-89039866D01*
X133967512Y-89039868D01*
X133894526Y-89090973D01*
X133894526Y-89090974D01*
X134573553Y-89770000D01*
X134567339Y-89770000D01*
X134465606Y-89797259D01*
X134374394Y-89849920D01*
X134299920Y-89924394D01*
X134247259Y-90015606D01*
X134220000Y-90117339D01*
X134220000Y-90123552D01*
X133540974Y-89444526D01*
X133540973Y-89444526D01*
X133489868Y-89517512D01*
X133489866Y-89517517D01*
X133456881Y-89588253D01*
X133410708Y-89640692D01*
X133343515Y-89659844D01*
X133276633Y-89639628D01*
X133231299Y-89586462D01*
X133220499Y-89535848D01*
X133220499Y-89325136D01*
X133220497Y-89325117D01*
X133217586Y-89300012D01*
X133217585Y-89300010D01*
X133217585Y-89300009D01*
X133172206Y-89197235D01*
X133092765Y-89117794D01*
X133092763Y-89117793D01*
X132989992Y-89072415D01*
X132964865Y-89069500D01*
X131275143Y-89069500D01*
X131275117Y-89069502D01*
X131250012Y-89072413D01*
X131250008Y-89072415D01*
X131147235Y-89117793D01*
X131067794Y-89197234D01*
X131022415Y-89300006D01*
X131022415Y-89300008D01*
X131019500Y-89325131D01*
X108415947Y-89325131D01*
X108463669Y-89209920D01*
X108504500Y-89004647D01*
X108504500Y-88795353D01*
X108463669Y-88590080D01*
X108423622Y-88493399D01*
X108383576Y-88396719D01*
X108267296Y-88222693D01*
X108119306Y-88074703D01*
X107945280Y-87958423D01*
X107751920Y-87878331D01*
X107751912Y-87878329D01*
X107546651Y-87837500D01*
X107546647Y-87837500D01*
X105813353Y-87837500D01*
X105813348Y-87837500D01*
X105608087Y-87878329D01*
X105608079Y-87878331D01*
X105414719Y-87958423D01*
X105240693Y-88074703D01*
X105092703Y-88222693D01*
X104976423Y-88396719D01*
X104896331Y-88590079D01*
X104896329Y-88590087D01*
X104855500Y-88795348D01*
X83650000Y-88795348D01*
X83650000Y-83569999D01*
X104679865Y-83569999D01*
X104679865Y-83570000D01*
X106237749Y-83570000D01*
X106206619Y-83623919D01*
X106172000Y-83753120D01*
X106172000Y-83886880D01*
X106206619Y-84016081D01*
X106237749Y-84070000D01*
X104679865Y-84070000D01*
X104687074Y-84115517D01*
X104748456Y-84304435D01*
X104838641Y-84481432D01*
X104955403Y-84642139D01*
X104955403Y-84642140D01*
X105095859Y-84782596D01*
X105256567Y-84899358D01*
X105433562Y-84989542D01*
X105622476Y-85050924D01*
X105622480Y-85050925D01*
X105733025Y-85068433D01*
X105796160Y-85098362D01*
X105833092Y-85157673D01*
X105832094Y-85227535D01*
X105793485Y-85285768D01*
X105737820Y-85312523D01*
X105608085Y-85338329D01*
X105608079Y-85338331D01*
X105414719Y-85418423D01*
X105240693Y-85534703D01*
X105092703Y-85682693D01*
X104976423Y-85856719D01*
X104896331Y-86050079D01*
X104896329Y-86050087D01*
X104855500Y-86255348D01*
X104855500Y-86464651D01*
X104896329Y-86669912D01*
X104896331Y-86669920D01*
X104976423Y-86863280D01*
X105092703Y-87037306D01*
X105240693Y-87185296D01*
X105414719Y-87301576D01*
X105511399Y-87341622D01*
X105608080Y-87381669D01*
X105813348Y-87422499D01*
X105813352Y-87422500D01*
X105813353Y-87422500D01*
X107546648Y-87422500D01*
X107546649Y-87422499D01*
X107751920Y-87381669D01*
X107945282Y-87301575D01*
X108119304Y-87185298D01*
X108267298Y-87037304D01*
X108383575Y-86863282D01*
X108463669Y-86669920D01*
X108504500Y-86464647D01*
X108504500Y-86255353D01*
X108463669Y-86050080D01*
X108423622Y-85953399D01*
X108383576Y-85856719D01*
X108267296Y-85682693D01*
X108119306Y-85534703D01*
X107945280Y-85418423D01*
X107751920Y-85338331D01*
X107751914Y-85338329D01*
X107622179Y-85312523D01*
X107560268Y-85280138D01*
X107525694Y-85219422D01*
X107529434Y-85149653D01*
X107570301Y-85092981D01*
X107626974Y-85068432D01*
X107737527Y-85050922D01*
X107926437Y-84989542D01*
X108103432Y-84899358D01*
X108264139Y-84782596D01*
X108264140Y-84782596D01*
X108404596Y-84642140D01*
X108404596Y-84642139D01*
X108521358Y-84481432D01*
X108611543Y-84304435D01*
X108672925Y-84115517D01*
X108680134Y-84070000D01*
X107122251Y-84070000D01*
X107153381Y-84016081D01*
X107188000Y-83886880D01*
X107188000Y-83753120D01*
X107153381Y-83623919D01*
X107122251Y-83570000D01*
X108680135Y-83570000D01*
X108680134Y-83569999D01*
X108672925Y-83524482D01*
X108611543Y-83335564D01*
X108521358Y-83158567D01*
X108404596Y-82997860D01*
X108404596Y-82997859D01*
X108264140Y-82857403D01*
X108103432Y-82740641D01*
X107926437Y-82650457D01*
X107737522Y-82589075D01*
X107736869Y-82588972D01*
X107736641Y-82588864D01*
X107732791Y-82587940D01*
X107732985Y-82587130D01*
X107673734Y-82559042D01*
X107636804Y-82499730D01*
X107637802Y-82429867D01*
X107676413Y-82371635D01*
X107740377Y-82343521D01*
X107756265Y-82342499D01*
X108248864Y-82342499D01*
X108248879Y-82342497D01*
X108248882Y-82342497D01*
X108273987Y-82339586D01*
X108273988Y-82339585D01*
X108273991Y-82339585D01*
X108376765Y-82294206D01*
X108456206Y-82214765D01*
X108501585Y-82111991D01*
X108504500Y-82086865D01*
X108504499Y-80473136D01*
X108504365Y-80471982D01*
X108501586Y-80448012D01*
X108501585Y-80448010D01*
X108501585Y-80448009D01*
X108456206Y-80345235D01*
X108376765Y-80265794D01*
X108376763Y-80265793D01*
X108273992Y-80220415D01*
X108248865Y-80217500D01*
X105111143Y-80217500D01*
X105111117Y-80217502D01*
X105086012Y-80220413D01*
X105086008Y-80220415D01*
X104983235Y-80265793D01*
X104903794Y-80345234D01*
X104858415Y-80448006D01*
X104858415Y-80448008D01*
X104855500Y-80473131D01*
X104855500Y-82086856D01*
X104855502Y-82086882D01*
X104858413Y-82111987D01*
X104858415Y-82111991D01*
X104903793Y-82214764D01*
X104903794Y-82214765D01*
X104983235Y-82294206D01*
X105086009Y-82339585D01*
X105111135Y-82342500D01*
X105603729Y-82342499D01*
X105670766Y-82362183D01*
X105716521Y-82414987D01*
X105726465Y-82484146D01*
X105697440Y-82547702D01*
X105638662Y-82585476D01*
X105623144Y-82588969D01*
X105622488Y-82589072D01*
X105622476Y-82589075D01*
X105433562Y-82650457D01*
X105256567Y-82740641D01*
X105095860Y-82857403D01*
X105095859Y-82857403D01*
X104955403Y-82997859D01*
X104955403Y-82997860D01*
X104838641Y-83158567D01*
X104748456Y-83335564D01*
X104687074Y-83524482D01*
X104679865Y-83569999D01*
X83650000Y-83569999D01*
X83650000Y-78740000D01*
X136454355Y-78740000D01*
X136474859Y-78908869D01*
X136474860Y-78908874D01*
X136535182Y-79067931D01*
X136597475Y-79158177D01*
X136631817Y-79207929D01*
X136702606Y-79270642D01*
X136759150Y-79320736D01*
X136909773Y-79399789D01*
X136909775Y-79399790D01*
X137074944Y-79440500D01*
X137245056Y-79440500D01*
X137410225Y-79399790D01*
X137496128Y-79354703D01*
X137553754Y-79340500D01*
X139613331Y-79340500D01*
X139613347Y-79340501D01*
X139620943Y-79340501D01*
X139779054Y-79340501D01*
X139779057Y-79340501D01*
X139931785Y-79299577D01*
X139981904Y-79270639D01*
X140068716Y-79220520D01*
X140180520Y-79108716D01*
X140180520Y-79108714D01*
X140190728Y-79098507D01*
X140190729Y-79098504D01*
X140549234Y-78739999D01*
X141534355Y-78739999D01*
X141538596Y-78774926D01*
X141539500Y-78789873D01*
X141539500Y-86310125D01*
X141538596Y-86325071D01*
X141534355Y-86359999D01*
X141538596Y-86394926D01*
X141539500Y-86409873D01*
X141539500Y-86428991D01*
X141546882Y-86466105D01*
X141548360Y-86475347D01*
X141554859Y-86528870D01*
X141554860Y-86528871D01*
X141560678Y-86544212D01*
X141566353Y-86563992D01*
X141566420Y-86564327D01*
X141566420Y-86564329D01*
X141588046Y-86616538D01*
X141589427Y-86620019D01*
X141615182Y-86687930D01*
X141615183Y-86687931D01*
X141659983Y-86752836D01*
X141661035Y-86754385D01*
X141695885Y-86806541D01*
X141699751Y-86811252D01*
X141699371Y-86811563D01*
X141706061Y-86819590D01*
X141711817Y-86827929D01*
X141711817Y-86827930D01*
X141756845Y-86867821D01*
X141762299Y-86872955D01*
X141793458Y-86904114D01*
X141804154Y-86911261D01*
X141817485Y-86921543D01*
X141839148Y-86940734D01*
X141839150Y-86940735D01*
X141839151Y-86940736D01*
X141875836Y-86959990D01*
X141887097Y-86966681D01*
X141908189Y-86980775D01*
X141937398Y-86992874D01*
X141947559Y-86997633D01*
X141962093Y-87005261D01*
X141989772Y-87019789D01*
X141989774Y-87019789D01*
X141989775Y-87019790D01*
X142003457Y-87023162D01*
X142011791Y-87025216D01*
X142029571Y-87031052D01*
X142035672Y-87033580D01*
X142085023Y-87043396D01*
X142090473Y-87044609D01*
X142154944Y-87060500D01*
X142154945Y-87060500D01*
X142325058Y-87060500D01*
X142325058Y-87060499D01*
X142389510Y-87044613D01*
X142394975Y-87043396D01*
X142444328Y-87033580D01*
X142450417Y-87031057D01*
X142468204Y-87025216D01*
X142490225Y-87019790D01*
X142532449Y-86997628D01*
X142542606Y-86992871D01*
X142571811Y-86980775D01*
X142592914Y-86966673D01*
X142604171Y-86959985D01*
X142640852Y-86940734D01*
X142662512Y-86921544D01*
X142675835Y-86911267D01*
X142686542Y-86904114D01*
X142717730Y-86872924D01*
X142723133Y-86867838D01*
X142768183Y-86827929D01*
X142773939Y-86819590D01*
X142780643Y-86811581D01*
X142780246Y-86811255D01*
X142784113Y-86806543D01*
X142784114Y-86806542D01*
X142819034Y-86754279D01*
X142819939Y-86752946D01*
X142864818Y-86687930D01*
X142890587Y-86619978D01*
X142891926Y-86616601D01*
X142913580Y-86564328D01*
X142913646Y-86563995D01*
X142919321Y-86544211D01*
X142925140Y-86528872D01*
X142931637Y-86475350D01*
X142933116Y-86466109D01*
X142940500Y-86428996D01*
X142940500Y-86409873D01*
X142941404Y-86394926D01*
X142945645Y-86360000D01*
X142941404Y-86325071D01*
X142940500Y-86310125D01*
X142940500Y-84029432D01*
X161966157Y-84029432D01*
X161966157Y-84029433D01*
X162005597Y-84367724D01*
X162084040Y-84699138D01*
X162139999Y-84859996D01*
X162382683Y-85462072D01*
X162383851Y-85465082D01*
X162837603Y-86681205D01*
X162838841Y-86684681D01*
X163256133Y-87913549D01*
X163257267Y-87917060D01*
X163637802Y-89157778D01*
X163638832Y-89161322D01*
X163982293Y-90412864D01*
X163983216Y-90416437D01*
X164289276Y-91677605D01*
X164290093Y-91681203D01*
X164558490Y-92950913D01*
X164559200Y-92954534D01*
X164789707Y-94231721D01*
X164790308Y-94235362D01*
X164982706Y-95518821D01*
X164983198Y-95522478D01*
X165137317Y-96811048D01*
X165137701Y-96814718D01*
X165253414Y-98107357D01*
X165253688Y-98111037D01*
X165330884Y-99406506D01*
X165331049Y-99410192D01*
X165369666Y-100707414D01*
X165369721Y-100711104D01*
X165369721Y-102008897D01*
X165369666Y-102012587D01*
X165331049Y-103309809D01*
X165330884Y-103313495D01*
X165253688Y-104608963D01*
X165253414Y-104612643D01*
X165137701Y-105905283D01*
X165137317Y-105908953D01*
X164983198Y-107197523D01*
X164982706Y-107201180D01*
X164790303Y-108484671D01*
X164789701Y-108488312D01*
X164559205Y-109765435D01*
X164558496Y-109769056D01*
X164290091Y-111038806D01*
X164289274Y-111042404D01*
X163983218Y-112303556D01*
X163982295Y-112307129D01*
X163638831Y-113558678D01*
X163637801Y-113562222D01*
X163257266Y-114802942D01*
X163256132Y-114806453D01*
X162838841Y-116035320D01*
X162837603Y-116038796D01*
X162383850Y-117254919D01*
X162382682Y-117257929D01*
X162140000Y-117859997D01*
X162139993Y-117860016D01*
X162084133Y-118020877D01*
X162005690Y-118352294D01*
X161966252Y-118690571D01*
X161966252Y-118690577D01*
X161966351Y-119031141D01*
X161966352Y-119031153D01*
X161994968Y-119275348D01*
X162005990Y-119369406D01*
X162082051Y-119689912D01*
X162084629Y-119700775D01*
X162201201Y-120020761D01*
X162201209Y-120020779D01*
X162354145Y-120325076D01*
X162354146Y-120325078D01*
X162541370Y-120609556D01*
X162541381Y-120609571D01*
X162760360Y-120870385D01*
X162760368Y-120870393D01*
X163008146Y-121104022D01*
X163008155Y-121104029D01*
X163008159Y-121104033D01*
X163074752Y-121153579D01*
X163281395Y-121307325D01*
X163281401Y-121307329D01*
X163393301Y-121371890D01*
X163576394Y-121477527D01*
X163576398Y-121477528D01*
X163576402Y-121477531D01*
X163784900Y-121567395D01*
X163889153Y-121612329D01*
X164215446Y-121709910D01*
X164215449Y-121709910D01*
X164215451Y-121709911D01*
X164383153Y-121739430D01*
X164550861Y-121768951D01*
X164550862Y-121768951D01*
X164550868Y-121768952D01*
X164890858Y-121788653D01*
X164890863Y-121788653D01*
X164890865Y-121788653D01*
X164920323Y-121786928D01*
X165230853Y-121768750D01*
X165566233Y-121709512D01*
X165892469Y-121611739D01*
X166205148Y-121476753D01*
X166500042Y-121306380D01*
X166773163Y-121102924D01*
X167020817Y-120869136D01*
X167239656Y-120608179D01*
X167426719Y-120323580D01*
X167579478Y-120019188D01*
X167639655Y-119860903D01*
X167640323Y-119859189D01*
X167703388Y-119700775D01*
X167899716Y-119207609D01*
X168386615Y-117890348D01*
X168836014Y-116559826D01*
X169247551Y-115217110D01*
X169620897Y-113863278D01*
X169955752Y-112499416D01*
X170251847Y-111126617D01*
X170260027Y-111082693D01*
X170364716Y-110520500D01*
X170508944Y-109745984D01*
X170645097Y-108879086D01*
X170726838Y-108358632D01*
X170776355Y-107972247D01*
X170905355Y-106965648D01*
X171044349Y-105568176D01*
X171123667Y-104449920D01*
X171143711Y-104167333D01*
X171187140Y-103145743D01*
X171203359Y-102764228D01*
X171223248Y-101360001D01*
X171222867Y-101333122D01*
X173989500Y-101333122D01*
X173989500Y-101686877D01*
X174024173Y-102038929D01*
X174024176Y-102038946D01*
X174093185Y-102385884D01*
X174093188Y-102385895D01*
X174195882Y-102724436D01*
X174331262Y-103051271D01*
X174331264Y-103051276D01*
X174498017Y-103363247D01*
X174498028Y-103363265D01*
X174694558Y-103657393D01*
X174694568Y-103657407D01*
X174918992Y-103930869D01*
X175169130Y-104181007D01*
X175169135Y-104181011D01*
X175169136Y-104181012D01*
X175442598Y-104405436D01*
X175736741Y-104601976D01*
X175736750Y-104601981D01*
X175736752Y-104601982D01*
X176048723Y-104768735D01*
X176048725Y-104768735D01*
X176048731Y-104768739D01*
X176375565Y-104904118D01*
X176714095Y-105006809D01*
X176714101Y-105006810D01*
X176714104Y-105006811D01*
X176714115Y-105006814D01*
X176931674Y-105050088D01*
X177061060Y-105075825D01*
X177413119Y-105110500D01*
X177413122Y-105110500D01*
X177766878Y-105110500D01*
X177766881Y-105110500D01*
X178118940Y-105075825D01*
X178290679Y-105041663D01*
X178465884Y-105006814D01*
X178465895Y-105006811D01*
X178465895Y-105006810D01*
X178465905Y-105006809D01*
X178804435Y-104904118D01*
X179131269Y-104768739D01*
X179443259Y-104601976D01*
X179737402Y-104405436D01*
X180010864Y-104181012D01*
X180261012Y-103930864D01*
X180485436Y-103657402D01*
X180681976Y-103363259D01*
X180848739Y-103051269D01*
X180984118Y-102724435D01*
X181086809Y-102385905D01*
X181086811Y-102385895D01*
X181086814Y-102385884D01*
X181148974Y-102073381D01*
X181155825Y-102038940D01*
X181190500Y-101686881D01*
X181190500Y-101333119D01*
X181155825Y-100981060D01*
X181102562Y-100713288D01*
X181086814Y-100634115D01*
X181086811Y-100634104D01*
X181086810Y-100634101D01*
X181086809Y-100634095D01*
X180984118Y-100295565D01*
X180848739Y-99968731D01*
X180841813Y-99955774D01*
X180681982Y-99656752D01*
X180681981Y-99656750D01*
X180681976Y-99656741D01*
X180485436Y-99362598D01*
X180261012Y-99089136D01*
X180261011Y-99089135D01*
X180261007Y-99089130D01*
X180010869Y-98838992D01*
X179737407Y-98614568D01*
X179737406Y-98614567D01*
X179737402Y-98614564D01*
X179443259Y-98418024D01*
X179443254Y-98418021D01*
X179443247Y-98418017D01*
X179131276Y-98251264D01*
X179131271Y-98251262D01*
X178804436Y-98115882D01*
X178465895Y-98013188D01*
X178465884Y-98013185D01*
X178118946Y-97944176D01*
X178118929Y-97944173D01*
X177852700Y-97917952D01*
X177766881Y-97909500D01*
X177413119Y-97909500D01*
X177333748Y-97917317D01*
X177061070Y-97944173D01*
X177061053Y-97944176D01*
X176714115Y-98013185D01*
X176714104Y-98013188D01*
X176375563Y-98115882D01*
X176048728Y-98251262D01*
X176048723Y-98251264D01*
X175736752Y-98418017D01*
X175736734Y-98418028D01*
X175442606Y-98614558D01*
X175442592Y-98614568D01*
X175169130Y-98838992D01*
X174918992Y-99089130D01*
X174694568Y-99362592D01*
X174694558Y-99362606D01*
X174498028Y-99656734D01*
X174498017Y-99656752D01*
X174331264Y-99968723D01*
X174331262Y-99968728D01*
X174195882Y-100295563D01*
X174093188Y-100634104D01*
X174093185Y-100634115D01*
X174024176Y-100981053D01*
X174024173Y-100981070D01*
X173997317Y-101253748D01*
X173990026Y-101327784D01*
X173989500Y-101333122D01*
X171222867Y-101333122D01*
X171203359Y-99955774D01*
X171153706Y-98787784D01*
X171143711Y-98552668D01*
X171070056Y-97514256D01*
X171044349Y-97151826D01*
X170905355Y-95754354D01*
X170742461Y-94483280D01*
X170726838Y-94361369D01*
X170574281Y-93390024D01*
X170508945Y-92974018D01*
X170342370Y-92079500D01*
X170251852Y-91593409D01*
X170251847Y-91593384D01*
X169955752Y-90220586D01*
X169620897Y-88856724D01*
X169247552Y-87502892D01*
X169210397Y-87381668D01*
X168975888Y-86616538D01*
X168836015Y-86160176D01*
X168386616Y-84829654D01*
X167899716Y-83512393D01*
X167640353Y-82860888D01*
X167639634Y-82859037D01*
X167579569Y-82700787D01*
X167579565Y-82700776D01*
X167470850Y-82484146D01*
X167426806Y-82396381D01*
X167426803Y-82396377D01*
X167426802Y-82396374D01*
X167239732Y-82111766D01*
X167239731Y-82111765D01*
X167239730Y-82111763D01*
X167020901Y-81850816D01*
X167020895Y-81850810D01*
X167020887Y-81850800D01*
X166773224Y-81617004D01*
X166771730Y-81615891D01*
X166500101Y-81413545D01*
X166205192Y-81243163D01*
X166205187Y-81243161D01*
X165892504Y-81108174D01*
X165892505Y-81108174D01*
X165566264Y-81010398D01*
X165566257Y-81010396D01*
X165499177Y-80998548D01*
X165230864Y-80951156D01*
X165159589Y-80946983D01*
X164890861Y-80931251D01*
X164550862Y-80950953D01*
X164550843Y-80950955D01*
X164215429Y-81009996D01*
X164215425Y-81009997D01*
X163889116Y-81107583D01*
X163576360Y-81242383D01*
X163576348Y-81242390D01*
X163281356Y-81412587D01*
X163281345Y-81412594D01*
X163008101Y-81615891D01*
X163008085Y-81615904D01*
X162760307Y-81849533D01*
X162760298Y-81849543D01*
X162760298Y-81849544D01*
X162759230Y-81850816D01*
X162541299Y-82110381D01*
X162541294Y-82110387D01*
X162354064Y-82394874D01*
X162354063Y-82394876D01*
X162201122Y-82699183D01*
X162201114Y-82699201D01*
X162084538Y-83019197D01*
X162084536Y-83019204D01*
X162005896Y-83350579D01*
X161966258Y-83688841D01*
X161966257Y-83688853D01*
X161966157Y-84029432D01*
X142940500Y-84029432D01*
X142940500Y-78789873D01*
X142941404Y-78774926D01*
X142945645Y-78740000D01*
X142941404Y-78705071D01*
X142940500Y-78690125D01*
X142940500Y-78671006D01*
X142933116Y-78633889D01*
X142931637Y-78624640D01*
X142925140Y-78571129D01*
X142925140Y-78571128D01*
X142919321Y-78555787D01*
X142913644Y-78535997D01*
X142913580Y-78535672D01*
X142891942Y-78483436D01*
X142890576Y-78479991D01*
X142864818Y-78412070D01*
X142820015Y-78347162D01*
X142818963Y-78345612D01*
X142784117Y-78293462D01*
X142780249Y-78288748D01*
X142780628Y-78288436D01*
X142773940Y-78280412D01*
X142768183Y-78272071D01*
X142723145Y-78232171D01*
X142717707Y-78227051D01*
X142686545Y-78195889D01*
X142686542Y-78195886D01*
X142686377Y-78195775D01*
X142675840Y-78188734D01*
X142662513Y-78178454D01*
X142640855Y-78159268D01*
X142640850Y-78159265D01*
X142604162Y-78140009D01*
X142592903Y-78133318D01*
X142571811Y-78119225D01*
X142542599Y-78107124D01*
X142532445Y-78102368D01*
X142490225Y-78080210D01*
X142490226Y-78080210D01*
X142468206Y-78074783D01*
X142450434Y-78068949D01*
X142444328Y-78066420D01*
X142444324Y-78066419D01*
X142444322Y-78066418D01*
X142394993Y-78056606D01*
X142389511Y-78055386D01*
X142325057Y-78039500D01*
X142325056Y-78039500D01*
X142154944Y-78039500D01*
X142154940Y-78039500D01*
X142090486Y-78055386D01*
X142085006Y-78056606D01*
X142035673Y-78066419D01*
X142029566Y-78068949D01*
X142011797Y-78074781D01*
X141989776Y-78080209D01*
X141947561Y-78102365D01*
X141937393Y-78107127D01*
X141908187Y-78119225D01*
X141887091Y-78133320D01*
X141875837Y-78140008D01*
X141839147Y-78159266D01*
X141839144Y-78159268D01*
X141817486Y-78178454D01*
X141804166Y-78188729D01*
X141793464Y-78195880D01*
X141793458Y-78195886D01*
X141762287Y-78227055D01*
X141756838Y-78232183D01*
X141711820Y-78272067D01*
X141711817Y-78272070D01*
X141711817Y-78272071D01*
X141706062Y-78280408D01*
X141706053Y-78280421D01*
X141699391Y-78288447D01*
X141699753Y-78288744D01*
X141695887Y-78293455D01*
X141661023Y-78345631D01*
X141659973Y-78347177D01*
X141615185Y-78412063D01*
X141615181Y-78412071D01*
X141589436Y-78479953D01*
X141588058Y-78483428D01*
X141566419Y-78535673D01*
X141566418Y-78535678D01*
X141566353Y-78536006D01*
X141560680Y-78555781D01*
X141554859Y-78571129D01*
X141548362Y-78624640D01*
X141546884Y-78633881D01*
X141539500Y-78671006D01*
X141539500Y-78690125D01*
X141538596Y-78705071D01*
X141534355Y-78739999D01*
X140549234Y-78739999D01*
X141996116Y-77293119D01*
X157689500Y-77293119D01*
X157689500Y-77646881D01*
X157699923Y-77752707D01*
X157724173Y-77998929D01*
X157724176Y-77998946D01*
X157793185Y-78345884D01*
X157793188Y-78345895D01*
X157895882Y-78684436D01*
X158031262Y-79011271D01*
X158031264Y-79011276D01*
X158198017Y-79323247D01*
X158198028Y-79323265D01*
X158394558Y-79617393D01*
X158394568Y-79617407D01*
X158618992Y-79890869D01*
X158869130Y-80141007D01*
X158869135Y-80141011D01*
X158869136Y-80141012D01*
X159142598Y-80365436D01*
X159436741Y-80561976D01*
X159436750Y-80561981D01*
X159436752Y-80561982D01*
X159748723Y-80728735D01*
X159748725Y-80728735D01*
X159748731Y-80728739D01*
X160075565Y-80864118D01*
X160414095Y-80966809D01*
X160414101Y-80966810D01*
X160414104Y-80966811D01*
X160414115Y-80966814D01*
X160631210Y-81009996D01*
X160761060Y-81035825D01*
X161113119Y-81070500D01*
X161113122Y-81070500D01*
X161466878Y-81070500D01*
X161466881Y-81070500D01*
X161818940Y-81035825D01*
X162006343Y-80998548D01*
X162165884Y-80966814D01*
X162165895Y-80966811D01*
X162165895Y-80966810D01*
X162165905Y-80966809D01*
X162504435Y-80864118D01*
X162831269Y-80728739D01*
X163143259Y-80561976D01*
X163437402Y-80365436D01*
X163710864Y-80141012D01*
X163961012Y-79890864D01*
X164185436Y-79617402D01*
X164381976Y-79323259D01*
X164548739Y-79011269D01*
X164684118Y-78684435D01*
X164786809Y-78345905D01*
X164786811Y-78345895D01*
X164786814Y-78345884D01*
X164831898Y-78119227D01*
X164855825Y-77998940D01*
X164890500Y-77646881D01*
X164890500Y-77293119D01*
X164881636Y-77203122D01*
X166419500Y-77203122D01*
X166419500Y-77556877D01*
X166454173Y-77908929D01*
X166454176Y-77908946D01*
X166523185Y-78255884D01*
X166523188Y-78255895D01*
X166625882Y-78594436D01*
X166761262Y-78921271D01*
X166761264Y-78921276D01*
X166928017Y-79233247D01*
X166928028Y-79233265D01*
X167124558Y-79527393D01*
X167124568Y-79527407D01*
X167348992Y-79800869D01*
X167599130Y-80051007D01*
X167599135Y-80051011D01*
X167599136Y-80051012D01*
X167872598Y-80275436D01*
X168166741Y-80471976D01*
X168166750Y-80471981D01*
X168166752Y-80471982D01*
X168478723Y-80638735D01*
X168478725Y-80638735D01*
X168478731Y-80638739D01*
X168805565Y-80774118D01*
X169144095Y-80876809D01*
X169144101Y-80876810D01*
X169144104Y-80876811D01*
X169144115Y-80876814D01*
X169361674Y-80920088D01*
X169491060Y-80945825D01*
X169843119Y-80980500D01*
X169843122Y-80980500D01*
X170196878Y-80980500D01*
X170196881Y-80980500D01*
X170548940Y-80945825D01*
X170720679Y-80911663D01*
X170895884Y-80876814D01*
X170895895Y-80876811D01*
X170895895Y-80876810D01*
X170895905Y-80876809D01*
X171234435Y-80774118D01*
X171561269Y-80638739D01*
X171873259Y-80471976D01*
X172167402Y-80275436D01*
X172440864Y-80051012D01*
X172691012Y-79800864D01*
X172915436Y-79527402D01*
X173111976Y-79233259D01*
X173278739Y-78921269D01*
X173414118Y-78594435D01*
X173516809Y-78255905D01*
X173516811Y-78255895D01*
X173516814Y-78255884D01*
X173554500Y-78066419D01*
X173585825Y-77908940D01*
X173620500Y-77556881D01*
X173620500Y-77203119D01*
X173585825Y-76851060D01*
X173549398Y-76667929D01*
X173516814Y-76504115D01*
X173516811Y-76504104D01*
X173516810Y-76504101D01*
X173516809Y-76504095D01*
X173414118Y-76165565D01*
X173278739Y-75838731D01*
X173274758Y-75831284D01*
X173111982Y-75526752D01*
X173111981Y-75526750D01*
X173111976Y-75526741D01*
X172915436Y-75232598D01*
X172691012Y-74959136D01*
X172691011Y-74959135D01*
X172691007Y-74959130D01*
X172440869Y-74708992D01*
X172167407Y-74484568D01*
X172167406Y-74484567D01*
X172167402Y-74484564D01*
X171873259Y-74288024D01*
X171873254Y-74288021D01*
X171873247Y-74288017D01*
X171561276Y-74121264D01*
X171561271Y-74121262D01*
X171234436Y-73985882D01*
X170895895Y-73883188D01*
X170895884Y-73883185D01*
X170548946Y-73814176D01*
X170548929Y-73814173D01*
X170282700Y-73787952D01*
X170196881Y-73779500D01*
X169843119Y-73779500D01*
X169763748Y-73787317D01*
X169491070Y-73814173D01*
X169491053Y-73814176D01*
X169144115Y-73883185D01*
X169144104Y-73883188D01*
X168805563Y-73985882D01*
X168478728Y-74121262D01*
X168478723Y-74121264D01*
X168166752Y-74288017D01*
X168166734Y-74288028D01*
X167872606Y-74484558D01*
X167872592Y-74484568D01*
X167599130Y-74708992D01*
X167348992Y-74959130D01*
X167124568Y-75232592D01*
X167124558Y-75232606D01*
X166928028Y-75526734D01*
X166928017Y-75526752D01*
X166761264Y-75838723D01*
X166761262Y-75838728D01*
X166625882Y-76165563D01*
X166523188Y-76504104D01*
X166523185Y-76504115D01*
X166454176Y-76851053D01*
X166454173Y-76851070D01*
X166419500Y-77203122D01*
X164881636Y-77203122D01*
X164855825Y-76941060D01*
X164827866Y-76800500D01*
X164786814Y-76594115D01*
X164786811Y-76594104D01*
X164786810Y-76594101D01*
X164786809Y-76594095D01*
X164684118Y-76255565D01*
X164548739Y-75928731D01*
X164507334Y-75851269D01*
X164381982Y-75616752D01*
X164381981Y-75616750D01*
X164381976Y-75616741D01*
X164185436Y-75322598D01*
X163961012Y-75049136D01*
X163961011Y-75049135D01*
X163961007Y-75049130D01*
X163710869Y-74798992D01*
X163437407Y-74574568D01*
X163437406Y-74574567D01*
X163437402Y-74574564D01*
X163143259Y-74378024D01*
X163143254Y-74378021D01*
X163143247Y-74378017D01*
X162831276Y-74211264D01*
X162831271Y-74211262D01*
X162504436Y-74075882D01*
X162165895Y-73973188D01*
X162165884Y-73973185D01*
X161818946Y-73904176D01*
X161818929Y-73904173D01*
X161552700Y-73877952D01*
X161466881Y-73869500D01*
X161113119Y-73869500D01*
X161033748Y-73877317D01*
X160761070Y-73904173D01*
X160761053Y-73904176D01*
X160414115Y-73973185D01*
X160414104Y-73973188D01*
X160075563Y-74075882D01*
X159748728Y-74211262D01*
X159748723Y-74211264D01*
X159436752Y-74378017D01*
X159436734Y-74378028D01*
X159142606Y-74574558D01*
X159142592Y-74574568D01*
X158869130Y-74798992D01*
X158618992Y-75049130D01*
X158394568Y-75322592D01*
X158394558Y-75322606D01*
X158198028Y-75616734D01*
X158198017Y-75616752D01*
X158031264Y-75928723D01*
X158031262Y-75928728D01*
X157895882Y-76255563D01*
X157793188Y-76594104D01*
X157793185Y-76594115D01*
X157724176Y-76941053D01*
X157724173Y-76941070D01*
X157698364Y-77203119D01*
X157689500Y-77293119D01*
X141996116Y-77293119D01*
X142452416Y-76836819D01*
X142513739Y-76803334D01*
X142540097Y-76800500D01*
X142915331Y-76800500D01*
X142915347Y-76800501D01*
X142922943Y-76800501D01*
X143081054Y-76800501D01*
X143081057Y-76800501D01*
X143233785Y-76759577D01*
X143283904Y-76730639D01*
X143370716Y-76680520D01*
X143482520Y-76568716D01*
X143482520Y-76568714D01*
X143492728Y-76558507D01*
X143492729Y-76558504D01*
X144537891Y-75513343D01*
X144599212Y-75479860D01*
X144649759Y-75479409D01*
X144675353Y-75484500D01*
X144675355Y-75484500D01*
X144884648Y-75484500D01*
X144884649Y-75484499D01*
X145089920Y-75443669D01*
X145283282Y-75363575D01*
X145457304Y-75247298D01*
X145605298Y-75099304D01*
X145721575Y-74925282D01*
X145801669Y-74731920D01*
X145842500Y-74526647D01*
X145842500Y-72793353D01*
X145842499Y-72793348D01*
X146257500Y-72793348D01*
X146257500Y-74526651D01*
X146298329Y-74731912D01*
X146298331Y-74731920D01*
X146378423Y-74925280D01*
X146494703Y-75099306D01*
X146642693Y-75247296D01*
X146816719Y-75363576D01*
X146913399Y-75403622D01*
X147010080Y-75443669D01*
X147124755Y-75466479D01*
X147215348Y-75484499D01*
X147215352Y-75484500D01*
X147215353Y-75484500D01*
X147424648Y-75484500D01*
X147424649Y-75484499D01*
X147629920Y-75443669D01*
X147823282Y-75363575D01*
X147997304Y-75247298D01*
X148145298Y-75099304D01*
X148261575Y-74925282D01*
X148341669Y-74731920D01*
X148352383Y-74678059D01*
X148384768Y-74616148D01*
X148445483Y-74581574D01*
X148515253Y-74585313D01*
X148571925Y-74626179D01*
X148597506Y-74691197D01*
X148598000Y-74702250D01*
X148598000Y-75231844D01*
X148604401Y-75291372D01*
X148604403Y-75291379D01*
X148654645Y-75426086D01*
X148654649Y-75426093D01*
X148740809Y-75541187D01*
X148740812Y-75541190D01*
X148855906Y-75627350D01*
X148855913Y-75627354D01*
X148990620Y-75677596D01*
X148990627Y-75677598D01*
X149050155Y-75683999D01*
X149050172Y-75684000D01*
X149610000Y-75684000D01*
X149610000Y-74102251D01*
X149663919Y-74133381D01*
X149793120Y-74168000D01*
X149926880Y-74168000D01*
X150056081Y-74133381D01*
X150110000Y-74102251D01*
X150110000Y-75684000D01*
X150669828Y-75684000D01*
X150669844Y-75683999D01*
X150729372Y-75677598D01*
X150729379Y-75677596D01*
X150864086Y-75627354D01*
X150864093Y-75627350D01*
X150979187Y-75541190D01*
X150979190Y-75541187D01*
X151065350Y-75426093D01*
X151065354Y-75426086D01*
X151115596Y-75291379D01*
X151115598Y-75291372D01*
X151121999Y-75231844D01*
X151122000Y-75231827D01*
X151122000Y-73910000D01*
X150302251Y-73910000D01*
X150333381Y-73856081D01*
X150368000Y-73726880D01*
X150368000Y-73593120D01*
X150333381Y-73463919D01*
X150302251Y-73410000D01*
X151122000Y-73410000D01*
X151122000Y-72088172D01*
X151121999Y-72088155D01*
X151115598Y-72028627D01*
X151115596Y-72028620D01*
X151065354Y-71893913D01*
X151065350Y-71893906D01*
X150979190Y-71778812D01*
X150979187Y-71778809D01*
X150864093Y-71692649D01*
X150864086Y-71692645D01*
X150729379Y-71642403D01*
X150729372Y-71642401D01*
X150669844Y-71636000D01*
X150110000Y-71636000D01*
X150110000Y-73217748D01*
X150056081Y-73186619D01*
X149926880Y-73152000D01*
X149793120Y-73152000D01*
X149663919Y-73186619D01*
X149610000Y-73217748D01*
X149610000Y-71636000D01*
X149050155Y-71636000D01*
X148990627Y-71642401D01*
X148990620Y-71642403D01*
X148855913Y-71692645D01*
X148855906Y-71692649D01*
X148740812Y-71778809D01*
X148740809Y-71778812D01*
X148654649Y-71893906D01*
X148654645Y-71893913D01*
X148604403Y-72028620D01*
X148604401Y-72028627D01*
X148598000Y-72088155D01*
X148598000Y-72617749D01*
X148578315Y-72684788D01*
X148525511Y-72730543D01*
X148456353Y-72740487D01*
X148392797Y-72711462D01*
X148355023Y-72652684D01*
X148352383Y-72641940D01*
X148341670Y-72588087D01*
X148341669Y-72588080D01*
X148285200Y-72451752D01*
X148261576Y-72394719D01*
X148145296Y-72220693D01*
X147997307Y-72072704D01*
X147997301Y-72072699D01*
X147975608Y-72058204D01*
X147930803Y-72004591D01*
X147920500Y-71955103D01*
X147920500Y-66441800D01*
X147940185Y-66374761D01*
X147942429Y-66371389D01*
X147944818Y-66367930D01*
X148005140Y-66208872D01*
X148025645Y-66040000D01*
X148005140Y-65871128D01*
X147944818Y-65712070D01*
X147924344Y-65682409D01*
X147910476Y-65662318D01*
X147848183Y-65572071D01*
X147726068Y-65463887D01*
X147720849Y-65459263D01*
X147570226Y-65380210D01*
X147405056Y-65339500D01*
X147234944Y-65339500D01*
X147069773Y-65380210D01*
X146919150Y-65459263D01*
X146791816Y-65572072D01*
X146695182Y-65712068D01*
X146634860Y-65871125D01*
X146634859Y-65871130D01*
X146614355Y-66040000D01*
X146634859Y-66208869D01*
X146634860Y-66208874D01*
X146683885Y-66338142D01*
X146695182Y-66367930D01*
X146697549Y-66371360D01*
X146698509Y-66374269D01*
X146698668Y-66374572D01*
X146698617Y-66374598D01*
X146719433Y-66437713D01*
X146719500Y-66441800D01*
X146719500Y-71955103D01*
X146699815Y-72022142D01*
X146664392Y-72058204D01*
X146642698Y-72072699D01*
X146642692Y-72072704D01*
X146494703Y-72220693D01*
X146378423Y-72394719D01*
X146298331Y-72588079D01*
X146298329Y-72588087D01*
X146257500Y-72793348D01*
X145842499Y-72793348D01*
X145801669Y-72588080D01*
X145745200Y-72451752D01*
X145721576Y-72394719D01*
X145605296Y-72220693D01*
X145457306Y-72072703D01*
X145283280Y-71956423D01*
X145089920Y-71876331D01*
X145089912Y-71876329D01*
X144884651Y-71835500D01*
X144884647Y-71835500D01*
X144675353Y-71835500D01*
X144675348Y-71835500D01*
X144470087Y-71876329D01*
X144470079Y-71876331D01*
X144276719Y-71956423D01*
X144102693Y-72072703D01*
X143954703Y-72220693D01*
X143838423Y-72394719D01*
X143758331Y-72588079D01*
X143758329Y-72588087D01*
X143717500Y-72793348D01*
X143717500Y-74526647D01*
X143722590Y-74552239D01*
X143716361Y-74621831D01*
X143688653Y-74664109D01*
X143448496Y-74904267D01*
X143387173Y-74937752D01*
X143317482Y-74932768D01*
X143261548Y-74890897D01*
X143237131Y-74825432D01*
X143246255Y-74769132D01*
X143261667Y-74731925D01*
X143261667Y-74731924D01*
X143261669Y-74731920D01*
X143302500Y-74526647D01*
X143302500Y-72793353D01*
X143261669Y-72588080D01*
X143205200Y-72451752D01*
X143181576Y-72394719D01*
X143065296Y-72220693D01*
X142917306Y-72072703D01*
X142743280Y-71956423D01*
X142549920Y-71876331D01*
X142549912Y-71876329D01*
X142344651Y-71835500D01*
X142344647Y-71835500D01*
X142135353Y-71835500D01*
X142135348Y-71835500D01*
X141930087Y-71876329D01*
X141930079Y-71876331D01*
X141736719Y-71956423D01*
X141562693Y-72072703D01*
X141414703Y-72220693D01*
X141298423Y-72394719D01*
X141218331Y-72588079D01*
X141218329Y-72588087D01*
X141177500Y-72793348D01*
X141177500Y-74526651D01*
X141218329Y-74731912D01*
X141218331Y-74731920D01*
X141298423Y-74925280D01*
X141414703Y-75099306D01*
X141562693Y-75247296D01*
X141736719Y-75363576D01*
X141849987Y-75410493D01*
X141930080Y-75443669D01*
X141930082Y-75443669D01*
X141930990Y-75443945D01*
X141931407Y-75444218D01*
X141935708Y-75446000D01*
X141935370Y-75446815D01*
X141989429Y-75482241D01*
X142017887Y-75546052D01*
X142007328Y-75615120D01*
X141961105Y-75667514D01*
X141956997Y-75669993D01*
X141871287Y-75719477D01*
X141871282Y-75719481D01*
X141759480Y-75831284D01*
X141759478Y-75831286D01*
X140609753Y-76981012D01*
X139487584Y-78103181D01*
X139426261Y-78136666D01*
X139399903Y-78139500D01*
X137553754Y-78139500D01*
X137496128Y-78125296D01*
X137452437Y-78102365D01*
X137410224Y-78080209D01*
X137245056Y-78039500D01*
X137074944Y-78039500D01*
X136909773Y-78080210D01*
X136759150Y-78159263D01*
X136631816Y-78272072D01*
X136535182Y-78412068D01*
X136474860Y-78571125D01*
X136474859Y-78571130D01*
X136454355Y-78740000D01*
X83650000Y-78740000D01*
X83650000Y-76200000D01*
X95814355Y-76200000D01*
X95834859Y-76368869D01*
X95834860Y-76368874D01*
X95895182Y-76527931D01*
X95957475Y-76618177D01*
X95991817Y-76667929D01*
X96062862Y-76730869D01*
X96119150Y-76780736D01*
X96269773Y-76859789D01*
X96269775Y-76859790D01*
X96434944Y-76900500D01*
X96605056Y-76900500D01*
X96770225Y-76859790D01*
X96856128Y-76814703D01*
X96913754Y-76800500D01*
X103746246Y-76800500D01*
X103803871Y-76814703D01*
X103889775Y-76859790D01*
X104054944Y-76900500D01*
X104225056Y-76900500D01*
X104390225Y-76859790D01*
X104503190Y-76800501D01*
X104540849Y-76780736D01*
X104540850Y-76780734D01*
X104540852Y-76780734D01*
X104668183Y-76667929D01*
X104764818Y-76527930D01*
X104825140Y-76368872D01*
X104845645Y-76200000D01*
X104825140Y-76031128D01*
X104764818Y-75872070D01*
X104750461Y-75851271D01*
X104730476Y-75822318D01*
X104668183Y-75732071D01*
X104573316Y-75648026D01*
X104540849Y-75619263D01*
X104390226Y-75540210D01*
X104225056Y-75499500D01*
X104054944Y-75499500D01*
X103889775Y-75540209D01*
X103832171Y-75570443D01*
X103803871Y-75585296D01*
X103746246Y-75599500D01*
X96913754Y-75599500D01*
X96856128Y-75585296D01*
X96800074Y-75555876D01*
X96770224Y-75540209D01*
X96605056Y-75499500D01*
X96434944Y-75499500D01*
X96269773Y-75540210D01*
X96119150Y-75619263D01*
X95991816Y-75732072D01*
X95895182Y-75872068D01*
X95834860Y-76031125D01*
X95834859Y-76031130D01*
X95814355Y-76200000D01*
X83650000Y-76200000D01*
X83650000Y-74133119D01*
X107889500Y-74133119D01*
X107889500Y-74486881D01*
X107898827Y-74581574D01*
X107924173Y-74838929D01*
X107924176Y-74838946D01*
X107993185Y-75185884D01*
X107993188Y-75185895D01*
X108095882Y-75524436D01*
X108231262Y-75851271D01*
X108231264Y-75851276D01*
X108398017Y-76163247D01*
X108398028Y-76163265D01*
X108594558Y-76457393D01*
X108594568Y-76457407D01*
X108818992Y-76730869D01*
X109069130Y-76981007D01*
X109069135Y-76981011D01*
X109069136Y-76981012D01*
X109342598Y-77205436D01*
X109636741Y-77401976D01*
X109636750Y-77401981D01*
X109636752Y-77401982D01*
X109948723Y-77568735D01*
X109948725Y-77568735D01*
X109948731Y-77568739D01*
X110275565Y-77704118D01*
X110614095Y-77806809D01*
X110614101Y-77806810D01*
X110614104Y-77806811D01*
X110614115Y-77806814D01*
X110831674Y-77850088D01*
X110961060Y-77875825D01*
X111313119Y-77910500D01*
X111313122Y-77910500D01*
X111666878Y-77910500D01*
X111666881Y-77910500D01*
X112018940Y-77875825D01*
X112190679Y-77841663D01*
X112365884Y-77806814D01*
X112365895Y-77806811D01*
X112365895Y-77806810D01*
X112365905Y-77806809D01*
X112704435Y-77704118D01*
X113031269Y-77568739D01*
X113343259Y-77401976D01*
X113637402Y-77205436D01*
X113910864Y-76981012D01*
X114161012Y-76730864D01*
X114385436Y-76457402D01*
X114581976Y-76163259D01*
X114748739Y-75851269D01*
X114884118Y-75524435D01*
X114986809Y-75185905D01*
X114986811Y-75185895D01*
X114986814Y-75185884D01*
X115031916Y-74959136D01*
X115055825Y-74838940D01*
X115090500Y-74486881D01*
X115090500Y-74133119D01*
X125889500Y-74133119D01*
X125889500Y-74486881D01*
X125898827Y-74581574D01*
X125924173Y-74838929D01*
X125924176Y-74838946D01*
X125993185Y-75185884D01*
X125993188Y-75185895D01*
X126095882Y-75524436D01*
X126231262Y-75851271D01*
X126231264Y-75851276D01*
X126398017Y-76163247D01*
X126398028Y-76163265D01*
X126594558Y-76457393D01*
X126594568Y-76457407D01*
X126818992Y-76730869D01*
X127069130Y-76981007D01*
X127069135Y-76981011D01*
X127069136Y-76981012D01*
X127342598Y-77205436D01*
X127636741Y-77401976D01*
X127636750Y-77401981D01*
X127636752Y-77401982D01*
X127948723Y-77568735D01*
X127948725Y-77568735D01*
X127948731Y-77568739D01*
X128275565Y-77704118D01*
X128614095Y-77806809D01*
X128614101Y-77806810D01*
X128614104Y-77806811D01*
X128614115Y-77806814D01*
X128831674Y-77850088D01*
X128961060Y-77875825D01*
X129313119Y-77910500D01*
X129313122Y-77910500D01*
X129666878Y-77910500D01*
X129666881Y-77910500D01*
X130018940Y-77875825D01*
X130190679Y-77841663D01*
X130365884Y-77806814D01*
X130365895Y-77806811D01*
X130365895Y-77806810D01*
X130365905Y-77806809D01*
X130704435Y-77704118D01*
X131031269Y-77568739D01*
X131343259Y-77401976D01*
X131637402Y-77205436D01*
X131910864Y-76981012D01*
X132161012Y-76730864D01*
X132385436Y-76457402D01*
X132581976Y-76163259D01*
X132748739Y-75851269D01*
X132884118Y-75524435D01*
X132986809Y-75185905D01*
X132986811Y-75185895D01*
X132986814Y-75185884D01*
X133031916Y-74959136D01*
X133055825Y-74838940D01*
X133090500Y-74486881D01*
X133090500Y-74133119D01*
X133055825Y-73781060D01*
X133018441Y-73593120D01*
X132986814Y-73434115D01*
X132986811Y-73434104D01*
X132986810Y-73434101D01*
X132986809Y-73434095D01*
X132884118Y-73095565D01*
X132764385Y-72806503D01*
X135997500Y-72806503D01*
X135997500Y-74513496D01*
X136025645Y-74691197D01*
X136026124Y-74694219D01*
X136082669Y-74868245D01*
X136128980Y-74959136D01*
X136165743Y-75031286D01*
X136273288Y-75179312D01*
X136402687Y-75308711D01*
X136541205Y-75409348D01*
X136550717Y-75416259D01*
X136713755Y-75499331D01*
X136887781Y-75555876D01*
X136955554Y-75566610D01*
X137068504Y-75584500D01*
X137068509Y-75584500D01*
X137251496Y-75584500D01*
X137351895Y-75568597D01*
X137432219Y-75555876D01*
X137606245Y-75499331D01*
X137769283Y-75416259D01*
X137852397Y-75355873D01*
X137917312Y-75308711D01*
X137917314Y-75308708D01*
X137917318Y-75308706D01*
X138046706Y-75179318D01*
X138046708Y-75179314D01*
X138046711Y-75179312D01*
X138104839Y-75099304D01*
X138154259Y-75031283D01*
X138237331Y-74868245D01*
X138293876Y-74694219D01*
X138307527Y-74608031D01*
X138337456Y-74544896D01*
X138396768Y-74507965D01*
X138466630Y-74508963D01*
X138524863Y-74547573D01*
X138552473Y-74608031D01*
X138565645Y-74691197D01*
X138566124Y-74694219D01*
X138622669Y-74868245D01*
X138668980Y-74959136D01*
X138705743Y-75031286D01*
X138813288Y-75179312D01*
X138942687Y-75308711D01*
X139081205Y-75409348D01*
X139090717Y-75416259D01*
X139253755Y-75499331D01*
X139427781Y-75555876D01*
X139495554Y-75566610D01*
X139608504Y-75584500D01*
X139608509Y-75584500D01*
X139791496Y-75584500D01*
X139891895Y-75568597D01*
X139972219Y-75555876D01*
X140146245Y-75499331D01*
X140309283Y-75416259D01*
X140392397Y-75355873D01*
X140457312Y-75308711D01*
X140457314Y-75308708D01*
X140457318Y-75308706D01*
X140586706Y-75179318D01*
X140586708Y-75179314D01*
X140586711Y-75179312D01*
X140644839Y-75099304D01*
X140694259Y-75031283D01*
X140777331Y-74868245D01*
X140833876Y-74694219D01*
X140852828Y-74574558D01*
X140862500Y-74513496D01*
X140862500Y-72806503D01*
X140833876Y-72625784D01*
X140833876Y-72625781D01*
X140777331Y-72451755D01*
X140694259Y-72288717D01*
X140687348Y-72279205D01*
X140586711Y-72140687D01*
X140457312Y-72011288D01*
X140309286Y-71903743D01*
X140309285Y-71903742D01*
X140309283Y-71903741D01*
X140146245Y-71820669D01*
X139972219Y-71764124D01*
X139972217Y-71764123D01*
X139972215Y-71764123D01*
X139791496Y-71735500D01*
X139791491Y-71735500D01*
X139608509Y-71735500D01*
X139608504Y-71735500D01*
X139427784Y-71764123D01*
X139253752Y-71820670D01*
X139090713Y-71903743D01*
X138942687Y-72011288D01*
X138813288Y-72140687D01*
X138705743Y-72288713D01*
X138622670Y-72451752D01*
X138566123Y-72625784D01*
X138552473Y-72711968D01*
X138522544Y-72775103D01*
X138463232Y-72812034D01*
X138393370Y-72811036D01*
X138335137Y-72772426D01*
X138307527Y-72711968D01*
X138293876Y-72625784D01*
X138293876Y-72625781D01*
X138237331Y-72451755D01*
X138154259Y-72288717D01*
X138147348Y-72279205D01*
X138046711Y-72140687D01*
X137917312Y-72011288D01*
X137769286Y-71903743D01*
X137769285Y-71903742D01*
X137769283Y-71903741D01*
X137606245Y-71820669D01*
X137432219Y-71764124D01*
X137432217Y-71764123D01*
X137432215Y-71764123D01*
X137251496Y-71735500D01*
X137251491Y-71735500D01*
X137068509Y-71735500D01*
X137068504Y-71735500D01*
X136887784Y-71764123D01*
X136713752Y-71820670D01*
X136550713Y-71903743D01*
X136402687Y-72011288D01*
X136273288Y-72140687D01*
X136165743Y-72288713D01*
X136082670Y-72451752D01*
X136026123Y-72625784D01*
X135997500Y-72806503D01*
X132764385Y-72806503D01*
X132748739Y-72768731D01*
X132718398Y-72711968D01*
X132581982Y-72456752D01*
X132581981Y-72456750D01*
X132581976Y-72456741D01*
X132385436Y-72162598D01*
X132161012Y-71889136D01*
X132161011Y-71889135D01*
X132161007Y-71889130D01*
X131910869Y-71638992D01*
X131637407Y-71414568D01*
X131637406Y-71414567D01*
X131637402Y-71414564D01*
X131343259Y-71218024D01*
X131343254Y-71218021D01*
X131343247Y-71218017D01*
X131031276Y-71051264D01*
X131031271Y-71051262D01*
X130704436Y-70915882D01*
X130365895Y-70813188D01*
X130365884Y-70813185D01*
X130018946Y-70744176D01*
X130018929Y-70744173D01*
X129752700Y-70717952D01*
X129666881Y-70709500D01*
X129313119Y-70709500D01*
X129233748Y-70717317D01*
X128961070Y-70744173D01*
X128961053Y-70744176D01*
X128614115Y-70813185D01*
X128614104Y-70813188D01*
X128275563Y-70915882D01*
X127948728Y-71051262D01*
X127948723Y-71051264D01*
X127636752Y-71218017D01*
X127636734Y-71218028D01*
X127342606Y-71414558D01*
X127342592Y-71414568D01*
X127069130Y-71638992D01*
X126818992Y-71889130D01*
X126594568Y-72162592D01*
X126594558Y-72162606D01*
X126398028Y-72456734D01*
X126398017Y-72456752D01*
X126231264Y-72768723D01*
X126231262Y-72768728D01*
X126095882Y-73095563D01*
X125993188Y-73434104D01*
X125993185Y-73434115D01*
X125924176Y-73781053D01*
X125924173Y-73781070D01*
X125897317Y-74053748D01*
X125889500Y-74133119D01*
X115090500Y-74133119D01*
X115055825Y-73781060D01*
X115018441Y-73593120D01*
X114986814Y-73434115D01*
X114986811Y-73434104D01*
X114986810Y-73434101D01*
X114986809Y-73434095D01*
X114884118Y-73095565D01*
X114748739Y-72768731D01*
X114718398Y-72711968D01*
X114581982Y-72456752D01*
X114581981Y-72456750D01*
X114581976Y-72456741D01*
X114385436Y-72162598D01*
X114161012Y-71889136D01*
X114161011Y-71889135D01*
X114161007Y-71889130D01*
X113910869Y-71638992D01*
X113637407Y-71414568D01*
X113637406Y-71414567D01*
X113637402Y-71414564D01*
X113343259Y-71218024D01*
X113343254Y-71218021D01*
X113343247Y-71218017D01*
X113031276Y-71051264D01*
X113031271Y-71051262D01*
X112704436Y-70915882D01*
X112365895Y-70813188D01*
X112365884Y-70813185D01*
X112018946Y-70744176D01*
X112018929Y-70744173D01*
X111752700Y-70717952D01*
X111666881Y-70709500D01*
X111313119Y-70709500D01*
X111233748Y-70717317D01*
X110961070Y-70744173D01*
X110961053Y-70744176D01*
X110614115Y-70813185D01*
X110614104Y-70813188D01*
X110275563Y-70915882D01*
X109948728Y-71051262D01*
X109948723Y-71051264D01*
X109636752Y-71218017D01*
X109636734Y-71218028D01*
X109342606Y-71414558D01*
X109342592Y-71414568D01*
X109069130Y-71638992D01*
X108818992Y-71889130D01*
X108594568Y-72162592D01*
X108594558Y-72162606D01*
X108398028Y-72456734D01*
X108398017Y-72456752D01*
X108231264Y-72768723D01*
X108231262Y-72768728D01*
X108095882Y-73095563D01*
X107993188Y-73434104D01*
X107993185Y-73434115D01*
X107924176Y-73781053D01*
X107924173Y-73781070D01*
X107897317Y-74053748D01*
X107889500Y-74133119D01*
X83650000Y-74133119D01*
X83650000Y-66843348D01*
X85937500Y-66843348D01*
X85937500Y-68576651D01*
X85978329Y-68781912D01*
X85978331Y-68781920D01*
X86058423Y-68975280D01*
X86174703Y-69149306D01*
X86322693Y-69297296D01*
X86496719Y-69413576D01*
X86593399Y-69453622D01*
X86690080Y-69493669D01*
X86895348Y-69534499D01*
X86895352Y-69534500D01*
X86895353Y-69534500D01*
X87104648Y-69534500D01*
X87104649Y-69534499D01*
X87309920Y-69493669D01*
X87503282Y-69413575D01*
X87677304Y-69297298D01*
X87825298Y-69149304D01*
X87941575Y-68975282D01*
X88021669Y-68781920D01*
X88062500Y-68576647D01*
X88062500Y-66843353D01*
X88021669Y-66638080D01*
X87953612Y-66473777D01*
X87941576Y-66444719D01*
X87825296Y-66270693D01*
X87677306Y-66122703D01*
X87503280Y-66006423D01*
X87309920Y-65926331D01*
X87309912Y-65926329D01*
X87104651Y-65885500D01*
X87104647Y-65885500D01*
X86895353Y-65885500D01*
X86895348Y-65885500D01*
X86690087Y-65926329D01*
X86690079Y-65926331D01*
X86496719Y-66006423D01*
X86322693Y-66122703D01*
X86174703Y-66270693D01*
X86058423Y-66444719D01*
X85978331Y-66638079D01*
X85978329Y-66638087D01*
X85937500Y-66843348D01*
X83650000Y-66843348D01*
X83650000Y-63471362D01*
X83669685Y-63404323D01*
X83686319Y-63383681D01*
X84610000Y-62460000D01*
X85573063Y-61496936D01*
X85634384Y-61463453D01*
X85704076Y-61468437D01*
X85760009Y-61510309D01*
X85784426Y-61575773D01*
X85778674Y-61622935D01*
X85769075Y-61652479D01*
X85738000Y-61848678D01*
X85738000Y-62460000D01*
X86557749Y-62460000D01*
X86526619Y-62513919D01*
X86492000Y-62643120D01*
X86492000Y-62776880D01*
X86526619Y-62906081D01*
X86557749Y-62960000D01*
X85738000Y-62960000D01*
X85738000Y-63571321D01*
X85769075Y-63767520D01*
X85769075Y-63767523D01*
X85830457Y-63956437D01*
X85920641Y-64133432D01*
X86037403Y-64294139D01*
X86037403Y-64294140D01*
X86177859Y-64434596D01*
X86338567Y-64551358D01*
X86515562Y-64641542D01*
X86704473Y-64702922D01*
X86750000Y-64710133D01*
X86750000Y-63152251D01*
X86803919Y-63183381D01*
X86933120Y-63218000D01*
X87066880Y-63218000D01*
X87196081Y-63183381D01*
X87250000Y-63152251D01*
X87250000Y-64710132D01*
X87295526Y-64702922D01*
X87484437Y-64641542D01*
X87634401Y-64565131D01*
X90267000Y-64565131D01*
X90267000Y-66654856D01*
X90267002Y-66654882D01*
X90269913Y-66679987D01*
X90269915Y-66679991D01*
X90315293Y-66782764D01*
X90315294Y-66782765D01*
X90394735Y-66862206D01*
X90497509Y-66907585D01*
X90522635Y-66910500D01*
X92517364Y-66910499D01*
X92517379Y-66910497D01*
X92517382Y-66910497D01*
X92542487Y-66907586D01*
X92542488Y-66907585D01*
X92542491Y-66907585D01*
X92645265Y-66862206D01*
X92724706Y-66782765D01*
X92770085Y-66679991D01*
X92770084Y-66679991D01*
X92773853Y-66671458D01*
X92775908Y-66672365D01*
X92805764Y-66623785D01*
X92868722Y-66593486D01*
X92938067Y-66602035D01*
X92976518Y-66628163D01*
X93113757Y-66765402D01*
X93298723Y-66899788D01*
X93502429Y-67003582D01*
X93719871Y-67074234D01*
X93810000Y-67088509D01*
X93810000Y-66100747D01*
X93847708Y-66122518D01*
X93987591Y-66160000D01*
X94132409Y-66160000D01*
X94272292Y-66122518D01*
X94310000Y-66100747D01*
X94310000Y-67088508D01*
X94400128Y-67074234D01*
X94617570Y-67003582D01*
X94821276Y-66899788D01*
X95006242Y-66765402D01*
X95167902Y-66603742D01*
X95302288Y-66418776D01*
X95334918Y-66354735D01*
X95382892Y-66303938D01*
X95450713Y-66287142D01*
X95516848Y-66309678D01*
X95545721Y-66338141D01*
X95644265Y-66473775D01*
X95783725Y-66613235D01*
X95943285Y-66729162D01*
X96048485Y-66782764D01*
X96119017Y-66818702D01*
X96194871Y-66843348D01*
X96306588Y-66879647D01*
X96396807Y-66893936D01*
X96501382Y-66910500D01*
X96501387Y-66910500D01*
X96698618Y-66910500D01*
X96793052Y-66895542D01*
X96893412Y-66879647D01*
X97005129Y-66843348D01*
X100537500Y-66843348D01*
X100537500Y-68576651D01*
X100578329Y-68781912D01*
X100578331Y-68781920D01*
X100658423Y-68975280D01*
X100774703Y-69149306D01*
X100922693Y-69297296D01*
X101096719Y-69413576D01*
X101193399Y-69453622D01*
X101290080Y-69493669D01*
X101495348Y-69534499D01*
X101495352Y-69534500D01*
X101495353Y-69534500D01*
X101704648Y-69534500D01*
X101704649Y-69534499D01*
X101909920Y-69493669D01*
X102103282Y-69413575D01*
X102277304Y-69297298D01*
X102425298Y-69149304D01*
X102541575Y-68975282D01*
X102621669Y-68781920D01*
X102662500Y-68576647D01*
X102662500Y-66843353D01*
X102621669Y-66638080D01*
X102553612Y-66473777D01*
X102541576Y-66444719D01*
X102425296Y-66270693D01*
X102277306Y-66122703D01*
X102103280Y-66006423D01*
X101909920Y-65926331D01*
X101909912Y-65926329D01*
X101704651Y-65885500D01*
X101704647Y-65885500D01*
X101495353Y-65885500D01*
X101495348Y-65885500D01*
X101290087Y-65926329D01*
X101290079Y-65926331D01*
X101096719Y-66006423D01*
X100922693Y-66122703D01*
X100774703Y-66270693D01*
X100658423Y-66444719D01*
X100578331Y-66638079D01*
X100578329Y-66638087D01*
X100537500Y-66843348D01*
X97005129Y-66843348D01*
X97080985Y-66818701D01*
X97256715Y-66729162D01*
X97416275Y-66613235D01*
X97555735Y-66473775D01*
X97671662Y-66314215D01*
X97761201Y-66138485D01*
X97822147Y-65950912D01*
X97838042Y-65850552D01*
X97853000Y-65756118D01*
X97853000Y-65463881D01*
X97822654Y-65272292D01*
X97822147Y-65269088D01*
X97761201Y-65081515D01*
X97671662Y-64905785D01*
X97555735Y-64746225D01*
X97416275Y-64606765D01*
X97256715Y-64490838D01*
X97185588Y-64454597D01*
X97080982Y-64401297D01*
X96893413Y-64340353D01*
X96698618Y-64309500D01*
X96698613Y-64309500D01*
X96501387Y-64309500D01*
X96501382Y-64309500D01*
X96306586Y-64340353D01*
X96119017Y-64401297D01*
X95943284Y-64490838D01*
X95783722Y-64606767D01*
X95644267Y-64746222D01*
X95644260Y-64746231D01*
X95545721Y-64881856D01*
X95490391Y-64924522D01*
X95420778Y-64930500D01*
X95358983Y-64897894D01*
X95334919Y-64865264D01*
X95302290Y-64801225D01*
X95167902Y-64616257D01*
X95006242Y-64454597D01*
X94821276Y-64320211D01*
X94617568Y-64216417D01*
X94400124Y-64145765D01*
X94310000Y-64131490D01*
X94310000Y-65119252D01*
X94272292Y-65097482D01*
X94132409Y-65060000D01*
X93987591Y-65060000D01*
X93847708Y-65097482D01*
X93810000Y-65119252D01*
X93810000Y-64131490D01*
X93809999Y-64131490D01*
X93719875Y-64145765D01*
X93502431Y-64216417D01*
X93298723Y-64320211D01*
X93113761Y-64454594D01*
X92976518Y-64591837D01*
X92915195Y-64625321D01*
X92845503Y-64620337D01*
X92789570Y-64578465D01*
X92774767Y-64548138D01*
X92773853Y-64548542D01*
X92724706Y-64437235D01*
X92645265Y-64357794D01*
X92542492Y-64312415D01*
X92517365Y-64309500D01*
X90522643Y-64309500D01*
X90522617Y-64309502D01*
X90497512Y-64312413D01*
X90497508Y-64312415D01*
X90394735Y-64357793D01*
X90315294Y-64437234D01*
X90269915Y-64540006D01*
X90269915Y-64540008D01*
X90267000Y-64565131D01*
X87634401Y-64565131D01*
X87661432Y-64551358D01*
X87822139Y-64434596D01*
X87822140Y-64434596D01*
X87962596Y-64294140D01*
X87962596Y-64294139D01*
X88079358Y-64133432D01*
X88169542Y-63956437D01*
X88230924Y-63767523D01*
X88230924Y-63767520D01*
X88262000Y-63571321D01*
X88262000Y-62960000D01*
X87442251Y-62960000D01*
X87473381Y-62906081D01*
X87508000Y-62776880D01*
X87508000Y-62643120D01*
X87473381Y-62513919D01*
X87442251Y-62460000D01*
X88262000Y-62460000D01*
X88262000Y-61848678D01*
X88230924Y-61652479D01*
X88230924Y-61652476D01*
X88169542Y-61463562D01*
X88079358Y-61286567D01*
X87962596Y-61125860D01*
X87962596Y-61125859D01*
X87928418Y-61091681D01*
X87894933Y-61030358D01*
X87899917Y-60960666D01*
X87941789Y-60904733D01*
X88007253Y-60880316D01*
X88016099Y-60880000D01*
X100583901Y-60880000D01*
X100650940Y-60899685D01*
G37*
%TD.AperFunction*%
%TD*%
M02*
