%TF.GenerationSoftware,KiCad,Pcbnew,8.0.8*%
%TF.CreationDate,2025-07-09T10:41:42+01:00*%
%TF.ProjectId,UKMARSBOT_RP2040Chassis,554b4d41-5253-4424-9f54-5f5250323034,rev?*%
%TF.SameCoordinates,Original*%
%TF.FileFunction,Profile,NP*%
%FSLAX46Y46*%
G04 Gerber Fmt 4.6, Leading zero omitted, Abs format (unit mm)*
G04 Created by KiCad (PCBNEW 8.0.8) date 2025-07-09 10:41:42*
%MOMM*%
%LPD*%
G01*
G04 APERTURE LIST*
%TA.AperFunction,Profile*%
%ADD10C,0.100000*%
%TD*%
%TA.AperFunction,Profile*%
%ADD11C,0.200000*%
%TD*%
G04 APERTURE END LIST*
D10*
X154990000Y-64510000D02*
G75*
G02*
X159990000Y-64510000I2500000J0D01*
G01*
X154990000Y-132510000D02*
G75*
G02*
X159990000Y-132510000I2500000J0D01*
G01*
X159990000Y-70510000D02*
G75*
G02*
X154990000Y-70510000I-2500000J0D01*
G01*
D11*
X103970000Y-135270000D02*
G75*
G02*
X105970000Y-133270000I2000000J0D01*
G01*
X182710000Y-129460000D02*
X182710000Y-73580000D01*
X103970000Y-60880000D02*
X86190000Y-60880000D01*
X103970000Y-142160000D02*
X103970000Y-135270000D01*
X83650000Y-63420000D02*
X83650000Y-139620000D01*
D10*
X162140001Y-84860001D02*
G75*
G02*
X167640000Y-82860001I2749999J1000001D01*
G01*
D11*
X136990000Y-67770000D02*
G75*
G02*
X134990000Y-69770000I-2000000J0D01*
G01*
X136990000Y-135270000D02*
X136990000Y-142160000D01*
X86190000Y-60880000D02*
X83650000Y-63420000D01*
X134990000Y-133270000D02*
G75*
G02*
X136990000Y-135270000I0J-2000000D01*
G01*
D10*
X154990000Y-132510000D02*
X154990000Y-138510000D01*
D11*
X182710000Y-73580000D02*
X170010000Y-60880000D01*
D10*
X159990000Y-138510000D02*
G75*
G02*
X154990000Y-138510000I-2500000J0D01*
G01*
D11*
X105970000Y-69770000D02*
G75*
G02*
X103970000Y-67770000I0J2000000D01*
G01*
D10*
X167639999Y-119860001D02*
G75*
G02*
X162140000Y-117860001I-2749999J1000001D01*
G01*
D11*
X136990000Y-142160000D02*
X170010000Y-142160000D01*
D10*
X154990000Y-64510000D02*
X154990000Y-70510000D01*
D11*
X86190000Y-142160000D02*
X103970000Y-142160000D01*
D10*
X159990000Y-64510000D02*
X159990000Y-70510000D01*
D11*
X134990000Y-69770000D02*
X105970000Y-69770000D01*
X136990000Y-60880000D02*
X136990000Y-67770000D01*
D10*
X167640000Y-82860001D02*
G75*
G02*
X167639999Y-119860001I-46000000J-18499999D01*
G01*
D11*
X103970000Y-67770000D02*
X103970000Y-60880000D01*
D10*
X162140000Y-84860001D02*
G75*
G02*
X162139999Y-117860001I-40500000J-16499999D01*
G01*
D11*
X170010000Y-142160000D02*
X182710000Y-129460000D01*
X105970000Y-133270000D02*
X134990000Y-133270000D01*
X83650000Y-139620000D02*
X86190000Y-142160000D01*
X170010000Y-60880000D02*
X136990000Y-60880000D01*
D10*
X159990000Y-132510000D02*
X159990000Y-138510000D01*
M02*
