M48
; DRILL file {KiCad 8.0.8} date 2025-07-09T10:41:57+0100
; FORMAT={-:-/ absolute / inch / decimal}
; #@! TF.CreationDate,2025-07-09T10:41:57+01:00
; #@! TF.GenerationSoftware,Kicad,Pcbnew,8.0.8
; #@! TF.FileFunction,Plated,1,2,PTH
FMAT,2
INCH
; #@! TA.AperFunction,Plated,PTH,ViaDrill
T1C0.0157
; #@! TA.AperFunction,Plated,PTH,ComponentDrill
T2C0.0315
; #@! TA.AperFunction,Plated,PTH,ComponentDrill
T3C0.0394
; #@! TA.AperFunction,Plated,PTH,ComponentDrill
T4C0.0400
; #@! TA.AperFunction,Plated,PTH,ComponentDrill
T5C0.0433
; #@! TA.AperFunction,Plated,PTH,ComponentDrill
T6C0.0630
%
G90
G05
T1
X3.8Y-3.0
X4.1Y-3.0
X5.4Y-3.1
X5.6Y-3.1
X5.6Y-3.4
X5.8Y-2.6
T2
X5.2016Y-3.55
X5.2016Y-4.45
X5.3Y-3.55
X5.3Y-4.45
T3
X3.4Y-5.4
X3.5Y-5.398
X3.6Y-5.15
X3.6Y-5.398
X3.7Y-5.15
X3.7Y-5.398
X3.8Y-5.4
T4
X3.4252Y-2.4689
X3.4252Y-2.6657
X4.0Y-2.4689
X4.0Y-2.6657
X4.2Y-3.2
X4.2Y-3.3
X4.2Y-3.4
X4.2Y-3.5
X4.2Y-3.6
X4.2Y-3.7
X4.2Y-4.3
X4.2Y-4.4
X4.2Y-4.5
X4.2Y-4.6
X4.2Y-4.7
X4.2Y-4.8
X5.4Y-2.9
X5.4Y-5.09
X5.5Y-2.9
X5.5Y-5.09
X5.5291Y-3.7
X5.5291Y-3.8
X5.5291Y-3.9
X5.5291Y-4.0
X5.5291Y-4.1
X5.5291Y-4.2
X5.6Y-2.9
X5.6Y-5.09
X5.7Y-2.9
X5.7Y-5.09
X5.8Y-2.9
X5.8Y-5.09
X5.9Y-2.9
X5.9Y-5.09
X6.1Y-3.7
X6.1Y-3.8
X6.1Y-3.9
X6.1Y-4.0
X6.1Y-4.1
X6.1Y-4.2
T5
X3.6031Y-2.5831
X3.7031Y-2.5831
X3.8031Y-2.5831
X5.8Y-4.3
X6.1Y-4.3
T6
X6.3Y-3.7
X6.3Y-4.3
M30
