%TF.GenerationSoftware,KiCad,Pcbnew,8.0.8*%
%TF.CreationDate,2025-08-16T13:49:53+01:00*%
%TF.ProjectId,UKMARSBOT_RP2040Chassis,554b4d41-5253-4424-9f54-5f5250323034,rev?*%
%TF.SameCoordinates,Original*%
%TF.FileFunction,Copper,L1,Top*%
%TF.FilePolarity,Positive*%
%FSLAX46Y46*%
G04 Gerber Fmt 4.6, Leading zero omitted, Abs format (unit mm)*
G04 Created by KiCad (PCBNEW 8.0.8) date 2025-08-16 13:49:53*
%MOMM*%
%LPD*%
G01*
G04 APERTURE LIST*
%TA.AperFunction,ComponentPad*%
%ADD10R,1.500000X1.500000*%
%TD*%
%TA.AperFunction,ComponentPad*%
%ADD11C,1.600000*%
%TD*%
%TA.AperFunction,ComponentPad*%
%ADD12C,1.524000*%
%TD*%
%TA.AperFunction,ComponentPad*%
%ADD13R,1.905000X2.000000*%
%TD*%
%TA.AperFunction,ComponentPad*%
%ADD14O,1.905000X2.000000*%
%TD*%
%TA.AperFunction,ComponentPad*%
%ADD15O,1.524000X3.048000*%
%TD*%
%TA.AperFunction,ComponentPad*%
%ADD16R,1.600000X1.600000*%
%TD*%
%TA.AperFunction,ComponentPad*%
%ADD17R,1.524000X3.048000*%
%TD*%
%TA.AperFunction,ComponentPad*%
%ADD18R,3.200000X3.200000*%
%TD*%
%TA.AperFunction,ComponentPad*%
%ADD19O,3.200000X3.200000*%
%TD*%
%TA.AperFunction,ComponentPad*%
%ADD20R,3.048000X1.524000*%
%TD*%
%TA.AperFunction,ComponentPad*%
%ADD21O,3.048000X1.524000*%
%TD*%
%TA.AperFunction,ComponentPad*%
%ADD22R,1.700000X1.700000*%
%TD*%
%TA.AperFunction,ComponentPad*%
%ADD23O,1.700000X1.700000*%
%TD*%
%TA.AperFunction,ViaPad*%
%ADD24C,0.800000*%
%TD*%
%TA.AperFunction,Conductor*%
%ADD25C,1.250000*%
%TD*%
%TA.AperFunction,Conductor*%
%ADD26C,0.800000*%
%TD*%
%TA.AperFunction,Conductor*%
%ADD27C,0.600000*%
%TD*%
%TA.AperFunction,Conductor*%
%ADD28C,1.150000*%
%TD*%
G04 APERTURE END LIST*
D10*
%TO.P,J7,1,Pin_1*%
%TO.N,/PWR_IN*%
X91440000Y-137160000D03*
D11*
%TO.P,J7,2,Pin_2*%
%TO.N,unconnected-(J7-Pin_2-Pad2)*%
X88900000Y-137160000D03*
%TO.P,J7,3,Pin_3*%
%TO.N,/PWR*%
X93980000Y-137160000D03*
D12*
%TO.P,J7,4*%
%TO.N,N/C*%
X96520000Y-137160000D03*
%TO.P,J7,5*%
X86360000Y-137160000D03*
%TD*%
D13*
%TO.P,U2,1,VI*%
%TO.N,Vbatt*%
X91520000Y-65610000D03*
D14*
%TO.P,U2,2,GND*%
%TO.N,GND*%
X94060000Y-65610000D03*
%TO.P,U2,3,VO*%
%TO.N,5V*%
X96600000Y-65610000D03*
%TD*%
D15*
%TO.P,C1,1*%
%TO.N,Vbatt*%
X87000000Y-67710000D03*
%TO.P,C1,2*%
%TO.N,GND*%
X87000000Y-62710000D03*
%TD*%
%TO.P,C2,1*%
%TO.N,5V*%
X101600000Y-67710000D03*
%TO.P,C2,2*%
%TO.N,GND*%
X101600000Y-62710000D03*
%TD*%
D16*
%TO.P,C3,1*%
%TO.N,Vbatt*%
X134620000Y-113030000D03*
D11*
%TO.P,C3,2*%
%TO.N,GND*%
X132120000Y-113030000D03*
%TD*%
D17*
%TO.P,J1,1,GND*%
%TO.N,GND*%
X149860000Y-73660000D03*
D15*
%TO.P,J1,2,B*%
%TO.N,LQB*%
X147320000Y-73660000D03*
%TO.P,J1,3,A*%
%TO.N,LQA*%
X144780000Y-73660000D03*
%TO.P,J1,4,VCC*%
%TO.N,Vcc*%
X142240000Y-73660000D03*
%TO.P,J1,5,M2*%
%TO.N,LEFT_MOTOR_1*%
X139700000Y-73660000D03*
%TO.P,J1,6,M1*%
%TO.N,LEFT_MOTOR_2*%
X137160000Y-73660000D03*
%TD*%
D18*
%TO.P,D1,1,K*%
%TO.N,Vbatt*%
X160020000Y-93980000D03*
D19*
%TO.P,D1,2,A*%
%TO.N,/PWR*%
X160020000Y-109220000D03*
%TD*%
D20*
%TO.P,J4,1,Pin_1*%
%TO.N,LQB*%
X106680000Y-121920000D03*
D21*
%TO.P,J4,2,Pin_2*%
%TO.N,LQA*%
X106680000Y-119380000D03*
%TO.P,J4,3,Pin_3*%
%TO.N,RQB*%
X106680000Y-116840000D03*
%TO.P,J4,4,Pin_4*%
%TO.N,RQA*%
X106680000Y-114300000D03*
%TO.P,J4,5,Pin_5*%
%TO.N,Vcc*%
X106680000Y-111760000D03*
%TO.P,J4,6,Pin_6*%
%TO.N,Vbatt*%
X106680000Y-109220000D03*
%TD*%
D16*
%TO.P,C4,1*%
%TO.N,5V*%
X132120000Y-90170000D03*
D11*
%TO.P,C4,2*%
%TO.N,GND*%
X134620000Y-90170000D03*
%TD*%
D17*
%TO.P,J2,1,GND*%
%TO.N,GND*%
X137160000Y-129286000D03*
D15*
%TO.P,J2,2,B*%
%TO.N,RQB*%
X139700000Y-129286000D03*
%TO.P,J2,3,A*%
%TO.N,RQA*%
X142240000Y-129286000D03*
%TO.P,J2,4,VCC*%
%TO.N,Vcc*%
X144780000Y-129286000D03*
%TO.P,J2,5,M2*%
%TO.N,RIGHT_MOTOR_1*%
X147320000Y-129286000D03*
%TO.P,J2,6,M1*%
%TO.N,RIGHT_MOTOR_2*%
X149860000Y-129286000D03*
%TD*%
D21*
%TO.P,U1,1,SLEEP*%
%TO.N,Net-(U1-SLEEP)*%
X154940000Y-106680000D03*
%TO.P,U1,2,OUT1*%
%TO.N,LEFT_MOTOR_1*%
X154940000Y-104140000D03*
%TO.P,U1,3,OUT2*%
%TO.N,LEFT_MOTOR_2*%
X154940000Y-101600000D03*
%TO.P,U1,4,OUT3*%
%TO.N,RIGHT_MOTOR_1*%
X154940000Y-99060000D03*
%TO.P,U1,5,OUT4*%
%TO.N,RIGHT_MOTOR_2*%
X154940000Y-96520000D03*
%TO.P,U1,6,FAULT*%
%TO.N,unconnected-(U1-FAULT-Pad6)*%
X154940000Y-93980000D03*
%TO.P,U1,7,IN1*%
%TO.N,LMTR1*%
X140440000Y-93980000D03*
%TO.P,U1,8,IN2*%
%TO.N,LMTR2*%
X140440000Y-96520000D03*
%TO.P,U1,9,VCC*%
%TO.N,Vbatt*%
X140440000Y-99060000D03*
%TO.P,U1,10,GND*%
%TO.N,GND*%
X140440000Y-101600000D03*
%TO.P,U1,11,IN3*%
%TO.N,RMTR1*%
X140440000Y-104140000D03*
%TO.P,U1,12,IN4*%
%TO.N,RMTR2*%
X140440000Y-106680000D03*
%TD*%
D20*
%TO.P,J3,1,Pin_1*%
%TO.N,5V*%
X106680000Y-81280000D03*
D21*
%TO.P,J3,2,Pin_2*%
%TO.N,GND*%
X106680000Y-83820000D03*
%TO.P,J3,3,Pin_3*%
%TO.N,LMTR1*%
X106680000Y-86360000D03*
%TO.P,J3,4,Pin_4*%
%TO.N,LMTR2*%
X106680000Y-88900000D03*
%TO.P,J3,5,Pin_5*%
%TO.N,RMTR1*%
X106680000Y-91440000D03*
%TO.P,J3,6,Pin_6*%
%TO.N,RMTR2*%
X106680000Y-93980000D03*
%TD*%
D14*
%TO.P,R1,1*%
%TO.N,Net-(U1-SLEEP)*%
X154940000Y-109220000D03*
%TO.P,R1,2*%
%TO.N,Vbatt*%
X147320000Y-109220000D03*
%TD*%
D22*
%TO.P,J6,1,Pin_1*%
%TO.N,GND*%
X93980000Y-130810000D03*
D23*
%TO.P,J6,2,Pin_2*%
%TO.N,/PWR_IN*%
X91440000Y-130810000D03*
%TD*%
D24*
%TO.N,Vcc*%
X142240000Y-78740000D03*
X142240000Y-86360000D03*
%TO.N,LQB*%
X147320000Y-66040000D03*
%TO.N,LQA*%
X104140000Y-76200000D03*
X96520000Y-76200000D03*
X137160000Y-78740000D03*
%TD*%
D25*
%TO.N,Vbatt*%
X147320000Y-109220000D02*
X147320000Y-101600000D01*
X144780000Y-99060000D02*
X140440000Y-99060000D01*
X147320000Y-101600000D02*
X144780000Y-99060000D01*
X101600000Y-78740000D02*
X91520000Y-68660000D01*
X147320000Y-109220000D02*
X134620000Y-109220000D01*
X89420000Y-67710000D02*
X91520000Y-65610000D01*
X106934000Y-109220000D02*
X104140000Y-109220000D01*
X87000000Y-67710000D02*
X89420000Y-67710000D01*
X134620000Y-109220000D02*
X134620000Y-113030000D01*
X91520000Y-68660000D02*
X91520000Y-65610000D01*
X101600000Y-106680000D02*
X101600000Y-78740000D01*
X104140000Y-109220000D02*
X101600000Y-106680000D01*
X134620000Y-109220000D02*
X106934000Y-109220000D01*
%TO.N,Vcc*%
X106680000Y-111760000D02*
X114300000Y-111760000D01*
X114300000Y-111760000D02*
X121920000Y-119380000D01*
X142240000Y-119380000D02*
X144780000Y-121920000D01*
D26*
X152400000Y-88900000D02*
X149860000Y-86360000D01*
X144780000Y-121920000D02*
X149100000Y-117600000D01*
X149860000Y-86360000D02*
X142240000Y-86360000D01*
X144780000Y-121920000D02*
X144780000Y-129540000D01*
X149100000Y-117600000D02*
X149100000Y-98550000D01*
X149100000Y-98550000D02*
X152400000Y-95250000D01*
X152400000Y-95250000D02*
X152400000Y-88900000D01*
X142240000Y-73406000D02*
X142240000Y-78740000D01*
D25*
X121920000Y-119380000D02*
X142240000Y-119380000D01*
%TO.N,5V*%
X98700000Y-67710000D02*
X96600000Y-65610000D01*
X101600000Y-67710000D02*
X98700000Y-67710000D01*
X111760000Y-81280000D02*
X120650000Y-90170000D01*
X106680000Y-81280000D02*
X111760000Y-81280000D01*
X106680000Y-81280000D02*
X101600000Y-76200000D01*
X120650000Y-90170000D02*
X132120000Y-90170000D01*
X101600000Y-76200000D02*
X101600000Y-67710000D01*
%TO.N,RIGHT_MOTOR_1*%
X147320000Y-130655000D02*
X148754000Y-132089000D01*
X152175000Y-130880000D02*
X152175000Y-100368452D01*
X152175000Y-100368452D02*
X153483452Y-99060000D01*
D26*
X154140000Y-99060000D02*
X154940000Y-99060000D01*
D25*
X153483452Y-99060000D02*
X154940000Y-99060000D01*
X150966000Y-132089000D02*
X152175000Y-130880000D01*
X148754000Y-132089000D02*
X150966000Y-132089000D01*
X147320000Y-129286000D02*
X147320000Y-130655000D01*
%TO.N,RIGHT_MOTOR_2*%
X153690000Y-96520000D02*
X154940000Y-96520000D01*
X150525000Y-124685000D02*
X150525000Y-99685000D01*
X149860000Y-129540000D02*
X149860000Y-125350000D01*
X149860000Y-125350000D02*
X150525000Y-124685000D01*
X150525000Y-99685000D02*
X153690000Y-96520000D01*
X149860000Y-129540000D02*
X149869000Y-129531000D01*
D27*
%TO.N,LQB*%
X86814000Y-65586000D02*
X88900000Y-63500000D01*
X109220000Y-78740000D02*
X132573833Y-78740000D01*
X141950420Y-66040000D02*
X147320000Y-66040000D01*
X132573833Y-78740000D02*
X135698000Y-75615833D01*
X135698000Y-72292420D02*
X141950420Y-66040000D01*
X99701841Y-63500000D02*
X101035841Y-64834000D01*
X91440000Y-121920000D02*
X85638000Y-116118000D01*
X85638000Y-116118000D02*
X85638000Y-66383841D01*
X102962000Y-66196000D02*
X102962000Y-72482000D01*
X86435841Y-65586000D02*
X86814000Y-65586000D01*
X101600000Y-64834000D02*
X102962000Y-66196000D01*
X106680000Y-121920000D02*
X91440000Y-121920000D01*
X88900000Y-63500000D02*
X99701841Y-63500000D01*
X102962000Y-72482000D02*
X109220000Y-78740000D01*
X85638000Y-66383841D02*
X86435841Y-65586000D01*
X135698000Y-75615833D02*
X135698000Y-72292420D01*
X101035841Y-64834000D02*
X101600000Y-64834000D01*
%TO.N,LQA*%
X135890000Y-78740000D02*
X137160000Y-78740000D01*
X107858000Y-79918000D02*
X134528000Y-79918000D01*
X104140000Y-76200000D02*
X107858000Y-79918000D01*
X144780000Y-73660000D02*
X144780000Y-72898000D01*
X134528000Y-79918000D02*
X134620000Y-80010000D01*
X134620000Y-80010000D02*
X135890000Y-78740000D01*
X96520000Y-109566000D02*
X106334000Y-119380000D01*
X106334000Y-119380000D02*
X106934000Y-119380000D01*
X96520000Y-76200000D02*
X96520000Y-109566000D01*
%TO.N,RQB*%
X106680000Y-116840000D02*
X111760000Y-116840000D01*
X139700000Y-124460000D02*
X139700000Y-129540000D01*
X137160000Y-121920000D02*
X139700000Y-124460000D01*
X111760000Y-116840000D02*
X116840000Y-121920000D01*
X116840000Y-121920000D02*
X137160000Y-121920000D01*
D25*
%TO.N,LEFT_MOTOR_1*%
X156190000Y-104140000D02*
X162645000Y-97685000D01*
X154940000Y-104140000D02*
X156190000Y-104140000D01*
X162645000Y-97685000D02*
X162645000Y-88985000D01*
X152400000Y-68580000D02*
X142006000Y-68580000D01*
X162645000Y-88985000D02*
X152400000Y-78740000D01*
X152400000Y-78740000D02*
X152400000Y-68580000D01*
X142006000Y-68580000D02*
X139700000Y-70886000D01*
X139700000Y-70886000D02*
X139700000Y-73660000D01*
D28*
%TO.N,LEFT_MOTOR_2*%
X157439000Y-100251000D02*
X156090000Y-101600000D01*
X157439000Y-88859000D02*
X157439000Y-100251000D01*
D25*
X137160000Y-74930000D02*
X137160000Y-73406000D01*
X157439000Y-88859000D02*
X151130000Y-82550000D01*
X140970000Y-80534745D02*
X139700000Y-79264745D01*
X139700000Y-79264745D02*
X139700000Y-77470000D01*
X151130000Y-82550000D02*
X140970000Y-82550000D01*
X140970000Y-82550000D02*
X140970000Y-80534745D01*
X139700000Y-77470000D02*
X137160000Y-74930000D01*
D28*
X156090000Y-101600000D02*
X154940000Y-101600000D01*
D27*
%TO.N,RQA*%
X118065000Y-120605000D02*
X140925000Y-120605000D01*
X106934000Y-114300000D02*
X111760000Y-114300000D01*
X142240000Y-121920000D02*
X142240000Y-129286000D01*
X111760000Y-114300000D02*
X118065000Y-120605000D01*
X140925000Y-120605000D02*
X142240000Y-121920000D01*
%TO.N,RMTR2*%
X119380000Y-106680000D02*
X140440000Y-106680000D01*
X106680000Y-93980000D02*
X119380000Y-106680000D01*
%TO.N,RMTR1*%
X107950000Y-91440000D02*
X120650000Y-104140000D01*
X106680000Y-91440000D02*
X107950000Y-91440000D01*
X120650000Y-104140000D02*
X140440000Y-104140000D01*
D26*
%TO.N,Net-(U1-SLEEP)*%
X154940000Y-109220000D02*
X154940000Y-106680000D01*
D25*
%TO.N,/PWR*%
X109739948Y-124560000D02*
X132180000Y-124560000D01*
X138358000Y-134620000D02*
X151792391Y-134620000D01*
X154400540Y-123729460D02*
X160020000Y-118110000D01*
X132180000Y-124560000D02*
X134620000Y-127000000D01*
X134620000Y-130882000D02*
X138358000Y-134620000D01*
X105720052Y-132080000D02*
X105720052Y-128579896D01*
X134620000Y-127000000D02*
X134620000Y-130882000D01*
X105720052Y-128579896D02*
X109739948Y-124560000D01*
X99010000Y-132080000D02*
X105720052Y-132080000D01*
X154400540Y-132011851D02*
X154400540Y-123729460D01*
X160020000Y-118110000D02*
X160020000Y-109220000D01*
X151792391Y-134620000D02*
X154400540Y-132011851D01*
X93980000Y-137110000D02*
X99010000Y-132080000D01*
%TO.N,/PWR_IN*%
X91440000Y-130810000D02*
X91440000Y-137110000D01*
D27*
%TO.N,LMTR1*%
X119380000Y-93980000D02*
X111760000Y-86360000D01*
X140440000Y-93980000D02*
X119380000Y-93980000D01*
X111760000Y-86360000D02*
X106680000Y-86360000D01*
%TO.N,LMTR2*%
X109220000Y-88900000D02*
X106426000Y-88900000D01*
X116840000Y-96520000D02*
X109220000Y-88900000D01*
X140440000Y-96520000D02*
X116840000Y-96520000D01*
%TD*%
M02*
