%TF.GenerationSoftware,KiCad,Pcbnew,8.0.8*%
%TF.CreationDate,2025-03-19T13:56:50+00:00*%
%TF.ProjectId,UKMARSBOT_RP2040Mezzanine,554b4d41-5253-4424-9f54-5f5250323034,rev?*%
%TF.SameCoordinates,Original*%
%TF.FileFunction,Legend,Bot*%
%TF.FilePolarity,Positive*%
%FSLAX46Y46*%
G04 Gerber Fmt 4.6, Leading zero omitted, Abs format (unit mm)*
G04 Created by KiCad (PCBNEW 8.0.8) date 2025-03-19 13:56:50*
%MOMM*%
%LPD*%
G01*
G04 APERTURE LIST*
%ADD10C,0.150000*%
%ADD11C,0.120000*%
G04 APERTURE END LIST*
D10*
X107013333Y-123704819D02*
X107013333Y-124419104D01*
X107013333Y-124419104D02*
X107060952Y-124561961D01*
X107060952Y-124561961D02*
X107156190Y-124657200D01*
X107156190Y-124657200D02*
X107299047Y-124704819D01*
X107299047Y-124704819D02*
X107394285Y-124704819D01*
X106108571Y-124038152D02*
X106108571Y-124704819D01*
X106346666Y-123657200D02*
X106584761Y-124371485D01*
X106584761Y-124371485D02*
X105965714Y-124371485D01*
X105513333Y-78334819D02*
X105513333Y-79049104D01*
X105513333Y-79049104D02*
X105560952Y-79191961D01*
X105560952Y-79191961D02*
X105656190Y-79287200D01*
X105656190Y-79287200D02*
X105799047Y-79334819D01*
X105799047Y-79334819D02*
X105894285Y-79334819D01*
X105132380Y-78334819D02*
X104513333Y-78334819D01*
X104513333Y-78334819D02*
X104846666Y-78715771D01*
X104846666Y-78715771D02*
X104703809Y-78715771D01*
X104703809Y-78715771D02*
X104608571Y-78763390D01*
X104608571Y-78763390D02*
X104560952Y-78811009D01*
X104560952Y-78811009D02*
X104513333Y-78906247D01*
X104513333Y-78906247D02*
X104513333Y-79144342D01*
X104513333Y-79144342D02*
X104560952Y-79239580D01*
X104560952Y-79239580D02*
X104608571Y-79287200D01*
X104608571Y-79287200D02*
X104703809Y-79334819D01*
X104703809Y-79334819D02*
X104989523Y-79334819D01*
X104989523Y-79334819D02*
X105084761Y-79287200D01*
X105084761Y-79287200D02*
X105132380Y-79239580D01*
X157813333Y-79674819D02*
X157813333Y-80389104D01*
X157813333Y-80389104D02*
X157860952Y-80531961D01*
X157860952Y-80531961D02*
X157956190Y-80627200D01*
X157956190Y-80627200D02*
X158099047Y-80674819D01*
X158099047Y-80674819D02*
X158194285Y-80674819D01*
X156813333Y-80674819D02*
X157384761Y-80674819D01*
X157099047Y-80674819D02*
X157099047Y-79674819D01*
X157099047Y-79674819D02*
X157194285Y-79817676D01*
X157194285Y-79817676D02*
X157289523Y-79912914D01*
X157289523Y-79912914D02*
X157384761Y-79960533D01*
D11*
%TO.C,J4*%
X105350000Y-107890000D02*
X105350000Y-120650000D01*
X105350000Y-123250000D02*
X105350000Y-121920000D01*
X106680000Y-123250000D02*
X105350000Y-123250000D01*
X108010000Y-107890000D02*
X105350000Y-107890000D01*
X108010000Y-107890000D02*
X108010000Y-120650000D01*
X108010000Y-120650000D02*
X105350000Y-120650000D01*
%TO.C,J3*%
X105350000Y-82550000D02*
X108010000Y-82550000D01*
X105350000Y-95310000D02*
X105350000Y-82550000D01*
X105350000Y-95310000D02*
X108010000Y-95310000D01*
X106680000Y-79950000D02*
X108010000Y-79950000D01*
X108010000Y-79950000D02*
X108010000Y-81280000D01*
X108010000Y-95310000D02*
X108010000Y-82550000D01*
%TO.C,J1*%
X156150000Y-83820000D02*
X158810000Y-83820000D01*
X156150000Y-121980000D02*
X156150000Y-83820000D01*
X156150000Y-121980000D02*
X158810000Y-121980000D01*
X157480000Y-81220000D02*
X158810000Y-81220000D01*
X158810000Y-81220000D02*
X158810000Y-82550000D01*
X158810000Y-121980000D02*
X158810000Y-83820000D01*
%TD*%
M02*
