%TF.GenerationSoftware,KiCad,Pcbnew,8.0.8*%
%TF.CreationDate,2025-03-19T13:56:49+00:00*%
%TF.ProjectId,UKMARSBOT_RP2040Mezzanine,554b4d41-5253-4424-9f54-5f5250323034,rev?*%
%TF.SameCoordinates,Original*%
%TF.FileFunction,Copper,L1,Top*%
%TF.FilePolarity,Positive*%
%FSLAX46Y46*%
G04 Gerber Fmt 4.6, Leading zero omitted, Abs format (unit mm)*
G04 Created by KiCad (PCBNEW 8.0.8) date 2025-03-19 13:56:49*
%MOMM*%
%LPD*%
G01*
G04 APERTURE LIST*
%TA.AperFunction,ComponentPad*%
%ADD10R,1.700000X1.700000*%
%TD*%
%TA.AperFunction,ComponentPad*%
%ADD11O,1.700000X1.700000*%
%TD*%
%TA.AperFunction,SMDPad,CuDef*%
%ADD12R,3.500000X1.700000*%
%TD*%
%TA.AperFunction,SMDPad,CuDef*%
%ADD13R,1.700000X3.500000*%
%TD*%
%TA.AperFunction,ComponentPad*%
%ADD14R,1.800000X1.800000*%
%TD*%
%TA.AperFunction,ComponentPad*%
%ADD15C,1.800000*%
%TD*%
%TA.AperFunction,ComponentPad*%
%ADD16C,2.000000*%
%TD*%
%TA.AperFunction,ComponentPad*%
%ADD17C,1.600000*%
%TD*%
%TA.AperFunction,ComponentPad*%
%ADD18O,1.600000X1.600000*%
%TD*%
%TA.AperFunction,Conductor*%
%ADD19C,0.800000*%
%TD*%
%TA.AperFunction,Conductor*%
%ADD20C,0.600000*%
%TD*%
%TA.AperFunction,Conductor*%
%ADD21C,0.254000*%
%TD*%
G04 APERTURE END LIST*
D10*
%TO.P,J2,1,Pin_1*%
%TO.N,unconnected-(J2-Pin_1-Pad1)*%
X124460000Y-83820000D03*
D11*
%TO.P,J2,2,Pin_2*%
%TO.N,GPIO00*%
X121920000Y-83820000D03*
%TO.P,J2,3,Pin_3*%
%TO.N,GPIO01*%
X119380000Y-83820000D03*
%TO.P,J2,4,Pin_4*%
%TO.N,GND*%
X116840000Y-83820000D03*
%TO.P,J2,5,Pin_5*%
%TO.N,3v3*%
X114300000Y-83820000D03*
%TO.P,J2,6,Pin_6*%
%TO.N,unconnected-(J2-Pin_6-Pad6)*%
X111760000Y-83820000D03*
%TD*%
%TO.P,U1,1,GPIO0*%
%TO.N,GPIO00*%
X132080000Y-77470000D03*
D12*
X131180000Y-77470000D03*
D11*
%TO.P,U1,2,GPIO1*%
%TO.N,GPIO01*%
X132080000Y-80010000D03*
D12*
X131180000Y-80010000D03*
D10*
%TO.P,U1,3,GND*%
%TO.N,GND*%
X132080000Y-82550000D03*
D12*
X131180000Y-82550000D03*
D11*
%TO.P,U1,4,GPIO2*%
%TO.N,LMTR1*%
X132080000Y-85090000D03*
D12*
X131180000Y-85090000D03*
D11*
%TO.P,U1,5,GPIO3*%
%TO.N,LMTR2*%
X132080000Y-87630000D03*
D12*
X131180000Y-87630000D03*
D11*
%TO.P,U1,6,GPIO4*%
%TO.N,RMTR1*%
X132080000Y-90170000D03*
D12*
X131180000Y-90170000D03*
D11*
%TO.P,U1,7,GPIO5*%
%TO.N,RMTR2*%
X132080000Y-92710000D03*
D12*
X131180000Y-92710000D03*
D10*
%TO.P,U1,8,GND*%
%TO.N,GND*%
X132080000Y-95250000D03*
D12*
X131180000Y-95250000D03*
D11*
%TO.P,U1,9,GPIO6*%
%TO.N,RQB*%
X132080000Y-97790000D03*
D12*
X131180000Y-97790000D03*
D11*
%TO.P,U1,10,GPIO7*%
%TO.N,RQA*%
X132080000Y-100330000D03*
D12*
X131180000Y-100330000D03*
D11*
%TO.P,U1,11,GPIO8*%
%TO.N,LQB*%
X132080000Y-102870000D03*
D12*
X131180000Y-102870000D03*
D11*
%TO.P,U1,12,GPIO9*%
%TO.N,LQA*%
X132080000Y-105410000D03*
D12*
X131180000Y-105410000D03*
D10*
%TO.P,U1,13,GND*%
%TO.N,GND*%
X132080000Y-107950000D03*
D12*
X131180000Y-107950000D03*
D11*
%TO.P,U1,14,GPIO10*%
%TO.N,GPIO10*%
X132080000Y-110490000D03*
D12*
X131180000Y-110490000D03*
D11*
%TO.P,U1,15,GPIO11*%
%TO.N,GPIO11*%
X132080000Y-113030000D03*
D12*
X131180000Y-113030000D03*
D11*
%TO.P,U1,16,GPIO12*%
%TO.N,GPIO12*%
X132080000Y-115570000D03*
D12*
X131180000Y-115570000D03*
D11*
%TO.P,U1,17,GPIO13*%
%TO.N,GPIO13*%
X132080000Y-118110000D03*
D12*
X131180000Y-118110000D03*
D10*
%TO.P,U1,18,GND*%
%TO.N,GND*%
X132080000Y-120650000D03*
D12*
X131180000Y-120650000D03*
D11*
%TO.P,U1,19,GPIO14*%
%TO.N,GPIO14*%
X132080000Y-123190000D03*
D12*
X131180000Y-123190000D03*
D11*
%TO.P,U1,20,GPIO15*%
%TO.N,GPIO15*%
X132080000Y-125730000D03*
D12*
X131180000Y-125730000D03*
D11*
%TO.P,U1,21,GPIO16*%
%TO.N,SDA*%
X149860000Y-125730000D03*
D12*
X150760000Y-125730000D03*
D11*
%TO.P,U1,22,GPIO17*%
%TO.N,SCL*%
X149860000Y-123190000D03*
D12*
X150760000Y-123190000D03*
D10*
%TO.P,U1,23,GND*%
%TO.N,GND*%
X149860000Y-120650000D03*
D12*
X150760000Y-120650000D03*
D11*
%TO.P,U1,24,GPIO18*%
%TO.N,SEN4DI0*%
X149860000Y-118110000D03*
D12*
X150760000Y-118110000D03*
D11*
%TO.P,U1,25,GPIO19*%
%TO.N,SEN3DI0*%
X149860000Y-115570000D03*
D12*
X150760000Y-115570000D03*
D11*
%TO.P,U1,26,GPIO20*%
%TO.N,SEN2DI0*%
X149860000Y-113030000D03*
D12*
X150760000Y-113030000D03*
D11*
%TO.P,U1,27,GPIO21*%
%TO.N,SEN1DI0*%
X149860000Y-110490000D03*
D12*
X150760000Y-110490000D03*
D10*
%TO.P,U1,28,GND*%
%TO.N,GND*%
X149860000Y-107950000D03*
D12*
X150760000Y-107950000D03*
D11*
%TO.P,U1,29,GPIO22*%
%TO.N,SEN0DI0*%
X149860000Y-105410000D03*
D12*
X150760000Y-105410000D03*
D11*
%TO.P,U1,30,RUN*%
%TO.N,unconnected-(U1-RUN-Pad30)_1*%
X149860000Y-102870000D03*
D12*
%TO.N,unconnected-(U1-RUN-Pad30)*%
X150760000Y-102870000D03*
D11*
%TO.P,U1,31,GPIO26_ADC0*%
%TO.N,SEN2AIP*%
X149860000Y-100330000D03*
D12*
X150760000Y-100330000D03*
D11*
%TO.P,U1,32,GPIO27_ADC1*%
%TO.N,SEN1AIP*%
X149860000Y-97790000D03*
D12*
X150760000Y-97790000D03*
D10*
%TO.P,U1,33,AGND*%
%TO.N,GND*%
X149860000Y-95250000D03*
D12*
X150760000Y-95250000D03*
D11*
%TO.P,U1,34,GPIO28_ADC2*%
%TO.N,SEN0AIP*%
X149860000Y-92710000D03*
D12*
X150760000Y-92710000D03*
D11*
%TO.P,U1,35,ADC_VREF*%
%TO.N,unconnected-(U1-ADC_VREF-Pad35)*%
X149860000Y-90170000D03*
D12*
%TO.N,unconnected-(U1-ADC_VREF-Pad35)_1*%
X150760000Y-90170000D03*
D11*
%TO.P,U1,36,3V3*%
%TO.N,3v3*%
X149860000Y-87630000D03*
D12*
X150760000Y-87630000D03*
D11*
%TO.P,U1,37,3V3_EN*%
%TO.N,unconnected-(U1-3V3_EN-Pad37)*%
X149860000Y-85090000D03*
D12*
%TO.N,unconnected-(U1-3V3_EN-Pad37)_1*%
X150760000Y-85090000D03*
D10*
%TO.P,U1,38,GND*%
%TO.N,GND*%
X149860000Y-82550000D03*
D12*
X150760000Y-82550000D03*
D11*
%TO.P,U1,39,VSYS*%
%TO.N,5V*%
X149860000Y-80010000D03*
D12*
X150760000Y-80010000D03*
D11*
%TO.P,U1,40,VBUS*%
%TO.N,unconnected-(U1-VBUS-Pad40)_1*%
X149860000Y-77470000D03*
D12*
%TO.N,unconnected-(U1-VBUS-Pad40)*%
X150760000Y-77470000D03*
D11*
%TO.P,U1,41,SWCLK*%
%TO.N,unconnected-(U1-SWCLK-Pad41)*%
X138430000Y-125500000D03*
D13*
%TO.N,unconnected-(U1-SWCLK-Pad41)_1*%
X138430000Y-126400000D03*
D10*
%TO.P,U1,42,GND*%
%TO.N,unconnected-(U1-GND-Pad42)*%
X140970000Y-125500000D03*
D13*
%TO.N,unconnected-(U1-GND-Pad42)_1*%
X140970000Y-126400000D03*
D11*
%TO.P,U1,43,SWDIO*%
%TO.N,unconnected-(U1-SWDIO-Pad43)*%
X143510000Y-125500000D03*
D13*
%TO.N,unconnected-(U1-SWDIO-Pad43)_1*%
X143510000Y-126400000D03*
%TD*%
D14*
%TO.P,D1,1,K*%
%TO.N,GND*%
X121920000Y-73660000D03*
D15*
%TO.P,D1,2,A*%
%TO.N,Net-(D1-A)*%
X119380000Y-73660000D03*
%TD*%
D16*
%TO.P,SW2,1,A*%
%TO.N,GND*%
X157480000Y-135310000D03*
X150980000Y-135310000D03*
%TO.P,SW2,2,B*%
%TO.N,GPIO14*%
X157480000Y-130810000D03*
X150980000Y-130810000D03*
%TD*%
D14*
%TO.P,D2,1,K*%
%TO.N,GND*%
X121920000Y-129540000D03*
D15*
%TO.P,D2,2,A*%
%TO.N,Net-(D2-A)*%
X119380000Y-129540000D03*
%TD*%
D16*
%TO.P,SW1,1,A*%
%TO.N,GND*%
X150980000Y-67720000D03*
X157480000Y-67720000D03*
%TO.P,SW1,2,B*%
%TO.N,GPIO15*%
X150980000Y-72220000D03*
X157480000Y-72220000D03*
%TD*%
D17*
%TO.P,R1,1*%
%TO.N,GPIO10*%
X112050161Y-94563355D03*
D18*
%TO.P,R1,2*%
%TO.N,Net-(D1-A)*%
X112050161Y-86943355D03*
%TD*%
D10*
%TO.P,J5,1,Pin_1*%
%TO.N,3v3*%
X111760000Y-119380000D03*
D11*
%TO.P,J5,2,Pin_2*%
%TO.N,GND*%
X114300000Y-119380000D03*
%TO.P,J5,3,Pin_3*%
%TO.N,GPIO10*%
X116840000Y-119380000D03*
%TO.P,J5,4,Pin_4*%
%TO.N,GPIO11*%
X119380000Y-119380000D03*
%TO.P,J5,5,Pin_5*%
%TO.N,GPIO12*%
X121920000Y-119380000D03*
%TO.P,J5,6,Pin_6*%
%TO.N,GPIO13*%
X124460000Y-119380000D03*
%TD*%
D17*
%TO.P,R2,1*%
%TO.N,GPIO11*%
X127860389Y-113034124D03*
D18*
%TO.P,R2,2*%
%TO.N,Net-(D2-A)*%
X127860389Y-120654124D03*
%TD*%
D10*
%TO.P,J4,1,Pin_1*%
%TO.N,LQA*%
X106680000Y-121920000D03*
D11*
%TO.P,J4,2,Pin_2*%
%TO.N,LQB*%
X106680000Y-119380000D03*
%TO.P,J4,3,Pin_3*%
%TO.N,RQA*%
X106680000Y-116840000D03*
%TO.P,J4,4,Pin_4*%
%TO.N,RQB*%
X106680000Y-114300000D03*
%TO.P,J4,5,Pin_5*%
%TO.N,3v3*%
X106680000Y-111760000D03*
%TO.P,J4,6,Pin_6*%
%TO.N,Vbatt*%
X106680000Y-109220000D03*
%TD*%
D10*
%TO.P,J3,1,Pin_1*%
%TO.N,5V*%
X106680000Y-81280000D03*
D11*
%TO.P,J3,2,Pin_2*%
%TO.N,GND*%
X106680000Y-83820000D03*
%TO.P,J3,3,Pin_3*%
%TO.N,LMTR1*%
X106680000Y-86360000D03*
%TO.P,J3,4,Pin_4*%
%TO.N,LMTR2*%
X106680000Y-88900000D03*
%TO.P,J3,5,Pin_5*%
%TO.N,RMTR1*%
X106680000Y-91440000D03*
%TO.P,J3,6,Pin_6*%
%TO.N,RMTR2*%
X106680000Y-93980000D03*
%TD*%
D10*
%TO.P,J1,1,Pin_1*%
%TO.N,5V*%
X157480000Y-82550000D03*
D11*
%TO.P,J1,2,Pin_2*%
%TO.N,GND*%
X157480000Y-85090000D03*
%TO.P,J1,3,Pin_3*%
%TO.N,3v3*%
X157480000Y-87630000D03*
%TO.P,J1,4,Pin_4*%
%TO.N,SEN0DI0*%
X157480000Y-90170000D03*
%TO.P,J1,5,Pin_5*%
%TO.N,SEN1DI0*%
X157480000Y-92710000D03*
%TO.P,J1,6,Pin_6*%
%TO.N,SEN2DI0*%
X157480000Y-95250000D03*
%TO.P,J1,7,Pin_7*%
%TO.N,SEN3DI0*%
X157480000Y-97790000D03*
%TO.P,J1,8,Pin_8*%
%TO.N,SEN4DI0*%
X157480000Y-100330000D03*
%TO.P,J1,9,Pin_9*%
%TO.N,SEN0AIP*%
X157480000Y-102870000D03*
%TO.P,J1,10,Pin_10*%
%TO.N,SEN1AIP*%
X157480000Y-105410000D03*
%TO.P,J1,11,Pin_11*%
%TO.N,SEN2AIP*%
X157480000Y-107950000D03*
%TO.P,J1,12,Pin_12*%
%TO.N,unconnected-(J1-Pin_12-Pad12)*%
X157480000Y-110490000D03*
%TO.P,J1,13,Pin_13*%
%TO.N,unconnected-(J1-Pin_13-Pad13)*%
X157480000Y-113030000D03*
%TO.P,J1,14,Pin_14*%
%TO.N,unconnected-(J1-Pin_14-Pad14)*%
X157480000Y-115570000D03*
%TO.P,J1,15,Pin_15*%
%TO.N,SDA*%
X157480000Y-118110000D03*
%TO.P,J1,16,Pin_16*%
%TO.N,SCL*%
X157480000Y-120650000D03*
%TD*%
D19*
%TO.N,5V*%
X106680000Y-81280000D02*
X109560000Y-78400000D01*
X149860000Y-80010000D02*
X154940000Y-80010000D01*
X118440000Y-76200000D02*
X123190000Y-76200000D01*
X147320000Y-80010000D02*
X149860000Y-80010000D01*
X109560000Y-78400000D02*
X116240000Y-78400000D01*
X154940000Y-80010000D02*
X157480000Y-82550000D01*
X116240000Y-78400000D02*
X118440000Y-76200000D01*
X146050000Y-75410000D02*
X146050000Y-78740000D01*
X123190000Y-76200000D02*
X127000000Y-72390000D01*
X143030000Y-72390000D02*
X146050000Y-75410000D01*
X127000000Y-72390000D02*
X143030000Y-72390000D01*
X146050000Y-78740000D02*
X147320000Y-80010000D01*
D20*
%TO.N,GPIO10*%
X116840000Y-114300000D02*
X116840000Y-119380000D01*
X116840000Y-119380000D02*
X125730000Y-110490000D01*
X112050161Y-94563355D02*
X112050161Y-109510161D01*
X125730000Y-110490000D02*
X132080000Y-110490000D01*
X112050161Y-109510161D02*
X116840000Y-114300000D01*
%TO.N,GPIO11*%
X125725876Y-113034124D02*
X119380000Y-119380000D01*
X127864513Y-113030000D02*
X127860389Y-113034124D01*
X132080000Y-113030000D02*
X127864513Y-113030000D01*
X127860389Y-113034124D02*
X125725876Y-113034124D01*
%TO.N,GPIO14*%
X132440000Y-123190000D02*
X135890000Y-126640000D01*
X157480000Y-130810000D02*
X150980000Y-130810000D01*
X137160000Y-130810000D02*
X150980000Y-130810000D01*
X135890000Y-129540000D02*
X137160000Y-130810000D01*
X135890000Y-126640000D02*
X135890000Y-129540000D01*
X132080000Y-123190000D02*
X132440000Y-123190000D01*
%TO.N,GPIO15*%
X161290000Y-120650000D02*
X161290000Y-83460000D01*
X132080000Y-129540000D02*
X134620000Y-132080000D01*
X157480000Y-73660000D02*
X157390000Y-73750000D01*
X157390000Y-128457258D02*
X157390000Y-124114567D01*
X157480000Y-72220000D02*
X150980000Y-72220000D01*
X161290000Y-83460000D02*
X157480000Y-79650000D01*
X157390000Y-79560000D02*
X157480000Y-79650000D01*
X138430000Y-132080000D02*
X139700000Y-133350000D01*
X159742742Y-130810000D02*
X157390000Y-128457258D01*
X157480000Y-72220000D02*
X157480000Y-73660000D01*
X160854567Y-120650000D02*
X161290000Y-120650000D01*
X134620000Y-132080000D02*
X138430000Y-132080000D01*
X157390000Y-73750000D02*
X157390000Y-79560000D01*
X132080000Y-125730000D02*
X132080000Y-129540000D01*
X157202742Y-133350000D02*
X159742742Y-130810000D01*
X157390000Y-124114567D02*
X160854567Y-120650000D01*
X139700000Y-133350000D02*
X157202742Y-133350000D01*
D21*
%TO.N,SDA*%
X156210000Y-118110000D02*
X157480000Y-118110000D01*
X152400000Y-125730000D02*
X153670000Y-124460000D01*
X153670000Y-124460000D02*
X153670000Y-120650000D01*
X153670000Y-120650000D02*
X156210000Y-118110000D01*
X149860000Y-125730000D02*
X152400000Y-125730000D01*
%TO.N,SEN3DI0*%
X154778000Y-114462000D02*
X153670000Y-115570000D01*
X157480000Y-97790000D02*
X154778000Y-100492000D01*
X153670000Y-115570000D02*
X149860000Y-115570000D01*
X154778000Y-100492000D02*
X154778000Y-114462000D01*
%TO.N,SEN4DI0*%
X156105699Y-100330000D02*
X155332000Y-101103699D01*
X157480000Y-100330000D02*
X156105699Y-100330000D01*
X153670000Y-118110000D02*
X149860000Y-118110000D01*
X155332000Y-116448000D02*
X153670000Y-118110000D01*
X155332000Y-101103699D02*
X155332000Y-116448000D01*
%TO.N,SEN0DI0*%
X152937000Y-90903000D02*
X152937000Y-104147000D01*
X152937000Y-104147000D02*
X151674000Y-105410000D01*
X157480000Y-90170000D02*
X153670000Y-90170000D01*
X153670000Y-90170000D02*
X152937000Y-90903000D01*
X151674000Y-105410000D02*
X149860000Y-105410000D01*
%TO.N,SEN1DI0*%
X153670000Y-93980000D02*
X153670000Y-108494000D01*
X153670000Y-108494000D02*
X151674000Y-110490000D01*
X151674000Y-110490000D02*
X149860000Y-110490000D01*
X154940000Y-92710000D02*
X153670000Y-93980000D01*
X157480000Y-92710000D02*
X154940000Y-92710000D01*
%TO.N,SEN2DI0*%
X154224000Y-95966000D02*
X154224000Y-110480000D01*
X151674000Y-113030000D02*
X149860000Y-113030000D01*
X154940000Y-95250000D02*
X154224000Y-95966000D01*
X154224000Y-110480000D02*
X151674000Y-113030000D01*
X157480000Y-95250000D02*
X154940000Y-95250000D01*
D20*
%TO.N,GPIO00*%
X127067919Y-77470000D02*
X132080000Y-77470000D01*
X121920000Y-83820000D02*
X121920000Y-82617919D01*
X121920000Y-82617919D02*
X127067919Y-77470000D01*
%TO.N,GPIO12*%
X121920000Y-119380000D02*
X125730000Y-115570000D01*
X125730000Y-115570000D02*
X132080000Y-115570000D01*
%TO.N,GPIO01*%
X120650000Y-87630000D02*
X125730000Y-87630000D01*
X129540000Y-80010000D02*
X132080000Y-80010000D01*
X127000000Y-86360000D02*
X127000000Y-82550000D01*
X125730000Y-87630000D02*
X127000000Y-86360000D01*
X119380000Y-83820000D02*
X119380000Y-86360000D01*
X119380000Y-86360000D02*
X120650000Y-87630000D01*
X127000000Y-82550000D02*
X129540000Y-80010000D01*
%TO.N,GPIO13*%
X125730000Y-118110000D02*
X132080000Y-118110000D01*
X124460000Y-119380000D02*
X125730000Y-118110000D01*
%TO.N,Net-(D2-A)*%
X127860389Y-122329611D02*
X125730000Y-124460000D01*
X127860389Y-120654124D02*
X127860389Y-122329611D01*
X125730000Y-124460000D02*
X121920000Y-124460000D01*
X121920000Y-124460000D02*
X119380000Y-127000000D01*
X119380000Y-127000000D02*
X119380000Y-129540000D01*
D19*
%TO.N,3v3*%
X106680000Y-111760000D02*
X111760000Y-116840000D01*
X134620000Y-73660000D02*
X128270000Y-73660000D01*
X139426388Y-87630000D02*
X136265907Y-84469519D01*
X149860000Y-87630000D02*
X139426388Y-87630000D01*
X109748180Y-108691820D02*
X109748180Y-81081505D01*
X128270000Y-73660000D02*
X123190000Y-78740000D01*
X149860000Y-87630000D02*
X157480000Y-87630000D01*
X109748180Y-81081505D02*
X111561505Y-81081505D01*
X111760000Y-116840000D02*
X111760000Y-119380000D01*
X136265907Y-84469519D02*
X136265907Y-75305907D01*
X111561505Y-81081505D02*
X114300000Y-83820000D01*
X118110000Y-78740000D02*
X114300000Y-82550000D01*
X114300000Y-82550000D02*
X114300000Y-83820000D01*
X123190000Y-78740000D02*
X118110000Y-78740000D01*
X136265907Y-75305907D02*
X134620000Y-73660000D01*
X106680000Y-111760000D02*
X109748180Y-108691820D01*
%TD*%
M02*
