%TF.GenerationSoftware,KiCad,Pcbnew,8.0.8*%
%TF.CreationDate,2025-03-19T13:56:49+00:00*%
%TF.ProjectId,UKMARSBOT_RP2040Mezzanine,554b4d41-5253-4424-9f54-5f5250323034,rev?*%
%TF.SameCoordinates,Original*%
%TF.FileFunction,Copper,L2,Bot*%
%TF.FilePolarity,Positive*%
%FSLAX46Y46*%
G04 Gerber Fmt 4.6, Leading zero omitted, Abs format (unit mm)*
G04 Created by KiCad (PCBNEW 8.0.8) date 2025-03-19 13:56:49*
%MOMM*%
%LPD*%
G01*
G04 APERTURE LIST*
%TA.AperFunction,ComponentPad*%
%ADD10R,1.700000X1.700000*%
%TD*%
%TA.AperFunction,ComponentPad*%
%ADD11O,1.700000X1.700000*%
%TD*%
%TA.AperFunction,ComponentPad*%
%ADD12R,1.800000X1.800000*%
%TD*%
%TA.AperFunction,ComponentPad*%
%ADD13C,1.800000*%
%TD*%
%TA.AperFunction,ComponentPad*%
%ADD14C,2.000000*%
%TD*%
%TA.AperFunction,ComponentPad*%
%ADD15C,1.600000*%
%TD*%
%TA.AperFunction,ComponentPad*%
%ADD16O,1.600000X1.600000*%
%TD*%
%TA.AperFunction,Conductor*%
%ADD17C,0.800000*%
%TD*%
%TA.AperFunction,Conductor*%
%ADD18C,0.600000*%
%TD*%
%TA.AperFunction,Conductor*%
%ADD19C,0.254000*%
%TD*%
G04 APERTURE END LIST*
D10*
%TO.P,J2,1,Pin_1*%
%TO.N,unconnected-(J2-Pin_1-Pad1)*%
X124460000Y-83820000D03*
D11*
%TO.P,J2,2,Pin_2*%
%TO.N,GPIO00*%
X121920000Y-83820000D03*
%TO.P,J2,3,Pin_3*%
%TO.N,GPIO01*%
X119380000Y-83820000D03*
%TO.P,J2,4,Pin_4*%
%TO.N,GND*%
X116840000Y-83820000D03*
%TO.P,J2,5,Pin_5*%
%TO.N,3v3*%
X114300000Y-83820000D03*
%TO.P,J2,6,Pin_6*%
%TO.N,unconnected-(J2-Pin_6-Pad6)*%
X111760000Y-83820000D03*
%TD*%
%TO.P,U1,1,GPIO0*%
%TO.N,GPIO00*%
X132080000Y-77470000D03*
%TO.P,U1,2,GPIO1*%
%TO.N,GPIO01*%
X132080000Y-80010000D03*
D10*
%TO.P,U1,3,GND*%
%TO.N,GND*%
X132080000Y-82550000D03*
D11*
%TO.P,U1,4,GPIO2*%
%TO.N,LMTR1*%
X132080000Y-85090000D03*
%TO.P,U1,5,GPIO3*%
%TO.N,LMTR2*%
X132080000Y-87630000D03*
%TO.P,U1,6,GPIO4*%
%TO.N,RMTR1*%
X132080000Y-90170000D03*
%TO.P,U1,7,GPIO5*%
%TO.N,RMTR2*%
X132080000Y-92710000D03*
D10*
%TO.P,U1,8,GND*%
%TO.N,GND*%
X132080000Y-95250000D03*
D11*
%TO.P,U1,9,GPIO6*%
%TO.N,RQB*%
X132080000Y-97790000D03*
%TO.P,U1,10,GPIO7*%
%TO.N,RQA*%
X132080000Y-100330000D03*
%TO.P,U1,11,GPIO8*%
%TO.N,LQB*%
X132080000Y-102870000D03*
%TO.P,U1,12,GPIO9*%
%TO.N,LQA*%
X132080000Y-105410000D03*
D10*
%TO.P,U1,13,GND*%
%TO.N,GND*%
X132080000Y-107950000D03*
D11*
%TO.P,U1,14,GPIO10*%
%TO.N,GPIO10*%
X132080000Y-110490000D03*
%TO.P,U1,15,GPIO11*%
%TO.N,GPIO11*%
X132080000Y-113030000D03*
%TO.P,U1,16,GPIO12*%
%TO.N,GPIO12*%
X132080000Y-115570000D03*
%TO.P,U1,17,GPIO13*%
%TO.N,GPIO13*%
X132080000Y-118110000D03*
D10*
%TO.P,U1,18,GND*%
%TO.N,GND*%
X132080000Y-120650000D03*
D11*
%TO.P,U1,19,GPIO14*%
%TO.N,GPIO14*%
X132080000Y-123190000D03*
%TO.P,U1,20,GPIO15*%
%TO.N,GPIO15*%
X132080000Y-125730000D03*
%TO.P,U1,21,GPIO16*%
%TO.N,SDA*%
X149860000Y-125730000D03*
%TO.P,U1,22,GPIO17*%
%TO.N,SCL*%
X149860000Y-123190000D03*
D10*
%TO.P,U1,23,GND*%
%TO.N,GND*%
X149860000Y-120650000D03*
D11*
%TO.P,U1,24,GPIO18*%
%TO.N,SEN4DI0*%
X149860000Y-118110000D03*
%TO.P,U1,25,GPIO19*%
%TO.N,SEN3DI0*%
X149860000Y-115570000D03*
%TO.P,U1,26,GPIO20*%
%TO.N,SEN2DI0*%
X149860000Y-113030000D03*
%TO.P,U1,27,GPIO21*%
%TO.N,SEN1DI0*%
X149860000Y-110490000D03*
D10*
%TO.P,U1,28,GND*%
%TO.N,GND*%
X149860000Y-107950000D03*
D11*
%TO.P,U1,29,GPIO22*%
%TO.N,SEN0DI0*%
X149860000Y-105410000D03*
%TO.P,U1,30,RUN*%
%TO.N,unconnected-(U1-RUN-Pad30)_1*%
X149860000Y-102870000D03*
%TO.P,U1,31,GPIO26_ADC0*%
%TO.N,SEN2AIP*%
X149860000Y-100330000D03*
%TO.P,U1,32,GPIO27_ADC1*%
%TO.N,SEN1AIP*%
X149860000Y-97790000D03*
D10*
%TO.P,U1,33,AGND*%
%TO.N,GND*%
X149860000Y-95250000D03*
D11*
%TO.P,U1,34,GPIO28_ADC2*%
%TO.N,SEN0AIP*%
X149860000Y-92710000D03*
%TO.P,U1,35,ADC_VREF*%
%TO.N,unconnected-(U1-ADC_VREF-Pad35)*%
X149860000Y-90170000D03*
%TO.P,U1,36,3V3*%
%TO.N,3v3*%
X149860000Y-87630000D03*
%TO.P,U1,37,3V3_EN*%
%TO.N,unconnected-(U1-3V3_EN-Pad37)*%
X149860000Y-85090000D03*
D10*
%TO.P,U1,38,GND*%
%TO.N,GND*%
X149860000Y-82550000D03*
D11*
%TO.P,U1,39,VSYS*%
%TO.N,5V*%
X149860000Y-80010000D03*
%TO.P,U1,40,VBUS*%
%TO.N,unconnected-(U1-VBUS-Pad40)_1*%
X149860000Y-77470000D03*
%TO.P,U1,41,SWCLK*%
%TO.N,unconnected-(U1-SWCLK-Pad41)*%
X138430000Y-125500000D03*
D10*
%TO.P,U1,42,GND*%
%TO.N,unconnected-(U1-GND-Pad42)*%
X140970000Y-125500000D03*
D11*
%TO.P,U1,43,SWDIO*%
%TO.N,unconnected-(U1-SWDIO-Pad43)*%
X143510000Y-125500000D03*
%TD*%
D12*
%TO.P,D1,1,K*%
%TO.N,GND*%
X121920000Y-73660000D03*
D13*
%TO.P,D1,2,A*%
%TO.N,Net-(D1-A)*%
X119380000Y-73660000D03*
%TD*%
D14*
%TO.P,SW2,1,A*%
%TO.N,GND*%
X157480000Y-135310000D03*
X150980000Y-135310000D03*
%TO.P,SW2,2,B*%
%TO.N,GPIO14*%
X157480000Y-130810000D03*
X150980000Y-130810000D03*
%TD*%
D12*
%TO.P,D2,1,K*%
%TO.N,GND*%
X121920000Y-129540000D03*
D13*
%TO.P,D2,2,A*%
%TO.N,Net-(D2-A)*%
X119380000Y-129540000D03*
%TD*%
D14*
%TO.P,SW1,1,A*%
%TO.N,GND*%
X150980000Y-67720000D03*
X157480000Y-67720000D03*
%TO.P,SW1,2,B*%
%TO.N,GPIO15*%
X150980000Y-72220000D03*
X157480000Y-72220000D03*
%TD*%
D15*
%TO.P,R1,1*%
%TO.N,GPIO10*%
X112050161Y-94563355D03*
D16*
%TO.P,R1,2*%
%TO.N,Net-(D1-A)*%
X112050161Y-86943355D03*
%TD*%
D10*
%TO.P,J5,1,Pin_1*%
%TO.N,3v3*%
X111760000Y-119380000D03*
D11*
%TO.P,J5,2,Pin_2*%
%TO.N,GND*%
X114300000Y-119380000D03*
%TO.P,J5,3,Pin_3*%
%TO.N,GPIO10*%
X116840000Y-119380000D03*
%TO.P,J5,4,Pin_4*%
%TO.N,GPIO11*%
X119380000Y-119380000D03*
%TO.P,J5,5,Pin_5*%
%TO.N,GPIO12*%
X121920000Y-119380000D03*
%TO.P,J5,6,Pin_6*%
%TO.N,GPIO13*%
X124460000Y-119380000D03*
%TD*%
D15*
%TO.P,R2,1*%
%TO.N,GPIO11*%
X127860389Y-113034124D03*
D16*
%TO.P,R2,2*%
%TO.N,Net-(D2-A)*%
X127860389Y-120654124D03*
%TD*%
D10*
%TO.P,J4,1,Pin_1*%
%TO.N,LQA*%
X106680000Y-121920000D03*
D11*
%TO.P,J4,2,Pin_2*%
%TO.N,LQB*%
X106680000Y-119380000D03*
%TO.P,J4,3,Pin_3*%
%TO.N,RQA*%
X106680000Y-116840000D03*
%TO.P,J4,4,Pin_4*%
%TO.N,RQB*%
X106680000Y-114300000D03*
%TO.P,J4,5,Pin_5*%
%TO.N,3v3*%
X106680000Y-111760000D03*
%TO.P,J4,6,Pin_6*%
%TO.N,Vbatt*%
X106680000Y-109220000D03*
%TD*%
D10*
%TO.P,J3,1,Pin_1*%
%TO.N,5V*%
X106680000Y-81280000D03*
D11*
%TO.P,J3,2,Pin_2*%
%TO.N,GND*%
X106680000Y-83820000D03*
%TO.P,J3,3,Pin_3*%
%TO.N,LMTR1*%
X106680000Y-86360000D03*
%TO.P,J3,4,Pin_4*%
%TO.N,LMTR2*%
X106680000Y-88900000D03*
%TO.P,J3,5,Pin_5*%
%TO.N,RMTR1*%
X106680000Y-91440000D03*
%TO.P,J3,6,Pin_6*%
%TO.N,RMTR2*%
X106680000Y-93980000D03*
%TD*%
D10*
%TO.P,J1,1,Pin_1*%
%TO.N,5V*%
X157480000Y-82550000D03*
D11*
%TO.P,J1,2,Pin_2*%
%TO.N,GND*%
X157480000Y-85090000D03*
%TO.P,J1,3,Pin_3*%
%TO.N,3v3*%
X157480000Y-87630000D03*
%TO.P,J1,4,Pin_4*%
%TO.N,SEN0DI0*%
X157480000Y-90170000D03*
%TO.P,J1,5,Pin_5*%
%TO.N,SEN1DI0*%
X157480000Y-92710000D03*
%TO.P,J1,6,Pin_6*%
%TO.N,SEN2DI0*%
X157480000Y-95250000D03*
%TO.P,J1,7,Pin_7*%
%TO.N,SEN3DI0*%
X157480000Y-97790000D03*
%TO.P,J1,8,Pin_8*%
%TO.N,SEN4DI0*%
X157480000Y-100330000D03*
%TO.P,J1,9,Pin_9*%
%TO.N,SEN0AIP*%
X157480000Y-102870000D03*
%TO.P,J1,10,Pin_10*%
%TO.N,SEN1AIP*%
X157480000Y-105410000D03*
%TO.P,J1,11,Pin_11*%
%TO.N,SEN2AIP*%
X157480000Y-107950000D03*
%TO.P,J1,12,Pin_12*%
%TO.N,unconnected-(J1-Pin_12-Pad12)*%
X157480000Y-110490000D03*
%TO.P,J1,13,Pin_13*%
%TO.N,unconnected-(J1-Pin_13-Pad13)*%
X157480000Y-113030000D03*
%TO.P,J1,14,Pin_14*%
%TO.N,unconnected-(J1-Pin_14-Pad14)*%
X157480000Y-115570000D03*
%TO.P,J1,15,Pin_15*%
%TO.N,SDA*%
X157480000Y-118110000D03*
%TO.P,J1,16,Pin_16*%
%TO.N,SCL*%
X157480000Y-120650000D03*
%TD*%
D17*
%TO.N,GND*%
X105410000Y-83820000D02*
X104140000Y-82550000D01*
X147320000Y-81280000D02*
X147320000Y-76200000D01*
X141520000Y-70400000D02*
X140970000Y-70400000D01*
X114300000Y-121920000D02*
X114300000Y-119380000D01*
X153670000Y-82550000D02*
X156210000Y-85090000D01*
X134620000Y-123190000D02*
X134620000Y-128270000D01*
X149860000Y-107950000D02*
X132080000Y-107950000D01*
X147320000Y-105410000D02*
X149860000Y-107950000D01*
X120650000Y-70400000D02*
X140970000Y-70400000D01*
X149860000Y-95250000D02*
X132080000Y-95250000D01*
X149860000Y-95250000D02*
X147320000Y-97790000D01*
X147320000Y-76200000D02*
X141520000Y-70400000D01*
X121920000Y-73660000D02*
X121920000Y-76200000D01*
X149860000Y-120650000D02*
X132080000Y-120650000D01*
X147320000Y-110490000D02*
X147320000Y-118110000D01*
X121920000Y-129540000D02*
X121920000Y-127000000D01*
X147320000Y-85090000D02*
X147320000Y-92710000D01*
X106680000Y-83820000D02*
X105410000Y-83820000D01*
X148590000Y-82550000D02*
X147320000Y-81280000D01*
X115570000Y-123190000D02*
X114300000Y-121920000D01*
X149860000Y-82550000D02*
X148590000Y-82550000D01*
X147320000Y-92710000D02*
X149860000Y-95250000D01*
X121920000Y-127000000D02*
X118110000Y-123190000D01*
X149860000Y-107950000D02*
X147320000Y-110490000D01*
X156210000Y-85090000D02*
X157480000Y-85090000D01*
X121920000Y-71670000D02*
X120650000Y-70400000D01*
X157480000Y-67720000D02*
X150980000Y-67720000D01*
X121920000Y-76200000D02*
X116840000Y-81280000D01*
X132080000Y-120650000D02*
X134620000Y-123190000D01*
X106130000Y-70400000D02*
X120650000Y-70400000D01*
X149860000Y-82550000D02*
X147320000Y-85090000D01*
X147320000Y-97790000D02*
X147320000Y-105410000D01*
X104140000Y-72390000D02*
X106130000Y-70400000D01*
X104140000Y-82550000D02*
X104140000Y-72390000D01*
X133350000Y-129540000D02*
X121920000Y-129540000D01*
X157480000Y-135310000D02*
X150980000Y-135310000D01*
X149860000Y-82550000D02*
X132080000Y-82550000D01*
X116840000Y-81280000D02*
X116840000Y-83820000D01*
X121920000Y-73660000D02*
X121920000Y-71670000D01*
X149860000Y-82550000D02*
X153670000Y-82550000D01*
X147320000Y-118110000D02*
X149860000Y-120650000D01*
X118110000Y-123190000D02*
X115570000Y-123190000D01*
X150980000Y-67720000D02*
X144200000Y-67720000D01*
X144200000Y-67720000D02*
X141520000Y-70400000D01*
X134620000Y-128270000D02*
X133350000Y-129540000D01*
D18*
%TO.N,Net-(D1-A)*%
X111760000Y-78740000D02*
X114300000Y-78740000D01*
X112050161Y-86943355D02*
X109769262Y-84662456D01*
X109769262Y-84662456D02*
X109769262Y-80730738D01*
X109769262Y-80730738D02*
X111760000Y-78740000D01*
X114300000Y-78740000D02*
X119380000Y-73660000D01*
D19*
%TO.N,LQB*%
X130249000Y-104701000D02*
X132080000Y-102870000D01*
X109220000Y-116840000D02*
X130249000Y-116840000D01*
X106680000Y-119380000D02*
X109220000Y-116840000D01*
X130249000Y-116840000D02*
X130249000Y-104701000D01*
%TO.N,LQA*%
X110483000Y-118110000D02*
X110490000Y-118103000D01*
X130803000Y-118103000D02*
X130803000Y-105417000D01*
X108889175Y-121920000D02*
X110483000Y-120326175D01*
X130810000Y-105410000D02*
X132080000Y-105410000D01*
X106680000Y-121920000D02*
X108889175Y-121920000D01*
X110483000Y-120326175D02*
X110483000Y-118110000D01*
X130803000Y-105417000D02*
X130810000Y-105410000D01*
X110490000Y-118103000D02*
X130803000Y-118103000D01*
%TO.N,RQB*%
X128270000Y-100330000D02*
X130810000Y-97790000D01*
X121920000Y-114300000D02*
X124460000Y-111760000D01*
X124460000Y-111760000D02*
X128270000Y-111760000D01*
X106680000Y-114300000D02*
X121920000Y-114300000D01*
X128270000Y-111760000D02*
X128270000Y-100330000D01*
X130810000Y-97790000D02*
X132080000Y-97790000D01*
%TO.N,RQA*%
X130810000Y-100330000D02*
X132080000Y-100330000D01*
X129540000Y-101600000D02*
X130810000Y-100330000D01*
X106680000Y-116840000D02*
X107950000Y-115570000D01*
X107950000Y-115570000D02*
X129540000Y-115570000D01*
X129540000Y-115570000D02*
X129540000Y-101600000D01*
%TO.N,RMTR2*%
X107950000Y-92710000D02*
X132080000Y-92710000D01*
X106680000Y-93980000D02*
X107950000Y-92710000D01*
%TO.N,RMTR1*%
X115570000Y-91440000D02*
X116840000Y-90170000D01*
X116840000Y-90170000D02*
X132080000Y-90170000D01*
X106680000Y-91440000D02*
X115570000Y-91440000D01*
%TO.N,LMTR1*%
X111760000Y-88900000D02*
X113030000Y-88900000D01*
X127000000Y-86360000D02*
X128270000Y-85090000D01*
X128270000Y-85090000D02*
X132080000Y-85090000D01*
X113030000Y-88900000D02*
X115570000Y-86360000D01*
X109220000Y-86360000D02*
X111760000Y-88900000D01*
X106680000Y-86360000D02*
X109220000Y-86360000D01*
X115570000Y-86360000D02*
X127000000Y-86360000D01*
%TO.N,LMTR2*%
X116840000Y-87630000D02*
X132080000Y-87630000D01*
X114300000Y-90170000D02*
X116840000Y-87630000D01*
X110490000Y-90170000D02*
X114300000Y-90170000D01*
X109220000Y-88900000D02*
X110490000Y-90170000D01*
X106680000Y-88900000D02*
X109220000Y-88900000D01*
%TO.N,SEN2AIP*%
X152400000Y-106680000D02*
X152400000Y-102870000D01*
X157480000Y-107950000D02*
X153670000Y-107950000D01*
X153670000Y-107950000D02*
X152400000Y-106680000D01*
X152400000Y-102870000D02*
X149860000Y-100330000D01*
%TO.N,SEN0AIP*%
X154940000Y-101600000D02*
X154940000Y-93980000D01*
X154940000Y-93980000D02*
X153670000Y-92710000D01*
X153670000Y-92710000D02*
X149860000Y-92710000D01*
X157480000Y-102870000D02*
X156210000Y-102870000D01*
X156210000Y-102870000D02*
X154940000Y-101600000D01*
%TO.N,SCL*%
X149860000Y-123190000D02*
X154940000Y-123190000D01*
X154940000Y-123190000D02*
X157480000Y-120650000D01*
%TO.N,SEN1AIP*%
X157480000Y-105410000D02*
X154940000Y-105410000D01*
X152400000Y-97790000D02*
X149860000Y-97790000D01*
X153670000Y-104140000D02*
X153670000Y-99060000D01*
X154940000Y-105410000D02*
X153670000Y-104140000D01*
X153670000Y-99060000D02*
X152400000Y-97790000D01*
%TD*%
%TA.AperFunction,Conductor*%
%TO.N,GND*%
G36*
X165042121Y-60980002D02*
G01*
X165088614Y-61033658D01*
X165100000Y-61086000D01*
X165100000Y-76889312D01*
X165079998Y-76957433D01*
X165026342Y-77003926D01*
X164956068Y-77014030D01*
X164891488Y-76984536D01*
X164853104Y-76924810D01*
X164850421Y-76913893D01*
X164831523Y-76818889D01*
X164786809Y-76594095D01*
X164684118Y-76255565D01*
X164548739Y-75928731D01*
X164381976Y-75616741D01*
X164185436Y-75322598D01*
X164185435Y-75322596D01*
X163961025Y-75049151D01*
X163960999Y-75049122D01*
X163710877Y-74799000D01*
X163710848Y-74798974D01*
X163437403Y-74574564D01*
X163143261Y-74378025D01*
X162831269Y-74211261D01*
X162504439Y-74075883D01*
X162504430Y-74075880D01*
X162286422Y-74009749D01*
X162165905Y-73973191D01*
X162165901Y-73973190D01*
X162165894Y-73973188D01*
X161818945Y-73904176D01*
X161818940Y-73904175D01*
X161818933Y-73904174D01*
X161818924Y-73904173D01*
X161466887Y-73869500D01*
X161466881Y-73869500D01*
X161113119Y-73869500D01*
X161113112Y-73869500D01*
X160761075Y-73904173D01*
X160761063Y-73904174D01*
X160761060Y-73904175D01*
X160761057Y-73904175D01*
X160761054Y-73904176D01*
X160414105Y-73973188D01*
X160075569Y-74075880D01*
X160075560Y-74075883D01*
X159748730Y-74211261D01*
X159436738Y-74378025D01*
X159142596Y-74574564D01*
X158869151Y-74798974D01*
X158869122Y-74799000D01*
X158619000Y-75049122D01*
X158618974Y-75049151D01*
X158394564Y-75322596D01*
X158198025Y-75616738D01*
X158031261Y-75928730D01*
X157895883Y-76255560D01*
X157895880Y-76255569D01*
X157793188Y-76594105D01*
X157724176Y-76941054D01*
X157724173Y-76941075D01*
X157689500Y-77293112D01*
X157689500Y-77646887D01*
X157724173Y-77998924D01*
X157724176Y-77998945D01*
X157793188Y-78345894D01*
X157793190Y-78345901D01*
X157793191Y-78345905D01*
X157807190Y-78392053D01*
X157895880Y-78684430D01*
X157895883Y-78684439D01*
X158031261Y-79011269D01*
X158198025Y-79323261D01*
X158394564Y-79617403D01*
X158618974Y-79890848D01*
X158619000Y-79890877D01*
X158869122Y-80140999D01*
X158869131Y-80141007D01*
X158869136Y-80141012D01*
X158869141Y-80141016D01*
X158869151Y-80141025D01*
X159142596Y-80365435D01*
X159436738Y-80561974D01*
X159436741Y-80561976D01*
X159748731Y-80728739D01*
X160075565Y-80864118D01*
X160414095Y-80966809D01*
X160761060Y-81035825D01*
X161113119Y-81070500D01*
X161113128Y-81070500D01*
X161466872Y-81070500D01*
X161466881Y-81070500D01*
X161818940Y-81035825D01*
X162165905Y-80966809D01*
X162504435Y-80864118D01*
X162831269Y-80728739D01*
X163143259Y-80561976D01*
X163437402Y-80365436D01*
X163710864Y-80141012D01*
X163961012Y-79890864D01*
X164185436Y-79617402D01*
X164381976Y-79323259D01*
X164548739Y-79011269D01*
X164684118Y-78684435D01*
X164786809Y-78345905D01*
X164850421Y-78026105D01*
X164883328Y-77963196D01*
X164945023Y-77928064D01*
X165015918Y-77931864D01*
X165073504Y-77973390D01*
X165099498Y-78039456D01*
X165100000Y-78050687D01*
X165100000Y-125149312D01*
X165079998Y-125217433D01*
X165026342Y-125263926D01*
X164956068Y-125274030D01*
X164891488Y-125244536D01*
X164853104Y-125184810D01*
X164850421Y-125173893D01*
X164786811Y-124854105D01*
X164786810Y-124854104D01*
X164786809Y-124854095D01*
X164684118Y-124515565D01*
X164548739Y-124188731D01*
X164381976Y-123876741D01*
X164202001Y-123607389D01*
X164185435Y-123582596D01*
X163961025Y-123309151D01*
X163960999Y-123309122D01*
X163710877Y-123059000D01*
X163710848Y-123058974D01*
X163437403Y-122834564D01*
X163143261Y-122638025D01*
X162831269Y-122471261D01*
X162504439Y-122335883D01*
X162504430Y-122335880D01*
X162304923Y-122275361D01*
X162165905Y-122233191D01*
X162165901Y-122233190D01*
X162165894Y-122233188D01*
X161818945Y-122164176D01*
X161818940Y-122164175D01*
X161818933Y-122164174D01*
X161818924Y-122164173D01*
X161466887Y-122129500D01*
X161466881Y-122129500D01*
X161113119Y-122129500D01*
X161113112Y-122129500D01*
X160761075Y-122164173D01*
X160761063Y-122164174D01*
X160761060Y-122164175D01*
X160761057Y-122164175D01*
X160761054Y-122164176D01*
X160414105Y-122233188D01*
X160075569Y-122335880D01*
X160075560Y-122335883D01*
X159748730Y-122471261D01*
X159436738Y-122638025D01*
X159142596Y-122834564D01*
X158869151Y-123058974D01*
X158869122Y-123059000D01*
X158619000Y-123309122D01*
X158618974Y-123309151D01*
X158394564Y-123582596D01*
X158198025Y-123876738D01*
X158031261Y-124188730D01*
X157895883Y-124515560D01*
X157895880Y-124515569D01*
X157793188Y-124854105D01*
X157724176Y-125201054D01*
X157724173Y-125201075D01*
X157689500Y-125553112D01*
X157689500Y-125906887D01*
X157724173Y-126258924D01*
X157724176Y-126258945D01*
X157793188Y-126605894D01*
X157793190Y-126605901D01*
X157793191Y-126605905D01*
X157807190Y-126652053D01*
X157895880Y-126944430D01*
X157895883Y-126944439D01*
X158031261Y-127271269D01*
X158198025Y-127583261D01*
X158394564Y-127877403D01*
X158618974Y-128150848D01*
X158619000Y-128150877D01*
X158869122Y-128400999D01*
X158869131Y-128401007D01*
X158869136Y-128401012D01*
X158869141Y-128401016D01*
X158869151Y-128401025D01*
X159142596Y-128625435D01*
X159436738Y-128821974D01*
X159436741Y-128821976D01*
X159748731Y-128988739D01*
X159993197Y-129090000D01*
X160067233Y-129120667D01*
X160075565Y-129124118D01*
X160414095Y-129226809D01*
X160761060Y-129295825D01*
X161113119Y-129330500D01*
X161113128Y-129330500D01*
X161466872Y-129330500D01*
X161466881Y-129330500D01*
X161818940Y-129295825D01*
X162165905Y-129226809D01*
X162504435Y-129124118D01*
X162831269Y-128988739D01*
X163143259Y-128821976D01*
X163437402Y-128625436D01*
X163710864Y-128401012D01*
X163961012Y-128150864D01*
X164185436Y-127877402D01*
X164381976Y-127583259D01*
X164548739Y-127271269D01*
X164684118Y-126944435D01*
X164786809Y-126605905D01*
X164850421Y-126286105D01*
X164883328Y-126223196D01*
X164945023Y-126188064D01*
X165015918Y-126191864D01*
X165073504Y-126233390D01*
X165099498Y-126299456D01*
X165100000Y-126310687D01*
X165100000Y-142114000D01*
X165079998Y-142182121D01*
X165026342Y-142228614D01*
X164974000Y-142240000D01*
X137286000Y-142240000D01*
X137217879Y-142219998D01*
X137171386Y-142166342D01*
X137160000Y-142114000D01*
X137160000Y-135310000D01*
X149721210Y-135310000D01*
X149740334Y-135528590D01*
X149797123Y-135740529D01*
X149797125Y-135740534D01*
X149889857Y-135939398D01*
X149931671Y-135999115D01*
X149931672Y-135999115D01*
X150455016Y-135475771D01*
X150467482Y-135522292D01*
X150539890Y-135647708D01*
X150642292Y-135750110D01*
X150767708Y-135822518D01*
X150814226Y-135834982D01*
X150290883Y-136358325D01*
X150290883Y-136358327D01*
X150350600Y-136400141D01*
X150350605Y-136400144D01*
X150549465Y-136492874D01*
X150549470Y-136492876D01*
X150761409Y-136549665D01*
X150980000Y-136568789D01*
X151198590Y-136549665D01*
X151410529Y-136492876D01*
X151410534Y-136492874D01*
X151609391Y-136400145D01*
X151669115Y-136358325D01*
X151669115Y-136358324D01*
X151145773Y-135834982D01*
X151192292Y-135822518D01*
X151317708Y-135750110D01*
X151420110Y-135647708D01*
X151492518Y-135522292D01*
X151504982Y-135475773D01*
X152028324Y-135999115D01*
X152028325Y-135999115D01*
X152070145Y-135939391D01*
X152162874Y-135740534D01*
X152162876Y-135740529D01*
X152219665Y-135528590D01*
X152238789Y-135310000D01*
X156221210Y-135310000D01*
X156240334Y-135528590D01*
X156297123Y-135740529D01*
X156297125Y-135740534D01*
X156389857Y-135939398D01*
X156431671Y-135999115D01*
X156431672Y-135999115D01*
X156955016Y-135475771D01*
X156967482Y-135522292D01*
X157039890Y-135647708D01*
X157142292Y-135750110D01*
X157267708Y-135822518D01*
X157314226Y-135834982D01*
X156790883Y-136358325D01*
X156790883Y-136358327D01*
X156850600Y-136400141D01*
X156850605Y-136400144D01*
X157049465Y-136492874D01*
X157049470Y-136492876D01*
X157261409Y-136549665D01*
X157480000Y-136568789D01*
X157698590Y-136549665D01*
X157910529Y-136492876D01*
X157910534Y-136492874D01*
X158109391Y-136400145D01*
X158169115Y-136358325D01*
X158169115Y-136358324D01*
X157645773Y-135834982D01*
X157692292Y-135822518D01*
X157817708Y-135750110D01*
X157920110Y-135647708D01*
X157992518Y-135522292D01*
X158004982Y-135475773D01*
X158528324Y-135999115D01*
X158528325Y-135999115D01*
X158570145Y-135939391D01*
X158662874Y-135740534D01*
X158662876Y-135740529D01*
X158719665Y-135528590D01*
X158738789Y-135310000D01*
X158719665Y-135091409D01*
X158662876Y-134879470D01*
X158662874Y-134879465D01*
X158570144Y-134680605D01*
X158570141Y-134680600D01*
X158528327Y-134620883D01*
X158528325Y-134620883D01*
X158004982Y-135144226D01*
X157992518Y-135097708D01*
X157920110Y-134972292D01*
X157817708Y-134869890D01*
X157692292Y-134797482D01*
X157645772Y-134785016D01*
X158169115Y-134261672D01*
X158169115Y-134261671D01*
X158109398Y-134219857D01*
X158109399Y-134219857D01*
X157910534Y-134127125D01*
X157910529Y-134127123D01*
X157698590Y-134070334D01*
X157480000Y-134051210D01*
X157261409Y-134070334D01*
X157049470Y-134127123D01*
X157049465Y-134127125D01*
X156850605Y-134219855D01*
X156790882Y-134261673D01*
X157314226Y-134785017D01*
X157267708Y-134797482D01*
X157142292Y-134869890D01*
X157039890Y-134972292D01*
X156967482Y-135097708D01*
X156955017Y-135144226D01*
X156431673Y-134620882D01*
X156389855Y-134680605D01*
X156297125Y-134879465D01*
X156297123Y-134879470D01*
X156240334Y-135091409D01*
X156221210Y-135310000D01*
X152238789Y-135310000D01*
X152219665Y-135091409D01*
X152162876Y-134879470D01*
X152162874Y-134879465D01*
X152070144Y-134680605D01*
X152070141Y-134680600D01*
X152028327Y-134620883D01*
X152028325Y-134620883D01*
X151504982Y-135144226D01*
X151492518Y-135097708D01*
X151420110Y-134972292D01*
X151317708Y-134869890D01*
X151192292Y-134797482D01*
X151145772Y-134785016D01*
X151669115Y-134261672D01*
X151669115Y-134261671D01*
X151609398Y-134219857D01*
X151609399Y-134219857D01*
X151410534Y-134127125D01*
X151410529Y-134127123D01*
X151198590Y-134070334D01*
X150980000Y-134051210D01*
X150761409Y-134070334D01*
X150549470Y-134127123D01*
X150549465Y-134127125D01*
X150350605Y-134219855D01*
X150290882Y-134261673D01*
X150814226Y-134785017D01*
X150767708Y-134797482D01*
X150642292Y-134869890D01*
X150539890Y-134972292D01*
X150467482Y-135097708D01*
X150455017Y-135144226D01*
X149931673Y-134620882D01*
X149889855Y-134680605D01*
X149797125Y-134879465D01*
X149797123Y-134879470D01*
X149740334Y-135091409D01*
X149721210Y-135310000D01*
X137160000Y-135310000D01*
X137160000Y-133350000D01*
X102676000Y-133350000D01*
X102607879Y-133329998D01*
X102561386Y-133276342D01*
X102550000Y-133224000D01*
X102550000Y-128698112D01*
X108049500Y-128698112D01*
X108049500Y-129051887D01*
X108084173Y-129403924D01*
X108084176Y-129403945D01*
X108153188Y-129750894D01*
X108153190Y-129750901D01*
X108153191Y-129750905D01*
X108181343Y-129843710D01*
X108255880Y-130089430D01*
X108255883Y-130089439D01*
X108391261Y-130416269D01*
X108558025Y-130728261D01*
X108754564Y-131022403D01*
X108978974Y-131295848D01*
X108979000Y-131295877D01*
X109229122Y-131545999D01*
X109229131Y-131546007D01*
X109229136Y-131546012D01*
X109229141Y-131546016D01*
X109229151Y-131546025D01*
X109502596Y-131770435D01*
X109561880Y-131810047D01*
X109796741Y-131966976D01*
X110108731Y-132133739D01*
X110435565Y-132269118D01*
X110774095Y-132371809D01*
X111121060Y-132440825D01*
X111473119Y-132475500D01*
X111473128Y-132475500D01*
X111826872Y-132475500D01*
X111826881Y-132475500D01*
X112178940Y-132440825D01*
X112525905Y-132371809D01*
X112864435Y-132269118D01*
X113191269Y-132133739D01*
X113503259Y-131966976D01*
X113797402Y-131770436D01*
X114070864Y-131546012D01*
X114321012Y-131295864D01*
X114545436Y-131022402D01*
X114687358Y-130810000D01*
X149674532Y-130810000D01*
X149694365Y-131036695D01*
X149753260Y-131256493D01*
X149753262Y-131256498D01*
X149849433Y-131462737D01*
X149979948Y-131649134D01*
X149979957Y-131649144D01*
X150140855Y-131810042D01*
X150140865Y-131810051D01*
X150327262Y-131940566D01*
X150327261Y-131940566D01*
X150383893Y-131966974D01*
X150533504Y-132036739D01*
X150753308Y-132095635D01*
X150980000Y-132115468D01*
X151206692Y-132095635D01*
X151426496Y-132036739D01*
X151632734Y-131940568D01*
X151632737Y-131940566D01*
X151819134Y-131810051D01*
X151819136Y-131810048D01*
X151819139Y-131810047D01*
X151980047Y-131649139D01*
X152110568Y-131462734D01*
X152206739Y-131256496D01*
X152265635Y-131036692D01*
X152285468Y-130810000D01*
X156174532Y-130810000D01*
X156194365Y-131036695D01*
X156253260Y-131256493D01*
X156253262Y-131256498D01*
X156349433Y-131462737D01*
X156479948Y-131649134D01*
X156479957Y-131649144D01*
X156640855Y-131810042D01*
X156640865Y-131810051D01*
X156827262Y-131940566D01*
X156827261Y-131940566D01*
X156883893Y-131966974D01*
X157033504Y-132036739D01*
X157253308Y-132095635D01*
X157480000Y-132115468D01*
X157706692Y-132095635D01*
X157926496Y-132036739D01*
X158132734Y-131940568D01*
X158132737Y-131940566D01*
X158319134Y-131810051D01*
X158319136Y-131810048D01*
X158319139Y-131810047D01*
X158480047Y-131649139D01*
X158610568Y-131462734D01*
X158706739Y-131256496D01*
X158765635Y-131036692D01*
X158785468Y-130810000D01*
X158765635Y-130583308D01*
X158706739Y-130363504D01*
X158610568Y-130157266D01*
X158610567Y-130157265D01*
X158610566Y-130157262D01*
X158480051Y-129970865D01*
X158480042Y-129970855D01*
X158319144Y-129809957D01*
X158319134Y-129809948D01*
X158132737Y-129679433D01*
X158132738Y-129679433D01*
X157926498Y-129583262D01*
X157926493Y-129583260D01*
X157706695Y-129524365D01*
X157480000Y-129504532D01*
X157253304Y-129524365D01*
X157033506Y-129583260D01*
X157033501Y-129583262D01*
X156827262Y-129679433D01*
X156640865Y-129809948D01*
X156640855Y-129809957D01*
X156479957Y-129970855D01*
X156479948Y-129970865D01*
X156349433Y-130157262D01*
X156253262Y-130363501D01*
X156253260Y-130363506D01*
X156194365Y-130583304D01*
X156174532Y-130810000D01*
X152285468Y-130810000D01*
X152265635Y-130583308D01*
X152206739Y-130363504D01*
X152110568Y-130157266D01*
X152110567Y-130157265D01*
X152110566Y-130157262D01*
X151980051Y-129970865D01*
X151980042Y-129970855D01*
X151819144Y-129809957D01*
X151819134Y-129809948D01*
X151632737Y-129679433D01*
X151632738Y-129679433D01*
X151426498Y-129583262D01*
X151426493Y-129583260D01*
X151206695Y-129524365D01*
X150980000Y-129504532D01*
X150753304Y-129524365D01*
X150533506Y-129583260D01*
X150533501Y-129583262D01*
X150327262Y-129679433D01*
X150140865Y-129809948D01*
X150140855Y-129809957D01*
X149979957Y-129970855D01*
X149979948Y-129970865D01*
X149849433Y-130157262D01*
X149753262Y-130363501D01*
X149753260Y-130363506D01*
X149694365Y-130583304D01*
X149674532Y-130810000D01*
X114687358Y-130810000D01*
X114741976Y-130728259D01*
X114908739Y-130416269D01*
X115044118Y-130089435D01*
X115146809Y-129750905D01*
X115188761Y-129540000D01*
X118174357Y-129540000D01*
X118194885Y-129761539D01*
X118255768Y-129975520D01*
X118255774Y-129975537D01*
X118354938Y-130174684D01*
X118354942Y-130174689D01*
X118489017Y-130352235D01*
X118653438Y-130502124D01*
X118653439Y-130502125D01*
X118842587Y-130619240D01*
X118842590Y-130619241D01*
X118842599Y-130619247D01*
X118932989Y-130654264D01*
X119050053Y-130699616D01*
X119050056Y-130699616D01*
X119050060Y-130699618D01*
X119268757Y-130740500D01*
X119268760Y-130740500D01*
X119491240Y-130740500D01*
X119491243Y-130740500D01*
X119709940Y-130699618D01*
X119709944Y-130699616D01*
X119709946Y-130699616D01*
X119763298Y-130678946D01*
X119917401Y-130619247D01*
X120106562Y-130502124D01*
X120270981Y-130352236D01*
X120405058Y-130174689D01*
X120405059Y-130174685D01*
X120405061Y-130174684D01*
X120504225Y-129975537D01*
X120504225Y-129975534D01*
X120504229Y-129975528D01*
X120518810Y-129924278D01*
X120556689Y-129864233D01*
X120621019Y-129834198D01*
X120691376Y-129843710D01*
X120745421Y-129889749D01*
X120765996Y-129957699D01*
X120766000Y-129958760D01*
X120766000Y-130465013D01*
X120766001Y-130465022D01*
X120780737Y-130539105D01*
X120780737Y-130539107D01*
X120836875Y-130623124D01*
X120920893Y-130679262D01*
X120920894Y-130679263D01*
X120994980Y-130693999D01*
X121666000Y-130693999D01*
X121666000Y-129912968D01*
X121746306Y-129959333D01*
X121860756Y-129990000D01*
X121979244Y-129990000D01*
X122093694Y-129959333D01*
X122174000Y-129912968D01*
X122174000Y-130693999D01*
X122845014Y-130693999D01*
X122845022Y-130693998D01*
X122919105Y-130679262D01*
X122919107Y-130679262D01*
X123003124Y-130623124D01*
X123059262Y-130539106D01*
X123059263Y-130539105D01*
X123073999Y-130465022D01*
X123074000Y-130465015D01*
X123074000Y-129794000D01*
X122292968Y-129794000D01*
X122339333Y-129713694D01*
X122370000Y-129599244D01*
X122370000Y-129480756D01*
X122339333Y-129366306D01*
X122292968Y-129286000D01*
X123073999Y-129286000D01*
X123073999Y-128614986D01*
X123073998Y-128614977D01*
X123059262Y-128540894D01*
X123059262Y-128540892D01*
X123003124Y-128456875D01*
X122919106Y-128400737D01*
X122919105Y-128400736D01*
X122845022Y-128386000D01*
X122174000Y-128386000D01*
X122174000Y-129167031D01*
X122093694Y-129120667D01*
X121979244Y-129090000D01*
X121860756Y-129090000D01*
X121746306Y-129120667D01*
X121666000Y-129167031D01*
X121666000Y-128386000D01*
X120994986Y-128386000D01*
X120994976Y-128386001D01*
X120920894Y-128400737D01*
X120920892Y-128400737D01*
X120836875Y-128456875D01*
X120780737Y-128540893D01*
X120780736Y-128540894D01*
X120766000Y-128614977D01*
X120766000Y-129121237D01*
X120745998Y-129189358D01*
X120692342Y-129235851D01*
X120622068Y-129245955D01*
X120557488Y-129216461D01*
X120519104Y-129156735D01*
X120518810Y-129155718D01*
X120504231Y-129104479D01*
X120504225Y-129104462D01*
X120405061Y-128905315D01*
X120405057Y-128905310D01*
X120270982Y-128727764D01*
X120106561Y-128577875D01*
X120106560Y-128577874D01*
X119917412Y-128460759D01*
X119917405Y-128460755D01*
X119917401Y-128460753D01*
X119907391Y-128456875D01*
X119709946Y-128380383D01*
X119670972Y-128373097D01*
X119491243Y-128339500D01*
X119268757Y-128339500D01*
X119127674Y-128365873D01*
X119050053Y-128380383D01*
X118842603Y-128460751D01*
X118842587Y-128460759D01*
X118653439Y-128577874D01*
X118653438Y-128577875D01*
X118489017Y-128727764D01*
X118354942Y-128905310D01*
X118354938Y-128905315D01*
X118255774Y-129104462D01*
X118255768Y-129104479D01*
X118194885Y-129318460D01*
X118174357Y-129540000D01*
X115188761Y-129540000D01*
X115215825Y-129403940D01*
X115250500Y-129051881D01*
X115250500Y-128698119D01*
X115215825Y-128346060D01*
X115146809Y-127999095D01*
X115044118Y-127660565D01*
X114908739Y-127333731D01*
X114741976Y-127021741D01*
X114741974Y-127021738D01*
X114545435Y-126727596D01*
X114321025Y-126454151D01*
X114320999Y-126454122D01*
X114070877Y-126204000D01*
X114070848Y-126203974D01*
X113797403Y-125979564D01*
X113503261Y-125783025D01*
X113191269Y-125616261D01*
X112864439Y-125480883D01*
X112864430Y-125480880D01*
X112584330Y-125395914D01*
X112525905Y-125378191D01*
X112525901Y-125378190D01*
X112525894Y-125378188D01*
X112178945Y-125309176D01*
X112178940Y-125309175D01*
X112178933Y-125309174D01*
X112178924Y-125309173D01*
X111826887Y-125274500D01*
X111826881Y-125274500D01*
X111473119Y-125274500D01*
X111473112Y-125274500D01*
X111121075Y-125309173D01*
X111121063Y-125309174D01*
X111121060Y-125309175D01*
X111121057Y-125309175D01*
X111121054Y-125309176D01*
X110774105Y-125378188D01*
X110435569Y-125480880D01*
X110435560Y-125480883D01*
X110108730Y-125616261D01*
X109796738Y-125783025D01*
X109502596Y-125979564D01*
X109229151Y-126203974D01*
X109229122Y-126204000D01*
X108979000Y-126454122D01*
X108978974Y-126454151D01*
X108754564Y-126727596D01*
X108558025Y-127021738D01*
X108391261Y-127333730D01*
X108255883Y-127660560D01*
X108255880Y-127660569D01*
X108153188Y-127999105D01*
X108084176Y-128346054D01*
X108084173Y-128346075D01*
X108049500Y-128698112D01*
X102550000Y-128698112D01*
X102550000Y-123190000D01*
X130924571Y-123190000D01*
X130944244Y-123402311D01*
X131002593Y-123607384D01*
X131002594Y-123607386D01*
X131002595Y-123607389D01*
X131097634Y-123798255D01*
X131226128Y-123968407D01*
X131226129Y-123968408D01*
X131383699Y-124112053D01*
X131383701Y-124112054D01*
X131564974Y-124224294D01*
X131564975Y-124224294D01*
X131564981Y-124224298D01*
X131763802Y-124301321D01*
X131950097Y-124336145D01*
X132013381Y-124368324D01*
X132049223Y-124429609D01*
X132046242Y-124500543D01*
X132005384Y-124558605D01*
X131950098Y-124583854D01*
X131837350Y-124604930D01*
X131763800Y-124618679D01*
X131609754Y-124678356D01*
X131564981Y-124695702D01*
X131564980Y-124695702D01*
X131564979Y-124695703D01*
X131564974Y-124695705D01*
X131383701Y-124807945D01*
X131383699Y-124807946D01*
X131226129Y-124951591D01*
X131139293Y-125066580D01*
X131097634Y-125121745D01*
X131058133Y-125201075D01*
X131002593Y-125312615D01*
X130944244Y-125517688D01*
X130924571Y-125730000D01*
X130944244Y-125942311D01*
X131002593Y-126147384D01*
X131002594Y-126147386D01*
X131002595Y-126147389D01*
X131097634Y-126338255D01*
X131226128Y-126508407D01*
X131226129Y-126508408D01*
X131383699Y-126652053D01*
X131383701Y-126652054D01*
X131564974Y-126764294D01*
X131564975Y-126764294D01*
X131564981Y-126764298D01*
X131763802Y-126841321D01*
X131973390Y-126880500D01*
X131973393Y-126880500D01*
X132186607Y-126880500D01*
X132186610Y-126880500D01*
X132396198Y-126841321D01*
X132595019Y-126764298D01*
X132776302Y-126652052D01*
X132933872Y-126508407D01*
X133062366Y-126338255D01*
X133157405Y-126147389D01*
X133215756Y-125942310D01*
X133235429Y-125730000D01*
X133215756Y-125517690D01*
X133210723Y-125500000D01*
X137274571Y-125500000D01*
X137294244Y-125712311D01*
X137352593Y-125917384D01*
X137352594Y-125917386D01*
X137352595Y-125917389D01*
X137447634Y-126108255D01*
X137561415Y-126258924D01*
X137576129Y-126278408D01*
X137733699Y-126422053D01*
X137733701Y-126422054D01*
X137914974Y-126534294D01*
X137914975Y-126534294D01*
X137914981Y-126534298D01*
X138113802Y-126611321D01*
X138323390Y-126650500D01*
X138323393Y-126650500D01*
X138536607Y-126650500D01*
X138536610Y-126650500D01*
X138746198Y-126611321D01*
X138945019Y-126534298D01*
X139126302Y-126422052D01*
X139283872Y-126278407D01*
X139412366Y-126108255D01*
X139507405Y-125917389D01*
X139565756Y-125712310D01*
X139568038Y-125687679D01*
X139594238Y-125621698D01*
X139651953Y-125580353D01*
X139722860Y-125576774D01*
X139784445Y-125612099D01*
X139817155Y-125675111D01*
X139819500Y-125699306D01*
X139819500Y-126394859D01*
X139819501Y-126394866D01*
X139822414Y-126419990D01*
X139822416Y-126419994D01*
X139867793Y-126522765D01*
X139947232Y-126602204D01*
X139947234Y-126602205D01*
X139947235Y-126602206D01*
X140050009Y-126647585D01*
X140075135Y-126650500D01*
X141864864Y-126650499D01*
X141889991Y-126647585D01*
X141992765Y-126602206D01*
X142072206Y-126522765D01*
X142117585Y-126419991D01*
X142120500Y-126394865D01*
X142120499Y-125699306D01*
X142140501Y-125631188D01*
X142194157Y-125584695D01*
X142264430Y-125574591D01*
X142329011Y-125604084D01*
X142367395Y-125663811D01*
X142371961Y-125687681D01*
X142374243Y-125712307D01*
X142432593Y-125917384D01*
X142432594Y-125917386D01*
X142432595Y-125917389D01*
X142527634Y-126108255D01*
X142641415Y-126258924D01*
X142656129Y-126278408D01*
X142813699Y-126422053D01*
X142813701Y-126422054D01*
X142994974Y-126534294D01*
X142994975Y-126534294D01*
X142994981Y-126534298D01*
X143193802Y-126611321D01*
X143403390Y-126650500D01*
X143403393Y-126650500D01*
X143616607Y-126650500D01*
X143616610Y-126650500D01*
X143826198Y-126611321D01*
X144025019Y-126534298D01*
X144206302Y-126422052D01*
X144363872Y-126278407D01*
X144492366Y-126108255D01*
X144587405Y-125917389D01*
X144645756Y-125712310D01*
X144665429Y-125500000D01*
X144645756Y-125287690D01*
X144587405Y-125082611D01*
X144492366Y-124891745D01*
X144363872Y-124721593D01*
X144335475Y-124695705D01*
X144206300Y-124577946D01*
X144206298Y-124577945D01*
X144025025Y-124465705D01*
X144025021Y-124465703D01*
X144025019Y-124465702D01*
X143903222Y-124418517D01*
X143826199Y-124388679D01*
X143773801Y-124378884D01*
X143616610Y-124349500D01*
X143403390Y-124349500D01*
X143277637Y-124373007D01*
X143193800Y-124388679D01*
X143039754Y-124448356D01*
X142994981Y-124465702D01*
X142994980Y-124465702D01*
X142994979Y-124465703D01*
X142994974Y-124465705D01*
X142813701Y-124577945D01*
X142813699Y-124577946D01*
X142656129Y-124721591D01*
X142590917Y-124807945D01*
X142527634Y-124891745D01*
X142497835Y-124951591D01*
X142432593Y-125082615D01*
X142374243Y-125287693D01*
X142371961Y-125312320D01*
X142345759Y-125378305D01*
X142288041Y-125419648D01*
X142217135Y-125423224D01*
X142155551Y-125387897D01*
X142122843Y-125324884D01*
X142120499Y-125300693D01*
X142120499Y-124605140D01*
X142120499Y-124605136D01*
X142117585Y-124580009D01*
X142089128Y-124515560D01*
X142072206Y-124477234D01*
X141992767Y-124397795D01*
X141992765Y-124397794D01*
X141889989Y-124352414D01*
X141889990Y-124352414D01*
X141864868Y-124349500D01*
X140075140Y-124349500D01*
X140075133Y-124349501D01*
X140050009Y-124352414D01*
X140050005Y-124352416D01*
X139947234Y-124397793D01*
X139867795Y-124477232D01*
X139867794Y-124477234D01*
X139822414Y-124580009D01*
X139819500Y-124605129D01*
X139819500Y-125300690D01*
X139799498Y-125368811D01*
X139745842Y-125415304D01*
X139675568Y-125425408D01*
X139610988Y-125395914D01*
X139572604Y-125336188D01*
X139568038Y-125312320D01*
X139565756Y-125287690D01*
X139507405Y-125082611D01*
X139412366Y-124891745D01*
X139283872Y-124721593D01*
X139255475Y-124695705D01*
X139126300Y-124577946D01*
X139126298Y-124577945D01*
X138945025Y-124465705D01*
X138945021Y-124465703D01*
X138945019Y-124465702D01*
X138823222Y-124418517D01*
X138746199Y-124388679D01*
X138693801Y-124378884D01*
X138536610Y-124349500D01*
X138323390Y-124349500D01*
X138197637Y-124373007D01*
X138113800Y-124388679D01*
X137959754Y-124448356D01*
X137914981Y-124465702D01*
X137914980Y-124465702D01*
X137914979Y-124465703D01*
X137914974Y-124465705D01*
X137733701Y-124577945D01*
X137733699Y-124577946D01*
X137576129Y-124721591D01*
X137510917Y-124807945D01*
X137447634Y-124891745D01*
X137417835Y-124951591D01*
X137352593Y-125082615D01*
X137294244Y-125287688D01*
X137274571Y-125500000D01*
X133210723Y-125500000D01*
X133157405Y-125312611D01*
X133062366Y-125121745D01*
X132933872Y-124951593D01*
X132868223Y-124891745D01*
X132776300Y-124807946D01*
X132776298Y-124807945D01*
X132595025Y-124695705D01*
X132595021Y-124695703D01*
X132595019Y-124695702D01*
X132396198Y-124618679D01*
X132209902Y-124583854D01*
X132146618Y-124551676D01*
X132110776Y-124490391D01*
X132113757Y-124419457D01*
X132154615Y-124361395D01*
X132209901Y-124336145D01*
X132396198Y-124301321D01*
X132595019Y-124224298D01*
X132776302Y-124112052D01*
X132933872Y-123968407D01*
X133062366Y-123798255D01*
X133157405Y-123607389D01*
X133215756Y-123402310D01*
X133235429Y-123190000D01*
X133215756Y-122977690D01*
X133157405Y-122772611D01*
X133062366Y-122581745D01*
X132933872Y-122411593D01*
X132850820Y-122335880D01*
X132776300Y-122267946D01*
X132776298Y-122267945D01*
X132595025Y-122155705D01*
X132595021Y-122155703D01*
X132595019Y-122155702D01*
X132473222Y-122108517D01*
X132396199Y-122078679D01*
X132343801Y-122068884D01*
X132186610Y-122039500D01*
X131973390Y-122039500D01*
X131847637Y-122063007D01*
X131763800Y-122078679D01*
X131609754Y-122138356D01*
X131564981Y-122155702D01*
X131564980Y-122155702D01*
X131564979Y-122155703D01*
X131564974Y-122155705D01*
X131383701Y-122267945D01*
X131383699Y-122267946D01*
X131226129Y-122411591D01*
X131139293Y-122526580D01*
X131097634Y-122581745D01*
X131026006Y-122725595D01*
X131002593Y-122772615D01*
X130944244Y-122977688D01*
X130924571Y-123190000D01*
X102550000Y-123190000D01*
X102550000Y-109220000D01*
X105524571Y-109220000D01*
X105544244Y-109432311D01*
X105602593Y-109637384D01*
X105602594Y-109637386D01*
X105602595Y-109637389D01*
X105697634Y-109828255D01*
X105826128Y-109998407D01*
X105826129Y-109998408D01*
X105983699Y-110142053D01*
X105983701Y-110142054D01*
X106164974Y-110254294D01*
X106164975Y-110254294D01*
X106164981Y-110254298D01*
X106363802Y-110331321D01*
X106550097Y-110366145D01*
X106613381Y-110398324D01*
X106649223Y-110459609D01*
X106646242Y-110530543D01*
X106605384Y-110588605D01*
X106550098Y-110613854D01*
X106437350Y-110634930D01*
X106363800Y-110648679D01*
X106209754Y-110708356D01*
X106164981Y-110725702D01*
X106164980Y-110725702D01*
X106164979Y-110725703D01*
X106164974Y-110725705D01*
X105983701Y-110837945D01*
X105983699Y-110837946D01*
X105826129Y-110981591D01*
X105739293Y-111096580D01*
X105697634Y-111151745D01*
X105637560Y-111272392D01*
X105602593Y-111342615D01*
X105544244Y-111547688D01*
X105524571Y-111760000D01*
X105544244Y-111972311D01*
X105602593Y-112177384D01*
X105602594Y-112177386D01*
X105602595Y-112177389D01*
X105697634Y-112368255D01*
X105761102Y-112452299D01*
X105826129Y-112538408D01*
X105983699Y-112682053D01*
X105983701Y-112682054D01*
X106164974Y-112794294D01*
X106164975Y-112794294D01*
X106164981Y-112794298D01*
X106363802Y-112871321D01*
X106550097Y-112906145D01*
X106613381Y-112938324D01*
X106649223Y-112999609D01*
X106646242Y-113070543D01*
X106605384Y-113128605D01*
X106550098Y-113153854D01*
X106437350Y-113174930D01*
X106363800Y-113188679D01*
X106209754Y-113248356D01*
X106164981Y-113265702D01*
X106164980Y-113265702D01*
X106164979Y-113265703D01*
X106164974Y-113265705D01*
X105983701Y-113377945D01*
X105983699Y-113377946D01*
X105826129Y-113521591D01*
X105754876Y-113615945D01*
X105697634Y-113691745D01*
X105637560Y-113812392D01*
X105602593Y-113882615D01*
X105544244Y-114087688D01*
X105524571Y-114300000D01*
X105544244Y-114512311D01*
X105602593Y-114717384D01*
X105602594Y-114717386D01*
X105602595Y-114717389D01*
X105697634Y-114908255D01*
X105826128Y-115078407D01*
X105826129Y-115078408D01*
X105983699Y-115222053D01*
X105983701Y-115222054D01*
X106164974Y-115334294D01*
X106164975Y-115334294D01*
X106164981Y-115334298D01*
X106363802Y-115411321D01*
X106550097Y-115446145D01*
X106613381Y-115478324D01*
X106649223Y-115539609D01*
X106646242Y-115610543D01*
X106605384Y-115668605D01*
X106550098Y-115693854D01*
X106437350Y-115714930D01*
X106363800Y-115728679D01*
X106209754Y-115788356D01*
X106164981Y-115805702D01*
X106164980Y-115805702D01*
X106164979Y-115805703D01*
X106164974Y-115805705D01*
X105983701Y-115917945D01*
X105983699Y-115917946D01*
X105826129Y-116061591D01*
X105807394Y-116086400D01*
X105697634Y-116231745D01*
X105637560Y-116352392D01*
X105602593Y-116422615D01*
X105544244Y-116627688D01*
X105524571Y-116840000D01*
X105544244Y-117052311D01*
X105602593Y-117257384D01*
X105602594Y-117257386D01*
X105602595Y-117257389D01*
X105697634Y-117448255D01*
X105825676Y-117617808D01*
X105826129Y-117618408D01*
X105983699Y-117762053D01*
X105983701Y-117762054D01*
X106164974Y-117874294D01*
X106164975Y-117874294D01*
X106164981Y-117874298D01*
X106363802Y-117951321D01*
X106550097Y-117986145D01*
X106613381Y-118018324D01*
X106649223Y-118079609D01*
X106646242Y-118150543D01*
X106605384Y-118208605D01*
X106550098Y-118233854D01*
X106437350Y-118254930D01*
X106363800Y-118268679D01*
X106209754Y-118328356D01*
X106164981Y-118345702D01*
X106164980Y-118345702D01*
X106164979Y-118345703D01*
X106164974Y-118345705D01*
X105983701Y-118457945D01*
X105983699Y-118457946D01*
X105826129Y-118601591D01*
X105777477Y-118666017D01*
X105697634Y-118771745D01*
X105626763Y-118914075D01*
X105602593Y-118962615D01*
X105544244Y-119167688D01*
X105524571Y-119380000D01*
X105544244Y-119592311D01*
X105602593Y-119797384D01*
X105602594Y-119797386D01*
X105602595Y-119797389D01*
X105697634Y-119988255D01*
X105802370Y-120126946D01*
X105826129Y-120158408D01*
X105983699Y-120302053D01*
X105983701Y-120302054D01*
X106164974Y-120414294D01*
X106164975Y-120414294D01*
X106164981Y-120414298D01*
X106363802Y-120491321D01*
X106515328Y-120519646D01*
X106578612Y-120551824D01*
X106614454Y-120613109D01*
X106611473Y-120684043D01*
X106570616Y-120742105D01*
X106504854Y-120768860D01*
X106492174Y-120769500D01*
X105785140Y-120769500D01*
X105785133Y-120769501D01*
X105760009Y-120772414D01*
X105760005Y-120772416D01*
X105657234Y-120817793D01*
X105577795Y-120897232D01*
X105577794Y-120897234D01*
X105532414Y-121000009D01*
X105529500Y-121025129D01*
X105529500Y-122814859D01*
X105529501Y-122814866D01*
X105532414Y-122839990D01*
X105532416Y-122839994D01*
X105577793Y-122942765D01*
X105657232Y-123022204D01*
X105657234Y-123022205D01*
X105657235Y-123022206D01*
X105760009Y-123067585D01*
X105785135Y-123070500D01*
X107574864Y-123070499D01*
X107599991Y-123067585D01*
X107702765Y-123022206D01*
X107782206Y-122942765D01*
X107827585Y-122839991D01*
X107830500Y-122814865D01*
X107830500Y-122473500D01*
X107850502Y-122405379D01*
X107904158Y-122358886D01*
X107956500Y-122347500D01*
X108945454Y-122347500D01*
X108945456Y-122347500D01*
X109054184Y-122318367D01*
X109151666Y-122262085D01*
X110759627Y-120654124D01*
X126755174Y-120654124D01*
X126773992Y-120857208D01*
X126829805Y-121053369D01*
X126829806Y-121053371D01*
X126829807Y-121053374D01*
X126920716Y-121235945D01*
X126920717Y-121235946D01*
X126920718Y-121235948D01*
X127043623Y-121398702D01*
X127194348Y-121536105D01*
X127194349Y-121536106D01*
X127367740Y-121643465D01*
X127367743Y-121643466D01*
X127367752Y-121643472D01*
X127557933Y-121717148D01*
X127758413Y-121754624D01*
X127758415Y-121754624D01*
X127962363Y-121754624D01*
X127962365Y-121754624D01*
X128162845Y-121717148D01*
X128353026Y-121643472D01*
X128526430Y-121536105D01*
X128677153Y-121398703D01*
X128800062Y-121235945D01*
X128890971Y-121053374D01*
X128946786Y-120857207D01*
X128965604Y-120654124D01*
X128946786Y-120451041D01*
X128890971Y-120254874D01*
X128800062Y-120072303D01*
X128718028Y-119963672D01*
X128677154Y-119909545D01*
X128529539Y-119774977D01*
X130976000Y-119774977D01*
X130976000Y-120396000D01*
X131637749Y-120396000D01*
X131604755Y-120453147D01*
X131570000Y-120582857D01*
X131570000Y-120717143D01*
X131604755Y-120846853D01*
X131637749Y-120904000D01*
X130976001Y-120904000D01*
X130976001Y-121525022D01*
X130990737Y-121599105D01*
X130990737Y-121599107D01*
X131046875Y-121683124D01*
X131130893Y-121739262D01*
X131130894Y-121739263D01*
X131204980Y-121753999D01*
X131826000Y-121753999D01*
X131826000Y-121092250D01*
X131883147Y-121125245D01*
X132012857Y-121160000D01*
X132147143Y-121160000D01*
X132276853Y-121125245D01*
X132334000Y-121092250D01*
X132334000Y-121753999D01*
X132955014Y-121753999D01*
X132955022Y-121753998D01*
X133029105Y-121739262D01*
X133029107Y-121739262D01*
X133113124Y-121683124D01*
X133169262Y-121599106D01*
X133169263Y-121599105D01*
X133183999Y-121525022D01*
X133184000Y-121525015D01*
X133184000Y-120904000D01*
X132522251Y-120904000D01*
X132555245Y-120846853D01*
X132590000Y-120717143D01*
X132590000Y-120582857D01*
X132555245Y-120453147D01*
X132522251Y-120396000D01*
X133183999Y-120396000D01*
X133183999Y-119774986D01*
X133183998Y-119774977D01*
X148756000Y-119774977D01*
X148756000Y-120396000D01*
X149417749Y-120396000D01*
X149384755Y-120453147D01*
X149350000Y-120582857D01*
X149350000Y-120717143D01*
X149384755Y-120846853D01*
X149417749Y-120904000D01*
X148756001Y-120904000D01*
X148756001Y-121525022D01*
X148770737Y-121599105D01*
X148770737Y-121599107D01*
X148826875Y-121683124D01*
X148910893Y-121739262D01*
X148910894Y-121739263D01*
X148984980Y-121753999D01*
X149606000Y-121753999D01*
X149606000Y-121092250D01*
X149663147Y-121125245D01*
X149792857Y-121160000D01*
X149927143Y-121160000D01*
X150056853Y-121125245D01*
X150114000Y-121092250D01*
X150114000Y-121753999D01*
X150735014Y-121753999D01*
X150735022Y-121753998D01*
X150809105Y-121739262D01*
X150809107Y-121739262D01*
X150893124Y-121683124D01*
X150949262Y-121599106D01*
X150949263Y-121599105D01*
X150963999Y-121525022D01*
X150964000Y-121525015D01*
X150964000Y-120904000D01*
X150302251Y-120904000D01*
X150335245Y-120846853D01*
X150370000Y-120717143D01*
X150370000Y-120582857D01*
X150335245Y-120453147D01*
X150302251Y-120396000D01*
X150963999Y-120396000D01*
X150963999Y-119774986D01*
X150963998Y-119774977D01*
X150949262Y-119700894D01*
X150949262Y-119700892D01*
X150893124Y-119616875D01*
X150809106Y-119560737D01*
X150809105Y-119560736D01*
X150735022Y-119546000D01*
X150114000Y-119546000D01*
X150114000Y-120207749D01*
X150056853Y-120174755D01*
X149927143Y-120140000D01*
X149792857Y-120140000D01*
X149663147Y-120174755D01*
X149606000Y-120207749D01*
X149606000Y-119546000D01*
X148984986Y-119546000D01*
X148984976Y-119546001D01*
X148910894Y-119560737D01*
X148910892Y-119560737D01*
X148826875Y-119616875D01*
X148770737Y-119700893D01*
X148770736Y-119700894D01*
X148756000Y-119774977D01*
X133183998Y-119774977D01*
X133169262Y-119700894D01*
X133169262Y-119700892D01*
X133113124Y-119616875D01*
X133029106Y-119560737D01*
X133029105Y-119560736D01*
X132955022Y-119546000D01*
X132334000Y-119546000D01*
X132334000Y-120207749D01*
X132276853Y-120174755D01*
X132147143Y-120140000D01*
X132012857Y-120140000D01*
X131883147Y-120174755D01*
X131826000Y-120207749D01*
X131826000Y-119546000D01*
X131204986Y-119546000D01*
X131204976Y-119546001D01*
X131130894Y-119560737D01*
X131130892Y-119560737D01*
X131046875Y-119616875D01*
X130990737Y-119700893D01*
X130990736Y-119700894D01*
X130976000Y-119774977D01*
X128529539Y-119774977D01*
X128526429Y-119772142D01*
X128526428Y-119772141D01*
X128353037Y-119664782D01*
X128353030Y-119664778D01*
X128353026Y-119664776D01*
X128236522Y-119619642D01*
X128162846Y-119591100D01*
X128096018Y-119578608D01*
X127962365Y-119553624D01*
X127758413Y-119553624D01*
X127658173Y-119572362D01*
X127557931Y-119591100D01*
X127410579Y-119648184D01*
X127367752Y-119664776D01*
X127367751Y-119664776D01*
X127367750Y-119664777D01*
X127367740Y-119664782D01*
X127194349Y-119772141D01*
X127194348Y-119772142D01*
X127043623Y-119909545D01*
X126920718Y-120072299D01*
X126829805Y-120254878D01*
X126773992Y-120451039D01*
X126755174Y-120654124D01*
X110759627Y-120654124D01*
X110825085Y-120588666D01*
X110825089Y-120588657D01*
X110830109Y-120582117D01*
X110832399Y-120583874D01*
X110873628Y-120544530D01*
X110931408Y-120530499D01*
X112654864Y-120530499D01*
X112679991Y-120527585D01*
X112782765Y-120482206D01*
X112862206Y-120402765D01*
X112907585Y-120299991D01*
X112910500Y-120274865D01*
X112910499Y-118656499D01*
X112930501Y-118588379D01*
X112984157Y-118541886D01*
X113036499Y-118530500D01*
X113305041Y-118530500D01*
X113373162Y-118550502D01*
X113419655Y-118604158D01*
X113429759Y-118674432D01*
X113405592Y-118732431D01*
X113357339Y-118796327D01*
X113266140Y-118979480D01*
X113266138Y-118979485D01*
X113224450Y-119125999D01*
X113224451Y-119126000D01*
X113869297Y-119126000D01*
X113834075Y-119187007D01*
X113800000Y-119314174D01*
X113800000Y-119445826D01*
X113834075Y-119572993D01*
X113869297Y-119634000D01*
X113224451Y-119634000D01*
X113266138Y-119780514D01*
X113266140Y-119780519D01*
X113357340Y-119963672D01*
X113480637Y-120126946D01*
X113631838Y-120264784D01*
X113805796Y-120372493D01*
X113805803Y-120372496D01*
X113996582Y-120446405D01*
X114045999Y-120455642D01*
X114046000Y-120455642D01*
X114046000Y-119810702D01*
X114107007Y-119845925D01*
X114234174Y-119880000D01*
X114365826Y-119880000D01*
X114492993Y-119845925D01*
X114554000Y-119810702D01*
X114554000Y-120455642D01*
X114603417Y-120446405D01*
X114603418Y-120446405D01*
X114794196Y-120372496D01*
X114794203Y-120372493D01*
X114968161Y-120264784D01*
X115119362Y-120126946D01*
X115242659Y-119963672D01*
X115333859Y-119780519D01*
X115333861Y-119780514D01*
X115375549Y-119634000D01*
X114730703Y-119634000D01*
X114765925Y-119572993D01*
X114800000Y-119445826D01*
X114800000Y-119314174D01*
X114765925Y-119187007D01*
X114730703Y-119126000D01*
X115375549Y-119126000D01*
X115375549Y-119125999D01*
X115333861Y-118979485D01*
X115333859Y-118979480D01*
X115242660Y-118796327D01*
X115194408Y-118732431D01*
X115169319Y-118666016D01*
X115184119Y-118596579D01*
X115234110Y-118546167D01*
X115294959Y-118530500D01*
X115786772Y-118530500D01*
X115854893Y-118550502D01*
X115901386Y-118604158D01*
X115911490Y-118674432D01*
X115887322Y-118732430D01*
X115857634Y-118771745D01*
X115786763Y-118914075D01*
X115762593Y-118962615D01*
X115704244Y-119167688D01*
X115684571Y-119380000D01*
X115704244Y-119592311D01*
X115762593Y-119797384D01*
X115762594Y-119797386D01*
X115762595Y-119797389D01*
X115857634Y-119988255D01*
X115962370Y-120126946D01*
X115986129Y-120158408D01*
X116143699Y-120302053D01*
X116143701Y-120302054D01*
X116324974Y-120414294D01*
X116324975Y-120414294D01*
X116324981Y-120414298D01*
X116523802Y-120491321D01*
X116733390Y-120530500D01*
X116733393Y-120530500D01*
X116946607Y-120530500D01*
X116946610Y-120530500D01*
X117156198Y-120491321D01*
X117355019Y-120414298D01*
X117536302Y-120302052D01*
X117693872Y-120158407D01*
X117822366Y-119988255D01*
X117917405Y-119797389D01*
X117975756Y-119592310D01*
X117984537Y-119497538D01*
X118010739Y-119431555D01*
X118068456Y-119390211D01*
X118139362Y-119386634D01*
X118200946Y-119421960D01*
X118233656Y-119484973D01*
X118235461Y-119497529D01*
X118242454Y-119572993D01*
X118244244Y-119592311D01*
X118302593Y-119797384D01*
X118302594Y-119797386D01*
X118302595Y-119797389D01*
X118397634Y-119988255D01*
X118502370Y-120126946D01*
X118526129Y-120158408D01*
X118683699Y-120302053D01*
X118683701Y-120302054D01*
X118864974Y-120414294D01*
X118864975Y-120414294D01*
X118864981Y-120414298D01*
X119063802Y-120491321D01*
X119273390Y-120530500D01*
X119273393Y-120530500D01*
X119486607Y-120530500D01*
X119486610Y-120530500D01*
X119696198Y-120491321D01*
X119895019Y-120414298D01*
X120076302Y-120302052D01*
X120233872Y-120158407D01*
X120362366Y-119988255D01*
X120457405Y-119797389D01*
X120515756Y-119592310D01*
X120524537Y-119497538D01*
X120550739Y-119431555D01*
X120608456Y-119390211D01*
X120679362Y-119386634D01*
X120740946Y-119421960D01*
X120773656Y-119484973D01*
X120775461Y-119497529D01*
X120782454Y-119572993D01*
X120784244Y-119592311D01*
X120842593Y-119797384D01*
X120842594Y-119797386D01*
X120842595Y-119797389D01*
X120937634Y-119988255D01*
X121042370Y-120126946D01*
X121066129Y-120158408D01*
X121223699Y-120302053D01*
X121223701Y-120302054D01*
X121404974Y-120414294D01*
X121404975Y-120414294D01*
X121404981Y-120414298D01*
X121603802Y-120491321D01*
X121813390Y-120530500D01*
X121813393Y-120530500D01*
X122026607Y-120530500D01*
X122026610Y-120530500D01*
X122236198Y-120491321D01*
X122435019Y-120414298D01*
X122616302Y-120302052D01*
X122773872Y-120158407D01*
X122902366Y-119988255D01*
X122997405Y-119797389D01*
X123055756Y-119592310D01*
X123064537Y-119497538D01*
X123090739Y-119431555D01*
X123148456Y-119390211D01*
X123219362Y-119386634D01*
X123280946Y-119421960D01*
X123313656Y-119484973D01*
X123315461Y-119497529D01*
X123322454Y-119572993D01*
X123324244Y-119592311D01*
X123382593Y-119797384D01*
X123382594Y-119797386D01*
X123382595Y-119797389D01*
X123477634Y-119988255D01*
X123582370Y-120126946D01*
X123606129Y-120158408D01*
X123763699Y-120302053D01*
X123763701Y-120302054D01*
X123944974Y-120414294D01*
X123944975Y-120414294D01*
X123944981Y-120414298D01*
X124143802Y-120491321D01*
X124353390Y-120530500D01*
X124353393Y-120530500D01*
X124566607Y-120530500D01*
X124566610Y-120530500D01*
X124776198Y-120491321D01*
X124975019Y-120414298D01*
X125156302Y-120302052D01*
X125313872Y-120158407D01*
X125442366Y-119988255D01*
X125537405Y-119797389D01*
X125595756Y-119592310D01*
X125615429Y-119380000D01*
X125595756Y-119167690D01*
X125537405Y-118962611D01*
X125442366Y-118771745D01*
X125412677Y-118732431D01*
X125387588Y-118666017D01*
X125402387Y-118596580D01*
X125452378Y-118546167D01*
X125513228Y-118530500D01*
X130859280Y-118530500D01*
X130859281Y-118530500D01*
X130887600Y-118522912D01*
X130958575Y-118524600D01*
X131017371Y-118564394D01*
X131033001Y-118588454D01*
X131097634Y-118718255D01*
X131226128Y-118888407D01*
X131226129Y-118888408D01*
X131383699Y-119032053D01*
X131383701Y-119032054D01*
X131564974Y-119144294D01*
X131564975Y-119144294D01*
X131564981Y-119144298D01*
X131763802Y-119221321D01*
X131973390Y-119260500D01*
X131973393Y-119260500D01*
X132186607Y-119260500D01*
X132186610Y-119260500D01*
X132396198Y-119221321D01*
X132595019Y-119144298D01*
X132776302Y-119032052D01*
X132933872Y-118888407D01*
X133062366Y-118718255D01*
X133157405Y-118527389D01*
X133215756Y-118322310D01*
X133235429Y-118110000D01*
X133215756Y-117897690D01*
X133157405Y-117692611D01*
X133062366Y-117501745D01*
X132933872Y-117331593D01*
X132776302Y-117187948D01*
X132776300Y-117187946D01*
X132776298Y-117187945D01*
X132595025Y-117075705D01*
X132595021Y-117075703D01*
X132595019Y-117075702D01*
X132396198Y-116998679D01*
X132209902Y-116963854D01*
X132146618Y-116931676D01*
X132110776Y-116870391D01*
X132113757Y-116799457D01*
X132154615Y-116741395D01*
X132209901Y-116716145D01*
X132396198Y-116681321D01*
X132595019Y-116604298D01*
X132776302Y-116492052D01*
X132933872Y-116348407D01*
X133062366Y-116178255D01*
X133157405Y-115987389D01*
X133215756Y-115782310D01*
X133235429Y-115570000D01*
X133215756Y-115357690D01*
X133157405Y-115152611D01*
X133062366Y-114961745D01*
X132933872Y-114791593D01*
X132831606Y-114698364D01*
X132776300Y-114647946D01*
X132776298Y-114647945D01*
X132595025Y-114535705D01*
X132595021Y-114535703D01*
X132595019Y-114535702D01*
X132396198Y-114458679D01*
X132209902Y-114423854D01*
X132146618Y-114391676D01*
X132110776Y-114330391D01*
X132113757Y-114259457D01*
X132154615Y-114201395D01*
X132209901Y-114176145D01*
X132396198Y-114141321D01*
X132595019Y-114064298D01*
X132776302Y-113952052D01*
X132933872Y-113808407D01*
X133062366Y-113638255D01*
X133157405Y-113447389D01*
X133215756Y-113242310D01*
X133235429Y-113030000D01*
X133215756Y-112817690D01*
X133157405Y-112612611D01*
X133062366Y-112421745D01*
X132933872Y-112251593D01*
X132904049Y-112224405D01*
X132776300Y-112107946D01*
X132776298Y-112107945D01*
X132595025Y-111995705D01*
X132595021Y-111995703D01*
X132595019Y-111995702D01*
X132396198Y-111918679D01*
X132209902Y-111883854D01*
X132146618Y-111851676D01*
X132110776Y-111790391D01*
X132113757Y-111719457D01*
X132154615Y-111661395D01*
X132209901Y-111636145D01*
X132396198Y-111601321D01*
X132595019Y-111524298D01*
X132776302Y-111412052D01*
X132933872Y-111268407D01*
X133062366Y-111098255D01*
X133157405Y-110907389D01*
X133215756Y-110702310D01*
X133235429Y-110490000D01*
X148704571Y-110490000D01*
X148724244Y-110702311D01*
X148782593Y-110907384D01*
X148782594Y-110907386D01*
X148782595Y-110907389D01*
X148877634Y-111098255D01*
X148959378Y-111206500D01*
X149006129Y-111268408D01*
X149163699Y-111412053D01*
X149163701Y-111412054D01*
X149344974Y-111524294D01*
X149344975Y-111524294D01*
X149344981Y-111524298D01*
X149543802Y-111601321D01*
X149730097Y-111636145D01*
X149793381Y-111668324D01*
X149829223Y-111729609D01*
X149826242Y-111800543D01*
X149785384Y-111858605D01*
X149730098Y-111883854D01*
X149617350Y-111904930D01*
X149543800Y-111918679D01*
X149394315Y-111976590D01*
X149344981Y-111995702D01*
X149344980Y-111995702D01*
X149344979Y-111995703D01*
X149344974Y-111995705D01*
X149163701Y-112107945D01*
X149163699Y-112107946D01*
X149006129Y-112251591D01*
X148945836Y-112331432D01*
X148877634Y-112421745D01*
X148788771Y-112600208D01*
X148782593Y-112612615D01*
X148724244Y-112817688D01*
X148704571Y-113030000D01*
X148724244Y-113242311D01*
X148782593Y-113447384D01*
X148782594Y-113447386D01*
X148782595Y-113447389D01*
X148877634Y-113638255D01*
X149001790Y-113802662D01*
X149006129Y-113808408D01*
X149163699Y-113952053D01*
X149163701Y-113952054D01*
X149344974Y-114064294D01*
X149344975Y-114064294D01*
X149344981Y-114064298D01*
X149543802Y-114141321D01*
X149730097Y-114176145D01*
X149793381Y-114208324D01*
X149829223Y-114269609D01*
X149826242Y-114340543D01*
X149785384Y-114398605D01*
X149730098Y-114423854D01*
X149617350Y-114444930D01*
X149543800Y-114458679D01*
X149394315Y-114516590D01*
X149344981Y-114535702D01*
X149344980Y-114535702D01*
X149344979Y-114535703D01*
X149344974Y-114535705D01*
X149163701Y-114647945D01*
X149163699Y-114647946D01*
X149006129Y-114791591D01*
X148919293Y-114906580D01*
X148877634Y-114961745D01*
X148816450Y-115084621D01*
X148782593Y-115152615D01*
X148724244Y-115357688D01*
X148704571Y-115570000D01*
X148724244Y-115782311D01*
X148782593Y-115987384D01*
X148782594Y-115987386D01*
X148782595Y-115987389D01*
X148877634Y-116178255D01*
X148959378Y-116286500D01*
X149006129Y-116348408D01*
X149163699Y-116492053D01*
X149163701Y-116492054D01*
X149344974Y-116604294D01*
X149344975Y-116604294D01*
X149344981Y-116604298D01*
X149543802Y-116681321D01*
X149730097Y-116716145D01*
X149793381Y-116748324D01*
X149829223Y-116809609D01*
X149826242Y-116880543D01*
X149785384Y-116938605D01*
X149730098Y-116963854D01*
X149617350Y-116984930D01*
X149543800Y-116998679D01*
X149394315Y-117056590D01*
X149344981Y-117075702D01*
X149344980Y-117075702D01*
X149344979Y-117075703D01*
X149344974Y-117075705D01*
X149163701Y-117187945D01*
X149163699Y-117187946D01*
X149006129Y-117331591D01*
X148921552Y-117443589D01*
X148877634Y-117501745D01*
X148817320Y-117622873D01*
X148782593Y-117692615D01*
X148724244Y-117897688D01*
X148704571Y-118110000D01*
X148724244Y-118322311D01*
X148782593Y-118527384D01*
X148782594Y-118527386D01*
X148782595Y-118527389D01*
X148877634Y-118718255D01*
X149006128Y-118888407D01*
X149006129Y-118888408D01*
X149163699Y-119032053D01*
X149163701Y-119032054D01*
X149344974Y-119144294D01*
X149344975Y-119144294D01*
X149344981Y-119144298D01*
X149543802Y-119221321D01*
X149753390Y-119260500D01*
X149753393Y-119260500D01*
X149966607Y-119260500D01*
X149966610Y-119260500D01*
X150176198Y-119221321D01*
X150375019Y-119144298D01*
X150556302Y-119032052D01*
X150713872Y-118888407D01*
X150842366Y-118718255D01*
X150937405Y-118527389D01*
X150995756Y-118322310D01*
X151015429Y-118110000D01*
X150995756Y-117897690D01*
X150937405Y-117692611D01*
X150842366Y-117501745D01*
X150713872Y-117331593D01*
X150556302Y-117187948D01*
X150556300Y-117187946D01*
X150556298Y-117187945D01*
X150375025Y-117075705D01*
X150375021Y-117075703D01*
X150375019Y-117075702D01*
X150176198Y-116998679D01*
X149989902Y-116963854D01*
X149926618Y-116931676D01*
X149890776Y-116870391D01*
X149893757Y-116799457D01*
X149934615Y-116741395D01*
X149989901Y-116716145D01*
X150176198Y-116681321D01*
X150375019Y-116604298D01*
X150556302Y-116492052D01*
X150713872Y-116348407D01*
X150842366Y-116178255D01*
X150937405Y-115987389D01*
X150995756Y-115782310D01*
X151015429Y-115570000D01*
X150995756Y-115357690D01*
X150937405Y-115152611D01*
X150842366Y-114961745D01*
X150713872Y-114791593D01*
X150611606Y-114698364D01*
X150556300Y-114647946D01*
X150556298Y-114647945D01*
X150375025Y-114535705D01*
X150375021Y-114535703D01*
X150375019Y-114535702D01*
X150176198Y-114458679D01*
X149989902Y-114423854D01*
X149926618Y-114391676D01*
X149890776Y-114330391D01*
X149893757Y-114259457D01*
X149934615Y-114201395D01*
X149989901Y-114176145D01*
X150176198Y-114141321D01*
X150375019Y-114064298D01*
X150556302Y-113952052D01*
X150713872Y-113808407D01*
X150842366Y-113638255D01*
X150937405Y-113447389D01*
X150995756Y-113242310D01*
X151015429Y-113030000D01*
X150995756Y-112817690D01*
X150937405Y-112612611D01*
X150842366Y-112421745D01*
X150713872Y-112251593D01*
X150684049Y-112224405D01*
X150556300Y-112107946D01*
X150556298Y-112107945D01*
X150375025Y-111995705D01*
X150375021Y-111995703D01*
X150375019Y-111995702D01*
X150176198Y-111918679D01*
X149989902Y-111883854D01*
X149926618Y-111851676D01*
X149890776Y-111790391D01*
X149893757Y-111719457D01*
X149934615Y-111661395D01*
X149989901Y-111636145D01*
X150176198Y-111601321D01*
X150375019Y-111524298D01*
X150556302Y-111412052D01*
X150713872Y-111268407D01*
X150842366Y-111098255D01*
X150937405Y-110907389D01*
X150995756Y-110702310D01*
X151015429Y-110490000D01*
X150995756Y-110277690D01*
X150937405Y-110072611D01*
X150842366Y-109881745D01*
X150713872Y-109711593D01*
X150556302Y-109567948D01*
X150556300Y-109567946D01*
X150556298Y-109567945D01*
X150375025Y-109455705D01*
X150375021Y-109455703D01*
X150375019Y-109455702D01*
X150253222Y-109408517D01*
X150176199Y-109378679D01*
X150123801Y-109368884D01*
X149966610Y-109339500D01*
X149753390Y-109339500D01*
X149627637Y-109363007D01*
X149543800Y-109378679D01*
X149394315Y-109436590D01*
X149344981Y-109455702D01*
X149344980Y-109455702D01*
X149344979Y-109455703D01*
X149344974Y-109455705D01*
X149163701Y-109567945D01*
X149163699Y-109567946D01*
X149006129Y-109711591D01*
X148919293Y-109826580D01*
X148877634Y-109881745D01*
X148784130Y-110069526D01*
X148782593Y-110072615D01*
X148724244Y-110277688D01*
X148704571Y-110490000D01*
X133235429Y-110490000D01*
X133215756Y-110277690D01*
X133157405Y-110072611D01*
X133062366Y-109881745D01*
X132933872Y-109711593D01*
X132776302Y-109567948D01*
X132776300Y-109567946D01*
X132776298Y-109567945D01*
X132595025Y-109455705D01*
X132595021Y-109455703D01*
X132595019Y-109455702D01*
X132473222Y-109408517D01*
X132396199Y-109378679D01*
X132343801Y-109368884D01*
X132186610Y-109339500D01*
X131973390Y-109339500D01*
X131847637Y-109363007D01*
X131763800Y-109378679D01*
X131614315Y-109436590D01*
X131564981Y-109455702D01*
X131564980Y-109455702D01*
X131564979Y-109455703D01*
X131564969Y-109455708D01*
X131422830Y-109543717D01*
X131354383Y-109562572D01*
X131286608Y-109541429D01*
X131241023Y-109486999D01*
X131230500Y-109436590D01*
X131230500Y-109179999D01*
X131250502Y-109111878D01*
X131304158Y-109065385D01*
X131356500Y-109053999D01*
X131826000Y-109053999D01*
X131826000Y-108392250D01*
X131883147Y-108425245D01*
X132012857Y-108460000D01*
X132147143Y-108460000D01*
X132276853Y-108425245D01*
X132334000Y-108392250D01*
X132334000Y-109053999D01*
X132955014Y-109053999D01*
X132955022Y-109053998D01*
X133029105Y-109039262D01*
X133029107Y-109039262D01*
X133113124Y-108983124D01*
X133169262Y-108899106D01*
X133169263Y-108899105D01*
X133183999Y-108825022D01*
X133184000Y-108825015D01*
X133184000Y-108204000D01*
X132522251Y-108204000D01*
X132555245Y-108146853D01*
X132590000Y-108017143D01*
X132590000Y-107882857D01*
X132555245Y-107753147D01*
X132522251Y-107696000D01*
X133183999Y-107696000D01*
X133183999Y-107074986D01*
X133183998Y-107074977D01*
X148756000Y-107074977D01*
X148756000Y-107696000D01*
X149417749Y-107696000D01*
X149384755Y-107753147D01*
X149350000Y-107882857D01*
X149350000Y-108017143D01*
X149384755Y-108146853D01*
X149417749Y-108204000D01*
X148756001Y-108204000D01*
X148756001Y-108825022D01*
X148770737Y-108899105D01*
X148770737Y-108899107D01*
X148826875Y-108983124D01*
X148910893Y-109039262D01*
X148910894Y-109039263D01*
X148984980Y-109053999D01*
X149606000Y-109053999D01*
X149606000Y-108392250D01*
X149663147Y-108425245D01*
X149792857Y-108460000D01*
X149927143Y-108460000D01*
X150056853Y-108425245D01*
X150114000Y-108392250D01*
X150114000Y-109053999D01*
X150735014Y-109053999D01*
X150735022Y-109053998D01*
X150809105Y-109039262D01*
X150809107Y-109039262D01*
X150893124Y-108983124D01*
X150949262Y-108899106D01*
X150949263Y-108899105D01*
X150963999Y-108825022D01*
X150964000Y-108825015D01*
X150964000Y-108204000D01*
X150302251Y-108204000D01*
X150335245Y-108146853D01*
X150370000Y-108017143D01*
X150370000Y-107882857D01*
X150335245Y-107753147D01*
X150302251Y-107696000D01*
X150963999Y-107696000D01*
X150963999Y-107074986D01*
X150963998Y-107074977D01*
X150949262Y-107000894D01*
X150949262Y-107000892D01*
X150893124Y-106916875D01*
X150809106Y-106860737D01*
X150809105Y-106860736D01*
X150735022Y-106846000D01*
X150114000Y-106846000D01*
X150114000Y-107507749D01*
X150056853Y-107474755D01*
X149927143Y-107440000D01*
X149792857Y-107440000D01*
X149663147Y-107474755D01*
X149606000Y-107507749D01*
X149606000Y-106846000D01*
X148984986Y-106846000D01*
X148984976Y-106846001D01*
X148910894Y-106860737D01*
X148910892Y-106860737D01*
X148826875Y-106916875D01*
X148770737Y-107000893D01*
X148770736Y-107000894D01*
X148756000Y-107074977D01*
X133183998Y-107074977D01*
X133169262Y-107000894D01*
X133169262Y-107000892D01*
X133113124Y-106916875D01*
X133029106Y-106860737D01*
X133029105Y-106860736D01*
X132955022Y-106846000D01*
X132334000Y-106846000D01*
X132334000Y-107507749D01*
X132276853Y-107474755D01*
X132147143Y-107440000D01*
X132012857Y-107440000D01*
X131883147Y-107474755D01*
X131826000Y-107507749D01*
X131826000Y-106846000D01*
X131356500Y-106846000D01*
X131288379Y-106825998D01*
X131241886Y-106772342D01*
X131230500Y-106720000D01*
X131230500Y-106463409D01*
X131250502Y-106395288D01*
X131304158Y-106348795D01*
X131374432Y-106338691D01*
X131422830Y-106356281D01*
X131564981Y-106444298D01*
X131763802Y-106521321D01*
X131973390Y-106560500D01*
X131973393Y-106560500D01*
X132186607Y-106560500D01*
X132186610Y-106560500D01*
X132396198Y-106521321D01*
X132595019Y-106444298D01*
X132776302Y-106332052D01*
X132933872Y-106188407D01*
X133062366Y-106018255D01*
X133157405Y-105827389D01*
X133215756Y-105622310D01*
X133235429Y-105410000D01*
X133215756Y-105197690D01*
X133157405Y-104992611D01*
X133062366Y-104801745D01*
X132933872Y-104631593D01*
X132776302Y-104487948D01*
X132776300Y-104487946D01*
X132776298Y-104487945D01*
X132595025Y-104375705D01*
X132595021Y-104375703D01*
X132595019Y-104375702D01*
X132396198Y-104298679D01*
X132209902Y-104263854D01*
X132146618Y-104231676D01*
X132110776Y-104170391D01*
X132113757Y-104099457D01*
X132154615Y-104041395D01*
X132209901Y-104016145D01*
X132396198Y-103981321D01*
X132595019Y-103904298D01*
X132776302Y-103792052D01*
X132933872Y-103648407D01*
X133062366Y-103478255D01*
X133157405Y-103287389D01*
X133215756Y-103082310D01*
X133235429Y-102870000D01*
X133215756Y-102657690D01*
X133157405Y-102452611D01*
X133062366Y-102261745D01*
X132933872Y-102091593D01*
X132930177Y-102088224D01*
X132776300Y-101947946D01*
X132776298Y-101947945D01*
X132595025Y-101835705D01*
X132595021Y-101835703D01*
X132595019Y-101835702D01*
X132396198Y-101758679D01*
X132209902Y-101723854D01*
X132146618Y-101691676D01*
X132110776Y-101630391D01*
X132113757Y-101559457D01*
X132154615Y-101501395D01*
X132209901Y-101476145D01*
X132396198Y-101441321D01*
X132595019Y-101364298D01*
X132776302Y-101252052D01*
X132933872Y-101108407D01*
X133062366Y-100938255D01*
X133157405Y-100747389D01*
X133215756Y-100542310D01*
X133235429Y-100330000D01*
X133215756Y-100117690D01*
X133157405Y-99912611D01*
X133062366Y-99721745D01*
X132933872Y-99551593D01*
X132776302Y-99407948D01*
X132776300Y-99407946D01*
X132776298Y-99407945D01*
X132595025Y-99295705D01*
X132595021Y-99295703D01*
X132595019Y-99295702D01*
X132396198Y-99218679D01*
X132209902Y-99183854D01*
X132146618Y-99151676D01*
X132110776Y-99090391D01*
X132113757Y-99019457D01*
X132154615Y-98961395D01*
X132209901Y-98936145D01*
X132396198Y-98901321D01*
X132595019Y-98824298D01*
X132776302Y-98712052D01*
X132933872Y-98568407D01*
X133062366Y-98398255D01*
X133157405Y-98207389D01*
X133215756Y-98002310D01*
X133235429Y-97790000D01*
X133215756Y-97577690D01*
X133157405Y-97372611D01*
X133062366Y-97181745D01*
X132933872Y-97011593D01*
X132776302Y-96867948D01*
X132776300Y-96867946D01*
X132776298Y-96867945D01*
X132595025Y-96755705D01*
X132595021Y-96755703D01*
X132595019Y-96755702D01*
X132473222Y-96708517D01*
X132396199Y-96678679D01*
X132343801Y-96668884D01*
X132186610Y-96639500D01*
X131973390Y-96639500D01*
X131847637Y-96663007D01*
X131763800Y-96678679D01*
X131609754Y-96738356D01*
X131564981Y-96755702D01*
X131564980Y-96755702D01*
X131564979Y-96755703D01*
X131564974Y-96755705D01*
X131383701Y-96867945D01*
X131383699Y-96867946D01*
X131226129Y-97011591D01*
X131097633Y-97181746D01*
X131042405Y-97292662D01*
X130994136Y-97344726D01*
X130929614Y-97362500D01*
X130753719Y-97362500D01*
X130644991Y-97391633D01*
X130644989Y-97391634D01*
X130644986Y-97391635D01*
X130547511Y-97447912D01*
X130547501Y-97447920D01*
X128273680Y-99721744D01*
X128007509Y-99987915D01*
X127967712Y-100027711D01*
X127927916Y-100067507D01*
X127927912Y-100067512D01*
X127871635Y-100164986D01*
X127871634Y-100164989D01*
X127871633Y-100164991D01*
X127842500Y-100273719D01*
X127842500Y-100273720D01*
X127842500Y-111206500D01*
X127822498Y-111274621D01*
X127768842Y-111321114D01*
X127716500Y-111332500D01*
X124403719Y-111332500D01*
X124294991Y-111361633D01*
X124294989Y-111361634D01*
X124294986Y-111361635D01*
X124197511Y-111417912D01*
X124197501Y-111417920D01*
X121779829Y-113835595D01*
X121717517Y-113869620D01*
X121690734Y-113872500D01*
X107830386Y-113872500D01*
X107762265Y-113852498D01*
X107717595Y-113802662D01*
X107705665Y-113778703D01*
X107662366Y-113691745D01*
X107533872Y-113521593D01*
X107475127Y-113468039D01*
X107376300Y-113377946D01*
X107376298Y-113377945D01*
X107195025Y-113265705D01*
X107195021Y-113265703D01*
X107195019Y-113265702D01*
X106996198Y-113188679D01*
X106809902Y-113153854D01*
X106746618Y-113121676D01*
X106710776Y-113060391D01*
X106713757Y-112989457D01*
X106754615Y-112931395D01*
X106809901Y-112906145D01*
X106996198Y-112871321D01*
X107195019Y-112794298D01*
X107376302Y-112682052D01*
X107533872Y-112538407D01*
X107662366Y-112368255D01*
X107757405Y-112177389D01*
X107815756Y-111972310D01*
X107835429Y-111760000D01*
X107815756Y-111547690D01*
X107757405Y-111342611D01*
X107662366Y-111151745D01*
X107533872Y-110981593D01*
X107376302Y-110837948D01*
X107376300Y-110837946D01*
X107376298Y-110837945D01*
X107195025Y-110725705D01*
X107195021Y-110725703D01*
X107195019Y-110725702D01*
X106996198Y-110648679D01*
X106809902Y-110613854D01*
X106746618Y-110581676D01*
X106710776Y-110520391D01*
X106713757Y-110449457D01*
X106754615Y-110391395D01*
X106809901Y-110366145D01*
X106996198Y-110331321D01*
X107195019Y-110254298D01*
X107376302Y-110142052D01*
X107533872Y-109998407D01*
X107662366Y-109828255D01*
X107757405Y-109637389D01*
X107815756Y-109432310D01*
X107835429Y-109220000D01*
X114300000Y-109220000D01*
X127000000Y-109220000D01*
X127000000Y-94374977D01*
X130976000Y-94374977D01*
X130976000Y-94996000D01*
X131637749Y-94996000D01*
X131604755Y-95053147D01*
X131570000Y-95182857D01*
X131570000Y-95317143D01*
X131604755Y-95446853D01*
X131637749Y-95504000D01*
X130976001Y-95504000D01*
X130976001Y-96125022D01*
X130990737Y-96199105D01*
X130990737Y-96199107D01*
X131046875Y-96283124D01*
X131130893Y-96339262D01*
X131130894Y-96339263D01*
X131204980Y-96353999D01*
X131826000Y-96353999D01*
X131826000Y-95692250D01*
X131883147Y-95725245D01*
X132012857Y-95760000D01*
X132147143Y-95760000D01*
X132276853Y-95725245D01*
X132334000Y-95692250D01*
X132334000Y-96353999D01*
X132955014Y-96353999D01*
X132955022Y-96353998D01*
X133029105Y-96339262D01*
X133029107Y-96339262D01*
X133113124Y-96283124D01*
X133169262Y-96199106D01*
X133169263Y-96199105D01*
X133183999Y-96125022D01*
X133184000Y-96125015D01*
X133184000Y-95504000D01*
X132522251Y-95504000D01*
X132555245Y-95446853D01*
X132590000Y-95317143D01*
X132590000Y-95182857D01*
X132555245Y-95053147D01*
X132522251Y-94996000D01*
X133183999Y-94996000D01*
X133183999Y-94374986D01*
X133183998Y-94374977D01*
X148756000Y-94374977D01*
X148756000Y-94996000D01*
X149417749Y-94996000D01*
X149384755Y-95053147D01*
X149350000Y-95182857D01*
X149350000Y-95317143D01*
X149384755Y-95446853D01*
X149417749Y-95504000D01*
X148756001Y-95504000D01*
X148756001Y-96125022D01*
X148770737Y-96199105D01*
X148770737Y-96199107D01*
X148826875Y-96283124D01*
X148910893Y-96339262D01*
X148910894Y-96339263D01*
X148984980Y-96353999D01*
X149606000Y-96353999D01*
X149606000Y-95692250D01*
X149663147Y-95725245D01*
X149792857Y-95760000D01*
X149927143Y-95760000D01*
X150056853Y-95725245D01*
X150114000Y-95692250D01*
X150114000Y-96353999D01*
X150735014Y-96353999D01*
X150735022Y-96353998D01*
X150809105Y-96339262D01*
X150809107Y-96339262D01*
X150893124Y-96283124D01*
X150949262Y-96199106D01*
X150949263Y-96199105D01*
X150963999Y-96125022D01*
X150964000Y-96125015D01*
X150964000Y-95504000D01*
X150302251Y-95504000D01*
X150335245Y-95446853D01*
X150370000Y-95317143D01*
X150370000Y-95182857D01*
X150335245Y-95053147D01*
X150302251Y-94996000D01*
X150963999Y-94996000D01*
X150963999Y-94374986D01*
X150963998Y-94374977D01*
X150949262Y-94300894D01*
X150949262Y-94300892D01*
X150893124Y-94216875D01*
X150809106Y-94160737D01*
X150809105Y-94160736D01*
X150735022Y-94146000D01*
X150114000Y-94146000D01*
X150114000Y-94807749D01*
X150056853Y-94774755D01*
X149927143Y-94740000D01*
X149792857Y-94740000D01*
X149663147Y-94774755D01*
X149606000Y-94807749D01*
X149606000Y-94146000D01*
X148984986Y-94146000D01*
X148984976Y-94146001D01*
X148910894Y-94160737D01*
X148910892Y-94160737D01*
X148826875Y-94216875D01*
X148770737Y-94300893D01*
X148770736Y-94300894D01*
X148756000Y-94374977D01*
X133183998Y-94374977D01*
X133169262Y-94300894D01*
X133169262Y-94300892D01*
X133113124Y-94216875D01*
X133029106Y-94160737D01*
X133029105Y-94160736D01*
X132955022Y-94146000D01*
X132334000Y-94146000D01*
X132334000Y-94807749D01*
X132276853Y-94774755D01*
X132147143Y-94740000D01*
X132012857Y-94740000D01*
X131883147Y-94774755D01*
X131826000Y-94807749D01*
X131826000Y-94146000D01*
X131204986Y-94146000D01*
X131204976Y-94146001D01*
X131130894Y-94160737D01*
X131130892Y-94160737D01*
X131046875Y-94216875D01*
X130990737Y-94300893D01*
X130990736Y-94300894D01*
X130976000Y-94374977D01*
X127000000Y-94374977D01*
X127000000Y-93980000D01*
X114300000Y-93980000D01*
X114300000Y-109220000D01*
X107835429Y-109220000D01*
X107815756Y-109007690D01*
X107757405Y-108802611D01*
X107662366Y-108611745D01*
X107533872Y-108441593D01*
X107442288Y-108358102D01*
X107376300Y-108297946D01*
X107376298Y-108297945D01*
X107195025Y-108185705D01*
X107195021Y-108185703D01*
X107195019Y-108185702D01*
X107073222Y-108138517D01*
X106996199Y-108108679D01*
X106943801Y-108098884D01*
X106786610Y-108069500D01*
X106573390Y-108069500D01*
X106447637Y-108093007D01*
X106363800Y-108108679D01*
X106209754Y-108168356D01*
X106164981Y-108185702D01*
X106164980Y-108185702D01*
X106164979Y-108185703D01*
X106164974Y-108185705D01*
X105983701Y-108297945D01*
X105983699Y-108297946D01*
X105826129Y-108441591D01*
X105739293Y-108556580D01*
X105697634Y-108611745D01*
X105604130Y-108799526D01*
X105602593Y-108802615D01*
X105544244Y-109007688D01*
X105524571Y-109220000D01*
X102550000Y-109220000D01*
X102550000Y-86360000D01*
X105524571Y-86360000D01*
X105544244Y-86572311D01*
X105602593Y-86777384D01*
X105602594Y-86777386D01*
X105602595Y-86777389D01*
X105697634Y-86968255D01*
X105821790Y-87132662D01*
X105826129Y-87138408D01*
X105983699Y-87282053D01*
X105983701Y-87282054D01*
X106164974Y-87394294D01*
X106164975Y-87394294D01*
X106164981Y-87394298D01*
X106363802Y-87471321D01*
X106550097Y-87506145D01*
X106613381Y-87538324D01*
X106649223Y-87599609D01*
X106646242Y-87670543D01*
X106605384Y-87728605D01*
X106550098Y-87753854D01*
X106437350Y-87774930D01*
X106363800Y-87788679D01*
X106209754Y-87848356D01*
X106164981Y-87865702D01*
X106164980Y-87865702D01*
X106164979Y-87865703D01*
X106164974Y-87865705D01*
X105983701Y-87977945D01*
X105983699Y-87977946D01*
X105826129Y-88121591D01*
X105790966Y-88168154D01*
X105697634Y-88291745D01*
X105626006Y-88435595D01*
X105602593Y-88482615D01*
X105544244Y-88687688D01*
X105524571Y-88900000D01*
X105544244Y-89112311D01*
X105602593Y-89317384D01*
X105602594Y-89317386D01*
X105602595Y-89317389D01*
X105697634Y-89508255D01*
X105821790Y-89672662D01*
X105826129Y-89678408D01*
X105983699Y-89822053D01*
X105983701Y-89822054D01*
X106164974Y-89934294D01*
X106164975Y-89934294D01*
X106164981Y-89934298D01*
X106363802Y-90011321D01*
X106550097Y-90046145D01*
X106613381Y-90078324D01*
X106649223Y-90139609D01*
X106646242Y-90210543D01*
X106605384Y-90268605D01*
X106550098Y-90293854D01*
X106437350Y-90314930D01*
X106363800Y-90328679D01*
X106209754Y-90388356D01*
X106164981Y-90405702D01*
X106164980Y-90405702D01*
X106164979Y-90405703D01*
X106164974Y-90405705D01*
X105983701Y-90517945D01*
X105983699Y-90517946D01*
X105826129Y-90661591D01*
X105739293Y-90776580D01*
X105697634Y-90831745D01*
X105626006Y-90975595D01*
X105602593Y-91022615D01*
X105544244Y-91227688D01*
X105524571Y-91440000D01*
X105544244Y-91652311D01*
X105602593Y-91857384D01*
X105602594Y-91857386D01*
X105602595Y-91857389D01*
X105697634Y-92048255D01*
X105821790Y-92212662D01*
X105826129Y-92218408D01*
X105983699Y-92362053D01*
X105983701Y-92362054D01*
X106164974Y-92474294D01*
X106164975Y-92474294D01*
X106164981Y-92474298D01*
X106363802Y-92551321D01*
X106550097Y-92586145D01*
X106613381Y-92618324D01*
X106649223Y-92679609D01*
X106646242Y-92750543D01*
X106605384Y-92808605D01*
X106550098Y-92833854D01*
X106437350Y-92854930D01*
X106363800Y-92868679D01*
X106209754Y-92928356D01*
X106164981Y-92945702D01*
X106164980Y-92945702D01*
X106164979Y-92945703D01*
X106164974Y-92945705D01*
X105983701Y-93057945D01*
X105983699Y-93057946D01*
X105826129Y-93201591D01*
X105739293Y-93316580D01*
X105697634Y-93371745D01*
X105623974Y-93519676D01*
X105602593Y-93562615D01*
X105544244Y-93767688D01*
X105524571Y-93980000D01*
X105544244Y-94192311D01*
X105602593Y-94397384D01*
X105602594Y-94397386D01*
X105602595Y-94397389D01*
X105697634Y-94588255D01*
X105812228Y-94740000D01*
X105826129Y-94758408D01*
X105983699Y-94902053D01*
X105983701Y-94902054D01*
X106164974Y-95014294D01*
X106164975Y-95014294D01*
X106164981Y-95014298D01*
X106363802Y-95091321D01*
X106573390Y-95130500D01*
X106573393Y-95130500D01*
X106786607Y-95130500D01*
X106786610Y-95130500D01*
X106996198Y-95091321D01*
X107195019Y-95014298D01*
X107376302Y-94902052D01*
X107533872Y-94758407D01*
X107662366Y-94588255D01*
X107674765Y-94563355D01*
X110944946Y-94563355D01*
X110963764Y-94766439D01*
X111019577Y-94962600D01*
X111019578Y-94962602D01*
X111019579Y-94962605D01*
X111110488Y-95145176D01*
X111110489Y-95145177D01*
X111110490Y-95145179D01*
X111233395Y-95307933D01*
X111384120Y-95445336D01*
X111384121Y-95445337D01*
X111557512Y-95552696D01*
X111557515Y-95552697D01*
X111557524Y-95552703D01*
X111747705Y-95626379D01*
X111948185Y-95663855D01*
X111948187Y-95663855D01*
X112152135Y-95663855D01*
X112152137Y-95663855D01*
X112352617Y-95626379D01*
X112542798Y-95552703D01*
X112716202Y-95445336D01*
X112866925Y-95307934D01*
X112989834Y-95145176D01*
X113080743Y-94962605D01*
X113136558Y-94766438D01*
X113155376Y-94563355D01*
X113136558Y-94360272D01*
X113080743Y-94164105D01*
X112989834Y-93981534D01*
X112988676Y-93980000D01*
X112866926Y-93818776D01*
X112716201Y-93681373D01*
X112716200Y-93681372D01*
X112542809Y-93574013D01*
X112542802Y-93574009D01*
X112542798Y-93574007D01*
X112402553Y-93519676D01*
X112352618Y-93500331D01*
X112285790Y-93487839D01*
X112152137Y-93462855D01*
X111948185Y-93462855D01*
X111847945Y-93481593D01*
X111747703Y-93500331D01*
X111600351Y-93557415D01*
X111557524Y-93574007D01*
X111557523Y-93574007D01*
X111557522Y-93574008D01*
X111557512Y-93574013D01*
X111384121Y-93681372D01*
X111384120Y-93681373D01*
X111233395Y-93818776D01*
X111110490Y-93981530D01*
X111019577Y-94164109D01*
X110963764Y-94360270D01*
X110944946Y-94563355D01*
X107674765Y-94563355D01*
X107757405Y-94397389D01*
X107815756Y-94192310D01*
X107835429Y-93980000D01*
X107815756Y-93767690D01*
X107765388Y-93590667D01*
X107765984Y-93519676D01*
X107797481Y-93467094D01*
X108090173Y-93174404D01*
X108152485Y-93140379D01*
X108179268Y-93137500D01*
X130929614Y-93137500D01*
X130997735Y-93157502D01*
X131042404Y-93207337D01*
X131097634Y-93318255D01*
X131206832Y-93462855D01*
X131226129Y-93488408D01*
X131383699Y-93632053D01*
X131383701Y-93632054D01*
X131564974Y-93744294D01*
X131564975Y-93744294D01*
X131564981Y-93744298D01*
X131763802Y-93821321D01*
X131973390Y-93860500D01*
X131973393Y-93860500D01*
X132186607Y-93860500D01*
X132186610Y-93860500D01*
X132396198Y-93821321D01*
X132595019Y-93744298D01*
X132776302Y-93632052D01*
X132933872Y-93488407D01*
X133062366Y-93318255D01*
X133157405Y-93127389D01*
X133215756Y-92922310D01*
X133235429Y-92710000D01*
X133215756Y-92497690D01*
X133157405Y-92292611D01*
X133062366Y-92101745D01*
X132933872Y-91931593D01*
X132831606Y-91838364D01*
X132776300Y-91787946D01*
X132776298Y-91787945D01*
X132595025Y-91675705D01*
X132595021Y-91675703D01*
X132595019Y-91675702D01*
X132396198Y-91598679D01*
X132209902Y-91563854D01*
X132146618Y-91531676D01*
X132110776Y-91470391D01*
X132113757Y-91399457D01*
X132154615Y-91341395D01*
X132209901Y-91316145D01*
X132396198Y-91281321D01*
X132595019Y-91204298D01*
X132776302Y-91092052D01*
X132933872Y-90948407D01*
X133062366Y-90778255D01*
X133157405Y-90587389D01*
X133215756Y-90382310D01*
X133235429Y-90170000D01*
X133215756Y-89957690D01*
X133157405Y-89752611D01*
X133062366Y-89561745D01*
X132933872Y-89391593D01*
X132904049Y-89364405D01*
X132776300Y-89247946D01*
X132776298Y-89247945D01*
X132595025Y-89135705D01*
X132595021Y-89135703D01*
X132595019Y-89135702D01*
X132396198Y-89058679D01*
X132209902Y-89023854D01*
X132146618Y-88991676D01*
X132110776Y-88930391D01*
X132113757Y-88859457D01*
X132154615Y-88801395D01*
X132209901Y-88776145D01*
X132396198Y-88741321D01*
X132595019Y-88664298D01*
X132776302Y-88552052D01*
X132933872Y-88408407D01*
X133062366Y-88238255D01*
X133157405Y-88047389D01*
X133215756Y-87842310D01*
X133235429Y-87630000D01*
X133215756Y-87417690D01*
X133157405Y-87212611D01*
X133062366Y-87021745D01*
X132933872Y-86851593D01*
X132904049Y-86824405D01*
X132776300Y-86707946D01*
X132776298Y-86707945D01*
X132595025Y-86595705D01*
X132595021Y-86595703D01*
X132595019Y-86595702D01*
X132396198Y-86518679D01*
X132209902Y-86483854D01*
X132146618Y-86451676D01*
X132110776Y-86390391D01*
X132113757Y-86319457D01*
X132154615Y-86261395D01*
X132209901Y-86236145D01*
X132396198Y-86201321D01*
X132595019Y-86124298D01*
X132776302Y-86012052D01*
X132933872Y-85868407D01*
X133062366Y-85698255D01*
X133157405Y-85507389D01*
X133215756Y-85302310D01*
X133235429Y-85090000D01*
X148704571Y-85090000D01*
X148724244Y-85302311D01*
X148782593Y-85507384D01*
X148782594Y-85507386D01*
X148782595Y-85507389D01*
X148877634Y-85698255D01*
X148969121Y-85819402D01*
X149006129Y-85868408D01*
X149163699Y-86012053D01*
X149163701Y-86012054D01*
X149344974Y-86124294D01*
X149344975Y-86124294D01*
X149344981Y-86124298D01*
X149543802Y-86201321D01*
X149730097Y-86236145D01*
X149793381Y-86268324D01*
X149829223Y-86329609D01*
X149826242Y-86400543D01*
X149785384Y-86458605D01*
X149730098Y-86483854D01*
X149617350Y-86504930D01*
X149543800Y-86518679D01*
X149389754Y-86578356D01*
X149344981Y-86595702D01*
X149344980Y-86595702D01*
X149344979Y-86595703D01*
X149344974Y-86595705D01*
X149163701Y-86707945D01*
X149163699Y-86707946D01*
X149006129Y-86851591D01*
X148936833Y-86943354D01*
X148877634Y-87021745D01*
X148802400Y-87172837D01*
X148782593Y-87212615D01*
X148724244Y-87417688D01*
X148704571Y-87630000D01*
X148724244Y-87842311D01*
X148782593Y-88047384D01*
X148782594Y-88047386D01*
X148782595Y-88047389D01*
X148877634Y-88238255D01*
X149001790Y-88402662D01*
X149006129Y-88408408D01*
X149163699Y-88552053D01*
X149163701Y-88552054D01*
X149344974Y-88664294D01*
X149344975Y-88664294D01*
X149344981Y-88664298D01*
X149543802Y-88741321D01*
X149730097Y-88776145D01*
X149793381Y-88808324D01*
X149829223Y-88869609D01*
X149826242Y-88940543D01*
X149785384Y-88998605D01*
X149730098Y-89023854D01*
X149617350Y-89044930D01*
X149543800Y-89058679D01*
X149389754Y-89118356D01*
X149344981Y-89135702D01*
X149344980Y-89135702D01*
X149344979Y-89135703D01*
X149344974Y-89135705D01*
X149163701Y-89247945D01*
X149163699Y-89247946D01*
X149006129Y-89391591D01*
X148919293Y-89506580D01*
X148877634Y-89561745D01*
X148806006Y-89705595D01*
X148782593Y-89752615D01*
X148724244Y-89957688D01*
X148704571Y-90170000D01*
X148724244Y-90382311D01*
X148782593Y-90587384D01*
X148782594Y-90587386D01*
X148782595Y-90587389D01*
X148877634Y-90778255D01*
X149001790Y-90942662D01*
X149006129Y-90948408D01*
X149163699Y-91092053D01*
X149163701Y-91092054D01*
X149344974Y-91204294D01*
X149344975Y-91204294D01*
X149344981Y-91204298D01*
X149543802Y-91281321D01*
X149730097Y-91316145D01*
X149793381Y-91348324D01*
X149829223Y-91409609D01*
X149826242Y-91480543D01*
X149785384Y-91538605D01*
X149730098Y-91563854D01*
X149617350Y-91584930D01*
X149543800Y-91598679D01*
X149389754Y-91658356D01*
X149344981Y-91675702D01*
X149344980Y-91675702D01*
X149344979Y-91675703D01*
X149344974Y-91675705D01*
X149163701Y-91787945D01*
X149163699Y-91787946D01*
X149006129Y-91931591D01*
X148919293Y-92046580D01*
X148877634Y-92101745D01*
X148797589Y-92262498D01*
X148782593Y-92292615D01*
X148724244Y-92497688D01*
X148704571Y-92710000D01*
X148724244Y-92922311D01*
X148782593Y-93127384D01*
X148782594Y-93127386D01*
X148782595Y-93127389D01*
X148877634Y-93318255D01*
X148986832Y-93462855D01*
X149006129Y-93488408D01*
X149163699Y-93632053D01*
X149163701Y-93632054D01*
X149344974Y-93744294D01*
X149344975Y-93744294D01*
X149344981Y-93744298D01*
X149543802Y-93821321D01*
X149753390Y-93860500D01*
X149753393Y-93860500D01*
X149966607Y-93860500D01*
X149966610Y-93860500D01*
X150176198Y-93821321D01*
X150375019Y-93744298D01*
X150556302Y-93632052D01*
X150713872Y-93488407D01*
X150842366Y-93318255D01*
X150897595Y-93207337D01*
X150945864Y-93155274D01*
X151010386Y-93137500D01*
X153440734Y-93137500D01*
X153508855Y-93157502D01*
X153529829Y-93174405D01*
X154475595Y-94120171D01*
X154509621Y-94182483D01*
X154512500Y-94209266D01*
X154512500Y-101543719D01*
X154512500Y-101656281D01*
X154541633Y-101765009D01*
X154541634Y-101765011D01*
X154541635Y-101765013D01*
X154597912Y-101862487D01*
X154597920Y-101862497D01*
X155947501Y-103212079D01*
X155947506Y-103212083D01*
X155947508Y-103212085D01*
X156044991Y-103268367D01*
X156153718Y-103297500D01*
X156153719Y-103297500D01*
X156329614Y-103297500D01*
X156397735Y-103317502D01*
X156442404Y-103367337D01*
X156497634Y-103478255D01*
X156626128Y-103648407D01*
X156626129Y-103648408D01*
X156783699Y-103792053D01*
X156783701Y-103792054D01*
X156964974Y-103904294D01*
X156964975Y-103904294D01*
X156964981Y-103904298D01*
X157163802Y-103981321D01*
X157350097Y-104016145D01*
X157413381Y-104048324D01*
X157449223Y-104109609D01*
X157446242Y-104180543D01*
X157405384Y-104238605D01*
X157350098Y-104263854D01*
X157237350Y-104284930D01*
X157163800Y-104298679D01*
X157009754Y-104358356D01*
X156964981Y-104375702D01*
X156964980Y-104375702D01*
X156964979Y-104375703D01*
X156964974Y-104375705D01*
X156783701Y-104487945D01*
X156783699Y-104487946D01*
X156626129Y-104631591D01*
X156497633Y-104801746D01*
X156442405Y-104912662D01*
X156394136Y-104964726D01*
X156329614Y-104982500D01*
X155169267Y-104982500D01*
X155101146Y-104962498D01*
X155080172Y-104945595D01*
X154134405Y-103999828D01*
X154100379Y-103937516D01*
X154097500Y-103910733D01*
X154097500Y-99003720D01*
X154097500Y-99003719D01*
X154068367Y-98894991D01*
X154027552Y-98824298D01*
X154012085Y-98797508D01*
X154012082Y-98797505D01*
X154012079Y-98797501D01*
X152662497Y-97447920D01*
X152662487Y-97447912D01*
X152565013Y-97391635D01*
X152565011Y-97391634D01*
X152565009Y-97391633D01*
X152456281Y-97362500D01*
X152456279Y-97362500D01*
X151010386Y-97362500D01*
X150942265Y-97342498D01*
X150897595Y-97292662D01*
X150842366Y-97181746D01*
X150842366Y-97181745D01*
X150713872Y-97011593D01*
X150556302Y-96867948D01*
X150556300Y-96867946D01*
X150556298Y-96867945D01*
X150375025Y-96755705D01*
X150375021Y-96755703D01*
X150375019Y-96755702D01*
X150253222Y-96708517D01*
X150176199Y-96678679D01*
X150123801Y-96668884D01*
X149966610Y-96639500D01*
X149753390Y-96639500D01*
X149627637Y-96663007D01*
X149543800Y-96678679D01*
X149389754Y-96738356D01*
X149344981Y-96755702D01*
X149344980Y-96755702D01*
X149344979Y-96755703D01*
X149344974Y-96755705D01*
X149163701Y-96867945D01*
X149163699Y-96867946D01*
X149006129Y-97011591D01*
X148919293Y-97126580D01*
X148877634Y-97181745D01*
X148797589Y-97342498D01*
X148782593Y-97372615D01*
X148724244Y-97577688D01*
X148704571Y-97790000D01*
X148724244Y-98002311D01*
X148782593Y-98207384D01*
X148782594Y-98207386D01*
X148782595Y-98207389D01*
X148877634Y-98398255D01*
X149006128Y-98568407D01*
X149006129Y-98568408D01*
X149163699Y-98712053D01*
X149163701Y-98712054D01*
X149344974Y-98824294D01*
X149344975Y-98824294D01*
X149344981Y-98824298D01*
X149543802Y-98901321D01*
X149730097Y-98936145D01*
X149793381Y-98968324D01*
X149829223Y-99029609D01*
X149826242Y-99100543D01*
X149785384Y-99158605D01*
X149730098Y-99183854D01*
X149642811Y-99200171D01*
X149543800Y-99218679D01*
X149389754Y-99278356D01*
X149344981Y-99295702D01*
X149344980Y-99295702D01*
X149344979Y-99295703D01*
X149344974Y-99295705D01*
X149163701Y-99407945D01*
X149163699Y-99407946D01*
X149006129Y-99551591D01*
X148919293Y-99666580D01*
X148877634Y-99721745D01*
X148796480Y-99884726D01*
X148782593Y-99912615D01*
X148724244Y-100117688D01*
X148704571Y-100330000D01*
X148724244Y-100542311D01*
X148782593Y-100747384D01*
X148782594Y-100747386D01*
X148782595Y-100747389D01*
X148877634Y-100938255D01*
X149006128Y-101108407D01*
X149006129Y-101108408D01*
X149163699Y-101252053D01*
X149163701Y-101252054D01*
X149344974Y-101364294D01*
X149344975Y-101364294D01*
X149344981Y-101364298D01*
X149543802Y-101441321D01*
X149730097Y-101476145D01*
X149793381Y-101508324D01*
X149829223Y-101569609D01*
X149826242Y-101640543D01*
X149785384Y-101698605D01*
X149730098Y-101723854D01*
X149642811Y-101740171D01*
X149543800Y-101758679D01*
X149389754Y-101818356D01*
X149344981Y-101835702D01*
X149344980Y-101835702D01*
X149344979Y-101835703D01*
X149344974Y-101835705D01*
X149163701Y-101947945D01*
X149163699Y-101947946D01*
X149006129Y-102091591D01*
X148983809Y-102121148D01*
X148877634Y-102261745D01*
X148787630Y-102442500D01*
X148782593Y-102452615D01*
X148724244Y-102657688D01*
X148704571Y-102870000D01*
X148724244Y-103082311D01*
X148782593Y-103287384D01*
X148782594Y-103287386D01*
X148782595Y-103287389D01*
X148877634Y-103478255D01*
X149006128Y-103648407D01*
X149006129Y-103648408D01*
X149163699Y-103792053D01*
X149163701Y-103792054D01*
X149344974Y-103904294D01*
X149344975Y-103904294D01*
X149344981Y-103904298D01*
X149543802Y-103981321D01*
X149730097Y-104016145D01*
X149793381Y-104048324D01*
X149829223Y-104109609D01*
X149826242Y-104180543D01*
X149785384Y-104238605D01*
X149730098Y-104263854D01*
X149617350Y-104284930D01*
X149543800Y-104298679D01*
X149389754Y-104358356D01*
X149344981Y-104375702D01*
X149344980Y-104375702D01*
X149344979Y-104375703D01*
X149344974Y-104375705D01*
X149163701Y-104487945D01*
X149163699Y-104487946D01*
X149006129Y-104631591D01*
X148919293Y-104746580D01*
X148877634Y-104801745D01*
X148806006Y-104945595D01*
X148782593Y-104992615D01*
X148724244Y-105197688D01*
X148704571Y-105410000D01*
X148724244Y-105622311D01*
X148782593Y-105827384D01*
X148782594Y-105827386D01*
X148782595Y-105827389D01*
X148877634Y-106018255D01*
X149006128Y-106188407D01*
X149006129Y-106188408D01*
X149163699Y-106332053D01*
X149163701Y-106332054D01*
X149344974Y-106444294D01*
X149344975Y-106444294D01*
X149344981Y-106444298D01*
X149543802Y-106521321D01*
X149753390Y-106560500D01*
X149753393Y-106560500D01*
X149966607Y-106560500D01*
X149966610Y-106560500D01*
X150176198Y-106521321D01*
X150375019Y-106444298D01*
X150556302Y-106332052D01*
X150713872Y-106188407D01*
X150842366Y-106018255D01*
X150937405Y-105827389D01*
X150995756Y-105622310D01*
X151015429Y-105410000D01*
X150995756Y-105197690D01*
X150937405Y-104992611D01*
X150842366Y-104801745D01*
X150713872Y-104631593D01*
X150556302Y-104487948D01*
X150556300Y-104487946D01*
X150556298Y-104487945D01*
X150375025Y-104375705D01*
X150375021Y-104375703D01*
X150375019Y-104375702D01*
X150176198Y-104298679D01*
X149989902Y-104263854D01*
X149926618Y-104231676D01*
X149890776Y-104170391D01*
X149893757Y-104099457D01*
X149934615Y-104041395D01*
X149989901Y-104016145D01*
X150176198Y-103981321D01*
X150375019Y-103904298D01*
X150556302Y-103792052D01*
X150713872Y-103648407D01*
X150842366Y-103478255D01*
X150937405Y-103287389D01*
X150995756Y-103082310D01*
X151015429Y-102870000D01*
X150995756Y-102657690D01*
X150937405Y-102452611D01*
X150844685Y-102266402D01*
X150832228Y-102196512D01*
X150859535Y-102130977D01*
X150917938Y-102090609D01*
X150988894Y-102088224D01*
X151046570Y-102121147D01*
X151935596Y-103010172D01*
X151969620Y-103072483D01*
X151972500Y-103099266D01*
X151972500Y-106623719D01*
X151972500Y-106736281D01*
X152001633Y-106845009D01*
X152001634Y-106845011D01*
X152001635Y-106845013D01*
X152057912Y-106942487D01*
X152057920Y-106942497D01*
X153407501Y-108292079D01*
X153407506Y-108292083D01*
X153407508Y-108292085D01*
X153407509Y-108292086D01*
X153407511Y-108292087D01*
X153417663Y-108297948D01*
X153504991Y-108348367D01*
X153613718Y-108377500D01*
X153613719Y-108377500D01*
X156329614Y-108377500D01*
X156397735Y-108397502D01*
X156442404Y-108447337D01*
X156497634Y-108558255D01*
X156626128Y-108728407D01*
X156626129Y-108728408D01*
X156783699Y-108872053D01*
X156783701Y-108872054D01*
X156964974Y-108984294D01*
X156964975Y-108984294D01*
X156964981Y-108984298D01*
X157163802Y-109061321D01*
X157350097Y-109096145D01*
X157413381Y-109128324D01*
X157449223Y-109189609D01*
X157446242Y-109260543D01*
X157405384Y-109318605D01*
X157350098Y-109343854D01*
X157237350Y-109364930D01*
X157163800Y-109378679D01*
X157014315Y-109436590D01*
X156964981Y-109455702D01*
X156964980Y-109455702D01*
X156964979Y-109455703D01*
X156964974Y-109455705D01*
X156783701Y-109567945D01*
X156783699Y-109567946D01*
X156626129Y-109711591D01*
X156539293Y-109826580D01*
X156497634Y-109881745D01*
X156404130Y-110069526D01*
X156402593Y-110072615D01*
X156344244Y-110277688D01*
X156324571Y-110490000D01*
X156344244Y-110702311D01*
X156402593Y-110907384D01*
X156402594Y-110907386D01*
X156402595Y-110907389D01*
X156497634Y-111098255D01*
X156579378Y-111206500D01*
X156626129Y-111268408D01*
X156783699Y-111412053D01*
X156783701Y-111412054D01*
X156964974Y-111524294D01*
X156964975Y-111524294D01*
X156964981Y-111524298D01*
X157163802Y-111601321D01*
X157350097Y-111636145D01*
X157413381Y-111668324D01*
X157449223Y-111729609D01*
X157446242Y-111800543D01*
X157405384Y-111858605D01*
X157350098Y-111883854D01*
X157237350Y-111904930D01*
X157163800Y-111918679D01*
X157014315Y-111976590D01*
X156964981Y-111995702D01*
X156964980Y-111995702D01*
X156964979Y-111995703D01*
X156964974Y-111995705D01*
X156783701Y-112107945D01*
X156783699Y-112107946D01*
X156626129Y-112251591D01*
X156565836Y-112331432D01*
X156497634Y-112421745D01*
X156408771Y-112600208D01*
X156402593Y-112612615D01*
X156344244Y-112817688D01*
X156324571Y-113030000D01*
X156344244Y-113242311D01*
X156402593Y-113447384D01*
X156402594Y-113447386D01*
X156402595Y-113447389D01*
X156497634Y-113638255D01*
X156621790Y-113802662D01*
X156626129Y-113808408D01*
X156783699Y-113952053D01*
X156783701Y-113952054D01*
X156964974Y-114064294D01*
X156964975Y-114064294D01*
X156964981Y-114064298D01*
X157163802Y-114141321D01*
X157350097Y-114176145D01*
X157413381Y-114208324D01*
X157449223Y-114269609D01*
X157446242Y-114340543D01*
X157405384Y-114398605D01*
X157350098Y-114423854D01*
X157237350Y-114444930D01*
X157163800Y-114458679D01*
X157014315Y-114516590D01*
X156964981Y-114535702D01*
X156964980Y-114535702D01*
X156964979Y-114535703D01*
X156964974Y-114535705D01*
X156783701Y-114647945D01*
X156783699Y-114647946D01*
X156626129Y-114791591D01*
X156539293Y-114906580D01*
X156497634Y-114961745D01*
X156436450Y-115084621D01*
X156402593Y-115152615D01*
X156344244Y-115357688D01*
X156324571Y-115570000D01*
X156344244Y-115782311D01*
X156402593Y-115987384D01*
X156402594Y-115987386D01*
X156402595Y-115987389D01*
X156497634Y-116178255D01*
X156579378Y-116286500D01*
X156626129Y-116348408D01*
X156783699Y-116492053D01*
X156783701Y-116492054D01*
X156964974Y-116604294D01*
X156964975Y-116604294D01*
X156964981Y-116604298D01*
X157163802Y-116681321D01*
X157350097Y-116716145D01*
X157413381Y-116748324D01*
X157449223Y-116809609D01*
X157446242Y-116880543D01*
X157405384Y-116938605D01*
X157350098Y-116963854D01*
X157237350Y-116984930D01*
X157163800Y-116998679D01*
X157014315Y-117056590D01*
X156964981Y-117075702D01*
X156964980Y-117075702D01*
X156964979Y-117075703D01*
X156964974Y-117075705D01*
X156783701Y-117187945D01*
X156783699Y-117187946D01*
X156626129Y-117331591D01*
X156541552Y-117443589D01*
X156497634Y-117501745D01*
X156437320Y-117622873D01*
X156402593Y-117692615D01*
X156344244Y-117897688D01*
X156324571Y-118110000D01*
X156344244Y-118322311D01*
X156402593Y-118527384D01*
X156402594Y-118527386D01*
X156402595Y-118527389D01*
X156497634Y-118718255D01*
X156626128Y-118888407D01*
X156626129Y-118888408D01*
X156783699Y-119032053D01*
X156783701Y-119032054D01*
X156964974Y-119144294D01*
X156964975Y-119144294D01*
X156964981Y-119144298D01*
X157163802Y-119221321D01*
X157350097Y-119256145D01*
X157413381Y-119288324D01*
X157449223Y-119349609D01*
X157446242Y-119420543D01*
X157405384Y-119478605D01*
X157350098Y-119503854D01*
X157237350Y-119524930D01*
X157163800Y-119538679D01*
X157009754Y-119598356D01*
X156964981Y-119615702D01*
X156964980Y-119615702D01*
X156964979Y-119615703D01*
X156964974Y-119615705D01*
X156783701Y-119727945D01*
X156783699Y-119727946D01*
X156626129Y-119871591D01*
X156539293Y-119986580D01*
X156497634Y-120041745D01*
X156436246Y-120165030D01*
X156402593Y-120232615D01*
X156344244Y-120437688D01*
X156324571Y-120650000D01*
X156344244Y-120862313D01*
X156394610Y-121039329D01*
X156394014Y-121110323D01*
X156362516Y-121162905D01*
X154799829Y-122725595D01*
X154737516Y-122759620D01*
X154710733Y-122762500D01*
X151010386Y-122762500D01*
X150942265Y-122742498D01*
X150897595Y-122692662D01*
X150842366Y-122581745D01*
X150713872Y-122411593D01*
X150630820Y-122335880D01*
X150556300Y-122267946D01*
X150556298Y-122267945D01*
X150375025Y-122155705D01*
X150375021Y-122155703D01*
X150375019Y-122155702D01*
X150253222Y-122108517D01*
X150176199Y-122078679D01*
X150123801Y-122068884D01*
X149966610Y-122039500D01*
X149753390Y-122039500D01*
X149627637Y-122063007D01*
X149543800Y-122078679D01*
X149389754Y-122138356D01*
X149344981Y-122155702D01*
X149344980Y-122155702D01*
X149344979Y-122155703D01*
X149344974Y-122155705D01*
X149163701Y-122267945D01*
X149163699Y-122267946D01*
X149006129Y-122411591D01*
X148919293Y-122526580D01*
X148877634Y-122581745D01*
X148806006Y-122725595D01*
X148782593Y-122772615D01*
X148724244Y-122977688D01*
X148704571Y-123190000D01*
X148724244Y-123402311D01*
X148782593Y-123607384D01*
X148782594Y-123607386D01*
X148782595Y-123607389D01*
X148877634Y-123798255D01*
X149006128Y-123968407D01*
X149006129Y-123968408D01*
X149163699Y-124112053D01*
X149163701Y-124112054D01*
X149344974Y-124224294D01*
X149344975Y-124224294D01*
X149344981Y-124224298D01*
X149543802Y-124301321D01*
X149730097Y-124336145D01*
X149793381Y-124368324D01*
X149829223Y-124429609D01*
X149826242Y-124500543D01*
X149785384Y-124558605D01*
X149730098Y-124583854D01*
X149617350Y-124604930D01*
X149543800Y-124618679D01*
X149389754Y-124678356D01*
X149344981Y-124695702D01*
X149344980Y-124695702D01*
X149344979Y-124695703D01*
X149344974Y-124695705D01*
X149163701Y-124807945D01*
X149163699Y-124807946D01*
X149006129Y-124951591D01*
X148919293Y-125066580D01*
X148877634Y-125121745D01*
X148838133Y-125201075D01*
X148782593Y-125312615D01*
X148724244Y-125517688D01*
X148704571Y-125730000D01*
X148724244Y-125942311D01*
X148782593Y-126147384D01*
X148782594Y-126147386D01*
X148782595Y-126147389D01*
X148877634Y-126338255D01*
X149006128Y-126508407D01*
X149006129Y-126508408D01*
X149163699Y-126652053D01*
X149163701Y-126652054D01*
X149344974Y-126764294D01*
X149344975Y-126764294D01*
X149344981Y-126764298D01*
X149543802Y-126841321D01*
X149753390Y-126880500D01*
X149753393Y-126880500D01*
X149966607Y-126880500D01*
X149966610Y-126880500D01*
X150176198Y-126841321D01*
X150375019Y-126764298D01*
X150556302Y-126652052D01*
X150713872Y-126508407D01*
X150842366Y-126338255D01*
X150937405Y-126147389D01*
X150995756Y-125942310D01*
X151015429Y-125730000D01*
X150995756Y-125517690D01*
X150937405Y-125312611D01*
X150842366Y-125121745D01*
X150713872Y-124951593D01*
X150648223Y-124891745D01*
X150556300Y-124807946D01*
X150556298Y-124807945D01*
X150375025Y-124695705D01*
X150375021Y-124695703D01*
X150375019Y-124695702D01*
X150176198Y-124618679D01*
X149989902Y-124583854D01*
X149926618Y-124551676D01*
X149890776Y-124490391D01*
X149893757Y-124419457D01*
X149934615Y-124361395D01*
X149989901Y-124336145D01*
X150176198Y-124301321D01*
X150375019Y-124224298D01*
X150556302Y-124112052D01*
X150713872Y-123968407D01*
X150842366Y-123798255D01*
X150897595Y-123687337D01*
X150945864Y-123635274D01*
X151010386Y-123617500D01*
X154996279Y-123617500D01*
X154996281Y-123617500D01*
X155105009Y-123588367D01*
X155202491Y-123532085D01*
X156968409Y-121766166D01*
X157030718Y-121732144D01*
X157101533Y-121737208D01*
X157102983Y-121737760D01*
X157163802Y-121761321D01*
X157373390Y-121800500D01*
X157373393Y-121800500D01*
X157586607Y-121800500D01*
X157586610Y-121800500D01*
X157796198Y-121761321D01*
X157995019Y-121684298D01*
X158176302Y-121572052D01*
X158333872Y-121428407D01*
X158462366Y-121258255D01*
X158557405Y-121067389D01*
X158615756Y-120862310D01*
X158635429Y-120650000D01*
X158615756Y-120437690D01*
X158557405Y-120232611D01*
X158462366Y-120041745D01*
X158333872Y-119871593D01*
X158176302Y-119727948D01*
X158176300Y-119727946D01*
X158176298Y-119727945D01*
X157995025Y-119615705D01*
X157995021Y-119615703D01*
X157995019Y-119615702D01*
X157796198Y-119538679D01*
X157609902Y-119503854D01*
X157546618Y-119471676D01*
X157510776Y-119410391D01*
X157513757Y-119339457D01*
X157554615Y-119281395D01*
X157609901Y-119256145D01*
X157796198Y-119221321D01*
X157995019Y-119144298D01*
X158176302Y-119032052D01*
X158333872Y-118888407D01*
X158462366Y-118718255D01*
X158557405Y-118527389D01*
X158615756Y-118322310D01*
X158635429Y-118110000D01*
X158615756Y-117897690D01*
X158557405Y-117692611D01*
X158462366Y-117501745D01*
X158333872Y-117331593D01*
X158176302Y-117187948D01*
X158176300Y-117187946D01*
X158176298Y-117187945D01*
X157995025Y-117075705D01*
X157995021Y-117075703D01*
X157995019Y-117075702D01*
X157796198Y-116998679D01*
X157609902Y-116963854D01*
X157546618Y-116931676D01*
X157510776Y-116870391D01*
X157513757Y-116799457D01*
X157554615Y-116741395D01*
X157609901Y-116716145D01*
X157796198Y-116681321D01*
X157995019Y-116604298D01*
X158176302Y-116492052D01*
X158333872Y-116348407D01*
X158462366Y-116178255D01*
X158557405Y-115987389D01*
X158615756Y-115782310D01*
X158635429Y-115570000D01*
X158615756Y-115357690D01*
X158557405Y-115152611D01*
X158462366Y-114961745D01*
X158333872Y-114791593D01*
X158231606Y-114698364D01*
X158176300Y-114647946D01*
X158176298Y-114647945D01*
X157995025Y-114535705D01*
X157995021Y-114535703D01*
X157995019Y-114535702D01*
X157796198Y-114458679D01*
X157609902Y-114423854D01*
X157546618Y-114391676D01*
X157510776Y-114330391D01*
X157513757Y-114259457D01*
X157554615Y-114201395D01*
X157609901Y-114176145D01*
X157796198Y-114141321D01*
X157995019Y-114064298D01*
X158176302Y-113952052D01*
X158333872Y-113808407D01*
X158462366Y-113638255D01*
X158557405Y-113447389D01*
X158615756Y-113242310D01*
X158635429Y-113030000D01*
X158615756Y-112817690D01*
X158557405Y-112612611D01*
X158462366Y-112421745D01*
X158333872Y-112251593D01*
X158304049Y-112224405D01*
X158176300Y-112107946D01*
X158176298Y-112107945D01*
X157995025Y-111995705D01*
X157995021Y-111995703D01*
X157995019Y-111995702D01*
X157796198Y-111918679D01*
X157609902Y-111883854D01*
X157546618Y-111851676D01*
X157510776Y-111790391D01*
X157513757Y-111719457D01*
X157554615Y-111661395D01*
X157609901Y-111636145D01*
X157796198Y-111601321D01*
X157995019Y-111524298D01*
X158176302Y-111412052D01*
X158333872Y-111268407D01*
X158462366Y-111098255D01*
X158557405Y-110907389D01*
X158615756Y-110702310D01*
X158635429Y-110490000D01*
X158615756Y-110277690D01*
X158557405Y-110072611D01*
X158462366Y-109881745D01*
X158333872Y-109711593D01*
X158176302Y-109567948D01*
X158176300Y-109567946D01*
X158176298Y-109567945D01*
X157995025Y-109455705D01*
X157995021Y-109455703D01*
X157995019Y-109455702D01*
X157796198Y-109378679D01*
X157609902Y-109343854D01*
X157546618Y-109311676D01*
X157510776Y-109250391D01*
X157513757Y-109179457D01*
X157554615Y-109121395D01*
X157609901Y-109096145D01*
X157796198Y-109061321D01*
X157995019Y-108984298D01*
X158176302Y-108872052D01*
X158333872Y-108728407D01*
X158462366Y-108558255D01*
X158557405Y-108367389D01*
X158615756Y-108162310D01*
X158635429Y-107950000D01*
X158615756Y-107737690D01*
X158557405Y-107532611D01*
X158462366Y-107341745D01*
X158333872Y-107171593D01*
X158176302Y-107027948D01*
X158176300Y-107027946D01*
X158176298Y-107027945D01*
X157995025Y-106915705D01*
X157995021Y-106915703D01*
X157995019Y-106915702D01*
X157796198Y-106838679D01*
X157609902Y-106803854D01*
X157546618Y-106771676D01*
X157510776Y-106710391D01*
X157513757Y-106639457D01*
X157554615Y-106581395D01*
X157609901Y-106556145D01*
X157796198Y-106521321D01*
X157995019Y-106444298D01*
X158176302Y-106332052D01*
X158333872Y-106188407D01*
X158462366Y-106018255D01*
X158557405Y-105827389D01*
X158615756Y-105622310D01*
X158635429Y-105410000D01*
X158615756Y-105197690D01*
X158557405Y-104992611D01*
X158462366Y-104801745D01*
X158333872Y-104631593D01*
X158176302Y-104487948D01*
X158176300Y-104487946D01*
X158176298Y-104487945D01*
X157995025Y-104375705D01*
X157995021Y-104375703D01*
X157995019Y-104375702D01*
X157796198Y-104298679D01*
X157609902Y-104263854D01*
X157546618Y-104231676D01*
X157510776Y-104170391D01*
X157513757Y-104099457D01*
X157554615Y-104041395D01*
X157609901Y-104016145D01*
X157796198Y-103981321D01*
X157995019Y-103904298D01*
X158176302Y-103792052D01*
X158333872Y-103648407D01*
X158462366Y-103478255D01*
X158557405Y-103287389D01*
X158615756Y-103082310D01*
X158635429Y-102870000D01*
X158615756Y-102657690D01*
X158557405Y-102452611D01*
X158462366Y-102261745D01*
X158333872Y-102091593D01*
X158330177Y-102088224D01*
X158176300Y-101947946D01*
X158176298Y-101947945D01*
X157995025Y-101835705D01*
X157995021Y-101835703D01*
X157995019Y-101835702D01*
X157796198Y-101758679D01*
X157609902Y-101723854D01*
X157546618Y-101691676D01*
X157510776Y-101630391D01*
X157513757Y-101559457D01*
X157554615Y-101501395D01*
X157609901Y-101476145D01*
X157796198Y-101441321D01*
X157995019Y-101364298D01*
X158176302Y-101252052D01*
X158333872Y-101108407D01*
X158462366Y-100938255D01*
X158557405Y-100747389D01*
X158615756Y-100542310D01*
X158635429Y-100330000D01*
X158615756Y-100117690D01*
X158557405Y-99912611D01*
X158462366Y-99721745D01*
X158333872Y-99551593D01*
X158176302Y-99407948D01*
X158176300Y-99407946D01*
X158176298Y-99407945D01*
X157995025Y-99295705D01*
X157995021Y-99295703D01*
X157995019Y-99295702D01*
X157796198Y-99218679D01*
X157609902Y-99183854D01*
X157546618Y-99151676D01*
X157510776Y-99090391D01*
X157513757Y-99019457D01*
X157554615Y-98961395D01*
X157609901Y-98936145D01*
X157796198Y-98901321D01*
X157995019Y-98824298D01*
X158176302Y-98712052D01*
X158333872Y-98568407D01*
X158462366Y-98398255D01*
X158557405Y-98207389D01*
X158615756Y-98002310D01*
X158635429Y-97790000D01*
X158615756Y-97577690D01*
X158557405Y-97372611D01*
X158462366Y-97181745D01*
X158333872Y-97011593D01*
X158176302Y-96867948D01*
X158176300Y-96867946D01*
X158176298Y-96867945D01*
X157995025Y-96755705D01*
X157995021Y-96755703D01*
X157995019Y-96755702D01*
X157796198Y-96678679D01*
X157609902Y-96643854D01*
X157546618Y-96611676D01*
X157510776Y-96550391D01*
X157513757Y-96479457D01*
X157554615Y-96421395D01*
X157609901Y-96396145D01*
X157796198Y-96361321D01*
X157995019Y-96284298D01*
X158176302Y-96172052D01*
X158333872Y-96028407D01*
X158462366Y-95858255D01*
X158557405Y-95667389D01*
X158615756Y-95462310D01*
X158635429Y-95250000D01*
X158615756Y-95037690D01*
X158557405Y-94832611D01*
X158462366Y-94641745D01*
X158333872Y-94471593D01*
X158211758Y-94360270D01*
X158176300Y-94327946D01*
X158176298Y-94327945D01*
X157995025Y-94215705D01*
X157995021Y-94215703D01*
X157995019Y-94215702D01*
X157796198Y-94138679D01*
X157609902Y-94103854D01*
X157546618Y-94071676D01*
X157510776Y-94010391D01*
X157513757Y-93939457D01*
X157554615Y-93881395D01*
X157609901Y-93856145D01*
X157796198Y-93821321D01*
X157995019Y-93744298D01*
X158176302Y-93632052D01*
X158333872Y-93488407D01*
X158462366Y-93318255D01*
X158557405Y-93127389D01*
X158615756Y-92922310D01*
X158635429Y-92710000D01*
X158615756Y-92497690D01*
X158557405Y-92292611D01*
X158462366Y-92101745D01*
X158333872Y-91931593D01*
X158231606Y-91838364D01*
X158176300Y-91787946D01*
X158176298Y-91787945D01*
X157995025Y-91675705D01*
X157995021Y-91675703D01*
X157995019Y-91675702D01*
X157796198Y-91598679D01*
X157609902Y-91563854D01*
X157546618Y-91531676D01*
X157510776Y-91470391D01*
X157513757Y-91399457D01*
X157554615Y-91341395D01*
X157609901Y-91316145D01*
X157796198Y-91281321D01*
X157995019Y-91204298D01*
X158176302Y-91092052D01*
X158333872Y-90948407D01*
X158462366Y-90778255D01*
X158557405Y-90587389D01*
X158615756Y-90382310D01*
X158635429Y-90170000D01*
X158615756Y-89957690D01*
X158557405Y-89752611D01*
X158462366Y-89561745D01*
X158333872Y-89391593D01*
X158304049Y-89364405D01*
X158176300Y-89247946D01*
X158176298Y-89247945D01*
X157995025Y-89135705D01*
X157995021Y-89135703D01*
X157995019Y-89135702D01*
X157796198Y-89058679D01*
X157609902Y-89023854D01*
X157546618Y-88991676D01*
X157510776Y-88930391D01*
X157513757Y-88859457D01*
X157554615Y-88801395D01*
X157609901Y-88776145D01*
X157796198Y-88741321D01*
X157995019Y-88664298D01*
X158176302Y-88552052D01*
X158333872Y-88408407D01*
X158462366Y-88238255D01*
X158557405Y-88047389D01*
X158615756Y-87842310D01*
X158635429Y-87630000D01*
X158615756Y-87417690D01*
X158557405Y-87212611D01*
X158462366Y-87021745D01*
X158333872Y-86851593D01*
X158304049Y-86824405D01*
X158176300Y-86707946D01*
X158176298Y-86707945D01*
X157995025Y-86595705D01*
X157995021Y-86595703D01*
X157995019Y-86595702D01*
X157861831Y-86544105D01*
X157796199Y-86518679D01*
X157743801Y-86508884D01*
X157586610Y-86479500D01*
X157373390Y-86479500D01*
X157247637Y-86503007D01*
X157163800Y-86518679D01*
X157009754Y-86578356D01*
X156964981Y-86595702D01*
X156964980Y-86595702D01*
X156964979Y-86595703D01*
X156964974Y-86595705D01*
X156783701Y-86707945D01*
X156783699Y-86707946D01*
X156626129Y-86851591D01*
X156556833Y-86943354D01*
X156497634Y-87021745D01*
X156422400Y-87172837D01*
X156402593Y-87212615D01*
X156344244Y-87417688D01*
X156324571Y-87630000D01*
X156344244Y-87842311D01*
X156402593Y-88047384D01*
X156402594Y-88047386D01*
X156402595Y-88047389D01*
X156497634Y-88238255D01*
X156621790Y-88402662D01*
X156626129Y-88408408D01*
X156783699Y-88552053D01*
X156783701Y-88552054D01*
X156964974Y-88664294D01*
X156964975Y-88664294D01*
X156964981Y-88664298D01*
X157163802Y-88741321D01*
X157350097Y-88776145D01*
X157413381Y-88808324D01*
X157449223Y-88869609D01*
X157446242Y-88940543D01*
X157405384Y-88998605D01*
X157350098Y-89023854D01*
X157237350Y-89044930D01*
X157163800Y-89058679D01*
X157009754Y-89118356D01*
X156964981Y-89135702D01*
X156964980Y-89135702D01*
X156964979Y-89135703D01*
X156964974Y-89135705D01*
X156783701Y-89247945D01*
X156783699Y-89247946D01*
X156626129Y-89391591D01*
X156539293Y-89506580D01*
X156497634Y-89561745D01*
X156426006Y-89705595D01*
X156402593Y-89752615D01*
X156344244Y-89957688D01*
X156324571Y-90170000D01*
X156344244Y-90382311D01*
X156402593Y-90587384D01*
X156402594Y-90587386D01*
X156402595Y-90587389D01*
X156497634Y-90778255D01*
X156621790Y-90942662D01*
X156626129Y-90948408D01*
X156783699Y-91092053D01*
X156783701Y-91092054D01*
X156964974Y-91204294D01*
X156964975Y-91204294D01*
X156964981Y-91204298D01*
X157163802Y-91281321D01*
X157350097Y-91316145D01*
X157413381Y-91348324D01*
X157449223Y-91409609D01*
X157446242Y-91480543D01*
X157405384Y-91538605D01*
X157350098Y-91563854D01*
X157237350Y-91584930D01*
X157163800Y-91598679D01*
X157009754Y-91658356D01*
X156964981Y-91675702D01*
X156964980Y-91675702D01*
X156964979Y-91675703D01*
X156964974Y-91675705D01*
X156783701Y-91787945D01*
X156783699Y-91787946D01*
X156626129Y-91931591D01*
X156539293Y-92046580D01*
X156497634Y-92101745D01*
X156417589Y-92262498D01*
X156402593Y-92292615D01*
X156344244Y-92497688D01*
X156324571Y-92710000D01*
X156344244Y-92922311D01*
X156402593Y-93127384D01*
X156402594Y-93127386D01*
X156402595Y-93127389D01*
X156497634Y-93318255D01*
X156606832Y-93462855D01*
X156626129Y-93488408D01*
X156783699Y-93632053D01*
X156783701Y-93632054D01*
X156964974Y-93744294D01*
X156964975Y-93744294D01*
X156964981Y-93744298D01*
X157163802Y-93821321D01*
X157350097Y-93856145D01*
X157413381Y-93888324D01*
X157449223Y-93949609D01*
X157446242Y-94020543D01*
X157405384Y-94078605D01*
X157350098Y-94103854D01*
X157262811Y-94120171D01*
X157163800Y-94138679D01*
X157009754Y-94198356D01*
X156964981Y-94215702D01*
X156964980Y-94215702D01*
X156964979Y-94215703D01*
X156964974Y-94215705D01*
X156783701Y-94327945D01*
X156783699Y-94327946D01*
X156626129Y-94471591D01*
X156556832Y-94563355D01*
X156497634Y-94641745D01*
X156431404Y-94774755D01*
X156402593Y-94832615D01*
X156344244Y-95037688D01*
X156324571Y-95250000D01*
X156344244Y-95462311D01*
X156402593Y-95667384D01*
X156402594Y-95667386D01*
X156402595Y-95667389D01*
X156497634Y-95858255D01*
X156626128Y-96028407D01*
X156626129Y-96028408D01*
X156783699Y-96172053D01*
X156783701Y-96172054D01*
X156964974Y-96284294D01*
X156964975Y-96284294D01*
X156964981Y-96284298D01*
X157163802Y-96361321D01*
X157350097Y-96396145D01*
X157413381Y-96428324D01*
X157449223Y-96489609D01*
X157446242Y-96560543D01*
X157405384Y-96618605D01*
X157350098Y-96643854D01*
X157237350Y-96664930D01*
X157163800Y-96678679D01*
X157009754Y-96738356D01*
X156964981Y-96755702D01*
X156964980Y-96755702D01*
X156964979Y-96755703D01*
X156964974Y-96755705D01*
X156783701Y-96867945D01*
X156783699Y-96867946D01*
X156626129Y-97011591D01*
X156539293Y-97126580D01*
X156497634Y-97181745D01*
X156417589Y-97342498D01*
X156402593Y-97372615D01*
X156344244Y-97577688D01*
X156324571Y-97790000D01*
X156344244Y-98002311D01*
X156402593Y-98207384D01*
X156402594Y-98207386D01*
X156402595Y-98207389D01*
X156497634Y-98398255D01*
X156626128Y-98568407D01*
X156626129Y-98568408D01*
X156783699Y-98712053D01*
X156783701Y-98712054D01*
X156964974Y-98824294D01*
X156964975Y-98824294D01*
X156964981Y-98824298D01*
X157163802Y-98901321D01*
X157350097Y-98936145D01*
X157413381Y-98968324D01*
X157449223Y-99029609D01*
X157446242Y-99100543D01*
X157405384Y-99158605D01*
X157350098Y-99183854D01*
X157262811Y-99200171D01*
X157163800Y-99218679D01*
X157009754Y-99278356D01*
X156964981Y-99295702D01*
X156964980Y-99295702D01*
X156964979Y-99295703D01*
X156964974Y-99295705D01*
X156783701Y-99407945D01*
X156783699Y-99407946D01*
X156626129Y-99551591D01*
X156539293Y-99666580D01*
X156497634Y-99721745D01*
X156416480Y-99884726D01*
X156402593Y-99912615D01*
X156344244Y-100117688D01*
X156324571Y-100330000D01*
X156344244Y-100542311D01*
X156402593Y-100747384D01*
X156402594Y-100747386D01*
X156402595Y-100747389D01*
X156497634Y-100938255D01*
X156626128Y-101108407D01*
X156626129Y-101108408D01*
X156783699Y-101252053D01*
X156783701Y-101252054D01*
X156964974Y-101364294D01*
X156964975Y-101364294D01*
X156964981Y-101364298D01*
X157163802Y-101441321D01*
X157350097Y-101476145D01*
X157413381Y-101508324D01*
X157449223Y-101569609D01*
X157446242Y-101640543D01*
X157405384Y-101698605D01*
X157350098Y-101723854D01*
X157262811Y-101740171D01*
X157163800Y-101758679D01*
X157009754Y-101818356D01*
X156964981Y-101835702D01*
X156964980Y-101835702D01*
X156964979Y-101835703D01*
X156964974Y-101835705D01*
X156783701Y-101947945D01*
X156783699Y-101947946D01*
X156626129Y-102091591D01*
X156603809Y-102121148D01*
X156497634Y-102261745D01*
X156478853Y-102299461D01*
X156430586Y-102351523D01*
X156361831Y-102369226D01*
X156294421Y-102346947D01*
X156276969Y-102332392D01*
X155404405Y-101459828D01*
X155370379Y-101397516D01*
X155367500Y-101370733D01*
X155367500Y-93923720D01*
X155367500Y-93923719D01*
X155338367Y-93814991D01*
X155282085Y-93717508D01*
X155282083Y-93717506D01*
X155282079Y-93717501D01*
X153932497Y-92367920D01*
X153932487Y-92367912D01*
X153835013Y-92311635D01*
X153835011Y-92311634D01*
X153835009Y-92311633D01*
X153726281Y-92282500D01*
X153726279Y-92282500D01*
X151010386Y-92282500D01*
X150942265Y-92262498D01*
X150897595Y-92212662D01*
X150842366Y-92101745D01*
X150713872Y-91931593D01*
X150611606Y-91838364D01*
X150556300Y-91787946D01*
X150556298Y-91787945D01*
X150375025Y-91675705D01*
X150375021Y-91675703D01*
X150375019Y-91675702D01*
X150176198Y-91598679D01*
X149989902Y-91563854D01*
X149926618Y-91531676D01*
X149890776Y-91470391D01*
X149893757Y-91399457D01*
X149934615Y-91341395D01*
X149989901Y-91316145D01*
X150176198Y-91281321D01*
X150375019Y-91204298D01*
X150556302Y-91092052D01*
X150713872Y-90948407D01*
X150842366Y-90778255D01*
X150937405Y-90587389D01*
X150995756Y-90382310D01*
X151015429Y-90170000D01*
X150995756Y-89957690D01*
X150937405Y-89752611D01*
X150842366Y-89561745D01*
X150713872Y-89391593D01*
X150684049Y-89364405D01*
X150556300Y-89247946D01*
X150556298Y-89247945D01*
X150375025Y-89135705D01*
X150375021Y-89135703D01*
X150375019Y-89135702D01*
X150176198Y-89058679D01*
X149989902Y-89023854D01*
X149926618Y-88991676D01*
X149890776Y-88930391D01*
X149893757Y-88859457D01*
X149934615Y-88801395D01*
X149989901Y-88776145D01*
X150176198Y-88741321D01*
X150375019Y-88664298D01*
X150556302Y-88552052D01*
X150713872Y-88408407D01*
X150842366Y-88238255D01*
X150937405Y-88047389D01*
X150995756Y-87842310D01*
X151015429Y-87630000D01*
X150995756Y-87417690D01*
X150937405Y-87212611D01*
X150842366Y-87021745D01*
X150713872Y-86851593D01*
X150684049Y-86824405D01*
X150556300Y-86707946D01*
X150556298Y-86707945D01*
X150375025Y-86595705D01*
X150375021Y-86595703D01*
X150375019Y-86595702D01*
X150176198Y-86518679D01*
X149989902Y-86483854D01*
X149926618Y-86451676D01*
X149890776Y-86390391D01*
X149893757Y-86319457D01*
X149934615Y-86261395D01*
X149989901Y-86236145D01*
X150176198Y-86201321D01*
X150375019Y-86124298D01*
X150556302Y-86012052D01*
X150713872Y-85868407D01*
X150842366Y-85698255D01*
X150937405Y-85507389D01*
X150995756Y-85302310D01*
X151015429Y-85090000D01*
X150995756Y-84877690D01*
X150983894Y-84835999D01*
X156404450Y-84835999D01*
X156404451Y-84836000D01*
X157049297Y-84836000D01*
X157014075Y-84897007D01*
X156980000Y-85024174D01*
X156980000Y-85155826D01*
X157014075Y-85282993D01*
X157049297Y-85344000D01*
X156404451Y-85344000D01*
X156446138Y-85490514D01*
X156446140Y-85490519D01*
X156537340Y-85673672D01*
X156660637Y-85836946D01*
X156811838Y-85974784D01*
X156985796Y-86082493D01*
X156985803Y-86082496D01*
X157176582Y-86156405D01*
X157225999Y-86165642D01*
X157226000Y-86165642D01*
X157226000Y-85520702D01*
X157287007Y-85555925D01*
X157414174Y-85590000D01*
X157545826Y-85590000D01*
X157672993Y-85555925D01*
X157734000Y-85520702D01*
X157734000Y-86165642D01*
X157783417Y-86156405D01*
X157783418Y-86156405D01*
X157974196Y-86082496D01*
X157974203Y-86082493D01*
X158148161Y-85974784D01*
X158299362Y-85836946D01*
X158422659Y-85673672D01*
X158513859Y-85490519D01*
X158513861Y-85490514D01*
X158555549Y-85344000D01*
X157910703Y-85344000D01*
X157945925Y-85282993D01*
X157980000Y-85155826D01*
X157980000Y-85024174D01*
X157945925Y-84897007D01*
X157910703Y-84836000D01*
X158555549Y-84836000D01*
X158555549Y-84835999D01*
X158513861Y-84689485D01*
X158513859Y-84689480D01*
X158422659Y-84506327D01*
X158299362Y-84343053D01*
X158148161Y-84205215D01*
X157974203Y-84097506D01*
X157974196Y-84097503D01*
X157783424Y-84023596D01*
X157734000Y-84014357D01*
X157734000Y-84659297D01*
X157672993Y-84624075D01*
X157545826Y-84590000D01*
X157414174Y-84590000D01*
X157287007Y-84624075D01*
X157226000Y-84659297D01*
X157226000Y-84014357D01*
X157176575Y-84023596D01*
X156985803Y-84097503D01*
X156985796Y-84097506D01*
X156811838Y-84205215D01*
X156660637Y-84343053D01*
X156537340Y-84506327D01*
X156446140Y-84689480D01*
X156446138Y-84689485D01*
X156404450Y-84835999D01*
X150983894Y-84835999D01*
X150937405Y-84672611D01*
X150842366Y-84481745D01*
X150713872Y-84311593D01*
X150556302Y-84167948D01*
X150556300Y-84167946D01*
X150556298Y-84167945D01*
X150375025Y-84055705D01*
X150375021Y-84055703D01*
X150375019Y-84055702D01*
X150251067Y-84007683D01*
X150176199Y-83978679D01*
X150123801Y-83968884D01*
X149966610Y-83939500D01*
X149753390Y-83939500D01*
X149627637Y-83963007D01*
X149543800Y-83978679D01*
X149389754Y-84038356D01*
X149344981Y-84055702D01*
X149344980Y-84055702D01*
X149344979Y-84055703D01*
X149344974Y-84055705D01*
X149163701Y-84167945D01*
X149163699Y-84167946D01*
X149006129Y-84311591D01*
X148929004Y-84413721D01*
X148877634Y-84481745D01*
X148806763Y-84624075D01*
X148782593Y-84672615D01*
X148724244Y-84877688D01*
X148704571Y-85090000D01*
X133235429Y-85090000D01*
X133215756Y-84877690D01*
X133157405Y-84672611D01*
X133062366Y-84481745D01*
X132933872Y-84311593D01*
X132776302Y-84167948D01*
X132776300Y-84167946D01*
X132776298Y-84167945D01*
X132595025Y-84055705D01*
X132595021Y-84055703D01*
X132595019Y-84055702D01*
X132471067Y-84007683D01*
X132396199Y-83978679D01*
X132343801Y-83968884D01*
X132186610Y-83939500D01*
X131973390Y-83939500D01*
X131847637Y-83963007D01*
X131763800Y-83978679D01*
X131609754Y-84038356D01*
X131564981Y-84055702D01*
X131564980Y-84055702D01*
X131564979Y-84055703D01*
X131564974Y-84055705D01*
X131383701Y-84167945D01*
X131383699Y-84167946D01*
X131226129Y-84311591D01*
X131097633Y-84481746D01*
X131063427Y-84550442D01*
X131045630Y-84586186D01*
X131042405Y-84592662D01*
X130994136Y-84644726D01*
X130929614Y-84662500D01*
X128326281Y-84662500D01*
X128213718Y-84662500D01*
X128155454Y-84678111D01*
X128104993Y-84691632D01*
X128104986Y-84691635D01*
X128007511Y-84747912D01*
X128007505Y-84747917D01*
X127811067Y-84944356D01*
X126859827Y-85895596D01*
X126797517Y-85929620D01*
X126770734Y-85932500D01*
X115513719Y-85932500D01*
X115404991Y-85961633D01*
X115404989Y-85961634D01*
X115404986Y-85961635D01*
X115307511Y-86017912D01*
X115307501Y-86017920D01*
X112889829Y-88435595D01*
X112827517Y-88469620D01*
X112800734Y-88472500D01*
X111989267Y-88472500D01*
X111921146Y-88452498D01*
X111900172Y-88435595D01*
X111695043Y-88230466D01*
X111661017Y-88168154D01*
X111666082Y-88097339D01*
X111708629Y-88040503D01*
X111775149Y-88015692D01*
X111807287Y-88017516D01*
X111887369Y-88032486D01*
X111948183Y-88043855D01*
X111948185Y-88043855D01*
X112152135Y-88043855D01*
X112152137Y-88043855D01*
X112352617Y-88006379D01*
X112542798Y-87932703D01*
X112716202Y-87825336D01*
X112866925Y-87687934D01*
X112887725Y-87660391D01*
X112941291Y-87589457D01*
X112989834Y-87525176D01*
X113080743Y-87342605D01*
X113136558Y-87146438D01*
X113155376Y-86943355D01*
X113136558Y-86740272D01*
X113080743Y-86544105D01*
X112989834Y-86361534D01*
X112988676Y-86360000D01*
X112866926Y-86198776D01*
X112716201Y-86061373D01*
X112716200Y-86061372D01*
X112542809Y-85954013D01*
X112542802Y-85954009D01*
X112542798Y-85954007D01*
X112426294Y-85908873D01*
X112352618Y-85880331D01*
X112277910Y-85866366D01*
X112152137Y-85842855D01*
X111948185Y-85842855D01*
X111948183Y-85842855D01*
X111887687Y-85854162D01*
X111817051Y-85847016D01*
X111775443Y-85819402D01*
X110783186Y-84827145D01*
X110755134Y-84775773D01*
X110721265Y-84763303D01*
X110707254Y-84751213D01*
X110406667Y-84450626D01*
X110372641Y-84388314D01*
X110369762Y-84361531D01*
X110369762Y-84011349D01*
X110389764Y-83943228D01*
X110443420Y-83896735D01*
X110513694Y-83886631D01*
X110578274Y-83916125D01*
X110616658Y-83975851D01*
X110621223Y-83999717D01*
X110623039Y-84019306D01*
X110624244Y-84032311D01*
X110682593Y-84237384D01*
X110682594Y-84237386D01*
X110682595Y-84237389D01*
X110777634Y-84428255D01*
X110777635Y-84428256D01*
X110777636Y-84428258D01*
X110896899Y-84586186D01*
X110910685Y-84622680D01*
X110932666Y-84627462D01*
X110957164Y-84644933D01*
X111033877Y-84714866D01*
X111063699Y-84742053D01*
X111063701Y-84742054D01*
X111244974Y-84854294D01*
X111244975Y-84854294D01*
X111244981Y-84854298D01*
X111443802Y-84931321D01*
X111653390Y-84970500D01*
X111653393Y-84970500D01*
X111866607Y-84970500D01*
X111866610Y-84970500D01*
X112076198Y-84931321D01*
X112275019Y-84854298D01*
X112456302Y-84742052D01*
X112613872Y-84598407D01*
X112742366Y-84428255D01*
X112837405Y-84237389D01*
X112895756Y-84032310D01*
X112904537Y-83937538D01*
X112930739Y-83871555D01*
X112988456Y-83830211D01*
X113059362Y-83826634D01*
X113120946Y-83861960D01*
X113153656Y-83924973D01*
X113155461Y-83937529D01*
X113161962Y-84007683D01*
X113164244Y-84032311D01*
X113222593Y-84237384D01*
X113222594Y-84237386D01*
X113222595Y-84237389D01*
X113317634Y-84428255D01*
X113441790Y-84592662D01*
X113446129Y-84598408D01*
X113603699Y-84742053D01*
X113603701Y-84742054D01*
X113784974Y-84854294D01*
X113784975Y-84854294D01*
X113784981Y-84854298D01*
X113983802Y-84931321D01*
X114193390Y-84970500D01*
X114193393Y-84970500D01*
X114406607Y-84970500D01*
X114406610Y-84970500D01*
X114616198Y-84931321D01*
X114815019Y-84854298D01*
X114996302Y-84742052D01*
X115153872Y-84598407D01*
X115282366Y-84428255D01*
X115377405Y-84237389D01*
X115435756Y-84032310D01*
X115455429Y-83820000D01*
X115435756Y-83607690D01*
X115423894Y-83565999D01*
X115764450Y-83565999D01*
X115764451Y-83566000D01*
X116409297Y-83566000D01*
X116374075Y-83627007D01*
X116340000Y-83754174D01*
X116340000Y-83885826D01*
X116374075Y-84012993D01*
X116409297Y-84074000D01*
X115764451Y-84074000D01*
X115806138Y-84220514D01*
X115806140Y-84220519D01*
X115897340Y-84403672D01*
X116020637Y-84566946D01*
X116171838Y-84704784D01*
X116345796Y-84812493D01*
X116345803Y-84812496D01*
X116536582Y-84886405D01*
X116585999Y-84895642D01*
X116586000Y-84895642D01*
X116586000Y-84250702D01*
X116647007Y-84285925D01*
X116774174Y-84320000D01*
X116905826Y-84320000D01*
X117032993Y-84285925D01*
X117094000Y-84250702D01*
X117094000Y-84895642D01*
X117143417Y-84886405D01*
X117143418Y-84886405D01*
X117334196Y-84812496D01*
X117334203Y-84812493D01*
X117508161Y-84704784D01*
X117659362Y-84566946D01*
X117782659Y-84403672D01*
X117873859Y-84220519D01*
X117873861Y-84220514D01*
X117915549Y-84074000D01*
X117270703Y-84074000D01*
X117305925Y-84012993D01*
X117340000Y-83885826D01*
X117340000Y-83820000D01*
X118224571Y-83820000D01*
X118244244Y-84032311D01*
X118302593Y-84237384D01*
X118302594Y-84237386D01*
X118302595Y-84237389D01*
X118397634Y-84428255D01*
X118521790Y-84592662D01*
X118526129Y-84598408D01*
X118683699Y-84742053D01*
X118683701Y-84742054D01*
X118864974Y-84854294D01*
X118864975Y-84854294D01*
X118864981Y-84854298D01*
X119063802Y-84931321D01*
X119273390Y-84970500D01*
X119273393Y-84970500D01*
X119486607Y-84970500D01*
X119486610Y-84970500D01*
X119696198Y-84931321D01*
X119895019Y-84854298D01*
X120076302Y-84742052D01*
X120233872Y-84598407D01*
X120362366Y-84428255D01*
X120457405Y-84237389D01*
X120515756Y-84032310D01*
X120524537Y-83937538D01*
X120550739Y-83871555D01*
X120608456Y-83830211D01*
X120679362Y-83826634D01*
X120740946Y-83861960D01*
X120773656Y-83924973D01*
X120775461Y-83937529D01*
X120781962Y-84007683D01*
X120784244Y-84032311D01*
X120842593Y-84237384D01*
X120842594Y-84237386D01*
X120842595Y-84237389D01*
X120937634Y-84428255D01*
X121061790Y-84592662D01*
X121066129Y-84598408D01*
X121223699Y-84742053D01*
X121223701Y-84742054D01*
X121404974Y-84854294D01*
X121404975Y-84854294D01*
X121404981Y-84854298D01*
X121603802Y-84931321D01*
X121813390Y-84970500D01*
X121813393Y-84970500D01*
X122026607Y-84970500D01*
X122026610Y-84970500D01*
X122236198Y-84931321D01*
X122435019Y-84854298D01*
X122616302Y-84742052D01*
X122773872Y-84598407D01*
X122902366Y-84428255D01*
X122997405Y-84237389D01*
X123055756Y-84032310D01*
X123058038Y-84007679D01*
X123084238Y-83941698D01*
X123141953Y-83900353D01*
X123212860Y-83896774D01*
X123274445Y-83932099D01*
X123307155Y-83995111D01*
X123309500Y-84019306D01*
X123309500Y-84714859D01*
X123309501Y-84714866D01*
X123312414Y-84739990D01*
X123312416Y-84739994D01*
X123357793Y-84842765D01*
X123437232Y-84922204D01*
X123437234Y-84922205D01*
X123437235Y-84922206D01*
X123540009Y-84967585D01*
X123565135Y-84970500D01*
X125354864Y-84970499D01*
X125379991Y-84967585D01*
X125482765Y-84922206D01*
X125562206Y-84842765D01*
X125607585Y-84739991D01*
X125610500Y-84714865D01*
X125610499Y-82925136D01*
X125607585Y-82900009D01*
X125562206Y-82797235D01*
X125562206Y-82797234D01*
X125482767Y-82717795D01*
X125482765Y-82717794D01*
X125379989Y-82672414D01*
X125379990Y-82672414D01*
X125354868Y-82669500D01*
X123565140Y-82669500D01*
X123565133Y-82669501D01*
X123540009Y-82672414D01*
X123540005Y-82672416D01*
X123437234Y-82717793D01*
X123357795Y-82797232D01*
X123357794Y-82797234D01*
X123312414Y-82900009D01*
X123309500Y-82925129D01*
X123309500Y-83620690D01*
X123289498Y-83688811D01*
X123235842Y-83735304D01*
X123165568Y-83745408D01*
X123100988Y-83715914D01*
X123062604Y-83656188D01*
X123058038Y-83632321D01*
X123055756Y-83607690D01*
X122997405Y-83402611D01*
X122902366Y-83211745D01*
X122773872Y-83041593D01*
X122682288Y-82958102D01*
X122616300Y-82897946D01*
X122616298Y-82897945D01*
X122435025Y-82785705D01*
X122435021Y-82785703D01*
X122435019Y-82785702D01*
X122313222Y-82738517D01*
X122236199Y-82708679D01*
X122183801Y-82698884D01*
X122026610Y-82669500D01*
X121813390Y-82669500D01*
X121687637Y-82693007D01*
X121603800Y-82708679D01*
X121449754Y-82768356D01*
X121404981Y-82785702D01*
X121404980Y-82785702D01*
X121404979Y-82785703D01*
X121404974Y-82785705D01*
X121223701Y-82897945D01*
X121223699Y-82897946D01*
X121066129Y-83041591D01*
X121042370Y-83073053D01*
X120937634Y-83211745D01*
X120925394Y-83236327D01*
X120842593Y-83402615D01*
X120784244Y-83607688D01*
X120784244Y-83607690D01*
X120775462Y-83702461D01*
X120749261Y-83768444D01*
X120691544Y-83809788D01*
X120620638Y-83813365D01*
X120559053Y-83778039D01*
X120526344Y-83715026D01*
X120524538Y-83702470D01*
X120515756Y-83607690D01*
X120457405Y-83402611D01*
X120362366Y-83211745D01*
X120233872Y-83041593D01*
X120142288Y-82958102D01*
X120076300Y-82897946D01*
X120076298Y-82897945D01*
X119895025Y-82785705D01*
X119895021Y-82785703D01*
X119895019Y-82785702D01*
X119773222Y-82738517D01*
X119696199Y-82708679D01*
X119643801Y-82698884D01*
X119486610Y-82669500D01*
X119273390Y-82669500D01*
X119147637Y-82693007D01*
X119063800Y-82708679D01*
X118909754Y-82768356D01*
X118864981Y-82785702D01*
X118864980Y-82785702D01*
X118864979Y-82785703D01*
X118864974Y-82785705D01*
X118683701Y-82897945D01*
X118683699Y-82897946D01*
X118526129Y-83041591D01*
X118502370Y-83073053D01*
X118397634Y-83211745D01*
X118385394Y-83236327D01*
X118302593Y-83402615D01*
X118244244Y-83607688D01*
X118224571Y-83820000D01*
X117340000Y-83820000D01*
X117340000Y-83754174D01*
X117305925Y-83627007D01*
X117270703Y-83566000D01*
X117915549Y-83566000D01*
X117915549Y-83565999D01*
X117873861Y-83419485D01*
X117873859Y-83419480D01*
X117782659Y-83236327D01*
X117659362Y-83073053D01*
X117508161Y-82935215D01*
X117334203Y-82827506D01*
X117334196Y-82827503D01*
X117143424Y-82753596D01*
X117094000Y-82744357D01*
X117094000Y-83389297D01*
X117032993Y-83354075D01*
X116905826Y-83320000D01*
X116774174Y-83320000D01*
X116647007Y-83354075D01*
X116586000Y-83389297D01*
X116586000Y-82744357D01*
X116536575Y-82753596D01*
X116345803Y-82827503D01*
X116345796Y-82827506D01*
X116171838Y-82935215D01*
X116020637Y-83073053D01*
X115897340Y-83236327D01*
X115806140Y-83419480D01*
X115806138Y-83419485D01*
X115764450Y-83565999D01*
X115423894Y-83565999D01*
X115377405Y-83402611D01*
X115282366Y-83211745D01*
X115153872Y-83041593D01*
X115062288Y-82958102D01*
X114996300Y-82897946D01*
X114996298Y-82897945D01*
X114815025Y-82785705D01*
X114815021Y-82785703D01*
X114815019Y-82785702D01*
X114693222Y-82738517D01*
X114616199Y-82708679D01*
X114563801Y-82698884D01*
X114406610Y-82669500D01*
X114193390Y-82669500D01*
X114067637Y-82693007D01*
X113983800Y-82708679D01*
X113829754Y-82768356D01*
X113784981Y-82785702D01*
X113784980Y-82785702D01*
X113784979Y-82785703D01*
X113784974Y-82785705D01*
X113603701Y-82897945D01*
X113603699Y-82897946D01*
X113446129Y-83041591D01*
X113422370Y-83073053D01*
X113317634Y-83211745D01*
X113305394Y-83236327D01*
X113222593Y-83402615D01*
X113164244Y-83607688D01*
X113164244Y-83607690D01*
X113155462Y-83702461D01*
X113129261Y-83768444D01*
X113071544Y-83809788D01*
X113000638Y-83813365D01*
X112939053Y-83778039D01*
X112906344Y-83715026D01*
X112904538Y-83702470D01*
X112895756Y-83607690D01*
X112837405Y-83402611D01*
X112742366Y-83211745D01*
X112613872Y-83041593D01*
X112522288Y-82958102D01*
X112456300Y-82897946D01*
X112456298Y-82897945D01*
X112275025Y-82785705D01*
X112275021Y-82785703D01*
X112275019Y-82785702D01*
X112153222Y-82738517D01*
X112076199Y-82708679D01*
X112023801Y-82698884D01*
X111866610Y-82669500D01*
X111653390Y-82669500D01*
X111527637Y-82693007D01*
X111443800Y-82708679D01*
X111289754Y-82768356D01*
X111244981Y-82785702D01*
X111244980Y-82785702D01*
X111244979Y-82785703D01*
X111244974Y-82785705D01*
X111063701Y-82897945D01*
X111063699Y-82897946D01*
X110906129Y-83041591D01*
X110882370Y-83073053D01*
X110777634Y-83211745D01*
X110765394Y-83236327D01*
X110682593Y-83402615D01*
X110624244Y-83607688D01*
X110624244Y-83607690D01*
X110621319Y-83639263D01*
X110621225Y-83640276D01*
X110595022Y-83706260D01*
X110537306Y-83747604D01*
X110466399Y-83751181D01*
X110404815Y-83715855D01*
X110372106Y-83652842D01*
X110369762Y-83628650D01*
X110369762Y-81674977D01*
X130976000Y-81674977D01*
X130976000Y-82296000D01*
X131637749Y-82296000D01*
X131604755Y-82353147D01*
X131570000Y-82482857D01*
X131570000Y-82617143D01*
X131604755Y-82746853D01*
X131637749Y-82804000D01*
X130976001Y-82804000D01*
X130976001Y-83425022D01*
X130990737Y-83499105D01*
X130990737Y-83499107D01*
X131046875Y-83583124D01*
X131130893Y-83639262D01*
X131130894Y-83639263D01*
X131204980Y-83653999D01*
X131826000Y-83653999D01*
X131826000Y-82992250D01*
X131883147Y-83025245D01*
X132012857Y-83060000D01*
X132147143Y-83060000D01*
X132276853Y-83025245D01*
X132334000Y-82992250D01*
X132334000Y-83653999D01*
X132955014Y-83653999D01*
X132955022Y-83653998D01*
X133029105Y-83639262D01*
X133029107Y-83639262D01*
X133113124Y-83583124D01*
X133169262Y-83499106D01*
X133169263Y-83499105D01*
X133183999Y-83425022D01*
X133184000Y-83425015D01*
X133184000Y-82804000D01*
X132522251Y-82804000D01*
X132555245Y-82746853D01*
X132590000Y-82617143D01*
X132590000Y-82482857D01*
X132555245Y-82353147D01*
X132522251Y-82296000D01*
X133183999Y-82296000D01*
X133183999Y-81674986D01*
X133183998Y-81674977D01*
X148756000Y-81674977D01*
X148756000Y-82296000D01*
X149417749Y-82296000D01*
X149384755Y-82353147D01*
X149350000Y-82482857D01*
X149350000Y-82617143D01*
X149384755Y-82746853D01*
X149417749Y-82804000D01*
X148756001Y-82804000D01*
X148756001Y-83425022D01*
X148770737Y-83499105D01*
X148770737Y-83499107D01*
X148826875Y-83583124D01*
X148910893Y-83639262D01*
X148910894Y-83639263D01*
X148984980Y-83653999D01*
X149606000Y-83653999D01*
X149606000Y-82992250D01*
X149663147Y-83025245D01*
X149792857Y-83060000D01*
X149927143Y-83060000D01*
X150056853Y-83025245D01*
X150114000Y-82992250D01*
X150114000Y-83653999D01*
X150735014Y-83653999D01*
X150735022Y-83653998D01*
X150809105Y-83639262D01*
X150809107Y-83639262D01*
X150893124Y-83583124D01*
X150949262Y-83499106D01*
X150949263Y-83499105D01*
X150963999Y-83425022D01*
X150964000Y-83425015D01*
X150964000Y-82804000D01*
X150302251Y-82804000D01*
X150335245Y-82746853D01*
X150370000Y-82617143D01*
X150370000Y-82482857D01*
X150335245Y-82353147D01*
X150302251Y-82296000D01*
X150963999Y-82296000D01*
X150963999Y-81674986D01*
X150963998Y-81674977D01*
X150960050Y-81655129D01*
X156329500Y-81655129D01*
X156329500Y-83444859D01*
X156329501Y-83444866D01*
X156332414Y-83469990D01*
X156332416Y-83469994D01*
X156377793Y-83572765D01*
X156457232Y-83652204D01*
X156457234Y-83652205D01*
X156457235Y-83652206D01*
X156560009Y-83697585D01*
X156585135Y-83700500D01*
X158374864Y-83700499D01*
X158399991Y-83697585D01*
X158502765Y-83652206D01*
X158582206Y-83572765D01*
X158627585Y-83469991D01*
X158630500Y-83444865D01*
X158630499Y-81655136D01*
X158627585Y-81630009D01*
X158610424Y-81591142D01*
X158582206Y-81527234D01*
X158502767Y-81447795D01*
X158502765Y-81447794D01*
X158399989Y-81402414D01*
X158399990Y-81402414D01*
X158374868Y-81399500D01*
X156585140Y-81399500D01*
X156585133Y-81399501D01*
X156560009Y-81402414D01*
X156560005Y-81402416D01*
X156457234Y-81447793D01*
X156377795Y-81527232D01*
X156377794Y-81527234D01*
X156332414Y-81630009D01*
X156329500Y-81655129D01*
X150960050Y-81655129D01*
X150949262Y-81600894D01*
X150949262Y-81600892D01*
X150893124Y-81516875D01*
X150809106Y-81460737D01*
X150809105Y-81460736D01*
X150735022Y-81446000D01*
X150114000Y-81446000D01*
X150114000Y-82107749D01*
X150056853Y-82074755D01*
X149927143Y-82040000D01*
X149792857Y-82040000D01*
X149663147Y-82074755D01*
X149606000Y-82107749D01*
X149606000Y-81446000D01*
X148984986Y-81446000D01*
X148984976Y-81446001D01*
X148910894Y-81460737D01*
X148910892Y-81460737D01*
X148826875Y-81516875D01*
X148770737Y-81600893D01*
X148770736Y-81600894D01*
X148756000Y-81674977D01*
X133183998Y-81674977D01*
X133169262Y-81600894D01*
X133169262Y-81600892D01*
X133113124Y-81516875D01*
X133029106Y-81460737D01*
X133029105Y-81460736D01*
X132955022Y-81446000D01*
X132334000Y-81446000D01*
X132334000Y-82107749D01*
X132276853Y-82074755D01*
X132147143Y-82040000D01*
X132012857Y-82040000D01*
X131883147Y-82074755D01*
X131826000Y-82107749D01*
X131826000Y-81446000D01*
X131204986Y-81446000D01*
X131204976Y-81446001D01*
X131130894Y-81460737D01*
X131130892Y-81460737D01*
X131046875Y-81516875D01*
X130990737Y-81600893D01*
X130990736Y-81600894D01*
X130976000Y-81674977D01*
X110369762Y-81674977D01*
X110369762Y-81031663D01*
X110389764Y-80963542D01*
X110406667Y-80942568D01*
X111971831Y-79377405D01*
X112034143Y-79343379D01*
X112060926Y-79340500D01*
X114213209Y-79340500D01*
X114213225Y-79340501D01*
X114220943Y-79340501D01*
X114379054Y-79340501D01*
X114379057Y-79340501D01*
X114531785Y-79299577D01*
X114556308Y-79285417D01*
X114581881Y-79270653D01*
X114581891Y-79270645D01*
X114581904Y-79270639D01*
X114668716Y-79220520D01*
X114780520Y-79108716D01*
X114780520Y-79108714D01*
X114790890Y-79098345D01*
X114790894Y-79098340D01*
X116419234Y-77470000D01*
X130924571Y-77470000D01*
X130944244Y-77682311D01*
X131002593Y-77887384D01*
X131002594Y-77887386D01*
X131002595Y-77887389D01*
X131097634Y-78078255D01*
X131196943Y-78209760D01*
X131226129Y-78248408D01*
X131383699Y-78392053D01*
X131383701Y-78392054D01*
X131564974Y-78504294D01*
X131564975Y-78504294D01*
X131564981Y-78504298D01*
X131763802Y-78581321D01*
X131950097Y-78616145D01*
X132013381Y-78648324D01*
X132049223Y-78709609D01*
X132046242Y-78780543D01*
X132005384Y-78838605D01*
X131950098Y-78863854D01*
X131837350Y-78884930D01*
X131763800Y-78898679D01*
X131609754Y-78958356D01*
X131564981Y-78975702D01*
X131564980Y-78975702D01*
X131564979Y-78975703D01*
X131564974Y-78975705D01*
X131383701Y-79087945D01*
X131383699Y-79087946D01*
X131226129Y-79231591D01*
X131174789Y-79299576D01*
X131097634Y-79401745D01*
X131004130Y-79589526D01*
X131002593Y-79592615D01*
X130944244Y-79797688D01*
X130924571Y-80010000D01*
X130944244Y-80222311D01*
X131002593Y-80427384D01*
X131002594Y-80427386D01*
X131002595Y-80427389D01*
X131097634Y-80618255D01*
X131191932Y-80743124D01*
X131226129Y-80788408D01*
X131383699Y-80932053D01*
X131383701Y-80932054D01*
X131564974Y-81044294D01*
X131564975Y-81044294D01*
X131564981Y-81044298D01*
X131763802Y-81121321D01*
X131973390Y-81160500D01*
X131973393Y-81160500D01*
X132186607Y-81160500D01*
X132186610Y-81160500D01*
X132396198Y-81121321D01*
X132595019Y-81044298D01*
X132776302Y-80932052D01*
X132933872Y-80788407D01*
X133053498Y-80629998D01*
X137535640Y-80629998D01*
X137535640Y-80630001D01*
X137543893Y-80713791D01*
X137544500Y-80726142D01*
X137544500Y-80728548D01*
X137544969Y-80730903D01*
X137546781Y-80743124D01*
X137555033Y-80826911D01*
X137579478Y-80907497D01*
X137582480Y-80919482D01*
X137582947Y-80921831D01*
X137582948Y-80921834D01*
X137583873Y-80924068D01*
X137588028Y-80935684D01*
X137612474Y-81016267D01*
X137652161Y-81090517D01*
X137657440Y-81101676D01*
X137658364Y-81103906D01*
X137658371Y-81103920D01*
X137659703Y-81105913D01*
X137666057Y-81116514D01*
X137705747Y-81190769D01*
X137705753Y-81190777D01*
X137759166Y-81255863D01*
X137766519Y-81265774D01*
X137767861Y-81267782D01*
X137769556Y-81269477D01*
X137777858Y-81278637D01*
X137831275Y-81343725D01*
X137896367Y-81397145D01*
X137905520Y-81405441D01*
X137907218Y-81407139D01*
X137907221Y-81407141D01*
X137909218Y-81408476D01*
X137919140Y-81415835D01*
X137984230Y-81469252D01*
X138058503Y-81508951D01*
X138069087Y-81515296D01*
X138071085Y-81516631D01*
X138071086Y-81516632D01*
X138073307Y-81517552D01*
X138084480Y-81522837D01*
X138158735Y-81562527D01*
X138239324Y-81586973D01*
X138250960Y-81591137D01*
X138253165Y-81592051D01*
X138255511Y-81592517D01*
X138267515Y-81595524D01*
X138348084Y-81619965D01*
X138431894Y-81628219D01*
X138444096Y-81630029D01*
X138446459Y-81630500D01*
X138448858Y-81630500D01*
X138461206Y-81631106D01*
X138492113Y-81634150D01*
X138544998Y-81639360D01*
X138545000Y-81639360D01*
X138545002Y-81639360D01*
X138597886Y-81634150D01*
X138628793Y-81631106D01*
X138641142Y-81630500D01*
X138643536Y-81630500D01*
X138643541Y-81630500D01*
X138645898Y-81630030D01*
X138658104Y-81628219D01*
X138741916Y-81619965D01*
X138822493Y-81595521D01*
X138834484Y-81592518D01*
X138836835Y-81592051D01*
X138839039Y-81591137D01*
X138850677Y-81586972D01*
X138931265Y-81562527D01*
X139005518Y-81522837D01*
X139016698Y-81517549D01*
X139018914Y-81516632D01*
X139020895Y-81515307D01*
X139031517Y-81508940D01*
X139031526Y-81508935D01*
X139105770Y-81469252D01*
X139170863Y-81415830D01*
X139180791Y-81408469D01*
X139182782Y-81407139D01*
X139184474Y-81405446D01*
X139193645Y-81397134D01*
X139258725Y-81343725D01*
X139312134Y-81278645D01*
X139320446Y-81269474D01*
X139322139Y-81267782D01*
X139323472Y-81265786D01*
X139330830Y-81255863D01*
X139384252Y-81190770D01*
X139423942Y-81116514D01*
X139430311Y-81105890D01*
X139431632Y-81103914D01*
X139432549Y-81101698D01*
X139437838Y-81090517D01*
X139477526Y-81016267D01*
X139477527Y-81016264D01*
X139501972Y-80935677D01*
X139506137Y-80924039D01*
X139507051Y-80921835D01*
X139507519Y-80919482D01*
X139510524Y-80907484D01*
X139523679Y-80864119D01*
X139534965Y-80826916D01*
X139543219Y-80743104D01*
X139545030Y-80730898D01*
X139545500Y-80728541D01*
X139545500Y-80726142D01*
X139546107Y-80713791D01*
X139554360Y-80630001D01*
X139554360Y-80629998D01*
X142385640Y-80629998D01*
X142385640Y-80630001D01*
X142393893Y-80713791D01*
X142394500Y-80726142D01*
X142394500Y-80728548D01*
X142394969Y-80730903D01*
X142396781Y-80743124D01*
X142405033Y-80826911D01*
X142429478Y-80907497D01*
X142432480Y-80919482D01*
X142432947Y-80921831D01*
X142432948Y-80921834D01*
X142433873Y-80924068D01*
X142438028Y-80935684D01*
X142462474Y-81016267D01*
X142502161Y-81090517D01*
X142507440Y-81101676D01*
X142508364Y-81103906D01*
X142508371Y-81103920D01*
X142509703Y-81105913D01*
X142516057Y-81116514D01*
X142555747Y-81190769D01*
X142555753Y-81190777D01*
X142609166Y-81255863D01*
X142616519Y-81265774D01*
X142617861Y-81267782D01*
X142619556Y-81269477D01*
X142627858Y-81278637D01*
X142681275Y-81343725D01*
X142746367Y-81397145D01*
X142755520Y-81405441D01*
X142757218Y-81407139D01*
X142757221Y-81407141D01*
X142759218Y-81408476D01*
X142769140Y-81415835D01*
X142834230Y-81469252D01*
X142908503Y-81508951D01*
X142919087Y-81515296D01*
X142921085Y-81516631D01*
X142921086Y-81516632D01*
X142923307Y-81517552D01*
X142934480Y-81522837D01*
X143008735Y-81562527D01*
X143089324Y-81586973D01*
X143100960Y-81591137D01*
X143103165Y-81592051D01*
X143105511Y-81592517D01*
X143117515Y-81595524D01*
X143198084Y-81619965D01*
X143281894Y-81628219D01*
X143294096Y-81630029D01*
X143296459Y-81630500D01*
X143298858Y-81630500D01*
X143311206Y-81631106D01*
X143342113Y-81634150D01*
X143394998Y-81639360D01*
X143395000Y-81639360D01*
X143395002Y-81639360D01*
X143447886Y-81634150D01*
X143478793Y-81631106D01*
X143491142Y-81630500D01*
X143493536Y-81630500D01*
X143493541Y-81630500D01*
X143495898Y-81630030D01*
X143508104Y-81628219D01*
X143591916Y-81619965D01*
X143672493Y-81595521D01*
X143684484Y-81592518D01*
X143686835Y-81592051D01*
X143689039Y-81591137D01*
X143700677Y-81586972D01*
X143781265Y-81562527D01*
X143855518Y-81522837D01*
X143866698Y-81517549D01*
X143868914Y-81516632D01*
X143870895Y-81515307D01*
X143881517Y-81508940D01*
X143881526Y-81508935D01*
X143955770Y-81469252D01*
X144020863Y-81415830D01*
X144030791Y-81408469D01*
X144032782Y-81407139D01*
X144034474Y-81405446D01*
X144043645Y-81397134D01*
X144108725Y-81343725D01*
X144162134Y-81278645D01*
X144170446Y-81269474D01*
X144172139Y-81267782D01*
X144173472Y-81265786D01*
X144180830Y-81255863D01*
X144234252Y-81190770D01*
X144273942Y-81116514D01*
X144280311Y-81105890D01*
X144281632Y-81103914D01*
X144282549Y-81101698D01*
X144287838Y-81090517D01*
X144327526Y-81016267D01*
X144327527Y-81016264D01*
X144351972Y-80935677D01*
X144356137Y-80924039D01*
X144357051Y-80921835D01*
X144357519Y-80919482D01*
X144360524Y-80907484D01*
X144373679Y-80864119D01*
X144384965Y-80826916D01*
X144393219Y-80743104D01*
X144395030Y-80730898D01*
X144395500Y-80728541D01*
X144395500Y-80726142D01*
X144396107Y-80713791D01*
X144404360Y-80630001D01*
X144404360Y-80629998D01*
X144396107Y-80546208D01*
X144395500Y-80533857D01*
X144395500Y-80531462D01*
X144395500Y-80531459D01*
X144395029Y-80529096D01*
X144393219Y-80516894D01*
X144384965Y-80433084D01*
X144360524Y-80352513D01*
X144357517Y-80340509D01*
X144357051Y-80338166D01*
X144357046Y-80338154D01*
X144356137Y-80335960D01*
X144351973Y-80324324D01*
X144327527Y-80243735D01*
X144287837Y-80169480D01*
X144282552Y-80158307D01*
X144281632Y-80156086D01*
X144280296Y-80154087D01*
X144273945Y-80143492D01*
X144234252Y-80069230D01*
X144180834Y-80004139D01*
X144173476Y-79994218D01*
X144172141Y-79992221D01*
X144172139Y-79992218D01*
X144170441Y-79990520D01*
X144162142Y-79981364D01*
X144108725Y-79916275D01*
X144108719Y-79916270D01*
X144108717Y-79916268D01*
X144043637Y-79862858D01*
X144034477Y-79854556D01*
X144032782Y-79852861D01*
X144030774Y-79851519D01*
X144020863Y-79844166D01*
X143955777Y-79790753D01*
X143955769Y-79790747D01*
X143881514Y-79751057D01*
X143870913Y-79744703D01*
X143868920Y-79743371D01*
X143868906Y-79743364D01*
X143866676Y-79742440D01*
X143855517Y-79737161D01*
X143781267Y-79697474D01*
X143781266Y-79697473D01*
X143781265Y-79697473D01*
X143747455Y-79687216D01*
X143700684Y-79673028D01*
X143689068Y-79668873D01*
X143686834Y-79667948D01*
X143686831Y-79667947D01*
X143684482Y-79667480D01*
X143672497Y-79664478D01*
X143591911Y-79640033D01*
X143508124Y-79631781D01*
X143495903Y-79629969D01*
X143493548Y-79629500D01*
X143493541Y-79629500D01*
X143491142Y-79629500D01*
X143478793Y-79628893D01*
X143447886Y-79625849D01*
X143395002Y-79620640D01*
X143394998Y-79620640D01*
X143342113Y-79625849D01*
X143311206Y-79628893D01*
X143298858Y-79629500D01*
X143296459Y-79629500D01*
X143296457Y-79629500D01*
X143296445Y-79629501D01*
X143294084Y-79629971D01*
X143281874Y-79631781D01*
X143198087Y-79640034D01*
X143117497Y-79664479D01*
X143105513Y-79667481D01*
X143103172Y-79667946D01*
X143103154Y-79667952D01*
X143100930Y-79668873D01*
X143089315Y-79673028D01*
X143030836Y-79690768D01*
X143008735Y-79697473D01*
X143008734Y-79697473D01*
X143008732Y-79697474D01*
X142934464Y-79737170D01*
X142923305Y-79742448D01*
X142921093Y-79743364D01*
X142921089Y-79743366D01*
X142921086Y-79743367D01*
X142921086Y-79743368D01*
X142919077Y-79744709D01*
X142908496Y-79751051D01*
X142908486Y-79751057D01*
X142834227Y-79790749D01*
X142769139Y-79844165D01*
X142759234Y-79851512D01*
X142757227Y-79852853D01*
X142757214Y-79852863D01*
X142755510Y-79854568D01*
X142746364Y-79862856D01*
X142681274Y-79916274D01*
X142627856Y-79981364D01*
X142619568Y-79990510D01*
X142617863Y-79992214D01*
X142617853Y-79992227D01*
X142616512Y-79994234D01*
X142609165Y-80004139D01*
X142555749Y-80069227D01*
X142528644Y-80119937D01*
X142516063Y-80143476D01*
X142516054Y-80143492D01*
X142509709Y-80154077D01*
X142508368Y-80156086D01*
X142508366Y-80156089D01*
X142508364Y-80156093D01*
X142507448Y-80158305D01*
X142502170Y-80169464D01*
X142462474Y-80243732D01*
X142462472Y-80243739D01*
X142438028Y-80324315D01*
X142433873Y-80335930D01*
X142432952Y-80338154D01*
X142432946Y-80338172D01*
X142432481Y-80340513D01*
X142429479Y-80352497D01*
X142405034Y-80433087D01*
X142396781Y-80516874D01*
X142394971Y-80529084D01*
X142394501Y-80531445D01*
X142394500Y-80531462D01*
X142394500Y-80533857D01*
X142393893Y-80546208D01*
X142385640Y-80629998D01*
X139554360Y-80629998D01*
X139546107Y-80546208D01*
X139545500Y-80533857D01*
X139545500Y-80531462D01*
X139545500Y-80531459D01*
X139545029Y-80529096D01*
X139543219Y-80516894D01*
X139534965Y-80433084D01*
X139510524Y-80352513D01*
X139507517Y-80340509D01*
X139507051Y-80338166D01*
X139507046Y-80338154D01*
X139506137Y-80335960D01*
X139501973Y-80324324D01*
X139477527Y-80243735D01*
X139437837Y-80169480D01*
X139432552Y-80158307D01*
X139431632Y-80156086D01*
X139430296Y-80154087D01*
X139423945Y-80143492D01*
X139384252Y-80069230D01*
X139330834Y-80004139D01*
X139323476Y-79994218D01*
X139322141Y-79992221D01*
X139322139Y-79992218D01*
X139320441Y-79990520D01*
X139312142Y-79981364D01*
X139258725Y-79916275D01*
X139258719Y-79916270D01*
X139258717Y-79916268D01*
X139193637Y-79862858D01*
X139184477Y-79854556D01*
X139182782Y-79852861D01*
X139180774Y-79851519D01*
X139170863Y-79844166D01*
X139105777Y-79790753D01*
X139105769Y-79790747D01*
X139031514Y-79751057D01*
X139020913Y-79744703D01*
X139018920Y-79743371D01*
X139018906Y-79743364D01*
X139016676Y-79742440D01*
X139005517Y-79737161D01*
X138931267Y-79697474D01*
X138931266Y-79697473D01*
X138931265Y-79697473D01*
X138897455Y-79687216D01*
X138850684Y-79673028D01*
X138839068Y-79668873D01*
X138836834Y-79667948D01*
X138836831Y-79667947D01*
X138834482Y-79667480D01*
X138822497Y-79664478D01*
X138741911Y-79640033D01*
X138658124Y-79631781D01*
X138645903Y-79629969D01*
X138643548Y-79629500D01*
X138643541Y-79629500D01*
X138641142Y-79629500D01*
X138628793Y-79628893D01*
X138597886Y-79625849D01*
X138545002Y-79620640D01*
X138544998Y-79620640D01*
X138492113Y-79625849D01*
X138461206Y-79628893D01*
X138448858Y-79629500D01*
X138446459Y-79629500D01*
X138446457Y-79629500D01*
X138446445Y-79629501D01*
X138444084Y-79629971D01*
X138431874Y-79631781D01*
X138348087Y-79640034D01*
X138267497Y-79664479D01*
X138255513Y-79667481D01*
X138253172Y-79667946D01*
X138253154Y-79667952D01*
X138250930Y-79668873D01*
X138239315Y-79673028D01*
X138180836Y-79690768D01*
X138158735Y-79697473D01*
X138158734Y-79697473D01*
X138158732Y-79697474D01*
X138084464Y-79737170D01*
X138073305Y-79742448D01*
X138071093Y-79743364D01*
X138071089Y-79743366D01*
X138071086Y-79743367D01*
X138071086Y-79743368D01*
X138069077Y-79744709D01*
X138058496Y-79751051D01*
X138058486Y-79751057D01*
X137984227Y-79790749D01*
X137919139Y-79844165D01*
X137909234Y-79851512D01*
X137907227Y-79852853D01*
X137907214Y-79852863D01*
X137905510Y-79854568D01*
X137896364Y-79862856D01*
X137831274Y-79916274D01*
X137777856Y-79981364D01*
X137769568Y-79990510D01*
X137767863Y-79992214D01*
X137767853Y-79992227D01*
X137766512Y-79994234D01*
X137759165Y-80004139D01*
X137705749Y-80069227D01*
X137678644Y-80119937D01*
X137666063Y-80143476D01*
X137666054Y-80143492D01*
X137659709Y-80154077D01*
X137658368Y-80156086D01*
X137658366Y-80156089D01*
X137658364Y-80156093D01*
X137657448Y-80158305D01*
X137652170Y-80169464D01*
X137612474Y-80243732D01*
X137612472Y-80243739D01*
X137588028Y-80324315D01*
X137583873Y-80335930D01*
X137582952Y-80338154D01*
X137582946Y-80338172D01*
X137582481Y-80340513D01*
X137579479Y-80352497D01*
X137555034Y-80433087D01*
X137546781Y-80516874D01*
X137544971Y-80529084D01*
X137544501Y-80531445D01*
X137544500Y-80531462D01*
X137544500Y-80533857D01*
X137543893Y-80546208D01*
X137535640Y-80629998D01*
X133053498Y-80629998D01*
X133062366Y-80618255D01*
X133157405Y-80427389D01*
X133215756Y-80222310D01*
X133235429Y-80010000D01*
X133215756Y-79797690D01*
X133157405Y-79592611D01*
X133062366Y-79401745D01*
X132933872Y-79231593D01*
X132776302Y-79087948D01*
X132776300Y-79087946D01*
X132776298Y-79087945D01*
X132595025Y-78975705D01*
X132595021Y-78975703D01*
X132595019Y-78975702D01*
X132396198Y-78898679D01*
X132209902Y-78863854D01*
X132146618Y-78831676D01*
X132110776Y-78770391D01*
X132113757Y-78699457D01*
X132154615Y-78641395D01*
X132209901Y-78616145D01*
X132396198Y-78581321D01*
X132595019Y-78504298D01*
X132776302Y-78392052D01*
X132933872Y-78248407D01*
X133062366Y-78078255D01*
X133157405Y-77887389D01*
X133215756Y-77682310D01*
X133223383Y-77599995D01*
X137085554Y-77599995D01*
X137085554Y-77600004D01*
X137105295Y-77813044D01*
X137157227Y-77995568D01*
X137163849Y-78018840D01*
X137259219Y-78210370D01*
X137259220Y-78210371D01*
X137259221Y-78210373D01*
X137388155Y-78381110D01*
X137388158Y-78381112D01*
X137388159Y-78381114D01*
X137400159Y-78392053D01*
X137546278Y-78525258D01*
X137546279Y-78525259D01*
X137728178Y-78637886D01*
X137728181Y-78637887D01*
X137728190Y-78637893D01*
X137927698Y-78715183D01*
X137927703Y-78715185D01*
X138138020Y-78754500D01*
X138138022Y-78754500D01*
X138351978Y-78754500D01*
X138351980Y-78754500D01*
X138562297Y-78715185D01*
X138761810Y-78637893D01*
X138943722Y-78525258D01*
X139101841Y-78381114D01*
X139230781Y-78210370D01*
X139326151Y-78018840D01*
X139384704Y-77813048D01*
X139404446Y-77600000D01*
X139404446Y-77599995D01*
X142535554Y-77599995D01*
X142535554Y-77600004D01*
X142555295Y-77813044D01*
X142607227Y-77995568D01*
X142613849Y-78018840D01*
X142709219Y-78210370D01*
X142709220Y-78210371D01*
X142709221Y-78210373D01*
X142838155Y-78381110D01*
X142838158Y-78381112D01*
X142838159Y-78381114D01*
X142850159Y-78392053D01*
X142996278Y-78525258D01*
X142996279Y-78525259D01*
X143178178Y-78637886D01*
X143178181Y-78637887D01*
X143178190Y-78637893D01*
X143377698Y-78715183D01*
X143377703Y-78715185D01*
X143588020Y-78754500D01*
X143588022Y-78754500D01*
X143801978Y-78754500D01*
X143801980Y-78754500D01*
X144012297Y-78715185D01*
X144211810Y-78637893D01*
X144393722Y-78525258D01*
X144551841Y-78381114D01*
X144680781Y-78210370D01*
X144776151Y-78018840D01*
X144834704Y-77813048D01*
X144854446Y-77600000D01*
X144842400Y-77470000D01*
X148704571Y-77470000D01*
X148724244Y-77682311D01*
X148782593Y-77887384D01*
X148782594Y-77887386D01*
X148782595Y-77887389D01*
X148877634Y-78078255D01*
X148976943Y-78209760D01*
X149006129Y-78248408D01*
X149163699Y-78392053D01*
X149163701Y-78392054D01*
X149344974Y-78504294D01*
X149344975Y-78504294D01*
X149344981Y-78504298D01*
X149543802Y-78581321D01*
X149730097Y-78616145D01*
X149793381Y-78648324D01*
X149829223Y-78709609D01*
X149826242Y-78780543D01*
X149785384Y-78838605D01*
X149730098Y-78863854D01*
X149617350Y-78884930D01*
X149543800Y-78898679D01*
X149389754Y-78958356D01*
X149344981Y-78975702D01*
X149344980Y-78975702D01*
X149344979Y-78975703D01*
X149344974Y-78975705D01*
X149163701Y-79087945D01*
X149163699Y-79087946D01*
X149006129Y-79231591D01*
X148954789Y-79299576D01*
X148877634Y-79401745D01*
X148784130Y-79589526D01*
X148782593Y-79592615D01*
X148724244Y-79797688D01*
X148704571Y-80010000D01*
X148724244Y-80222311D01*
X148782593Y-80427384D01*
X148782594Y-80427386D01*
X148782595Y-80427389D01*
X148877634Y-80618255D01*
X148971932Y-80743124D01*
X149006129Y-80788408D01*
X149163699Y-80932053D01*
X149163701Y-80932054D01*
X149344974Y-81044294D01*
X149344975Y-81044294D01*
X149344981Y-81044298D01*
X149543802Y-81121321D01*
X149753390Y-81160500D01*
X149753393Y-81160500D01*
X149966607Y-81160500D01*
X149966610Y-81160500D01*
X150176198Y-81121321D01*
X150375019Y-81044298D01*
X150556302Y-80932052D01*
X150713872Y-80788407D01*
X150842366Y-80618255D01*
X150937405Y-80427389D01*
X150995756Y-80222310D01*
X151015429Y-80010000D01*
X150995756Y-79797690D01*
X150937405Y-79592611D01*
X150842366Y-79401745D01*
X150713872Y-79231593D01*
X150556302Y-79087948D01*
X150556300Y-79087946D01*
X150556298Y-79087945D01*
X150375025Y-78975705D01*
X150375021Y-78975703D01*
X150375019Y-78975702D01*
X150176198Y-78898679D01*
X149989902Y-78863854D01*
X149926618Y-78831676D01*
X149890776Y-78770391D01*
X149893757Y-78699457D01*
X149934615Y-78641395D01*
X149989901Y-78616145D01*
X150176198Y-78581321D01*
X150375019Y-78504298D01*
X150556302Y-78392052D01*
X150713872Y-78248407D01*
X150842366Y-78078255D01*
X150937405Y-77887389D01*
X150995756Y-77682310D01*
X151015429Y-77470000D01*
X150995756Y-77257690D01*
X150937405Y-77052611D01*
X150842366Y-76861745D01*
X150713872Y-76691593D01*
X150695388Y-76674742D01*
X150556300Y-76547946D01*
X150556298Y-76547945D01*
X150375025Y-76435705D01*
X150375021Y-76435703D01*
X150375019Y-76435702D01*
X150253222Y-76388517D01*
X150176199Y-76358679D01*
X150123801Y-76348884D01*
X149966610Y-76319500D01*
X149753390Y-76319500D01*
X149627637Y-76343007D01*
X149543800Y-76358679D01*
X149389754Y-76418356D01*
X149344981Y-76435702D01*
X149344980Y-76435702D01*
X149344979Y-76435703D01*
X149344974Y-76435705D01*
X149163701Y-76547945D01*
X149163699Y-76547946D01*
X149006129Y-76691591D01*
X148919293Y-76806580D01*
X148877634Y-76861745D01*
X148806837Y-77003926D01*
X148782593Y-77052615D01*
X148724244Y-77257688D01*
X148704571Y-77470000D01*
X144842400Y-77470000D01*
X144834704Y-77386952D01*
X144776151Y-77181160D01*
X144680781Y-76989630D01*
X144623587Y-76913893D01*
X144551844Y-76818889D01*
X144393721Y-76674741D01*
X144393720Y-76674740D01*
X144211821Y-76562113D01*
X144211814Y-76562109D01*
X144211810Y-76562107D01*
X144175262Y-76547948D01*
X144012301Y-76484816D01*
X144012302Y-76484816D01*
X144012297Y-76484815D01*
X143801980Y-76445500D01*
X143588020Y-76445500D01*
X143429313Y-76475167D01*
X143377697Y-76484816D01*
X143178194Y-76562105D01*
X143178178Y-76562113D01*
X142996279Y-76674740D01*
X142996278Y-76674741D01*
X142838155Y-76818889D01*
X142709221Y-76989626D01*
X142613849Y-77181160D01*
X142613847Y-77181165D01*
X142555295Y-77386955D01*
X142535554Y-77599995D01*
X139404446Y-77599995D01*
X139384704Y-77386952D01*
X139326151Y-77181160D01*
X139230781Y-76989630D01*
X139173587Y-76913893D01*
X139101844Y-76818889D01*
X138943721Y-76674741D01*
X138943720Y-76674740D01*
X138761821Y-76562113D01*
X138761814Y-76562109D01*
X138761810Y-76562107D01*
X138725262Y-76547948D01*
X138562301Y-76484816D01*
X138562302Y-76484816D01*
X138562297Y-76484815D01*
X138351980Y-76445500D01*
X138138020Y-76445500D01*
X137979313Y-76475167D01*
X137927697Y-76484816D01*
X137728194Y-76562105D01*
X137728178Y-76562113D01*
X137546279Y-76674740D01*
X137546278Y-76674741D01*
X137388155Y-76818889D01*
X137259221Y-76989626D01*
X137163849Y-77181160D01*
X137163847Y-77181165D01*
X137105295Y-77386955D01*
X137085554Y-77599995D01*
X133223383Y-77599995D01*
X133235429Y-77470000D01*
X133215756Y-77257690D01*
X133157405Y-77052611D01*
X133062366Y-76861745D01*
X132933872Y-76691593D01*
X132915388Y-76674742D01*
X132776300Y-76547946D01*
X132776298Y-76547945D01*
X132595025Y-76435705D01*
X132595021Y-76435703D01*
X132595019Y-76435702D01*
X132473222Y-76388517D01*
X132396199Y-76358679D01*
X132343801Y-76348884D01*
X132186610Y-76319500D01*
X131973390Y-76319500D01*
X131847637Y-76343007D01*
X131763800Y-76358679D01*
X131609754Y-76418356D01*
X131564981Y-76435702D01*
X131564980Y-76435702D01*
X131564979Y-76435703D01*
X131564974Y-76435705D01*
X131383701Y-76547945D01*
X131383699Y-76547946D01*
X131226129Y-76691591D01*
X131139293Y-76806580D01*
X131097634Y-76861745D01*
X131026837Y-77003926D01*
X131002593Y-77052615D01*
X130944244Y-77257688D01*
X130924571Y-77470000D01*
X116419234Y-77470000D01*
X119019574Y-74869659D01*
X119081884Y-74835635D01*
X119131816Y-74834901D01*
X119268757Y-74860500D01*
X119268760Y-74860500D01*
X119491240Y-74860500D01*
X119491243Y-74860500D01*
X119709940Y-74819618D01*
X119709944Y-74819616D01*
X119709946Y-74819616D01*
X119763298Y-74798946D01*
X119917401Y-74739247D01*
X120106562Y-74622124D01*
X120270981Y-74472236D01*
X120405058Y-74294689D01*
X120405059Y-74294685D01*
X120405061Y-74294684D01*
X120504225Y-74095537D01*
X120504225Y-74095534D01*
X120504229Y-74095528D01*
X120518810Y-74044278D01*
X120556689Y-73984233D01*
X120621019Y-73954198D01*
X120691376Y-73963710D01*
X120745421Y-74009749D01*
X120765996Y-74077699D01*
X120766000Y-74078760D01*
X120766000Y-74585013D01*
X120766001Y-74585022D01*
X120780737Y-74659105D01*
X120780737Y-74659107D01*
X120836875Y-74743124D01*
X120920893Y-74799262D01*
X120920894Y-74799263D01*
X120994980Y-74813999D01*
X121666000Y-74813999D01*
X121666000Y-74032968D01*
X121746306Y-74079333D01*
X121860756Y-74110000D01*
X121979244Y-74110000D01*
X122093694Y-74079333D01*
X122174000Y-74032968D01*
X122174000Y-74813999D01*
X122845014Y-74813999D01*
X122845022Y-74813998D01*
X122919105Y-74799262D01*
X122919107Y-74799262D01*
X123003124Y-74743124D01*
X123059262Y-74659106D01*
X123059263Y-74659105D01*
X123073999Y-74585022D01*
X123074000Y-74585015D01*
X123074000Y-73914000D01*
X122292968Y-73914000D01*
X122339333Y-73833694D01*
X122370000Y-73719244D01*
X122370000Y-73600756D01*
X122339333Y-73486306D01*
X122292968Y-73406000D01*
X123073999Y-73406000D01*
X123073999Y-72734986D01*
X123073998Y-72734977D01*
X123059262Y-72660894D01*
X123059262Y-72660892D01*
X123003124Y-72576875D01*
X122919106Y-72520737D01*
X122919105Y-72520736D01*
X122845022Y-72506000D01*
X122174000Y-72506000D01*
X122174000Y-73287031D01*
X122093694Y-73240667D01*
X121979244Y-73210000D01*
X121860756Y-73210000D01*
X121746306Y-73240667D01*
X121666000Y-73287031D01*
X121666000Y-72506000D01*
X120994986Y-72506000D01*
X120994976Y-72506001D01*
X120920894Y-72520737D01*
X120920892Y-72520737D01*
X120836875Y-72576875D01*
X120780737Y-72660893D01*
X120780736Y-72660894D01*
X120766000Y-72734977D01*
X120766000Y-73241237D01*
X120745998Y-73309358D01*
X120692342Y-73355851D01*
X120622068Y-73365955D01*
X120557488Y-73336461D01*
X120519104Y-73276735D01*
X120518810Y-73275718D01*
X120504231Y-73224479D01*
X120504225Y-73224462D01*
X120405061Y-73025315D01*
X120405057Y-73025310D01*
X120270982Y-72847764D01*
X120106561Y-72697875D01*
X120106560Y-72697874D01*
X119917412Y-72580759D01*
X119917405Y-72580755D01*
X119917401Y-72580753D01*
X119907391Y-72576875D01*
X119709946Y-72500383D01*
X119670972Y-72493097D01*
X119491243Y-72459500D01*
X119268757Y-72459500D01*
X119127674Y-72485873D01*
X119050053Y-72500383D01*
X118842603Y-72580751D01*
X118842587Y-72580759D01*
X118653439Y-72697874D01*
X118653438Y-72697875D01*
X118489017Y-72847764D01*
X118354942Y-73025310D01*
X118354938Y-73025315D01*
X118255774Y-73224462D01*
X118255768Y-73224479D01*
X118194885Y-73438460D01*
X118194885Y-73438464D01*
X118174357Y-73660000D01*
X118194885Y-73881536D01*
X118199948Y-73899334D01*
X118199353Y-73970326D01*
X118167854Y-74022909D01*
X114088170Y-78102595D01*
X114025858Y-78136620D01*
X113999075Y-78139500D01*
X112575282Y-78139500D01*
X112507161Y-78119498D01*
X112460668Y-78065842D01*
X112450564Y-77995568D01*
X112480058Y-77930988D01*
X112538705Y-77892926D01*
X112864435Y-77794118D01*
X113191269Y-77658739D01*
X113503259Y-77491976D01*
X113797402Y-77295436D01*
X114070864Y-77071012D01*
X114321012Y-76820864D01*
X114545436Y-76547402D01*
X114741976Y-76253259D01*
X114908739Y-75941269D01*
X115044118Y-75614435D01*
X115146809Y-75275905D01*
X115215825Y-74928940D01*
X115250500Y-74576881D01*
X115250500Y-74223119D01*
X115215825Y-73871060D01*
X115146809Y-73524095D01*
X115044118Y-73185565D01*
X114908739Y-72858731D01*
X114741976Y-72546741D01*
X114711000Y-72500382D01*
X114545435Y-72252596D01*
X114518684Y-72220000D01*
X149674532Y-72220000D01*
X149694365Y-72446695D01*
X149753260Y-72666493D01*
X149753262Y-72666498D01*
X149849433Y-72872737D01*
X149979948Y-73059134D01*
X149979957Y-73059144D01*
X150140855Y-73220042D01*
X150140865Y-73220051D01*
X150327262Y-73350566D01*
X150327261Y-73350566D01*
X150338595Y-73355851D01*
X150533504Y-73446739D01*
X150753308Y-73505635D01*
X150980000Y-73525468D01*
X151206692Y-73505635D01*
X151426496Y-73446739D01*
X151632734Y-73350568D01*
X151705082Y-73299910D01*
X151819134Y-73220051D01*
X151819136Y-73220048D01*
X151819139Y-73220047D01*
X151980047Y-73059139D01*
X152003734Y-73025311D01*
X152110566Y-72872737D01*
X152110566Y-72872736D01*
X152110568Y-72872734D01*
X152206739Y-72666496D01*
X152265635Y-72446692D01*
X152285468Y-72220000D01*
X156174532Y-72220000D01*
X156194365Y-72446695D01*
X156253260Y-72666493D01*
X156253262Y-72666498D01*
X156349433Y-72872737D01*
X156479948Y-73059134D01*
X156479957Y-73059144D01*
X156640855Y-73220042D01*
X156640865Y-73220051D01*
X156827262Y-73350566D01*
X156827261Y-73350566D01*
X156838595Y-73355851D01*
X157033504Y-73446739D01*
X157253308Y-73505635D01*
X157480000Y-73525468D01*
X157706692Y-73505635D01*
X157926496Y-73446739D01*
X158132734Y-73350568D01*
X158205082Y-73299910D01*
X158319134Y-73220051D01*
X158319136Y-73220048D01*
X158319139Y-73220047D01*
X158480047Y-73059139D01*
X158503734Y-73025311D01*
X158610566Y-72872737D01*
X158610566Y-72872736D01*
X158610568Y-72872734D01*
X158706739Y-72666496D01*
X158765635Y-72446692D01*
X158785468Y-72220000D01*
X158765635Y-71993308D01*
X158706739Y-71773504D01*
X158610568Y-71567266D01*
X158610567Y-71567265D01*
X158610566Y-71567262D01*
X158480051Y-71380865D01*
X158480042Y-71380855D01*
X158319144Y-71219957D01*
X158319134Y-71219948D01*
X158132737Y-71089433D01*
X158132738Y-71089433D01*
X157926498Y-70993262D01*
X157926493Y-70993260D01*
X157706695Y-70934365D01*
X157480000Y-70914532D01*
X157253304Y-70934365D01*
X157033506Y-70993260D01*
X157033501Y-70993262D01*
X156827262Y-71089433D01*
X156640865Y-71219948D01*
X156640855Y-71219957D01*
X156479957Y-71380855D01*
X156479948Y-71380865D01*
X156349433Y-71567262D01*
X156253262Y-71773501D01*
X156253260Y-71773506D01*
X156194365Y-71993304D01*
X156174532Y-72220000D01*
X152285468Y-72220000D01*
X152265635Y-71993308D01*
X152206739Y-71773504D01*
X152110568Y-71567266D01*
X152110567Y-71567265D01*
X152110566Y-71567262D01*
X151980051Y-71380865D01*
X151980042Y-71380855D01*
X151819144Y-71219957D01*
X151819134Y-71219948D01*
X151632737Y-71089433D01*
X151632738Y-71089433D01*
X151426498Y-70993262D01*
X151426493Y-70993260D01*
X151206695Y-70934365D01*
X150980000Y-70914532D01*
X150753304Y-70934365D01*
X150533506Y-70993260D01*
X150533501Y-70993262D01*
X150327262Y-71089433D01*
X150140865Y-71219948D01*
X150140855Y-71219957D01*
X149979957Y-71380855D01*
X149979948Y-71380865D01*
X149849433Y-71567262D01*
X149753262Y-71773501D01*
X149753260Y-71773506D01*
X149694365Y-71993304D01*
X149674532Y-72220000D01*
X114518684Y-72220000D01*
X114321025Y-71979151D01*
X114320999Y-71979122D01*
X114070877Y-71729000D01*
X114070848Y-71728974D01*
X113797403Y-71504564D01*
X113503261Y-71308025D01*
X113191269Y-71141261D01*
X112864439Y-71005883D01*
X112864430Y-71005880D01*
X112628673Y-70934365D01*
X112525905Y-70903191D01*
X112525901Y-70903190D01*
X112525894Y-70903188D01*
X112178945Y-70834176D01*
X112178940Y-70834175D01*
X112178933Y-70834174D01*
X112178924Y-70834173D01*
X111826887Y-70799500D01*
X111826881Y-70799500D01*
X111473119Y-70799500D01*
X111473112Y-70799500D01*
X111121075Y-70834173D01*
X111121063Y-70834174D01*
X111121060Y-70834175D01*
X111121057Y-70834175D01*
X111121054Y-70834176D01*
X110774105Y-70903188D01*
X110435569Y-71005880D01*
X110435560Y-71005883D01*
X110108730Y-71141261D01*
X109796738Y-71308025D01*
X109502596Y-71504564D01*
X109229151Y-71728974D01*
X109229122Y-71729000D01*
X108979000Y-71979122D01*
X108978974Y-71979151D01*
X108754564Y-72252596D01*
X108558025Y-72546738D01*
X108391261Y-72858730D01*
X108255883Y-73185560D01*
X108255880Y-73185569D01*
X108153188Y-73524105D01*
X108084176Y-73871054D01*
X108084173Y-73871075D01*
X108049500Y-74223112D01*
X108049500Y-74576887D01*
X108084173Y-74928924D01*
X108084176Y-74928945D01*
X108153188Y-75275894D01*
X108153190Y-75275901D01*
X108153191Y-75275905D01*
X108167355Y-75322598D01*
X108255880Y-75614430D01*
X108255883Y-75614439D01*
X108391261Y-75941269D01*
X108558025Y-76253261D01*
X108754564Y-76547403D01*
X108978974Y-76820848D01*
X108979000Y-76820877D01*
X109229122Y-77070999D01*
X109229131Y-77071007D01*
X109229136Y-77071012D01*
X109229141Y-77071016D01*
X109229151Y-77071025D01*
X109502596Y-77295435D01*
X109639561Y-77386952D01*
X109796741Y-77491976D01*
X110108731Y-77658739D01*
X110435565Y-77794118D01*
X110774095Y-77896809D01*
X111121060Y-77965825D01*
X111396145Y-77992918D01*
X111461976Y-78019500D01*
X111502986Y-78077455D01*
X111506153Y-78148381D01*
X111470472Y-78209760D01*
X111446795Y-78227429D01*
X111391290Y-78259475D01*
X111391277Y-78259485D01*
X109860017Y-79790747D01*
X109400548Y-80250216D01*
X109400546Y-80250218D01*
X109344645Y-80306118D01*
X109288745Y-80362018D01*
X109288740Y-80362024D01*
X109251003Y-80427388D01*
X109209687Y-80498947D01*
X109209685Y-80498952D01*
X109201611Y-80529084D01*
X109168761Y-80651681D01*
X109168761Y-80651683D01*
X109168761Y-80819945D01*
X109168762Y-80819958D01*
X109168762Y-84575664D01*
X109168761Y-84575682D01*
X109168761Y-84583399D01*
X109168761Y-84741513D01*
X109198981Y-84854294D01*
X109209685Y-84894241D01*
X109209686Y-84894244D01*
X109238620Y-84944356D01*
X109238621Y-84944359D01*
X109253713Y-84970499D01*
X109288742Y-85031172D01*
X109288745Y-85031175D01*
X109288748Y-85031179D01*
X109407721Y-85150152D01*
X109407735Y-85150164D01*
X110924829Y-86667258D01*
X110958855Y-86729570D01*
X110961196Y-86767976D01*
X110948955Y-86900080D01*
X110944946Y-86943354D01*
X110963764Y-87146441D01*
X110971275Y-87172837D01*
X110970679Y-87243831D01*
X110931794Y-87303232D01*
X110866968Y-87332182D01*
X110796782Y-87321488D01*
X110760990Y-87296413D01*
X109482497Y-86017920D01*
X109482487Y-86017912D01*
X109385013Y-85961635D01*
X109385011Y-85961634D01*
X109385009Y-85961633D01*
X109276281Y-85932500D01*
X109276279Y-85932500D01*
X107830386Y-85932500D01*
X107762265Y-85912498D01*
X107717595Y-85862662D01*
X107713363Y-85854162D01*
X107662366Y-85751745D01*
X107533872Y-85581593D01*
X107504049Y-85554405D01*
X107376300Y-85437946D01*
X107376298Y-85437945D01*
X107195025Y-85325705D01*
X107195021Y-85325703D01*
X107195019Y-85325702D01*
X107073222Y-85278517D01*
X106996199Y-85248679D01*
X106943801Y-85238884D01*
X106786610Y-85209500D01*
X106573390Y-85209500D01*
X106447637Y-85233007D01*
X106363800Y-85248679D01*
X106209754Y-85308356D01*
X106164981Y-85325702D01*
X106164980Y-85325702D01*
X106164979Y-85325703D01*
X106164974Y-85325705D01*
X105983701Y-85437945D01*
X105983699Y-85437946D01*
X105826129Y-85581591D01*
X105739293Y-85696580D01*
X105697634Y-85751745D01*
X105626006Y-85895595D01*
X105602593Y-85942615D01*
X105544244Y-86147688D01*
X105524571Y-86360000D01*
X102550000Y-86360000D01*
X102550000Y-83565999D01*
X105604450Y-83565999D01*
X105604451Y-83566000D01*
X106249297Y-83566000D01*
X106214075Y-83627007D01*
X106180000Y-83754174D01*
X106180000Y-83885826D01*
X106214075Y-84012993D01*
X106249297Y-84074000D01*
X105604451Y-84074000D01*
X105646138Y-84220514D01*
X105646140Y-84220519D01*
X105737340Y-84403672D01*
X105860637Y-84566946D01*
X106011838Y-84704784D01*
X106185796Y-84812493D01*
X106185803Y-84812496D01*
X106376582Y-84886405D01*
X106425999Y-84895642D01*
X106426000Y-84895642D01*
X106426000Y-84250702D01*
X106487007Y-84285925D01*
X106614174Y-84320000D01*
X106745826Y-84320000D01*
X106872993Y-84285925D01*
X106934000Y-84250702D01*
X106934000Y-84895642D01*
X106983417Y-84886405D01*
X106983418Y-84886405D01*
X107174196Y-84812496D01*
X107174203Y-84812493D01*
X107348161Y-84704784D01*
X107499362Y-84566946D01*
X107622659Y-84403672D01*
X107713859Y-84220519D01*
X107713861Y-84220514D01*
X107755549Y-84074000D01*
X107110703Y-84074000D01*
X107145925Y-84012993D01*
X107180000Y-83885826D01*
X107180000Y-83754174D01*
X107145925Y-83627007D01*
X107110703Y-83566000D01*
X107755549Y-83566000D01*
X107755549Y-83565999D01*
X107713861Y-83419485D01*
X107713859Y-83419480D01*
X107622659Y-83236327D01*
X107499362Y-83073053D01*
X107348161Y-82935215D01*
X107174203Y-82827506D01*
X107174196Y-82827503D01*
X106983424Y-82753596D01*
X106934000Y-82744357D01*
X106934000Y-83389297D01*
X106872993Y-83354075D01*
X106745826Y-83320000D01*
X106614174Y-83320000D01*
X106487007Y-83354075D01*
X106426000Y-83389297D01*
X106426000Y-82744357D01*
X106376575Y-82753596D01*
X106185803Y-82827503D01*
X106185796Y-82827506D01*
X106011838Y-82935215D01*
X105860637Y-83073053D01*
X105737340Y-83236327D01*
X105646140Y-83419480D01*
X105646138Y-83419485D01*
X105604450Y-83565999D01*
X102550000Y-83565999D01*
X102550000Y-80385129D01*
X105529500Y-80385129D01*
X105529500Y-82174859D01*
X105529501Y-82174866D01*
X105532414Y-82199990D01*
X105532416Y-82199994D01*
X105577793Y-82302765D01*
X105657232Y-82382204D01*
X105657234Y-82382205D01*
X105657235Y-82382206D01*
X105760009Y-82427585D01*
X105785135Y-82430500D01*
X107574864Y-82430499D01*
X107599991Y-82427585D01*
X107702765Y-82382206D01*
X107782206Y-82302765D01*
X107827585Y-82199991D01*
X107830500Y-82174865D01*
X107830499Y-80385136D01*
X107827585Y-80360009D01*
X107782206Y-80257235D01*
X107782206Y-80257234D01*
X107702767Y-80177795D01*
X107702765Y-80177794D01*
X107599989Y-80132414D01*
X107599990Y-80132414D01*
X107574868Y-80129500D01*
X105785140Y-80129500D01*
X105785133Y-80129501D01*
X105760009Y-80132414D01*
X105760005Y-80132416D01*
X105657234Y-80177793D01*
X105577795Y-80257232D01*
X105577794Y-80257234D01*
X105532414Y-80360009D01*
X105529500Y-80385129D01*
X102550000Y-80385129D01*
X102550000Y-69976000D01*
X102570002Y-69907879D01*
X102623658Y-69861386D01*
X102676000Y-69850000D01*
X137160000Y-69850000D01*
X137160000Y-67720000D01*
X149721210Y-67720000D01*
X149740334Y-67938590D01*
X149797123Y-68150529D01*
X149797125Y-68150534D01*
X149889857Y-68349398D01*
X149931671Y-68409115D01*
X149931672Y-68409115D01*
X150455016Y-67885771D01*
X150467482Y-67932292D01*
X150539890Y-68057708D01*
X150642292Y-68160110D01*
X150767708Y-68232518D01*
X150814226Y-68244982D01*
X150290883Y-68768325D01*
X150290883Y-68768327D01*
X150350600Y-68810141D01*
X150350605Y-68810144D01*
X150549465Y-68902874D01*
X150549470Y-68902876D01*
X150761409Y-68959665D01*
X150980000Y-68978789D01*
X151198590Y-68959665D01*
X151410529Y-68902876D01*
X151410534Y-68902874D01*
X151609391Y-68810145D01*
X151669115Y-68768325D01*
X151669115Y-68768324D01*
X151145773Y-68244982D01*
X151192292Y-68232518D01*
X151317708Y-68160110D01*
X151420110Y-68057708D01*
X151492518Y-67932292D01*
X151504982Y-67885773D01*
X152028324Y-68409115D01*
X152028325Y-68409115D01*
X152070145Y-68349391D01*
X152162874Y-68150534D01*
X152162876Y-68150529D01*
X152219665Y-67938590D01*
X152238789Y-67720000D01*
X156221210Y-67720000D01*
X156240334Y-67938590D01*
X156297123Y-68150529D01*
X156297125Y-68150534D01*
X156389857Y-68349398D01*
X156431671Y-68409115D01*
X156431672Y-68409115D01*
X156955016Y-67885771D01*
X156967482Y-67932292D01*
X157039890Y-68057708D01*
X157142292Y-68160110D01*
X157267708Y-68232518D01*
X157314226Y-68244982D01*
X156790883Y-68768325D01*
X156790883Y-68768327D01*
X156850600Y-68810141D01*
X156850605Y-68810144D01*
X157049465Y-68902874D01*
X157049470Y-68902876D01*
X157261409Y-68959665D01*
X157480000Y-68978789D01*
X157698590Y-68959665D01*
X157910529Y-68902876D01*
X157910534Y-68902874D01*
X158109391Y-68810145D01*
X158169115Y-68768325D01*
X158169115Y-68768324D01*
X157645773Y-68244982D01*
X157692292Y-68232518D01*
X157817708Y-68160110D01*
X157920110Y-68057708D01*
X157992518Y-67932292D01*
X158004982Y-67885773D01*
X158528324Y-68409115D01*
X158528325Y-68409115D01*
X158570145Y-68349391D01*
X158662874Y-68150534D01*
X158662876Y-68150529D01*
X158719665Y-67938590D01*
X158738789Y-67720000D01*
X158719665Y-67501409D01*
X158662876Y-67289470D01*
X158662874Y-67289465D01*
X158570144Y-67090605D01*
X158570141Y-67090600D01*
X158528327Y-67030883D01*
X158528325Y-67030883D01*
X158004982Y-67554226D01*
X157992518Y-67507708D01*
X157920110Y-67382292D01*
X157817708Y-67279890D01*
X157692292Y-67207482D01*
X157645772Y-67195016D01*
X158169115Y-66671672D01*
X158169115Y-66671671D01*
X158109398Y-66629857D01*
X158109399Y-66629857D01*
X157910534Y-66537125D01*
X157910529Y-66537123D01*
X157698590Y-66480334D01*
X157480000Y-66461210D01*
X157261409Y-66480334D01*
X157049470Y-66537123D01*
X157049465Y-66537125D01*
X156850605Y-66629855D01*
X156790882Y-66671673D01*
X157314226Y-67195017D01*
X157267708Y-67207482D01*
X157142292Y-67279890D01*
X157039890Y-67382292D01*
X156967482Y-67507708D01*
X156955017Y-67554226D01*
X156431673Y-67030882D01*
X156389855Y-67090605D01*
X156297125Y-67289465D01*
X156297123Y-67289470D01*
X156240334Y-67501409D01*
X156221210Y-67720000D01*
X152238789Y-67720000D01*
X152219665Y-67501409D01*
X152162876Y-67289470D01*
X152162874Y-67289465D01*
X152070144Y-67090605D01*
X152070141Y-67090600D01*
X152028327Y-67030883D01*
X152028325Y-67030883D01*
X151504982Y-67554226D01*
X151492518Y-67507708D01*
X151420110Y-67382292D01*
X151317708Y-67279890D01*
X151192292Y-67207482D01*
X151145772Y-67195016D01*
X151669115Y-66671672D01*
X151669115Y-66671671D01*
X151609398Y-66629857D01*
X151609399Y-66629857D01*
X151410534Y-66537125D01*
X151410529Y-66537123D01*
X151198590Y-66480334D01*
X150980000Y-66461210D01*
X150761409Y-66480334D01*
X150549470Y-66537123D01*
X150549465Y-66537125D01*
X150350605Y-66629855D01*
X150290882Y-66671673D01*
X150814226Y-67195017D01*
X150767708Y-67207482D01*
X150642292Y-67279890D01*
X150539890Y-67382292D01*
X150467482Y-67507708D01*
X150455017Y-67554226D01*
X149931673Y-67030882D01*
X149889855Y-67090605D01*
X149797125Y-67289465D01*
X149797123Y-67289470D01*
X149740334Y-67501409D01*
X149721210Y-67720000D01*
X137160000Y-67720000D01*
X137160000Y-61086000D01*
X137180002Y-61017879D01*
X137233658Y-60971386D01*
X137286000Y-60960000D01*
X164974000Y-60960000D01*
X165042121Y-60980002D01*
G37*
%TD.AperFunction*%
%TD*%
M02*
