%TF.GenerationSoftware,KiCad,Pcbnew,8.0.8*%
%TF.CreationDate,2025-08-16T13:47:39+01:00*%
%TF.ProjectId,UKMARSBOT_RP2040Mezzanine,554b4d41-5253-4424-9f54-5f5250323034,rev?*%
%TF.SameCoordinates,Original*%
%TF.FileFunction,Soldermask,Bot*%
%TF.FilePolarity,Negative*%
%FSLAX46Y46*%
G04 Gerber Fmt 4.6, Leading zero omitted, Abs format (unit mm)*
G04 Created by KiCad (PCBNEW 8.0.8) date 2025-08-16 13:47:39*
%MOMM*%
%LPD*%
G01*
G04 APERTURE LIST*
G04 Aperture macros list*
%AMRoundRect*
0 Rectangle with rounded corners*
0 $1 Rounding radius*
0 $2 $3 $4 $5 $6 $7 $8 $9 X,Y pos of 4 corners*
0 Add a 4 corners polygon primitive as box body*
4,1,4,$2,$3,$4,$5,$6,$7,$8,$9,$2,$3,0*
0 Add four circle primitives for the rounded corners*
1,1,$1+$1,$2,$3*
1,1,$1+$1,$4,$5*
1,1,$1+$1,$6,$7*
1,1,$1+$1,$8,$9*
0 Add four rect primitives between the rounded corners*
20,1,$1+$1,$2,$3,$4,$5,0*
20,1,$1+$1,$4,$5,$6,$7,0*
20,1,$1+$1,$6,$7,$8,$9,0*
20,1,$1+$1,$8,$9,$2,$3,0*%
%AMFreePoly0*
4,1,28,0.605014,0.794986,0.644504,0.794986,0.724698,0.756366,0.780194,0.686777,0.800000,0.600000,0.800000,-0.600000,0.780194,-0.686777,0.724698,-0.756366,0.644504,-0.794986,0.605014,-0.794986,0.600000,-0.800000,0.000000,-0.800000,-0.178017,-0.779942,-0.347107,-0.720775,-0.498792,-0.625465,-0.625465,-0.498792,-0.720775,-0.347107,-0.779942,-0.178017,-0.800000,0.000000,-0.779942,0.178017,
-0.720775,0.347107,-0.625465,0.498792,-0.498792,0.625465,-0.347107,0.720775,-0.178017,0.779942,0.000000,0.800000,0.600000,0.800000,0.605014,0.794986,0.605014,0.794986,$1*%
%AMFreePoly1*
4,1,28,0.178017,0.779942,0.347107,0.720775,0.498792,0.625465,0.625465,0.498792,0.720775,0.347107,0.779942,0.178017,0.800000,0.000000,0.779942,-0.178017,0.720775,-0.347107,0.625465,-0.498792,0.498792,-0.625465,0.347107,-0.720775,0.178017,-0.779942,0.000000,-0.800000,-0.600000,-0.800000,-0.605014,-0.794986,-0.644504,-0.794986,-0.724698,-0.756366,-0.780194,-0.686777,-0.800000,-0.600000,
-0.800000,0.600000,-0.780194,0.686777,-0.724698,0.756366,-0.644504,0.794986,-0.605014,0.794986,-0.600000,0.800000,0.000000,0.800000,0.178017,0.779942,0.178017,0.779942,$1*%
G04 Aperture macros list end*
%ADD10C,3.200000*%
%ADD11RoundRect,0.101600X-0.762000X-1.524000X0.762000X-1.524000X0.762000X1.524000X-0.762000X1.524000X0*%
%ADD12O,1.727200X3.251200*%
%ADD13C,2.000000*%
%ADD14RoundRect,0.200000X-0.600000X-0.600000X0.600000X-0.600000X0.600000X0.600000X-0.600000X0.600000X0*%
%ADD15C,1.600000*%
%ADD16FreePoly0,0.000000*%
%ADD17FreePoly1,0.000000*%
%ADD18R,1.800000X1.800000*%
%ADD19C,1.800000*%
%ADD20R,1.700000X1.700000*%
%ADD21O,1.700000X1.700000*%
%ADD22O,3.251200X1.727200*%
%ADD23RoundRect,0.101600X1.524000X-0.762000X1.524000X0.762000X-1.524000X0.762000X-1.524000X-0.762000X0*%
%ADD24RoundRect,0.101600X-1.524000X0.762000X-1.524000X-0.762000X1.524000X-0.762000X1.524000X0.762000X0*%
G04 APERTURE END LIST*
D10*
%TO.C,H4*%
X161290000Y-125730000D03*
%TD*%
%TO.C,H1*%
X111650000Y-74400000D03*
%TD*%
D11*
%TO.C,J2*%
X124460000Y-83820000D03*
D12*
X121920000Y-83820000D03*
X119380000Y-83820000D03*
X116840000Y-83820000D03*
X114300000Y-83820000D03*
X111760000Y-83820000D03*
%TD*%
D10*
%TO.C,H2*%
X111650000Y-128875000D03*
%TD*%
D13*
%TO.C,SW3*%
X106680000Y-99640000D03*
X113180000Y-99640000D03*
X106680000Y-104140000D03*
X113180000Y-104140000D03*
%TD*%
D14*
%TO.C,U1*%
X132080000Y-77470000D03*
D15*
X132080000Y-80010000D03*
D16*
X132080000Y-82550000D03*
D15*
X132080000Y-85090000D03*
X132080000Y-87630000D03*
X132080000Y-90170000D03*
X132080000Y-92710000D03*
D16*
X132080000Y-95250000D03*
D15*
X132080000Y-97790000D03*
X132080000Y-100330000D03*
X132080000Y-102870000D03*
X132080000Y-105410000D03*
D16*
X132080000Y-107950000D03*
D15*
X132080000Y-110490000D03*
X132080000Y-113030000D03*
X132080000Y-115570000D03*
X132080000Y-118110000D03*
D16*
X132080000Y-120650000D03*
D15*
X132080000Y-123190000D03*
X132080000Y-125730000D03*
X149860000Y-125730000D03*
X149860000Y-123190000D03*
D17*
X149860000Y-120650000D03*
D15*
X149860000Y-118110000D03*
X149860000Y-115570000D03*
X149860000Y-113030000D03*
X149860000Y-110490000D03*
D17*
X149860000Y-107950000D03*
D15*
X149860000Y-105410000D03*
X149860000Y-102870000D03*
X149860000Y-100330000D03*
X149860000Y-97790000D03*
D17*
X149860000Y-95250000D03*
D15*
X149860000Y-92710000D03*
X149860000Y-90170000D03*
X149860000Y-87630000D03*
X149860000Y-85090000D03*
D17*
X149860000Y-82550000D03*
D15*
X149860000Y-80010000D03*
X149860000Y-77470000D03*
%TD*%
D10*
%TO.C,H3*%
X161290000Y-77470000D03*
%TD*%
D18*
%TO.C,D1*%
X121920000Y-73660000D03*
D19*
X119380000Y-73660000D03*
%TD*%
%TO.C,SW2*%
X157480000Y-135310000D03*
X150980000Y-135310000D03*
X157480000Y-130810000D03*
X150980000Y-130810000D03*
%TD*%
D18*
%TO.C,D2*%
X121920000Y-129540000D03*
D19*
X119380000Y-129540000D03*
%TD*%
D20*
%TO.C,J5*%
X119370000Y-119405000D03*
D21*
X116830000Y-119405000D03*
X114290000Y-119405000D03*
X111750000Y-119405000D03*
%TD*%
D22*
%TO.C,SW1*%
X150980000Y-67720000D03*
X157480000Y-67720000D03*
X150980000Y-72220000D03*
X157480000Y-72220000D03*
%TD*%
D12*
%TO.C,R1*%
X111760000Y-96520000D03*
X111760000Y-88900000D03*
%TD*%
%TO.C,R2*%
X125730000Y-118110000D03*
X125730000Y-125730000D03*
%TD*%
D23*
%TO.C,J4*%
X106680000Y-121920000D03*
D22*
X106680000Y-119380000D03*
X106680000Y-116840000D03*
X106680000Y-114300000D03*
X106680000Y-111760000D03*
X106680000Y-109220000D03*
%TD*%
D24*
%TO.C,J3*%
X106680000Y-81280000D03*
D22*
X106680000Y-83820000D03*
X106680000Y-86360000D03*
X106680000Y-88900000D03*
X106680000Y-91440000D03*
X106680000Y-93980000D03*
%TD*%
D18*
%TO.C,J1*%
X157480000Y-82550000D03*
D19*
X157480000Y-85090000D03*
X157480000Y-87630000D03*
X157480000Y-90170000D03*
X157480000Y-92710000D03*
X157480000Y-95250000D03*
X157480000Y-97790000D03*
X157480000Y-100330000D03*
X157480000Y-102870000D03*
X157480000Y-105410000D03*
X157480000Y-107950000D03*
X157480000Y-110490000D03*
X157480000Y-113030000D03*
X157480000Y-115570000D03*
X157480000Y-118110000D03*
X157480000Y-120650000D03*
%TD*%
M02*
