%TF.GenerationSoftware,KiCad,Pcbnew,8.0.8*%
%TF.CreationDate,2025-08-16T13:47:39+01:00*%
%TF.ProjectId,UKMARSBOT_RP2040Mezzanine,554b4d41-5253-4424-9f54-5f5250323034,rev?*%
%TF.SameCoordinates,Original*%
%TF.FileFunction,Legend,Top*%
%TF.FilePolarity,Positive*%
%FSLAX46Y46*%
G04 Gerber Fmt 4.6, Leading zero omitted, Abs format (unit mm)*
G04 Created by KiCad (PCBNEW 8.0.8) date 2025-08-16 13:47:39*
%MOMM*%
%LPD*%
G01*
G04 APERTURE LIST*
%ADD10C,0.150000*%
%ADD11C,0.400000*%
%ADD12C,0.120000*%
%ADD13C,0.200000*%
G04 APERTURE END LIST*
D10*
X102774904Y-108708509D02*
X103041571Y-109508509D01*
X103041571Y-109508509D02*
X103308237Y-108708509D01*
X103574904Y-109508509D02*
X103574904Y-108708509D01*
X103574904Y-109013271D02*
X103651094Y-108975175D01*
X103651094Y-108975175D02*
X103803475Y-108975175D01*
X103803475Y-108975175D02*
X103879666Y-109013271D01*
X103879666Y-109013271D02*
X103917761Y-109051366D01*
X103917761Y-109051366D02*
X103955856Y-109127556D01*
X103955856Y-109127556D02*
X103955856Y-109356128D01*
X103955856Y-109356128D02*
X103917761Y-109432318D01*
X103917761Y-109432318D02*
X103879666Y-109470414D01*
X103879666Y-109470414D02*
X103803475Y-109508509D01*
X103803475Y-109508509D02*
X103651094Y-109508509D01*
X103651094Y-109508509D02*
X103574904Y-109470414D01*
X104641571Y-109508509D02*
X104641571Y-109089461D01*
X104641571Y-109089461D02*
X104603476Y-109013271D01*
X104603476Y-109013271D02*
X104527285Y-108975175D01*
X104527285Y-108975175D02*
X104374904Y-108975175D01*
X104374904Y-108975175D02*
X104298714Y-109013271D01*
X104641571Y-109470414D02*
X104565380Y-109508509D01*
X104565380Y-109508509D02*
X104374904Y-109508509D01*
X104374904Y-109508509D02*
X104298714Y-109470414D01*
X104298714Y-109470414D02*
X104260618Y-109394223D01*
X104260618Y-109394223D02*
X104260618Y-109318033D01*
X104260618Y-109318033D02*
X104298714Y-109241842D01*
X104298714Y-109241842D02*
X104374904Y-109203747D01*
X104374904Y-109203747D02*
X104565380Y-109203747D01*
X104565380Y-109203747D02*
X104641571Y-109165652D01*
X104908238Y-108975175D02*
X105213000Y-108975175D01*
X105022524Y-108708509D02*
X105022524Y-109394223D01*
X105022524Y-109394223D02*
X105060619Y-109470414D01*
X105060619Y-109470414D02*
X105136809Y-109508509D01*
X105136809Y-109508509D02*
X105213000Y-109508509D01*
X105365381Y-108975175D02*
X105670143Y-108975175D01*
X105479667Y-108708509D02*
X105479667Y-109394223D01*
X105479667Y-109394223D02*
X105517762Y-109470414D01*
X105517762Y-109470414D02*
X105593952Y-109508509D01*
X105593952Y-109508509D02*
X105670143Y-109508509D01*
X160006591Y-115854990D02*
X160387544Y-115854990D01*
X159930401Y-116083562D02*
X160197068Y-115283562D01*
X160197068Y-115283562D02*
X160463734Y-116083562D01*
X161111353Y-115283562D02*
X160730401Y-115283562D01*
X160730401Y-115283562D02*
X160692305Y-115664514D01*
X160692305Y-115664514D02*
X160730401Y-115626419D01*
X160730401Y-115626419D02*
X160806591Y-115588324D01*
X160806591Y-115588324D02*
X160997067Y-115588324D01*
X160997067Y-115588324D02*
X161073258Y-115626419D01*
X161073258Y-115626419D02*
X161111353Y-115664514D01*
X161111353Y-115664514D02*
X161149448Y-115740705D01*
X161149448Y-115740705D02*
X161149448Y-115931181D01*
X161149448Y-115931181D02*
X161111353Y-116007371D01*
X161111353Y-116007371D02*
X161073258Y-116045467D01*
X161073258Y-116045467D02*
X160997067Y-116083562D01*
X160997067Y-116083562D02*
X160806591Y-116083562D01*
X160806591Y-116083562D02*
X160730401Y-116045467D01*
X160730401Y-116045467D02*
X160692305Y-116007371D01*
X114487438Y-117249411D02*
X114439819Y-117344649D01*
X114439819Y-117344649D02*
X114439819Y-117487506D01*
X114439819Y-117487506D02*
X114487438Y-117630363D01*
X114487438Y-117630363D02*
X114582676Y-117725601D01*
X114582676Y-117725601D02*
X114677914Y-117773220D01*
X114677914Y-117773220D02*
X114868390Y-117820839D01*
X114868390Y-117820839D02*
X115011247Y-117820839D01*
X115011247Y-117820839D02*
X115201723Y-117773220D01*
X115201723Y-117773220D02*
X115296961Y-117725601D01*
X115296961Y-117725601D02*
X115392200Y-117630363D01*
X115392200Y-117630363D02*
X115439819Y-117487506D01*
X115439819Y-117487506D02*
X115439819Y-117392268D01*
X115439819Y-117392268D02*
X115392200Y-117249411D01*
X115392200Y-117249411D02*
X115344580Y-117201792D01*
X115344580Y-117201792D02*
X115011247Y-117201792D01*
X115011247Y-117201792D02*
X115011247Y-117392268D01*
X115439819Y-116773220D02*
X114439819Y-116773220D01*
X114439819Y-116773220D02*
X114439819Y-116392268D01*
X114439819Y-116392268D02*
X114487438Y-116297030D01*
X114487438Y-116297030D02*
X114535057Y-116249411D01*
X114535057Y-116249411D02*
X114630295Y-116201792D01*
X114630295Y-116201792D02*
X114773152Y-116201792D01*
X114773152Y-116201792D02*
X114868390Y-116249411D01*
X114868390Y-116249411D02*
X114916009Y-116297030D01*
X114916009Y-116297030D02*
X114963628Y-116392268D01*
X114963628Y-116392268D02*
X114963628Y-116773220D01*
X115439819Y-115773220D02*
X114439819Y-115773220D01*
X114439819Y-115106554D02*
X114439819Y-114916078D01*
X114439819Y-114916078D02*
X114487438Y-114820840D01*
X114487438Y-114820840D02*
X114582676Y-114725602D01*
X114582676Y-114725602D02*
X114773152Y-114677983D01*
X114773152Y-114677983D02*
X115106485Y-114677983D01*
X115106485Y-114677983D02*
X115296961Y-114725602D01*
X115296961Y-114725602D02*
X115392200Y-114820840D01*
X115392200Y-114820840D02*
X115439819Y-114916078D01*
X115439819Y-114916078D02*
X115439819Y-115106554D01*
X115439819Y-115106554D02*
X115392200Y-115201792D01*
X115392200Y-115201792D02*
X115296961Y-115297030D01*
X115296961Y-115297030D02*
X115106485Y-115344649D01*
X115106485Y-115344649D02*
X114773152Y-115344649D01*
X114773152Y-115344649D02*
X114582676Y-115297030D01*
X114582676Y-115297030D02*
X114487438Y-115201792D01*
X114487438Y-115201792D02*
X114439819Y-115106554D01*
X115439819Y-113725602D02*
X115439819Y-114297030D01*
X115439819Y-114011316D02*
X114439819Y-114011316D01*
X114439819Y-114011316D02*
X114582676Y-114106554D01*
X114582676Y-114106554D02*
X114677914Y-114201792D01*
X114677914Y-114201792D02*
X114725533Y-114297030D01*
X115439819Y-112773221D02*
X115439819Y-113344649D01*
X115439819Y-113058935D02*
X114439819Y-113058935D01*
X114439819Y-113058935D02*
X114582676Y-113154173D01*
X114582676Y-113154173D02*
X114677914Y-113249411D01*
X114677914Y-113249411D02*
X114725533Y-113344649D01*
X160144687Y-100583562D02*
X160144687Y-99783562D01*
X160144687Y-99783562D02*
X160335163Y-99783562D01*
X160335163Y-99783562D02*
X160449449Y-99821657D01*
X160449449Y-99821657D02*
X160525639Y-99897847D01*
X160525639Y-99897847D02*
X160563734Y-99974038D01*
X160563734Y-99974038D02*
X160601830Y-100126419D01*
X160601830Y-100126419D02*
X160601830Y-100240705D01*
X160601830Y-100240705D02*
X160563734Y-100393086D01*
X160563734Y-100393086D02*
X160525639Y-100469276D01*
X160525639Y-100469276D02*
X160449449Y-100545467D01*
X160449449Y-100545467D02*
X160335163Y-100583562D01*
X160335163Y-100583562D02*
X160144687Y-100583562D01*
X161287544Y-100050228D02*
X161287544Y-100583562D01*
X161097068Y-99745467D02*
X160906591Y-100316895D01*
X160906591Y-100316895D02*
X161401830Y-100316895D01*
X120846510Y-80981792D02*
X120808415Y-81057982D01*
X120808415Y-81057982D02*
X120808415Y-81172268D01*
X120808415Y-81172268D02*
X120846510Y-81286554D01*
X120846510Y-81286554D02*
X120922700Y-81362744D01*
X120922700Y-81362744D02*
X120998891Y-81400839D01*
X120998891Y-81400839D02*
X121151272Y-81438935D01*
X121151272Y-81438935D02*
X121265558Y-81438935D01*
X121265558Y-81438935D02*
X121417939Y-81400839D01*
X121417939Y-81400839D02*
X121494129Y-81362744D01*
X121494129Y-81362744D02*
X121570320Y-81286554D01*
X121570320Y-81286554D02*
X121608415Y-81172268D01*
X121608415Y-81172268D02*
X121608415Y-81096077D01*
X121608415Y-81096077D02*
X121570320Y-80981792D01*
X121570320Y-80981792D02*
X121532224Y-80943696D01*
X121532224Y-80943696D02*
X121265558Y-80943696D01*
X121265558Y-80943696D02*
X121265558Y-81096077D01*
X121608415Y-80600839D02*
X120808415Y-80600839D01*
X120808415Y-80600839D02*
X120808415Y-80296077D01*
X120808415Y-80296077D02*
X120846510Y-80219887D01*
X120846510Y-80219887D02*
X120884605Y-80181792D01*
X120884605Y-80181792D02*
X120960796Y-80143696D01*
X120960796Y-80143696D02*
X121075081Y-80143696D01*
X121075081Y-80143696D02*
X121151272Y-80181792D01*
X121151272Y-80181792D02*
X121189367Y-80219887D01*
X121189367Y-80219887D02*
X121227462Y-80296077D01*
X121227462Y-80296077D02*
X121227462Y-80600839D01*
X120808415Y-79648458D02*
X120808415Y-79572268D01*
X120808415Y-79572268D02*
X120846510Y-79496077D01*
X120846510Y-79496077D02*
X120884605Y-79457982D01*
X120884605Y-79457982D02*
X120960796Y-79419887D01*
X120960796Y-79419887D02*
X121113177Y-79381792D01*
X121113177Y-79381792D02*
X121303653Y-79381792D01*
X121303653Y-79381792D02*
X121456034Y-79419887D01*
X121456034Y-79419887D02*
X121532224Y-79457982D01*
X121532224Y-79457982D02*
X121570320Y-79496077D01*
X121570320Y-79496077D02*
X121608415Y-79572268D01*
X121608415Y-79572268D02*
X121608415Y-79648458D01*
X121608415Y-79648458D02*
X121570320Y-79724649D01*
X121570320Y-79724649D02*
X121532224Y-79762744D01*
X121532224Y-79762744D02*
X121456034Y-79800839D01*
X121456034Y-79800839D02*
X121303653Y-79838935D01*
X121303653Y-79838935D02*
X121113177Y-79838935D01*
X121113177Y-79838935D02*
X120960796Y-79800839D01*
X120960796Y-79800839D02*
X120884605Y-79762744D01*
X120884605Y-79762744D02*
X120846510Y-79724649D01*
X120846510Y-79724649D02*
X120808415Y-79648458D01*
X120808415Y-78886553D02*
X120808415Y-78810363D01*
X120808415Y-78810363D02*
X120846510Y-78734172D01*
X120846510Y-78734172D02*
X120884605Y-78696077D01*
X120884605Y-78696077D02*
X120960796Y-78657982D01*
X120960796Y-78657982D02*
X121113177Y-78619887D01*
X121113177Y-78619887D02*
X121303653Y-78619887D01*
X121303653Y-78619887D02*
X121456034Y-78657982D01*
X121456034Y-78657982D02*
X121532224Y-78696077D01*
X121532224Y-78696077D02*
X121570320Y-78734172D01*
X121570320Y-78734172D02*
X121608415Y-78810363D01*
X121608415Y-78810363D02*
X121608415Y-78886553D01*
X121608415Y-78886553D02*
X121570320Y-78962744D01*
X121570320Y-78962744D02*
X121532224Y-79000839D01*
X121532224Y-79000839D02*
X121456034Y-79038934D01*
X121456034Y-79038934D02*
X121303653Y-79077030D01*
X121303653Y-79077030D02*
X121113177Y-79077030D01*
X121113177Y-79077030D02*
X120960796Y-79038934D01*
X120960796Y-79038934D02*
X120884605Y-79000839D01*
X120884605Y-79000839D02*
X120846510Y-78962744D01*
X120846510Y-78962744D02*
X120808415Y-78886553D01*
D11*
X140206666Y-64084438D02*
X140206666Y-65703485D01*
X140206666Y-65703485D02*
X140301904Y-65893961D01*
X140301904Y-65893961D02*
X140397142Y-65989200D01*
X140397142Y-65989200D02*
X140587618Y-66084438D01*
X140587618Y-66084438D02*
X140968571Y-66084438D01*
X140968571Y-66084438D02*
X141159047Y-65989200D01*
X141159047Y-65989200D02*
X141254285Y-65893961D01*
X141254285Y-65893961D02*
X141349523Y-65703485D01*
X141349523Y-65703485D02*
X141349523Y-64084438D01*
X142301904Y-66084438D02*
X142301904Y-64084438D01*
X143444761Y-66084438D02*
X142587618Y-64941580D01*
X143444761Y-64084438D02*
X142301904Y-65227295D01*
X144301904Y-66084438D02*
X144301904Y-64084438D01*
X144301904Y-64084438D02*
X144968571Y-65513009D01*
X144968571Y-65513009D02*
X145635237Y-64084438D01*
X145635237Y-64084438D02*
X145635237Y-66084438D01*
X146492380Y-65513009D02*
X147444761Y-65513009D01*
X146301904Y-66084438D02*
X146968570Y-64084438D01*
X146968570Y-64084438D02*
X147635237Y-66084438D01*
X149444761Y-66084438D02*
X148778094Y-65132057D01*
X148301904Y-66084438D02*
X148301904Y-64084438D01*
X148301904Y-64084438D02*
X149063809Y-64084438D01*
X149063809Y-64084438D02*
X149254285Y-64179676D01*
X149254285Y-64179676D02*
X149349523Y-64274914D01*
X149349523Y-64274914D02*
X149444761Y-64465390D01*
X149444761Y-64465390D02*
X149444761Y-64751104D01*
X149444761Y-64751104D02*
X149349523Y-64941580D01*
X149349523Y-64941580D02*
X149254285Y-65036819D01*
X149254285Y-65036819D02*
X149063809Y-65132057D01*
X149063809Y-65132057D02*
X148301904Y-65132057D01*
X150206666Y-65989200D02*
X150492380Y-66084438D01*
X150492380Y-66084438D02*
X150968571Y-66084438D01*
X150968571Y-66084438D02*
X151159047Y-65989200D01*
X151159047Y-65989200D02*
X151254285Y-65893961D01*
X151254285Y-65893961D02*
X151349523Y-65703485D01*
X151349523Y-65703485D02*
X151349523Y-65513009D01*
X151349523Y-65513009D02*
X151254285Y-65322533D01*
X151254285Y-65322533D02*
X151159047Y-65227295D01*
X151159047Y-65227295D02*
X150968571Y-65132057D01*
X150968571Y-65132057D02*
X150587618Y-65036819D01*
X150587618Y-65036819D02*
X150397142Y-64941580D01*
X150397142Y-64941580D02*
X150301904Y-64846342D01*
X150301904Y-64846342D02*
X150206666Y-64655866D01*
X150206666Y-64655866D02*
X150206666Y-64465390D01*
X150206666Y-64465390D02*
X150301904Y-64274914D01*
X150301904Y-64274914D02*
X150397142Y-64179676D01*
X150397142Y-64179676D02*
X150587618Y-64084438D01*
X150587618Y-64084438D02*
X151063809Y-64084438D01*
X151063809Y-64084438D02*
X151349523Y-64179676D01*
X154778095Y-64179676D02*
X154587619Y-64084438D01*
X154587619Y-64084438D02*
X154301905Y-64084438D01*
X154301905Y-64084438D02*
X154016190Y-64179676D01*
X154016190Y-64179676D02*
X153825714Y-64370152D01*
X153825714Y-64370152D02*
X153730476Y-64560628D01*
X153730476Y-64560628D02*
X153635238Y-64941580D01*
X153635238Y-64941580D02*
X153635238Y-65227295D01*
X153635238Y-65227295D02*
X153730476Y-65608247D01*
X153730476Y-65608247D02*
X153825714Y-65798723D01*
X153825714Y-65798723D02*
X154016190Y-65989200D01*
X154016190Y-65989200D02*
X154301905Y-66084438D01*
X154301905Y-66084438D02*
X154492381Y-66084438D01*
X154492381Y-66084438D02*
X154778095Y-65989200D01*
X154778095Y-65989200D02*
X154873333Y-65893961D01*
X154873333Y-65893961D02*
X154873333Y-65227295D01*
X154873333Y-65227295D02*
X154492381Y-65227295D01*
X156492381Y-65989200D02*
X156301905Y-66084438D01*
X156301905Y-66084438D02*
X155920952Y-66084438D01*
X155920952Y-66084438D02*
X155730476Y-65989200D01*
X155730476Y-65989200D02*
X155635238Y-65798723D01*
X155635238Y-65798723D02*
X155635238Y-65036819D01*
X155635238Y-65036819D02*
X155730476Y-64846342D01*
X155730476Y-64846342D02*
X155920952Y-64751104D01*
X155920952Y-64751104D02*
X156301905Y-64751104D01*
X156301905Y-64751104D02*
X156492381Y-64846342D01*
X156492381Y-64846342D02*
X156587619Y-65036819D01*
X156587619Y-65036819D02*
X156587619Y-65227295D01*
X156587619Y-65227295D02*
X155635238Y-65417771D01*
X157444762Y-66084438D02*
X157444762Y-64751104D01*
X157444762Y-64941580D02*
X157540000Y-64846342D01*
X157540000Y-64846342D02*
X157730476Y-64751104D01*
X157730476Y-64751104D02*
X158016191Y-64751104D01*
X158016191Y-64751104D02*
X158206667Y-64846342D01*
X158206667Y-64846342D02*
X158301905Y-65036819D01*
X158301905Y-65036819D02*
X158301905Y-66084438D01*
X158301905Y-65036819D02*
X158397143Y-64846342D01*
X158397143Y-64846342D02*
X158587619Y-64751104D01*
X158587619Y-64751104D02*
X158873333Y-64751104D01*
X158873333Y-64751104D02*
X159063810Y-64846342D01*
X159063810Y-64846342D02*
X159159048Y-65036819D01*
X159159048Y-65036819D02*
X159159048Y-66084438D01*
X160111429Y-66084438D02*
X160111429Y-64751104D01*
X160111429Y-64084438D02*
X160016191Y-64179676D01*
X160016191Y-64179676D02*
X160111429Y-64274914D01*
X160111429Y-64274914D02*
X160206667Y-64179676D01*
X160206667Y-64179676D02*
X160111429Y-64084438D01*
X160111429Y-64084438D02*
X160111429Y-64274914D01*
X161063810Y-64751104D02*
X161063810Y-66084438D01*
X161063810Y-64941580D02*
X161159048Y-64846342D01*
X161159048Y-64846342D02*
X161349524Y-64751104D01*
X161349524Y-64751104D02*
X161635239Y-64751104D01*
X161635239Y-64751104D02*
X161825715Y-64846342D01*
X161825715Y-64846342D02*
X161920953Y-65036819D01*
X161920953Y-65036819D02*
X161920953Y-66084438D01*
X162873334Y-66084438D02*
X162873334Y-64751104D01*
X162873334Y-64084438D02*
X162778096Y-64179676D01*
X162778096Y-64179676D02*
X162873334Y-64274914D01*
X162873334Y-64274914D02*
X162968572Y-64179676D01*
X162968572Y-64179676D02*
X162873334Y-64084438D01*
X162873334Y-64084438D02*
X162873334Y-64274914D01*
D12*
X116752878Y-129664372D02*
X117133831Y-129664372D01*
X116676688Y-129892944D02*
X116943355Y-129092944D01*
X116943355Y-129092944D02*
X117210021Y-129892944D01*
D10*
X160068496Y-87283562D02*
X160563734Y-87283562D01*
X160563734Y-87283562D02*
X160297068Y-87588324D01*
X160297068Y-87588324D02*
X160411353Y-87588324D01*
X160411353Y-87588324D02*
X160487544Y-87626419D01*
X160487544Y-87626419D02*
X160525639Y-87664514D01*
X160525639Y-87664514D02*
X160563734Y-87740705D01*
X160563734Y-87740705D02*
X160563734Y-87931181D01*
X160563734Y-87931181D02*
X160525639Y-88007371D01*
X160525639Y-88007371D02*
X160487544Y-88045467D01*
X160487544Y-88045467D02*
X160411353Y-88083562D01*
X160411353Y-88083562D02*
X160182782Y-88083562D01*
X160182782Y-88083562D02*
X160106591Y-88045467D01*
X160106591Y-88045467D02*
X160068496Y-88007371D01*
X160830401Y-87550228D02*
X161020877Y-88083562D01*
X161020877Y-88083562D02*
X161211354Y-87550228D01*
X161439925Y-87283562D02*
X161935163Y-87283562D01*
X161935163Y-87283562D02*
X161668497Y-87588324D01*
X161668497Y-87588324D02*
X161782782Y-87588324D01*
X161782782Y-87588324D02*
X161858973Y-87626419D01*
X161858973Y-87626419D02*
X161897068Y-87664514D01*
X161897068Y-87664514D02*
X161935163Y-87740705D01*
X161935163Y-87740705D02*
X161935163Y-87931181D01*
X161935163Y-87931181D02*
X161897068Y-88007371D01*
X161897068Y-88007371D02*
X161858973Y-88045467D01*
X161858973Y-88045467D02*
X161782782Y-88083562D01*
X161782782Y-88083562D02*
X161554211Y-88083562D01*
X161554211Y-88083562D02*
X161478020Y-88045467D01*
X161478020Y-88045467D02*
X161439925Y-88007371D01*
D12*
X124088235Y-129936380D02*
X124088235Y-129136380D01*
X124545378Y-129936380D02*
X124202520Y-129479237D01*
X124545378Y-129136380D02*
X124088235Y-129593523D01*
D10*
X160006591Y-108254990D02*
X160387544Y-108254990D01*
X159930401Y-108483562D02*
X160197068Y-107683562D01*
X160197068Y-107683562D02*
X160463734Y-108483562D01*
X160692305Y-107759752D02*
X160730401Y-107721657D01*
X160730401Y-107721657D02*
X160806591Y-107683562D01*
X160806591Y-107683562D02*
X160997067Y-107683562D01*
X160997067Y-107683562D02*
X161073258Y-107721657D01*
X161073258Y-107721657D02*
X161111353Y-107759752D01*
X161111353Y-107759752D02*
X161149448Y-107835943D01*
X161149448Y-107835943D02*
X161149448Y-107912133D01*
X161149448Y-107912133D02*
X161111353Y-108026419D01*
X161111353Y-108026419D02*
X160654210Y-108483562D01*
X160654210Y-108483562D02*
X161149448Y-108483562D01*
X124002875Y-81174301D02*
X123202875Y-81174301D01*
X123202875Y-81174301D02*
X124002875Y-80717158D01*
X124002875Y-80717158D02*
X123202875Y-80717158D01*
X123926684Y-79879063D02*
X123964780Y-79917159D01*
X123964780Y-79917159D02*
X124002875Y-80031444D01*
X124002875Y-80031444D02*
X124002875Y-80107635D01*
X124002875Y-80107635D02*
X123964780Y-80221921D01*
X123964780Y-80221921D02*
X123888589Y-80298111D01*
X123888589Y-80298111D02*
X123812399Y-80336206D01*
X123812399Y-80336206D02*
X123660018Y-80374302D01*
X123660018Y-80374302D02*
X123545732Y-80374302D01*
X123545732Y-80374302D02*
X123393351Y-80336206D01*
X123393351Y-80336206D02*
X123317160Y-80298111D01*
X123317160Y-80298111D02*
X123240970Y-80221921D01*
X123240970Y-80221921D02*
X123202875Y-80107635D01*
X123202875Y-80107635D02*
X123202875Y-80031444D01*
X123202875Y-80031444D02*
X123240970Y-79917159D01*
X123240970Y-79917159D02*
X123279065Y-79879063D01*
X103950112Y-81011877D02*
X103569160Y-81011877D01*
X103569160Y-81011877D02*
X103531064Y-81392829D01*
X103531064Y-81392829D02*
X103569160Y-81354734D01*
X103569160Y-81354734D02*
X103645350Y-81316639D01*
X103645350Y-81316639D02*
X103835826Y-81316639D01*
X103835826Y-81316639D02*
X103912017Y-81354734D01*
X103912017Y-81354734D02*
X103950112Y-81392829D01*
X103950112Y-81392829D02*
X103988207Y-81469020D01*
X103988207Y-81469020D02*
X103988207Y-81659496D01*
X103988207Y-81659496D02*
X103950112Y-81735686D01*
X103950112Y-81735686D02*
X103912017Y-81773782D01*
X103912017Y-81773782D02*
X103835826Y-81811877D01*
X103835826Y-81811877D02*
X103645350Y-81811877D01*
X103645350Y-81811877D02*
X103569160Y-81773782D01*
X103569160Y-81773782D02*
X103531064Y-81735686D01*
X104216779Y-81011877D02*
X104483446Y-81811877D01*
X104483446Y-81811877D02*
X104750112Y-81011877D01*
X119567438Y-117249411D02*
X119519819Y-117344649D01*
X119519819Y-117344649D02*
X119519819Y-117487506D01*
X119519819Y-117487506D02*
X119567438Y-117630363D01*
X119567438Y-117630363D02*
X119662676Y-117725601D01*
X119662676Y-117725601D02*
X119757914Y-117773220D01*
X119757914Y-117773220D02*
X119948390Y-117820839D01*
X119948390Y-117820839D02*
X120091247Y-117820839D01*
X120091247Y-117820839D02*
X120281723Y-117773220D01*
X120281723Y-117773220D02*
X120376961Y-117725601D01*
X120376961Y-117725601D02*
X120472200Y-117630363D01*
X120472200Y-117630363D02*
X120519819Y-117487506D01*
X120519819Y-117487506D02*
X120519819Y-117392268D01*
X120519819Y-117392268D02*
X120472200Y-117249411D01*
X120472200Y-117249411D02*
X120424580Y-117201792D01*
X120424580Y-117201792D02*
X120091247Y-117201792D01*
X120091247Y-117201792D02*
X120091247Y-117392268D01*
X119853152Y-116773220D02*
X120519819Y-116773220D01*
X119948390Y-116773220D02*
X119900771Y-116725601D01*
X119900771Y-116725601D02*
X119853152Y-116630363D01*
X119853152Y-116630363D02*
X119853152Y-116487506D01*
X119853152Y-116487506D02*
X119900771Y-116392268D01*
X119900771Y-116392268D02*
X119996009Y-116344649D01*
X119996009Y-116344649D02*
X120519819Y-116344649D01*
X120519819Y-115439887D02*
X119519819Y-115439887D01*
X120472200Y-115439887D02*
X120519819Y-115535125D01*
X120519819Y-115535125D02*
X120519819Y-115725601D01*
X120519819Y-115725601D02*
X120472200Y-115820839D01*
X120472200Y-115820839D02*
X120424580Y-115868458D01*
X120424580Y-115868458D02*
X120329342Y-115916077D01*
X120329342Y-115916077D02*
X120043628Y-115916077D01*
X120043628Y-115916077D02*
X119948390Y-115868458D01*
X119948390Y-115868458D02*
X119900771Y-115820839D01*
X119900771Y-115820839D02*
X119853152Y-115725601D01*
X119853152Y-115725601D02*
X119853152Y-115535125D01*
X119853152Y-115535125D02*
X119900771Y-115439887D01*
X103346333Y-114408509D02*
X103079666Y-114027556D01*
X102889190Y-114408509D02*
X102889190Y-113608509D01*
X102889190Y-113608509D02*
X103193952Y-113608509D01*
X103193952Y-113608509D02*
X103270142Y-113646604D01*
X103270142Y-113646604D02*
X103308237Y-113684699D01*
X103308237Y-113684699D02*
X103346333Y-113760890D01*
X103346333Y-113760890D02*
X103346333Y-113875175D01*
X103346333Y-113875175D02*
X103308237Y-113951366D01*
X103308237Y-113951366D02*
X103270142Y-113989461D01*
X103270142Y-113989461D02*
X103193952Y-114027556D01*
X103193952Y-114027556D02*
X102889190Y-114027556D01*
X104222523Y-114484699D02*
X104146333Y-114446604D01*
X104146333Y-114446604D02*
X104070142Y-114370414D01*
X104070142Y-114370414D02*
X103955856Y-114256128D01*
X103955856Y-114256128D02*
X103879666Y-114218033D01*
X103879666Y-114218033D02*
X103803475Y-114218033D01*
X103841571Y-114408509D02*
X103765380Y-114370414D01*
X103765380Y-114370414D02*
X103689190Y-114294223D01*
X103689190Y-114294223D02*
X103651094Y-114141842D01*
X103651094Y-114141842D02*
X103651094Y-113875175D01*
X103651094Y-113875175D02*
X103689190Y-113722794D01*
X103689190Y-113722794D02*
X103765380Y-113646604D01*
X103765380Y-113646604D02*
X103841571Y-113608509D01*
X103841571Y-113608509D02*
X103993952Y-113608509D01*
X103993952Y-113608509D02*
X104070142Y-113646604D01*
X104070142Y-113646604D02*
X104146333Y-113722794D01*
X104146333Y-113722794D02*
X104184428Y-113875175D01*
X104184428Y-113875175D02*
X104184428Y-114141842D01*
X104184428Y-114141842D02*
X104146333Y-114294223D01*
X104146333Y-114294223D02*
X104070142Y-114370414D01*
X104070142Y-114370414D02*
X103993952Y-114408509D01*
X103993952Y-114408509D02*
X103841571Y-114408509D01*
X104489189Y-114179937D02*
X104870142Y-114179937D01*
X104412999Y-114408509D02*
X104679666Y-113608509D01*
X104679666Y-113608509D02*
X104946332Y-114408509D01*
X160006591Y-110754990D02*
X160387544Y-110754990D01*
X159930401Y-110983562D02*
X160197068Y-110183562D01*
X160197068Y-110183562D02*
X160463734Y-110983562D01*
X160654210Y-110183562D02*
X161149448Y-110183562D01*
X161149448Y-110183562D02*
X160882782Y-110488324D01*
X160882782Y-110488324D02*
X160997067Y-110488324D01*
X160997067Y-110488324D02*
X161073258Y-110526419D01*
X161073258Y-110526419D02*
X161111353Y-110564514D01*
X161111353Y-110564514D02*
X161149448Y-110640705D01*
X161149448Y-110640705D02*
X161149448Y-110831181D01*
X161149448Y-110831181D02*
X161111353Y-110907371D01*
X161111353Y-110907371D02*
X161073258Y-110945467D01*
X161073258Y-110945467D02*
X160997067Y-110983562D01*
X160997067Y-110983562D02*
X160768496Y-110983562D01*
X160768496Y-110983562D02*
X160692305Y-110945467D01*
X160692305Y-110945467D02*
X160654210Y-110907371D01*
X160044687Y-93083562D02*
X160044687Y-92283562D01*
X160044687Y-92283562D02*
X160235163Y-92283562D01*
X160235163Y-92283562D02*
X160349449Y-92321657D01*
X160349449Y-92321657D02*
X160425639Y-92397847D01*
X160425639Y-92397847D02*
X160463734Y-92474038D01*
X160463734Y-92474038D02*
X160501830Y-92626419D01*
X160501830Y-92626419D02*
X160501830Y-92740705D01*
X160501830Y-92740705D02*
X160463734Y-92893086D01*
X160463734Y-92893086D02*
X160425639Y-92969276D01*
X160425639Y-92969276D02*
X160349449Y-93045467D01*
X160349449Y-93045467D02*
X160235163Y-93083562D01*
X160235163Y-93083562D02*
X160044687Y-93083562D01*
X161263734Y-93083562D02*
X160806591Y-93083562D01*
X161035163Y-93083562D02*
X161035163Y-92283562D01*
X161035163Y-92283562D02*
X160958972Y-92397847D01*
X160958972Y-92397847D02*
X160882782Y-92474038D01*
X160882782Y-92474038D02*
X160806591Y-92512133D01*
X139989160Y-62465057D02*
X140036779Y-62417438D01*
X140036779Y-62417438D02*
X140132017Y-62369819D01*
X140132017Y-62369819D02*
X140370112Y-62369819D01*
X140370112Y-62369819D02*
X140465350Y-62417438D01*
X140465350Y-62417438D02*
X140512969Y-62465057D01*
X140512969Y-62465057D02*
X140560588Y-62560295D01*
X140560588Y-62560295D02*
X140560588Y-62655533D01*
X140560588Y-62655533D02*
X140512969Y-62798390D01*
X140512969Y-62798390D02*
X139941541Y-63369819D01*
X139941541Y-63369819D02*
X140560588Y-63369819D01*
X141179636Y-62369819D02*
X141274874Y-62369819D01*
X141274874Y-62369819D02*
X141370112Y-62417438D01*
X141370112Y-62417438D02*
X141417731Y-62465057D01*
X141417731Y-62465057D02*
X141465350Y-62560295D01*
X141465350Y-62560295D02*
X141512969Y-62750771D01*
X141512969Y-62750771D02*
X141512969Y-62988866D01*
X141512969Y-62988866D02*
X141465350Y-63179342D01*
X141465350Y-63179342D02*
X141417731Y-63274580D01*
X141417731Y-63274580D02*
X141370112Y-63322200D01*
X141370112Y-63322200D02*
X141274874Y-63369819D01*
X141274874Y-63369819D02*
X141179636Y-63369819D01*
X141179636Y-63369819D02*
X141084398Y-63322200D01*
X141084398Y-63322200D02*
X141036779Y-63274580D01*
X141036779Y-63274580D02*
X140989160Y-63179342D01*
X140989160Y-63179342D02*
X140941541Y-62988866D01*
X140941541Y-62988866D02*
X140941541Y-62750771D01*
X140941541Y-62750771D02*
X140989160Y-62560295D01*
X140989160Y-62560295D02*
X141036779Y-62465057D01*
X141036779Y-62465057D02*
X141084398Y-62417438D01*
X141084398Y-62417438D02*
X141179636Y-62369819D01*
X141893922Y-62465057D02*
X141941541Y-62417438D01*
X141941541Y-62417438D02*
X142036779Y-62369819D01*
X142036779Y-62369819D02*
X142274874Y-62369819D01*
X142274874Y-62369819D02*
X142370112Y-62417438D01*
X142370112Y-62417438D02*
X142417731Y-62465057D01*
X142417731Y-62465057D02*
X142465350Y-62560295D01*
X142465350Y-62560295D02*
X142465350Y-62655533D01*
X142465350Y-62655533D02*
X142417731Y-62798390D01*
X142417731Y-62798390D02*
X141846303Y-63369819D01*
X141846303Y-63369819D02*
X142465350Y-63369819D01*
X143370112Y-62369819D02*
X142893922Y-62369819D01*
X142893922Y-62369819D02*
X142846303Y-62846009D01*
X142846303Y-62846009D02*
X142893922Y-62798390D01*
X142893922Y-62798390D02*
X142989160Y-62750771D01*
X142989160Y-62750771D02*
X143227255Y-62750771D01*
X143227255Y-62750771D02*
X143322493Y-62798390D01*
X143322493Y-62798390D02*
X143370112Y-62846009D01*
X143370112Y-62846009D02*
X143417731Y-62941247D01*
X143417731Y-62941247D02*
X143417731Y-63179342D01*
X143417731Y-63179342D02*
X143370112Y-63274580D01*
X143370112Y-63274580D02*
X143322493Y-63322200D01*
X143322493Y-63322200D02*
X143227255Y-63369819D01*
X143227255Y-63369819D02*
X142989160Y-63369819D01*
X142989160Y-63369819D02*
X142893922Y-63322200D01*
X142893922Y-63322200D02*
X142846303Y-63274580D01*
X143846303Y-62988866D02*
X144608208Y-62988866D01*
X145274874Y-62369819D02*
X145370112Y-62369819D01*
X145370112Y-62369819D02*
X145465350Y-62417438D01*
X145465350Y-62417438D02*
X145512969Y-62465057D01*
X145512969Y-62465057D02*
X145560588Y-62560295D01*
X145560588Y-62560295D02*
X145608207Y-62750771D01*
X145608207Y-62750771D02*
X145608207Y-62988866D01*
X145608207Y-62988866D02*
X145560588Y-63179342D01*
X145560588Y-63179342D02*
X145512969Y-63274580D01*
X145512969Y-63274580D02*
X145465350Y-63322200D01*
X145465350Y-63322200D02*
X145370112Y-63369819D01*
X145370112Y-63369819D02*
X145274874Y-63369819D01*
X145274874Y-63369819D02*
X145179636Y-63322200D01*
X145179636Y-63322200D02*
X145132017Y-63274580D01*
X145132017Y-63274580D02*
X145084398Y-63179342D01*
X145084398Y-63179342D02*
X145036779Y-62988866D01*
X145036779Y-62988866D02*
X145036779Y-62750771D01*
X145036779Y-62750771D02*
X145084398Y-62560295D01*
X145084398Y-62560295D02*
X145132017Y-62465057D01*
X145132017Y-62465057D02*
X145179636Y-62417438D01*
X145179636Y-62417438D02*
X145274874Y-62369819D01*
X146179636Y-62798390D02*
X146084398Y-62750771D01*
X146084398Y-62750771D02*
X146036779Y-62703152D01*
X146036779Y-62703152D02*
X145989160Y-62607914D01*
X145989160Y-62607914D02*
X145989160Y-62560295D01*
X145989160Y-62560295D02*
X146036779Y-62465057D01*
X146036779Y-62465057D02*
X146084398Y-62417438D01*
X146084398Y-62417438D02*
X146179636Y-62369819D01*
X146179636Y-62369819D02*
X146370112Y-62369819D01*
X146370112Y-62369819D02*
X146465350Y-62417438D01*
X146465350Y-62417438D02*
X146512969Y-62465057D01*
X146512969Y-62465057D02*
X146560588Y-62560295D01*
X146560588Y-62560295D02*
X146560588Y-62607914D01*
X146560588Y-62607914D02*
X146512969Y-62703152D01*
X146512969Y-62703152D02*
X146465350Y-62750771D01*
X146465350Y-62750771D02*
X146370112Y-62798390D01*
X146370112Y-62798390D02*
X146179636Y-62798390D01*
X146179636Y-62798390D02*
X146084398Y-62846009D01*
X146084398Y-62846009D02*
X146036779Y-62893628D01*
X146036779Y-62893628D02*
X145989160Y-62988866D01*
X145989160Y-62988866D02*
X145989160Y-63179342D01*
X145989160Y-63179342D02*
X146036779Y-63274580D01*
X146036779Y-63274580D02*
X146084398Y-63322200D01*
X146084398Y-63322200D02*
X146179636Y-63369819D01*
X146179636Y-63369819D02*
X146370112Y-63369819D01*
X146370112Y-63369819D02*
X146465350Y-63322200D01*
X146465350Y-63322200D02*
X146512969Y-63274580D01*
X146512969Y-63274580D02*
X146560588Y-63179342D01*
X146560588Y-63179342D02*
X146560588Y-62988866D01*
X146560588Y-62988866D02*
X146512969Y-62893628D01*
X146512969Y-62893628D02*
X146465350Y-62846009D01*
X146465350Y-62846009D02*
X146370112Y-62798390D01*
X146989160Y-62988866D02*
X147751065Y-62988866D01*
X148751064Y-63369819D02*
X148179636Y-63369819D01*
X148465350Y-63369819D02*
X148465350Y-62369819D01*
X148465350Y-62369819D02*
X148370112Y-62512676D01*
X148370112Y-62512676D02*
X148274874Y-62607914D01*
X148274874Y-62607914D02*
X148179636Y-62655533D01*
X149608207Y-62369819D02*
X149417731Y-62369819D01*
X149417731Y-62369819D02*
X149322493Y-62417438D01*
X149322493Y-62417438D02*
X149274874Y-62465057D01*
X149274874Y-62465057D02*
X149179636Y-62607914D01*
X149179636Y-62607914D02*
X149132017Y-62798390D01*
X149132017Y-62798390D02*
X149132017Y-63179342D01*
X149132017Y-63179342D02*
X149179636Y-63274580D01*
X149179636Y-63274580D02*
X149227255Y-63322200D01*
X149227255Y-63322200D02*
X149322493Y-63369819D01*
X149322493Y-63369819D02*
X149512969Y-63369819D01*
X149512969Y-63369819D02*
X149608207Y-63322200D01*
X149608207Y-63322200D02*
X149655826Y-63274580D01*
X149655826Y-63274580D02*
X149703445Y-63179342D01*
X149703445Y-63179342D02*
X149703445Y-62941247D01*
X149703445Y-62941247D02*
X149655826Y-62846009D01*
X149655826Y-62846009D02*
X149608207Y-62798390D01*
X149608207Y-62798390D02*
X149512969Y-62750771D01*
X149512969Y-62750771D02*
X149322493Y-62750771D01*
X149322493Y-62750771D02*
X149227255Y-62798390D01*
X149227255Y-62798390D02*
X149179636Y-62846009D01*
X149179636Y-62846009D02*
X149132017Y-62941247D01*
X103346333Y-116908509D02*
X103079666Y-116527556D01*
X102889190Y-116908509D02*
X102889190Y-116108509D01*
X102889190Y-116108509D02*
X103193952Y-116108509D01*
X103193952Y-116108509D02*
X103270142Y-116146604D01*
X103270142Y-116146604D02*
X103308237Y-116184699D01*
X103308237Y-116184699D02*
X103346333Y-116260890D01*
X103346333Y-116260890D02*
X103346333Y-116375175D01*
X103346333Y-116375175D02*
X103308237Y-116451366D01*
X103308237Y-116451366D02*
X103270142Y-116489461D01*
X103270142Y-116489461D02*
X103193952Y-116527556D01*
X103193952Y-116527556D02*
X102889190Y-116527556D01*
X104222523Y-116984699D02*
X104146333Y-116946604D01*
X104146333Y-116946604D02*
X104070142Y-116870414D01*
X104070142Y-116870414D02*
X103955856Y-116756128D01*
X103955856Y-116756128D02*
X103879666Y-116718033D01*
X103879666Y-116718033D02*
X103803475Y-116718033D01*
X103841571Y-116908509D02*
X103765380Y-116870414D01*
X103765380Y-116870414D02*
X103689190Y-116794223D01*
X103689190Y-116794223D02*
X103651094Y-116641842D01*
X103651094Y-116641842D02*
X103651094Y-116375175D01*
X103651094Y-116375175D02*
X103689190Y-116222794D01*
X103689190Y-116222794D02*
X103765380Y-116146604D01*
X103765380Y-116146604D02*
X103841571Y-116108509D01*
X103841571Y-116108509D02*
X103993952Y-116108509D01*
X103993952Y-116108509D02*
X104070142Y-116146604D01*
X104070142Y-116146604D02*
X104146333Y-116222794D01*
X104146333Y-116222794D02*
X104184428Y-116375175D01*
X104184428Y-116375175D02*
X104184428Y-116641842D01*
X104184428Y-116641842D02*
X104146333Y-116794223D01*
X104146333Y-116794223D02*
X104070142Y-116870414D01*
X104070142Y-116870414D02*
X103993952Y-116908509D01*
X103993952Y-116908509D02*
X103841571Y-116908509D01*
X104793951Y-116489461D02*
X104908237Y-116527556D01*
X104908237Y-116527556D02*
X104946332Y-116565652D01*
X104946332Y-116565652D02*
X104984428Y-116641842D01*
X104984428Y-116641842D02*
X104984428Y-116756128D01*
X104984428Y-116756128D02*
X104946332Y-116832318D01*
X104946332Y-116832318D02*
X104908237Y-116870414D01*
X104908237Y-116870414D02*
X104832047Y-116908509D01*
X104832047Y-116908509D02*
X104527285Y-116908509D01*
X104527285Y-116908509D02*
X104527285Y-116108509D01*
X104527285Y-116108509D02*
X104793951Y-116108509D01*
X104793951Y-116108509D02*
X104870142Y-116146604D01*
X104870142Y-116146604D02*
X104908237Y-116184699D01*
X104908237Y-116184699D02*
X104946332Y-116260890D01*
X104946332Y-116260890D02*
X104946332Y-116337080D01*
X104946332Y-116337080D02*
X104908237Y-116413271D01*
X104908237Y-116413271D02*
X104870142Y-116451366D01*
X104870142Y-116451366D02*
X104793951Y-116489461D01*
X104793951Y-116489461D02*
X104527285Y-116489461D01*
D12*
X124483202Y-74271539D02*
X124483202Y-73471539D01*
X124940345Y-74271539D02*
X124597487Y-73814396D01*
X124940345Y-73471539D02*
X124483202Y-73928682D01*
D10*
X112997617Y-81426850D02*
X112997617Y-80931612D01*
X112997617Y-80931612D02*
X113302379Y-81198278D01*
X113302379Y-81198278D02*
X113302379Y-81083993D01*
X113302379Y-81083993D02*
X113340474Y-81007802D01*
X113340474Y-81007802D02*
X113378569Y-80969707D01*
X113378569Y-80969707D02*
X113454760Y-80931612D01*
X113454760Y-80931612D02*
X113645236Y-80931612D01*
X113645236Y-80931612D02*
X113721426Y-80969707D01*
X113721426Y-80969707D02*
X113759522Y-81007802D01*
X113759522Y-81007802D02*
X113797617Y-81083993D01*
X113797617Y-81083993D02*
X113797617Y-81312564D01*
X113797617Y-81312564D02*
X113759522Y-81388755D01*
X113759522Y-81388755D02*
X113721426Y-81426850D01*
X113264283Y-80664945D02*
X113797617Y-80474469D01*
X113797617Y-80474469D02*
X113264283Y-80283992D01*
X112997617Y-80055421D02*
X112997617Y-79560183D01*
X112997617Y-79560183D02*
X113302379Y-79826849D01*
X113302379Y-79826849D02*
X113302379Y-79712564D01*
X113302379Y-79712564D02*
X113340474Y-79636373D01*
X113340474Y-79636373D02*
X113378569Y-79598278D01*
X113378569Y-79598278D02*
X113454760Y-79560183D01*
X113454760Y-79560183D02*
X113645236Y-79560183D01*
X113645236Y-79560183D02*
X113721426Y-79598278D01*
X113721426Y-79598278D02*
X113759522Y-79636373D01*
X113759522Y-79636373D02*
X113797617Y-79712564D01*
X113797617Y-79712564D02*
X113797617Y-79941135D01*
X113797617Y-79941135D02*
X113759522Y-80017326D01*
X113759522Y-80017326D02*
X113721426Y-80055421D01*
D13*
X164175715Y-117999181D02*
X164223334Y-118046800D01*
X164223334Y-118046800D02*
X164270953Y-118142038D01*
X164270953Y-118142038D02*
X164270953Y-118380133D01*
X164270953Y-118380133D02*
X164223334Y-118475371D01*
X164223334Y-118475371D02*
X164175715Y-118522990D01*
X164175715Y-118522990D02*
X164080477Y-118570609D01*
X164080477Y-118570609D02*
X163985239Y-118570609D01*
X163985239Y-118570609D02*
X163842382Y-118522990D01*
X163842382Y-118522990D02*
X163270953Y-117951562D01*
X163270953Y-117951562D02*
X163270953Y-118570609D01*
X163366192Y-118999181D02*
X163318573Y-119046800D01*
X163318573Y-119046800D02*
X163270953Y-118999181D01*
X163270953Y-118999181D02*
X163318573Y-118951562D01*
X163318573Y-118951562D02*
X163366192Y-118999181D01*
X163366192Y-118999181D02*
X163270953Y-118999181D01*
X163270953Y-119999180D02*
X163270953Y-119427752D01*
X163270953Y-119713466D02*
X164270953Y-119713466D01*
X164270953Y-119713466D02*
X164128096Y-119618228D01*
X164128096Y-119618228D02*
X164032858Y-119522990D01*
X164032858Y-119522990D02*
X163985239Y-119427752D01*
D10*
X103270142Y-119608509D02*
X102889190Y-119608509D01*
X102889190Y-119608509D02*
X102889190Y-118808509D01*
X104070142Y-119684699D02*
X103993952Y-119646604D01*
X103993952Y-119646604D02*
X103917761Y-119570414D01*
X103917761Y-119570414D02*
X103803475Y-119456128D01*
X103803475Y-119456128D02*
X103727285Y-119418033D01*
X103727285Y-119418033D02*
X103651094Y-119418033D01*
X103689190Y-119608509D02*
X103612999Y-119570414D01*
X103612999Y-119570414D02*
X103536809Y-119494223D01*
X103536809Y-119494223D02*
X103498713Y-119341842D01*
X103498713Y-119341842D02*
X103498713Y-119075175D01*
X103498713Y-119075175D02*
X103536809Y-118922794D01*
X103536809Y-118922794D02*
X103612999Y-118846604D01*
X103612999Y-118846604D02*
X103689190Y-118808509D01*
X103689190Y-118808509D02*
X103841571Y-118808509D01*
X103841571Y-118808509D02*
X103917761Y-118846604D01*
X103917761Y-118846604D02*
X103993952Y-118922794D01*
X103993952Y-118922794D02*
X104032047Y-119075175D01*
X104032047Y-119075175D02*
X104032047Y-119341842D01*
X104032047Y-119341842D02*
X103993952Y-119494223D01*
X103993952Y-119494223D02*
X103917761Y-119570414D01*
X103917761Y-119570414D02*
X103841571Y-119608509D01*
X103841571Y-119608509D02*
X103689190Y-119608509D01*
X104336808Y-119379937D02*
X104717761Y-119379937D01*
X104260618Y-119608509D02*
X104527285Y-118808509D01*
X104527285Y-118808509D02*
X104793951Y-119608509D01*
X103338460Y-94711877D02*
X103071793Y-94330924D01*
X102881317Y-94711877D02*
X102881317Y-93911877D01*
X102881317Y-93911877D02*
X103186079Y-93911877D01*
X103186079Y-93911877D02*
X103262269Y-93949972D01*
X103262269Y-93949972D02*
X103300364Y-93988067D01*
X103300364Y-93988067D02*
X103338460Y-94064258D01*
X103338460Y-94064258D02*
X103338460Y-94178543D01*
X103338460Y-94178543D02*
X103300364Y-94254734D01*
X103300364Y-94254734D02*
X103262269Y-94292829D01*
X103262269Y-94292829D02*
X103186079Y-94330924D01*
X103186079Y-94330924D02*
X102881317Y-94330924D01*
X103681317Y-94711877D02*
X103681317Y-93911877D01*
X103681317Y-93911877D02*
X103947983Y-94483305D01*
X103947983Y-94483305D02*
X104214650Y-93911877D01*
X104214650Y-93911877D02*
X104214650Y-94711877D01*
X104481317Y-93911877D02*
X104938460Y-93911877D01*
X104709888Y-94711877D02*
X104709888Y-93911877D01*
X105167031Y-93988067D02*
X105205127Y-93949972D01*
X105205127Y-93949972D02*
X105281317Y-93911877D01*
X105281317Y-93911877D02*
X105471793Y-93911877D01*
X105471793Y-93911877D02*
X105547984Y-93949972D01*
X105547984Y-93949972D02*
X105586079Y-93988067D01*
X105586079Y-93988067D02*
X105624174Y-94064258D01*
X105624174Y-94064258D02*
X105624174Y-94140448D01*
X105624174Y-94140448D02*
X105586079Y-94254734D01*
X105586079Y-94254734D02*
X105128936Y-94711877D01*
X105128936Y-94711877D02*
X105624174Y-94711877D01*
X115715523Y-80981792D02*
X115677428Y-81057982D01*
X115677428Y-81057982D02*
X115677428Y-81172268D01*
X115677428Y-81172268D02*
X115715523Y-81286554D01*
X115715523Y-81286554D02*
X115791713Y-81362744D01*
X115791713Y-81362744D02*
X115867904Y-81400839D01*
X115867904Y-81400839D02*
X116020285Y-81438935D01*
X116020285Y-81438935D02*
X116134571Y-81438935D01*
X116134571Y-81438935D02*
X116286952Y-81400839D01*
X116286952Y-81400839D02*
X116363142Y-81362744D01*
X116363142Y-81362744D02*
X116439333Y-81286554D01*
X116439333Y-81286554D02*
X116477428Y-81172268D01*
X116477428Y-81172268D02*
X116477428Y-81096077D01*
X116477428Y-81096077D02*
X116439333Y-80981792D01*
X116439333Y-80981792D02*
X116401237Y-80943696D01*
X116401237Y-80943696D02*
X116134571Y-80943696D01*
X116134571Y-80943696D02*
X116134571Y-81096077D01*
X116477428Y-80600839D02*
X115677428Y-80600839D01*
X115677428Y-80600839D02*
X116477428Y-80143696D01*
X116477428Y-80143696D02*
X115677428Y-80143696D01*
X116477428Y-79762744D02*
X115677428Y-79762744D01*
X115677428Y-79762744D02*
X115677428Y-79572268D01*
X115677428Y-79572268D02*
X115715523Y-79457982D01*
X115715523Y-79457982D02*
X115791713Y-79381792D01*
X115791713Y-79381792D02*
X115867904Y-79343697D01*
X115867904Y-79343697D02*
X116020285Y-79305601D01*
X116020285Y-79305601D02*
X116134571Y-79305601D01*
X116134571Y-79305601D02*
X116286952Y-79343697D01*
X116286952Y-79343697D02*
X116363142Y-79381792D01*
X116363142Y-79381792D02*
X116439333Y-79457982D01*
X116439333Y-79457982D02*
X116477428Y-79572268D01*
X116477428Y-79572268D02*
X116477428Y-79762744D01*
X160006591Y-105454990D02*
X160387544Y-105454990D01*
X159930401Y-105683562D02*
X160197068Y-104883562D01*
X160197068Y-104883562D02*
X160463734Y-105683562D01*
X161149448Y-105683562D02*
X160692305Y-105683562D01*
X160920877Y-105683562D02*
X160920877Y-104883562D01*
X160920877Y-104883562D02*
X160844686Y-104997847D01*
X160844686Y-104997847D02*
X160768496Y-105074038D01*
X160768496Y-105074038D02*
X160692305Y-105112133D01*
X160425639Y-82083562D02*
X160044687Y-82083562D01*
X160044687Y-82083562D02*
X160006591Y-82464514D01*
X160006591Y-82464514D02*
X160044687Y-82426419D01*
X160044687Y-82426419D02*
X160120877Y-82388324D01*
X160120877Y-82388324D02*
X160311353Y-82388324D01*
X160311353Y-82388324D02*
X160387544Y-82426419D01*
X160387544Y-82426419D02*
X160425639Y-82464514D01*
X160425639Y-82464514D02*
X160463734Y-82540705D01*
X160463734Y-82540705D02*
X160463734Y-82731181D01*
X160463734Y-82731181D02*
X160425639Y-82807371D01*
X160425639Y-82807371D02*
X160387544Y-82845467D01*
X160387544Y-82845467D02*
X160311353Y-82883562D01*
X160311353Y-82883562D02*
X160120877Y-82883562D01*
X160120877Y-82883562D02*
X160044687Y-82845467D01*
X160044687Y-82845467D02*
X160006591Y-82807371D01*
X160692306Y-82083562D02*
X160958973Y-82883562D01*
X160958973Y-82883562D02*
X161225639Y-82083562D01*
X111132650Y-81174301D02*
X110332650Y-81174301D01*
X110332650Y-81174301D02*
X111132650Y-80717158D01*
X111132650Y-80717158D02*
X110332650Y-80717158D01*
X111056459Y-79879063D02*
X111094555Y-79917159D01*
X111094555Y-79917159D02*
X111132650Y-80031444D01*
X111132650Y-80031444D02*
X111132650Y-80107635D01*
X111132650Y-80107635D02*
X111094555Y-80221921D01*
X111094555Y-80221921D02*
X111018364Y-80298111D01*
X111018364Y-80298111D02*
X110942174Y-80336206D01*
X110942174Y-80336206D02*
X110789793Y-80374302D01*
X110789793Y-80374302D02*
X110675507Y-80374302D01*
X110675507Y-80374302D02*
X110523126Y-80336206D01*
X110523126Y-80336206D02*
X110446935Y-80298111D01*
X110446935Y-80298111D02*
X110370745Y-80221921D01*
X110370745Y-80221921D02*
X110332650Y-80107635D01*
X110332650Y-80107635D02*
X110332650Y-80031444D01*
X110332650Y-80031444D02*
X110370745Y-79917159D01*
X110370745Y-79917159D02*
X110408840Y-79879063D01*
X103262269Y-89511877D02*
X102881317Y-89511877D01*
X102881317Y-89511877D02*
X102881317Y-88711877D01*
X103528936Y-89511877D02*
X103528936Y-88711877D01*
X103528936Y-88711877D02*
X103795602Y-89283305D01*
X103795602Y-89283305D02*
X104062269Y-88711877D01*
X104062269Y-88711877D02*
X104062269Y-89511877D01*
X104328936Y-88711877D02*
X104786079Y-88711877D01*
X104557507Y-89511877D02*
X104557507Y-88711877D01*
X105014650Y-88788067D02*
X105052746Y-88749972D01*
X105052746Y-88749972D02*
X105128936Y-88711877D01*
X105128936Y-88711877D02*
X105319412Y-88711877D01*
X105319412Y-88711877D02*
X105395603Y-88749972D01*
X105395603Y-88749972D02*
X105433698Y-88788067D01*
X105433698Y-88788067D02*
X105471793Y-88864258D01*
X105471793Y-88864258D02*
X105471793Y-88940448D01*
X105471793Y-88940448D02*
X105433698Y-89054734D01*
X105433698Y-89054734D02*
X104976555Y-89511877D01*
X104976555Y-89511877D02*
X105471793Y-89511877D01*
X160006591Y-113254990D02*
X160387544Y-113254990D01*
X159930401Y-113483562D02*
X160197068Y-112683562D01*
X160197068Y-112683562D02*
X160463734Y-113483562D01*
X161073258Y-112950228D02*
X161073258Y-113483562D01*
X160882782Y-112645467D02*
X160692305Y-113216895D01*
X160692305Y-113216895D02*
X161187544Y-113216895D01*
D11*
X164143333Y-139935561D02*
X164143333Y-138316514D01*
X164143333Y-138316514D02*
X164048095Y-138126038D01*
X164048095Y-138126038D02*
X163952857Y-138030800D01*
X163952857Y-138030800D02*
X163762381Y-137935561D01*
X163762381Y-137935561D02*
X163381428Y-137935561D01*
X163381428Y-137935561D02*
X163190952Y-138030800D01*
X163190952Y-138030800D02*
X163095714Y-138126038D01*
X163095714Y-138126038D02*
X163000476Y-138316514D01*
X163000476Y-138316514D02*
X163000476Y-139935561D01*
X162048095Y-137935561D02*
X162048095Y-139935561D01*
X160905238Y-137935561D02*
X161762381Y-139078419D01*
X160905238Y-139935561D02*
X162048095Y-138792704D01*
X160048095Y-137935561D02*
X160048095Y-139935561D01*
X160048095Y-139935561D02*
X159381428Y-138506990D01*
X159381428Y-138506990D02*
X158714762Y-139935561D01*
X158714762Y-139935561D02*
X158714762Y-137935561D01*
X157857619Y-138506990D02*
X156905238Y-138506990D01*
X158048095Y-137935561D02*
X157381429Y-139935561D01*
X157381429Y-139935561D02*
X156714762Y-137935561D01*
X154905238Y-137935561D02*
X155571905Y-138887942D01*
X156048095Y-137935561D02*
X156048095Y-139935561D01*
X156048095Y-139935561D02*
X155286190Y-139935561D01*
X155286190Y-139935561D02*
X155095714Y-139840323D01*
X155095714Y-139840323D02*
X155000476Y-139745085D01*
X155000476Y-139745085D02*
X154905238Y-139554609D01*
X154905238Y-139554609D02*
X154905238Y-139268895D01*
X154905238Y-139268895D02*
X155000476Y-139078419D01*
X155000476Y-139078419D02*
X155095714Y-138983180D01*
X155095714Y-138983180D02*
X155286190Y-138887942D01*
X155286190Y-138887942D02*
X156048095Y-138887942D01*
X154143333Y-138030800D02*
X153857619Y-137935561D01*
X153857619Y-137935561D02*
X153381428Y-137935561D01*
X153381428Y-137935561D02*
X153190952Y-138030800D01*
X153190952Y-138030800D02*
X153095714Y-138126038D01*
X153095714Y-138126038D02*
X153000476Y-138316514D01*
X153000476Y-138316514D02*
X153000476Y-138506990D01*
X153000476Y-138506990D02*
X153095714Y-138697466D01*
X153095714Y-138697466D02*
X153190952Y-138792704D01*
X153190952Y-138792704D02*
X153381428Y-138887942D01*
X153381428Y-138887942D02*
X153762381Y-138983180D01*
X153762381Y-138983180D02*
X153952857Y-139078419D01*
X153952857Y-139078419D02*
X154048095Y-139173657D01*
X154048095Y-139173657D02*
X154143333Y-139364133D01*
X154143333Y-139364133D02*
X154143333Y-139554609D01*
X154143333Y-139554609D02*
X154048095Y-139745085D01*
X154048095Y-139745085D02*
X153952857Y-139840323D01*
X153952857Y-139840323D02*
X153762381Y-139935561D01*
X153762381Y-139935561D02*
X153286190Y-139935561D01*
X153286190Y-139935561D02*
X153000476Y-139840323D01*
X149571904Y-139840323D02*
X149762380Y-139935561D01*
X149762380Y-139935561D02*
X150048094Y-139935561D01*
X150048094Y-139935561D02*
X150333809Y-139840323D01*
X150333809Y-139840323D02*
X150524285Y-139649847D01*
X150524285Y-139649847D02*
X150619523Y-139459371D01*
X150619523Y-139459371D02*
X150714761Y-139078419D01*
X150714761Y-139078419D02*
X150714761Y-138792704D01*
X150714761Y-138792704D02*
X150619523Y-138411752D01*
X150619523Y-138411752D02*
X150524285Y-138221276D01*
X150524285Y-138221276D02*
X150333809Y-138030800D01*
X150333809Y-138030800D02*
X150048094Y-137935561D01*
X150048094Y-137935561D02*
X149857618Y-137935561D01*
X149857618Y-137935561D02*
X149571904Y-138030800D01*
X149571904Y-138030800D02*
X149476666Y-138126038D01*
X149476666Y-138126038D02*
X149476666Y-138792704D01*
X149476666Y-138792704D02*
X149857618Y-138792704D01*
X147857618Y-138030800D02*
X148048094Y-137935561D01*
X148048094Y-137935561D02*
X148429047Y-137935561D01*
X148429047Y-137935561D02*
X148619523Y-138030800D01*
X148619523Y-138030800D02*
X148714761Y-138221276D01*
X148714761Y-138221276D02*
X148714761Y-138983180D01*
X148714761Y-138983180D02*
X148619523Y-139173657D01*
X148619523Y-139173657D02*
X148429047Y-139268895D01*
X148429047Y-139268895D02*
X148048094Y-139268895D01*
X148048094Y-139268895D02*
X147857618Y-139173657D01*
X147857618Y-139173657D02*
X147762380Y-138983180D01*
X147762380Y-138983180D02*
X147762380Y-138792704D01*
X147762380Y-138792704D02*
X148714761Y-138602228D01*
X146905237Y-137935561D02*
X146905237Y-139268895D01*
X146905237Y-139078419D02*
X146809999Y-139173657D01*
X146809999Y-139173657D02*
X146619523Y-139268895D01*
X146619523Y-139268895D02*
X146333808Y-139268895D01*
X146333808Y-139268895D02*
X146143332Y-139173657D01*
X146143332Y-139173657D02*
X146048094Y-138983180D01*
X146048094Y-138983180D02*
X146048094Y-137935561D01*
X146048094Y-138983180D02*
X145952856Y-139173657D01*
X145952856Y-139173657D02*
X145762380Y-139268895D01*
X145762380Y-139268895D02*
X145476666Y-139268895D01*
X145476666Y-139268895D02*
X145286189Y-139173657D01*
X145286189Y-139173657D02*
X145190951Y-138983180D01*
X145190951Y-138983180D02*
X145190951Y-137935561D01*
X144238570Y-137935561D02*
X144238570Y-139268895D01*
X144238570Y-139935561D02*
X144333808Y-139840323D01*
X144333808Y-139840323D02*
X144238570Y-139745085D01*
X144238570Y-139745085D02*
X144143332Y-139840323D01*
X144143332Y-139840323D02*
X144238570Y-139935561D01*
X144238570Y-139935561D02*
X144238570Y-139745085D01*
X143286189Y-139268895D02*
X143286189Y-137935561D01*
X143286189Y-139078419D02*
X143190951Y-139173657D01*
X143190951Y-139173657D02*
X143000475Y-139268895D01*
X143000475Y-139268895D02*
X142714760Y-139268895D01*
X142714760Y-139268895D02*
X142524284Y-139173657D01*
X142524284Y-139173657D02*
X142429046Y-138983180D01*
X142429046Y-138983180D02*
X142429046Y-137935561D01*
X141476665Y-137935561D02*
X141476665Y-139268895D01*
X141476665Y-139935561D02*
X141571903Y-139840323D01*
X141571903Y-139840323D02*
X141476665Y-139745085D01*
X141476665Y-139745085D02*
X141381427Y-139840323D01*
X141381427Y-139840323D02*
X141476665Y-139935561D01*
X141476665Y-139935561D02*
X141476665Y-139745085D01*
D10*
X160144687Y-98083562D02*
X160144687Y-97283562D01*
X160144687Y-97283562D02*
X160335163Y-97283562D01*
X160335163Y-97283562D02*
X160449449Y-97321657D01*
X160449449Y-97321657D02*
X160525639Y-97397847D01*
X160525639Y-97397847D02*
X160563734Y-97474038D01*
X160563734Y-97474038D02*
X160601830Y-97626419D01*
X160601830Y-97626419D02*
X160601830Y-97740705D01*
X160601830Y-97740705D02*
X160563734Y-97893086D01*
X160563734Y-97893086D02*
X160525639Y-97969276D01*
X160525639Y-97969276D02*
X160449449Y-98045467D01*
X160449449Y-98045467D02*
X160335163Y-98083562D01*
X160335163Y-98083562D02*
X160144687Y-98083562D01*
X160868496Y-97283562D02*
X161363734Y-97283562D01*
X161363734Y-97283562D02*
X161097068Y-97588324D01*
X161097068Y-97588324D02*
X161211353Y-97588324D01*
X161211353Y-97588324D02*
X161287544Y-97626419D01*
X161287544Y-97626419D02*
X161325639Y-97664514D01*
X161325639Y-97664514D02*
X161363734Y-97740705D01*
X161363734Y-97740705D02*
X161363734Y-97931181D01*
X161363734Y-97931181D02*
X161325639Y-98007371D01*
X161325639Y-98007371D02*
X161287544Y-98045467D01*
X161287544Y-98045467D02*
X161211353Y-98083562D01*
X161211353Y-98083562D02*
X160982782Y-98083562D01*
X160982782Y-98083562D02*
X160906591Y-98045467D01*
X160906591Y-98045467D02*
X160868496Y-98007371D01*
D11*
X162625980Y-84716854D02*
X164425980Y-84716854D01*
X164425980Y-84716854D02*
X164425980Y-85402568D01*
X164425980Y-85402568D02*
X164340266Y-85573997D01*
X164340266Y-85573997D02*
X164254552Y-85659711D01*
X164254552Y-85659711D02*
X164083123Y-85745425D01*
X164083123Y-85745425D02*
X163825980Y-85745425D01*
X163825980Y-85745425D02*
X163654552Y-85659711D01*
X163654552Y-85659711D02*
X163568837Y-85573997D01*
X163568837Y-85573997D02*
X163483123Y-85402568D01*
X163483123Y-85402568D02*
X163483123Y-84716854D01*
X162625980Y-86516854D02*
X163825980Y-86516854D01*
X164425980Y-86516854D02*
X164340266Y-86431140D01*
X164340266Y-86431140D02*
X164254552Y-86516854D01*
X164254552Y-86516854D02*
X164340266Y-86602568D01*
X164340266Y-86602568D02*
X164425980Y-86516854D01*
X164425980Y-86516854D02*
X164254552Y-86516854D01*
X162711695Y-88145426D02*
X162625980Y-87973997D01*
X162625980Y-87973997D02*
X162625980Y-87631140D01*
X162625980Y-87631140D02*
X162711695Y-87459711D01*
X162711695Y-87459711D02*
X162797409Y-87373997D01*
X162797409Y-87373997D02*
X162968837Y-87288283D01*
X162968837Y-87288283D02*
X163483123Y-87288283D01*
X163483123Y-87288283D02*
X163654552Y-87373997D01*
X163654552Y-87373997D02*
X163740266Y-87459711D01*
X163740266Y-87459711D02*
X163825980Y-87631140D01*
X163825980Y-87631140D02*
X163825980Y-87973997D01*
X163825980Y-87973997D02*
X163740266Y-88145426D01*
X162625980Y-89173997D02*
X162711695Y-89002568D01*
X162711695Y-89002568D02*
X162797409Y-88916854D01*
X162797409Y-88916854D02*
X162968837Y-88831140D01*
X162968837Y-88831140D02*
X163483123Y-88831140D01*
X163483123Y-88831140D02*
X163654552Y-88916854D01*
X163654552Y-88916854D02*
X163740266Y-89002568D01*
X163740266Y-89002568D02*
X163825980Y-89173997D01*
X163825980Y-89173997D02*
X163825980Y-89431140D01*
X163825980Y-89431140D02*
X163740266Y-89602568D01*
X163740266Y-89602568D02*
X163654552Y-89688283D01*
X163654552Y-89688283D02*
X163483123Y-89773997D01*
X163483123Y-89773997D02*
X162968837Y-89773997D01*
X162968837Y-89773997D02*
X162797409Y-89688283D01*
X162797409Y-89688283D02*
X162711695Y-89602568D01*
X162711695Y-89602568D02*
X162625980Y-89431140D01*
X162625980Y-89431140D02*
X162625980Y-89173997D01*
X162625980Y-92945425D02*
X163483123Y-92345425D01*
X162625980Y-91916854D02*
X164425980Y-91916854D01*
X164425980Y-91916854D02*
X164425980Y-92602568D01*
X164425980Y-92602568D02*
X164340266Y-92773997D01*
X164340266Y-92773997D02*
X164254552Y-92859711D01*
X164254552Y-92859711D02*
X164083123Y-92945425D01*
X164083123Y-92945425D02*
X163825980Y-92945425D01*
X163825980Y-92945425D02*
X163654552Y-92859711D01*
X163654552Y-92859711D02*
X163568837Y-92773997D01*
X163568837Y-92773997D02*
X163483123Y-92602568D01*
X163483123Y-92602568D02*
X163483123Y-91916854D01*
X162625980Y-93716854D02*
X164425980Y-93716854D01*
X164425980Y-93716854D02*
X164425980Y-94402568D01*
X164425980Y-94402568D02*
X164340266Y-94573997D01*
X164340266Y-94573997D02*
X164254552Y-94659711D01*
X164254552Y-94659711D02*
X164083123Y-94745425D01*
X164083123Y-94745425D02*
X163825980Y-94745425D01*
X163825980Y-94745425D02*
X163654552Y-94659711D01*
X163654552Y-94659711D02*
X163568837Y-94573997D01*
X163568837Y-94573997D02*
X163483123Y-94402568D01*
X163483123Y-94402568D02*
X163483123Y-93716854D01*
X164254552Y-95431140D02*
X164340266Y-95516854D01*
X164340266Y-95516854D02*
X164425980Y-95688283D01*
X164425980Y-95688283D02*
X164425980Y-96116854D01*
X164425980Y-96116854D02*
X164340266Y-96288283D01*
X164340266Y-96288283D02*
X164254552Y-96373997D01*
X164254552Y-96373997D02*
X164083123Y-96459711D01*
X164083123Y-96459711D02*
X163911695Y-96459711D01*
X163911695Y-96459711D02*
X163654552Y-96373997D01*
X163654552Y-96373997D02*
X162625980Y-95345425D01*
X162625980Y-95345425D02*
X162625980Y-96459711D01*
X164425980Y-97573997D02*
X164425980Y-97745426D01*
X164425980Y-97745426D02*
X164340266Y-97916854D01*
X164340266Y-97916854D02*
X164254552Y-98002569D01*
X164254552Y-98002569D02*
X164083123Y-98088283D01*
X164083123Y-98088283D02*
X163740266Y-98173997D01*
X163740266Y-98173997D02*
X163311695Y-98173997D01*
X163311695Y-98173997D02*
X162968837Y-98088283D01*
X162968837Y-98088283D02*
X162797409Y-98002569D01*
X162797409Y-98002569D02*
X162711695Y-97916854D01*
X162711695Y-97916854D02*
X162625980Y-97745426D01*
X162625980Y-97745426D02*
X162625980Y-97573997D01*
X162625980Y-97573997D02*
X162711695Y-97402569D01*
X162711695Y-97402569D02*
X162797409Y-97316854D01*
X162797409Y-97316854D02*
X162968837Y-97231140D01*
X162968837Y-97231140D02*
X163311695Y-97145426D01*
X163311695Y-97145426D02*
X163740266Y-97145426D01*
X163740266Y-97145426D02*
X164083123Y-97231140D01*
X164083123Y-97231140D02*
X164254552Y-97316854D01*
X164254552Y-97316854D02*
X164340266Y-97402569D01*
X164340266Y-97402569D02*
X164425980Y-97573997D01*
X163825980Y-99716855D02*
X162625980Y-99716855D01*
X164511695Y-99288283D02*
X163225980Y-98859712D01*
X163225980Y-98859712D02*
X163225980Y-99973997D01*
X164425980Y-101002569D02*
X164425980Y-101173998D01*
X164425980Y-101173998D02*
X164340266Y-101345426D01*
X164340266Y-101345426D02*
X164254552Y-101431141D01*
X164254552Y-101431141D02*
X164083123Y-101516855D01*
X164083123Y-101516855D02*
X163740266Y-101602569D01*
X163740266Y-101602569D02*
X163311695Y-101602569D01*
X163311695Y-101602569D02*
X162968837Y-101516855D01*
X162968837Y-101516855D02*
X162797409Y-101431141D01*
X162797409Y-101431141D02*
X162711695Y-101345426D01*
X162711695Y-101345426D02*
X162625980Y-101173998D01*
X162625980Y-101173998D02*
X162625980Y-101002569D01*
X162625980Y-101002569D02*
X162711695Y-100831141D01*
X162711695Y-100831141D02*
X162797409Y-100745426D01*
X162797409Y-100745426D02*
X162968837Y-100659712D01*
X162968837Y-100659712D02*
X163311695Y-100573998D01*
X163311695Y-100573998D02*
X163740266Y-100573998D01*
X163740266Y-100573998D02*
X164083123Y-100659712D01*
X164083123Y-100659712D02*
X164254552Y-100745426D01*
X164254552Y-100745426D02*
X164340266Y-100831141D01*
X164340266Y-100831141D02*
X164425980Y-101002569D01*
X162625980Y-103745427D02*
X164425980Y-103745427D01*
X164425980Y-103745427D02*
X163140266Y-104345427D01*
X163140266Y-104345427D02*
X164425980Y-104945427D01*
X164425980Y-104945427D02*
X162625980Y-104945427D01*
X162711695Y-106488284D02*
X162625980Y-106316856D01*
X162625980Y-106316856D02*
X162625980Y-105973999D01*
X162625980Y-105973999D02*
X162711695Y-105802570D01*
X162711695Y-105802570D02*
X162883123Y-105716856D01*
X162883123Y-105716856D02*
X163568837Y-105716856D01*
X163568837Y-105716856D02*
X163740266Y-105802570D01*
X163740266Y-105802570D02*
X163825980Y-105973999D01*
X163825980Y-105973999D02*
X163825980Y-106316856D01*
X163825980Y-106316856D02*
X163740266Y-106488284D01*
X163740266Y-106488284D02*
X163568837Y-106573999D01*
X163568837Y-106573999D02*
X163397409Y-106573999D01*
X163397409Y-106573999D02*
X163225980Y-105716856D01*
X163825980Y-107173998D02*
X163825980Y-108116856D01*
X163825980Y-108116856D02*
X162625980Y-107173998D01*
X162625980Y-107173998D02*
X162625980Y-108116856D01*
X163825980Y-108631141D02*
X163825980Y-109573999D01*
X163825980Y-109573999D02*
X162625980Y-108631141D01*
X162625980Y-108631141D02*
X162625980Y-109573999D01*
X162625980Y-111031142D02*
X163568837Y-111031142D01*
X163568837Y-111031142D02*
X163740266Y-110945427D01*
X163740266Y-110945427D02*
X163825980Y-110773999D01*
X163825980Y-110773999D02*
X163825980Y-110431142D01*
X163825980Y-110431142D02*
X163740266Y-110259713D01*
X162711695Y-111031142D02*
X162625980Y-110859713D01*
X162625980Y-110859713D02*
X162625980Y-110431142D01*
X162625980Y-110431142D02*
X162711695Y-110259713D01*
X162711695Y-110259713D02*
X162883123Y-110173999D01*
X162883123Y-110173999D02*
X163054552Y-110173999D01*
X163054552Y-110173999D02*
X163225980Y-110259713D01*
X163225980Y-110259713D02*
X163311695Y-110431142D01*
X163311695Y-110431142D02*
X163311695Y-110859713D01*
X163311695Y-110859713D02*
X163397409Y-111031142D01*
X163825980Y-111888284D02*
X162625980Y-111888284D01*
X163654552Y-111888284D02*
X163740266Y-111973998D01*
X163740266Y-111973998D02*
X163825980Y-112145427D01*
X163825980Y-112145427D02*
X163825980Y-112402570D01*
X163825980Y-112402570D02*
X163740266Y-112573998D01*
X163740266Y-112573998D02*
X163568837Y-112659713D01*
X163568837Y-112659713D02*
X162625980Y-112659713D01*
X162625980Y-113516855D02*
X163825980Y-113516855D01*
X164425980Y-113516855D02*
X164340266Y-113431141D01*
X164340266Y-113431141D02*
X164254552Y-113516855D01*
X164254552Y-113516855D02*
X164340266Y-113602569D01*
X164340266Y-113602569D02*
X164425980Y-113516855D01*
X164425980Y-113516855D02*
X164254552Y-113516855D01*
X163825980Y-114373998D02*
X162625980Y-114373998D01*
X163654552Y-114373998D02*
X163740266Y-114459712D01*
X163740266Y-114459712D02*
X163825980Y-114631141D01*
X163825980Y-114631141D02*
X163825980Y-114888284D01*
X163825980Y-114888284D02*
X163740266Y-115059712D01*
X163740266Y-115059712D02*
X163568837Y-115145427D01*
X163568837Y-115145427D02*
X162625980Y-115145427D01*
X162711695Y-116688283D02*
X162625980Y-116516855D01*
X162625980Y-116516855D02*
X162625980Y-116173998D01*
X162625980Y-116173998D02*
X162711695Y-116002569D01*
X162711695Y-116002569D02*
X162883123Y-115916855D01*
X162883123Y-115916855D02*
X163568837Y-115916855D01*
X163568837Y-115916855D02*
X163740266Y-116002569D01*
X163740266Y-116002569D02*
X163825980Y-116173998D01*
X163825980Y-116173998D02*
X163825980Y-116516855D01*
X163825980Y-116516855D02*
X163740266Y-116688283D01*
X163740266Y-116688283D02*
X163568837Y-116773998D01*
X163568837Y-116773998D02*
X163397409Y-116773998D01*
X163397409Y-116773998D02*
X163225980Y-115916855D01*
D10*
X103262269Y-86811877D02*
X102881317Y-86811877D01*
X102881317Y-86811877D02*
X102881317Y-86011877D01*
X103528936Y-86811877D02*
X103528936Y-86011877D01*
X103528936Y-86011877D02*
X103795602Y-86583305D01*
X103795602Y-86583305D02*
X104062269Y-86011877D01*
X104062269Y-86011877D02*
X104062269Y-86811877D01*
X104328936Y-86011877D02*
X104786079Y-86011877D01*
X104557507Y-86811877D02*
X104557507Y-86011877D01*
X105471793Y-86811877D02*
X105014650Y-86811877D01*
X105243222Y-86811877D02*
X105243222Y-86011877D01*
X105243222Y-86011877D02*
X105167031Y-86126162D01*
X105167031Y-86126162D02*
X105090841Y-86202353D01*
X105090841Y-86202353D02*
X105014650Y-86240448D01*
X160563734Y-84721657D02*
X160487544Y-84683562D01*
X160487544Y-84683562D02*
X160373258Y-84683562D01*
X160373258Y-84683562D02*
X160258972Y-84721657D01*
X160258972Y-84721657D02*
X160182782Y-84797847D01*
X160182782Y-84797847D02*
X160144687Y-84874038D01*
X160144687Y-84874038D02*
X160106591Y-85026419D01*
X160106591Y-85026419D02*
X160106591Y-85140705D01*
X160106591Y-85140705D02*
X160144687Y-85293086D01*
X160144687Y-85293086D02*
X160182782Y-85369276D01*
X160182782Y-85369276D02*
X160258972Y-85445467D01*
X160258972Y-85445467D02*
X160373258Y-85483562D01*
X160373258Y-85483562D02*
X160449449Y-85483562D01*
X160449449Y-85483562D02*
X160563734Y-85445467D01*
X160563734Y-85445467D02*
X160601830Y-85407371D01*
X160601830Y-85407371D02*
X160601830Y-85140705D01*
X160601830Y-85140705D02*
X160449449Y-85140705D01*
X160944687Y-85483562D02*
X160944687Y-84683562D01*
X160944687Y-84683562D02*
X161401830Y-85483562D01*
X161401830Y-85483562D02*
X161401830Y-84683562D01*
X161782782Y-85483562D02*
X161782782Y-84683562D01*
X161782782Y-84683562D02*
X161973258Y-84683562D01*
X161973258Y-84683562D02*
X162087544Y-84721657D01*
X162087544Y-84721657D02*
X162163734Y-84797847D01*
X162163734Y-84797847D02*
X162201829Y-84874038D01*
X162201829Y-84874038D02*
X162239925Y-85026419D01*
X162239925Y-85026419D02*
X162239925Y-85140705D01*
X162239925Y-85140705D02*
X162201829Y-85293086D01*
X162201829Y-85293086D02*
X162163734Y-85369276D01*
X162163734Y-85369276D02*
X162087544Y-85445467D01*
X162087544Y-85445467D02*
X161973258Y-85483562D01*
X161973258Y-85483562D02*
X161782782Y-85483562D01*
X160106591Y-103054990D02*
X160487544Y-103054990D01*
X160030401Y-103283562D02*
X160297068Y-102483562D01*
X160297068Y-102483562D02*
X160563734Y-103283562D01*
X160982782Y-102483562D02*
X161058972Y-102483562D01*
X161058972Y-102483562D02*
X161135163Y-102521657D01*
X161135163Y-102521657D02*
X161173258Y-102559752D01*
X161173258Y-102559752D02*
X161211353Y-102635943D01*
X161211353Y-102635943D02*
X161249448Y-102788324D01*
X161249448Y-102788324D02*
X161249448Y-102978800D01*
X161249448Y-102978800D02*
X161211353Y-103131181D01*
X161211353Y-103131181D02*
X161173258Y-103207371D01*
X161173258Y-103207371D02*
X161135163Y-103245467D01*
X161135163Y-103245467D02*
X161058972Y-103283562D01*
X161058972Y-103283562D02*
X160982782Y-103283562D01*
X160982782Y-103283562D02*
X160906591Y-103245467D01*
X160906591Y-103245467D02*
X160868496Y-103207371D01*
X160868496Y-103207371D02*
X160830401Y-103131181D01*
X160830401Y-103131181D02*
X160792305Y-102978800D01*
X160792305Y-102978800D02*
X160792305Y-102788324D01*
X160792305Y-102788324D02*
X160830401Y-102635943D01*
X160830401Y-102635943D02*
X160868496Y-102559752D01*
X160868496Y-102559752D02*
X160906591Y-102521657D01*
X160906591Y-102521657D02*
X160982782Y-102483562D01*
X160144687Y-90583562D02*
X160144687Y-89783562D01*
X160144687Y-89783562D02*
X160335163Y-89783562D01*
X160335163Y-89783562D02*
X160449449Y-89821657D01*
X160449449Y-89821657D02*
X160525639Y-89897847D01*
X160525639Y-89897847D02*
X160563734Y-89974038D01*
X160563734Y-89974038D02*
X160601830Y-90126419D01*
X160601830Y-90126419D02*
X160601830Y-90240705D01*
X160601830Y-90240705D02*
X160563734Y-90393086D01*
X160563734Y-90393086D02*
X160525639Y-90469276D01*
X160525639Y-90469276D02*
X160449449Y-90545467D01*
X160449449Y-90545467D02*
X160335163Y-90583562D01*
X160335163Y-90583562D02*
X160144687Y-90583562D01*
X161097068Y-89783562D02*
X161173258Y-89783562D01*
X161173258Y-89783562D02*
X161249449Y-89821657D01*
X161249449Y-89821657D02*
X161287544Y-89859752D01*
X161287544Y-89859752D02*
X161325639Y-89935943D01*
X161325639Y-89935943D02*
X161363734Y-90088324D01*
X161363734Y-90088324D02*
X161363734Y-90278800D01*
X161363734Y-90278800D02*
X161325639Y-90431181D01*
X161325639Y-90431181D02*
X161287544Y-90507371D01*
X161287544Y-90507371D02*
X161249449Y-90545467D01*
X161249449Y-90545467D02*
X161173258Y-90583562D01*
X161173258Y-90583562D02*
X161097068Y-90583562D01*
X161097068Y-90583562D02*
X161020877Y-90545467D01*
X161020877Y-90545467D02*
X160982782Y-90507371D01*
X160982782Y-90507371D02*
X160944687Y-90431181D01*
X160944687Y-90431181D02*
X160906591Y-90278800D01*
X160906591Y-90278800D02*
X160906591Y-90088324D01*
X160906591Y-90088324D02*
X160944687Y-89935943D01*
X160944687Y-89935943D02*
X160982782Y-89859752D01*
X160982782Y-89859752D02*
X161020877Y-89821657D01*
X161020877Y-89821657D02*
X161097068Y-89783562D01*
X160144687Y-95683562D02*
X160144687Y-94883562D01*
X160144687Y-94883562D02*
X160335163Y-94883562D01*
X160335163Y-94883562D02*
X160449449Y-94921657D01*
X160449449Y-94921657D02*
X160525639Y-94997847D01*
X160525639Y-94997847D02*
X160563734Y-95074038D01*
X160563734Y-95074038D02*
X160601830Y-95226419D01*
X160601830Y-95226419D02*
X160601830Y-95340705D01*
X160601830Y-95340705D02*
X160563734Y-95493086D01*
X160563734Y-95493086D02*
X160525639Y-95569276D01*
X160525639Y-95569276D02*
X160449449Y-95645467D01*
X160449449Y-95645467D02*
X160335163Y-95683562D01*
X160335163Y-95683562D02*
X160144687Y-95683562D01*
X160906591Y-94959752D02*
X160944687Y-94921657D01*
X160944687Y-94921657D02*
X161020877Y-94883562D01*
X161020877Y-94883562D02*
X161211353Y-94883562D01*
X161211353Y-94883562D02*
X161287544Y-94921657D01*
X161287544Y-94921657D02*
X161325639Y-94959752D01*
X161325639Y-94959752D02*
X161363734Y-95035943D01*
X161363734Y-95035943D02*
X161363734Y-95112133D01*
X161363734Y-95112133D02*
X161325639Y-95226419D01*
X161325639Y-95226419D02*
X160868496Y-95683562D01*
X160868496Y-95683562D02*
X161363734Y-95683562D01*
X111947438Y-117249411D02*
X111899819Y-117344649D01*
X111899819Y-117344649D02*
X111899819Y-117487506D01*
X111899819Y-117487506D02*
X111947438Y-117630363D01*
X111947438Y-117630363D02*
X112042676Y-117725601D01*
X112042676Y-117725601D02*
X112137914Y-117773220D01*
X112137914Y-117773220D02*
X112328390Y-117820839D01*
X112328390Y-117820839D02*
X112471247Y-117820839D01*
X112471247Y-117820839D02*
X112661723Y-117773220D01*
X112661723Y-117773220D02*
X112756961Y-117725601D01*
X112756961Y-117725601D02*
X112852200Y-117630363D01*
X112852200Y-117630363D02*
X112899819Y-117487506D01*
X112899819Y-117487506D02*
X112899819Y-117392268D01*
X112899819Y-117392268D02*
X112852200Y-117249411D01*
X112852200Y-117249411D02*
X112804580Y-117201792D01*
X112804580Y-117201792D02*
X112471247Y-117201792D01*
X112471247Y-117201792D02*
X112471247Y-117392268D01*
X112899819Y-116773220D02*
X111899819Y-116773220D01*
X111899819Y-116773220D02*
X111899819Y-116392268D01*
X111899819Y-116392268D02*
X111947438Y-116297030D01*
X111947438Y-116297030D02*
X111995057Y-116249411D01*
X111995057Y-116249411D02*
X112090295Y-116201792D01*
X112090295Y-116201792D02*
X112233152Y-116201792D01*
X112233152Y-116201792D02*
X112328390Y-116249411D01*
X112328390Y-116249411D02*
X112376009Y-116297030D01*
X112376009Y-116297030D02*
X112423628Y-116392268D01*
X112423628Y-116392268D02*
X112423628Y-116773220D01*
X112899819Y-115773220D02*
X111899819Y-115773220D01*
X111899819Y-115106554D02*
X111899819Y-114916078D01*
X111899819Y-114916078D02*
X111947438Y-114820840D01*
X111947438Y-114820840D02*
X112042676Y-114725602D01*
X112042676Y-114725602D02*
X112233152Y-114677983D01*
X112233152Y-114677983D02*
X112566485Y-114677983D01*
X112566485Y-114677983D02*
X112756961Y-114725602D01*
X112756961Y-114725602D02*
X112852200Y-114820840D01*
X112852200Y-114820840D02*
X112899819Y-114916078D01*
X112899819Y-114916078D02*
X112899819Y-115106554D01*
X112899819Y-115106554D02*
X112852200Y-115201792D01*
X112852200Y-115201792D02*
X112756961Y-115297030D01*
X112756961Y-115297030D02*
X112566485Y-115344649D01*
X112566485Y-115344649D02*
X112233152Y-115344649D01*
X112233152Y-115344649D02*
X112042676Y-115297030D01*
X112042676Y-115297030D02*
X111947438Y-115201792D01*
X111947438Y-115201792D02*
X111899819Y-115106554D01*
X112899819Y-113725602D02*
X112899819Y-114297030D01*
X112899819Y-114011316D02*
X111899819Y-114011316D01*
X111899819Y-114011316D02*
X112042676Y-114106554D01*
X112042676Y-114106554D02*
X112137914Y-114201792D01*
X112137914Y-114201792D02*
X112185533Y-114297030D01*
X111899819Y-113106554D02*
X111899819Y-113011316D01*
X111899819Y-113011316D02*
X111947438Y-112916078D01*
X111947438Y-112916078D02*
X111995057Y-112868459D01*
X111995057Y-112868459D02*
X112090295Y-112820840D01*
X112090295Y-112820840D02*
X112280771Y-112773221D01*
X112280771Y-112773221D02*
X112518866Y-112773221D01*
X112518866Y-112773221D02*
X112709342Y-112820840D01*
X112709342Y-112820840D02*
X112804580Y-112868459D01*
X112804580Y-112868459D02*
X112852200Y-112916078D01*
X112852200Y-112916078D02*
X112899819Y-113011316D01*
X112899819Y-113011316D02*
X112899819Y-113106554D01*
X112899819Y-113106554D02*
X112852200Y-113201792D01*
X112852200Y-113201792D02*
X112804580Y-113249411D01*
X112804580Y-113249411D02*
X112709342Y-113297030D01*
X112709342Y-113297030D02*
X112518866Y-113344649D01*
X112518866Y-113344649D02*
X112280771Y-113344649D01*
X112280771Y-113344649D02*
X112090295Y-113297030D01*
X112090295Y-113297030D02*
X111995057Y-113249411D01*
X111995057Y-113249411D02*
X111947438Y-113201792D01*
X111947438Y-113201792D02*
X111899819Y-113106554D01*
X118109983Y-80981792D02*
X118071888Y-81057982D01*
X118071888Y-81057982D02*
X118071888Y-81172268D01*
X118071888Y-81172268D02*
X118109983Y-81286554D01*
X118109983Y-81286554D02*
X118186173Y-81362744D01*
X118186173Y-81362744D02*
X118262364Y-81400839D01*
X118262364Y-81400839D02*
X118414745Y-81438935D01*
X118414745Y-81438935D02*
X118529031Y-81438935D01*
X118529031Y-81438935D02*
X118681412Y-81400839D01*
X118681412Y-81400839D02*
X118757602Y-81362744D01*
X118757602Y-81362744D02*
X118833793Y-81286554D01*
X118833793Y-81286554D02*
X118871888Y-81172268D01*
X118871888Y-81172268D02*
X118871888Y-81096077D01*
X118871888Y-81096077D02*
X118833793Y-80981792D01*
X118833793Y-80981792D02*
X118795697Y-80943696D01*
X118795697Y-80943696D02*
X118529031Y-80943696D01*
X118529031Y-80943696D02*
X118529031Y-81096077D01*
X118871888Y-80600839D02*
X118071888Y-80600839D01*
X118071888Y-80600839D02*
X118071888Y-80296077D01*
X118071888Y-80296077D02*
X118109983Y-80219887D01*
X118109983Y-80219887D02*
X118148078Y-80181792D01*
X118148078Y-80181792D02*
X118224269Y-80143696D01*
X118224269Y-80143696D02*
X118338554Y-80143696D01*
X118338554Y-80143696D02*
X118414745Y-80181792D01*
X118414745Y-80181792D02*
X118452840Y-80219887D01*
X118452840Y-80219887D02*
X118490935Y-80296077D01*
X118490935Y-80296077D02*
X118490935Y-80600839D01*
X118071888Y-79648458D02*
X118071888Y-79572268D01*
X118071888Y-79572268D02*
X118109983Y-79496077D01*
X118109983Y-79496077D02*
X118148078Y-79457982D01*
X118148078Y-79457982D02*
X118224269Y-79419887D01*
X118224269Y-79419887D02*
X118376650Y-79381792D01*
X118376650Y-79381792D02*
X118567126Y-79381792D01*
X118567126Y-79381792D02*
X118719507Y-79419887D01*
X118719507Y-79419887D02*
X118795697Y-79457982D01*
X118795697Y-79457982D02*
X118833793Y-79496077D01*
X118833793Y-79496077D02*
X118871888Y-79572268D01*
X118871888Y-79572268D02*
X118871888Y-79648458D01*
X118871888Y-79648458D02*
X118833793Y-79724649D01*
X118833793Y-79724649D02*
X118795697Y-79762744D01*
X118795697Y-79762744D02*
X118719507Y-79800839D01*
X118719507Y-79800839D02*
X118567126Y-79838935D01*
X118567126Y-79838935D02*
X118376650Y-79838935D01*
X118376650Y-79838935D02*
X118224269Y-79800839D01*
X118224269Y-79800839D02*
X118148078Y-79762744D01*
X118148078Y-79762744D02*
X118109983Y-79724649D01*
X118109983Y-79724649D02*
X118071888Y-79648458D01*
X118871888Y-78619887D02*
X118871888Y-79077030D01*
X118871888Y-78848458D02*
X118071888Y-78848458D01*
X118071888Y-78848458D02*
X118186173Y-78924649D01*
X118186173Y-78924649D02*
X118262364Y-79000839D01*
X118262364Y-79000839D02*
X118300459Y-79077030D01*
X103338460Y-92111877D02*
X103071793Y-91730924D01*
X102881317Y-92111877D02*
X102881317Y-91311877D01*
X102881317Y-91311877D02*
X103186079Y-91311877D01*
X103186079Y-91311877D02*
X103262269Y-91349972D01*
X103262269Y-91349972D02*
X103300364Y-91388067D01*
X103300364Y-91388067D02*
X103338460Y-91464258D01*
X103338460Y-91464258D02*
X103338460Y-91578543D01*
X103338460Y-91578543D02*
X103300364Y-91654734D01*
X103300364Y-91654734D02*
X103262269Y-91692829D01*
X103262269Y-91692829D02*
X103186079Y-91730924D01*
X103186079Y-91730924D02*
X102881317Y-91730924D01*
X103681317Y-92111877D02*
X103681317Y-91311877D01*
X103681317Y-91311877D02*
X103947983Y-91883305D01*
X103947983Y-91883305D02*
X104214650Y-91311877D01*
X104214650Y-91311877D02*
X104214650Y-92111877D01*
X104481317Y-91311877D02*
X104938460Y-91311877D01*
X104709888Y-92111877D02*
X104709888Y-91311877D01*
X105624174Y-92111877D02*
X105167031Y-92111877D01*
X105395603Y-92111877D02*
X105395603Y-91311877D01*
X105395603Y-91311877D02*
X105319412Y-91426162D01*
X105319412Y-91426162D02*
X105243222Y-91502353D01*
X105243222Y-91502353D02*
X105167031Y-91540448D01*
X160006591Y-118445467D02*
X160120877Y-118483562D01*
X160120877Y-118483562D02*
X160311353Y-118483562D01*
X160311353Y-118483562D02*
X160387544Y-118445467D01*
X160387544Y-118445467D02*
X160425639Y-118407371D01*
X160425639Y-118407371D02*
X160463734Y-118331181D01*
X160463734Y-118331181D02*
X160463734Y-118254990D01*
X160463734Y-118254990D02*
X160425639Y-118178800D01*
X160425639Y-118178800D02*
X160387544Y-118140705D01*
X160387544Y-118140705D02*
X160311353Y-118102609D01*
X160311353Y-118102609D02*
X160158972Y-118064514D01*
X160158972Y-118064514D02*
X160082782Y-118026419D01*
X160082782Y-118026419D02*
X160044687Y-117988324D01*
X160044687Y-117988324D02*
X160006591Y-117912133D01*
X160006591Y-117912133D02*
X160006591Y-117835943D01*
X160006591Y-117835943D02*
X160044687Y-117759752D01*
X160044687Y-117759752D02*
X160082782Y-117721657D01*
X160082782Y-117721657D02*
X160158972Y-117683562D01*
X160158972Y-117683562D02*
X160349449Y-117683562D01*
X160349449Y-117683562D02*
X160463734Y-117721657D01*
X160806592Y-118483562D02*
X160806592Y-117683562D01*
X160806592Y-117683562D02*
X160997068Y-117683562D01*
X160997068Y-117683562D02*
X161111354Y-117721657D01*
X161111354Y-117721657D02*
X161187544Y-117797847D01*
X161187544Y-117797847D02*
X161225639Y-117874038D01*
X161225639Y-117874038D02*
X161263735Y-118026419D01*
X161263735Y-118026419D02*
X161263735Y-118140705D01*
X161263735Y-118140705D02*
X161225639Y-118293086D01*
X161225639Y-118293086D02*
X161187544Y-118369276D01*
X161187544Y-118369276D02*
X161111354Y-118445467D01*
X161111354Y-118445467D02*
X160997068Y-118483562D01*
X160997068Y-118483562D02*
X160806592Y-118483562D01*
X161568496Y-118254990D02*
X161949449Y-118254990D01*
X161492306Y-118483562D02*
X161758973Y-117683562D01*
X161758973Y-117683562D02*
X162025639Y-118483562D01*
X102912999Y-111108509D02*
X103408237Y-111108509D01*
X103408237Y-111108509D02*
X103141571Y-111413271D01*
X103141571Y-111413271D02*
X103255856Y-111413271D01*
X103255856Y-111413271D02*
X103332047Y-111451366D01*
X103332047Y-111451366D02*
X103370142Y-111489461D01*
X103370142Y-111489461D02*
X103408237Y-111565652D01*
X103408237Y-111565652D02*
X103408237Y-111756128D01*
X103408237Y-111756128D02*
X103370142Y-111832318D01*
X103370142Y-111832318D02*
X103332047Y-111870414D01*
X103332047Y-111870414D02*
X103255856Y-111908509D01*
X103255856Y-111908509D02*
X103027285Y-111908509D01*
X103027285Y-111908509D02*
X102951094Y-111870414D01*
X102951094Y-111870414D02*
X102912999Y-111832318D01*
X103674904Y-111375175D02*
X103865380Y-111908509D01*
X103865380Y-111908509D02*
X104055857Y-111375175D01*
X104284428Y-111108509D02*
X104779666Y-111108509D01*
X104779666Y-111108509D02*
X104513000Y-111413271D01*
X104513000Y-111413271D02*
X104627285Y-111413271D01*
X104627285Y-111413271D02*
X104703476Y-111451366D01*
X104703476Y-111451366D02*
X104741571Y-111489461D01*
X104741571Y-111489461D02*
X104779666Y-111565652D01*
X104779666Y-111565652D02*
X104779666Y-111756128D01*
X104779666Y-111756128D02*
X104741571Y-111832318D01*
X104741571Y-111832318D02*
X104703476Y-111870414D01*
X104703476Y-111870414D02*
X104627285Y-111908509D01*
X104627285Y-111908509D02*
X104398714Y-111908509D01*
X104398714Y-111908509D02*
X104322523Y-111870414D01*
X104322523Y-111870414D02*
X104284428Y-111832318D01*
D11*
X103235561Y-98695237D02*
X104187942Y-98028570D01*
X103235561Y-97552380D02*
X105235561Y-97552380D01*
X105235561Y-97552380D02*
X105235561Y-98314285D01*
X105235561Y-98314285D02*
X105140323Y-98504761D01*
X105140323Y-98504761D02*
X105045085Y-98599999D01*
X105045085Y-98599999D02*
X104854609Y-98695237D01*
X104854609Y-98695237D02*
X104568895Y-98695237D01*
X104568895Y-98695237D02*
X104378419Y-98599999D01*
X104378419Y-98599999D02*
X104283180Y-98504761D01*
X104283180Y-98504761D02*
X104187942Y-98314285D01*
X104187942Y-98314285D02*
X104187942Y-97552380D01*
X104283180Y-99552380D02*
X104283180Y-100219047D01*
X103235561Y-100504761D02*
X103235561Y-99552380D01*
X103235561Y-99552380D02*
X105235561Y-99552380D01*
X105235561Y-99552380D02*
X105235561Y-100504761D01*
X103330800Y-101266666D02*
X103235561Y-101552380D01*
X103235561Y-101552380D02*
X103235561Y-102028571D01*
X103235561Y-102028571D02*
X103330800Y-102219047D01*
X103330800Y-102219047D02*
X103426038Y-102314285D01*
X103426038Y-102314285D02*
X103616514Y-102409523D01*
X103616514Y-102409523D02*
X103806990Y-102409523D01*
X103806990Y-102409523D02*
X103997466Y-102314285D01*
X103997466Y-102314285D02*
X104092704Y-102219047D01*
X104092704Y-102219047D02*
X104187942Y-102028571D01*
X104187942Y-102028571D02*
X104283180Y-101647618D01*
X104283180Y-101647618D02*
X104378419Y-101457142D01*
X104378419Y-101457142D02*
X104473657Y-101361904D01*
X104473657Y-101361904D02*
X104664133Y-101266666D01*
X104664133Y-101266666D02*
X104854609Y-101266666D01*
X104854609Y-101266666D02*
X105045085Y-101361904D01*
X105045085Y-101361904D02*
X105140323Y-101457142D01*
X105140323Y-101457142D02*
X105235561Y-101647618D01*
X105235561Y-101647618D02*
X105235561Y-102123809D01*
X105235561Y-102123809D02*
X105140323Y-102409523D01*
X104283180Y-103266666D02*
X104283180Y-103933333D01*
X103235561Y-104219047D02*
X103235561Y-103266666D01*
X103235561Y-103266666D02*
X105235561Y-103266666D01*
X105235561Y-103266666D02*
X105235561Y-104219047D01*
X105235561Y-104790476D02*
X105235561Y-105933333D01*
X103235561Y-105361904D02*
X105235561Y-105361904D01*
D10*
X103170142Y-122308509D02*
X102789190Y-122308509D01*
X102789190Y-122308509D02*
X102789190Y-121508509D01*
X103970142Y-122384699D02*
X103893952Y-122346604D01*
X103893952Y-122346604D02*
X103817761Y-122270414D01*
X103817761Y-122270414D02*
X103703475Y-122156128D01*
X103703475Y-122156128D02*
X103627285Y-122118033D01*
X103627285Y-122118033D02*
X103551094Y-122118033D01*
X103589190Y-122308509D02*
X103512999Y-122270414D01*
X103512999Y-122270414D02*
X103436809Y-122194223D01*
X103436809Y-122194223D02*
X103398713Y-122041842D01*
X103398713Y-122041842D02*
X103398713Y-121775175D01*
X103398713Y-121775175D02*
X103436809Y-121622794D01*
X103436809Y-121622794D02*
X103512999Y-121546604D01*
X103512999Y-121546604D02*
X103589190Y-121508509D01*
X103589190Y-121508509D02*
X103741571Y-121508509D01*
X103741571Y-121508509D02*
X103817761Y-121546604D01*
X103817761Y-121546604D02*
X103893952Y-121622794D01*
X103893952Y-121622794D02*
X103932047Y-121775175D01*
X103932047Y-121775175D02*
X103932047Y-122041842D01*
X103932047Y-122041842D02*
X103893952Y-122194223D01*
X103893952Y-122194223D02*
X103817761Y-122270414D01*
X103817761Y-122270414D02*
X103741571Y-122308509D01*
X103741571Y-122308509D02*
X103589190Y-122308509D01*
X104541570Y-121889461D02*
X104655856Y-121927556D01*
X104655856Y-121927556D02*
X104693951Y-121965652D01*
X104693951Y-121965652D02*
X104732047Y-122041842D01*
X104732047Y-122041842D02*
X104732047Y-122156128D01*
X104732047Y-122156128D02*
X104693951Y-122232318D01*
X104693951Y-122232318D02*
X104655856Y-122270414D01*
X104655856Y-122270414D02*
X104579666Y-122308509D01*
X104579666Y-122308509D02*
X104274904Y-122308509D01*
X104274904Y-122308509D02*
X104274904Y-121508509D01*
X104274904Y-121508509D02*
X104541570Y-121508509D01*
X104541570Y-121508509D02*
X104617761Y-121546604D01*
X104617761Y-121546604D02*
X104655856Y-121584699D01*
X104655856Y-121584699D02*
X104693951Y-121660890D01*
X104693951Y-121660890D02*
X104693951Y-121737080D01*
X104693951Y-121737080D02*
X104655856Y-121813271D01*
X104655856Y-121813271D02*
X104617761Y-121851366D01*
X104617761Y-121851366D02*
X104541570Y-121889461D01*
X104541570Y-121889461D02*
X104274904Y-121889461D01*
X116979819Y-117868458D02*
X116979819Y-117249411D01*
X116979819Y-117249411D02*
X117360771Y-117582744D01*
X117360771Y-117582744D02*
X117360771Y-117439887D01*
X117360771Y-117439887D02*
X117408390Y-117344649D01*
X117408390Y-117344649D02*
X117456009Y-117297030D01*
X117456009Y-117297030D02*
X117551247Y-117249411D01*
X117551247Y-117249411D02*
X117789342Y-117249411D01*
X117789342Y-117249411D02*
X117884580Y-117297030D01*
X117884580Y-117297030D02*
X117932200Y-117344649D01*
X117932200Y-117344649D02*
X117979819Y-117439887D01*
X117979819Y-117439887D02*
X117979819Y-117725601D01*
X117979819Y-117725601D02*
X117932200Y-117820839D01*
X117932200Y-117820839D02*
X117884580Y-117868458D01*
X117313152Y-116916077D02*
X117979819Y-116677982D01*
X117979819Y-116677982D02*
X117313152Y-116439887D01*
X116979819Y-116154172D02*
X116979819Y-115535125D01*
X116979819Y-115535125D02*
X117360771Y-115868458D01*
X117360771Y-115868458D02*
X117360771Y-115725601D01*
X117360771Y-115725601D02*
X117408390Y-115630363D01*
X117408390Y-115630363D02*
X117456009Y-115582744D01*
X117456009Y-115582744D02*
X117551247Y-115535125D01*
X117551247Y-115535125D02*
X117789342Y-115535125D01*
X117789342Y-115535125D02*
X117884580Y-115582744D01*
X117884580Y-115582744D02*
X117932200Y-115630363D01*
X117932200Y-115630363D02*
X117979819Y-115725601D01*
X117979819Y-115725601D02*
X117979819Y-116011315D01*
X117979819Y-116011315D02*
X117932200Y-116106553D01*
X117932200Y-116106553D02*
X117884580Y-116154172D01*
X160006591Y-121045467D02*
X160120877Y-121083562D01*
X160120877Y-121083562D02*
X160311353Y-121083562D01*
X160311353Y-121083562D02*
X160387544Y-121045467D01*
X160387544Y-121045467D02*
X160425639Y-121007371D01*
X160425639Y-121007371D02*
X160463734Y-120931181D01*
X160463734Y-120931181D02*
X160463734Y-120854990D01*
X160463734Y-120854990D02*
X160425639Y-120778800D01*
X160425639Y-120778800D02*
X160387544Y-120740705D01*
X160387544Y-120740705D02*
X160311353Y-120702609D01*
X160311353Y-120702609D02*
X160158972Y-120664514D01*
X160158972Y-120664514D02*
X160082782Y-120626419D01*
X160082782Y-120626419D02*
X160044687Y-120588324D01*
X160044687Y-120588324D02*
X160006591Y-120512133D01*
X160006591Y-120512133D02*
X160006591Y-120435943D01*
X160006591Y-120435943D02*
X160044687Y-120359752D01*
X160044687Y-120359752D02*
X160082782Y-120321657D01*
X160082782Y-120321657D02*
X160158972Y-120283562D01*
X160158972Y-120283562D02*
X160349449Y-120283562D01*
X160349449Y-120283562D02*
X160463734Y-120321657D01*
X161263735Y-121007371D02*
X161225639Y-121045467D01*
X161225639Y-121045467D02*
X161111354Y-121083562D01*
X161111354Y-121083562D02*
X161035163Y-121083562D01*
X161035163Y-121083562D02*
X160920877Y-121045467D01*
X160920877Y-121045467D02*
X160844687Y-120969276D01*
X160844687Y-120969276D02*
X160806592Y-120893086D01*
X160806592Y-120893086D02*
X160768496Y-120740705D01*
X160768496Y-120740705D02*
X160768496Y-120626419D01*
X160768496Y-120626419D02*
X160806592Y-120474038D01*
X160806592Y-120474038D02*
X160844687Y-120397847D01*
X160844687Y-120397847D02*
X160920877Y-120321657D01*
X160920877Y-120321657D02*
X161035163Y-120283562D01*
X161035163Y-120283562D02*
X161111354Y-120283562D01*
X161111354Y-120283562D02*
X161225639Y-120321657D01*
X161225639Y-120321657D02*
X161263735Y-120359752D01*
X161987544Y-121083562D02*
X161606592Y-121083562D01*
X161606592Y-121083562D02*
X161606592Y-120283562D01*
X103400364Y-83649972D02*
X103324174Y-83611877D01*
X103324174Y-83611877D02*
X103209888Y-83611877D01*
X103209888Y-83611877D02*
X103095602Y-83649972D01*
X103095602Y-83649972D02*
X103019412Y-83726162D01*
X103019412Y-83726162D02*
X102981317Y-83802353D01*
X102981317Y-83802353D02*
X102943221Y-83954734D01*
X102943221Y-83954734D02*
X102943221Y-84069020D01*
X102943221Y-84069020D02*
X102981317Y-84221401D01*
X102981317Y-84221401D02*
X103019412Y-84297591D01*
X103019412Y-84297591D02*
X103095602Y-84373782D01*
X103095602Y-84373782D02*
X103209888Y-84411877D01*
X103209888Y-84411877D02*
X103286079Y-84411877D01*
X103286079Y-84411877D02*
X103400364Y-84373782D01*
X103400364Y-84373782D02*
X103438460Y-84335686D01*
X103438460Y-84335686D02*
X103438460Y-84069020D01*
X103438460Y-84069020D02*
X103286079Y-84069020D01*
X103781317Y-84411877D02*
X103781317Y-83611877D01*
X103781317Y-83611877D02*
X104238460Y-84411877D01*
X104238460Y-84411877D02*
X104238460Y-83611877D01*
X104619412Y-84411877D02*
X104619412Y-83611877D01*
X104619412Y-83611877D02*
X104809888Y-83611877D01*
X104809888Y-83611877D02*
X104924174Y-83649972D01*
X104924174Y-83649972D02*
X105000364Y-83726162D01*
X105000364Y-83726162D02*
X105038459Y-83802353D01*
X105038459Y-83802353D02*
X105076555Y-83954734D01*
X105076555Y-83954734D02*
X105076555Y-84069020D01*
X105076555Y-84069020D02*
X105038459Y-84221401D01*
X105038459Y-84221401D02*
X105000364Y-84297591D01*
X105000364Y-84297591D02*
X104924174Y-84373782D01*
X104924174Y-84373782D02*
X104809888Y-84411877D01*
X104809888Y-84411877D02*
X104619412Y-84411877D01*
D12*
X117147845Y-73999531D02*
X117528798Y-73999531D01*
X117071655Y-74228103D02*
X117338322Y-73428103D01*
X117338322Y-73428103D02*
X117604988Y-74228103D01*
D10*
X126684819Y-84153333D02*
X127399104Y-84153333D01*
X127399104Y-84153333D02*
X127541961Y-84200952D01*
X127541961Y-84200952D02*
X127637200Y-84296190D01*
X127637200Y-84296190D02*
X127684819Y-84439047D01*
X127684819Y-84439047D02*
X127684819Y-84534285D01*
X126780057Y-83724761D02*
X126732438Y-83677142D01*
X126732438Y-83677142D02*
X126684819Y-83581904D01*
X126684819Y-83581904D02*
X126684819Y-83343809D01*
X126684819Y-83343809D02*
X126732438Y-83248571D01*
X126732438Y-83248571D02*
X126780057Y-83200952D01*
X126780057Y-83200952D02*
X126875295Y-83153333D01*
X126875295Y-83153333D02*
X126970533Y-83153333D01*
X126970533Y-83153333D02*
X127113390Y-83200952D01*
X127113390Y-83200952D02*
X127684819Y-83772380D01*
X127684819Y-83772380D02*
X127684819Y-83153333D01*
X108596667Y-98047200D02*
X108739524Y-98094819D01*
X108739524Y-98094819D02*
X108977619Y-98094819D01*
X108977619Y-98094819D02*
X109072857Y-98047200D01*
X109072857Y-98047200D02*
X109120476Y-97999580D01*
X109120476Y-97999580D02*
X109168095Y-97904342D01*
X109168095Y-97904342D02*
X109168095Y-97809104D01*
X109168095Y-97809104D02*
X109120476Y-97713866D01*
X109120476Y-97713866D02*
X109072857Y-97666247D01*
X109072857Y-97666247D02*
X108977619Y-97618628D01*
X108977619Y-97618628D02*
X108787143Y-97571009D01*
X108787143Y-97571009D02*
X108691905Y-97523390D01*
X108691905Y-97523390D02*
X108644286Y-97475771D01*
X108644286Y-97475771D02*
X108596667Y-97380533D01*
X108596667Y-97380533D02*
X108596667Y-97285295D01*
X108596667Y-97285295D02*
X108644286Y-97190057D01*
X108644286Y-97190057D02*
X108691905Y-97142438D01*
X108691905Y-97142438D02*
X108787143Y-97094819D01*
X108787143Y-97094819D02*
X109025238Y-97094819D01*
X109025238Y-97094819D02*
X109168095Y-97142438D01*
X109501429Y-97094819D02*
X109739524Y-98094819D01*
X109739524Y-98094819D02*
X109930000Y-97380533D01*
X109930000Y-97380533D02*
X110120476Y-98094819D01*
X110120476Y-98094819D02*
X110358572Y-97094819D01*
X110644286Y-97094819D02*
X111263333Y-97094819D01*
X111263333Y-97094819D02*
X110930000Y-97475771D01*
X110930000Y-97475771D02*
X111072857Y-97475771D01*
X111072857Y-97475771D02*
X111168095Y-97523390D01*
X111168095Y-97523390D02*
X111215714Y-97571009D01*
X111215714Y-97571009D02*
X111263333Y-97666247D01*
X111263333Y-97666247D02*
X111263333Y-97904342D01*
X111263333Y-97904342D02*
X111215714Y-97999580D01*
X111215714Y-97999580D02*
X111168095Y-98047200D01*
X111168095Y-98047200D02*
X111072857Y-98094819D01*
X111072857Y-98094819D02*
X110787143Y-98094819D01*
X110787143Y-98094819D02*
X110691905Y-98047200D01*
X110691905Y-98047200D02*
X110644286Y-97999580D01*
X153054279Y-125819819D02*
X153054279Y-126629342D01*
X153054279Y-126629342D02*
X153101898Y-126724580D01*
X153101898Y-126724580D02*
X153149517Y-126772200D01*
X153149517Y-126772200D02*
X153244755Y-126819819D01*
X153244755Y-126819819D02*
X153435231Y-126819819D01*
X153435231Y-126819819D02*
X153530469Y-126772200D01*
X153530469Y-126772200D02*
X153578088Y-126724580D01*
X153578088Y-126724580D02*
X153625707Y-126629342D01*
X153625707Y-126629342D02*
X153625707Y-125819819D01*
X154625707Y-126819819D02*
X154054279Y-126819819D01*
X154339993Y-126819819D02*
X154339993Y-125819819D01*
X154339993Y-125819819D02*
X154244755Y-125962676D01*
X154244755Y-125962676D02*
X154149517Y-126057914D01*
X154149517Y-126057914D02*
X154054279Y-126105533D01*
X123869524Y-72752295D02*
X123869524Y-71952295D01*
X123869524Y-71952295D02*
X124060000Y-71952295D01*
X124060000Y-71952295D02*
X124174286Y-71990390D01*
X124174286Y-71990390D02*
X124250476Y-72066580D01*
X124250476Y-72066580D02*
X124288571Y-72142771D01*
X124288571Y-72142771D02*
X124326667Y-72295152D01*
X124326667Y-72295152D02*
X124326667Y-72409438D01*
X124326667Y-72409438D02*
X124288571Y-72561819D01*
X124288571Y-72561819D02*
X124250476Y-72638009D01*
X124250476Y-72638009D02*
X124174286Y-72714200D01*
X124174286Y-72714200D02*
X124060000Y-72752295D01*
X124060000Y-72752295D02*
X123869524Y-72752295D01*
X125088571Y-72752295D02*
X124631428Y-72752295D01*
X124860000Y-72752295D02*
X124860000Y-71952295D01*
X124860000Y-71952295D02*
X124783809Y-72066580D01*
X124783809Y-72066580D02*
X124707619Y-72142771D01*
X124707619Y-72142771D02*
X124631428Y-72180866D01*
X146096667Y-136167200D02*
X146239524Y-136214819D01*
X146239524Y-136214819D02*
X146477619Y-136214819D01*
X146477619Y-136214819D02*
X146572857Y-136167200D01*
X146572857Y-136167200D02*
X146620476Y-136119580D01*
X146620476Y-136119580D02*
X146668095Y-136024342D01*
X146668095Y-136024342D02*
X146668095Y-135929104D01*
X146668095Y-135929104D02*
X146620476Y-135833866D01*
X146620476Y-135833866D02*
X146572857Y-135786247D01*
X146572857Y-135786247D02*
X146477619Y-135738628D01*
X146477619Y-135738628D02*
X146287143Y-135691009D01*
X146287143Y-135691009D02*
X146191905Y-135643390D01*
X146191905Y-135643390D02*
X146144286Y-135595771D01*
X146144286Y-135595771D02*
X146096667Y-135500533D01*
X146096667Y-135500533D02*
X146096667Y-135405295D01*
X146096667Y-135405295D02*
X146144286Y-135310057D01*
X146144286Y-135310057D02*
X146191905Y-135262438D01*
X146191905Y-135262438D02*
X146287143Y-135214819D01*
X146287143Y-135214819D02*
X146525238Y-135214819D01*
X146525238Y-135214819D02*
X146668095Y-135262438D01*
X147001429Y-135214819D02*
X147239524Y-136214819D01*
X147239524Y-136214819D02*
X147430000Y-135500533D01*
X147430000Y-135500533D02*
X147620476Y-136214819D01*
X147620476Y-136214819D02*
X147858572Y-135214819D01*
X148191905Y-135310057D02*
X148239524Y-135262438D01*
X148239524Y-135262438D02*
X148334762Y-135214819D01*
X148334762Y-135214819D02*
X148572857Y-135214819D01*
X148572857Y-135214819D02*
X148668095Y-135262438D01*
X148668095Y-135262438D02*
X148715714Y-135310057D01*
X148715714Y-135310057D02*
X148763333Y-135405295D01*
X148763333Y-135405295D02*
X148763333Y-135500533D01*
X148763333Y-135500533D02*
X148715714Y-135643390D01*
X148715714Y-135643390D02*
X148144286Y-136214819D01*
X148144286Y-136214819D02*
X148763333Y-136214819D01*
X116712924Y-127666347D02*
X116712924Y-126866347D01*
X116712924Y-126866347D02*
X116903400Y-126866347D01*
X116903400Y-126866347D02*
X117017686Y-126904442D01*
X117017686Y-126904442D02*
X117093876Y-126980632D01*
X117093876Y-126980632D02*
X117131971Y-127056823D01*
X117131971Y-127056823D02*
X117170067Y-127209204D01*
X117170067Y-127209204D02*
X117170067Y-127323490D01*
X117170067Y-127323490D02*
X117131971Y-127475871D01*
X117131971Y-127475871D02*
X117093876Y-127552061D01*
X117093876Y-127552061D02*
X117017686Y-127628252D01*
X117017686Y-127628252D02*
X116903400Y-127666347D01*
X116903400Y-127666347D02*
X116712924Y-127666347D01*
X117474828Y-126942537D02*
X117512924Y-126904442D01*
X117512924Y-126904442D02*
X117589114Y-126866347D01*
X117589114Y-126866347D02*
X117779590Y-126866347D01*
X117779590Y-126866347D02*
X117855781Y-126904442D01*
X117855781Y-126904442D02*
X117893876Y-126942537D01*
X117893876Y-126942537D02*
X117931971Y-127018728D01*
X117931971Y-127018728D02*
X117931971Y-127094918D01*
X117931971Y-127094918D02*
X117893876Y-127209204D01*
X117893876Y-127209204D02*
X117436733Y-127666347D01*
X117436733Y-127666347D02*
X117931971Y-127666347D01*
X121594819Y-119738333D02*
X122309104Y-119738333D01*
X122309104Y-119738333D02*
X122451961Y-119785952D01*
X122451961Y-119785952D02*
X122547200Y-119881190D01*
X122547200Y-119881190D02*
X122594819Y-120024047D01*
X122594819Y-120024047D02*
X122594819Y-120119285D01*
X121594819Y-118785952D02*
X121594819Y-119262142D01*
X121594819Y-119262142D02*
X122071009Y-119309761D01*
X122071009Y-119309761D02*
X122023390Y-119262142D01*
X122023390Y-119262142D02*
X121975771Y-119166904D01*
X121975771Y-119166904D02*
X121975771Y-118928809D01*
X121975771Y-118928809D02*
X122023390Y-118833571D01*
X122023390Y-118833571D02*
X122071009Y-118785952D01*
X122071009Y-118785952D02*
X122166247Y-118738333D01*
X122166247Y-118738333D02*
X122404342Y-118738333D01*
X122404342Y-118738333D02*
X122499580Y-118785952D01*
X122499580Y-118785952D02*
X122547200Y-118833571D01*
X122547200Y-118833571D02*
X122594819Y-118928809D01*
X122594819Y-118928809D02*
X122594819Y-119166904D01*
X122594819Y-119166904D02*
X122547200Y-119262142D01*
X122547200Y-119262142D02*
X122499580Y-119309761D01*
X146396667Y-68577200D02*
X146539524Y-68624819D01*
X146539524Y-68624819D02*
X146777619Y-68624819D01*
X146777619Y-68624819D02*
X146872857Y-68577200D01*
X146872857Y-68577200D02*
X146920476Y-68529580D01*
X146920476Y-68529580D02*
X146968095Y-68434342D01*
X146968095Y-68434342D02*
X146968095Y-68339104D01*
X146968095Y-68339104D02*
X146920476Y-68243866D01*
X146920476Y-68243866D02*
X146872857Y-68196247D01*
X146872857Y-68196247D02*
X146777619Y-68148628D01*
X146777619Y-68148628D02*
X146587143Y-68101009D01*
X146587143Y-68101009D02*
X146491905Y-68053390D01*
X146491905Y-68053390D02*
X146444286Y-68005771D01*
X146444286Y-68005771D02*
X146396667Y-67910533D01*
X146396667Y-67910533D02*
X146396667Y-67815295D01*
X146396667Y-67815295D02*
X146444286Y-67720057D01*
X146444286Y-67720057D02*
X146491905Y-67672438D01*
X146491905Y-67672438D02*
X146587143Y-67624819D01*
X146587143Y-67624819D02*
X146825238Y-67624819D01*
X146825238Y-67624819D02*
X146968095Y-67672438D01*
X147301429Y-67624819D02*
X147539524Y-68624819D01*
X147539524Y-68624819D02*
X147730000Y-67910533D01*
X147730000Y-67910533D02*
X147920476Y-68624819D01*
X147920476Y-68624819D02*
X148158572Y-67624819D01*
X149063333Y-68624819D02*
X148491905Y-68624819D01*
X148777619Y-68624819D02*
X148777619Y-67624819D01*
X148777619Y-67624819D02*
X148682381Y-67767676D01*
X148682381Y-67767676D02*
X148587143Y-67862914D01*
X148587143Y-67862914D02*
X148491905Y-67910533D01*
X114133333Y-93164819D02*
X113800000Y-92688628D01*
X113561905Y-93164819D02*
X113561905Y-92164819D01*
X113561905Y-92164819D02*
X113942857Y-92164819D01*
X113942857Y-92164819D02*
X114038095Y-92212438D01*
X114038095Y-92212438D02*
X114085714Y-92260057D01*
X114085714Y-92260057D02*
X114133333Y-92355295D01*
X114133333Y-92355295D02*
X114133333Y-92498152D01*
X114133333Y-92498152D02*
X114085714Y-92593390D01*
X114085714Y-92593390D02*
X114038095Y-92641009D01*
X114038095Y-92641009D02*
X113942857Y-92688628D01*
X113942857Y-92688628D02*
X113561905Y-92688628D01*
X115085714Y-93164819D02*
X114514286Y-93164819D01*
X114800000Y-93164819D02*
X114800000Y-92164819D01*
X114800000Y-92164819D02*
X114704762Y-92307676D01*
X114704762Y-92307676D02*
X114609524Y-92402914D01*
X114609524Y-92402914D02*
X114514286Y-92450533D01*
X125563333Y-116024819D02*
X125230000Y-115548628D01*
X124991905Y-116024819D02*
X124991905Y-115024819D01*
X124991905Y-115024819D02*
X125372857Y-115024819D01*
X125372857Y-115024819D02*
X125468095Y-115072438D01*
X125468095Y-115072438D02*
X125515714Y-115120057D01*
X125515714Y-115120057D02*
X125563333Y-115215295D01*
X125563333Y-115215295D02*
X125563333Y-115358152D01*
X125563333Y-115358152D02*
X125515714Y-115453390D01*
X125515714Y-115453390D02*
X125468095Y-115501009D01*
X125468095Y-115501009D02*
X125372857Y-115548628D01*
X125372857Y-115548628D02*
X124991905Y-115548628D01*
X125944286Y-115120057D02*
X125991905Y-115072438D01*
X125991905Y-115072438D02*
X126087143Y-115024819D01*
X126087143Y-115024819D02*
X126325238Y-115024819D01*
X126325238Y-115024819D02*
X126420476Y-115072438D01*
X126420476Y-115072438D02*
X126468095Y-115120057D01*
X126468095Y-115120057D02*
X126515714Y-115215295D01*
X126515714Y-115215295D02*
X126515714Y-115310533D01*
X126515714Y-115310533D02*
X126468095Y-115453390D01*
X126468095Y-115453390D02*
X125896667Y-116024819D01*
X125896667Y-116024819D02*
X126515714Y-116024819D01*
D12*
%TO.C,J2*%
X110430000Y-82490000D02*
X110430000Y-85150000D01*
X123190000Y-82490000D02*
X110430000Y-82490000D01*
X123190000Y-82490000D02*
X123190000Y-85150000D01*
X123190000Y-85150000D02*
X110430000Y-85150000D01*
X125790000Y-83820000D02*
X125790000Y-85150000D01*
X125790000Y-85150000D02*
X124460000Y-85150000D01*
%TO.C,SW3*%
X106430000Y-101140000D02*
X106430000Y-102640000D01*
X107680000Y-105140000D02*
X112180000Y-105140000D01*
X112180000Y-98640000D02*
X107680000Y-98640000D01*
X113430000Y-102640000D02*
X113430000Y-101140000D01*
%TO.C,U1*%
X130040000Y-78270000D02*
X130040000Y-76670000D01*
X130360000Y-76600000D02*
X130360000Y-126600000D01*
X130700000Y-76053000D02*
X130700000Y-127147000D01*
X130970000Y-75990000D02*
X133460000Y-75990000D01*
X130970000Y-127210000D02*
X134807939Y-127210000D01*
X133460000Y-75990000D02*
X133460000Y-76903520D01*
X133460000Y-75990000D02*
X134807940Y-75990000D01*
X133460000Y-79296480D02*
X133460000Y-123903520D01*
X133460000Y-126296480D02*
X133460000Y-127210000D01*
X135732061Y-75990000D02*
X136735000Y-75990000D01*
X136735000Y-75990000D02*
X145205000Y-75990000D01*
X136860000Y-74690000D02*
X136860000Y-75510000D01*
X136860000Y-74690000D02*
X145080000Y-74690000D01*
X136860000Y-75510000D02*
X137070000Y-75510000D01*
X137070000Y-75510000D02*
X137070000Y-76906000D01*
X137070000Y-79294000D02*
X137070000Y-80510000D01*
X137370000Y-127210000D02*
X135732061Y-127210000D01*
X144870000Y-75510000D02*
X144870000Y-76906000D01*
X144870000Y-79294000D02*
X144870000Y-80510000D01*
X144870000Y-80510000D02*
X137070000Y-80510000D01*
X145080000Y-74690000D02*
X145080000Y-75510000D01*
X145080000Y-75510000D02*
X144870000Y-75510000D01*
X145205000Y-75990000D02*
X146207939Y-75990000D01*
X146207939Y-127210000D02*
X144570000Y-127210000D01*
X147132061Y-75990000D02*
X148480000Y-75990000D01*
X147132061Y-127210000D02*
X150970000Y-127210000D01*
X148480000Y-75990000D02*
X148480000Y-76903520D01*
X148480000Y-79296480D02*
X148480000Y-123903520D01*
X148480000Y-126296480D02*
X148480000Y-127210000D01*
X150970000Y-75990000D02*
X148480000Y-75990000D01*
X151240000Y-127147000D02*
X151240000Y-76053000D01*
X151580000Y-76600000D02*
X151580000Y-126600000D01*
X130360000Y-76600000D02*
G75*
G02*
X130970000Y-75990000I610000J0D01*
G01*
X150970000Y-75990000D02*
G75*
G02*
X151580000Y-76600000I0J-610000D01*
G01*
%TO.C,D1*%
X123210000Y-75205000D02*
X123210000Y-72115000D01*
X117660000Y-73659952D02*
G75*
G02*
X123210000Y-72115170I2990000J-48D01*
G01*
X123210000Y-75204830D02*
G75*
G02*
X117660000Y-73660048I-2560000J1544830D01*
G01*
X123150000Y-73660000D02*
G75*
G02*
X118150000Y-73660000I-2500000J0D01*
G01*
X118150000Y-73660000D02*
G75*
G02*
X123150000Y-73660000I2500000J0D01*
G01*
%TO.C,SW2*%
X150730000Y-132310000D02*
X150730000Y-133810000D01*
X151980000Y-136310000D02*
X156480000Y-136310000D01*
X156480000Y-129810000D02*
X151980000Y-129810000D01*
X157730000Y-133810000D02*
X157730000Y-132310000D01*
%TO.C,D2*%
X123210000Y-131085000D02*
X123210000Y-127995000D01*
X117660000Y-129539952D02*
G75*
G02*
X123210000Y-127995170I2990000J-48D01*
G01*
X123210000Y-131084830D02*
G75*
G02*
X117660000Y-129540048I-2560000J1544830D01*
G01*
X123150000Y-129540000D02*
G75*
G02*
X118150000Y-129540000I-2500000J0D01*
G01*
X118150000Y-129540000D02*
G75*
G02*
X123150000Y-129540000I2500000J0D01*
G01*
%TO.C,J5*%
X110420000Y-118075000D02*
X110420000Y-120735000D01*
X118100000Y-118075000D02*
X110420000Y-118075000D01*
X118100000Y-118075000D02*
X118100000Y-120735000D01*
X118100000Y-120735000D02*
X110420000Y-120735000D01*
X120700000Y-119405000D02*
X120700000Y-120735000D01*
X120700000Y-120735000D02*
X119370000Y-120735000D01*
%TO.C,SW1*%
X150730000Y-69220000D02*
X150730000Y-70720000D01*
X151980000Y-73220000D02*
X156480000Y-73220000D01*
X156480000Y-66720000D02*
X151980000Y-66720000D01*
X157730000Y-70720000D02*
X157730000Y-69220000D01*
%TO.C,R1*%
X110390000Y-89440000D02*
X110720000Y-89440000D01*
X110390000Y-95980000D02*
X110390000Y-89440000D01*
X110720000Y-95980000D02*
X110390000Y-95980000D01*
X112800000Y-95980000D02*
X113130000Y-95980000D01*
X113130000Y-89440000D02*
X112800000Y-89440000D01*
X113130000Y-95980000D02*
X113130000Y-89440000D01*
%TO.C,R2*%
X124360000Y-118650000D02*
X124360000Y-125190000D01*
X124360000Y-125190000D02*
X124690000Y-125190000D01*
X124690000Y-118650000D02*
X124360000Y-118650000D01*
X126770000Y-118650000D02*
X127100000Y-118650000D01*
X127100000Y-118650000D02*
X127100000Y-125190000D01*
X127100000Y-125190000D02*
X126770000Y-125190000D01*
%TD*%
M02*
