M48
; DRILL file {KiCad 8.0.8} date 2025-07-09T10:47:04+0100
; FORMAT={-:-/ absolute / inch / decimal}
; #@! TF.CreationDate,2025-07-09T10:47:04+01:00
; #@! TF.GenerationSoftware,Kicad,Pcbnew,8.0.8
; #@! TF.FileFunction,Plated,1,2,PTH
FMAT,2
INCH
; #@! TA.AperFunction,Plated,PTH,ViaDrill
T1C0.0157
; #@! TA.AperFunction,Plated,PTH,ComponentDrill
T2C0.0354
; #@! TA.AperFunction,Plated,PTH,ComponentDrill
T3C0.0394
; #@! TA.AperFunction,Plated,PTH,ComponentDrill
T4C0.0400
; #@! TA.AperFunction,Plated,PTH,ComponentDrill
T5C0.0433
%
G90
G05
T1
X4.3Y-3.35
X4.85Y-4.35
X6.05Y-5.25
X6.4Y-4.75
T2
X4.7Y-2.9
X4.7Y-5.1
X4.8Y-2.9
X4.8Y-5.1
X5.9441Y-5.15
X5.9441Y-5.3272
X6.2Y-3.25
X6.2Y-3.35
X6.2Y-3.45
X6.2Y-3.55
X6.2Y-3.65
X6.2Y-3.75
X6.2Y-3.85
X6.2Y-3.95
X6.2Y-4.05
X6.2Y-4.15
X6.2Y-4.25
X6.2Y-4.35
X6.2Y-4.45
X6.2Y-4.55
X6.2Y-4.65
X6.2Y-4.75
X6.2Y-5.15
X6.2Y-5.3272
T3
X4.3996Y-4.701
X4.4996Y-4.701
X4.5996Y-4.701
X4.6996Y-4.701
X5.2Y-3.05
X5.2Y-3.15
X5.2Y-3.25
X5.2Y-3.35
X5.2Y-3.45
X5.2Y-3.55
X5.2Y-3.65
X5.2Y-3.75
X5.2Y-3.85
X5.2Y-3.95
X5.2Y-4.05
X5.2Y-4.15
X5.2Y-4.25
X5.2Y-4.35
X5.2Y-4.45
X5.2Y-4.55
X5.2Y-4.65
X5.2Y-4.75
X5.2Y-4.85
X5.2Y-4.95
X5.9Y-3.05
X5.9Y-3.15
X5.9Y-3.25
X5.9Y-3.35
X5.9Y-3.45
X5.9Y-3.55
X5.9Y-3.65
X5.9Y-3.75
X5.9Y-3.85
X5.9Y-3.95
X5.9Y-4.05
X5.9Y-4.15
X5.9Y-4.25
X5.9Y-4.35
X5.9Y-4.45
X5.9Y-4.55
X5.9Y-4.65
X5.9Y-4.75
X5.9Y-4.85
X5.9Y-4.95
T4
X4.2Y-3.2
X4.2Y-3.3
X4.2Y-3.4
X4.2Y-3.5
X4.2Y-3.6
X4.2Y-3.7
X4.2Y-4.3
X4.2Y-4.4
X4.2Y-4.5
X4.2Y-4.6
X4.2Y-4.7
X4.2Y-4.8
X4.4Y-3.3
X4.4Y-3.5
X4.4Y-3.8
X4.5Y-3.3
X4.6Y-3.3
X4.7Y-3.3
X4.8Y-3.3
X4.9Y-3.3
X4.95Y-4.65
X4.95Y-4.95
X5.9441Y-2.6661
X5.9441Y-2.8433
X6.2Y-2.6661
X6.2Y-2.8433
T5
X4.2Y-3.9228
X4.2Y-4.1
X4.4559Y-3.9228
X4.4559Y-4.1
M30
