%TF.GenerationSoftware,KiCad,Pcbnew,8.0.8*%
%TF.CreationDate,2025-07-09T10:46:58+01:00*%
%TF.ProjectId,UKMARSBOT_RP2040Mezzanine,554b4d41-5253-4424-9f54-5f5250323034,rev?*%
%TF.SameCoordinates,Original*%
%TF.FileFunction,Copper,L2,Bot*%
%TF.FilePolarity,Positive*%
%FSLAX46Y46*%
G04 Gerber Fmt 4.6, Leading zero omitted, Abs format (unit mm)*
G04 Created by KiCad (PCBNEW 8.0.8) date 2025-07-09 10:46:58*
%MOMM*%
%LPD*%
G01*
G04 APERTURE LIST*
G04 Aperture macros list*
%AMRoundRect*
0 Rectangle with rounded corners*
0 $1 Rounding radius*
0 $2 $3 $4 $5 $6 $7 $8 $9 X,Y pos of 4 corners*
0 Add a 4 corners polygon primitive as box body*
4,1,4,$2,$3,$4,$5,$6,$7,$8,$9,$2,$3,0*
0 Add four circle primitives for the rounded corners*
1,1,$1+$1,$2,$3*
1,1,$1+$1,$4,$5*
1,1,$1+$1,$6,$7*
1,1,$1+$1,$8,$9*
0 Add four rect primitives between the rounded corners*
20,1,$1+$1,$2,$3,$4,$5,0*
20,1,$1+$1,$4,$5,$6,$7,0*
20,1,$1+$1,$6,$7,$8,$9,0*
20,1,$1+$1,$8,$9,$2,$3,0*%
%AMFreePoly0*
4,1,28,0.605014,0.794986,0.644504,0.794986,0.724698,0.756366,0.780194,0.686777,0.800000,0.600000,0.800000,-0.600000,0.780194,-0.686777,0.724698,-0.756366,0.644504,-0.794986,0.605014,-0.794986,0.600000,-0.800000,0.000000,-0.800000,-0.178017,-0.779942,-0.347107,-0.720775,-0.498792,-0.625465,-0.625465,-0.498792,-0.720775,-0.347107,-0.779942,-0.178017,-0.800000,0.000000,-0.779942,0.178017,
-0.720775,0.347107,-0.625465,0.498792,-0.498792,0.625465,-0.347107,0.720775,-0.178017,0.779942,0.000000,0.800000,0.600000,0.800000,0.605014,0.794986,0.605014,0.794986,$1*%
%AMFreePoly1*
4,1,28,0.178017,0.779942,0.347107,0.720775,0.498792,0.625465,0.625465,0.498792,0.720775,0.347107,0.779942,0.178017,0.800000,0.000000,0.779942,-0.178017,0.720775,-0.347107,0.625465,-0.498792,0.498792,-0.625465,0.347107,-0.720775,0.178017,-0.779942,0.000000,-0.800000,-0.600000,-0.800000,-0.605014,-0.794986,-0.644504,-0.794986,-0.724698,-0.756366,-0.780194,-0.686777,-0.800000,-0.600000,
-0.800000,0.600000,-0.780194,0.686777,-0.724698,0.756366,-0.644504,0.794986,-0.605014,0.794986,-0.600000,0.800000,0.000000,0.800000,0.178017,0.779942,0.178017,0.779942,$1*%
G04 Aperture macros list end*
%TA.AperFunction,ComponentPad*%
%ADD10R,1.524000X3.048000*%
%TD*%
%TA.AperFunction,ComponentPad*%
%ADD11O,1.524000X3.048000*%
%TD*%
%TA.AperFunction,ComponentPad*%
%ADD12C,2.000000*%
%TD*%
%TA.AperFunction,ComponentPad*%
%ADD13RoundRect,0.200000X-0.600000X-0.600000X0.600000X-0.600000X0.600000X0.600000X-0.600000X0.600000X0*%
%TD*%
%TA.AperFunction,ComponentPad*%
%ADD14C,1.600000*%
%TD*%
%TA.AperFunction,ComponentPad*%
%ADD15FreePoly0,0.000000*%
%TD*%
%TA.AperFunction,ComponentPad*%
%ADD16FreePoly1,0.000000*%
%TD*%
%TA.AperFunction,ComponentPad*%
%ADD17R,1.800000X1.800000*%
%TD*%
%TA.AperFunction,ComponentPad*%
%ADD18C,1.800000*%
%TD*%
%TA.AperFunction,ComponentPad*%
%ADD19R,1.700000X1.700000*%
%TD*%
%TA.AperFunction,ComponentPad*%
%ADD20O,1.700000X1.700000*%
%TD*%
%TA.AperFunction,ComponentPad*%
%ADD21O,3.048000X1.524000*%
%TD*%
%TA.AperFunction,ComponentPad*%
%ADD22R,3.048000X1.524000*%
%TD*%
%TA.AperFunction,ViaPad*%
%ADD23C,0.800000*%
%TD*%
%TA.AperFunction,Conductor*%
%ADD24C,0.800000*%
%TD*%
%TA.AperFunction,Conductor*%
%ADD25C,0.600000*%
%TD*%
%TA.AperFunction,Conductor*%
%ADD26C,0.254000*%
%TD*%
%TA.AperFunction,Conductor*%
%ADD27C,1.250000*%
%TD*%
G04 APERTURE END LIST*
D10*
%TO.P,J2,1,Pin_1*%
%TO.N,unconnected-(J2-Pin_1-Pad1)*%
X124460000Y-83820000D03*
D11*
%TO.P,J2,2,Pin_2*%
%TO.N,GPIO00*%
X121920000Y-83820000D03*
%TO.P,J2,3,Pin_3*%
%TO.N,GPIO01*%
X119380000Y-83820000D03*
%TO.P,J2,4,Pin_4*%
%TO.N,GND*%
X116840000Y-83820000D03*
%TO.P,J2,5,Pin_5*%
%TO.N,3v3*%
X114300000Y-83820000D03*
%TO.P,J2,6,Pin_6*%
%TO.N,unconnected-(J2-Pin_6-Pad6)*%
X111760000Y-83820000D03*
%TD*%
D12*
%TO.P,SW3,1,A*%
%TO.N,GND*%
X106680000Y-99640000D03*
X113180000Y-99640000D03*
%TO.P,SW3,2,B*%
%TO.N,RUN*%
X106680000Y-104140000D03*
X113180000Y-104140000D03*
%TD*%
D13*
%TO.P,U1,1,GPIO0*%
%TO.N,GPIO00*%
X132080000Y-77470000D03*
D14*
%TO.P,U1,2,GPIO1*%
%TO.N,GPIO01*%
X132080000Y-80010000D03*
D15*
%TO.P,U1,3,GND*%
%TO.N,GND*%
X132080000Y-82550000D03*
D14*
%TO.P,U1,4,GPIO2*%
%TO.N,LMTR1*%
X132080000Y-85090000D03*
%TO.P,U1,5,GPIO3*%
%TO.N,LMTR2*%
X132080000Y-87630000D03*
%TO.P,U1,6,GPIO4*%
%TO.N,RMTR1*%
X132080000Y-90170000D03*
%TO.P,U1,7,GPIO5*%
%TO.N,RMTR2*%
X132080000Y-92710000D03*
D15*
%TO.P,U1,8,GND*%
%TO.N,GND*%
X132080000Y-95250000D03*
D14*
%TO.P,U1,9,GPIO6*%
%TO.N,RQA*%
X132080000Y-97790000D03*
%TO.P,U1,10,GPIO7*%
%TO.N,RQB*%
X132080000Y-100330000D03*
%TO.P,U1,11,GPIO8*%
%TO.N,LQA*%
X132080000Y-102870000D03*
%TO.P,U1,12,GPIO9*%
%TO.N,LQB*%
X132080000Y-105410000D03*
D15*
%TO.P,U1,13,GND*%
%TO.N,GND*%
X132080000Y-107950000D03*
D14*
%TO.P,U1,14,GPIO10*%
%TO.N,GPIO10*%
X132080000Y-110490000D03*
%TO.P,U1,15,GPIO11*%
%TO.N,GPIO11*%
X132080000Y-113030000D03*
%TO.P,U1,16,GPIO12*%
%TO.N,GPIO12*%
X132080000Y-115570000D03*
%TO.P,U1,17,GPIO13*%
%TO.N,GPIO13*%
X132080000Y-118110000D03*
D15*
%TO.P,U1,18,GND*%
%TO.N,GND*%
X132080000Y-120650000D03*
D14*
%TO.P,U1,19,GPIO14*%
%TO.N,GPIO14*%
X132080000Y-123190000D03*
%TO.P,U1,20,GPIO15*%
%TO.N,GPIO15*%
X132080000Y-125730000D03*
%TO.P,U1,21,GPIO16*%
%TO.N,SDA*%
X149860000Y-125730000D03*
%TO.P,U1,22,GPIO17*%
%TO.N,SCL*%
X149860000Y-123190000D03*
D16*
%TO.P,U1,23,GND*%
%TO.N,GND*%
X149860000Y-120650000D03*
D14*
%TO.P,U1,24,GPIO18*%
%TO.N,SEN4DI0*%
X149860000Y-118110000D03*
%TO.P,U1,25,GPIO19*%
%TO.N,SEN3DI0*%
X149860000Y-115570000D03*
%TO.P,U1,26,GPIO20*%
%TO.N,SEN2DI0*%
X149860000Y-113030000D03*
%TO.P,U1,27,GPIO21*%
%TO.N,SEN1DI0*%
X149860000Y-110490000D03*
D16*
%TO.P,U1,28,GND*%
%TO.N,GND*%
X149860000Y-107950000D03*
D14*
%TO.P,U1,29,GPIO22*%
%TO.N,SEN0DI0*%
X149860000Y-105410000D03*
%TO.P,U1,30,RUN*%
%TO.N,RUN*%
X149860000Y-102870000D03*
%TO.P,U1,31,GPIO26_ADC0*%
%TO.N,SEN2AIP*%
X149860000Y-100330000D03*
%TO.P,U1,32,GPIO27_ADC1*%
%TO.N,SEN1AIP*%
X149860000Y-97790000D03*
D16*
%TO.P,U1,33,AGND*%
%TO.N,GND*%
X149860000Y-95250000D03*
D14*
%TO.P,U1,34,GPIO28_ADC2*%
%TO.N,SEN0AIP*%
X149860000Y-92710000D03*
%TO.P,U1,35,ADC_VREF*%
%TO.N,unconnected-(U1-ADC_VREF-Pad35)*%
X149860000Y-90170000D03*
%TO.P,U1,36,3V3*%
%TO.N,3v3*%
X149860000Y-87630000D03*
%TO.P,U1,37,3V3_EN*%
%TO.N,unconnected-(U1-3V3_EN-Pad37)*%
X149860000Y-85090000D03*
D16*
%TO.P,U1,38,GND*%
%TO.N,GND*%
X149860000Y-82550000D03*
D14*
%TO.P,U1,39,VSYS*%
%TO.N,5V*%
X149860000Y-80010000D03*
%TO.P,U1,40,VBUS*%
%TO.N,unconnected-(U1-VBUS-Pad40)*%
X149860000Y-77470000D03*
%TD*%
D17*
%TO.P,D1,1,K*%
%TO.N,GND*%
X121920000Y-73660000D03*
D18*
%TO.P,D1,2,A*%
%TO.N,Net-(D1-A)*%
X119380000Y-73660000D03*
%TD*%
%TO.P,SW2,1,A*%
%TO.N,GND*%
X157480000Y-135310000D03*
X150980000Y-135310000D03*
%TO.P,SW2,2,B*%
%TO.N,GPIO14*%
X157480000Y-130810000D03*
X150980000Y-130810000D03*
%TD*%
D17*
%TO.P,D2,1,K*%
%TO.N,GND*%
X121920000Y-129540000D03*
D18*
%TO.P,D2,2,A*%
%TO.N,Net-(D2-A)*%
X119380000Y-129540000D03*
%TD*%
D19*
%TO.P,J5,1,Pin_1*%
%TO.N,GND*%
X119370000Y-119405000D03*
D20*
%TO.P,J5,2,Pin_2*%
%TO.N,3v3*%
X116830000Y-119405000D03*
%TO.P,J5,3,Pin_3*%
%TO.N,GPIO11*%
X114290000Y-119405000D03*
%TO.P,J5,4,Pin_4*%
%TO.N,GPIO10*%
X111750000Y-119405000D03*
%TD*%
D21*
%TO.P,SW1,1,A*%
%TO.N,GND*%
X150980000Y-67720000D03*
X157480000Y-67720000D03*
%TO.P,SW1,2,B*%
%TO.N,GPIO15*%
X150980000Y-72220000D03*
X157480000Y-72220000D03*
%TD*%
D11*
%TO.P,R1,1*%
%TO.N,GPIO12*%
X111760000Y-96520000D03*
%TO.P,R1,2*%
%TO.N,Net-(D1-A)*%
X111760000Y-88900000D03*
%TD*%
%TO.P,R2,1*%
%TO.N,GPIO13*%
X125730000Y-118110000D03*
%TO.P,R2,2*%
%TO.N,Net-(D2-A)*%
X125730000Y-125730000D03*
%TD*%
D22*
%TO.P,J4,1,Pin_1*%
%TO.N,LQB*%
X106680000Y-121920000D03*
D21*
%TO.P,J4,2,Pin_2*%
%TO.N,LQA*%
X106680000Y-119380000D03*
%TO.P,J4,3,Pin_3*%
%TO.N,RQB*%
X106680000Y-116840000D03*
%TO.P,J4,4,Pin_4*%
%TO.N,RQA*%
X106680000Y-114300000D03*
%TO.P,J4,5,Pin_5*%
%TO.N,3v3*%
X106680000Y-111760000D03*
%TO.P,J4,6,Pin_6*%
%TO.N,Vbatt*%
X106680000Y-109220000D03*
%TD*%
D22*
%TO.P,J3,1,Pin_1*%
%TO.N,5V*%
X106680000Y-81280000D03*
D21*
%TO.P,J3,2,Pin_2*%
%TO.N,GND*%
X106680000Y-83820000D03*
%TO.P,J3,3,Pin_3*%
%TO.N,LMTR1*%
X106680000Y-86360000D03*
%TO.P,J3,4,Pin_4*%
%TO.N,LMTR2*%
X106680000Y-88900000D03*
%TO.P,J3,5,Pin_5*%
%TO.N,RMTR1*%
X106680000Y-91440000D03*
%TO.P,J3,6,Pin_6*%
%TO.N,RMTR2*%
X106680000Y-93980000D03*
%TD*%
D17*
%TO.P,J1,1,Pin_1*%
%TO.N,5V*%
X157480000Y-82550000D03*
D18*
%TO.P,J1,2,Pin_2*%
%TO.N,GND*%
X157480000Y-85090000D03*
%TO.P,J1,3,Pin_3*%
%TO.N,3v3*%
X157480000Y-87630000D03*
%TO.P,J1,4,Pin_4*%
%TO.N,SEN0DI0*%
X157480000Y-90170000D03*
%TO.P,J1,5,Pin_5*%
%TO.N,SEN1DI0*%
X157480000Y-92710000D03*
%TO.P,J1,6,Pin_6*%
%TO.N,SEN2DI0*%
X157480000Y-95250000D03*
%TO.P,J1,7,Pin_7*%
%TO.N,SEN3DI0*%
X157480000Y-97790000D03*
%TO.P,J1,8,Pin_8*%
%TO.N,SEN4DI0*%
X157480000Y-100330000D03*
%TO.P,J1,9,Pin_9*%
%TO.N,SEN0AIP*%
X157480000Y-102870000D03*
%TO.P,J1,10,Pin_10*%
%TO.N,SEN1AIP*%
X157480000Y-105410000D03*
%TO.P,J1,11,Pin_11*%
%TO.N,SEN2AIP*%
X157480000Y-107950000D03*
%TO.P,J1,12,Pin_12*%
%TO.N,unconnected-(J1-Pin_12-Pad12)*%
X157480000Y-110490000D03*
%TO.P,J1,13,Pin_13*%
%TO.N,unconnected-(J1-Pin_13-Pad13)*%
X157480000Y-113030000D03*
%TO.P,J1,14,Pin_14*%
%TO.N,unconnected-(J1-Pin_14-Pad14)*%
X157480000Y-115570000D03*
%TO.P,J1,15,Pin_15*%
%TO.N,SDA*%
X157480000Y-118110000D03*
%TO.P,J1,16,Pin_16*%
%TO.N,SCL*%
X157480000Y-120650000D03*
%TD*%
D23*
%TO.N,Net-(D1-A)*%
X109220000Y-85090000D03*
%TO.N,GPIO15*%
X153670000Y-133350000D03*
X162560000Y-120650000D03*
%TO.N,GPIO12*%
X123190000Y-110490000D03*
%TD*%
D24*
%TO.N,Net-(D1-A)*%
X111760000Y-88900000D02*
X111760000Y-87630000D01*
X111760000Y-87630000D02*
X109220000Y-85090000D01*
D25*
%TO.N,GPIO15*%
X153670000Y-133350000D02*
X153670000Y-127834567D01*
X160854567Y-120650000D02*
X162560000Y-120650000D01*
X153670000Y-127834567D02*
X160854567Y-120650000D01*
D26*
%TO.N,SEN2AIP*%
X152400000Y-106680000D02*
X152400000Y-102870000D01*
X157480000Y-107950000D02*
X153670000Y-107950000D01*
X153670000Y-107950000D02*
X152400000Y-106680000D01*
X152400000Y-102870000D02*
X149860000Y-100330000D01*
%TO.N,SEN0AIP*%
X154940000Y-101600000D02*
X154940000Y-93980000D01*
X154940000Y-93980000D02*
X153670000Y-92710000D01*
X153670000Y-92710000D02*
X149860000Y-92710000D01*
X157480000Y-102870000D02*
X156210000Y-102870000D01*
X156210000Y-102870000D02*
X154940000Y-101600000D01*
%TO.N,SEN1AIP*%
X157480000Y-105410000D02*
X154940000Y-105410000D01*
X152400000Y-97790000D02*
X149860000Y-97790000D01*
X153670000Y-104140000D02*
X153670000Y-99060000D01*
X154940000Y-105410000D02*
X153670000Y-104140000D01*
X153670000Y-99060000D02*
X152400000Y-97790000D01*
D24*
%TO.N,GND*%
X105410000Y-83820000D02*
X104140000Y-82550000D01*
X140390000Y-135310000D02*
X133985000Y-128905000D01*
X147320000Y-81280000D02*
X147320000Y-76200000D01*
X141520000Y-70400000D02*
X140970000Y-70400000D01*
X153670000Y-82550000D02*
X156210000Y-85090000D01*
X134620000Y-123190000D02*
X134620000Y-128270000D01*
X149860000Y-107950000D02*
X132080000Y-107950000D01*
X147320000Y-105410000D02*
X149860000Y-107950000D01*
X120650000Y-70400000D02*
X140970000Y-70400000D01*
X149860000Y-95250000D02*
X132080000Y-95250000D01*
X149860000Y-95250000D02*
X147320000Y-97790000D01*
X147320000Y-76200000D02*
X141520000Y-70400000D01*
X149860000Y-120650000D02*
X132080000Y-120650000D01*
X147320000Y-110490000D02*
X147320000Y-118110000D01*
X121920000Y-121955000D02*
X119370000Y-119405000D01*
X132080000Y-82550000D02*
X130810000Y-82550000D01*
X130810000Y-82550000D02*
X125730000Y-87630000D01*
X147320000Y-85090000D02*
X147320000Y-92710000D01*
X106680000Y-83820000D02*
X105410000Y-83820000D01*
X148590000Y-82550000D02*
X147320000Y-81280000D01*
X149860000Y-82550000D02*
X148590000Y-82550000D01*
X147320000Y-92710000D02*
X149860000Y-95250000D01*
X149860000Y-107950000D02*
X147320000Y-110490000D01*
X156210000Y-85090000D02*
X157480000Y-85090000D01*
X121920000Y-71670000D02*
X120650000Y-70400000D01*
X157480000Y-67720000D02*
X150980000Y-67720000D01*
X132080000Y-120650000D02*
X134620000Y-123190000D01*
X106130000Y-70400000D02*
X120650000Y-70400000D01*
X149860000Y-82550000D02*
X147320000Y-85090000D01*
X147320000Y-97790000D02*
X147320000Y-105410000D01*
X118110000Y-87630000D02*
X116840000Y-86360000D01*
X104140000Y-72390000D02*
X106130000Y-70400000D01*
X104140000Y-82550000D02*
X104140000Y-72390000D01*
X133350000Y-129540000D02*
X121920000Y-129540000D01*
X157480000Y-135310000D02*
X150980000Y-135310000D01*
X116840000Y-86360000D02*
X116840000Y-83820000D01*
X149860000Y-82550000D02*
X132080000Y-82550000D01*
X125730000Y-87630000D02*
X118110000Y-87630000D01*
X150980000Y-135310000D02*
X140390000Y-135310000D01*
X121920000Y-73660000D02*
X121920000Y-71670000D01*
X149860000Y-82550000D02*
X153670000Y-82550000D01*
X134620000Y-128270000D02*
X133985000Y-128905000D01*
X147320000Y-118110000D02*
X149860000Y-120650000D01*
X133985000Y-128905000D02*
X133350000Y-129540000D01*
X150980000Y-67720000D02*
X144200000Y-67720000D01*
X144200000Y-67720000D02*
X141520000Y-70400000D01*
X121920000Y-129540000D02*
X121920000Y-121955000D01*
D27*
X106680000Y-99640000D02*
X113180000Y-99640000D01*
D24*
%TO.N,GPIO12*%
X132080000Y-115570000D02*
X128270000Y-115570000D01*
X128270000Y-115570000D02*
X123190000Y-110490000D01*
%TD*%
%TA.AperFunction,Conductor*%
%TO.N,GND*%
G36*
X162575931Y-60980002D02*
G01*
X162596905Y-60996905D01*
X165063095Y-63463095D01*
X165097121Y-63525407D01*
X165100000Y-63552190D01*
X165100000Y-76889312D01*
X165079998Y-76957433D01*
X165026342Y-77003926D01*
X164956068Y-77014030D01*
X164891488Y-76984536D01*
X164853104Y-76924810D01*
X164850421Y-76913893D01*
X164812931Y-76725421D01*
X164786809Y-76594095D01*
X164684118Y-76255565D01*
X164548739Y-75928731D01*
X164381976Y-75616741D01*
X164185436Y-75322598D01*
X164185435Y-75322596D01*
X163961025Y-75049151D01*
X163960999Y-75049122D01*
X163710877Y-74799000D01*
X163710848Y-74798974D01*
X163437403Y-74574564D01*
X163143261Y-74378025D01*
X162831269Y-74211261D01*
X162504439Y-74075883D01*
X162504430Y-74075880D01*
X162286422Y-74009749D01*
X162165905Y-73973191D01*
X162165901Y-73973190D01*
X162165894Y-73973188D01*
X161818945Y-73904176D01*
X161818940Y-73904175D01*
X161818933Y-73904174D01*
X161818924Y-73904173D01*
X161466887Y-73869500D01*
X161466881Y-73869500D01*
X161113119Y-73869500D01*
X161113112Y-73869500D01*
X160761075Y-73904173D01*
X160761063Y-73904174D01*
X160761060Y-73904175D01*
X160761057Y-73904175D01*
X160761054Y-73904176D01*
X160414105Y-73973188D01*
X160075569Y-74075880D01*
X160075560Y-74075883D01*
X159748730Y-74211261D01*
X159436738Y-74378025D01*
X159142596Y-74574564D01*
X158869151Y-74798974D01*
X158869122Y-74799000D01*
X158619000Y-75049122D01*
X158618974Y-75049151D01*
X158394564Y-75322596D01*
X158198025Y-75616738D01*
X158031261Y-75928730D01*
X157895883Y-76255560D01*
X157895880Y-76255569D01*
X157793188Y-76594105D01*
X157724176Y-76941054D01*
X157724173Y-76941075D01*
X157689500Y-77293112D01*
X157689500Y-77646887D01*
X157724173Y-77998924D01*
X157724176Y-77998945D01*
X157793188Y-78345894D01*
X157793190Y-78345901D01*
X157793191Y-78345905D01*
X157817956Y-78427546D01*
X157895880Y-78684430D01*
X157895883Y-78684439D01*
X158031261Y-79011269D01*
X158198025Y-79323261D01*
X158394564Y-79617403D01*
X158618974Y-79890848D01*
X158619000Y-79890877D01*
X158869122Y-80140999D01*
X158869131Y-80141007D01*
X158869136Y-80141012D01*
X158869141Y-80141016D01*
X158869151Y-80141025D01*
X159142596Y-80365435D01*
X159208170Y-80409250D01*
X159436741Y-80561976D01*
X159748731Y-80728739D01*
X160075565Y-80864118D01*
X160414095Y-80966809D01*
X160761060Y-81035825D01*
X161113119Y-81070500D01*
X161113128Y-81070500D01*
X161466872Y-81070500D01*
X161466881Y-81070500D01*
X161818940Y-81035825D01*
X162165905Y-80966809D01*
X162504435Y-80864118D01*
X162831269Y-80728739D01*
X163143259Y-80561976D01*
X163437402Y-80365436D01*
X163710864Y-80141012D01*
X163961012Y-79890864D01*
X164185436Y-79617402D01*
X164381976Y-79323259D01*
X164548739Y-79011269D01*
X164684118Y-78684435D01*
X164786809Y-78345905D01*
X164850421Y-78026105D01*
X164883328Y-77963196D01*
X164945023Y-77928064D01*
X165015918Y-77931864D01*
X165073504Y-77973390D01*
X165099498Y-78039456D01*
X165100000Y-78050687D01*
X165100000Y-125149312D01*
X165079998Y-125217433D01*
X165026342Y-125263926D01*
X164956068Y-125274030D01*
X164891488Y-125244536D01*
X164853104Y-125184810D01*
X164850421Y-125173893D01*
X164812931Y-124985421D01*
X164786809Y-124854095D01*
X164684118Y-124515565D01*
X164548739Y-124188731D01*
X164381976Y-123876741D01*
X164189881Y-123589250D01*
X164185435Y-123582596D01*
X163961025Y-123309151D01*
X163960999Y-123309122D01*
X163710877Y-123059000D01*
X163710848Y-123058974D01*
X163437403Y-122834564D01*
X163143261Y-122638025D01*
X162831269Y-122471261D01*
X162504439Y-122335883D01*
X162504430Y-122335880D01*
X162304923Y-122275361D01*
X162165905Y-122233191D01*
X162165901Y-122233190D01*
X162165894Y-122233188D01*
X161818945Y-122164176D01*
X161818940Y-122164175D01*
X161818933Y-122164174D01*
X161818924Y-122164173D01*
X161466887Y-122129500D01*
X161466881Y-122129500D01*
X161113119Y-122129500D01*
X161113112Y-122129500D01*
X160761075Y-122164173D01*
X160761053Y-122164176D01*
X160455121Y-122225029D01*
X160384407Y-122218701D01*
X160328340Y-122175146D01*
X160304721Y-122108194D01*
X160321048Y-122039100D01*
X160341437Y-122012363D01*
X161066399Y-121287402D01*
X161128709Y-121253379D01*
X161155492Y-121250500D01*
X162165752Y-121250500D01*
X162224307Y-121264933D01*
X162278507Y-121293379D01*
X162309775Y-121309790D01*
X162309776Y-121309790D01*
X162309778Y-121309791D01*
X162435812Y-121340855D01*
X162474944Y-121350500D01*
X162474947Y-121350500D01*
X162645053Y-121350500D01*
X162645056Y-121350500D01*
X162810225Y-121309790D01*
X162960852Y-121230734D01*
X163088183Y-121117929D01*
X163184818Y-120977930D01*
X163245140Y-120818872D01*
X163265645Y-120650000D01*
X163262123Y-120620998D01*
X163245140Y-120481128D01*
X163184820Y-120322074D01*
X163184818Y-120322070D01*
X163088183Y-120182071D01*
X163088181Y-120182069D01*
X162960857Y-120069270D01*
X162960851Y-120069265D01*
X162810225Y-119990210D01*
X162810221Y-119990208D01*
X162645059Y-119949500D01*
X162645056Y-119949500D01*
X162474944Y-119949500D01*
X162474940Y-119949500D01*
X162309778Y-119990208D01*
X162309770Y-119990212D01*
X162224307Y-120035067D01*
X162165752Y-120049500D01*
X160933624Y-120049500D01*
X160775510Y-120049500D01*
X160701742Y-120069266D01*
X160622784Y-120090422D01*
X160622777Y-120090425D01*
X160572662Y-120119360D01*
X160485854Y-120169477D01*
X160485849Y-120169481D01*
X160450040Y-120205291D01*
X160374047Y-120281284D01*
X160374045Y-120281286D01*
X153301286Y-127354045D01*
X153301284Y-127354047D01*
X153245382Y-127409949D01*
X153189480Y-127465850D01*
X153189479Y-127465852D01*
X153161874Y-127513667D01*
X153161873Y-127513668D01*
X153110423Y-127602780D01*
X153094941Y-127660560D01*
X153069499Y-127755510D01*
X153069499Y-127755512D01*
X153069499Y-127923774D01*
X153069500Y-127923787D01*
X153069500Y-132947576D01*
X153049498Y-133015697D01*
X153047196Y-133019151D01*
X153045185Y-133022063D01*
X153045179Y-133022075D01*
X152984859Y-133181128D01*
X152964355Y-133349997D01*
X152964355Y-133350000D01*
X152984859Y-133518871D01*
X153045179Y-133677925D01*
X153045181Y-133677929D01*
X153045182Y-133677930D01*
X153141817Y-133817929D01*
X153269148Y-133930734D01*
X153419775Y-134009790D01*
X153419776Y-134009790D01*
X153419778Y-134009791D01*
X153576461Y-134048409D01*
X153584944Y-134050500D01*
X153584947Y-134050500D01*
X153755053Y-134050500D01*
X153755056Y-134050500D01*
X153920225Y-134009790D01*
X154070852Y-133930734D01*
X154198183Y-133817929D01*
X154294818Y-133677930D01*
X154355140Y-133518872D01*
X154375645Y-133350000D01*
X154373216Y-133329998D01*
X154355140Y-133181128D01*
X154294820Y-133022075D01*
X154294814Y-133022063D01*
X154292804Y-133019151D01*
X154291989Y-133016681D01*
X154291277Y-133015324D01*
X154291502Y-133015205D01*
X154270568Y-132951727D01*
X154270500Y-132947576D01*
X154270500Y-130810000D01*
X156274357Y-130810000D01*
X156294885Y-131031539D01*
X156355768Y-131245520D01*
X156355774Y-131245537D01*
X156454938Y-131444684D01*
X156454942Y-131444689D01*
X156589017Y-131622235D01*
X156753438Y-131772124D01*
X156753439Y-131772125D01*
X156942587Y-131889240D01*
X156942590Y-131889241D01*
X156942599Y-131889247D01*
X157032989Y-131924264D01*
X157150053Y-131969616D01*
X157150056Y-131969616D01*
X157150060Y-131969618D01*
X157368757Y-132010500D01*
X157368760Y-132010500D01*
X157591240Y-132010500D01*
X157591243Y-132010500D01*
X157809940Y-131969618D01*
X157809944Y-131969616D01*
X157809946Y-131969616D01*
X157863298Y-131948946D01*
X158017401Y-131889247D01*
X158206562Y-131772124D01*
X158370981Y-131622236D01*
X158505058Y-131444689D01*
X158505059Y-131444685D01*
X158505061Y-131444684D01*
X158604225Y-131245537D01*
X158604226Y-131245533D01*
X158604229Y-131245528D01*
X158665115Y-131031536D01*
X158685643Y-130810000D01*
X158665115Y-130588464D01*
X158651071Y-130539106D01*
X158604231Y-130374479D01*
X158604225Y-130374462D01*
X158505061Y-130175315D01*
X158505057Y-130175310D01*
X158504584Y-130174684D01*
X158440204Y-130089430D01*
X158370982Y-129997764D01*
X158206561Y-129847875D01*
X158206560Y-129847874D01*
X158017412Y-129730759D01*
X158017405Y-129730755D01*
X158017401Y-129730753D01*
X158017396Y-129730751D01*
X157809946Y-129650383D01*
X157770972Y-129643097D01*
X157591243Y-129609500D01*
X157368757Y-129609500D01*
X157227674Y-129635873D01*
X157150053Y-129650383D01*
X156942603Y-129730751D01*
X156942587Y-129730759D01*
X156753439Y-129847874D01*
X156753438Y-129847875D01*
X156589017Y-129997764D01*
X156454942Y-130175310D01*
X156454938Y-130175315D01*
X156355774Y-130374462D01*
X156355768Y-130374479D01*
X156294885Y-130588460D01*
X156274357Y-130810000D01*
X154270500Y-130810000D01*
X154270500Y-128135491D01*
X154290502Y-128067370D01*
X154307400Y-128046401D01*
X157572357Y-124781443D01*
X157634667Y-124747419D01*
X157705482Y-124752484D01*
X157762318Y-124795031D01*
X157787129Y-124861551D01*
X157785029Y-124895121D01*
X157724176Y-125201053D01*
X157724173Y-125201075D01*
X157689500Y-125553112D01*
X157689500Y-125906887D01*
X157724173Y-126258924D01*
X157724176Y-126258945D01*
X157793188Y-126605894D01*
X157793190Y-126605901D01*
X157793191Y-126605905D01*
X157827601Y-126719341D01*
X157895880Y-126944430D01*
X157895883Y-126944439D01*
X158031261Y-127271269D01*
X158198025Y-127583261D01*
X158394564Y-127877403D01*
X158618974Y-128150848D01*
X158619000Y-128150877D01*
X158869122Y-128400999D01*
X158869131Y-128401007D01*
X158869136Y-128401012D01*
X158869141Y-128401016D01*
X158869151Y-128401025D01*
X159142596Y-128625435D01*
X159436738Y-128821974D01*
X159436741Y-128821976D01*
X159748731Y-128988739D01*
X159993197Y-129090000D01*
X160067233Y-129120667D01*
X160075565Y-129124118D01*
X160414095Y-129226809D01*
X160761060Y-129295825D01*
X161113119Y-129330500D01*
X161113128Y-129330500D01*
X161466872Y-129330500D01*
X161466881Y-129330500D01*
X161818940Y-129295825D01*
X162165905Y-129226809D01*
X162504435Y-129124118D01*
X162831269Y-128988739D01*
X163143259Y-128821976D01*
X163437402Y-128625436D01*
X163710864Y-128401012D01*
X163961012Y-128150864D01*
X164185436Y-127877402D01*
X164381976Y-127583259D01*
X164548739Y-127271269D01*
X164684118Y-126944435D01*
X164786809Y-126605905D01*
X164850421Y-126286105D01*
X164883328Y-126223196D01*
X164945023Y-126188064D01*
X165015918Y-126191864D01*
X165073504Y-126233390D01*
X165099498Y-126299456D01*
X165100000Y-126310687D01*
X165100000Y-139647810D01*
X165079998Y-139715931D01*
X165063095Y-139736905D01*
X162596905Y-142203095D01*
X162534593Y-142237121D01*
X162507810Y-142240000D01*
X137286000Y-142240000D01*
X137217879Y-142219998D01*
X137171386Y-142166342D01*
X137160000Y-142114000D01*
X137160000Y-135310000D01*
X149821056Y-135310000D01*
X149840789Y-135522958D01*
X149899314Y-135728651D01*
X149899317Y-135728659D01*
X149994645Y-135920103D01*
X150001546Y-135929242D01*
X150536666Y-135394122D01*
X150560667Y-135483694D01*
X150619910Y-135586306D01*
X150703694Y-135670090D01*
X150806306Y-135729333D01*
X150895876Y-135753333D01*
X150363580Y-136285628D01*
X150463408Y-136347440D01*
X150463418Y-136347445D01*
X150662836Y-136424700D01*
X150873068Y-136464000D01*
X151086932Y-136464000D01*
X151297160Y-136424701D01*
X151496585Y-136347443D01*
X151496589Y-136347441D01*
X151596418Y-136285629D01*
X151596419Y-136285628D01*
X151064124Y-135753333D01*
X151153694Y-135729333D01*
X151256306Y-135670090D01*
X151340090Y-135586306D01*
X151399333Y-135483694D01*
X151423333Y-135394122D01*
X151958453Y-135929242D01*
X151965352Y-135920106D01*
X152060682Y-135728659D01*
X152060685Y-135728651D01*
X152119210Y-135522958D01*
X152138943Y-135310000D01*
X156321056Y-135310000D01*
X156340789Y-135522958D01*
X156399314Y-135728651D01*
X156399317Y-135728659D01*
X156494645Y-135920103D01*
X156501546Y-135929242D01*
X157036666Y-135394122D01*
X157060667Y-135483694D01*
X157119910Y-135586306D01*
X157203694Y-135670090D01*
X157306306Y-135729333D01*
X157395876Y-135753333D01*
X156863580Y-136285628D01*
X156963408Y-136347440D01*
X156963418Y-136347445D01*
X157162836Y-136424700D01*
X157373068Y-136464000D01*
X157586932Y-136464000D01*
X157797160Y-136424701D01*
X157996585Y-136347443D01*
X157996589Y-136347441D01*
X158096418Y-136285629D01*
X158096419Y-136285628D01*
X157564124Y-135753333D01*
X157653694Y-135729333D01*
X157756306Y-135670090D01*
X157840090Y-135586306D01*
X157899333Y-135483694D01*
X157923333Y-135394122D01*
X158458453Y-135929242D01*
X158465352Y-135920106D01*
X158560682Y-135728659D01*
X158560685Y-135728651D01*
X158619210Y-135522958D01*
X158638943Y-135310000D01*
X158619210Y-135097041D01*
X158560685Y-134891348D01*
X158560679Y-134891332D01*
X158465357Y-134699900D01*
X158465351Y-134699892D01*
X158458452Y-134690755D01*
X157923333Y-135225875D01*
X157899333Y-135136306D01*
X157840090Y-135033694D01*
X157756306Y-134949910D01*
X157653694Y-134890667D01*
X157564123Y-134866666D01*
X158096418Y-134334370D01*
X157996591Y-134272559D01*
X157996581Y-134272554D01*
X157797163Y-134195299D01*
X157586932Y-134156000D01*
X157373068Y-134156000D01*
X157162836Y-134195299D01*
X156963420Y-134272553D01*
X156963413Y-134272556D01*
X156863579Y-134334370D01*
X157395875Y-134866666D01*
X157306306Y-134890667D01*
X157203694Y-134949910D01*
X157119910Y-135033694D01*
X157060667Y-135136306D01*
X157036666Y-135225875D01*
X156501546Y-134690755D01*
X156494643Y-134699898D01*
X156399320Y-134891332D01*
X156399314Y-134891348D01*
X156340789Y-135097041D01*
X156321056Y-135310000D01*
X152138943Y-135310000D01*
X152119210Y-135097041D01*
X152060685Y-134891348D01*
X152060679Y-134891332D01*
X151965357Y-134699900D01*
X151965351Y-134699892D01*
X151958452Y-134690755D01*
X151423333Y-135225875D01*
X151399333Y-135136306D01*
X151340090Y-135033694D01*
X151256306Y-134949910D01*
X151153694Y-134890667D01*
X151064123Y-134866666D01*
X151596418Y-134334370D01*
X151496591Y-134272559D01*
X151496581Y-134272554D01*
X151297163Y-134195299D01*
X151086932Y-134156000D01*
X150873068Y-134156000D01*
X150662836Y-134195299D01*
X150463420Y-134272553D01*
X150463413Y-134272556D01*
X150363579Y-134334370D01*
X150895875Y-134866666D01*
X150806306Y-134890667D01*
X150703694Y-134949910D01*
X150619910Y-135033694D01*
X150560667Y-135136306D01*
X150536666Y-135225875D01*
X150001546Y-134690755D01*
X149994643Y-134699898D01*
X149899320Y-134891332D01*
X149899314Y-134891348D01*
X149840789Y-135097041D01*
X149821056Y-135310000D01*
X137160000Y-135310000D01*
X137160000Y-133350000D01*
X102676000Y-133350000D01*
X102607879Y-133329998D01*
X102561386Y-133276342D01*
X102550000Y-133224000D01*
X102550000Y-128698112D01*
X108049500Y-128698112D01*
X108049500Y-129051887D01*
X108084173Y-129403924D01*
X108084176Y-129403945D01*
X108153188Y-129750894D01*
X108153190Y-129750901D01*
X108153191Y-129750905D01*
X108181343Y-129843710D01*
X108255880Y-130089430D01*
X108255883Y-130089439D01*
X108391261Y-130416269D01*
X108558025Y-130728261D01*
X108754564Y-131022403D01*
X108978974Y-131295848D01*
X108979000Y-131295877D01*
X109229122Y-131545999D01*
X109229131Y-131546007D01*
X109229136Y-131546012D01*
X109229141Y-131546016D01*
X109229151Y-131546025D01*
X109502596Y-131770435D01*
X109680401Y-131889240D01*
X109796741Y-131966976D01*
X110108731Y-132133739D01*
X110435565Y-132269118D01*
X110774095Y-132371809D01*
X111121060Y-132440825D01*
X111473119Y-132475500D01*
X111473128Y-132475500D01*
X111826872Y-132475500D01*
X111826881Y-132475500D01*
X112178940Y-132440825D01*
X112525905Y-132371809D01*
X112864435Y-132269118D01*
X113191269Y-132133739D01*
X113503259Y-131966976D01*
X113797402Y-131770436D01*
X114070864Y-131546012D01*
X114321012Y-131295864D01*
X114545436Y-131022402D01*
X114687358Y-130810000D01*
X149774357Y-130810000D01*
X149794885Y-131031539D01*
X149855768Y-131245520D01*
X149855774Y-131245537D01*
X149954938Y-131444684D01*
X149954942Y-131444689D01*
X150089017Y-131622235D01*
X150253438Y-131772124D01*
X150253439Y-131772125D01*
X150442587Y-131889240D01*
X150442590Y-131889241D01*
X150442599Y-131889247D01*
X150532989Y-131924264D01*
X150650053Y-131969616D01*
X150650056Y-131969616D01*
X150650060Y-131969618D01*
X150868757Y-132010500D01*
X150868760Y-132010500D01*
X151091240Y-132010500D01*
X151091243Y-132010500D01*
X151309940Y-131969618D01*
X151309944Y-131969616D01*
X151309946Y-131969616D01*
X151363298Y-131948946D01*
X151517401Y-131889247D01*
X151706562Y-131772124D01*
X151870981Y-131622236D01*
X152005058Y-131444689D01*
X152005059Y-131444685D01*
X152005061Y-131444684D01*
X152104225Y-131245537D01*
X152104226Y-131245533D01*
X152104229Y-131245528D01*
X152165115Y-131031536D01*
X152185643Y-130810000D01*
X152165115Y-130588464D01*
X152151071Y-130539106D01*
X152104231Y-130374479D01*
X152104225Y-130374462D01*
X152005061Y-130175315D01*
X152005057Y-130175310D01*
X152004584Y-130174684D01*
X151940204Y-130089430D01*
X151870982Y-129997764D01*
X151706561Y-129847875D01*
X151706560Y-129847874D01*
X151517412Y-129730759D01*
X151517405Y-129730755D01*
X151517401Y-129730753D01*
X151517396Y-129730751D01*
X151309946Y-129650383D01*
X151270972Y-129643097D01*
X151091243Y-129609500D01*
X150868757Y-129609500D01*
X150727674Y-129635873D01*
X150650053Y-129650383D01*
X150442603Y-129730751D01*
X150442587Y-129730759D01*
X150253439Y-129847874D01*
X150253438Y-129847875D01*
X150089017Y-129997764D01*
X149954942Y-130175310D01*
X149954938Y-130175315D01*
X149855774Y-130374462D01*
X149855768Y-130374479D01*
X149794885Y-130588460D01*
X149774357Y-130810000D01*
X114687358Y-130810000D01*
X114741976Y-130728259D01*
X114908739Y-130416269D01*
X115044118Y-130089435D01*
X115146809Y-129750905D01*
X115188761Y-129540000D01*
X118174357Y-129540000D01*
X118194885Y-129761539D01*
X118255768Y-129975520D01*
X118255774Y-129975537D01*
X118354938Y-130174684D01*
X118354942Y-130174689D01*
X118489017Y-130352235D01*
X118653438Y-130502124D01*
X118653439Y-130502125D01*
X118842587Y-130619240D01*
X118842590Y-130619241D01*
X118842599Y-130619247D01*
X118932989Y-130654264D01*
X119050053Y-130699616D01*
X119050056Y-130699616D01*
X119050060Y-130699618D01*
X119268757Y-130740500D01*
X119268760Y-130740500D01*
X119491240Y-130740500D01*
X119491243Y-130740500D01*
X119709940Y-130699618D01*
X119709944Y-130699616D01*
X119709946Y-130699616D01*
X119763298Y-130678946D01*
X119917401Y-130619247D01*
X120106562Y-130502124D01*
X120270981Y-130352236D01*
X120405058Y-130174689D01*
X120405059Y-130174685D01*
X120405061Y-130174684D01*
X120504225Y-129975537D01*
X120504225Y-129975534D01*
X120504229Y-129975528D01*
X120518810Y-129924278D01*
X120556689Y-129864233D01*
X120621019Y-129834198D01*
X120691376Y-129843710D01*
X120745421Y-129889749D01*
X120765996Y-129957699D01*
X120766000Y-129958760D01*
X120766000Y-130465013D01*
X120766001Y-130465022D01*
X120780737Y-130539105D01*
X120780737Y-130539107D01*
X120836875Y-130623124D01*
X120920893Y-130679262D01*
X120920894Y-130679263D01*
X120994980Y-130693999D01*
X121666000Y-130693999D01*
X121666000Y-129912968D01*
X121746306Y-129959333D01*
X121860756Y-129990000D01*
X121979244Y-129990000D01*
X122093694Y-129959333D01*
X122174000Y-129912968D01*
X122174000Y-130693999D01*
X122845014Y-130693999D01*
X122845022Y-130693998D01*
X122919105Y-130679262D01*
X122919107Y-130679262D01*
X123003124Y-130623124D01*
X123059262Y-130539106D01*
X123059263Y-130539105D01*
X123073999Y-130465022D01*
X123074000Y-130465015D01*
X123074000Y-129794000D01*
X122292968Y-129794000D01*
X122339333Y-129713694D01*
X122370000Y-129599244D01*
X122370000Y-129480756D01*
X122339333Y-129366306D01*
X122292968Y-129286000D01*
X123073999Y-129286000D01*
X123073999Y-128614986D01*
X123073998Y-128614977D01*
X123059262Y-128540894D01*
X123059262Y-128540892D01*
X123003124Y-128456875D01*
X122919106Y-128400737D01*
X122919105Y-128400736D01*
X122845022Y-128386000D01*
X122174000Y-128386000D01*
X122174000Y-129167031D01*
X122093694Y-129120667D01*
X121979244Y-129090000D01*
X121860756Y-129090000D01*
X121746306Y-129120667D01*
X121666000Y-129167031D01*
X121666000Y-128386000D01*
X120994986Y-128386000D01*
X120994976Y-128386001D01*
X120920894Y-128400737D01*
X120920892Y-128400737D01*
X120836875Y-128456875D01*
X120780737Y-128540893D01*
X120780736Y-128540894D01*
X120766000Y-128614977D01*
X120766000Y-129121237D01*
X120745998Y-129189358D01*
X120692342Y-129235851D01*
X120622068Y-129245955D01*
X120557488Y-129216461D01*
X120519104Y-129156735D01*
X120518810Y-129155718D01*
X120504231Y-129104479D01*
X120504225Y-129104462D01*
X120405061Y-128905315D01*
X120405057Y-128905310D01*
X120270982Y-128727764D01*
X120106561Y-128577875D01*
X120106560Y-128577874D01*
X119917412Y-128460759D01*
X119917405Y-128460755D01*
X119917401Y-128460753D01*
X119907391Y-128456875D01*
X119709946Y-128380383D01*
X119670972Y-128373097D01*
X119491243Y-128339500D01*
X119268757Y-128339500D01*
X119127674Y-128365873D01*
X119050053Y-128380383D01*
X118842603Y-128460751D01*
X118842587Y-128460759D01*
X118653439Y-128577874D01*
X118653438Y-128577875D01*
X118489017Y-128727764D01*
X118354942Y-128905310D01*
X118354938Y-128905315D01*
X118255774Y-129104462D01*
X118255768Y-129104479D01*
X118194885Y-129318460D01*
X118174357Y-129540000D01*
X115188761Y-129540000D01*
X115215825Y-129403940D01*
X115250500Y-129051881D01*
X115250500Y-128698119D01*
X115215825Y-128346060D01*
X115146809Y-127999095D01*
X115044118Y-127660565D01*
X114908739Y-127333731D01*
X114741976Y-127021741D01*
X114724297Y-126995282D01*
X114545435Y-126727596D01*
X114321025Y-126454151D01*
X114320999Y-126454122D01*
X114070877Y-126204000D01*
X114070848Y-126203974D01*
X113797403Y-125979564D01*
X113503261Y-125783025D01*
X113191269Y-125616261D01*
X112864439Y-125480883D01*
X112864430Y-125480880D01*
X112664923Y-125420361D01*
X112525905Y-125378191D01*
X112525901Y-125378190D01*
X112525894Y-125378188D01*
X112178945Y-125309176D01*
X112178940Y-125309175D01*
X112178933Y-125309174D01*
X112178924Y-125309173D01*
X111826887Y-125274500D01*
X111826881Y-125274500D01*
X111473119Y-125274500D01*
X111473112Y-125274500D01*
X111121075Y-125309173D01*
X111121063Y-125309174D01*
X111121060Y-125309175D01*
X111121057Y-125309175D01*
X111121054Y-125309176D01*
X110774105Y-125378188D01*
X110435569Y-125480880D01*
X110435560Y-125480883D01*
X110108730Y-125616261D01*
X109796738Y-125783025D01*
X109502596Y-125979564D01*
X109229151Y-126203974D01*
X109229122Y-126204000D01*
X108979000Y-126454122D01*
X108978974Y-126454151D01*
X108754564Y-126727596D01*
X108558025Y-127021738D01*
X108391261Y-127333730D01*
X108255883Y-127660560D01*
X108255880Y-127660569D01*
X108153188Y-127999105D01*
X108084176Y-128346054D01*
X108084173Y-128346075D01*
X108049500Y-128698112D01*
X102550000Y-128698112D01*
X102550000Y-124863350D01*
X124667500Y-124863350D01*
X124667500Y-126596649D01*
X124670550Y-126611981D01*
X124708331Y-126801920D01*
X124788425Y-126995282D01*
X124806105Y-127021741D01*
X124904703Y-127169305D01*
X124904708Y-127169311D01*
X125052688Y-127317291D01*
X125052694Y-127317296D01*
X125052696Y-127317298D01*
X125226718Y-127433575D01*
X125420080Y-127513669D01*
X125625353Y-127554500D01*
X125625354Y-127554500D01*
X125834646Y-127554500D01*
X125834647Y-127554500D01*
X126039920Y-127513669D01*
X126233282Y-127433575D01*
X126407304Y-127317298D01*
X126555298Y-127169304D01*
X126671575Y-126995282D01*
X126751669Y-126801920D01*
X126792500Y-126596647D01*
X126792500Y-125730000D01*
X130974785Y-125730000D01*
X130993603Y-125933084D01*
X131049416Y-126129245D01*
X131049417Y-126129247D01*
X131049418Y-126129250D01*
X131140327Y-126311821D01*
X131140328Y-126311822D01*
X131140329Y-126311824D01*
X131263234Y-126474578D01*
X131413959Y-126611981D01*
X131413960Y-126611982D01*
X131587351Y-126719341D01*
X131587354Y-126719342D01*
X131587363Y-126719348D01*
X131777544Y-126793024D01*
X131978024Y-126830500D01*
X131978026Y-126830500D01*
X132181974Y-126830500D01*
X132181976Y-126830500D01*
X132382456Y-126793024D01*
X132572637Y-126719348D01*
X132746041Y-126611981D01*
X132896764Y-126474579D01*
X132912191Y-126454151D01*
X132927491Y-126433889D01*
X133019673Y-126311821D01*
X133110582Y-126129250D01*
X133166397Y-125933083D01*
X133185215Y-125730000D01*
X148754785Y-125730000D01*
X148773603Y-125933084D01*
X148829416Y-126129245D01*
X148829417Y-126129247D01*
X148829418Y-126129250D01*
X148920327Y-126311821D01*
X148920328Y-126311822D01*
X148920329Y-126311824D01*
X149043234Y-126474578D01*
X149193959Y-126611981D01*
X149193960Y-126611982D01*
X149367351Y-126719341D01*
X149367354Y-126719342D01*
X149367363Y-126719348D01*
X149557544Y-126793024D01*
X149758024Y-126830500D01*
X149758026Y-126830500D01*
X149961974Y-126830500D01*
X149961976Y-126830500D01*
X150162456Y-126793024D01*
X150352637Y-126719348D01*
X150526041Y-126611981D01*
X150676764Y-126474579D01*
X150692191Y-126454151D01*
X150707491Y-126433889D01*
X150799673Y-126311821D01*
X150890582Y-126129250D01*
X150946397Y-125933083D01*
X150965215Y-125730000D01*
X150946397Y-125526917D01*
X150890582Y-125330750D01*
X150799673Y-125148179D01*
X150799670Y-125148175D01*
X150676765Y-124985421D01*
X150526040Y-124848018D01*
X150526039Y-124848017D01*
X150352648Y-124740658D01*
X150352641Y-124740654D01*
X150352637Y-124740652D01*
X150236133Y-124695518D01*
X150162457Y-124666976D01*
X150095629Y-124654484D01*
X149961976Y-124629500D01*
X149758024Y-124629500D01*
X149657784Y-124648238D01*
X149557542Y-124666976D01*
X149410190Y-124724060D01*
X149367363Y-124740652D01*
X149367362Y-124740652D01*
X149367361Y-124740653D01*
X149367351Y-124740658D01*
X149193960Y-124848017D01*
X149193959Y-124848018D01*
X149043234Y-124985421D01*
X148920329Y-125148175D01*
X148829416Y-125330754D01*
X148773603Y-125526915D01*
X148754785Y-125730000D01*
X133185215Y-125730000D01*
X133166397Y-125526917D01*
X133110582Y-125330750D01*
X133019673Y-125148179D01*
X133019670Y-125148175D01*
X132896765Y-124985421D01*
X132746040Y-124848018D01*
X132746039Y-124848017D01*
X132572648Y-124740658D01*
X132572641Y-124740654D01*
X132572637Y-124740652D01*
X132456133Y-124695518D01*
X132382457Y-124666976D01*
X132315629Y-124654484D01*
X132181976Y-124629500D01*
X131978024Y-124629500D01*
X131877784Y-124648238D01*
X131777542Y-124666976D01*
X131630190Y-124724060D01*
X131587363Y-124740652D01*
X131587362Y-124740652D01*
X131587361Y-124740653D01*
X131587351Y-124740658D01*
X131413960Y-124848017D01*
X131413959Y-124848018D01*
X131263234Y-124985421D01*
X131140329Y-125148175D01*
X131049416Y-125330754D01*
X130993603Y-125526915D01*
X130974785Y-125730000D01*
X126792500Y-125730000D01*
X126792500Y-124863353D01*
X126751669Y-124658080D01*
X126671575Y-124464718D01*
X126555298Y-124290696D01*
X126555296Y-124290694D01*
X126555291Y-124290688D01*
X126407311Y-124142708D01*
X126407305Y-124142703D01*
X126301462Y-124071981D01*
X126233282Y-124026425D01*
X126096559Y-123969792D01*
X126039923Y-123946332D01*
X126039921Y-123946331D01*
X126039920Y-123946331D01*
X125936588Y-123925777D01*
X125834649Y-123905500D01*
X125834647Y-123905500D01*
X125625353Y-123905500D01*
X125625350Y-123905500D01*
X125479167Y-123934578D01*
X125420080Y-123946331D01*
X125420079Y-123946331D01*
X125420076Y-123946332D01*
X125226716Y-124026426D01*
X125052694Y-124142703D01*
X125052688Y-124142708D01*
X124904708Y-124290688D01*
X124904703Y-124290694D01*
X124788426Y-124464716D01*
X124708332Y-124658076D01*
X124708331Y-124658079D01*
X124708331Y-124658080D01*
X124697915Y-124710441D01*
X124667500Y-124863350D01*
X102550000Y-124863350D01*
X102550000Y-123190000D01*
X130974785Y-123190000D01*
X130993603Y-123393084D01*
X131049416Y-123589245D01*
X131049417Y-123589247D01*
X131049418Y-123589250D01*
X131140327Y-123771821D01*
X131140328Y-123771822D01*
X131140329Y-123771824D01*
X131263234Y-123934578D01*
X131413959Y-124071981D01*
X131413960Y-124071982D01*
X131587351Y-124179341D01*
X131587354Y-124179342D01*
X131587363Y-124179348D01*
X131777544Y-124253024D01*
X131978024Y-124290500D01*
X131978026Y-124290500D01*
X132181974Y-124290500D01*
X132181976Y-124290500D01*
X132382456Y-124253024D01*
X132572637Y-124179348D01*
X132746041Y-124071981D01*
X132896764Y-123934579D01*
X133019673Y-123771821D01*
X133110582Y-123589250D01*
X133166397Y-123393083D01*
X133185215Y-123190000D01*
X148754785Y-123190000D01*
X148773603Y-123393084D01*
X148829416Y-123589245D01*
X148829417Y-123589247D01*
X148829418Y-123589250D01*
X148920327Y-123771821D01*
X148920328Y-123771822D01*
X148920329Y-123771824D01*
X149043234Y-123934578D01*
X149193959Y-124071981D01*
X149193960Y-124071982D01*
X149367351Y-124179341D01*
X149367354Y-124179342D01*
X149367363Y-124179348D01*
X149557544Y-124253024D01*
X149758024Y-124290500D01*
X149758026Y-124290500D01*
X149961974Y-124290500D01*
X149961976Y-124290500D01*
X150162456Y-124253024D01*
X150352637Y-124179348D01*
X150526041Y-124071981D01*
X150676764Y-123934579D01*
X150799673Y-123771821D01*
X150890582Y-123589250D01*
X150946397Y-123393083D01*
X150965215Y-123190000D01*
X150946397Y-122986917D01*
X150890582Y-122790750D01*
X150799673Y-122608179D01*
X150799670Y-122608175D01*
X150676765Y-122445421D01*
X150526040Y-122308018D01*
X150526039Y-122308017D01*
X150352648Y-122200658D01*
X150352641Y-122200654D01*
X150352637Y-122200652D01*
X150236133Y-122155518D01*
X150162457Y-122126976D01*
X150095629Y-122114484D01*
X149961976Y-122089500D01*
X149758024Y-122089500D01*
X149658019Y-122108194D01*
X149557542Y-122126976D01*
X149433202Y-122175146D01*
X149367363Y-122200652D01*
X149367362Y-122200652D01*
X149367361Y-122200653D01*
X149367351Y-122200658D01*
X149193960Y-122308017D01*
X149193959Y-122308018D01*
X149043234Y-122445421D01*
X148920329Y-122608175D01*
X148829416Y-122790754D01*
X148773603Y-122986915D01*
X148754785Y-123190000D01*
X133185215Y-123190000D01*
X133166397Y-122986917D01*
X133110582Y-122790750D01*
X133019673Y-122608179D01*
X133019670Y-122608175D01*
X132896765Y-122445421D01*
X132746040Y-122308018D01*
X132746039Y-122308017D01*
X132572648Y-122200658D01*
X132572641Y-122200654D01*
X132572637Y-122200652D01*
X132456133Y-122155518D01*
X132382457Y-122126976D01*
X132315629Y-122114484D01*
X132181976Y-122089500D01*
X131978024Y-122089500D01*
X131878019Y-122108194D01*
X131777542Y-122126976D01*
X131653202Y-122175146D01*
X131587363Y-122200652D01*
X131587362Y-122200652D01*
X131587361Y-122200653D01*
X131587351Y-122200658D01*
X131413960Y-122308017D01*
X131413959Y-122308018D01*
X131263234Y-122445421D01*
X131140329Y-122608175D01*
X131049416Y-122790754D01*
X130993603Y-122986915D01*
X130974785Y-123190000D01*
X102550000Y-123190000D01*
X102550000Y-121113129D01*
X104855500Y-121113129D01*
X104855500Y-122726859D01*
X104855501Y-122726866D01*
X104858414Y-122751990D01*
X104858416Y-122751994D01*
X104903793Y-122854765D01*
X104983232Y-122934204D01*
X104983234Y-122934205D01*
X104983235Y-122934206D01*
X105086009Y-122979585D01*
X105111135Y-122982500D01*
X108248864Y-122982499D01*
X108273991Y-122979585D01*
X108376765Y-122934206D01*
X108456206Y-122854765D01*
X108501585Y-122751991D01*
X108504500Y-122726865D01*
X108504499Y-121113136D01*
X108501585Y-121088009D01*
X108456206Y-120985235D01*
X108456206Y-120985234D01*
X108376767Y-120905795D01*
X108376765Y-120905794D01*
X108273989Y-120860414D01*
X108273990Y-120860414D01*
X108248868Y-120857500D01*
X105111140Y-120857500D01*
X105111133Y-120857501D01*
X105086009Y-120860414D01*
X105086005Y-120860416D01*
X104983234Y-120905793D01*
X104903795Y-120985232D01*
X104903794Y-120985234D01*
X104858414Y-121088009D01*
X104855500Y-121113129D01*
X102550000Y-121113129D01*
X102550000Y-120620999D01*
X131017567Y-120620999D01*
X131017567Y-120679000D01*
X131037753Y-120858148D01*
X131050652Y-120914670D01*
X131050659Y-120914693D01*
X131110191Y-121084827D01*
X131110199Y-121084847D01*
X131135366Y-121137105D01*
X131173304Y-121197484D01*
X131173305Y-121197485D01*
X131595842Y-120774948D01*
X131614075Y-120842993D01*
X131679901Y-120957007D01*
X131772993Y-121050099D01*
X131887007Y-121115925D01*
X131955051Y-121134157D01*
X131532514Y-121556694D01*
X131532515Y-121556695D01*
X131592894Y-121594633D01*
X131645152Y-121619800D01*
X131645172Y-121619808D01*
X131815306Y-121679340D01*
X131815329Y-121679347D01*
X131871851Y-121692246D01*
X132051000Y-121712433D01*
X132108999Y-121712433D01*
X132132437Y-121709792D01*
X132146546Y-121709000D01*
X132725663Y-121709000D01*
X132740168Y-121708592D01*
X132740174Y-121708591D01*
X132771341Y-121700551D01*
X132771341Y-121700550D01*
X132204948Y-121134157D01*
X132272993Y-121115925D01*
X132387007Y-121050099D01*
X132480099Y-120957007D01*
X132545925Y-120842993D01*
X132564157Y-120774948D01*
X133130064Y-121340855D01*
X133130065Y-121340855D01*
X133137648Y-121307634D01*
X133140484Y-121293381D01*
X133140484Y-121293379D01*
X133139050Y-121242287D01*
X133139000Y-121238751D01*
X133139000Y-120716546D01*
X133139792Y-120702437D01*
X133142433Y-120679000D01*
X133142433Y-120620998D01*
X148797567Y-120620998D01*
X148797567Y-120679000D01*
X148800208Y-120702437D01*
X148801000Y-120716546D01*
X148801000Y-121186747D01*
X148799740Y-121199537D01*
X148800111Y-121199569D01*
X148799515Y-121206623D01*
X148802350Y-121307628D01*
X148809934Y-121340855D01*
X148809935Y-121340855D01*
X149375842Y-120774948D01*
X149394075Y-120842993D01*
X149459901Y-120957007D01*
X149552993Y-121050099D01*
X149667007Y-121115925D01*
X149735051Y-121134157D01*
X149169193Y-121700015D01*
X149169193Y-121700016D01*
X149214355Y-121708999D01*
X149214356Y-121709000D01*
X149793454Y-121709000D01*
X149807563Y-121709792D01*
X149831001Y-121712433D01*
X149889000Y-121712433D01*
X150068148Y-121692246D01*
X150124670Y-121679347D01*
X150124693Y-121679340D01*
X150294827Y-121619808D01*
X150294847Y-121619800D01*
X150347105Y-121594633D01*
X150407484Y-121556695D01*
X150407485Y-121556694D01*
X149984948Y-121134157D01*
X150052993Y-121115925D01*
X150167007Y-121050099D01*
X150260099Y-120957007D01*
X150325925Y-120842993D01*
X150344157Y-120774948D01*
X150766694Y-121197485D01*
X150766695Y-121197484D01*
X150804633Y-121137105D01*
X150829800Y-121084847D01*
X150829808Y-121084827D01*
X150889340Y-120914693D01*
X150889347Y-120914670D01*
X150902246Y-120858148D01*
X150922433Y-120679000D01*
X150922433Y-120620999D01*
X150902246Y-120441851D01*
X150889347Y-120385329D01*
X150889340Y-120385306D01*
X150829808Y-120215172D01*
X150829800Y-120215152D01*
X150804636Y-120162898D01*
X150766693Y-120102514D01*
X150344157Y-120525050D01*
X150325925Y-120457007D01*
X150260099Y-120342993D01*
X150167007Y-120249901D01*
X150052993Y-120184075D01*
X149984947Y-120165841D01*
X150407484Y-119743304D01*
X150347099Y-119705362D01*
X150294847Y-119680199D01*
X150294827Y-119680191D01*
X150124693Y-119620659D01*
X150124670Y-119620652D01*
X150068148Y-119607753D01*
X149889000Y-119587567D01*
X149831001Y-119587567D01*
X149807563Y-119590208D01*
X149793454Y-119591000D01*
X149214337Y-119591000D01*
X149199832Y-119591407D01*
X149199828Y-119591407D01*
X149168657Y-119599448D01*
X149168657Y-119599449D01*
X149735050Y-120165842D01*
X149667007Y-120184075D01*
X149552993Y-120249901D01*
X149459901Y-120342993D01*
X149394075Y-120457007D01*
X149375841Y-120525052D01*
X148809933Y-119959144D01*
X148809932Y-119959144D01*
X148802351Y-119992361D01*
X148799516Y-120006611D01*
X148799515Y-120006619D01*
X148800950Y-120057712D01*
X148801000Y-120061248D01*
X148801000Y-120583452D01*
X148800208Y-120597560D01*
X148797567Y-120620998D01*
X133142433Y-120620998D01*
X133139792Y-120597560D01*
X133139000Y-120583452D01*
X133139000Y-120113254D01*
X133140259Y-120100466D01*
X133139889Y-120100435D01*
X133140484Y-120093378D01*
X133137649Y-119992368D01*
X133130064Y-119959142D01*
X132564157Y-120525049D01*
X132545925Y-120457007D01*
X132480099Y-120342993D01*
X132387007Y-120249901D01*
X132272993Y-120184075D01*
X132204946Y-120165841D01*
X132770805Y-119599981D01*
X132770806Y-119599981D01*
X132725654Y-119591000D01*
X132146546Y-119591000D01*
X132132437Y-119590208D01*
X132108999Y-119587567D01*
X132051000Y-119587567D01*
X131871851Y-119607753D01*
X131815329Y-119620652D01*
X131815306Y-119620659D01*
X131645172Y-119680191D01*
X131645152Y-119680199D01*
X131592896Y-119705364D01*
X131592891Y-119705367D01*
X131532514Y-119743304D01*
X131532513Y-119743305D01*
X131955050Y-120165842D01*
X131887007Y-120184075D01*
X131772993Y-120249901D01*
X131679901Y-120342993D01*
X131614075Y-120457007D01*
X131595841Y-120525052D01*
X131173304Y-120102515D01*
X131173303Y-120102515D01*
X131135362Y-120162899D01*
X131110199Y-120215152D01*
X131110191Y-120215172D01*
X131050659Y-120385306D01*
X131050652Y-120385329D01*
X131037753Y-120441851D01*
X131017567Y-120620999D01*
X102550000Y-120620999D01*
X102550000Y-119275350D01*
X104855500Y-119275350D01*
X104855500Y-119484649D01*
X104863037Y-119522540D01*
X104896331Y-119689920D01*
X104976425Y-119883282D01*
X105064644Y-120015311D01*
X105092703Y-120057305D01*
X105092708Y-120057311D01*
X105240688Y-120205291D01*
X105240694Y-120205296D01*
X105240696Y-120205298D01*
X105414718Y-120321575D01*
X105608080Y-120401669D01*
X105813353Y-120442500D01*
X105813354Y-120442500D01*
X107546646Y-120442500D01*
X107546647Y-120442500D01*
X107751920Y-120401669D01*
X107945282Y-120321575D01*
X108119304Y-120205298D01*
X108267298Y-120057304D01*
X108383575Y-119883282D01*
X108463669Y-119689920D01*
X108504500Y-119484647D01*
X108504500Y-119405000D01*
X110594571Y-119405000D01*
X110614244Y-119617311D01*
X110672593Y-119822384D01*
X110672594Y-119822386D01*
X110672595Y-119822389D01*
X110767634Y-120013255D01*
X110895118Y-120182069D01*
X110896129Y-120183408D01*
X111053699Y-120327053D01*
X111053701Y-120327054D01*
X111234974Y-120439294D01*
X111234975Y-120439294D01*
X111234981Y-120439298D01*
X111433802Y-120516321D01*
X111643390Y-120555500D01*
X111643393Y-120555500D01*
X111856607Y-120555500D01*
X111856610Y-120555500D01*
X112066198Y-120516321D01*
X112265019Y-120439298D01*
X112446302Y-120327052D01*
X112603872Y-120183407D01*
X112732366Y-120013255D01*
X112827405Y-119822389D01*
X112885756Y-119617310D01*
X112894537Y-119522538D01*
X112920739Y-119456555D01*
X112978456Y-119415211D01*
X113049362Y-119411634D01*
X113110946Y-119446960D01*
X113143656Y-119509973D01*
X113145461Y-119522529D01*
X113147943Y-119549305D01*
X113154244Y-119617311D01*
X113212593Y-119822384D01*
X113212594Y-119822386D01*
X113212595Y-119822389D01*
X113307634Y-120013255D01*
X113435118Y-120182069D01*
X113436129Y-120183408D01*
X113593699Y-120327053D01*
X113593701Y-120327054D01*
X113774974Y-120439294D01*
X113774975Y-120439294D01*
X113774981Y-120439298D01*
X113973802Y-120516321D01*
X114183390Y-120555500D01*
X114183393Y-120555500D01*
X114396607Y-120555500D01*
X114396610Y-120555500D01*
X114606198Y-120516321D01*
X114805019Y-120439298D01*
X114986302Y-120327052D01*
X115143872Y-120183407D01*
X115272366Y-120013255D01*
X115367405Y-119822389D01*
X115425756Y-119617310D01*
X115434537Y-119522538D01*
X115460739Y-119456555D01*
X115518456Y-119415211D01*
X115589362Y-119411634D01*
X115650946Y-119446960D01*
X115683656Y-119509973D01*
X115685461Y-119522529D01*
X115687943Y-119549305D01*
X115694244Y-119617311D01*
X115752593Y-119822384D01*
X115752594Y-119822386D01*
X115752595Y-119822389D01*
X115847634Y-120013255D01*
X115975118Y-120182069D01*
X115976129Y-120183408D01*
X116133699Y-120327053D01*
X116133701Y-120327054D01*
X116314974Y-120439294D01*
X116314975Y-120439294D01*
X116314981Y-120439298D01*
X116513802Y-120516321D01*
X116723390Y-120555500D01*
X116723393Y-120555500D01*
X116936607Y-120555500D01*
X116936610Y-120555500D01*
X117146198Y-120516321D01*
X117345019Y-120439298D01*
X117526302Y-120327052D01*
X117683872Y-120183407D01*
X117812366Y-120013255D01*
X117907405Y-119822389D01*
X117965756Y-119617310D01*
X117985429Y-119405000D01*
X117965756Y-119192690D01*
X117907405Y-118987611D01*
X117812366Y-118796745D01*
X117683872Y-118626593D01*
X117605019Y-118554708D01*
X117577890Y-118529977D01*
X118266000Y-118529977D01*
X118266000Y-119151000D01*
X118939297Y-119151000D01*
X118904075Y-119212007D01*
X118870000Y-119339174D01*
X118870000Y-119470826D01*
X118904075Y-119597993D01*
X118939297Y-119659000D01*
X118266001Y-119659000D01*
X118266001Y-120280022D01*
X118280737Y-120354105D01*
X118280737Y-120354107D01*
X118336875Y-120438124D01*
X118420893Y-120494262D01*
X118420894Y-120494263D01*
X118494980Y-120508999D01*
X119116000Y-120508999D01*
X119116000Y-119835702D01*
X119177007Y-119870925D01*
X119304174Y-119905000D01*
X119435826Y-119905000D01*
X119562993Y-119870925D01*
X119624000Y-119835702D01*
X119624000Y-120508999D01*
X120245014Y-120508999D01*
X120245022Y-120508998D01*
X120319105Y-120494262D01*
X120319107Y-120494262D01*
X120403124Y-120438124D01*
X120459262Y-120354106D01*
X120459263Y-120354105D01*
X120473999Y-120280022D01*
X120474000Y-120280015D01*
X120474000Y-119659000D01*
X119800703Y-119659000D01*
X119835925Y-119597993D01*
X119870000Y-119470826D01*
X119870000Y-119339174D01*
X119835925Y-119212007D01*
X119800703Y-119151000D01*
X120473999Y-119151000D01*
X120473999Y-118529986D01*
X120473998Y-118529977D01*
X120459262Y-118455894D01*
X120459262Y-118455892D01*
X120403124Y-118371875D01*
X120319106Y-118315737D01*
X120319105Y-118315736D01*
X120245022Y-118301000D01*
X119624000Y-118301000D01*
X119624000Y-118974297D01*
X119562993Y-118939075D01*
X119435826Y-118905000D01*
X119304174Y-118905000D01*
X119177007Y-118939075D01*
X119116000Y-118974297D01*
X119116000Y-118301000D01*
X118494986Y-118301000D01*
X118494976Y-118301001D01*
X118420894Y-118315737D01*
X118420892Y-118315737D01*
X118336875Y-118371875D01*
X118280737Y-118455893D01*
X118280736Y-118455894D01*
X118266000Y-118529977D01*
X117577890Y-118529977D01*
X117526300Y-118482946D01*
X117526298Y-118482945D01*
X117345025Y-118370705D01*
X117345021Y-118370703D01*
X117345019Y-118370702D01*
X117196286Y-118313083D01*
X117146199Y-118293679D01*
X117093801Y-118283884D01*
X116936610Y-118254500D01*
X116723390Y-118254500D01*
X116597637Y-118278007D01*
X116513800Y-118293679D01*
X116359754Y-118353356D01*
X116314981Y-118370702D01*
X116314980Y-118370702D01*
X116314979Y-118370703D01*
X116314974Y-118370705D01*
X116133701Y-118482945D01*
X116133699Y-118482946D01*
X115976129Y-118626591D01*
X115918657Y-118702696D01*
X115847634Y-118796745D01*
X115807814Y-118876716D01*
X115752593Y-118987615D01*
X115694244Y-119192688D01*
X115694244Y-119192690D01*
X115685462Y-119287461D01*
X115659261Y-119353444D01*
X115601544Y-119394788D01*
X115530638Y-119398365D01*
X115469053Y-119363039D01*
X115436344Y-119300026D01*
X115434538Y-119287470D01*
X115425756Y-119192690D01*
X115367405Y-118987611D01*
X115272366Y-118796745D01*
X115143872Y-118626593D01*
X115065019Y-118554708D01*
X114986300Y-118482946D01*
X114986298Y-118482945D01*
X114805025Y-118370705D01*
X114805021Y-118370703D01*
X114805019Y-118370702D01*
X114656286Y-118313083D01*
X114606199Y-118293679D01*
X114553801Y-118283884D01*
X114396610Y-118254500D01*
X114183390Y-118254500D01*
X114057637Y-118278007D01*
X113973800Y-118293679D01*
X113819754Y-118353356D01*
X113774981Y-118370702D01*
X113774980Y-118370702D01*
X113774979Y-118370703D01*
X113774974Y-118370705D01*
X113593701Y-118482945D01*
X113593699Y-118482946D01*
X113436129Y-118626591D01*
X113378657Y-118702696D01*
X113307634Y-118796745D01*
X113267814Y-118876716D01*
X113212593Y-118987615D01*
X113154244Y-119192688D01*
X113154244Y-119192690D01*
X113145462Y-119287461D01*
X113119261Y-119353444D01*
X113061544Y-119394788D01*
X112990638Y-119398365D01*
X112929053Y-119363039D01*
X112896344Y-119300026D01*
X112894538Y-119287470D01*
X112885756Y-119192690D01*
X112827405Y-118987611D01*
X112732366Y-118796745D01*
X112603872Y-118626593D01*
X112525019Y-118554708D01*
X112446300Y-118482946D01*
X112446298Y-118482945D01*
X112265025Y-118370705D01*
X112265021Y-118370703D01*
X112265019Y-118370702D01*
X112116286Y-118313083D01*
X112066199Y-118293679D01*
X112013801Y-118283884D01*
X111856610Y-118254500D01*
X111643390Y-118254500D01*
X111517637Y-118278007D01*
X111433800Y-118293679D01*
X111279754Y-118353356D01*
X111234981Y-118370702D01*
X111234980Y-118370702D01*
X111234979Y-118370703D01*
X111234974Y-118370705D01*
X111053701Y-118482945D01*
X111053699Y-118482946D01*
X110896129Y-118626591D01*
X110838657Y-118702696D01*
X110767634Y-118796745D01*
X110727814Y-118876716D01*
X110672593Y-118987615D01*
X110614244Y-119192688D01*
X110594571Y-119405000D01*
X108504500Y-119405000D01*
X108504500Y-119275353D01*
X108463669Y-119070080D01*
X108383575Y-118876718D01*
X108267298Y-118702696D01*
X108267296Y-118702694D01*
X108267291Y-118702688D01*
X108119311Y-118554708D01*
X108119305Y-118554703D01*
X108105588Y-118545537D01*
X107945282Y-118438425D01*
X107781793Y-118370705D01*
X107751923Y-118358332D01*
X107751921Y-118358331D01*
X107751920Y-118358331D01*
X107648588Y-118337777D01*
X107546649Y-118317500D01*
X107546647Y-118317500D01*
X105813353Y-118317500D01*
X105813350Y-118317500D01*
X105660441Y-118347915D01*
X105608080Y-118358331D01*
X105608079Y-118358331D01*
X105608076Y-118358332D01*
X105414716Y-118438426D01*
X105240694Y-118554703D01*
X105240688Y-118554708D01*
X105092708Y-118702688D01*
X105092703Y-118702694D01*
X104976426Y-118876716D01*
X104896332Y-119070076D01*
X104896331Y-119070079D01*
X104896331Y-119070080D01*
X104895924Y-119072125D01*
X104855500Y-119275350D01*
X102550000Y-119275350D01*
X102550000Y-116735350D01*
X104855500Y-116735350D01*
X104855500Y-116944649D01*
X104868400Y-117009500D01*
X104896331Y-117149920D01*
X104976425Y-117343282D01*
X105064644Y-117475311D01*
X105092703Y-117517305D01*
X105092708Y-117517311D01*
X105240688Y-117665291D01*
X105240694Y-117665296D01*
X105240696Y-117665298D01*
X105414718Y-117781575D01*
X105608080Y-117861669D01*
X105813353Y-117902500D01*
X105813354Y-117902500D01*
X107546646Y-117902500D01*
X107546647Y-117902500D01*
X107751920Y-117861669D01*
X107945282Y-117781575D01*
X108119304Y-117665298D01*
X108267298Y-117517304D01*
X108383575Y-117343282D01*
X108424969Y-117243350D01*
X124667500Y-117243350D01*
X124667500Y-118976649D01*
X124670550Y-118991981D01*
X124706561Y-119173024D01*
X124708332Y-119181923D01*
X124731792Y-119238559D01*
X124788425Y-119375282D01*
X124861502Y-119484649D01*
X124904703Y-119549305D01*
X124904708Y-119549311D01*
X125052688Y-119697291D01*
X125052694Y-119697296D01*
X125052696Y-119697298D01*
X125226718Y-119813575D01*
X125420080Y-119893669D01*
X125625353Y-119934500D01*
X125625354Y-119934500D01*
X125834646Y-119934500D01*
X125834647Y-119934500D01*
X126039920Y-119893669D01*
X126233282Y-119813575D01*
X126407304Y-119697298D01*
X126555298Y-119549304D01*
X126671575Y-119375282D01*
X126751669Y-119181920D01*
X126792500Y-118976647D01*
X126792500Y-118110000D01*
X130974785Y-118110000D01*
X130993603Y-118313084D01*
X131049416Y-118509245D01*
X131049417Y-118509247D01*
X131049418Y-118509250D01*
X131140327Y-118691821D01*
X131140328Y-118691822D01*
X131140329Y-118691824D01*
X131263234Y-118854578D01*
X131413959Y-118991981D01*
X131413960Y-118991982D01*
X131587351Y-119099341D01*
X131587354Y-119099342D01*
X131587363Y-119099348D01*
X131777544Y-119173024D01*
X131978024Y-119210500D01*
X131978026Y-119210500D01*
X132181974Y-119210500D01*
X132181976Y-119210500D01*
X132382456Y-119173024D01*
X132572637Y-119099348D01*
X132746041Y-118991981D01*
X132896764Y-118854579D01*
X133019673Y-118691821D01*
X133110582Y-118509250D01*
X133166397Y-118313083D01*
X133185215Y-118110000D01*
X148754785Y-118110000D01*
X148773603Y-118313084D01*
X148829416Y-118509245D01*
X148829417Y-118509247D01*
X148829418Y-118509250D01*
X148920327Y-118691821D01*
X148920328Y-118691822D01*
X148920329Y-118691824D01*
X149043234Y-118854578D01*
X149193959Y-118991981D01*
X149193960Y-118991982D01*
X149367351Y-119099341D01*
X149367354Y-119099342D01*
X149367363Y-119099348D01*
X149557544Y-119173024D01*
X149758024Y-119210500D01*
X149758026Y-119210500D01*
X149961974Y-119210500D01*
X149961976Y-119210500D01*
X150162456Y-119173024D01*
X150352637Y-119099348D01*
X150526041Y-118991981D01*
X150676764Y-118854579D01*
X150799673Y-118691821D01*
X150890582Y-118509250D01*
X150946397Y-118313083D01*
X150965215Y-118110000D01*
X150946397Y-117906917D01*
X150890582Y-117710750D01*
X150799673Y-117528179D01*
X150759749Y-117475311D01*
X150676765Y-117365421D01*
X150526040Y-117228018D01*
X150526039Y-117228017D01*
X150352648Y-117120658D01*
X150352641Y-117120654D01*
X150352637Y-117120652D01*
X150236133Y-117075518D01*
X150162457Y-117046976D01*
X150075659Y-117030751D01*
X149961976Y-117009500D01*
X149758024Y-117009500D01*
X149657784Y-117028238D01*
X149557542Y-117046976D01*
X149410190Y-117104060D01*
X149367363Y-117120652D01*
X149367362Y-117120652D01*
X149367361Y-117120653D01*
X149367351Y-117120658D01*
X149193960Y-117228017D01*
X149193959Y-117228018D01*
X149043234Y-117365421D01*
X148920329Y-117528175D01*
X148829416Y-117710754D01*
X148773603Y-117906915D01*
X148754785Y-118110000D01*
X133185215Y-118110000D01*
X133166397Y-117906917D01*
X133110582Y-117710750D01*
X133019673Y-117528179D01*
X132979749Y-117475311D01*
X132896765Y-117365421D01*
X132746040Y-117228018D01*
X132746039Y-117228017D01*
X132572648Y-117120658D01*
X132572641Y-117120654D01*
X132572637Y-117120652D01*
X132456133Y-117075518D01*
X132382457Y-117046976D01*
X132295659Y-117030751D01*
X132181976Y-117009500D01*
X131978024Y-117009500D01*
X131877784Y-117028238D01*
X131777542Y-117046976D01*
X131630190Y-117104060D01*
X131587363Y-117120652D01*
X131587362Y-117120652D01*
X131587361Y-117120653D01*
X131587351Y-117120658D01*
X131413960Y-117228017D01*
X131413959Y-117228018D01*
X131263234Y-117365421D01*
X131140329Y-117528175D01*
X131049416Y-117710754D01*
X130993603Y-117906915D01*
X130974785Y-118110000D01*
X126792500Y-118110000D01*
X126792500Y-117243353D01*
X126751669Y-117038080D01*
X126671575Y-116844718D01*
X126555298Y-116670696D01*
X126555296Y-116670694D01*
X126555291Y-116670688D01*
X126407311Y-116522708D01*
X126407305Y-116522703D01*
X126301462Y-116451981D01*
X126233282Y-116406425D01*
X126096559Y-116349792D01*
X126039923Y-116326332D01*
X126039921Y-116326331D01*
X126039920Y-116326331D01*
X125936588Y-116305777D01*
X125834649Y-116285500D01*
X125834647Y-116285500D01*
X125625353Y-116285500D01*
X125625350Y-116285500D01*
X125479172Y-116314577D01*
X125420080Y-116326331D01*
X125420079Y-116326331D01*
X125420076Y-116326332D01*
X125226716Y-116406426D01*
X125052694Y-116522703D01*
X125052688Y-116522708D01*
X124904708Y-116670688D01*
X124904703Y-116670694D01*
X124796525Y-116832596D01*
X124788425Y-116844718D01*
X124771839Y-116884759D01*
X124708332Y-117038076D01*
X124708331Y-117038079D01*
X124708331Y-117038080D01*
X124697915Y-117090441D01*
X124667500Y-117243350D01*
X108424969Y-117243350D01*
X108463669Y-117149920D01*
X108504500Y-116944647D01*
X108504500Y-116735353D01*
X108463669Y-116530080D01*
X108383575Y-116336718D01*
X108267298Y-116162696D01*
X108267296Y-116162694D01*
X108267291Y-116162688D01*
X108119311Y-116014708D01*
X108119305Y-116014703D01*
X108105588Y-116005537D01*
X107945282Y-115898425D01*
X107808559Y-115841792D01*
X107751923Y-115818332D01*
X107751921Y-115818331D01*
X107751920Y-115818331D01*
X107648588Y-115797777D01*
X107546649Y-115777500D01*
X107546647Y-115777500D01*
X105813353Y-115777500D01*
X105813350Y-115777500D01*
X105660441Y-115807915D01*
X105608080Y-115818331D01*
X105608079Y-115818331D01*
X105608076Y-115818332D01*
X105414716Y-115898426D01*
X105240694Y-116014703D01*
X105240688Y-116014708D01*
X105092708Y-116162688D01*
X105092703Y-116162694D01*
X104976426Y-116336716D01*
X104896332Y-116530076D01*
X104896331Y-116530079D01*
X104896331Y-116530080D01*
X104895924Y-116532125D01*
X104855500Y-116735350D01*
X102550000Y-116735350D01*
X102550000Y-114195350D01*
X104855500Y-114195350D01*
X104855500Y-114404649D01*
X104868400Y-114469500D01*
X104896331Y-114609920D01*
X104976425Y-114803282D01*
X105064644Y-114935311D01*
X105092703Y-114977305D01*
X105092708Y-114977311D01*
X105240688Y-115125291D01*
X105240694Y-115125296D01*
X105240696Y-115125298D01*
X105414718Y-115241575D01*
X105608080Y-115321669D01*
X105813353Y-115362500D01*
X105813354Y-115362500D01*
X107546646Y-115362500D01*
X107546647Y-115362500D01*
X107751920Y-115321669D01*
X107945282Y-115241575D01*
X108119304Y-115125298D01*
X108267298Y-114977304D01*
X108383575Y-114803282D01*
X108463669Y-114609920D01*
X108504500Y-114404647D01*
X108504500Y-114195353D01*
X108463669Y-113990080D01*
X108383575Y-113796718D01*
X108267298Y-113622696D01*
X108267296Y-113622694D01*
X108267291Y-113622688D01*
X108119311Y-113474708D01*
X108119305Y-113474703D01*
X108105588Y-113465537D01*
X107945282Y-113358425D01*
X107808559Y-113301792D01*
X107751923Y-113278332D01*
X107751921Y-113278331D01*
X107751920Y-113278331D01*
X107648588Y-113257777D01*
X107546649Y-113237500D01*
X107546647Y-113237500D01*
X105813353Y-113237500D01*
X105813350Y-113237500D01*
X105660441Y-113267915D01*
X105608080Y-113278331D01*
X105608079Y-113278331D01*
X105608076Y-113278332D01*
X105414716Y-113358426D01*
X105240694Y-113474703D01*
X105240688Y-113474708D01*
X105092708Y-113622688D01*
X105092703Y-113622694D01*
X104976426Y-113796716D01*
X104896332Y-113990076D01*
X104896331Y-113990079D01*
X104896331Y-113990080D01*
X104895924Y-113992125D01*
X104855500Y-114195350D01*
X102550000Y-114195350D01*
X102550000Y-111655350D01*
X104855500Y-111655350D01*
X104855500Y-111864649D01*
X104868400Y-111929500D01*
X104896331Y-112069920D01*
X104976425Y-112263282D01*
X105064644Y-112395311D01*
X105092703Y-112437305D01*
X105092708Y-112437311D01*
X105240688Y-112585291D01*
X105240694Y-112585296D01*
X105240696Y-112585298D01*
X105414718Y-112701575D01*
X105608080Y-112781669D01*
X105813353Y-112822500D01*
X105813354Y-112822500D01*
X107546646Y-112822500D01*
X107546647Y-112822500D01*
X107751920Y-112781669D01*
X107945282Y-112701575D01*
X108119304Y-112585298D01*
X108267298Y-112437304D01*
X108383575Y-112263282D01*
X108463669Y-112069920D01*
X108504500Y-111864647D01*
X108504500Y-111655353D01*
X108463669Y-111450080D01*
X108383575Y-111256718D01*
X108267298Y-111082696D01*
X108267296Y-111082694D01*
X108267291Y-111082688D01*
X108119311Y-110934708D01*
X108119305Y-110934703D01*
X108105588Y-110925537D01*
X107945282Y-110818425D01*
X107780246Y-110750064D01*
X107751923Y-110738332D01*
X107751921Y-110738331D01*
X107751920Y-110738331D01*
X107648588Y-110717777D01*
X107546649Y-110697500D01*
X107546647Y-110697500D01*
X105813353Y-110697500D01*
X105813350Y-110697500D01*
X105660441Y-110727915D01*
X105608080Y-110738331D01*
X105608079Y-110738331D01*
X105608076Y-110738332D01*
X105454759Y-110801839D01*
X105415909Y-110817932D01*
X105414716Y-110818426D01*
X105240694Y-110934703D01*
X105240688Y-110934708D01*
X105092708Y-111082688D01*
X105092703Y-111082694D01*
X104976426Y-111256716D01*
X104896332Y-111450076D01*
X104896331Y-111450079D01*
X104896331Y-111450080D01*
X104895924Y-111452125D01*
X104855500Y-111655350D01*
X102550000Y-111655350D01*
X102550000Y-110489998D01*
X122484355Y-110489998D01*
X122484355Y-110490000D01*
X122488581Y-110524802D01*
X122489500Y-110539991D01*
X122489500Y-110558992D01*
X122489501Y-110559004D01*
X122496868Y-110596043D01*
X122498370Y-110605431D01*
X122504860Y-110658873D01*
X122510619Y-110674057D01*
X122516384Y-110694149D01*
X122516417Y-110694319D01*
X122516423Y-110694338D01*
X122538041Y-110746529D01*
X122539443Y-110750061D01*
X122565182Y-110817930D01*
X122609963Y-110882806D01*
X122611032Y-110884381D01*
X122645879Y-110936534D01*
X122649809Y-110941322D01*
X122649416Y-110941644D01*
X122656162Y-110949738D01*
X122661814Y-110957926D01*
X122706792Y-110997773D01*
X122712334Y-111002991D01*
X127823457Y-116114114D01*
X127938189Y-116190775D01*
X128065672Y-116243580D01*
X128201006Y-116270500D01*
X128201007Y-116270500D01*
X131167418Y-116270500D01*
X131235539Y-116290502D01*
X131260536Y-116311618D01*
X131263233Y-116314577D01*
X131413959Y-116451981D01*
X131413960Y-116451982D01*
X131587351Y-116559341D01*
X131587354Y-116559342D01*
X131587363Y-116559348D01*
X131777544Y-116633024D01*
X131978024Y-116670500D01*
X131978026Y-116670500D01*
X132181974Y-116670500D01*
X132181976Y-116670500D01*
X132382456Y-116633024D01*
X132572637Y-116559348D01*
X132746041Y-116451981D01*
X132896764Y-116314579D01*
X133019673Y-116151821D01*
X133110582Y-115969250D01*
X133166397Y-115773083D01*
X133185215Y-115570000D01*
X148754785Y-115570000D01*
X148773603Y-115773084D01*
X148829416Y-115969245D01*
X148829417Y-115969247D01*
X148829418Y-115969250D01*
X148920327Y-116151821D01*
X148920328Y-116151822D01*
X148920329Y-116151824D01*
X149043234Y-116314578D01*
X149193959Y-116451981D01*
X149193960Y-116451982D01*
X149367351Y-116559341D01*
X149367354Y-116559342D01*
X149367363Y-116559348D01*
X149557544Y-116633024D01*
X149758024Y-116670500D01*
X149758026Y-116670500D01*
X149961974Y-116670500D01*
X149961976Y-116670500D01*
X150162456Y-116633024D01*
X150352637Y-116559348D01*
X150526041Y-116451981D01*
X150676764Y-116314579D01*
X150799673Y-116151821D01*
X150890582Y-115969250D01*
X150946397Y-115773083D01*
X150965215Y-115570000D01*
X150946397Y-115366917D01*
X150890582Y-115170750D01*
X150799673Y-114988179D01*
X150759749Y-114935311D01*
X150676765Y-114825421D01*
X150526040Y-114688018D01*
X150526039Y-114688017D01*
X150352648Y-114580658D01*
X150352641Y-114580654D01*
X150352637Y-114580652D01*
X150236133Y-114535518D01*
X150162457Y-114506976D01*
X150075659Y-114490751D01*
X149961976Y-114469500D01*
X149758024Y-114469500D01*
X149657784Y-114488238D01*
X149557542Y-114506976D01*
X149410190Y-114564060D01*
X149367363Y-114580652D01*
X149367362Y-114580652D01*
X149367361Y-114580653D01*
X149367351Y-114580658D01*
X149193960Y-114688017D01*
X149193959Y-114688018D01*
X149043234Y-114825421D01*
X148920329Y-114988175D01*
X148829416Y-115170754D01*
X148773603Y-115366915D01*
X148754785Y-115570000D01*
X133185215Y-115570000D01*
X133166397Y-115366917D01*
X133110582Y-115170750D01*
X133019673Y-114988179D01*
X132979749Y-114935311D01*
X132896765Y-114825421D01*
X132746040Y-114688018D01*
X132746039Y-114688017D01*
X132572648Y-114580658D01*
X132572641Y-114580654D01*
X132572637Y-114580652D01*
X132456133Y-114535518D01*
X132382457Y-114506976D01*
X132295659Y-114490751D01*
X132181976Y-114469500D01*
X131978024Y-114469500D01*
X131877784Y-114488238D01*
X131777542Y-114506976D01*
X131630190Y-114564060D01*
X131587363Y-114580652D01*
X131587362Y-114580652D01*
X131587361Y-114580653D01*
X131587351Y-114580658D01*
X131413960Y-114688017D01*
X131413959Y-114688018D01*
X131263233Y-114825422D01*
X131260536Y-114828382D01*
X131199863Y-114865251D01*
X131167418Y-114869500D01*
X128612347Y-114869500D01*
X128544226Y-114849498D01*
X128523252Y-114832595D01*
X126720657Y-113030000D01*
X130974785Y-113030000D01*
X130993603Y-113233084D01*
X131049416Y-113429245D01*
X131049417Y-113429247D01*
X131049418Y-113429250D01*
X131140327Y-113611821D01*
X131140328Y-113611822D01*
X131140329Y-113611824D01*
X131263234Y-113774578D01*
X131413959Y-113911981D01*
X131413960Y-113911982D01*
X131587351Y-114019341D01*
X131587354Y-114019342D01*
X131587363Y-114019348D01*
X131777544Y-114093024D01*
X131978024Y-114130500D01*
X131978026Y-114130500D01*
X132181974Y-114130500D01*
X132181976Y-114130500D01*
X132382456Y-114093024D01*
X132572637Y-114019348D01*
X132746041Y-113911981D01*
X132896764Y-113774579D01*
X133019673Y-113611821D01*
X133110582Y-113429250D01*
X133166397Y-113233083D01*
X133185215Y-113030000D01*
X148754785Y-113030000D01*
X148773603Y-113233084D01*
X148829416Y-113429245D01*
X148829417Y-113429247D01*
X148829418Y-113429250D01*
X148920327Y-113611821D01*
X148920328Y-113611822D01*
X148920329Y-113611824D01*
X149043234Y-113774578D01*
X149193959Y-113911981D01*
X149193960Y-113911982D01*
X149367351Y-114019341D01*
X149367354Y-114019342D01*
X149367363Y-114019348D01*
X149557544Y-114093024D01*
X149758024Y-114130500D01*
X149758026Y-114130500D01*
X149961974Y-114130500D01*
X149961976Y-114130500D01*
X150162456Y-114093024D01*
X150352637Y-114019348D01*
X150526041Y-113911981D01*
X150676764Y-113774579D01*
X150799673Y-113611821D01*
X150890582Y-113429250D01*
X150946397Y-113233083D01*
X150965215Y-113030000D01*
X150946397Y-112826917D01*
X150890582Y-112630750D01*
X150799673Y-112448179D01*
X150759749Y-112395311D01*
X150676765Y-112285421D01*
X150526040Y-112148018D01*
X150526039Y-112148017D01*
X150352648Y-112040658D01*
X150352641Y-112040654D01*
X150352637Y-112040652D01*
X150236133Y-111995518D01*
X150162457Y-111966976D01*
X150075659Y-111950751D01*
X149961976Y-111929500D01*
X149758024Y-111929500D01*
X149657784Y-111948238D01*
X149557542Y-111966976D01*
X149410190Y-112024060D01*
X149367363Y-112040652D01*
X149367362Y-112040652D01*
X149367361Y-112040653D01*
X149367351Y-112040658D01*
X149193960Y-112148017D01*
X149193959Y-112148018D01*
X149043234Y-112285421D01*
X148920329Y-112448175D01*
X148829416Y-112630754D01*
X148773603Y-112826915D01*
X148754785Y-113030000D01*
X133185215Y-113030000D01*
X133166397Y-112826917D01*
X133110582Y-112630750D01*
X133019673Y-112448179D01*
X132979749Y-112395311D01*
X132896765Y-112285421D01*
X132746040Y-112148018D01*
X132746039Y-112148017D01*
X132572648Y-112040658D01*
X132572641Y-112040654D01*
X132572637Y-112040652D01*
X132456133Y-111995518D01*
X132382457Y-111966976D01*
X132295659Y-111950751D01*
X132181976Y-111929500D01*
X131978024Y-111929500D01*
X131877784Y-111948238D01*
X131777542Y-111966976D01*
X131630190Y-112024060D01*
X131587363Y-112040652D01*
X131587362Y-112040652D01*
X131587361Y-112040653D01*
X131587351Y-112040658D01*
X131413960Y-112148017D01*
X131413959Y-112148018D01*
X131263234Y-112285421D01*
X131140329Y-112448175D01*
X131049416Y-112630754D01*
X130993603Y-112826915D01*
X130974785Y-113030000D01*
X126720657Y-113030000D01*
X124180657Y-110490000D01*
X130974785Y-110490000D01*
X130993603Y-110693084D01*
X131049416Y-110889245D01*
X131049417Y-110889247D01*
X131049418Y-110889250D01*
X131140327Y-111071821D01*
X131140328Y-111071822D01*
X131140329Y-111071824D01*
X131263234Y-111234578D01*
X131413959Y-111371981D01*
X131413960Y-111371982D01*
X131587351Y-111479341D01*
X131587354Y-111479342D01*
X131587363Y-111479348D01*
X131777544Y-111553024D01*
X131978024Y-111590500D01*
X131978026Y-111590500D01*
X132181974Y-111590500D01*
X132181976Y-111590500D01*
X132382456Y-111553024D01*
X132572637Y-111479348D01*
X132746041Y-111371981D01*
X132896764Y-111234579D01*
X133019673Y-111071821D01*
X133110582Y-110889250D01*
X133166397Y-110693083D01*
X133185215Y-110490000D01*
X148754785Y-110490000D01*
X148773603Y-110693084D01*
X148829416Y-110889245D01*
X148829417Y-110889247D01*
X148829418Y-110889250D01*
X148920327Y-111071821D01*
X148920328Y-111071822D01*
X148920329Y-111071824D01*
X149043234Y-111234578D01*
X149193959Y-111371981D01*
X149193960Y-111371982D01*
X149367351Y-111479341D01*
X149367354Y-111479342D01*
X149367363Y-111479348D01*
X149557544Y-111553024D01*
X149758024Y-111590500D01*
X149758026Y-111590500D01*
X149961974Y-111590500D01*
X149961976Y-111590500D01*
X150162456Y-111553024D01*
X150352637Y-111479348D01*
X150526041Y-111371981D01*
X150676764Y-111234579D01*
X150799673Y-111071821D01*
X150890582Y-110889250D01*
X150946397Y-110693083D01*
X150965215Y-110490000D01*
X150946397Y-110286917D01*
X150890582Y-110090750D01*
X150799673Y-109908179D01*
X150785990Y-109890060D01*
X150676765Y-109745421D01*
X150526040Y-109608018D01*
X150526039Y-109608017D01*
X150352648Y-109500658D01*
X150352641Y-109500654D01*
X150352637Y-109500652D01*
X150236133Y-109455518D01*
X150162457Y-109426976D01*
X150075659Y-109410751D01*
X149961976Y-109389500D01*
X149758024Y-109389500D01*
X149657784Y-109408238D01*
X149557542Y-109426976D01*
X149410190Y-109484060D01*
X149367363Y-109500652D01*
X149367362Y-109500652D01*
X149367361Y-109500653D01*
X149367351Y-109500658D01*
X149193960Y-109608017D01*
X149193959Y-109608018D01*
X149043234Y-109745421D01*
X148920329Y-109908175D01*
X148829416Y-110090754D01*
X148773603Y-110286915D01*
X148754785Y-110490000D01*
X133185215Y-110490000D01*
X133166397Y-110286917D01*
X133110582Y-110090750D01*
X133019673Y-109908179D01*
X133005990Y-109890060D01*
X132896765Y-109745421D01*
X132746040Y-109608018D01*
X132746039Y-109608017D01*
X132572648Y-109500658D01*
X132572641Y-109500654D01*
X132572637Y-109500652D01*
X132456133Y-109455518D01*
X132382457Y-109426976D01*
X132295659Y-109410751D01*
X132181976Y-109389500D01*
X131978024Y-109389500D01*
X131877784Y-109408238D01*
X131777542Y-109426976D01*
X131630190Y-109484060D01*
X131587363Y-109500652D01*
X131587362Y-109500652D01*
X131587361Y-109500653D01*
X131587351Y-109500658D01*
X131413960Y-109608017D01*
X131413959Y-109608018D01*
X131263234Y-109745421D01*
X131140329Y-109908175D01*
X131049416Y-110090754D01*
X130993603Y-110286915D01*
X130974785Y-110490000D01*
X124180657Y-110490000D01*
X123738437Y-110047780D01*
X123723836Y-110030261D01*
X123718184Y-110022072D01*
X123718182Y-110022070D01*
X123673195Y-109982215D01*
X123667687Y-109977030D01*
X123636543Y-109945886D01*
X123636542Y-109945885D01*
X123636535Y-109945879D01*
X123625947Y-109938804D01*
X123612403Y-109928357D01*
X123590854Y-109909267D01*
X123590851Y-109909265D01*
X123554267Y-109890064D01*
X123542825Y-109883264D01*
X123521817Y-109869228D01*
X123521815Y-109869226D01*
X123492697Y-109857165D01*
X123482364Y-109852325D01*
X123440225Y-109830209D01*
X123418352Y-109824818D01*
X123400299Y-109818892D01*
X123394336Y-109816422D01*
X123394323Y-109816418D01*
X123345020Y-109806610D01*
X123339455Y-109805371D01*
X123275063Y-109789501D01*
X123275058Y-109789500D01*
X123275056Y-109789500D01*
X123104944Y-109789500D01*
X123104942Y-109789500D01*
X123104934Y-109789501D01*
X123040526Y-109805375D01*
X123034961Y-109806614D01*
X122985673Y-109816419D01*
X122985670Y-109816420D01*
X122979699Y-109818893D01*
X122961651Y-109824817D01*
X122939775Y-109830209D01*
X122897639Y-109852323D01*
X122887312Y-109857160D01*
X122858187Y-109869226D01*
X122858185Y-109869226D01*
X122837177Y-109883263D01*
X122825739Y-109890060D01*
X122789146Y-109909267D01*
X122775809Y-109921082D01*
X122767591Y-109928362D01*
X122754051Y-109938806D01*
X122743457Y-109945884D01*
X122743457Y-109945885D01*
X122712323Y-109977018D01*
X122706786Y-109982230D01*
X122661818Y-110022070D01*
X122661815Y-110022072D01*
X122656156Y-110030271D01*
X122649451Y-110038381D01*
X122649810Y-110038675D01*
X122645885Y-110043457D01*
X122611010Y-110095650D01*
X122609943Y-110097221D01*
X122565181Y-110162070D01*
X122539434Y-110229958D01*
X122538033Y-110233491D01*
X122516420Y-110285671D01*
X122516417Y-110285681D01*
X122516380Y-110285868D01*
X122510621Y-110305931D01*
X122504863Y-110321116D01*
X122504860Y-110321127D01*
X122498370Y-110374570D01*
X122496868Y-110383958D01*
X122489501Y-110420996D01*
X122489500Y-110421008D01*
X122489500Y-110440007D01*
X122488581Y-110455195D01*
X122484355Y-110489998D01*
X102550000Y-110489998D01*
X102550000Y-109115350D01*
X104855500Y-109115350D01*
X104855500Y-109324649D01*
X104868400Y-109389500D01*
X104896331Y-109529920D01*
X104976425Y-109723282D01*
X105087865Y-109890064D01*
X105092703Y-109897305D01*
X105092708Y-109897311D01*
X105240688Y-110045291D01*
X105240694Y-110045296D01*
X105240696Y-110045298D01*
X105414718Y-110161575D01*
X105608080Y-110241669D01*
X105813353Y-110282500D01*
X105813354Y-110282500D01*
X107546646Y-110282500D01*
X107546647Y-110282500D01*
X107751920Y-110241669D01*
X107945282Y-110161575D01*
X108119304Y-110045298D01*
X108267298Y-109897304D01*
X108383575Y-109723282D01*
X108463669Y-109529920D01*
X108504500Y-109324647D01*
X108504500Y-109115353D01*
X108463669Y-108910080D01*
X108383575Y-108716718D01*
X108267298Y-108542696D01*
X108267296Y-108542694D01*
X108267291Y-108542688D01*
X108119311Y-108394708D01*
X108119305Y-108394703D01*
X108105588Y-108385537D01*
X107945282Y-108278425D01*
X107791421Y-108214693D01*
X107751923Y-108198332D01*
X107751921Y-108198331D01*
X107751920Y-108198331D01*
X107648588Y-108177777D01*
X107546649Y-108157500D01*
X107546647Y-108157500D01*
X105813353Y-108157500D01*
X105813350Y-108157500D01*
X105660441Y-108187915D01*
X105608080Y-108198331D01*
X105608079Y-108198331D01*
X105608076Y-108198332D01*
X105414716Y-108278426D01*
X105240694Y-108394703D01*
X105240688Y-108394708D01*
X105092708Y-108542688D01*
X105092703Y-108542694D01*
X104976426Y-108716716D01*
X104896332Y-108910076D01*
X104896331Y-108910079D01*
X104896331Y-108910080D01*
X104895924Y-108912125D01*
X104855500Y-109115350D01*
X102550000Y-109115350D01*
X102550000Y-104140000D01*
X105374532Y-104140000D01*
X105394365Y-104366695D01*
X105453260Y-104586493D01*
X105453262Y-104586498D01*
X105549433Y-104792737D01*
X105679948Y-104979134D01*
X105679957Y-104979144D01*
X105840855Y-105140042D01*
X105840865Y-105140051D01*
X106027262Y-105270566D01*
X106027261Y-105270566D01*
X106100580Y-105304755D01*
X106233504Y-105366739D01*
X106453308Y-105425635D01*
X106680000Y-105445468D01*
X106906692Y-105425635D01*
X107126496Y-105366739D01*
X107332734Y-105270568D01*
X107449992Y-105188464D01*
X107519134Y-105140051D01*
X107519136Y-105140048D01*
X107519139Y-105140047D01*
X107680047Y-104979139D01*
X107690139Y-104964727D01*
X107810566Y-104792737D01*
X107810566Y-104792736D01*
X107810568Y-104792734D01*
X107906739Y-104586496D01*
X107965635Y-104366692D01*
X107985468Y-104140000D01*
X111874532Y-104140000D01*
X111894365Y-104366695D01*
X111953260Y-104586493D01*
X111953262Y-104586498D01*
X112049433Y-104792737D01*
X112179948Y-104979134D01*
X112179957Y-104979144D01*
X112340855Y-105140042D01*
X112340865Y-105140051D01*
X112527262Y-105270566D01*
X112527261Y-105270566D01*
X112600580Y-105304755D01*
X112733504Y-105366739D01*
X112953308Y-105425635D01*
X113180000Y-105445468D01*
X113406692Y-105425635D01*
X113626496Y-105366739D01*
X113832734Y-105270568D01*
X113949992Y-105188464D01*
X114019134Y-105140051D01*
X114019136Y-105140048D01*
X114019139Y-105140047D01*
X114019144Y-105140042D01*
X114084905Y-105074282D01*
X114147217Y-105040256D01*
X114218032Y-105045321D01*
X114274868Y-105087868D01*
X114299679Y-105154388D01*
X114300000Y-105163377D01*
X114300000Y-109220000D01*
X127000000Y-109220000D01*
X127000000Y-107920999D01*
X131017567Y-107920999D01*
X131017567Y-107979000D01*
X131037753Y-108158148D01*
X131050652Y-108214670D01*
X131050659Y-108214693D01*
X131110191Y-108384827D01*
X131110199Y-108384847D01*
X131135366Y-108437105D01*
X131173304Y-108497484D01*
X131173305Y-108497485D01*
X131595842Y-108074948D01*
X131614075Y-108142993D01*
X131679901Y-108257007D01*
X131772993Y-108350099D01*
X131887007Y-108415925D01*
X131955051Y-108434157D01*
X131532514Y-108856694D01*
X131532515Y-108856695D01*
X131592894Y-108894633D01*
X131645152Y-108919800D01*
X131645172Y-108919808D01*
X131815306Y-108979340D01*
X131815329Y-108979347D01*
X131871851Y-108992246D01*
X132051000Y-109012433D01*
X132108999Y-109012433D01*
X132132437Y-109009792D01*
X132146546Y-109009000D01*
X132725663Y-109009000D01*
X132740168Y-109008592D01*
X132740174Y-109008591D01*
X132771341Y-109000551D01*
X132771341Y-109000550D01*
X132204948Y-108434157D01*
X132272993Y-108415925D01*
X132387007Y-108350099D01*
X132480099Y-108257007D01*
X132545925Y-108142993D01*
X132564157Y-108074948D01*
X133130064Y-108640855D01*
X133130065Y-108640855D01*
X133137648Y-108607634D01*
X133140484Y-108593381D01*
X133140484Y-108593379D01*
X133139050Y-108542287D01*
X133139000Y-108538751D01*
X133139000Y-108016546D01*
X133139792Y-108002437D01*
X133142433Y-107979000D01*
X133142433Y-107920998D01*
X148797567Y-107920998D01*
X148797567Y-107979000D01*
X148800208Y-108002437D01*
X148801000Y-108016546D01*
X148801000Y-108486747D01*
X148799740Y-108499537D01*
X148800111Y-108499569D01*
X148799515Y-108506623D01*
X148802350Y-108607628D01*
X148809934Y-108640855D01*
X148809935Y-108640855D01*
X149375842Y-108074948D01*
X149394075Y-108142993D01*
X149459901Y-108257007D01*
X149552993Y-108350099D01*
X149667007Y-108415925D01*
X149735051Y-108434157D01*
X149169193Y-109000015D01*
X149169193Y-109000016D01*
X149214355Y-109008999D01*
X149214356Y-109009000D01*
X149793454Y-109009000D01*
X149807563Y-109009792D01*
X149831001Y-109012433D01*
X149889000Y-109012433D01*
X150068148Y-108992246D01*
X150124670Y-108979347D01*
X150124693Y-108979340D01*
X150294827Y-108919808D01*
X150294847Y-108919800D01*
X150347105Y-108894633D01*
X150407484Y-108856695D01*
X150407485Y-108856694D01*
X149984948Y-108434157D01*
X150052993Y-108415925D01*
X150167007Y-108350099D01*
X150260099Y-108257007D01*
X150325925Y-108142993D01*
X150344157Y-108074948D01*
X150766694Y-108497485D01*
X150766695Y-108497484D01*
X150804633Y-108437105D01*
X150829800Y-108384847D01*
X150829808Y-108384827D01*
X150889340Y-108214693D01*
X150889347Y-108214670D01*
X150902246Y-108158148D01*
X150922433Y-107979000D01*
X150922433Y-107920999D01*
X150902246Y-107741851D01*
X150889347Y-107685329D01*
X150889340Y-107685306D01*
X150829808Y-107515172D01*
X150829800Y-107515152D01*
X150804636Y-107462898D01*
X150766693Y-107402514D01*
X150344157Y-107825050D01*
X150325925Y-107757007D01*
X150260099Y-107642993D01*
X150167007Y-107549901D01*
X150052993Y-107484075D01*
X149984947Y-107465841D01*
X150407484Y-107043304D01*
X150347099Y-107005362D01*
X150294847Y-106980199D01*
X150294827Y-106980191D01*
X150124693Y-106920659D01*
X150124670Y-106920652D01*
X150068148Y-106907753D01*
X149889000Y-106887567D01*
X149831001Y-106887567D01*
X149807563Y-106890208D01*
X149793454Y-106891000D01*
X149214337Y-106891000D01*
X149199832Y-106891407D01*
X149199828Y-106891407D01*
X149168657Y-106899448D01*
X149168657Y-106899449D01*
X149735050Y-107465842D01*
X149667007Y-107484075D01*
X149552993Y-107549901D01*
X149459901Y-107642993D01*
X149394075Y-107757007D01*
X149375841Y-107825052D01*
X148809933Y-107259144D01*
X148809932Y-107259144D01*
X148802351Y-107292361D01*
X148799516Y-107306611D01*
X148799515Y-107306619D01*
X148800950Y-107357712D01*
X148801000Y-107361248D01*
X148801000Y-107883452D01*
X148800208Y-107897560D01*
X148797567Y-107920998D01*
X133142433Y-107920998D01*
X133139792Y-107897560D01*
X133139000Y-107883452D01*
X133139000Y-107413254D01*
X133140259Y-107400466D01*
X133139889Y-107400435D01*
X133140484Y-107393378D01*
X133137649Y-107292368D01*
X133130064Y-107259142D01*
X132564157Y-107825049D01*
X132545925Y-107757007D01*
X132480099Y-107642993D01*
X132387007Y-107549901D01*
X132272993Y-107484075D01*
X132204946Y-107465841D01*
X132770805Y-106899981D01*
X132770806Y-106899981D01*
X132725654Y-106891000D01*
X132146546Y-106891000D01*
X132132437Y-106890208D01*
X132108999Y-106887567D01*
X132051000Y-106887567D01*
X131871851Y-106907753D01*
X131815329Y-106920652D01*
X131815306Y-106920659D01*
X131645172Y-106980191D01*
X131645152Y-106980199D01*
X131592896Y-107005364D01*
X131592891Y-107005367D01*
X131532514Y-107043304D01*
X131532513Y-107043305D01*
X131955050Y-107465842D01*
X131887007Y-107484075D01*
X131772993Y-107549901D01*
X131679901Y-107642993D01*
X131614075Y-107757007D01*
X131595841Y-107825052D01*
X131173304Y-107402515D01*
X131173303Y-107402515D01*
X131135362Y-107462899D01*
X131110199Y-107515152D01*
X131110191Y-107515172D01*
X131050659Y-107685306D01*
X131050652Y-107685329D01*
X131037753Y-107741851D01*
X131017567Y-107920999D01*
X127000000Y-107920999D01*
X127000000Y-105410000D01*
X130974785Y-105410000D01*
X130993603Y-105613084D01*
X131049416Y-105809245D01*
X131049417Y-105809247D01*
X131049418Y-105809250D01*
X131140327Y-105991821D01*
X131140328Y-105991822D01*
X131140329Y-105991824D01*
X131263234Y-106154578D01*
X131413959Y-106291981D01*
X131413960Y-106291982D01*
X131587351Y-106399341D01*
X131587354Y-106399342D01*
X131587363Y-106399348D01*
X131777544Y-106473024D01*
X131978024Y-106510500D01*
X131978026Y-106510500D01*
X132181974Y-106510500D01*
X132181976Y-106510500D01*
X132382456Y-106473024D01*
X132572637Y-106399348D01*
X132746041Y-106291981D01*
X132896764Y-106154579D01*
X133019673Y-105991821D01*
X133110582Y-105809250D01*
X133166397Y-105613083D01*
X133185215Y-105410000D01*
X148754785Y-105410000D01*
X148773603Y-105613084D01*
X148829416Y-105809245D01*
X148829417Y-105809247D01*
X148829418Y-105809250D01*
X148920327Y-105991821D01*
X148920328Y-105991822D01*
X148920329Y-105991824D01*
X149043234Y-106154578D01*
X149193959Y-106291981D01*
X149193960Y-106291982D01*
X149367351Y-106399341D01*
X149367354Y-106399342D01*
X149367363Y-106399348D01*
X149557544Y-106473024D01*
X149758024Y-106510500D01*
X149758026Y-106510500D01*
X149961974Y-106510500D01*
X149961976Y-106510500D01*
X150162456Y-106473024D01*
X150352637Y-106399348D01*
X150526041Y-106291981D01*
X150676764Y-106154579D01*
X150799673Y-105991821D01*
X150890582Y-105809250D01*
X150946397Y-105613083D01*
X150965215Y-105410000D01*
X150946397Y-105206917D01*
X150890582Y-105010750D01*
X150799673Y-104828179D01*
X150799670Y-104828175D01*
X150676765Y-104665421D01*
X150526040Y-104528018D01*
X150526039Y-104528017D01*
X150352648Y-104420658D01*
X150352641Y-104420654D01*
X150352637Y-104420652D01*
X150213357Y-104366695D01*
X150162457Y-104346976D01*
X150075659Y-104330751D01*
X149961976Y-104309500D01*
X149758024Y-104309500D01*
X149657784Y-104328238D01*
X149557542Y-104346976D01*
X149414253Y-104402487D01*
X149367363Y-104420652D01*
X149367362Y-104420652D01*
X149367361Y-104420653D01*
X149367351Y-104420658D01*
X149193960Y-104528017D01*
X149193959Y-104528018D01*
X149043234Y-104665421D01*
X148920329Y-104828175D01*
X148829416Y-105010754D01*
X148773603Y-105206915D01*
X148754785Y-105410000D01*
X133185215Y-105410000D01*
X133166397Y-105206917D01*
X133110582Y-105010750D01*
X133019673Y-104828179D01*
X133019670Y-104828175D01*
X132896765Y-104665421D01*
X132746040Y-104528018D01*
X132746039Y-104528017D01*
X132572648Y-104420658D01*
X132572641Y-104420654D01*
X132572637Y-104420652D01*
X132433357Y-104366695D01*
X132382457Y-104346976D01*
X132295659Y-104330751D01*
X132181976Y-104309500D01*
X131978024Y-104309500D01*
X131877784Y-104328238D01*
X131777542Y-104346976D01*
X131634253Y-104402487D01*
X131587363Y-104420652D01*
X131587362Y-104420652D01*
X131587361Y-104420653D01*
X131587351Y-104420658D01*
X131413960Y-104528017D01*
X131413959Y-104528018D01*
X131263234Y-104665421D01*
X131140329Y-104828175D01*
X131049416Y-105010754D01*
X130993603Y-105206915D01*
X130974785Y-105410000D01*
X127000000Y-105410000D01*
X127000000Y-102870000D01*
X130974785Y-102870000D01*
X130993603Y-103073084D01*
X131049416Y-103269245D01*
X131049417Y-103269247D01*
X131049418Y-103269250D01*
X131140327Y-103451821D01*
X131140328Y-103451822D01*
X131140329Y-103451824D01*
X131263234Y-103614578D01*
X131413959Y-103751981D01*
X131413960Y-103751982D01*
X131587351Y-103859341D01*
X131587354Y-103859342D01*
X131587363Y-103859348D01*
X131777544Y-103933024D01*
X131978024Y-103970500D01*
X131978026Y-103970500D01*
X132181974Y-103970500D01*
X132181976Y-103970500D01*
X132382456Y-103933024D01*
X132572637Y-103859348D01*
X132746041Y-103751981D01*
X132896764Y-103614579D01*
X133019673Y-103451821D01*
X133110582Y-103269250D01*
X133166397Y-103073083D01*
X133185215Y-102870000D01*
X148754785Y-102870000D01*
X148773603Y-103073084D01*
X148829416Y-103269245D01*
X148829417Y-103269247D01*
X148829418Y-103269250D01*
X148920327Y-103451821D01*
X148920328Y-103451822D01*
X148920329Y-103451824D01*
X149043234Y-103614578D01*
X149193959Y-103751981D01*
X149193960Y-103751982D01*
X149367351Y-103859341D01*
X149367354Y-103859342D01*
X149367363Y-103859348D01*
X149557544Y-103933024D01*
X149758024Y-103970500D01*
X149758026Y-103970500D01*
X149961974Y-103970500D01*
X149961976Y-103970500D01*
X150162456Y-103933024D01*
X150352637Y-103859348D01*
X150526041Y-103751981D01*
X150676764Y-103614579D01*
X150799673Y-103451821D01*
X150890582Y-103269250D01*
X150946397Y-103073083D01*
X150965215Y-102870000D01*
X150946397Y-102666917D01*
X150890582Y-102470750D01*
X150799673Y-102288179D01*
X150759752Y-102235315D01*
X150676765Y-102125421D01*
X150526040Y-101988018D01*
X150526039Y-101988017D01*
X150352648Y-101880658D01*
X150352641Y-101880654D01*
X150352637Y-101880652D01*
X150236133Y-101835518D01*
X150162457Y-101806976D01*
X150075659Y-101790751D01*
X149961976Y-101769500D01*
X149758024Y-101769500D01*
X149657784Y-101788238D01*
X149557542Y-101806976D01*
X149414253Y-101862487D01*
X149367363Y-101880652D01*
X149367362Y-101880652D01*
X149367361Y-101880653D01*
X149367351Y-101880658D01*
X149193960Y-101988017D01*
X149193959Y-101988018D01*
X149043234Y-102125421D01*
X148920329Y-102288175D01*
X148829416Y-102470754D01*
X148773603Y-102666915D01*
X148754785Y-102870000D01*
X133185215Y-102870000D01*
X133166397Y-102666917D01*
X133110582Y-102470750D01*
X133019673Y-102288179D01*
X132979752Y-102235315D01*
X132896765Y-102125421D01*
X132746040Y-101988018D01*
X132746039Y-101988017D01*
X132572648Y-101880658D01*
X132572641Y-101880654D01*
X132572637Y-101880652D01*
X132456133Y-101835518D01*
X132382457Y-101806976D01*
X132295659Y-101790751D01*
X132181976Y-101769500D01*
X131978024Y-101769500D01*
X131877784Y-101788238D01*
X131777542Y-101806976D01*
X131634253Y-101862487D01*
X131587363Y-101880652D01*
X131587362Y-101880652D01*
X131587361Y-101880653D01*
X131587351Y-101880658D01*
X131413960Y-101988017D01*
X131413959Y-101988018D01*
X131263234Y-102125421D01*
X131140329Y-102288175D01*
X131049416Y-102470754D01*
X130993603Y-102666915D01*
X130974785Y-102870000D01*
X127000000Y-102870000D01*
X127000000Y-100330000D01*
X130974785Y-100330000D01*
X130993603Y-100533084D01*
X131049416Y-100729245D01*
X131049417Y-100729247D01*
X131049418Y-100729250D01*
X131140327Y-100911821D01*
X131140328Y-100911822D01*
X131140329Y-100911824D01*
X131263234Y-101074578D01*
X131413959Y-101211981D01*
X131413960Y-101211982D01*
X131587351Y-101319341D01*
X131587354Y-101319342D01*
X131587363Y-101319348D01*
X131777544Y-101393024D01*
X131978024Y-101430500D01*
X131978026Y-101430500D01*
X132181974Y-101430500D01*
X132181976Y-101430500D01*
X132382456Y-101393024D01*
X132572637Y-101319348D01*
X132746041Y-101211981D01*
X132896764Y-101074579D01*
X133019673Y-100911821D01*
X133110582Y-100729250D01*
X133166397Y-100533083D01*
X133185215Y-100330000D01*
X133166397Y-100126917D01*
X133110582Y-99930750D01*
X133019673Y-99748179D01*
X132979749Y-99695311D01*
X132896765Y-99585421D01*
X132746040Y-99448018D01*
X132746039Y-99448017D01*
X132572648Y-99340658D01*
X132572641Y-99340654D01*
X132572637Y-99340652D01*
X132439994Y-99289266D01*
X132382457Y-99266976D01*
X132295659Y-99250751D01*
X132181976Y-99229500D01*
X131978024Y-99229500D01*
X131877784Y-99248238D01*
X131777542Y-99266976D01*
X131630190Y-99324060D01*
X131587363Y-99340652D01*
X131587362Y-99340652D01*
X131587361Y-99340653D01*
X131587351Y-99340658D01*
X131413960Y-99448017D01*
X131413959Y-99448018D01*
X131263234Y-99585421D01*
X131140329Y-99748175D01*
X131049416Y-99930754D01*
X130993603Y-100126915D01*
X130974785Y-100330000D01*
X127000000Y-100330000D01*
X127000000Y-97790000D01*
X130974785Y-97790000D01*
X130993603Y-97993084D01*
X131049416Y-98189245D01*
X131049417Y-98189247D01*
X131049418Y-98189250D01*
X131140327Y-98371821D01*
X131140328Y-98371822D01*
X131140329Y-98371824D01*
X131263234Y-98534578D01*
X131413959Y-98671981D01*
X131413960Y-98671982D01*
X131587351Y-98779341D01*
X131587354Y-98779342D01*
X131587363Y-98779348D01*
X131777544Y-98853024D01*
X131978024Y-98890500D01*
X131978026Y-98890500D01*
X132181974Y-98890500D01*
X132181976Y-98890500D01*
X132382456Y-98853024D01*
X132572637Y-98779348D01*
X132746041Y-98671981D01*
X132896764Y-98534579D01*
X133019673Y-98371821D01*
X133110582Y-98189250D01*
X133166397Y-97993083D01*
X133185215Y-97790000D01*
X133166397Y-97586917D01*
X133110582Y-97390750D01*
X133019673Y-97208179D01*
X132979749Y-97155311D01*
X132896765Y-97045421D01*
X132746040Y-96908018D01*
X132746039Y-96908017D01*
X132572648Y-96800658D01*
X132572641Y-96800654D01*
X132572637Y-96800652D01*
X132456133Y-96755518D01*
X132382457Y-96726976D01*
X132295659Y-96710751D01*
X132181976Y-96689500D01*
X131978024Y-96689500D01*
X131877784Y-96708238D01*
X131777542Y-96726976D01*
X131630190Y-96784060D01*
X131587363Y-96800652D01*
X131587362Y-96800652D01*
X131587361Y-96800653D01*
X131587351Y-96800658D01*
X131413960Y-96908017D01*
X131413959Y-96908018D01*
X131263234Y-97045421D01*
X131140329Y-97208175D01*
X131049416Y-97390754D01*
X130993603Y-97586915D01*
X130974785Y-97790000D01*
X127000000Y-97790000D01*
X127000000Y-95220999D01*
X131017567Y-95220999D01*
X131017567Y-95279000D01*
X131037753Y-95458148D01*
X131050652Y-95514670D01*
X131050659Y-95514693D01*
X131110191Y-95684827D01*
X131110199Y-95684847D01*
X131135366Y-95737105D01*
X131173304Y-95797484D01*
X131173305Y-95797485D01*
X131595842Y-95374948D01*
X131614075Y-95442993D01*
X131679901Y-95557007D01*
X131772993Y-95650099D01*
X131887007Y-95715925D01*
X131955051Y-95734157D01*
X131532514Y-96156694D01*
X131532515Y-96156695D01*
X131592894Y-96194633D01*
X131645152Y-96219800D01*
X131645172Y-96219808D01*
X131815306Y-96279340D01*
X131815329Y-96279347D01*
X131871851Y-96292246D01*
X132051000Y-96312433D01*
X132108999Y-96312433D01*
X132132437Y-96309792D01*
X132146546Y-96309000D01*
X132725663Y-96309000D01*
X132740168Y-96308592D01*
X132740174Y-96308591D01*
X132771341Y-96300551D01*
X132771341Y-96300550D01*
X132204948Y-95734157D01*
X132272993Y-95715925D01*
X132387007Y-95650099D01*
X132480099Y-95557007D01*
X132545925Y-95442993D01*
X132564157Y-95374948D01*
X133130064Y-95940855D01*
X133130065Y-95940855D01*
X133137648Y-95907634D01*
X133140484Y-95893381D01*
X133140484Y-95893379D01*
X133139050Y-95842287D01*
X133139000Y-95838751D01*
X133139000Y-95316546D01*
X133139792Y-95302437D01*
X133142433Y-95279000D01*
X133142433Y-95220998D01*
X148797567Y-95220998D01*
X148797567Y-95279000D01*
X148800208Y-95302437D01*
X148801000Y-95316546D01*
X148801000Y-95786747D01*
X148799740Y-95799537D01*
X148800111Y-95799569D01*
X148799515Y-95806623D01*
X148802350Y-95907628D01*
X148809934Y-95940855D01*
X148809935Y-95940855D01*
X149375842Y-95374948D01*
X149394075Y-95442993D01*
X149459901Y-95557007D01*
X149552993Y-95650099D01*
X149667007Y-95715925D01*
X149735051Y-95734157D01*
X149169193Y-96300015D01*
X149169193Y-96300016D01*
X149214355Y-96308999D01*
X149214356Y-96309000D01*
X149793454Y-96309000D01*
X149807563Y-96309792D01*
X149831001Y-96312433D01*
X149889000Y-96312433D01*
X150068148Y-96292246D01*
X150124670Y-96279347D01*
X150124693Y-96279340D01*
X150294827Y-96219808D01*
X150294847Y-96219800D01*
X150347105Y-96194633D01*
X150407484Y-96156695D01*
X150407485Y-96156694D01*
X149984948Y-95734157D01*
X150052993Y-95715925D01*
X150167007Y-95650099D01*
X150260099Y-95557007D01*
X150325925Y-95442993D01*
X150344157Y-95374948D01*
X150766694Y-95797485D01*
X150766695Y-95797484D01*
X150804633Y-95737105D01*
X150829800Y-95684847D01*
X150829808Y-95684827D01*
X150889340Y-95514693D01*
X150889347Y-95514670D01*
X150902246Y-95458148D01*
X150922433Y-95279000D01*
X150922433Y-95220999D01*
X150902246Y-95041851D01*
X150889347Y-94985329D01*
X150889340Y-94985306D01*
X150829808Y-94815172D01*
X150829800Y-94815152D01*
X150804636Y-94762898D01*
X150766693Y-94702514D01*
X150344157Y-95125050D01*
X150325925Y-95057007D01*
X150260099Y-94942993D01*
X150167007Y-94849901D01*
X150052993Y-94784075D01*
X149984947Y-94765841D01*
X150407484Y-94343304D01*
X150347099Y-94305362D01*
X150294847Y-94280199D01*
X150294827Y-94280191D01*
X150124693Y-94220659D01*
X150124670Y-94220652D01*
X150068148Y-94207753D01*
X149889000Y-94187567D01*
X149831001Y-94187567D01*
X149807563Y-94190208D01*
X149793454Y-94191000D01*
X149214337Y-94191000D01*
X149199832Y-94191407D01*
X149199828Y-94191407D01*
X149168657Y-94199448D01*
X149168657Y-94199449D01*
X149735050Y-94765842D01*
X149667007Y-94784075D01*
X149552993Y-94849901D01*
X149459901Y-94942993D01*
X149394075Y-95057007D01*
X149375841Y-95125052D01*
X148809933Y-94559144D01*
X148809932Y-94559144D01*
X148802351Y-94592361D01*
X148799516Y-94606611D01*
X148799515Y-94606619D01*
X148800950Y-94657712D01*
X148801000Y-94661248D01*
X148801000Y-95183452D01*
X148800208Y-95197560D01*
X148797567Y-95220998D01*
X133142433Y-95220998D01*
X133139792Y-95197560D01*
X133139000Y-95183452D01*
X133139000Y-94713254D01*
X133140259Y-94700466D01*
X133139889Y-94700435D01*
X133140484Y-94693378D01*
X133137649Y-94592368D01*
X133130064Y-94559142D01*
X132564157Y-95125049D01*
X132545925Y-95057007D01*
X132480099Y-94942993D01*
X132387007Y-94849901D01*
X132272993Y-94784075D01*
X132204946Y-94765841D01*
X132770805Y-94199981D01*
X132770806Y-94199981D01*
X132725654Y-94191000D01*
X132146546Y-94191000D01*
X132132437Y-94190208D01*
X132108999Y-94187567D01*
X132051000Y-94187567D01*
X131871851Y-94207753D01*
X131815329Y-94220652D01*
X131815306Y-94220659D01*
X131645172Y-94280191D01*
X131645152Y-94280199D01*
X131592896Y-94305364D01*
X131592891Y-94305367D01*
X131532514Y-94343304D01*
X131532513Y-94343305D01*
X131955050Y-94765842D01*
X131887007Y-94784075D01*
X131772993Y-94849901D01*
X131679901Y-94942993D01*
X131614075Y-95057007D01*
X131595841Y-95125052D01*
X131173304Y-94702515D01*
X131173303Y-94702515D01*
X131135362Y-94762899D01*
X131110199Y-94815152D01*
X131110191Y-94815172D01*
X131050659Y-94985306D01*
X131050652Y-94985329D01*
X131037753Y-95041851D01*
X131017567Y-95220999D01*
X127000000Y-95220999D01*
X127000000Y-93980000D01*
X114300000Y-93980000D01*
X114300000Y-98824963D01*
X114296032Y-98824963D01*
X114298588Y-98848850D01*
X114266777Y-98912321D01*
X114263697Y-98915511D01*
X113704982Y-99474226D01*
X113692518Y-99427708D01*
X113620110Y-99302292D01*
X113517708Y-99199890D01*
X113392292Y-99127482D01*
X113345772Y-99115016D01*
X113869115Y-98591672D01*
X113869115Y-98591671D01*
X113809398Y-98549857D01*
X113809399Y-98549857D01*
X113610534Y-98457125D01*
X113610529Y-98457123D01*
X113398590Y-98400334D01*
X113180000Y-98381210D01*
X112961409Y-98400334D01*
X112749470Y-98457123D01*
X112749465Y-98457125D01*
X112550605Y-98549855D01*
X112490882Y-98591673D01*
X113014226Y-99115017D01*
X112967708Y-99127482D01*
X112842292Y-99199890D01*
X112739890Y-99302292D01*
X112667482Y-99427708D01*
X112655017Y-99474226D01*
X112131673Y-98950882D01*
X112089855Y-99010605D01*
X111997125Y-99209465D01*
X111997123Y-99209470D01*
X111940334Y-99421409D01*
X111921210Y-99640000D01*
X111940334Y-99858590D01*
X111997123Y-100070529D01*
X111997125Y-100070534D01*
X112089857Y-100269398D01*
X112131671Y-100329115D01*
X112131672Y-100329115D01*
X112655016Y-99805771D01*
X112667482Y-99852292D01*
X112739890Y-99977708D01*
X112842292Y-100080110D01*
X112967708Y-100152518D01*
X113014226Y-100164982D01*
X112490883Y-100688325D01*
X112490883Y-100688327D01*
X112550600Y-100730141D01*
X112550605Y-100730144D01*
X112749465Y-100822874D01*
X112749470Y-100822876D01*
X112961409Y-100879665D01*
X113180000Y-100898789D01*
X113398590Y-100879665D01*
X113610529Y-100822876D01*
X113610534Y-100822874D01*
X113809391Y-100730145D01*
X113869115Y-100688325D01*
X113869115Y-100688324D01*
X113345773Y-100164982D01*
X113392292Y-100152518D01*
X113517708Y-100080110D01*
X113620110Y-99977708D01*
X113692518Y-99852292D01*
X113704982Y-99805773D01*
X114263697Y-100364488D01*
X114297723Y-100426800D01*
X114295703Y-100455037D01*
X114300000Y-100455037D01*
X114300000Y-103116623D01*
X114279998Y-103184744D01*
X114226342Y-103231237D01*
X114156068Y-103241341D01*
X114091488Y-103211847D01*
X114084905Y-103205718D01*
X114019144Y-103139957D01*
X114019134Y-103139948D01*
X113832737Y-103009433D01*
X113832738Y-103009433D01*
X113626498Y-102913262D01*
X113626493Y-102913260D01*
X113406695Y-102854365D01*
X113180000Y-102834532D01*
X112953304Y-102854365D01*
X112733506Y-102913260D01*
X112733501Y-102913262D01*
X112527262Y-103009433D01*
X112340865Y-103139948D01*
X112340855Y-103139957D01*
X112179957Y-103300855D01*
X112179948Y-103300865D01*
X112049433Y-103487262D01*
X111953262Y-103693501D01*
X111953260Y-103693506D01*
X111894365Y-103913304D01*
X111874532Y-104140000D01*
X107985468Y-104140000D01*
X107965635Y-103913308D01*
X107906739Y-103693504D01*
X107810568Y-103487266D01*
X107810567Y-103487265D01*
X107810566Y-103487262D01*
X107680051Y-103300865D01*
X107680042Y-103300855D01*
X107519144Y-103139957D01*
X107519134Y-103139948D01*
X107332737Y-103009433D01*
X107332738Y-103009433D01*
X107126498Y-102913262D01*
X107126493Y-102913260D01*
X106906695Y-102854365D01*
X106680000Y-102834532D01*
X106453304Y-102854365D01*
X106233506Y-102913260D01*
X106233501Y-102913262D01*
X106027262Y-103009433D01*
X105840865Y-103139948D01*
X105840855Y-103139957D01*
X105679957Y-103300855D01*
X105679948Y-103300865D01*
X105549433Y-103487262D01*
X105453262Y-103693501D01*
X105453260Y-103693506D01*
X105394365Y-103913304D01*
X105374532Y-104140000D01*
X102550000Y-104140000D01*
X102550000Y-99640000D01*
X105421210Y-99640000D01*
X105440334Y-99858590D01*
X105497123Y-100070529D01*
X105497125Y-100070534D01*
X105589857Y-100269398D01*
X105631671Y-100329115D01*
X105631672Y-100329115D01*
X106155016Y-99805771D01*
X106167482Y-99852292D01*
X106239890Y-99977708D01*
X106342292Y-100080110D01*
X106467708Y-100152518D01*
X106514226Y-100164982D01*
X105990883Y-100688325D01*
X105990883Y-100688327D01*
X106050600Y-100730141D01*
X106050605Y-100730144D01*
X106249465Y-100822874D01*
X106249470Y-100822876D01*
X106461409Y-100879665D01*
X106680000Y-100898789D01*
X106898590Y-100879665D01*
X107110529Y-100822876D01*
X107110534Y-100822874D01*
X107309391Y-100730145D01*
X107369115Y-100688325D01*
X107369115Y-100688324D01*
X106845773Y-100164982D01*
X106892292Y-100152518D01*
X107017708Y-100080110D01*
X107120110Y-99977708D01*
X107192518Y-99852292D01*
X107204982Y-99805773D01*
X107728324Y-100329115D01*
X107728325Y-100329115D01*
X107770145Y-100269391D01*
X107862874Y-100070534D01*
X107862876Y-100070529D01*
X107919665Y-99858590D01*
X107938789Y-99640000D01*
X107919665Y-99421409D01*
X107862876Y-99209470D01*
X107862874Y-99209465D01*
X107770144Y-99010605D01*
X107770141Y-99010600D01*
X107728327Y-98950883D01*
X107728325Y-98950883D01*
X107204982Y-99474226D01*
X107192518Y-99427708D01*
X107120110Y-99302292D01*
X107017708Y-99199890D01*
X106892292Y-99127482D01*
X106845772Y-99115016D01*
X107369115Y-98591672D01*
X107369115Y-98591671D01*
X107309398Y-98549857D01*
X107309399Y-98549857D01*
X107110534Y-98457125D01*
X107110529Y-98457123D01*
X106898590Y-98400334D01*
X106680000Y-98381210D01*
X106461409Y-98400334D01*
X106249470Y-98457123D01*
X106249465Y-98457125D01*
X106050605Y-98549855D01*
X105990882Y-98591673D01*
X106514226Y-99115017D01*
X106467708Y-99127482D01*
X106342292Y-99199890D01*
X106239890Y-99302292D01*
X106167482Y-99427708D01*
X106155017Y-99474226D01*
X105631673Y-98950882D01*
X105589855Y-99010605D01*
X105497125Y-99209465D01*
X105497123Y-99209470D01*
X105440334Y-99421409D01*
X105421210Y-99640000D01*
X102550000Y-99640000D01*
X102550000Y-95653350D01*
X110697500Y-95653350D01*
X110697500Y-97386649D01*
X110698492Y-97391635D01*
X110738331Y-97591920D01*
X110818425Y-97785282D01*
X110821578Y-97790000D01*
X110934703Y-97959305D01*
X110934708Y-97959311D01*
X111082688Y-98107291D01*
X111082694Y-98107296D01*
X111082696Y-98107298D01*
X111256718Y-98223575D01*
X111450080Y-98303669D01*
X111655353Y-98344500D01*
X111655354Y-98344500D01*
X111864646Y-98344500D01*
X111864647Y-98344500D01*
X112069920Y-98303669D01*
X112263282Y-98223575D01*
X112437304Y-98107298D01*
X112585298Y-97959304D01*
X112701575Y-97785282D01*
X112781669Y-97591920D01*
X112822500Y-97386647D01*
X112822500Y-95653353D01*
X112781669Y-95448080D01*
X112701575Y-95254718D01*
X112585298Y-95080696D01*
X112585296Y-95080694D01*
X112585291Y-95080688D01*
X112437311Y-94932708D01*
X112437305Y-94932703D01*
X112374578Y-94890790D01*
X112263282Y-94816425D01*
X112102920Y-94750000D01*
X112069923Y-94736332D01*
X112069921Y-94736331D01*
X112069920Y-94736331D01*
X111953903Y-94713254D01*
X111864649Y-94695500D01*
X111864647Y-94695500D01*
X111655353Y-94695500D01*
X111655350Y-94695500D01*
X111502441Y-94725915D01*
X111450080Y-94736331D01*
X111450079Y-94736331D01*
X111450076Y-94736332D01*
X111334817Y-94784075D01*
X111259792Y-94815152D01*
X111256716Y-94816426D01*
X111082694Y-94932703D01*
X111082688Y-94932708D01*
X110934708Y-95080688D01*
X110934703Y-95080694D01*
X110818426Y-95254716D01*
X110738332Y-95448076D01*
X110738331Y-95448079D01*
X110738331Y-95448080D01*
X110733665Y-95471536D01*
X110697500Y-95653350D01*
X102550000Y-95653350D01*
X102550000Y-93875350D01*
X104855500Y-93875350D01*
X104855500Y-94084649D01*
X104862566Y-94120171D01*
X104896331Y-94289920D01*
X104976425Y-94483282D01*
X105064644Y-94615311D01*
X105092703Y-94657305D01*
X105092708Y-94657311D01*
X105240688Y-94805291D01*
X105240694Y-94805296D01*
X105240696Y-94805298D01*
X105414718Y-94921575D01*
X105608080Y-95001669D01*
X105813353Y-95042500D01*
X105813354Y-95042500D01*
X107546646Y-95042500D01*
X107546647Y-95042500D01*
X107751920Y-95001669D01*
X107945282Y-94921575D01*
X108119304Y-94805298D01*
X108267298Y-94657304D01*
X108383575Y-94483282D01*
X108463669Y-94289920D01*
X108504500Y-94084647D01*
X108504500Y-93875353D01*
X108463669Y-93670080D01*
X108383575Y-93476718D01*
X108267298Y-93302696D01*
X108267296Y-93302694D01*
X108267291Y-93302688D01*
X108119311Y-93154708D01*
X108119305Y-93154703D01*
X108105588Y-93145537D01*
X107945282Y-93038425D01*
X107808559Y-92981792D01*
X107751923Y-92958332D01*
X107751921Y-92958331D01*
X107751920Y-92958331D01*
X107648588Y-92937777D01*
X107546649Y-92917500D01*
X107546647Y-92917500D01*
X105813353Y-92917500D01*
X105813350Y-92917500D01*
X105660441Y-92947915D01*
X105608080Y-92958331D01*
X105608079Y-92958331D01*
X105608076Y-92958332D01*
X105414716Y-93038426D01*
X105240694Y-93154703D01*
X105240688Y-93154708D01*
X105092708Y-93302688D01*
X105092703Y-93302694D01*
X104976426Y-93476716D01*
X104896332Y-93670076D01*
X104896331Y-93670079D01*
X104896331Y-93670080D01*
X104895924Y-93672125D01*
X104855500Y-93875350D01*
X102550000Y-93875350D01*
X102550000Y-92710000D01*
X130974785Y-92710000D01*
X130993603Y-92913084D01*
X131049416Y-93109245D01*
X131049417Y-93109247D01*
X131049418Y-93109250D01*
X131140327Y-93291821D01*
X131140328Y-93291822D01*
X131140329Y-93291824D01*
X131263234Y-93454578D01*
X131413959Y-93591981D01*
X131413960Y-93591982D01*
X131587351Y-93699341D01*
X131587354Y-93699342D01*
X131587363Y-93699348D01*
X131777544Y-93773024D01*
X131978024Y-93810500D01*
X131978026Y-93810500D01*
X132181974Y-93810500D01*
X132181976Y-93810500D01*
X132382456Y-93773024D01*
X132572637Y-93699348D01*
X132746041Y-93591981D01*
X132896764Y-93454579D01*
X133019673Y-93291821D01*
X133110582Y-93109250D01*
X133166397Y-92913083D01*
X133185215Y-92710000D01*
X148754785Y-92710000D01*
X148773603Y-92913084D01*
X148829416Y-93109245D01*
X148829417Y-93109247D01*
X148829418Y-93109250D01*
X148920327Y-93291821D01*
X148920328Y-93291822D01*
X148920329Y-93291824D01*
X149043234Y-93454578D01*
X149193959Y-93591981D01*
X149193960Y-93591982D01*
X149367351Y-93699341D01*
X149367354Y-93699342D01*
X149367363Y-93699348D01*
X149557544Y-93773024D01*
X149758024Y-93810500D01*
X149758026Y-93810500D01*
X149961974Y-93810500D01*
X149961976Y-93810500D01*
X150162456Y-93773024D01*
X150352637Y-93699348D01*
X150526041Y-93591981D01*
X150676764Y-93454579D01*
X150799673Y-93291821D01*
X150841741Y-93207335D01*
X150890009Y-93155274D01*
X150954531Y-93137500D01*
X153440734Y-93137500D01*
X153508855Y-93157502D01*
X153529829Y-93174405D01*
X154475595Y-94120171D01*
X154509621Y-94182483D01*
X154512500Y-94209266D01*
X154512500Y-101543719D01*
X154512500Y-101656281D01*
X154541633Y-101765009D01*
X154541634Y-101765011D01*
X154541635Y-101765013D01*
X154597912Y-101862487D01*
X154597920Y-101862497D01*
X155947501Y-103212079D01*
X155947506Y-103212083D01*
X155947508Y-103212085D01*
X156044991Y-103268367D01*
X156153718Y-103297500D01*
X156153719Y-103297500D01*
X156273758Y-103297500D01*
X156341879Y-103317502D01*
X156386547Y-103367335D01*
X156454942Y-103504689D01*
X156454943Y-103504690D01*
X156589017Y-103682235D01*
X156753438Y-103832124D01*
X156753439Y-103832125D01*
X156942587Y-103949240D01*
X156942590Y-103949241D01*
X156942599Y-103949247D01*
X157031568Y-103983714D01*
X157131708Y-104022509D01*
X157188003Y-104065768D01*
X157211973Y-104132596D01*
X157196009Y-104201774D01*
X157145178Y-104251340D01*
X157131708Y-104257491D01*
X156942603Y-104330751D01*
X156942587Y-104330759D01*
X156753439Y-104447874D01*
X156753438Y-104447875D01*
X156589017Y-104597764D01*
X156454943Y-104775309D01*
X156454942Y-104775310D01*
X156454942Y-104775311D01*
X156386547Y-104912664D01*
X156338279Y-104964727D01*
X156273758Y-104982500D01*
X155169267Y-104982500D01*
X155101146Y-104962498D01*
X155080172Y-104945595D01*
X154134405Y-103999828D01*
X154100379Y-103937516D01*
X154097500Y-103910733D01*
X154097500Y-99003720D01*
X154092690Y-98985768D01*
X154068367Y-98894991D01*
X154065774Y-98890500D01*
X154044137Y-98853023D01*
X154012087Y-98797511D01*
X154012079Y-98797501D01*
X152662497Y-97447920D01*
X152662487Y-97447912D01*
X152565013Y-97391635D01*
X152565011Y-97391634D01*
X152565009Y-97391633D01*
X152456281Y-97362500D01*
X152456279Y-97362500D01*
X150954531Y-97362500D01*
X150886410Y-97342498D01*
X150841741Y-97292664D01*
X150799673Y-97208179D01*
X150759749Y-97155311D01*
X150676765Y-97045421D01*
X150526040Y-96908018D01*
X150526039Y-96908017D01*
X150352648Y-96800658D01*
X150352641Y-96800654D01*
X150352637Y-96800652D01*
X150236133Y-96755518D01*
X150162457Y-96726976D01*
X150075659Y-96710751D01*
X149961976Y-96689500D01*
X149758024Y-96689500D01*
X149657784Y-96708238D01*
X149557542Y-96726976D01*
X149410190Y-96784060D01*
X149367363Y-96800652D01*
X149367362Y-96800652D01*
X149367361Y-96800653D01*
X149367351Y-96800658D01*
X149193960Y-96908017D01*
X149193959Y-96908018D01*
X149043234Y-97045421D01*
X148920329Y-97208175D01*
X148829416Y-97390754D01*
X148773603Y-97586915D01*
X148754785Y-97790000D01*
X148773603Y-97993084D01*
X148829416Y-98189245D01*
X148829417Y-98189247D01*
X148829418Y-98189250D01*
X148920327Y-98371821D01*
X148920328Y-98371822D01*
X148920329Y-98371824D01*
X149043234Y-98534578D01*
X149193959Y-98671981D01*
X149193960Y-98671982D01*
X149367351Y-98779341D01*
X149367354Y-98779342D01*
X149367363Y-98779348D01*
X149557544Y-98853024D01*
X149758024Y-98890500D01*
X149758026Y-98890500D01*
X149961974Y-98890500D01*
X149961976Y-98890500D01*
X150162456Y-98853024D01*
X150352637Y-98779348D01*
X150526041Y-98671981D01*
X150676764Y-98534579D01*
X150799673Y-98371821D01*
X150841741Y-98287335D01*
X150890009Y-98235274D01*
X150954531Y-98217500D01*
X152170734Y-98217500D01*
X152238855Y-98237502D01*
X152259829Y-98254405D01*
X153205595Y-99200171D01*
X153239621Y-99262483D01*
X153242500Y-99289266D01*
X153242500Y-104083719D01*
X153242500Y-104196281D01*
X153271633Y-104305009D01*
X153271634Y-104305011D01*
X153271635Y-104305013D01*
X153327912Y-104402487D01*
X153327920Y-104402497D01*
X154677501Y-105752079D01*
X154677506Y-105752083D01*
X154677508Y-105752085D01*
X154774991Y-105808367D01*
X154883718Y-105837500D01*
X154883719Y-105837500D01*
X156273758Y-105837500D01*
X156341879Y-105857502D01*
X156386547Y-105907335D01*
X156454942Y-106044689D01*
X156454943Y-106044690D01*
X156589017Y-106222235D01*
X156753438Y-106372124D01*
X156753439Y-106372125D01*
X156942587Y-106489240D01*
X156942590Y-106489241D01*
X156942599Y-106489247D01*
X157031568Y-106523714D01*
X157131708Y-106562509D01*
X157188003Y-106605768D01*
X157211973Y-106672596D01*
X157196009Y-106741774D01*
X157145178Y-106791340D01*
X157131708Y-106797491D01*
X156942603Y-106870751D01*
X156942587Y-106870759D01*
X156753439Y-106987874D01*
X156753438Y-106987875D01*
X156589017Y-107137764D01*
X156454943Y-107315309D01*
X156454942Y-107315310D01*
X156454942Y-107315311D01*
X156386547Y-107452664D01*
X156338279Y-107504727D01*
X156273758Y-107522500D01*
X153899267Y-107522500D01*
X153831146Y-107502498D01*
X153810172Y-107485595D01*
X152864405Y-106539828D01*
X152830379Y-106477516D01*
X152827500Y-106450733D01*
X152827500Y-102813720D01*
X152827500Y-102813719D01*
X152798367Y-102704991D01*
X152765731Y-102648464D01*
X152758825Y-102636502D01*
X152742087Y-102607511D01*
X152742082Y-102607505D01*
X152369887Y-102235310D01*
X150937011Y-100802435D01*
X150902988Y-100740125D01*
X150904917Y-100678865D01*
X150946397Y-100533083D01*
X150965215Y-100330000D01*
X150946397Y-100126917D01*
X150890582Y-99930750D01*
X150799673Y-99748179D01*
X150759749Y-99695311D01*
X150676765Y-99585421D01*
X150526040Y-99448018D01*
X150526039Y-99448017D01*
X150352648Y-99340658D01*
X150352641Y-99340654D01*
X150352637Y-99340652D01*
X150219994Y-99289266D01*
X150162457Y-99266976D01*
X150075659Y-99250751D01*
X149961976Y-99229500D01*
X149758024Y-99229500D01*
X149657784Y-99248238D01*
X149557542Y-99266976D01*
X149410190Y-99324060D01*
X149367363Y-99340652D01*
X149367362Y-99340652D01*
X149367361Y-99340653D01*
X149367351Y-99340658D01*
X149193960Y-99448017D01*
X149193959Y-99448018D01*
X149043234Y-99585421D01*
X148920329Y-99748175D01*
X148829416Y-99930754D01*
X148773603Y-100126915D01*
X148754785Y-100330000D01*
X148773603Y-100533084D01*
X148829416Y-100729245D01*
X148829417Y-100729247D01*
X148829418Y-100729250D01*
X148920327Y-100911821D01*
X148920328Y-100911822D01*
X148920329Y-100911824D01*
X149043234Y-101074578D01*
X149193959Y-101211981D01*
X149193960Y-101211982D01*
X149367351Y-101319341D01*
X149367354Y-101319342D01*
X149367363Y-101319348D01*
X149557544Y-101393024D01*
X149758024Y-101430500D01*
X149758026Y-101430500D01*
X149961974Y-101430500D01*
X149961976Y-101430500D01*
X150162456Y-101393024D01*
X150198332Y-101379124D01*
X150269078Y-101373167D01*
X150331814Y-101406404D01*
X150332945Y-101407521D01*
X151935595Y-103010171D01*
X151969621Y-103072483D01*
X151972500Y-103099266D01*
X151972500Y-106623719D01*
X151972500Y-106736281D01*
X152001633Y-106845009D01*
X152001634Y-106845011D01*
X152001635Y-106845013D01*
X152057912Y-106942487D01*
X152057920Y-106942497D01*
X153407501Y-108292079D01*
X153407506Y-108292083D01*
X153407508Y-108292085D01*
X153504991Y-108348367D01*
X153613718Y-108377500D01*
X153613719Y-108377500D01*
X156273758Y-108377500D01*
X156341879Y-108397502D01*
X156386547Y-108447335D01*
X156454942Y-108584689D01*
X156461506Y-108593381D01*
X156589017Y-108762235D01*
X156753438Y-108912124D01*
X156753439Y-108912125D01*
X156942587Y-109029240D01*
X156942590Y-109029241D01*
X156942599Y-109029247D01*
X157031568Y-109063714D01*
X157131708Y-109102509D01*
X157188003Y-109145768D01*
X157211973Y-109212596D01*
X157196009Y-109281774D01*
X157145178Y-109331340D01*
X157131708Y-109337491D01*
X156942603Y-109410751D01*
X156942587Y-109410759D01*
X156753439Y-109527874D01*
X156753438Y-109527875D01*
X156589017Y-109677764D01*
X156454942Y-109855310D01*
X156454938Y-109855315D01*
X156355774Y-110054462D01*
X156355768Y-110054479D01*
X156294885Y-110268460D01*
X156274357Y-110490000D01*
X156294885Y-110711539D01*
X156355768Y-110925520D01*
X156355774Y-110925537D01*
X156454938Y-111124684D01*
X156454942Y-111124689D01*
X156589017Y-111302235D01*
X156753438Y-111452124D01*
X156753439Y-111452125D01*
X156942587Y-111569240D01*
X156942590Y-111569241D01*
X156942599Y-111569247D01*
X157031568Y-111603714D01*
X157131708Y-111642509D01*
X157188003Y-111685768D01*
X157211973Y-111752596D01*
X157196009Y-111821774D01*
X157145178Y-111871340D01*
X157131708Y-111877491D01*
X156942603Y-111950751D01*
X156942587Y-111950759D01*
X156753439Y-112067874D01*
X156753438Y-112067875D01*
X156589017Y-112217764D01*
X156454942Y-112395310D01*
X156454938Y-112395315D01*
X156355774Y-112594462D01*
X156355768Y-112594479D01*
X156294885Y-112808460D01*
X156274357Y-113030000D01*
X156294885Y-113251539D01*
X156355768Y-113465520D01*
X156355774Y-113465537D01*
X156454938Y-113664684D01*
X156454942Y-113664689D01*
X156589017Y-113842235D01*
X156753438Y-113992124D01*
X156753439Y-113992125D01*
X156942587Y-114109240D01*
X156942590Y-114109241D01*
X156942599Y-114109247D01*
X157031568Y-114143714D01*
X157131708Y-114182509D01*
X157188003Y-114225768D01*
X157211973Y-114292596D01*
X157196009Y-114361774D01*
X157145178Y-114411340D01*
X157131708Y-114417491D01*
X156942603Y-114490751D01*
X156942587Y-114490759D01*
X156753439Y-114607874D01*
X156753438Y-114607875D01*
X156589017Y-114757764D01*
X156454942Y-114935310D01*
X156454938Y-114935315D01*
X156355774Y-115134462D01*
X156355768Y-115134479D01*
X156294885Y-115348460D01*
X156274357Y-115570000D01*
X156294885Y-115791539D01*
X156355768Y-116005520D01*
X156355774Y-116005537D01*
X156454938Y-116204684D01*
X156454942Y-116204689D01*
X156589017Y-116382235D01*
X156753438Y-116532124D01*
X156753439Y-116532125D01*
X156942587Y-116649240D01*
X156942590Y-116649241D01*
X156942599Y-116649247D01*
X157031568Y-116683714D01*
X157131708Y-116722509D01*
X157188003Y-116765768D01*
X157211973Y-116832596D01*
X157196009Y-116901774D01*
X157145178Y-116951340D01*
X157131708Y-116957491D01*
X156942603Y-117030751D01*
X156942587Y-117030759D01*
X156753439Y-117147874D01*
X156753438Y-117147875D01*
X156589017Y-117297764D01*
X156454942Y-117475310D01*
X156454938Y-117475315D01*
X156355774Y-117674462D01*
X156355768Y-117674479D01*
X156294885Y-117888460D01*
X156274357Y-118110000D01*
X156294885Y-118331539D01*
X156355768Y-118545520D01*
X156355774Y-118545537D01*
X156454938Y-118744684D01*
X156454942Y-118744689D01*
X156589017Y-118922235D01*
X156753438Y-119072124D01*
X156753439Y-119072125D01*
X156942587Y-119189240D01*
X156942590Y-119189241D01*
X156942599Y-119189247D01*
X157031568Y-119223714D01*
X157131708Y-119262509D01*
X157188003Y-119305768D01*
X157211973Y-119372596D01*
X157196009Y-119441774D01*
X157145178Y-119491340D01*
X157131708Y-119497491D01*
X156942603Y-119570751D01*
X156942587Y-119570759D01*
X156753439Y-119687874D01*
X156753438Y-119687875D01*
X156589017Y-119837764D01*
X156454942Y-120015310D01*
X156454938Y-120015315D01*
X156355774Y-120214462D01*
X156355768Y-120214479D01*
X156294885Y-120428460D01*
X156274357Y-120650000D01*
X156294885Y-120871539D01*
X156355768Y-121085520D01*
X156355774Y-121085537D01*
X156454938Y-121284684D01*
X156454942Y-121284689D01*
X156589017Y-121462235D01*
X156753438Y-121612124D01*
X156753439Y-121612125D01*
X156942587Y-121729240D01*
X156942590Y-121729241D01*
X156942599Y-121729247D01*
X157032989Y-121764264D01*
X157150053Y-121809616D01*
X157150056Y-121809616D01*
X157150060Y-121809618D01*
X157368757Y-121850500D01*
X157368760Y-121850500D01*
X157591240Y-121850500D01*
X157591243Y-121850500D01*
X157809940Y-121809618D01*
X157809944Y-121809616D01*
X157809946Y-121809616D01*
X157863298Y-121788946D01*
X158017401Y-121729247D01*
X158206562Y-121612124D01*
X158370981Y-121462236D01*
X158505058Y-121284689D01*
X158505059Y-121284685D01*
X158505061Y-121284684D01*
X158604225Y-121085537D01*
X158604226Y-121085533D01*
X158604229Y-121085528D01*
X158665115Y-120871536D01*
X158685643Y-120650000D01*
X158665115Y-120428464D01*
X158652835Y-120385306D01*
X158604231Y-120214479D01*
X158604225Y-120214462D01*
X158505061Y-120015315D01*
X158505057Y-120015310D01*
X158370982Y-119837764D01*
X158206561Y-119687875D01*
X158206560Y-119687874D01*
X158017412Y-119570759D01*
X158017405Y-119570755D01*
X158017401Y-119570753D01*
X157962053Y-119549311D01*
X157828291Y-119497491D01*
X157771996Y-119454232D01*
X157748026Y-119387404D01*
X157763990Y-119318226D01*
X157814821Y-119268660D01*
X157828291Y-119262509D01*
X157865720Y-119248008D01*
X158017401Y-119189247D01*
X158206562Y-119072124D01*
X158370981Y-118922236D01*
X158505058Y-118744689D01*
X158505059Y-118744685D01*
X158505061Y-118744684D01*
X158604225Y-118545537D01*
X158604226Y-118545533D01*
X158604229Y-118545528D01*
X158665115Y-118331536D01*
X158685643Y-118110000D01*
X158665115Y-117888464D01*
X158634702Y-117781575D01*
X158604231Y-117674479D01*
X158604225Y-117674462D01*
X158505061Y-117475315D01*
X158505057Y-117475310D01*
X158370982Y-117297764D01*
X158206561Y-117147875D01*
X158206560Y-117147874D01*
X158017412Y-117030759D01*
X158017405Y-117030755D01*
X158017401Y-117030753D01*
X157962541Y-117009500D01*
X157828291Y-116957491D01*
X157771996Y-116914232D01*
X157748026Y-116847404D01*
X157763990Y-116778226D01*
X157814821Y-116728660D01*
X157828291Y-116722509D01*
X157865720Y-116708008D01*
X158017401Y-116649247D01*
X158206562Y-116532124D01*
X158370981Y-116382236D01*
X158505058Y-116204689D01*
X158505059Y-116204685D01*
X158505061Y-116204684D01*
X158604225Y-116005537D01*
X158604226Y-116005533D01*
X158604229Y-116005528D01*
X158665115Y-115791536D01*
X158685643Y-115570000D01*
X158665115Y-115348464D01*
X158634702Y-115241575D01*
X158604231Y-115134479D01*
X158604225Y-115134462D01*
X158505061Y-114935315D01*
X158505057Y-114935310D01*
X158370982Y-114757764D01*
X158206561Y-114607875D01*
X158206560Y-114607874D01*
X158017412Y-114490759D01*
X158017405Y-114490755D01*
X158017401Y-114490753D01*
X157962541Y-114469500D01*
X157828291Y-114417491D01*
X157771996Y-114374232D01*
X157748026Y-114307404D01*
X157763990Y-114238226D01*
X157814821Y-114188660D01*
X157828291Y-114182509D01*
X157865720Y-114168008D01*
X158017401Y-114109247D01*
X158206562Y-113992124D01*
X158370981Y-113842236D01*
X158505058Y-113664689D01*
X158505059Y-113664685D01*
X158505061Y-113664684D01*
X158604225Y-113465537D01*
X158604226Y-113465533D01*
X158604229Y-113465528D01*
X158665115Y-113251536D01*
X158685643Y-113030000D01*
X158665115Y-112808464D01*
X158634702Y-112701575D01*
X158604231Y-112594479D01*
X158604225Y-112594462D01*
X158505061Y-112395315D01*
X158505057Y-112395310D01*
X158370982Y-112217764D01*
X158206561Y-112067875D01*
X158206560Y-112067874D01*
X158017412Y-111950759D01*
X158017405Y-111950755D01*
X158017401Y-111950753D01*
X157962541Y-111929500D01*
X157828291Y-111877491D01*
X157771996Y-111834232D01*
X157748026Y-111767404D01*
X157763990Y-111698226D01*
X157814821Y-111648660D01*
X157828291Y-111642509D01*
X157865720Y-111628008D01*
X158017401Y-111569247D01*
X158206562Y-111452124D01*
X158370981Y-111302236D01*
X158505058Y-111124689D01*
X158505059Y-111124685D01*
X158505061Y-111124684D01*
X158604225Y-110925537D01*
X158604226Y-110925533D01*
X158604229Y-110925528D01*
X158665115Y-110711536D01*
X158685643Y-110490000D01*
X158665115Y-110268464D01*
X158654660Y-110231720D01*
X158604231Y-110054479D01*
X158604225Y-110054462D01*
X158505061Y-109855315D01*
X158505057Y-109855310D01*
X158504806Y-109854978D01*
X158455360Y-109789500D01*
X158370982Y-109677764D01*
X158206561Y-109527875D01*
X158206560Y-109527874D01*
X158017412Y-109410759D01*
X158017405Y-109410755D01*
X158017401Y-109410753D01*
X157962541Y-109389500D01*
X157828291Y-109337491D01*
X157771996Y-109294232D01*
X157748026Y-109227404D01*
X157763990Y-109158226D01*
X157814821Y-109108660D01*
X157828291Y-109102509D01*
X157865720Y-109088008D01*
X158017401Y-109029247D01*
X158206562Y-108912124D01*
X158370981Y-108762236D01*
X158505058Y-108584689D01*
X158505059Y-108584685D01*
X158505061Y-108584684D01*
X158604225Y-108385537D01*
X158604226Y-108385533D01*
X158604229Y-108385528D01*
X158665115Y-108171536D01*
X158685643Y-107950000D01*
X158665115Y-107728464D01*
X158652835Y-107685306D01*
X158604231Y-107514479D01*
X158604225Y-107514462D01*
X158505061Y-107315315D01*
X158505057Y-107315310D01*
X158370982Y-107137764D01*
X158206561Y-106987875D01*
X158206560Y-106987874D01*
X158017412Y-106870759D01*
X158017405Y-106870755D01*
X158017401Y-106870753D01*
X157950959Y-106845013D01*
X157828291Y-106797491D01*
X157771996Y-106754232D01*
X157748026Y-106687404D01*
X157763990Y-106618226D01*
X157814821Y-106568660D01*
X157828291Y-106562509D01*
X157865720Y-106548008D01*
X158017401Y-106489247D01*
X158206562Y-106372124D01*
X158370981Y-106222236D01*
X158505058Y-106044689D01*
X158505059Y-106044685D01*
X158505061Y-106044684D01*
X158604225Y-105845537D01*
X158604226Y-105845533D01*
X158604229Y-105845528D01*
X158665115Y-105631536D01*
X158685643Y-105410000D01*
X158665115Y-105188464D01*
X158604229Y-104974472D01*
X158604227Y-104974468D01*
X158604225Y-104974462D01*
X158505061Y-104775315D01*
X158505057Y-104775310D01*
X158370982Y-104597764D01*
X158206561Y-104447875D01*
X158206560Y-104447874D01*
X158017412Y-104330759D01*
X158017405Y-104330755D01*
X158017401Y-104330753D01*
X157950959Y-104305013D01*
X157828291Y-104257491D01*
X157771996Y-104214232D01*
X157748026Y-104147404D01*
X157763990Y-104078226D01*
X157814821Y-104028660D01*
X157828291Y-104022509D01*
X157865720Y-104008008D01*
X158017401Y-103949247D01*
X158206562Y-103832124D01*
X158370981Y-103682236D01*
X158505058Y-103504689D01*
X158505059Y-103504685D01*
X158505061Y-103504684D01*
X158604225Y-103305537D01*
X158604226Y-103305533D01*
X158604229Y-103305528D01*
X158665115Y-103091536D01*
X158685643Y-102870000D01*
X158665115Y-102648464D01*
X158604229Y-102434472D01*
X158604227Y-102434468D01*
X158604225Y-102434462D01*
X158505061Y-102235315D01*
X158505057Y-102235310D01*
X158370982Y-102057764D01*
X158206561Y-101907875D01*
X158206560Y-101907874D01*
X158017412Y-101790759D01*
X158017405Y-101790755D01*
X158017401Y-101790753D01*
X157950959Y-101765013D01*
X157828291Y-101717491D01*
X157771996Y-101674232D01*
X157748026Y-101607404D01*
X157763990Y-101538226D01*
X157814821Y-101488660D01*
X157828291Y-101482509D01*
X157865720Y-101468008D01*
X158017401Y-101409247D01*
X158206562Y-101292124D01*
X158370981Y-101142236D01*
X158505058Y-100964689D01*
X158505059Y-100964685D01*
X158505061Y-100964684D01*
X158604225Y-100765537D01*
X158604226Y-100765533D01*
X158604229Y-100765528D01*
X158665115Y-100551536D01*
X158685643Y-100330000D01*
X158665115Y-100108464D01*
X158604229Y-99894472D01*
X158604227Y-99894468D01*
X158604225Y-99894462D01*
X158505061Y-99695315D01*
X158505057Y-99695310D01*
X158370982Y-99517764D01*
X158206561Y-99367875D01*
X158206560Y-99367874D01*
X158017412Y-99250759D01*
X158017405Y-99250755D01*
X158017401Y-99250753D01*
X157910825Y-99209465D01*
X157828291Y-99177491D01*
X157771996Y-99134232D01*
X157748026Y-99067404D01*
X157763990Y-98998226D01*
X157814821Y-98948660D01*
X157828291Y-98942509D01*
X157906214Y-98912321D01*
X158017401Y-98869247D01*
X158206562Y-98752124D01*
X158370981Y-98602236D01*
X158505058Y-98424689D01*
X158505059Y-98424685D01*
X158505061Y-98424684D01*
X158604225Y-98225537D01*
X158604226Y-98225533D01*
X158604229Y-98225528D01*
X158665115Y-98011536D01*
X158685643Y-97790000D01*
X158665115Y-97568464D01*
X158604229Y-97354472D01*
X158604227Y-97354468D01*
X158604225Y-97354462D01*
X158505061Y-97155315D01*
X158505057Y-97155310D01*
X158370982Y-96977764D01*
X158206561Y-96827875D01*
X158206560Y-96827874D01*
X158017412Y-96710759D01*
X158017405Y-96710755D01*
X158017401Y-96710753D01*
X157962541Y-96689500D01*
X157828291Y-96637491D01*
X157771996Y-96594232D01*
X157748026Y-96527404D01*
X157763990Y-96458226D01*
X157814821Y-96408660D01*
X157828291Y-96402509D01*
X157865720Y-96388008D01*
X158017401Y-96329247D01*
X158206562Y-96212124D01*
X158370981Y-96062236D01*
X158505058Y-95884689D01*
X158505059Y-95884685D01*
X158505061Y-95884684D01*
X158604225Y-95685537D01*
X158604226Y-95685533D01*
X158604229Y-95685528D01*
X158665115Y-95471536D01*
X158685643Y-95250000D01*
X158665115Y-95028464D01*
X158652835Y-94985306D01*
X158604231Y-94814479D01*
X158604225Y-94814462D01*
X158505061Y-94615315D01*
X158505057Y-94615310D01*
X158370982Y-94437764D01*
X158206561Y-94287875D01*
X158206560Y-94287874D01*
X158017412Y-94170759D01*
X158017405Y-94170755D01*
X158017401Y-94170753D01*
X157982097Y-94157076D01*
X157828291Y-94097491D01*
X157771996Y-94054232D01*
X157748026Y-93987404D01*
X157763990Y-93918226D01*
X157814821Y-93868660D01*
X157828291Y-93862509D01*
X157865720Y-93848008D01*
X158017401Y-93789247D01*
X158206562Y-93672124D01*
X158370981Y-93522236D01*
X158505058Y-93344689D01*
X158505059Y-93344685D01*
X158505061Y-93344684D01*
X158604225Y-93145537D01*
X158604226Y-93145533D01*
X158604229Y-93145528D01*
X158665115Y-92931536D01*
X158685643Y-92710000D01*
X158665115Y-92488464D01*
X158634702Y-92381575D01*
X158604231Y-92274479D01*
X158604225Y-92274462D01*
X158505061Y-92075315D01*
X158505057Y-92075310D01*
X158370982Y-91897764D01*
X158206561Y-91747875D01*
X158206560Y-91747874D01*
X158017412Y-91630759D01*
X158017405Y-91630755D01*
X158017401Y-91630753D01*
X157962541Y-91609500D01*
X157828291Y-91557491D01*
X157771996Y-91514232D01*
X157748026Y-91447404D01*
X157763990Y-91378226D01*
X157814821Y-91328660D01*
X157828291Y-91322509D01*
X157865720Y-91308008D01*
X158017401Y-91249247D01*
X158206562Y-91132124D01*
X158370981Y-90982236D01*
X158505058Y-90804689D01*
X158505059Y-90804685D01*
X158505061Y-90804684D01*
X158604225Y-90605537D01*
X158604226Y-90605533D01*
X158604229Y-90605528D01*
X158665115Y-90391536D01*
X158685643Y-90170000D01*
X158665115Y-89948464D01*
X158634702Y-89841575D01*
X158604231Y-89734479D01*
X158604225Y-89734462D01*
X158505061Y-89535315D01*
X158505057Y-89535310D01*
X158370982Y-89357764D01*
X158206561Y-89207875D01*
X158206560Y-89207874D01*
X158017412Y-89090759D01*
X158017405Y-89090755D01*
X158017401Y-89090753D01*
X157962541Y-89069500D01*
X157828291Y-89017491D01*
X157771996Y-88974232D01*
X157748026Y-88907404D01*
X157763990Y-88838226D01*
X157814821Y-88788660D01*
X157828291Y-88782509D01*
X157865720Y-88768008D01*
X158017401Y-88709247D01*
X158206562Y-88592124D01*
X158370981Y-88442236D01*
X158505058Y-88264689D01*
X158505059Y-88264685D01*
X158505061Y-88264684D01*
X158604225Y-88065537D01*
X158604226Y-88065533D01*
X158604229Y-88065528D01*
X158665115Y-87851536D01*
X158685643Y-87630000D01*
X158665115Y-87408464D01*
X158634702Y-87301575D01*
X158604231Y-87194479D01*
X158604225Y-87194462D01*
X158505061Y-86995315D01*
X158505057Y-86995310D01*
X158370982Y-86817764D01*
X158206561Y-86667875D01*
X158206560Y-86667874D01*
X158017412Y-86550759D01*
X158017405Y-86550755D01*
X158017401Y-86550753D01*
X157962541Y-86529500D01*
X157809944Y-86470383D01*
X157809937Y-86470381D01*
X157755481Y-86460201D01*
X157692195Y-86428022D01*
X157656354Y-86366737D01*
X157659335Y-86295803D01*
X157700193Y-86237741D01*
X157755483Y-86212492D01*
X157797159Y-86204701D01*
X157996585Y-86127443D01*
X157996589Y-86127441D01*
X158096418Y-86065629D01*
X158096419Y-86065628D01*
X157564124Y-85533333D01*
X157653694Y-85509333D01*
X157756306Y-85450090D01*
X157840090Y-85366306D01*
X157899333Y-85263694D01*
X157923333Y-85174122D01*
X158458453Y-85709242D01*
X158465352Y-85700106D01*
X158560682Y-85508659D01*
X158560685Y-85508651D01*
X158619210Y-85302958D01*
X158638943Y-85090000D01*
X158619210Y-84877041D01*
X158560685Y-84671348D01*
X158560679Y-84671332D01*
X158465357Y-84479900D01*
X158465351Y-84479892D01*
X158458452Y-84470755D01*
X157923333Y-85005875D01*
X157899333Y-84916306D01*
X157840090Y-84813694D01*
X157756306Y-84729910D01*
X157653694Y-84670667D01*
X157564123Y-84646666D01*
X158096418Y-84114370D01*
X157996591Y-84052559D01*
X157996581Y-84052554D01*
X157845410Y-83993990D01*
X157789115Y-83950731D01*
X157765145Y-83883903D01*
X157781109Y-83814725D01*
X157831940Y-83765159D01*
X157890925Y-83750499D01*
X158424864Y-83750499D01*
X158449991Y-83747585D01*
X158552765Y-83702206D01*
X158632206Y-83622765D01*
X158677585Y-83519991D01*
X158680500Y-83494865D01*
X158680499Y-81605136D01*
X158677585Y-81580009D01*
X158651380Y-81520659D01*
X158632206Y-81477234D01*
X158552767Y-81397795D01*
X158552765Y-81397794D01*
X158449989Y-81352414D01*
X158449990Y-81352414D01*
X158424868Y-81349500D01*
X156535140Y-81349500D01*
X156535133Y-81349501D01*
X156510009Y-81352414D01*
X156510005Y-81352416D01*
X156407234Y-81397793D01*
X156327795Y-81477232D01*
X156327794Y-81477234D01*
X156282414Y-81580009D01*
X156279500Y-81605129D01*
X156279500Y-83494859D01*
X156279501Y-83494866D01*
X156282414Y-83519990D01*
X156282416Y-83519994D01*
X156327793Y-83622765D01*
X156407232Y-83702204D01*
X156407234Y-83702205D01*
X156407235Y-83702206D01*
X156510009Y-83747585D01*
X156535135Y-83750500D01*
X157069073Y-83750499D01*
X157137192Y-83770501D01*
X157183685Y-83824156D01*
X157193789Y-83894430D01*
X157164296Y-83959011D01*
X157114588Y-83993990D01*
X156963420Y-84052553D01*
X156963413Y-84052556D01*
X156863579Y-84114370D01*
X157395875Y-84646666D01*
X157306306Y-84670667D01*
X157203694Y-84729910D01*
X157119910Y-84813694D01*
X157060667Y-84916306D01*
X157036666Y-85005875D01*
X156501546Y-84470755D01*
X156494643Y-84479898D01*
X156399320Y-84671332D01*
X156399314Y-84671348D01*
X156340789Y-84877041D01*
X156321056Y-85090000D01*
X156340789Y-85302958D01*
X156399314Y-85508651D01*
X156399317Y-85508659D01*
X156494645Y-85700103D01*
X156501546Y-85709242D01*
X157036666Y-85174122D01*
X157060667Y-85263694D01*
X157119910Y-85366306D01*
X157203694Y-85450090D01*
X157306306Y-85509333D01*
X157395876Y-85533333D01*
X156863580Y-86065628D01*
X156963408Y-86127440D01*
X156963418Y-86127445D01*
X157162836Y-86204700D01*
X157204517Y-86212492D01*
X157267802Y-86244670D01*
X157303645Y-86305955D01*
X157300664Y-86376889D01*
X157259807Y-86434951D01*
X157204519Y-86460201D01*
X157150061Y-86470381D01*
X157150055Y-86470383D01*
X156942603Y-86550751D01*
X156942587Y-86550759D01*
X156753439Y-86667874D01*
X156753438Y-86667875D01*
X156589017Y-86817764D01*
X156454942Y-86995310D01*
X156454938Y-86995315D01*
X156355774Y-87194462D01*
X156355768Y-87194479D01*
X156294885Y-87408460D01*
X156274357Y-87630000D01*
X156294885Y-87851539D01*
X156355768Y-88065520D01*
X156355774Y-88065537D01*
X156454938Y-88264684D01*
X156454942Y-88264689D01*
X156589017Y-88442235D01*
X156753438Y-88592124D01*
X156753439Y-88592125D01*
X156942587Y-88709240D01*
X156942590Y-88709241D01*
X156942599Y-88709247D01*
X157031568Y-88743714D01*
X157131708Y-88782509D01*
X157188003Y-88825768D01*
X157211973Y-88892596D01*
X157196009Y-88961774D01*
X157145178Y-89011340D01*
X157131708Y-89017491D01*
X156942603Y-89090751D01*
X156942587Y-89090759D01*
X156753439Y-89207874D01*
X156753438Y-89207875D01*
X156589017Y-89357764D01*
X156454942Y-89535310D01*
X156454938Y-89535315D01*
X156355774Y-89734462D01*
X156355768Y-89734479D01*
X156294885Y-89948460D01*
X156274357Y-90170000D01*
X156294885Y-90391539D01*
X156355768Y-90605520D01*
X156355774Y-90605537D01*
X156454938Y-90804684D01*
X156454942Y-90804689D01*
X156589017Y-90982235D01*
X156753438Y-91132124D01*
X156753439Y-91132125D01*
X156942587Y-91249240D01*
X156942590Y-91249241D01*
X156942599Y-91249247D01*
X157031568Y-91283714D01*
X157131708Y-91322509D01*
X157188003Y-91365768D01*
X157211973Y-91432596D01*
X157196009Y-91501774D01*
X157145178Y-91551340D01*
X157131708Y-91557491D01*
X156942603Y-91630751D01*
X156942587Y-91630759D01*
X156753439Y-91747874D01*
X156753438Y-91747875D01*
X156589017Y-91897764D01*
X156454942Y-92075310D01*
X156454938Y-92075315D01*
X156355774Y-92274462D01*
X156355768Y-92274479D01*
X156294885Y-92488460D01*
X156274357Y-92710000D01*
X156294885Y-92931539D01*
X156355768Y-93145520D01*
X156355774Y-93145537D01*
X156454938Y-93344684D01*
X156454942Y-93344689D01*
X156589017Y-93522235D01*
X156753438Y-93672124D01*
X156753439Y-93672125D01*
X156942587Y-93789240D01*
X156942590Y-93789241D01*
X156942599Y-93789247D01*
X156997470Y-93810504D01*
X157131708Y-93862509D01*
X157188003Y-93905768D01*
X157211973Y-93972596D01*
X157196009Y-94041774D01*
X157145178Y-94091340D01*
X157131708Y-94097491D01*
X156942603Y-94170751D01*
X156942587Y-94170759D01*
X156753439Y-94287874D01*
X156753438Y-94287875D01*
X156589017Y-94437764D01*
X156454942Y-94615310D01*
X156454938Y-94615315D01*
X156355774Y-94814462D01*
X156355768Y-94814479D01*
X156294885Y-95028460D01*
X156274357Y-95250000D01*
X156294885Y-95471539D01*
X156355768Y-95685520D01*
X156355774Y-95685537D01*
X156454938Y-95884684D01*
X156454942Y-95884689D01*
X156589017Y-96062235D01*
X156753438Y-96212124D01*
X156753439Y-96212125D01*
X156942587Y-96329240D01*
X156942590Y-96329241D01*
X156942599Y-96329247D01*
X157031568Y-96363714D01*
X157131708Y-96402509D01*
X157188003Y-96445768D01*
X157211973Y-96512596D01*
X157196009Y-96581774D01*
X157145178Y-96631340D01*
X157131708Y-96637491D01*
X156942603Y-96710751D01*
X156942587Y-96710759D01*
X156753439Y-96827874D01*
X156753438Y-96827875D01*
X156589017Y-96977764D01*
X156454942Y-97155310D01*
X156454938Y-97155315D01*
X156355774Y-97354462D01*
X156355768Y-97354479D01*
X156294885Y-97568460D01*
X156274357Y-97790000D01*
X156294885Y-98011539D01*
X156355768Y-98225520D01*
X156355774Y-98225537D01*
X156454938Y-98424684D01*
X156454942Y-98424689D01*
X156589017Y-98602235D01*
X156753438Y-98752124D01*
X156753439Y-98752125D01*
X156942587Y-98869240D01*
X156942590Y-98869241D01*
X156942599Y-98869247D01*
X156997470Y-98890504D01*
X157131708Y-98942509D01*
X157188003Y-98985768D01*
X157211973Y-99052596D01*
X157196009Y-99121774D01*
X157145178Y-99171340D01*
X157131708Y-99177491D01*
X156942603Y-99250751D01*
X156942587Y-99250759D01*
X156753439Y-99367874D01*
X156753438Y-99367875D01*
X156589017Y-99517764D01*
X156454942Y-99695310D01*
X156454938Y-99695315D01*
X156355774Y-99894462D01*
X156355768Y-99894479D01*
X156294885Y-100108460D01*
X156274357Y-100330000D01*
X156294885Y-100551539D01*
X156355768Y-100765520D01*
X156355774Y-100765537D01*
X156454938Y-100964684D01*
X156454942Y-100964689D01*
X156589017Y-101142235D01*
X156753438Y-101292124D01*
X156753439Y-101292125D01*
X156942587Y-101409240D01*
X156942590Y-101409241D01*
X156942599Y-101409247D01*
X157031568Y-101443714D01*
X157131708Y-101482509D01*
X157188003Y-101525768D01*
X157211973Y-101592596D01*
X157196009Y-101661774D01*
X157145178Y-101711340D01*
X157131708Y-101717491D01*
X156942603Y-101790751D01*
X156942587Y-101790759D01*
X156753439Y-101907874D01*
X156753438Y-101907875D01*
X156589017Y-102057764D01*
X156454942Y-102235310D01*
X156454940Y-102235313D01*
X156441564Y-102262175D01*
X156393294Y-102314237D01*
X156324539Y-102331938D01*
X156257129Y-102309657D01*
X156239685Y-102295109D01*
X155404402Y-101459825D01*
X155370379Y-101397516D01*
X155367500Y-101370733D01*
X155367500Y-93923720D01*
X155362690Y-93905768D01*
X155338367Y-93814991D01*
X155335774Y-93810500D01*
X155282085Y-93717508D01*
X155282083Y-93717506D01*
X155282079Y-93717501D01*
X153932497Y-92367920D01*
X153932487Y-92367912D01*
X153835013Y-92311635D01*
X153835011Y-92311634D01*
X153835009Y-92311633D01*
X153726281Y-92282500D01*
X153726279Y-92282500D01*
X150954531Y-92282500D01*
X150886410Y-92262498D01*
X150841741Y-92212664D01*
X150799673Y-92128179D01*
X150759749Y-92075311D01*
X150676765Y-91965421D01*
X150526040Y-91828018D01*
X150526039Y-91828017D01*
X150352648Y-91720658D01*
X150352641Y-91720654D01*
X150352637Y-91720652D01*
X150236133Y-91675518D01*
X150162457Y-91646976D01*
X150075659Y-91630751D01*
X149961976Y-91609500D01*
X149758024Y-91609500D01*
X149657784Y-91628238D01*
X149557542Y-91646976D01*
X149410190Y-91704060D01*
X149367363Y-91720652D01*
X149367362Y-91720652D01*
X149367361Y-91720653D01*
X149367351Y-91720658D01*
X149193960Y-91828017D01*
X149193959Y-91828018D01*
X149043234Y-91965421D01*
X148920329Y-92128175D01*
X148829416Y-92310754D01*
X148773603Y-92506915D01*
X148754785Y-92710000D01*
X133185215Y-92710000D01*
X133166397Y-92506917D01*
X133110582Y-92310750D01*
X133019673Y-92128179D01*
X132979749Y-92075311D01*
X132896765Y-91965421D01*
X132746040Y-91828018D01*
X132746039Y-91828017D01*
X132572648Y-91720658D01*
X132572641Y-91720654D01*
X132572637Y-91720652D01*
X132456133Y-91675518D01*
X132382457Y-91646976D01*
X132295659Y-91630751D01*
X132181976Y-91609500D01*
X131978024Y-91609500D01*
X131877784Y-91628238D01*
X131777542Y-91646976D01*
X131630190Y-91704060D01*
X131587363Y-91720652D01*
X131587362Y-91720652D01*
X131587361Y-91720653D01*
X131587351Y-91720658D01*
X131413960Y-91828017D01*
X131413959Y-91828018D01*
X131263234Y-91965421D01*
X131140329Y-92128175D01*
X131049416Y-92310754D01*
X130993603Y-92506915D01*
X130974785Y-92710000D01*
X102550000Y-92710000D01*
X102550000Y-91335350D01*
X104855500Y-91335350D01*
X104855500Y-91544649D01*
X104868400Y-91609500D01*
X104896331Y-91749920D01*
X104976425Y-91943282D01*
X105064644Y-92075311D01*
X105092703Y-92117305D01*
X105092708Y-92117311D01*
X105240688Y-92265291D01*
X105240694Y-92265296D01*
X105240696Y-92265298D01*
X105414718Y-92381575D01*
X105608080Y-92461669D01*
X105813353Y-92502500D01*
X105813354Y-92502500D01*
X107546646Y-92502500D01*
X107546647Y-92502500D01*
X107751920Y-92461669D01*
X107945282Y-92381575D01*
X108119304Y-92265298D01*
X108267298Y-92117304D01*
X108383575Y-91943282D01*
X108463669Y-91749920D01*
X108504500Y-91544647D01*
X108504500Y-91335353D01*
X108463669Y-91130080D01*
X108383575Y-90936718D01*
X108267298Y-90762696D01*
X108267296Y-90762694D01*
X108267291Y-90762688D01*
X108119311Y-90614708D01*
X108119305Y-90614703D01*
X108105588Y-90605537D01*
X107945282Y-90498425D01*
X107808559Y-90441792D01*
X107751923Y-90418332D01*
X107751921Y-90418331D01*
X107751920Y-90418331D01*
X107648588Y-90397777D01*
X107546649Y-90377500D01*
X107546647Y-90377500D01*
X105813353Y-90377500D01*
X105813350Y-90377500D01*
X105660441Y-90407915D01*
X105608080Y-90418331D01*
X105608079Y-90418331D01*
X105608076Y-90418332D01*
X105414716Y-90498426D01*
X105240694Y-90614703D01*
X105240688Y-90614708D01*
X105092708Y-90762688D01*
X105092703Y-90762694D01*
X104976426Y-90936716D01*
X104896332Y-91130076D01*
X104896331Y-91130079D01*
X104896331Y-91130080D01*
X104895924Y-91132125D01*
X104855500Y-91335350D01*
X102550000Y-91335350D01*
X102550000Y-88795350D01*
X104855500Y-88795350D01*
X104855500Y-89004649D01*
X104868400Y-89069500D01*
X104896331Y-89209920D01*
X104976425Y-89403282D01*
X105064644Y-89535311D01*
X105092703Y-89577305D01*
X105092708Y-89577311D01*
X105240688Y-89725291D01*
X105240694Y-89725296D01*
X105240696Y-89725298D01*
X105414718Y-89841575D01*
X105608080Y-89921669D01*
X105813353Y-89962500D01*
X105813354Y-89962500D01*
X107546646Y-89962500D01*
X107546647Y-89962500D01*
X107751920Y-89921669D01*
X107945282Y-89841575D01*
X108119304Y-89725298D01*
X108267298Y-89577304D01*
X108383575Y-89403282D01*
X108463669Y-89209920D01*
X108504500Y-89004647D01*
X108504500Y-88795353D01*
X108463669Y-88590080D01*
X108383575Y-88396718D01*
X108267298Y-88222696D01*
X108267296Y-88222694D01*
X108267291Y-88222688D01*
X108119311Y-88074708D01*
X108119305Y-88074703D01*
X108105588Y-88065537D01*
X107945282Y-87958425D01*
X107808559Y-87901792D01*
X107751923Y-87878332D01*
X107751921Y-87878331D01*
X107751920Y-87878331D01*
X107648588Y-87857777D01*
X107546649Y-87837500D01*
X107546647Y-87837500D01*
X105813353Y-87837500D01*
X105813350Y-87837500D01*
X105660441Y-87867915D01*
X105608080Y-87878331D01*
X105608079Y-87878331D01*
X105608076Y-87878332D01*
X105414716Y-87958426D01*
X105240694Y-88074703D01*
X105240688Y-88074708D01*
X105092708Y-88222688D01*
X105092703Y-88222694D01*
X104976426Y-88396716D01*
X104896332Y-88590076D01*
X104896331Y-88590079D01*
X104896331Y-88590080D01*
X104895924Y-88592125D01*
X104855500Y-88795350D01*
X102550000Y-88795350D01*
X102550000Y-86255350D01*
X104855500Y-86255350D01*
X104855500Y-86464649D01*
X104856641Y-86470383D01*
X104896331Y-86669920D01*
X104976425Y-86863282D01*
X105064644Y-86995311D01*
X105092703Y-87037305D01*
X105092708Y-87037311D01*
X105240688Y-87185291D01*
X105240694Y-87185296D01*
X105240696Y-87185298D01*
X105414718Y-87301575D01*
X105608080Y-87381669D01*
X105813353Y-87422500D01*
X105813354Y-87422500D01*
X107546646Y-87422500D01*
X107546647Y-87422500D01*
X107751920Y-87381669D01*
X107945282Y-87301575D01*
X108119304Y-87185298D01*
X108267298Y-87037304D01*
X108383575Y-86863282D01*
X108463669Y-86669920D01*
X108504500Y-86464647D01*
X108504500Y-86255353D01*
X108463669Y-86050080D01*
X108383575Y-85856718D01*
X108267298Y-85682696D01*
X108267296Y-85682694D01*
X108267291Y-85682688D01*
X108119311Y-85534708D01*
X108119305Y-85534703D01*
X108080328Y-85508659D01*
X107945282Y-85418425D01*
X107780246Y-85350064D01*
X107751923Y-85338332D01*
X107751921Y-85338331D01*
X107751920Y-85338331D01*
X107648588Y-85317777D01*
X107546649Y-85297500D01*
X107546647Y-85297500D01*
X105813353Y-85297500D01*
X105813350Y-85297500D01*
X105660441Y-85327915D01*
X105608080Y-85338331D01*
X105608079Y-85338331D01*
X105608076Y-85338332D01*
X105486081Y-85388865D01*
X105415909Y-85417932D01*
X105414716Y-85418426D01*
X105240694Y-85534703D01*
X105240688Y-85534708D01*
X105092708Y-85682688D01*
X105092703Y-85682694D01*
X104976426Y-85856716D01*
X104896332Y-86050076D01*
X104855500Y-86255350D01*
X102550000Y-86255350D01*
X102550000Y-85089998D01*
X108514355Y-85089998D01*
X108514355Y-85090000D01*
X108518581Y-85124802D01*
X108519500Y-85139991D01*
X108519500Y-85158992D01*
X108519501Y-85159004D01*
X108526868Y-85196043D01*
X108528370Y-85205431D01*
X108534860Y-85258873D01*
X108540619Y-85274057D01*
X108546384Y-85294149D01*
X108546417Y-85294319D01*
X108546423Y-85294338D01*
X108568041Y-85346529D01*
X108569443Y-85350061D01*
X108595182Y-85417930D01*
X108617381Y-85450090D01*
X108639963Y-85482806D01*
X108641032Y-85484381D01*
X108675879Y-85536534D01*
X108679809Y-85541322D01*
X108679416Y-85541644D01*
X108686162Y-85549738D01*
X108691814Y-85557926D01*
X108691816Y-85557928D01*
X108691817Y-85557929D01*
X108702485Y-85567380D01*
X108736792Y-85597773D01*
X108742334Y-85602991D01*
X110745898Y-87606554D01*
X110779923Y-87668866D01*
X110774859Y-87739681D01*
X110773212Y-87743866D01*
X110738334Y-87828069D01*
X110738331Y-87828079D01*
X110697500Y-88033350D01*
X110697500Y-89766649D01*
X110712404Y-89841575D01*
X110738331Y-89971920D01*
X110818425Y-90165282D01*
X110821578Y-90170000D01*
X110934703Y-90339305D01*
X110934708Y-90339311D01*
X111082688Y-90487291D01*
X111082694Y-90487296D01*
X111082696Y-90487298D01*
X111256718Y-90603575D01*
X111450080Y-90683669D01*
X111655353Y-90724500D01*
X111655354Y-90724500D01*
X111864646Y-90724500D01*
X111864647Y-90724500D01*
X112069920Y-90683669D01*
X112263282Y-90603575D01*
X112437304Y-90487298D01*
X112585298Y-90339304D01*
X112698423Y-90170000D01*
X130974785Y-90170000D01*
X130993603Y-90373084D01*
X131049416Y-90569245D01*
X131049417Y-90569247D01*
X131049418Y-90569250D01*
X131140327Y-90751821D01*
X131140328Y-90751822D01*
X131140329Y-90751824D01*
X131263234Y-90914578D01*
X131413959Y-91051981D01*
X131413960Y-91051982D01*
X131587351Y-91159341D01*
X131587354Y-91159342D01*
X131587363Y-91159348D01*
X131777544Y-91233024D01*
X131978024Y-91270500D01*
X131978026Y-91270500D01*
X132181974Y-91270500D01*
X132181976Y-91270500D01*
X132382456Y-91233024D01*
X132572637Y-91159348D01*
X132746041Y-91051981D01*
X132896764Y-90914579D01*
X133019673Y-90751821D01*
X133110582Y-90569250D01*
X133166397Y-90373083D01*
X133185215Y-90170000D01*
X148754785Y-90170000D01*
X148773603Y-90373084D01*
X148829416Y-90569245D01*
X148829417Y-90569247D01*
X148829418Y-90569250D01*
X148920327Y-90751821D01*
X148920328Y-90751822D01*
X148920329Y-90751824D01*
X149043234Y-90914578D01*
X149193959Y-91051981D01*
X149193960Y-91051982D01*
X149367351Y-91159341D01*
X149367354Y-91159342D01*
X149367363Y-91159348D01*
X149557544Y-91233024D01*
X149758024Y-91270500D01*
X149758026Y-91270500D01*
X149961974Y-91270500D01*
X149961976Y-91270500D01*
X150162456Y-91233024D01*
X150352637Y-91159348D01*
X150526041Y-91051981D01*
X150676764Y-90914579D01*
X150799673Y-90751821D01*
X150890582Y-90569250D01*
X150946397Y-90373083D01*
X150965215Y-90170000D01*
X150946397Y-89966917D01*
X150890582Y-89770750D01*
X150799673Y-89588179D01*
X150759749Y-89535311D01*
X150676765Y-89425421D01*
X150526040Y-89288018D01*
X150526039Y-89288017D01*
X150352648Y-89180658D01*
X150352641Y-89180654D01*
X150352637Y-89180652D01*
X150236133Y-89135518D01*
X150162457Y-89106976D01*
X150075659Y-89090751D01*
X149961976Y-89069500D01*
X149758024Y-89069500D01*
X149657784Y-89088238D01*
X149557542Y-89106976D01*
X149410190Y-89164060D01*
X149367363Y-89180652D01*
X149367362Y-89180652D01*
X149367361Y-89180653D01*
X149367351Y-89180658D01*
X149193960Y-89288017D01*
X149193959Y-89288018D01*
X149043234Y-89425421D01*
X148920329Y-89588175D01*
X148829416Y-89770754D01*
X148773603Y-89966915D01*
X148754785Y-90170000D01*
X133185215Y-90170000D01*
X133166397Y-89966917D01*
X133110582Y-89770750D01*
X133019673Y-89588179D01*
X132979749Y-89535311D01*
X132896765Y-89425421D01*
X132746040Y-89288018D01*
X132746039Y-89288017D01*
X132572648Y-89180658D01*
X132572641Y-89180654D01*
X132572637Y-89180652D01*
X132456133Y-89135518D01*
X132382457Y-89106976D01*
X132295659Y-89090751D01*
X132181976Y-89069500D01*
X131978024Y-89069500D01*
X131877784Y-89088238D01*
X131777542Y-89106976D01*
X131630190Y-89164060D01*
X131587363Y-89180652D01*
X131587362Y-89180652D01*
X131587361Y-89180653D01*
X131587351Y-89180658D01*
X131413960Y-89288017D01*
X131413959Y-89288018D01*
X131263234Y-89425421D01*
X131140329Y-89588175D01*
X131049416Y-89770754D01*
X130993603Y-89966915D01*
X130974785Y-90170000D01*
X112698423Y-90170000D01*
X112701575Y-90165282D01*
X112781669Y-89971920D01*
X112822500Y-89766647D01*
X112822500Y-88033353D01*
X112781669Y-87828080D01*
X112701575Y-87634718D01*
X112698423Y-87630000D01*
X130974785Y-87630000D01*
X130993603Y-87833084D01*
X131049416Y-88029245D01*
X131049417Y-88029247D01*
X131049418Y-88029250D01*
X131140327Y-88211821D01*
X131140328Y-88211822D01*
X131140329Y-88211824D01*
X131263234Y-88374578D01*
X131413959Y-88511981D01*
X131413960Y-88511982D01*
X131587351Y-88619341D01*
X131587354Y-88619342D01*
X131587363Y-88619348D01*
X131777544Y-88693024D01*
X131978024Y-88730500D01*
X131978026Y-88730500D01*
X132181974Y-88730500D01*
X132181976Y-88730500D01*
X132382456Y-88693024D01*
X132572637Y-88619348D01*
X132746041Y-88511981D01*
X132896764Y-88374579D01*
X133019673Y-88211821D01*
X133110582Y-88029250D01*
X133166397Y-87833083D01*
X133185215Y-87630000D01*
X148754785Y-87630000D01*
X148773603Y-87833084D01*
X148829416Y-88029245D01*
X148829417Y-88029247D01*
X148829418Y-88029250D01*
X148920327Y-88211821D01*
X148920328Y-88211822D01*
X148920329Y-88211824D01*
X149043234Y-88374578D01*
X149193959Y-88511981D01*
X149193960Y-88511982D01*
X149367351Y-88619341D01*
X149367354Y-88619342D01*
X149367363Y-88619348D01*
X149557544Y-88693024D01*
X149758024Y-88730500D01*
X149758026Y-88730500D01*
X149961974Y-88730500D01*
X149961976Y-88730500D01*
X150162456Y-88693024D01*
X150352637Y-88619348D01*
X150526041Y-88511981D01*
X150676764Y-88374579D01*
X150799673Y-88211821D01*
X150890582Y-88029250D01*
X150946397Y-87833083D01*
X150965215Y-87630000D01*
X150946397Y-87426917D01*
X150890582Y-87230750D01*
X150799673Y-87048179D01*
X150759749Y-86995311D01*
X150676765Y-86885421D01*
X150526040Y-86748018D01*
X150526039Y-86748017D01*
X150352648Y-86640658D01*
X150352641Y-86640654D01*
X150352637Y-86640652D01*
X150236133Y-86595518D01*
X150162457Y-86566976D01*
X150075659Y-86550751D01*
X149961976Y-86529500D01*
X149758024Y-86529500D01*
X149657784Y-86548238D01*
X149557542Y-86566976D01*
X149410190Y-86624060D01*
X149367363Y-86640652D01*
X149367362Y-86640652D01*
X149367361Y-86640653D01*
X149367351Y-86640658D01*
X149193960Y-86748017D01*
X149193959Y-86748018D01*
X149043234Y-86885421D01*
X148920329Y-87048175D01*
X148829416Y-87230754D01*
X148773603Y-87426915D01*
X148754785Y-87630000D01*
X133185215Y-87630000D01*
X133166397Y-87426917D01*
X133110582Y-87230750D01*
X133019673Y-87048179D01*
X132979749Y-86995311D01*
X132896765Y-86885421D01*
X132746040Y-86748018D01*
X132746039Y-86748017D01*
X132572648Y-86640658D01*
X132572641Y-86640654D01*
X132572637Y-86640652D01*
X132456133Y-86595518D01*
X132382457Y-86566976D01*
X132295659Y-86550751D01*
X132181976Y-86529500D01*
X131978024Y-86529500D01*
X131877784Y-86548238D01*
X131777542Y-86566976D01*
X131630190Y-86624060D01*
X131587363Y-86640652D01*
X131587362Y-86640652D01*
X131587361Y-86640653D01*
X131587351Y-86640658D01*
X131413960Y-86748017D01*
X131413959Y-86748018D01*
X131263234Y-86885421D01*
X131140329Y-87048175D01*
X131049416Y-87230754D01*
X130993603Y-87426915D01*
X130974785Y-87630000D01*
X112698423Y-87630000D01*
X112585298Y-87460696D01*
X112437304Y-87312702D01*
X112373535Y-87270093D01*
X112338776Y-87235334D01*
X112304114Y-87183458D01*
X112206542Y-87085886D01*
X109768437Y-84647780D01*
X109753836Y-84630261D01*
X109748184Y-84622072D01*
X109733633Y-84609181D01*
X109703195Y-84582215D01*
X109697687Y-84577030D01*
X109666543Y-84545886D01*
X109666542Y-84545885D01*
X109666535Y-84545879D01*
X109655947Y-84538804D01*
X109642403Y-84528357D01*
X109620854Y-84509267D01*
X109620851Y-84509265D01*
X109584267Y-84490064D01*
X109572825Y-84483264D01*
X109551817Y-84469228D01*
X109551815Y-84469226D01*
X109522697Y-84457165D01*
X109512364Y-84452325D01*
X109470225Y-84430209D01*
X109448352Y-84424818D01*
X109430299Y-84418892D01*
X109424336Y-84416422D01*
X109424323Y-84416418D01*
X109375020Y-84406610D01*
X109369455Y-84405371D01*
X109305063Y-84389501D01*
X109305058Y-84389500D01*
X109305056Y-84389500D01*
X109134944Y-84389500D01*
X109134942Y-84389500D01*
X109134934Y-84389501D01*
X109070526Y-84405375D01*
X109064961Y-84406614D01*
X109015673Y-84416419D01*
X109015670Y-84416420D01*
X109009699Y-84418893D01*
X108991651Y-84424817D01*
X108969775Y-84430209D01*
X108927639Y-84452323D01*
X108917312Y-84457160D01*
X108888187Y-84469226D01*
X108888185Y-84469226D01*
X108867177Y-84483263D01*
X108855739Y-84490060D01*
X108819146Y-84509267D01*
X108805809Y-84521082D01*
X108797591Y-84528362D01*
X108784051Y-84538806D01*
X108773457Y-84545884D01*
X108773457Y-84545885D01*
X108742323Y-84577018D01*
X108736786Y-84582230D01*
X108691818Y-84622070D01*
X108691815Y-84622072D01*
X108686156Y-84630271D01*
X108679451Y-84638381D01*
X108679810Y-84638675D01*
X108675885Y-84643457D01*
X108641010Y-84695650D01*
X108639943Y-84697221D01*
X108595181Y-84762070D01*
X108569434Y-84829958D01*
X108568033Y-84833491D01*
X108546420Y-84885671D01*
X108546417Y-84885681D01*
X108546380Y-84885868D01*
X108540621Y-84905931D01*
X108534863Y-84921116D01*
X108534860Y-84921127D01*
X108528370Y-84974570D01*
X108526868Y-84983958D01*
X108519501Y-85020996D01*
X108519500Y-85021008D01*
X108519500Y-85040007D01*
X108518581Y-85055195D01*
X108514355Y-85089998D01*
X102550000Y-85089998D01*
X102550000Y-83565999D01*
X104932619Y-83565999D01*
X104932619Y-83566000D01*
X106240058Y-83566000D01*
X106206619Y-83623919D01*
X106172000Y-83753120D01*
X106172000Y-83886880D01*
X106206619Y-84016081D01*
X106240058Y-84074000D01*
X104932619Y-84074000D01*
X104941044Y-84116356D01*
X104941046Y-84116361D01*
X105017632Y-84301255D01*
X105128818Y-84467657D01*
X105128823Y-84467664D01*
X105270335Y-84609176D01*
X105270342Y-84609181D01*
X105436744Y-84720367D01*
X105621638Y-84796953D01*
X105621643Y-84796955D01*
X105817930Y-84835999D01*
X105817934Y-84836000D01*
X106426000Y-84836000D01*
X106426000Y-84259941D01*
X106483919Y-84293381D01*
X106613120Y-84328000D01*
X106746880Y-84328000D01*
X106876081Y-84293381D01*
X106934000Y-84259941D01*
X106934000Y-84836000D01*
X107542066Y-84836000D01*
X107542069Y-84835999D01*
X107738356Y-84796955D01*
X107738361Y-84796953D01*
X107923255Y-84720367D01*
X108089657Y-84609181D01*
X108089664Y-84609176D01*
X108231176Y-84467664D01*
X108231181Y-84467657D01*
X108342367Y-84301255D01*
X108418953Y-84116361D01*
X108418955Y-84116356D01*
X108427381Y-84074000D01*
X107119942Y-84074000D01*
X107153381Y-84016081D01*
X107188000Y-83886880D01*
X107188000Y-83753120D01*
X107153381Y-83623919D01*
X107119942Y-83566000D01*
X108427381Y-83566000D01*
X108427380Y-83565999D01*
X108418955Y-83523643D01*
X108418953Y-83523638D01*
X108342367Y-83338744D01*
X108231181Y-83172342D01*
X108231176Y-83172335D01*
X108089664Y-83030823D01*
X108089657Y-83030818D01*
X107973718Y-82953350D01*
X110697500Y-82953350D01*
X110697500Y-84686649D01*
X110712502Y-84762070D01*
X110737335Y-84886915D01*
X110738332Y-84891923D01*
X110750429Y-84921127D01*
X110818425Y-85085282D01*
X110934414Y-85258872D01*
X110934703Y-85259305D01*
X110934708Y-85259311D01*
X111082688Y-85407291D01*
X111082694Y-85407296D01*
X111082696Y-85407298D01*
X111256718Y-85523575D01*
X111450080Y-85603669D01*
X111655353Y-85644500D01*
X111655354Y-85644500D01*
X111864646Y-85644500D01*
X111864647Y-85644500D01*
X112069920Y-85603669D01*
X112263282Y-85523575D01*
X112437304Y-85407298D01*
X112585298Y-85259304D01*
X112701575Y-85085282D01*
X112781669Y-84891920D01*
X112822500Y-84686647D01*
X112822500Y-82953353D01*
X112822499Y-82953350D01*
X113237500Y-82953350D01*
X113237500Y-84686649D01*
X113252502Y-84762070D01*
X113277335Y-84886915D01*
X113278332Y-84891923D01*
X113290429Y-84921127D01*
X113358425Y-85085282D01*
X113474414Y-85258872D01*
X113474703Y-85259305D01*
X113474708Y-85259311D01*
X113622688Y-85407291D01*
X113622694Y-85407296D01*
X113622696Y-85407298D01*
X113796718Y-85523575D01*
X113990080Y-85603669D01*
X114195353Y-85644500D01*
X114195354Y-85644500D01*
X114404646Y-85644500D01*
X114404647Y-85644500D01*
X114609920Y-85603669D01*
X114803282Y-85523575D01*
X114977304Y-85407298D01*
X115125298Y-85259304D01*
X115241575Y-85085282D01*
X115321669Y-84891920D01*
X115362500Y-84686647D01*
X115362500Y-82957930D01*
X115824000Y-82957930D01*
X115824000Y-83566000D01*
X116400058Y-83566000D01*
X116366619Y-83623919D01*
X116332000Y-83753120D01*
X116332000Y-83886880D01*
X116366619Y-84016081D01*
X116400058Y-84074000D01*
X115824000Y-84074000D01*
X115824000Y-84682069D01*
X115863044Y-84878356D01*
X115863046Y-84878361D01*
X115939632Y-85063255D01*
X116050818Y-85229657D01*
X116050823Y-85229664D01*
X116192335Y-85371176D01*
X116192342Y-85371181D01*
X116358744Y-85482367D01*
X116543638Y-85558953D01*
X116543643Y-85558955D01*
X116585999Y-85567380D01*
X116586000Y-85567380D01*
X116586000Y-84259941D01*
X116643919Y-84293381D01*
X116773120Y-84328000D01*
X116906880Y-84328000D01*
X117036081Y-84293381D01*
X117094000Y-84259941D01*
X117094000Y-85567380D01*
X117136356Y-85558955D01*
X117136361Y-85558953D01*
X117321255Y-85482367D01*
X117487657Y-85371181D01*
X117487664Y-85371176D01*
X117629176Y-85229664D01*
X117629181Y-85229657D01*
X117740367Y-85063255D01*
X117816953Y-84878361D01*
X117816955Y-84878356D01*
X117855999Y-84682069D01*
X117856000Y-84682065D01*
X117856000Y-84074000D01*
X117279942Y-84074000D01*
X117313381Y-84016081D01*
X117348000Y-83886880D01*
X117348000Y-83753120D01*
X117313381Y-83623919D01*
X117279942Y-83566000D01*
X117856000Y-83566000D01*
X117856000Y-82957934D01*
X117855999Y-82957930D01*
X117855088Y-82953350D01*
X118317500Y-82953350D01*
X118317500Y-84686649D01*
X118332502Y-84762070D01*
X118357335Y-84886915D01*
X118358332Y-84891923D01*
X118370429Y-84921127D01*
X118438425Y-85085282D01*
X118554414Y-85258872D01*
X118554703Y-85259305D01*
X118554708Y-85259311D01*
X118702688Y-85407291D01*
X118702694Y-85407296D01*
X118702696Y-85407298D01*
X118876718Y-85523575D01*
X119070080Y-85603669D01*
X119275353Y-85644500D01*
X119275354Y-85644500D01*
X119484646Y-85644500D01*
X119484647Y-85644500D01*
X119689920Y-85603669D01*
X119883282Y-85523575D01*
X120057304Y-85407298D01*
X120205298Y-85259304D01*
X120321575Y-85085282D01*
X120401669Y-84891920D01*
X120442500Y-84686647D01*
X120442500Y-82953353D01*
X120442499Y-82953350D01*
X120857500Y-82953350D01*
X120857500Y-84686649D01*
X120872502Y-84762070D01*
X120897335Y-84886915D01*
X120898332Y-84891923D01*
X120910429Y-84921127D01*
X120978425Y-85085282D01*
X121094414Y-85258872D01*
X121094703Y-85259305D01*
X121094708Y-85259311D01*
X121242688Y-85407291D01*
X121242694Y-85407296D01*
X121242696Y-85407298D01*
X121416718Y-85523575D01*
X121610080Y-85603669D01*
X121815353Y-85644500D01*
X121815354Y-85644500D01*
X122024646Y-85644500D01*
X122024647Y-85644500D01*
X122229920Y-85603669D01*
X122423282Y-85523575D01*
X122597304Y-85407298D01*
X122745298Y-85259304D01*
X122861575Y-85085282D01*
X122941669Y-84891920D01*
X122982500Y-84686647D01*
X122982500Y-82953353D01*
X122941669Y-82748080D01*
X122861575Y-82554718D01*
X122745298Y-82380696D01*
X122745296Y-82380694D01*
X122745291Y-82380688D01*
X122615732Y-82251129D01*
X123397500Y-82251129D01*
X123397500Y-85388859D01*
X123397501Y-85388866D01*
X123400414Y-85413990D01*
X123400416Y-85413994D01*
X123445793Y-85516765D01*
X123525232Y-85596204D01*
X123525234Y-85596205D01*
X123525235Y-85596206D01*
X123628009Y-85641585D01*
X123653135Y-85644500D01*
X125266864Y-85644499D01*
X125291991Y-85641585D01*
X125394765Y-85596206D01*
X125474206Y-85516765D01*
X125519585Y-85413991D01*
X125522500Y-85388865D01*
X125522500Y-85090000D01*
X130974785Y-85090000D01*
X130993603Y-85293084D01*
X131049416Y-85489245D01*
X131049417Y-85489247D01*
X131049418Y-85489250D01*
X131140327Y-85671821D01*
X131140328Y-85671822D01*
X131140329Y-85671824D01*
X131263234Y-85834578D01*
X131413959Y-85971981D01*
X131413960Y-85971982D01*
X131587351Y-86079341D01*
X131587354Y-86079342D01*
X131587363Y-86079348D01*
X131777544Y-86153024D01*
X131978024Y-86190500D01*
X131978026Y-86190500D01*
X132181974Y-86190500D01*
X132181976Y-86190500D01*
X132382456Y-86153024D01*
X132572637Y-86079348D01*
X132746041Y-85971981D01*
X132896764Y-85834579D01*
X133019673Y-85671821D01*
X133110582Y-85489250D01*
X133166397Y-85293083D01*
X133185215Y-85090000D01*
X148754785Y-85090000D01*
X148773603Y-85293084D01*
X148829416Y-85489245D01*
X148829417Y-85489247D01*
X148829418Y-85489250D01*
X148920327Y-85671821D01*
X148920328Y-85671822D01*
X148920329Y-85671824D01*
X149043234Y-85834578D01*
X149193959Y-85971981D01*
X149193960Y-85971982D01*
X149367351Y-86079341D01*
X149367354Y-86079342D01*
X149367363Y-86079348D01*
X149557544Y-86153024D01*
X149758024Y-86190500D01*
X149758026Y-86190500D01*
X149961974Y-86190500D01*
X149961976Y-86190500D01*
X150162456Y-86153024D01*
X150352637Y-86079348D01*
X150526041Y-85971981D01*
X150676764Y-85834579D01*
X150799673Y-85671821D01*
X150890582Y-85489250D01*
X150946397Y-85293083D01*
X150965215Y-85090000D01*
X150946397Y-84886917D01*
X150890582Y-84690750D01*
X150799673Y-84508179D01*
X150785990Y-84490060D01*
X150676765Y-84345421D01*
X150526040Y-84208018D01*
X150526039Y-84208017D01*
X150352648Y-84100658D01*
X150352641Y-84100654D01*
X150352637Y-84100652D01*
X150228478Y-84052553D01*
X150162457Y-84026976D01*
X150095629Y-84014484D01*
X149961976Y-83989500D01*
X149758024Y-83989500D01*
X149657784Y-84008238D01*
X149557542Y-84026976D01*
X149436160Y-84074000D01*
X149367363Y-84100652D01*
X149367362Y-84100652D01*
X149367361Y-84100653D01*
X149367351Y-84100658D01*
X149193960Y-84208017D01*
X149193959Y-84208018D01*
X149043234Y-84345421D01*
X148920329Y-84508175D01*
X148829416Y-84690754D01*
X148773603Y-84886915D01*
X148754785Y-85090000D01*
X133185215Y-85090000D01*
X133166397Y-84886917D01*
X133110582Y-84690750D01*
X133019673Y-84508179D01*
X133005990Y-84490060D01*
X132896765Y-84345421D01*
X132746040Y-84208018D01*
X132746039Y-84208017D01*
X132572648Y-84100658D01*
X132572641Y-84100654D01*
X132572637Y-84100652D01*
X132448478Y-84052553D01*
X132382457Y-84026976D01*
X132315629Y-84014484D01*
X132181976Y-83989500D01*
X131978024Y-83989500D01*
X131877784Y-84008238D01*
X131777542Y-84026976D01*
X131656160Y-84074000D01*
X131587363Y-84100652D01*
X131587362Y-84100652D01*
X131587361Y-84100653D01*
X131587351Y-84100658D01*
X131413960Y-84208017D01*
X131413959Y-84208018D01*
X131263234Y-84345421D01*
X131140329Y-84508175D01*
X131049416Y-84690754D01*
X130993603Y-84886915D01*
X130974785Y-85090000D01*
X125522500Y-85090000D01*
X125522499Y-82520999D01*
X131017567Y-82520999D01*
X131017567Y-82579000D01*
X131037753Y-82758148D01*
X131050652Y-82814670D01*
X131050659Y-82814693D01*
X131110191Y-82984827D01*
X131110199Y-82984847D01*
X131135366Y-83037105D01*
X131173304Y-83097484D01*
X131173305Y-83097485D01*
X131595842Y-82674948D01*
X131614075Y-82742993D01*
X131679901Y-82857007D01*
X131772993Y-82950099D01*
X131887007Y-83015925D01*
X131955051Y-83034157D01*
X131532514Y-83456694D01*
X131532515Y-83456695D01*
X131592894Y-83494633D01*
X131645152Y-83519800D01*
X131645172Y-83519808D01*
X131815306Y-83579340D01*
X131815329Y-83579347D01*
X131871851Y-83592246D01*
X132051000Y-83612433D01*
X132108999Y-83612433D01*
X132132437Y-83609792D01*
X132146546Y-83609000D01*
X132725663Y-83609000D01*
X132740168Y-83608592D01*
X132740174Y-83608591D01*
X132771341Y-83600551D01*
X132771341Y-83600550D01*
X132204948Y-83034157D01*
X132272993Y-83015925D01*
X132387007Y-82950099D01*
X132480099Y-82857007D01*
X132545925Y-82742993D01*
X132564157Y-82674948D01*
X133130064Y-83240855D01*
X133130065Y-83240855D01*
X133137648Y-83207634D01*
X133140484Y-83193381D01*
X133140484Y-83193379D01*
X133139050Y-83142287D01*
X133139000Y-83138751D01*
X133139000Y-82616546D01*
X133139792Y-82602437D01*
X133142433Y-82579000D01*
X133142433Y-82520998D01*
X148797567Y-82520998D01*
X148797567Y-82579000D01*
X148800208Y-82602437D01*
X148801000Y-82616546D01*
X148801000Y-83086747D01*
X148799740Y-83099537D01*
X148800111Y-83099569D01*
X148799515Y-83106623D01*
X148802350Y-83207628D01*
X148809934Y-83240855D01*
X148809935Y-83240855D01*
X149375842Y-82674948D01*
X149394075Y-82742993D01*
X149459901Y-82857007D01*
X149552993Y-82950099D01*
X149667007Y-83015925D01*
X149735051Y-83034157D01*
X149169193Y-83600015D01*
X149169193Y-83600016D01*
X149214355Y-83608999D01*
X149214356Y-83609000D01*
X149793454Y-83609000D01*
X149807563Y-83609792D01*
X149831001Y-83612433D01*
X149889000Y-83612433D01*
X150068148Y-83592246D01*
X150124670Y-83579347D01*
X150124693Y-83579340D01*
X150294827Y-83519808D01*
X150294847Y-83519800D01*
X150347105Y-83494633D01*
X150407484Y-83456695D01*
X150407485Y-83456694D01*
X149984948Y-83034157D01*
X150052993Y-83015925D01*
X150167007Y-82950099D01*
X150260099Y-82857007D01*
X150325925Y-82742993D01*
X150344157Y-82674948D01*
X150766694Y-83097485D01*
X150766695Y-83097484D01*
X150804633Y-83037105D01*
X150829800Y-82984847D01*
X150829808Y-82984827D01*
X150889340Y-82814693D01*
X150889347Y-82814670D01*
X150902246Y-82758148D01*
X150922433Y-82579000D01*
X150922433Y-82520999D01*
X150902246Y-82341851D01*
X150889347Y-82285329D01*
X150889340Y-82285306D01*
X150829808Y-82115172D01*
X150829800Y-82115152D01*
X150804636Y-82062898D01*
X150766693Y-82002514D01*
X150344157Y-82425050D01*
X150325925Y-82357007D01*
X150260099Y-82242993D01*
X150167007Y-82149901D01*
X150052993Y-82084075D01*
X149984947Y-82065841D01*
X150407484Y-81643304D01*
X150347099Y-81605362D01*
X150294847Y-81580199D01*
X150294827Y-81580191D01*
X150124693Y-81520659D01*
X150124670Y-81520652D01*
X150068148Y-81507753D01*
X149889000Y-81487567D01*
X149831001Y-81487567D01*
X149807563Y-81490208D01*
X149793454Y-81491000D01*
X149214337Y-81491000D01*
X149199832Y-81491407D01*
X149199828Y-81491407D01*
X149168657Y-81499448D01*
X149168657Y-81499449D01*
X149735050Y-82065842D01*
X149667007Y-82084075D01*
X149552993Y-82149901D01*
X149459901Y-82242993D01*
X149394075Y-82357007D01*
X149375841Y-82425052D01*
X148809933Y-81859144D01*
X148809932Y-81859144D01*
X148802351Y-81892361D01*
X148799516Y-81906611D01*
X148799515Y-81906619D01*
X148800950Y-81957712D01*
X148801000Y-81961248D01*
X148801000Y-82483452D01*
X148800208Y-82497560D01*
X148797567Y-82520998D01*
X133142433Y-82520998D01*
X133139792Y-82497560D01*
X133139000Y-82483452D01*
X133139000Y-82013254D01*
X133140259Y-82000466D01*
X133139889Y-82000435D01*
X133140484Y-81993378D01*
X133137649Y-81892368D01*
X133130064Y-81859142D01*
X132564157Y-82425049D01*
X132545925Y-82357007D01*
X132480099Y-82242993D01*
X132387007Y-82149901D01*
X132272993Y-82084075D01*
X132204946Y-82065841D01*
X132770805Y-81499981D01*
X132770806Y-81499981D01*
X132725654Y-81491000D01*
X132146546Y-81491000D01*
X132132437Y-81490208D01*
X132108999Y-81487567D01*
X132051000Y-81487567D01*
X131871851Y-81507753D01*
X131815329Y-81520652D01*
X131815306Y-81520659D01*
X131645172Y-81580191D01*
X131645152Y-81580199D01*
X131592896Y-81605364D01*
X131592891Y-81605367D01*
X131532514Y-81643304D01*
X131532513Y-81643305D01*
X131955050Y-82065842D01*
X131887007Y-82084075D01*
X131772993Y-82149901D01*
X131679901Y-82242993D01*
X131614075Y-82357007D01*
X131595841Y-82425052D01*
X131173304Y-82002515D01*
X131173303Y-82002515D01*
X131135362Y-82062899D01*
X131110199Y-82115152D01*
X131110191Y-82115172D01*
X131050659Y-82285306D01*
X131050652Y-82285329D01*
X131037753Y-82341851D01*
X131017567Y-82520999D01*
X125522499Y-82520999D01*
X125522499Y-82251136D01*
X125519585Y-82226009D01*
X125474206Y-82123235D01*
X125474206Y-82123234D01*
X125394767Y-82043795D01*
X125394765Y-82043794D01*
X125291989Y-81998414D01*
X125291990Y-81998414D01*
X125266868Y-81995500D01*
X123653140Y-81995500D01*
X123653133Y-81995501D01*
X123628009Y-81998414D01*
X123628005Y-81998416D01*
X123525234Y-82043793D01*
X123445795Y-82123232D01*
X123445794Y-82123234D01*
X123400414Y-82226009D01*
X123397500Y-82251129D01*
X122615732Y-82251129D01*
X122597311Y-82232708D01*
X122597305Y-82232703D01*
X122534578Y-82190790D01*
X122423282Y-82116425D01*
X122247935Y-82043793D01*
X122229923Y-82036332D01*
X122229921Y-82036331D01*
X122229920Y-82036331D01*
X122113903Y-82013254D01*
X122024649Y-81995500D01*
X122024647Y-81995500D01*
X121815353Y-81995500D01*
X121815350Y-81995500D01*
X121662441Y-82025915D01*
X121610080Y-82036331D01*
X121610079Y-82036331D01*
X121610076Y-82036332D01*
X121488081Y-82086865D01*
X121419792Y-82115152D01*
X121416716Y-82116426D01*
X121242694Y-82232703D01*
X121242688Y-82232708D01*
X121094708Y-82380688D01*
X121094703Y-82380694D01*
X120981577Y-82550001D01*
X120978425Y-82554718D01*
X120968367Y-82579000D01*
X120898332Y-82748076D01*
X120898331Y-82748079D01*
X120898331Y-82748080D01*
X120895634Y-82761638D01*
X120857500Y-82953350D01*
X120442499Y-82953350D01*
X120401669Y-82748080D01*
X120321575Y-82554718D01*
X120205298Y-82380696D01*
X120205296Y-82380694D01*
X120205291Y-82380688D01*
X120057311Y-82232708D01*
X120057305Y-82232703D01*
X119994578Y-82190790D01*
X119883282Y-82116425D01*
X119707935Y-82043793D01*
X119689923Y-82036332D01*
X119689921Y-82036331D01*
X119689920Y-82036331D01*
X119573903Y-82013254D01*
X119484649Y-81995500D01*
X119484647Y-81995500D01*
X119275353Y-81995500D01*
X119275350Y-81995500D01*
X119122441Y-82025915D01*
X119070080Y-82036331D01*
X119070079Y-82036331D01*
X119070076Y-82036332D01*
X118948081Y-82086865D01*
X118879792Y-82115152D01*
X118876716Y-82116426D01*
X118702694Y-82232703D01*
X118702688Y-82232708D01*
X118554708Y-82380688D01*
X118554703Y-82380694D01*
X118441577Y-82550001D01*
X118438425Y-82554718D01*
X118428367Y-82579000D01*
X118358332Y-82748076D01*
X118358331Y-82748079D01*
X118358331Y-82748080D01*
X118355634Y-82761638D01*
X118317500Y-82953350D01*
X117855088Y-82953350D01*
X117816955Y-82761643D01*
X117816953Y-82761638D01*
X117740367Y-82576744D01*
X117629181Y-82410342D01*
X117629176Y-82410335D01*
X117487664Y-82268823D01*
X117487657Y-82268818D01*
X117321256Y-82157632D01*
X117136353Y-82081043D01*
X117136348Y-82081042D01*
X117094000Y-82072617D01*
X117094000Y-83380058D01*
X117036081Y-83346619D01*
X116906880Y-83312000D01*
X116773120Y-83312000D01*
X116643919Y-83346619D01*
X116586000Y-83380058D01*
X116586000Y-82072618D01*
X116585999Y-82072617D01*
X116543651Y-82081042D01*
X116543646Y-82081043D01*
X116358743Y-82157632D01*
X116192342Y-82268818D01*
X116192335Y-82268823D01*
X116050823Y-82410335D01*
X116050818Y-82410342D01*
X115939632Y-82576744D01*
X115863046Y-82761638D01*
X115863044Y-82761643D01*
X115824000Y-82957930D01*
X115362500Y-82957930D01*
X115362500Y-82953353D01*
X115321669Y-82748080D01*
X115241575Y-82554718D01*
X115125298Y-82380696D01*
X115125296Y-82380694D01*
X115125291Y-82380688D01*
X114977311Y-82232708D01*
X114977305Y-82232703D01*
X114914578Y-82190790D01*
X114803282Y-82116425D01*
X114627935Y-82043793D01*
X114609923Y-82036332D01*
X114609921Y-82036331D01*
X114609920Y-82036331D01*
X114493903Y-82013254D01*
X114404649Y-81995500D01*
X114404647Y-81995500D01*
X114195353Y-81995500D01*
X114195350Y-81995500D01*
X114042441Y-82025915D01*
X113990080Y-82036331D01*
X113990079Y-82036331D01*
X113990076Y-82036332D01*
X113868081Y-82086865D01*
X113799792Y-82115152D01*
X113796716Y-82116426D01*
X113622694Y-82232703D01*
X113622688Y-82232708D01*
X113474708Y-82380688D01*
X113474703Y-82380694D01*
X113361577Y-82550001D01*
X113358425Y-82554718D01*
X113348367Y-82579000D01*
X113278332Y-82748076D01*
X113278331Y-82748079D01*
X113278331Y-82748080D01*
X113275634Y-82761638D01*
X113237500Y-82953350D01*
X112822499Y-82953350D01*
X112781669Y-82748080D01*
X112701575Y-82554718D01*
X112585298Y-82380696D01*
X112585296Y-82380694D01*
X112585291Y-82380688D01*
X112437311Y-82232708D01*
X112437305Y-82232703D01*
X112374578Y-82190790D01*
X112263282Y-82116425D01*
X112087935Y-82043793D01*
X112069923Y-82036332D01*
X112069921Y-82036331D01*
X112069920Y-82036331D01*
X111953903Y-82013254D01*
X111864649Y-81995500D01*
X111864647Y-81995500D01*
X111655353Y-81995500D01*
X111655350Y-81995500D01*
X111502441Y-82025915D01*
X111450080Y-82036331D01*
X111450079Y-82036331D01*
X111450076Y-82036332D01*
X111328081Y-82086865D01*
X111259792Y-82115152D01*
X111256716Y-82116426D01*
X111082694Y-82232703D01*
X111082688Y-82232708D01*
X110934708Y-82380688D01*
X110934703Y-82380694D01*
X110821577Y-82550001D01*
X110818425Y-82554718D01*
X110808367Y-82579000D01*
X110738332Y-82748076D01*
X110738331Y-82748079D01*
X110738331Y-82748080D01*
X110735634Y-82761638D01*
X110697500Y-82953350D01*
X107973718Y-82953350D01*
X107923255Y-82919632D01*
X107738361Y-82843046D01*
X107738356Y-82843044D01*
X107542069Y-82804000D01*
X106934000Y-82804000D01*
X106934000Y-83380058D01*
X106876081Y-83346619D01*
X106746880Y-83312000D01*
X106613120Y-83312000D01*
X106483919Y-83346619D01*
X106426000Y-83380058D01*
X106426000Y-82804000D01*
X105817930Y-82804000D01*
X105621643Y-82843044D01*
X105621638Y-82843046D01*
X105436744Y-82919632D01*
X105270342Y-83030818D01*
X105270335Y-83030823D01*
X105128823Y-83172335D01*
X105128818Y-83172342D01*
X105017632Y-83338744D01*
X104941046Y-83523638D01*
X104941044Y-83523643D01*
X104932619Y-83565999D01*
X102550000Y-83565999D01*
X102550000Y-80473129D01*
X104855500Y-80473129D01*
X104855500Y-82086859D01*
X104855501Y-82086866D01*
X104858414Y-82111990D01*
X104858416Y-82111994D01*
X104903793Y-82214765D01*
X104983232Y-82294204D01*
X104983234Y-82294205D01*
X104983235Y-82294206D01*
X105086009Y-82339585D01*
X105111135Y-82342500D01*
X108248864Y-82342499D01*
X108273991Y-82339585D01*
X108376765Y-82294206D01*
X108456206Y-82214765D01*
X108501585Y-82111991D01*
X108504500Y-82086865D01*
X108504499Y-80473136D01*
X108501585Y-80448009D01*
X108456206Y-80345235D01*
X108456206Y-80345234D01*
X108376767Y-80265795D01*
X108376765Y-80265794D01*
X108273989Y-80220414D01*
X108273990Y-80220414D01*
X108248868Y-80217500D01*
X105111140Y-80217500D01*
X105111133Y-80217501D01*
X105086009Y-80220414D01*
X105086005Y-80220416D01*
X104983234Y-80265793D01*
X104903795Y-80345232D01*
X104903794Y-80345234D01*
X104858414Y-80448009D01*
X104855500Y-80473129D01*
X102550000Y-80473129D01*
X102550000Y-80010000D01*
X130974785Y-80010000D01*
X130993603Y-80213084D01*
X131049416Y-80409245D01*
X131049417Y-80409247D01*
X131049418Y-80409250D01*
X131140327Y-80591821D01*
X131140328Y-80591822D01*
X131140329Y-80591824D01*
X131263234Y-80754578D01*
X131413959Y-80891981D01*
X131413960Y-80891982D01*
X131587351Y-80999341D01*
X131587354Y-80999342D01*
X131587363Y-80999348D01*
X131777544Y-81073024D01*
X131978024Y-81110500D01*
X131978026Y-81110500D01*
X132181974Y-81110500D01*
X132181976Y-81110500D01*
X132382456Y-81073024D01*
X132572637Y-80999348D01*
X132746041Y-80891981D01*
X132896764Y-80754579D01*
X132916278Y-80728739D01*
X132927491Y-80713889D01*
X133019673Y-80591821D01*
X133110582Y-80409250D01*
X133166397Y-80213083D01*
X133185215Y-80010000D01*
X148754785Y-80010000D01*
X148773603Y-80213084D01*
X148829416Y-80409245D01*
X148829417Y-80409247D01*
X148829418Y-80409250D01*
X148920327Y-80591821D01*
X148920328Y-80591822D01*
X148920329Y-80591824D01*
X149043234Y-80754578D01*
X149193959Y-80891981D01*
X149193960Y-80891982D01*
X149367351Y-80999341D01*
X149367354Y-80999342D01*
X149367363Y-80999348D01*
X149557544Y-81073024D01*
X149758024Y-81110500D01*
X149758026Y-81110500D01*
X149961974Y-81110500D01*
X149961976Y-81110500D01*
X150162456Y-81073024D01*
X150352637Y-80999348D01*
X150526041Y-80891981D01*
X150676764Y-80754579D01*
X150696278Y-80728739D01*
X150707491Y-80713889D01*
X150799673Y-80591821D01*
X150890582Y-80409250D01*
X150946397Y-80213083D01*
X150965215Y-80010000D01*
X150946397Y-79806917D01*
X150890582Y-79610750D01*
X150799673Y-79428179D01*
X150720443Y-79323261D01*
X150676765Y-79265421D01*
X150526040Y-79128018D01*
X150526039Y-79128017D01*
X150352648Y-79020658D01*
X150352641Y-79020654D01*
X150352637Y-79020652D01*
X150236133Y-78975518D01*
X150162457Y-78946976D01*
X150095629Y-78934484D01*
X149961976Y-78909500D01*
X149758024Y-78909500D01*
X149657784Y-78928238D01*
X149557542Y-78946976D01*
X149410190Y-79004060D01*
X149367363Y-79020652D01*
X149367362Y-79020652D01*
X149367361Y-79020653D01*
X149367351Y-79020658D01*
X149193960Y-79128017D01*
X149193959Y-79128018D01*
X149043234Y-79265421D01*
X148920329Y-79428175D01*
X148829416Y-79610754D01*
X148773603Y-79806915D01*
X148754785Y-80010000D01*
X133185215Y-80010000D01*
X133166397Y-79806917D01*
X133110582Y-79610750D01*
X133019673Y-79428179D01*
X132940443Y-79323261D01*
X132896765Y-79265421D01*
X132746040Y-79128018D01*
X132746039Y-79128017D01*
X132572648Y-79020658D01*
X132572641Y-79020654D01*
X132572637Y-79020652D01*
X132456133Y-78975518D01*
X132382457Y-78946976D01*
X132315629Y-78934484D01*
X132181976Y-78909500D01*
X131978024Y-78909500D01*
X131877784Y-78928238D01*
X131777542Y-78946976D01*
X131630190Y-79004060D01*
X131587363Y-79020652D01*
X131587362Y-79020652D01*
X131587361Y-79020653D01*
X131587351Y-79020658D01*
X131413960Y-79128017D01*
X131413959Y-79128018D01*
X131263234Y-79265421D01*
X131140329Y-79428175D01*
X131049416Y-79610754D01*
X130993603Y-79806915D01*
X130974785Y-80010000D01*
X102550000Y-80010000D01*
X102550000Y-74223112D01*
X108049500Y-74223112D01*
X108049500Y-74576887D01*
X108084173Y-74928924D01*
X108084176Y-74928945D01*
X108153188Y-75275894D01*
X108153190Y-75275901D01*
X108153191Y-75275905D01*
X108167355Y-75322598D01*
X108255880Y-75614430D01*
X108255883Y-75614439D01*
X108391261Y-75941269D01*
X108558025Y-76253261D01*
X108754564Y-76547403D01*
X108978974Y-76820848D01*
X108979000Y-76820877D01*
X109229122Y-77070999D01*
X109229131Y-77071007D01*
X109229136Y-77071012D01*
X109229141Y-77071016D01*
X109229151Y-77071025D01*
X109502596Y-77295435D01*
X109763852Y-77470000D01*
X109796741Y-77491976D01*
X110108731Y-77658739D01*
X110435565Y-77794118D01*
X110774095Y-77896809D01*
X111121060Y-77965825D01*
X111473119Y-78000500D01*
X111473128Y-78000500D01*
X111826872Y-78000500D01*
X111826881Y-78000500D01*
X112178940Y-77965825D01*
X112525905Y-77896809D01*
X112864435Y-77794118D01*
X113191269Y-77658739D01*
X113503259Y-77491976D01*
X113797402Y-77295436D01*
X114070864Y-77071012D01*
X114319755Y-76822121D01*
X130979500Y-76822121D01*
X130979500Y-78117864D01*
X130979502Y-78117885D01*
X130985908Y-78177480D01*
X130985908Y-78177481D01*
X131036201Y-78312326D01*
X131036203Y-78312329D01*
X131122453Y-78427546D01*
X131164933Y-78459346D01*
X131237669Y-78513796D01*
X131237671Y-78513796D01*
X131237673Y-78513798D01*
X131289219Y-78533023D01*
X131372514Y-78564090D01*
X131372517Y-78564091D01*
X131432127Y-78570500D01*
X132727872Y-78570499D01*
X132787483Y-78564091D01*
X132922331Y-78513796D01*
X133037546Y-78427546D01*
X133123796Y-78312331D01*
X133174091Y-78177483D01*
X133180500Y-78117873D01*
X133180499Y-77470000D01*
X148754785Y-77470000D01*
X148773603Y-77673084D01*
X148829416Y-77869245D01*
X148829417Y-77869247D01*
X148829418Y-77869250D01*
X148920327Y-78051821D01*
X148920328Y-78051822D01*
X148920329Y-78051824D01*
X149043234Y-78214578D01*
X149193959Y-78351981D01*
X149193960Y-78351982D01*
X149367351Y-78459341D01*
X149367354Y-78459342D01*
X149367363Y-78459348D01*
X149557544Y-78533024D01*
X149758024Y-78570500D01*
X149758026Y-78570500D01*
X149961974Y-78570500D01*
X149961976Y-78570500D01*
X150162456Y-78533024D01*
X150352637Y-78459348D01*
X150526041Y-78351981D01*
X150676764Y-78214579D01*
X150799673Y-78051821D01*
X150890582Y-77869250D01*
X150946397Y-77673083D01*
X150965215Y-77470000D01*
X150946397Y-77266917D01*
X150890582Y-77070750D01*
X150799673Y-76888179D01*
X150749793Y-76822127D01*
X150676765Y-76725421D01*
X150526040Y-76588018D01*
X150526039Y-76588017D01*
X150352648Y-76480658D01*
X150352641Y-76480654D01*
X150352637Y-76480652D01*
X150212082Y-76426201D01*
X150162457Y-76406976D01*
X150095629Y-76394484D01*
X149961976Y-76369500D01*
X149758024Y-76369500D01*
X149657784Y-76388238D01*
X149557542Y-76406976D01*
X149410190Y-76464060D01*
X149367363Y-76480652D01*
X149367362Y-76480652D01*
X149367361Y-76480653D01*
X149367351Y-76480658D01*
X149193960Y-76588017D01*
X149193959Y-76588018D01*
X149043234Y-76725421D01*
X148920329Y-76888175D01*
X148829416Y-77070754D01*
X148773603Y-77266915D01*
X148754785Y-77470000D01*
X133180499Y-77470000D01*
X133180499Y-76822128D01*
X133174091Y-76762517D01*
X133152800Y-76705435D01*
X133123798Y-76627673D01*
X133123796Y-76627670D01*
X133123796Y-76627669D01*
X133063708Y-76547402D01*
X133037546Y-76512453D01*
X132960591Y-76454845D01*
X132922331Y-76426204D01*
X132922329Y-76426203D01*
X132922326Y-76426201D01*
X132787483Y-76375909D01*
X132787486Y-76375909D01*
X132727873Y-76369500D01*
X131432135Y-76369500D01*
X131432114Y-76369502D01*
X131372519Y-76375908D01*
X131372518Y-76375908D01*
X131237673Y-76426201D01*
X131237670Y-76426203D01*
X131122453Y-76512453D01*
X131036203Y-76627670D01*
X131036201Y-76627673D01*
X130985909Y-76762515D01*
X130979500Y-76822121D01*
X114319755Y-76822121D01*
X114321012Y-76820864D01*
X114545436Y-76547402D01*
X114741976Y-76253259D01*
X114908739Y-75941269D01*
X115044118Y-75614435D01*
X115146809Y-75275905D01*
X115215825Y-74928940D01*
X115250500Y-74576881D01*
X115250500Y-74223119D01*
X115215825Y-73871060D01*
X115173842Y-73660000D01*
X118174357Y-73660000D01*
X118194885Y-73881539D01*
X118255768Y-74095520D01*
X118255774Y-74095537D01*
X118354938Y-74294684D01*
X118354942Y-74294689D01*
X118489017Y-74472235D01*
X118653438Y-74622124D01*
X118653439Y-74622125D01*
X118842587Y-74739240D01*
X118842590Y-74739241D01*
X118842599Y-74739247D01*
X118932989Y-74774264D01*
X119050053Y-74819616D01*
X119050056Y-74819616D01*
X119050060Y-74819618D01*
X119268757Y-74860500D01*
X119268760Y-74860500D01*
X119491240Y-74860500D01*
X119491243Y-74860500D01*
X119709940Y-74819618D01*
X119709944Y-74819616D01*
X119709946Y-74819616D01*
X119763298Y-74798946D01*
X119917401Y-74739247D01*
X120106562Y-74622124D01*
X120270981Y-74472236D01*
X120405058Y-74294689D01*
X120405059Y-74294685D01*
X120405061Y-74294684D01*
X120504225Y-74095537D01*
X120504225Y-74095534D01*
X120504229Y-74095528D01*
X120518810Y-74044278D01*
X120556689Y-73984233D01*
X120621019Y-73954198D01*
X120691376Y-73963710D01*
X120745421Y-74009749D01*
X120765996Y-74077699D01*
X120766000Y-74078760D01*
X120766000Y-74585013D01*
X120766001Y-74585022D01*
X120780737Y-74659105D01*
X120780737Y-74659107D01*
X120836875Y-74743124D01*
X120920893Y-74799262D01*
X120920894Y-74799263D01*
X120994980Y-74813999D01*
X121666000Y-74813999D01*
X121666000Y-74032968D01*
X121746306Y-74079333D01*
X121860756Y-74110000D01*
X121979244Y-74110000D01*
X122093694Y-74079333D01*
X122174000Y-74032968D01*
X122174000Y-74813999D01*
X122845014Y-74813999D01*
X122845022Y-74813998D01*
X122919105Y-74799262D01*
X122919107Y-74799262D01*
X123003124Y-74743124D01*
X123059262Y-74659106D01*
X123059263Y-74659105D01*
X123073999Y-74585022D01*
X123074000Y-74585015D01*
X123074000Y-73914000D01*
X122292968Y-73914000D01*
X122339333Y-73833694D01*
X122370000Y-73719244D01*
X122370000Y-73600756D01*
X122339333Y-73486306D01*
X122292968Y-73406000D01*
X123073999Y-73406000D01*
X123073999Y-72734986D01*
X123073998Y-72734977D01*
X123059262Y-72660894D01*
X123059262Y-72660892D01*
X123003124Y-72576875D01*
X122919106Y-72520737D01*
X122919105Y-72520736D01*
X122845022Y-72506000D01*
X122174000Y-72506000D01*
X122174000Y-73287031D01*
X122093694Y-73240667D01*
X121979244Y-73210000D01*
X121860756Y-73210000D01*
X121746306Y-73240667D01*
X121666000Y-73287031D01*
X121666000Y-72506000D01*
X120994986Y-72506000D01*
X120994976Y-72506001D01*
X120920894Y-72520737D01*
X120920892Y-72520737D01*
X120836875Y-72576875D01*
X120780737Y-72660893D01*
X120780736Y-72660894D01*
X120766000Y-72734977D01*
X120766000Y-73241237D01*
X120745998Y-73309358D01*
X120692342Y-73355851D01*
X120622068Y-73365955D01*
X120557488Y-73336461D01*
X120519104Y-73276735D01*
X120518810Y-73275718D01*
X120504231Y-73224479D01*
X120504225Y-73224462D01*
X120405061Y-73025315D01*
X120405057Y-73025310D01*
X120270982Y-72847764D01*
X120106561Y-72697875D01*
X120106560Y-72697874D01*
X119917412Y-72580759D01*
X119917405Y-72580755D01*
X119917401Y-72580753D01*
X119907391Y-72576875D01*
X119709946Y-72500383D01*
X119670972Y-72493097D01*
X119491243Y-72459500D01*
X119268757Y-72459500D01*
X119127674Y-72485873D01*
X119050053Y-72500383D01*
X118842603Y-72580751D01*
X118842587Y-72580759D01*
X118653439Y-72697874D01*
X118653438Y-72697875D01*
X118489017Y-72847764D01*
X118354942Y-73025310D01*
X118354938Y-73025315D01*
X118255774Y-73224462D01*
X118255768Y-73224479D01*
X118194885Y-73438460D01*
X118174357Y-73660000D01*
X115173842Y-73660000D01*
X115146809Y-73524095D01*
X115044118Y-73185565D01*
X114908739Y-72858731D01*
X114741976Y-72546741D01*
X114711000Y-72500382D01*
X114545435Y-72252596D01*
X114432800Y-72115350D01*
X149155500Y-72115350D01*
X149155500Y-72115353D01*
X149155500Y-72324647D01*
X149194504Y-72520737D01*
X149196332Y-72529923D01*
X149215781Y-72576875D01*
X149276425Y-72723282D01*
X149284246Y-72734986D01*
X149392703Y-72897305D01*
X149392708Y-72897311D01*
X149540688Y-73045291D01*
X149540694Y-73045296D01*
X149540696Y-73045298D01*
X149714718Y-73161575D01*
X149908080Y-73241669D01*
X150113353Y-73282500D01*
X150113354Y-73282500D01*
X151846646Y-73282500D01*
X151846647Y-73282500D01*
X152051920Y-73241669D01*
X152245282Y-73161575D01*
X152419304Y-73045298D01*
X152567298Y-72897304D01*
X152683575Y-72723282D01*
X152763669Y-72529920D01*
X152804500Y-72324647D01*
X152804500Y-72115353D01*
X152804499Y-72115350D01*
X155655500Y-72115350D01*
X155655500Y-72115353D01*
X155655500Y-72324647D01*
X155694504Y-72520737D01*
X155696332Y-72529923D01*
X155715781Y-72576875D01*
X155776425Y-72723282D01*
X155784246Y-72734986D01*
X155892703Y-72897305D01*
X155892708Y-72897311D01*
X156040688Y-73045291D01*
X156040694Y-73045296D01*
X156040696Y-73045298D01*
X156214718Y-73161575D01*
X156408080Y-73241669D01*
X156613353Y-73282500D01*
X156613354Y-73282500D01*
X158346646Y-73282500D01*
X158346647Y-73282500D01*
X158551920Y-73241669D01*
X158745282Y-73161575D01*
X158919304Y-73045298D01*
X159067298Y-72897304D01*
X159183575Y-72723282D01*
X159263669Y-72529920D01*
X159304500Y-72324647D01*
X159304500Y-72115353D01*
X159263669Y-71910080D01*
X159183575Y-71716718D01*
X159067298Y-71542696D01*
X159067296Y-71542694D01*
X159067291Y-71542688D01*
X158919311Y-71394708D01*
X158919305Y-71394703D01*
X158789582Y-71308025D01*
X158745282Y-71278425D01*
X158608559Y-71221792D01*
X158551923Y-71198332D01*
X158551921Y-71198331D01*
X158551920Y-71198331D01*
X158448588Y-71177777D01*
X158346649Y-71157500D01*
X158346647Y-71157500D01*
X156613353Y-71157500D01*
X156613350Y-71157500D01*
X156460441Y-71187915D01*
X156408080Y-71198331D01*
X156408079Y-71198331D01*
X156408076Y-71198332D01*
X156214716Y-71278426D01*
X156040694Y-71394703D01*
X156040688Y-71394708D01*
X155892708Y-71542688D01*
X155892703Y-71542694D01*
X155776426Y-71716716D01*
X155696332Y-71910076D01*
X155655500Y-72115350D01*
X152804499Y-72115350D01*
X152763669Y-71910080D01*
X152683575Y-71716718D01*
X152567298Y-71542696D01*
X152567296Y-71542694D01*
X152567291Y-71542688D01*
X152419311Y-71394708D01*
X152419305Y-71394703D01*
X152289582Y-71308025D01*
X152245282Y-71278425D01*
X152108559Y-71221792D01*
X152051923Y-71198332D01*
X152051921Y-71198331D01*
X152051920Y-71198331D01*
X151948588Y-71177777D01*
X151846649Y-71157500D01*
X151846647Y-71157500D01*
X150113353Y-71157500D01*
X150113350Y-71157500D01*
X149960441Y-71187915D01*
X149908080Y-71198331D01*
X149908079Y-71198331D01*
X149908076Y-71198332D01*
X149714716Y-71278426D01*
X149540694Y-71394703D01*
X149540688Y-71394708D01*
X149392708Y-71542688D01*
X149392703Y-71542694D01*
X149276426Y-71716716D01*
X149196332Y-71910076D01*
X149155500Y-72115350D01*
X114432800Y-72115350D01*
X114321025Y-71979151D01*
X114320999Y-71979122D01*
X114070877Y-71729000D01*
X114070848Y-71728974D01*
X113797403Y-71504564D01*
X113503261Y-71308025D01*
X113191269Y-71141261D01*
X112864439Y-71005883D01*
X112864430Y-71005880D01*
X112664923Y-70945361D01*
X112525905Y-70903191D01*
X112525901Y-70903190D01*
X112525894Y-70903188D01*
X112178945Y-70834176D01*
X112178940Y-70834175D01*
X112178933Y-70834174D01*
X112178924Y-70834173D01*
X111826887Y-70799500D01*
X111826881Y-70799500D01*
X111473119Y-70799500D01*
X111473112Y-70799500D01*
X111121075Y-70834173D01*
X111121063Y-70834174D01*
X111121060Y-70834175D01*
X111121057Y-70834175D01*
X111121054Y-70834176D01*
X110774105Y-70903188D01*
X110435569Y-71005880D01*
X110435560Y-71005883D01*
X110108730Y-71141261D01*
X109796738Y-71308025D01*
X109502596Y-71504564D01*
X109229151Y-71728974D01*
X109229122Y-71729000D01*
X108979000Y-71979122D01*
X108978974Y-71979151D01*
X108754564Y-72252596D01*
X108558025Y-72546738D01*
X108391261Y-72858730D01*
X108255883Y-73185560D01*
X108255880Y-73185569D01*
X108153188Y-73524105D01*
X108084176Y-73871054D01*
X108084173Y-73871075D01*
X108049500Y-74223112D01*
X102550000Y-74223112D01*
X102550000Y-69976000D01*
X102570002Y-69907879D01*
X102623658Y-69861386D01*
X102676000Y-69850000D01*
X137160000Y-69850000D01*
X137160000Y-67465999D01*
X149232619Y-67465999D01*
X149232619Y-67466000D01*
X150540058Y-67466000D01*
X150506619Y-67523919D01*
X150472000Y-67653120D01*
X150472000Y-67786880D01*
X150506619Y-67916081D01*
X150540058Y-67974000D01*
X149232619Y-67974000D01*
X149241044Y-68016356D01*
X149241046Y-68016361D01*
X149317632Y-68201255D01*
X149428818Y-68367657D01*
X149428823Y-68367664D01*
X149570335Y-68509176D01*
X149570342Y-68509181D01*
X149736744Y-68620367D01*
X149921638Y-68696953D01*
X149921643Y-68696955D01*
X150117930Y-68735999D01*
X150117934Y-68736000D01*
X150726000Y-68736000D01*
X150726000Y-68159941D01*
X150783919Y-68193381D01*
X150913120Y-68228000D01*
X151046880Y-68228000D01*
X151176081Y-68193381D01*
X151234000Y-68159941D01*
X151234000Y-68736000D01*
X151842066Y-68736000D01*
X151842069Y-68735999D01*
X152038356Y-68696955D01*
X152038361Y-68696953D01*
X152223255Y-68620367D01*
X152389657Y-68509181D01*
X152389664Y-68509176D01*
X152531176Y-68367664D01*
X152531181Y-68367657D01*
X152642367Y-68201255D01*
X152718953Y-68016361D01*
X152718955Y-68016356D01*
X152727381Y-67974000D01*
X151419942Y-67974000D01*
X151453381Y-67916081D01*
X151488000Y-67786880D01*
X151488000Y-67653120D01*
X151453381Y-67523919D01*
X151419942Y-67466000D01*
X152727381Y-67466000D01*
X152727380Y-67465999D01*
X155732619Y-67465999D01*
X155732619Y-67466000D01*
X157040058Y-67466000D01*
X157006619Y-67523919D01*
X156972000Y-67653120D01*
X156972000Y-67786880D01*
X157006619Y-67916081D01*
X157040058Y-67974000D01*
X155732619Y-67974000D01*
X155741044Y-68016356D01*
X155741046Y-68016361D01*
X155817632Y-68201255D01*
X155928818Y-68367657D01*
X155928823Y-68367664D01*
X156070335Y-68509176D01*
X156070342Y-68509181D01*
X156236744Y-68620367D01*
X156421638Y-68696953D01*
X156421643Y-68696955D01*
X156617930Y-68735999D01*
X156617934Y-68736000D01*
X157226000Y-68736000D01*
X157226000Y-68159941D01*
X157283919Y-68193381D01*
X157413120Y-68228000D01*
X157546880Y-68228000D01*
X157676081Y-68193381D01*
X157734000Y-68159941D01*
X157734000Y-68736000D01*
X158342066Y-68736000D01*
X158342069Y-68735999D01*
X158538356Y-68696955D01*
X158538361Y-68696953D01*
X158723255Y-68620367D01*
X158889657Y-68509181D01*
X158889664Y-68509176D01*
X159031176Y-68367664D01*
X159031181Y-68367657D01*
X159142367Y-68201255D01*
X159218953Y-68016361D01*
X159218955Y-68016356D01*
X159227381Y-67974000D01*
X157919942Y-67974000D01*
X157953381Y-67916081D01*
X157988000Y-67786880D01*
X157988000Y-67653120D01*
X157953381Y-67523919D01*
X157919942Y-67466000D01*
X159227381Y-67466000D01*
X159227380Y-67465999D01*
X159218955Y-67423643D01*
X159218953Y-67423638D01*
X159142367Y-67238744D01*
X159031181Y-67072342D01*
X159031176Y-67072335D01*
X158889664Y-66930823D01*
X158889657Y-66930818D01*
X158723255Y-66819632D01*
X158538361Y-66743046D01*
X158538356Y-66743044D01*
X158342069Y-66704000D01*
X157734000Y-66704000D01*
X157734000Y-67280058D01*
X157676081Y-67246619D01*
X157546880Y-67212000D01*
X157413120Y-67212000D01*
X157283919Y-67246619D01*
X157226000Y-67280058D01*
X157226000Y-66704000D01*
X156617930Y-66704000D01*
X156421643Y-66743044D01*
X156421638Y-66743046D01*
X156236744Y-66819632D01*
X156070342Y-66930818D01*
X156070335Y-66930823D01*
X155928823Y-67072335D01*
X155928818Y-67072342D01*
X155817632Y-67238744D01*
X155741046Y-67423638D01*
X155741044Y-67423643D01*
X155732619Y-67465999D01*
X152727380Y-67465999D01*
X152718955Y-67423643D01*
X152718953Y-67423638D01*
X152642367Y-67238744D01*
X152531181Y-67072342D01*
X152531176Y-67072335D01*
X152389664Y-66930823D01*
X152389657Y-66930818D01*
X152223255Y-66819632D01*
X152038361Y-66743046D01*
X152038356Y-66743044D01*
X151842069Y-66704000D01*
X151234000Y-66704000D01*
X151234000Y-67280058D01*
X151176081Y-67246619D01*
X151046880Y-67212000D01*
X150913120Y-67212000D01*
X150783919Y-67246619D01*
X150726000Y-67280058D01*
X150726000Y-66704000D01*
X150117930Y-66704000D01*
X149921643Y-66743044D01*
X149921638Y-66743046D01*
X149736744Y-66819632D01*
X149570342Y-66930818D01*
X149570335Y-66930823D01*
X149428823Y-67072335D01*
X149428818Y-67072342D01*
X149317632Y-67238744D01*
X149241046Y-67423638D01*
X149241044Y-67423643D01*
X149232619Y-67465999D01*
X137160000Y-67465999D01*
X137160000Y-61086000D01*
X137180002Y-61017879D01*
X137233658Y-60971386D01*
X137286000Y-60960000D01*
X162507810Y-60960000D01*
X162575931Y-60980002D01*
G37*
%TD.AperFunction*%
%TD*%
M02*
