%TF.GenerationSoftware,KiCad,Pcbnew,8.0.8*%
%TF.CreationDate,2025-03-19T13:56:50+00:00*%
%TF.ProjectId,UKMARSBOT_RP2040Mezzanine,554b4d41-5253-4424-9f54-5f5250323034,rev?*%
%TF.SameCoordinates,Original*%
%TF.FileFunction,Soldermask,Bot*%
%TF.FilePolarity,Negative*%
%FSLAX46Y46*%
G04 Gerber Fmt 4.6, Leading zero omitted, Abs format (unit mm)*
G04 Created by KiCad (PCBNEW 8.0.8) date 2025-03-19 13:56:50*
%MOMM*%
%LPD*%
G01*
G04 APERTURE LIST*
%ADD10C,3.200000*%
%ADD11R,1.700000X1.700000*%
%ADD12O,1.700000X1.700000*%
%ADD13O,1.800000X1.800000*%
%ADD14O,1.500000X1.500000*%
%ADD15R,1.800000X1.800000*%
%ADD16C,1.800000*%
%ADD17C,2.000000*%
%ADD18C,1.600000*%
%ADD19O,1.600000X1.600000*%
G04 APERTURE END LIST*
D10*
%TO.C,H4*%
X161290000Y-125730000D03*
%TD*%
%TO.C,H1*%
X111650000Y-74400000D03*
%TD*%
D11*
%TO.C,J2*%
X124460000Y-83820000D03*
D12*
X121920000Y-83820000D03*
X119380000Y-83820000D03*
X116840000Y-83820000D03*
X114300000Y-83820000D03*
X111760000Y-83820000D03*
%TD*%
D10*
%TO.C,H2*%
X111650000Y-128875000D03*
%TD*%
D13*
%TO.C,U1*%
X138245000Y-77600000D03*
D14*
X138545000Y-80630000D03*
X143395000Y-80630000D03*
D13*
X143695000Y-77600000D03*
D12*
X132080000Y-77470000D03*
X132080000Y-80010000D03*
D11*
X132080000Y-82550000D03*
D12*
X132080000Y-85090000D03*
X132080000Y-87630000D03*
X132080000Y-90170000D03*
X132080000Y-92710000D03*
D11*
X132080000Y-95250000D03*
D12*
X132080000Y-97790000D03*
X132080000Y-100330000D03*
X132080000Y-102870000D03*
X132080000Y-105410000D03*
D11*
X132080000Y-107950000D03*
D12*
X132080000Y-110490000D03*
X132080000Y-113030000D03*
X132080000Y-115570000D03*
X132080000Y-118110000D03*
D11*
X132080000Y-120650000D03*
D12*
X132080000Y-123190000D03*
X132080000Y-125730000D03*
X149860000Y-125730000D03*
X149860000Y-123190000D03*
D11*
X149860000Y-120650000D03*
D12*
X149860000Y-118110000D03*
X149860000Y-115570000D03*
X149860000Y-113030000D03*
X149860000Y-110490000D03*
D11*
X149860000Y-107950000D03*
D12*
X149860000Y-105410000D03*
X149860000Y-102870000D03*
X149860000Y-100330000D03*
X149860000Y-97790000D03*
D11*
X149860000Y-95250000D03*
D12*
X149860000Y-92710000D03*
X149860000Y-90170000D03*
X149860000Y-87630000D03*
X149860000Y-85090000D03*
D11*
X149860000Y-82550000D03*
D12*
X149860000Y-80010000D03*
X149860000Y-77470000D03*
X138430000Y-125500000D03*
D11*
X140970000Y-125500000D03*
D12*
X143510000Y-125500000D03*
%TD*%
D10*
%TO.C,H3*%
X161290000Y-77470000D03*
%TD*%
D15*
%TO.C,D1*%
X121920000Y-73660000D03*
D16*
X119380000Y-73660000D03*
%TD*%
D17*
%TO.C,SW2*%
X157480000Y-135310000D03*
X150980000Y-135310000D03*
X157480000Y-130810000D03*
X150980000Y-130810000D03*
%TD*%
D15*
%TO.C,D2*%
X121920000Y-129540000D03*
D16*
X119380000Y-129540000D03*
%TD*%
D17*
%TO.C,SW1*%
X150980000Y-67720000D03*
X157480000Y-67720000D03*
X150980000Y-72220000D03*
X157480000Y-72220000D03*
%TD*%
D18*
%TO.C,R1*%
X112050161Y-94563355D03*
D19*
X112050161Y-86943355D03*
%TD*%
D11*
%TO.C,J5*%
X111760000Y-119380000D03*
D12*
X114300000Y-119380000D03*
X116840000Y-119380000D03*
X119380000Y-119380000D03*
X121920000Y-119380000D03*
X124460000Y-119380000D03*
%TD*%
D18*
%TO.C,R2*%
X127860389Y-113034124D03*
D19*
X127860389Y-120654124D03*
%TD*%
D11*
%TO.C,J4*%
X106680000Y-121920000D03*
D12*
X106680000Y-119380000D03*
X106680000Y-116840000D03*
X106680000Y-114300000D03*
X106680000Y-111760000D03*
X106680000Y-109220000D03*
%TD*%
D11*
%TO.C,J3*%
X106680000Y-81280000D03*
D12*
X106680000Y-83820000D03*
X106680000Y-86360000D03*
X106680000Y-88900000D03*
X106680000Y-91440000D03*
X106680000Y-93980000D03*
%TD*%
D11*
%TO.C,J1*%
X157480000Y-82550000D03*
D12*
X157480000Y-85090000D03*
X157480000Y-87630000D03*
X157480000Y-90170000D03*
X157480000Y-92710000D03*
X157480000Y-95250000D03*
X157480000Y-97790000D03*
X157480000Y-100330000D03*
X157480000Y-102870000D03*
X157480000Y-105410000D03*
X157480000Y-107950000D03*
X157480000Y-110490000D03*
X157480000Y-113030000D03*
X157480000Y-115570000D03*
X157480000Y-118110000D03*
X157480000Y-120650000D03*
%TD*%
M02*
