M48
; DRILL file {KiCad 8.0.8} date 2025-03-19T14:02:54+0000
; FORMAT={-:-/ absolute / inch / decimal}
; #@! TF.CreationDate,2025-03-19T14:02:54+00:00
; #@! TF.GenerationSoftware,Kicad,Pcbnew,8.0.8
; #@! TF.FileFunction,Plated,1,2,PTH
FMAT,2
INCH
; #@! TA.AperFunction,Plated,PTH,ViaDrill
T1C0.0157
; #@! TA.AperFunction,Plated,PTH,ComponentDrill
T2C0.0295
; #@! TA.AperFunction,Plated,PTH,ComponentDrill
T3C0.0315
; #@! TA.AperFunction,Plated,PTH,ComponentDrill
T4C0.0354
; #@! TA.AperFunction,Plated,PTH,ComponentDrill
T5C0.0394
%
G90
G05
T1
X5.8Y-3.4
X6.05Y-4.25
T2
X5.5Y-3.4173
X5.55Y-3.3673
X5.6Y-3.4173
X5.85Y-2.6
X5.9Y-2.55
X5.9Y-2.65
T3
X5.498Y-3.05
X5.5Y-4.5
X5.5Y-4.7
X5.5016Y-2.55
X5.5252Y-4.1998
X5.5965Y-3.05
X5.6Y-2.55
X5.7Y-3.05
X5.7Y-3.25
X5.7Y-3.4
X5.7Y-3.55
X5.7Y-5.15
X5.7Y-5.35
X5.8Y-4.5
X5.8Y-4.7
X5.8252Y-4.1998
X6.0Y-3.05
X6.0Y-3.25
X6.0Y-3.4
X6.0Y-3.55
X6.0Y-5.15
X6.0Y-5.35
X6.4Y-5.15
X6.5Y-2.85
X6.5Y-4.55
X6.5Y-4.75
X6.6Y-3.05
X6.6Y-3.25
X6.7Y-5.15
X6.8Y-2.85
X6.8Y-4.55
X6.8Y-4.75
X6.9Y-3.05
X6.9Y-3.25
T4
X5.8Y-4.0
X5.9Y-4.0
X6.152Y-5.2067
X6.1539Y-5.4311
X6.1559Y-2.5728
X6.1559Y-2.7992
X6.252Y-5.2067
X6.2539Y-5.4311
X6.2559Y-2.5728
X6.2559Y-2.7992
X6.5Y-2.65
X6.5Y-5.35
X6.5554Y-3.7898
X6.5561Y-4.2267
X6.585Y-4.0079
X6.6Y-2.65
X6.6Y-5.35
X6.6554Y-3.7898
X6.6561Y-4.2267
X6.685Y-4.0079
T5
X6.2Y-3.25
X6.2Y-3.35
X6.2Y-3.45
X6.2Y-3.55
X6.2Y-3.65
X6.2Y-3.75
X6.2Y-3.85
X6.2Y-3.95
X6.2Y-4.05
X6.2Y-4.15
X6.2Y-4.25
X6.2Y-4.35
X6.2Y-4.45
X6.2Y-4.55
X6.2Y-4.65
X6.2Y-4.75
M30
