%TF.GenerationSoftware,KiCad,Pcbnew,8.0.8*%
%TF.CreationDate,2025-03-19T14:02:34+00:00*%
%TF.ProjectId,UKMARSBOT_LineSensorBasic,554b4d41-5253-4424-9f54-5f4c696e6553,rev?*%
%TF.SameCoordinates,Original*%
%TF.FileFunction,Soldermask,Top*%
%TF.FilePolarity,Negative*%
%FSLAX46Y46*%
G04 Gerber Fmt 4.6, Leading zero omitted, Abs format (unit mm)*
G04 Created by KiCad (PCBNEW 8.0.8) date 2025-03-19 14:02:34*
%MOMM*%
%LPD*%
G01*
G04 APERTURE LIST*
G04 Aperture macros list*
%AMRoundRect*
0 Rectangle with rounded corners*
0 $1 Rounding radius*
0 $2 $3 $4 $5 $6 $7 $8 $9 X,Y pos of 4 corners*
0 Add a 4 corners polygon primitive as box body*
4,1,4,$2,$3,$4,$5,$6,$7,$8,$9,$2,$3,0*
0 Add four circle primitives for the rounded corners*
1,1,$1+$1,$2,$3*
1,1,$1+$1,$4,$5*
1,1,$1+$1,$6,$7*
1,1,$1+$1,$8,$9*
0 Add four rect primitives between the rounded corners*
20,1,$1+$1,$2,$3,$4,$5,0*
20,1,$1+$1,$4,$5,$6,$7,0*
20,1,$1+$1,$6,$7,$8,$9,0*
20,1,$1+$1,$8,$9,$2,$3,0*%
G04 Aperture macros list end*
%ADD10C,1.600000*%
%ADD11O,1.600000X1.600000*%
%ADD12C,3.200000*%
%ADD13R,1.800000X1.800000*%
%ADD14C,1.800000*%
%ADD15R,1.600000X1.600000*%
%ADD16R,1.100000X1.800000*%
%ADD17RoundRect,0.275000X-0.275000X-0.625000X0.275000X-0.625000X0.275000X0.625000X-0.275000X0.625000X0*%
%ADD18R,1.800000X1.100000*%
%ADD19RoundRect,0.275000X0.625000X-0.275000X0.625000X0.275000X-0.625000X0.275000X-0.625000X-0.275000X0*%
%ADD20R,1.700000X1.700000*%
%ADD21O,1.700000X1.700000*%
G04 APERTURE END LIST*
D10*
%TO.C,R9*%
X165100000Y-120650000D03*
D11*
X172720000Y-120650000D03*
%TD*%
D10*
%TO.C,R7*%
X152400000Y-77470000D03*
D11*
X144780000Y-77470000D03*
%TD*%
D10*
%TO.C,R1*%
X152400000Y-82550000D03*
D11*
X144780000Y-82550000D03*
%TD*%
D12*
%TO.C,H4*%
X161290000Y-125730000D03*
%TD*%
D10*
%TO.C,R2*%
X152400000Y-90170000D03*
D11*
X144780000Y-90170000D03*
%TD*%
D10*
%TO.C,R8*%
X165100000Y-115570000D03*
D11*
X172720000Y-115570000D03*
%TD*%
D13*
%TO.C,D6*%
X167640000Y-135890000D03*
D14*
X165100000Y-135890000D03*
%TD*%
D15*
%TO.C,C2*%
X142150000Y-77470000D03*
D10*
X139650000Y-77470000D03*
%TD*%
%TO.C,R12*%
X170180000Y-130810000D03*
D11*
X162560000Y-130810000D03*
%TD*%
D10*
%TO.C,R3*%
X175260000Y-82550000D03*
D11*
X167640000Y-82550000D03*
%TD*%
D10*
%TO.C,R17*%
X175260000Y-77470000D03*
D11*
X167640000Y-77470000D03*
%TD*%
D10*
%TO.C,R11*%
X147960737Y-106675827D03*
D11*
X140340737Y-106675827D03*
%TD*%
D10*
%TO.C,R16*%
X139700000Y-119380000D03*
D11*
X147320000Y-119380000D03*
%TD*%
D16*
%TO.C,Q1*%
X139700000Y-87200000D03*
D17*
X140970000Y-85130000D03*
X142240000Y-87200000D03*
%TD*%
D10*
%TO.C,R15*%
X147320000Y-114300000D03*
D11*
X139700000Y-114300000D03*
%TD*%
D15*
%TO.C,C1*%
X142240000Y-64770000D03*
D10*
X139740000Y-64770000D03*
%TD*%
%TO.C,R4*%
X144780000Y-86360000D03*
D11*
X152400000Y-86360000D03*
%TD*%
D12*
%TO.C,H3*%
X161290000Y-77470000D03*
%TD*%
D13*
%TO.C,D5*%
X149860000Y-101600000D03*
D14*
X147320000Y-101600000D03*
%TD*%
D10*
%TO.C,R10*%
X165100000Y-72390000D03*
D11*
X172720000Y-72390000D03*
%TD*%
D10*
%TO.C,R14*%
X152400000Y-130810000D03*
D11*
X144780000Y-130810000D03*
%TD*%
D18*
%TO.C,Q6*%
X150260000Y-67310000D03*
D19*
X148190000Y-66040000D03*
X150260000Y-64770000D03*
%TD*%
D20*
%TO.C,J1*%
X157480000Y-82550000D03*
D21*
X157480000Y-85090000D03*
X157480000Y-87630000D03*
X157480000Y-90170000D03*
X157480000Y-92710000D03*
X157480000Y-95250000D03*
X157480000Y-97790000D03*
X157480000Y-100330000D03*
X157480000Y-102870000D03*
X157480000Y-105410000D03*
X157480000Y-107950000D03*
X157480000Y-110490000D03*
X157480000Y-113030000D03*
X157480000Y-115570000D03*
X157480000Y-118110000D03*
X157480000Y-120650000D03*
%TD*%
D10*
%TO.C,R5*%
X152400000Y-135890000D03*
D11*
X144780000Y-135890000D03*
%TD*%
D13*
%TO.C,D4*%
X167640000Y-67310000D03*
D14*
X165100000Y-67310000D03*
%TD*%
D13*
%TO.C,Q2*%
X156260000Y-132250000D03*
D14*
X158800000Y-132250000D03*
%TD*%
D13*
%TO.C,Q4*%
X166524866Y-107357028D03*
D14*
X169064866Y-107357028D03*
%TD*%
D13*
%TO.C,Q3*%
X166506079Y-96261089D03*
D14*
X169046079Y-96261089D03*
%TD*%
D13*
%TO.C,D2*%
X158850000Y-137950000D03*
D14*
X156310000Y-137950000D03*
%TD*%
D13*
%TO.C,D1*%
X169800000Y-101800000D03*
D14*
X167260000Y-101800000D03*
%TD*%
D13*
%TO.C,D7*%
X156360000Y-65350000D03*
D14*
X158900000Y-65350000D03*
%TD*%
D13*
%TO.C,Q5*%
X158900000Y-71100000D03*
D14*
X156360000Y-71100000D03*
%TD*%
M02*
