%TF.GenerationSoftware,KiCad,Pcbnew,8.0.8*%
%TF.CreationDate,2025-07-09T10:34:26+01:00*%
%TF.ProjectId,UKMARSBOT_LineSensorBasic,554b4d41-5253-4424-9f54-5f4c696e6553,rev?*%
%TF.SameCoordinates,Original*%
%TF.FileFunction,Legend,Top*%
%TF.FilePolarity,Positive*%
%FSLAX46Y46*%
G04 Gerber Fmt 4.6, Leading zero omitted, Abs format (unit mm)*
G04 Created by KiCad (PCBNEW 8.0.8) date 2025-07-09 10:34:26*
%MOMM*%
%LPD*%
G01*
G04 APERTURE LIST*
%ADD10C,0.120000*%
%ADD11C,0.150000*%
%ADD12C,0.200000*%
%ADD13C,0.500000*%
G04 APERTURE END LIST*
D10*
X152928456Y-62431602D02*
X152890360Y-62469698D01*
X152890360Y-62469698D02*
X152776075Y-62507793D01*
X152776075Y-62507793D02*
X152699884Y-62507793D01*
X152699884Y-62507793D02*
X152585598Y-62469698D01*
X152585598Y-62469698D02*
X152509408Y-62393507D01*
X152509408Y-62393507D02*
X152471313Y-62317317D01*
X152471313Y-62317317D02*
X152433217Y-62164936D01*
X152433217Y-62164936D02*
X152433217Y-62050650D01*
X152433217Y-62050650D02*
X152471313Y-61898269D01*
X152471313Y-61898269D02*
X152509408Y-61822078D01*
X152509408Y-61822078D02*
X152585598Y-61745888D01*
X152585598Y-61745888D02*
X152699884Y-61707793D01*
X152699884Y-61707793D02*
X152776075Y-61707793D01*
X152776075Y-61707793D02*
X152890360Y-61745888D01*
X152890360Y-61745888D02*
X152928456Y-61783983D01*
D11*
X153901877Y-115652470D02*
X154282830Y-115652470D01*
X153825687Y-115881042D02*
X154092354Y-115081042D01*
X154092354Y-115081042D02*
X154359020Y-115881042D01*
X155006639Y-115081042D02*
X154625687Y-115081042D01*
X154625687Y-115081042D02*
X154587591Y-115461994D01*
X154587591Y-115461994D02*
X154625687Y-115423899D01*
X154625687Y-115423899D02*
X154701877Y-115385804D01*
X154701877Y-115385804D02*
X154892353Y-115385804D01*
X154892353Y-115385804D02*
X154968544Y-115423899D01*
X154968544Y-115423899D02*
X155006639Y-115461994D01*
X155006639Y-115461994D02*
X155044734Y-115538185D01*
X155044734Y-115538185D02*
X155044734Y-115728661D01*
X155044734Y-115728661D02*
X155006639Y-115804851D01*
X155006639Y-115804851D02*
X154968544Y-115842947D01*
X154968544Y-115842947D02*
X154892353Y-115881042D01*
X154892353Y-115881042D02*
X154701877Y-115881042D01*
X154701877Y-115881042D02*
X154625687Y-115842947D01*
X154625687Y-115842947D02*
X154587591Y-115804851D01*
X153983486Y-100651321D02*
X153983486Y-99851321D01*
X153983486Y-99851321D02*
X154173962Y-99851321D01*
X154173962Y-99851321D02*
X154288248Y-99889416D01*
X154288248Y-99889416D02*
X154364438Y-99965606D01*
X154364438Y-99965606D02*
X154402533Y-100041797D01*
X154402533Y-100041797D02*
X154440629Y-100194178D01*
X154440629Y-100194178D02*
X154440629Y-100308464D01*
X154440629Y-100308464D02*
X154402533Y-100460845D01*
X154402533Y-100460845D02*
X154364438Y-100537035D01*
X154364438Y-100537035D02*
X154288248Y-100613226D01*
X154288248Y-100613226D02*
X154173962Y-100651321D01*
X154173962Y-100651321D02*
X153983486Y-100651321D01*
X155126343Y-100117987D02*
X155126343Y-100651321D01*
X154935867Y-99813226D02*
X154745390Y-100384654D01*
X154745390Y-100384654D02*
X155240629Y-100384654D01*
D10*
X169706510Y-136281129D02*
X169706510Y-135481129D01*
X170163653Y-136281129D02*
X169820795Y-135823986D01*
X170163653Y-135481129D02*
X169706510Y-135938272D01*
D11*
X153430417Y-87186725D02*
X153925655Y-87186725D01*
X153925655Y-87186725D02*
X153658989Y-87491487D01*
X153658989Y-87491487D02*
X153773274Y-87491487D01*
X153773274Y-87491487D02*
X153849465Y-87529582D01*
X153849465Y-87529582D02*
X153887560Y-87567677D01*
X153887560Y-87567677D02*
X153925655Y-87643868D01*
X153925655Y-87643868D02*
X153925655Y-87834344D01*
X153925655Y-87834344D02*
X153887560Y-87910534D01*
X153887560Y-87910534D02*
X153849465Y-87948630D01*
X153849465Y-87948630D02*
X153773274Y-87986725D01*
X153773274Y-87986725D02*
X153544703Y-87986725D01*
X153544703Y-87986725D02*
X153468512Y-87948630D01*
X153468512Y-87948630D02*
X153430417Y-87910534D01*
X154192322Y-87453391D02*
X154382798Y-87986725D01*
X154382798Y-87986725D02*
X154573275Y-87453391D01*
X154801846Y-87186725D02*
X155297084Y-87186725D01*
X155297084Y-87186725D02*
X155030418Y-87491487D01*
X155030418Y-87491487D02*
X155144703Y-87491487D01*
X155144703Y-87491487D02*
X155220894Y-87529582D01*
X155220894Y-87529582D02*
X155258989Y-87567677D01*
X155258989Y-87567677D02*
X155297084Y-87643868D01*
X155297084Y-87643868D02*
X155297084Y-87834344D01*
X155297084Y-87834344D02*
X155258989Y-87910534D01*
X155258989Y-87910534D02*
X155220894Y-87948630D01*
X155220894Y-87948630D02*
X155144703Y-87986725D01*
X155144703Y-87986725D02*
X154916132Y-87986725D01*
X154916132Y-87986725D02*
X154839941Y-87948630D01*
X154839941Y-87948630D02*
X154801846Y-87910534D01*
X153901877Y-108037609D02*
X154282830Y-108037609D01*
X153825687Y-108266181D02*
X154092354Y-107466181D01*
X154092354Y-107466181D02*
X154359020Y-108266181D01*
X154587591Y-107542371D02*
X154625687Y-107504276D01*
X154625687Y-107504276D02*
X154701877Y-107466181D01*
X154701877Y-107466181D02*
X154892353Y-107466181D01*
X154892353Y-107466181D02*
X154968544Y-107504276D01*
X154968544Y-107504276D02*
X155006639Y-107542371D01*
X155006639Y-107542371D02*
X155044734Y-107618562D01*
X155044734Y-107618562D02*
X155044734Y-107694752D01*
X155044734Y-107694752D02*
X155006639Y-107809038D01*
X155006639Y-107809038D02*
X154549496Y-108266181D01*
X154549496Y-108266181D02*
X155044734Y-108266181D01*
D10*
X162585985Y-136003030D02*
X162966938Y-136003030D01*
X162509795Y-136231602D02*
X162776462Y-135431602D01*
X162776462Y-135431602D02*
X163043128Y-136231602D01*
D11*
X153945390Y-110691932D02*
X154326343Y-110691932D01*
X153869200Y-110920504D02*
X154135867Y-110120504D01*
X154135867Y-110120504D02*
X154402533Y-110920504D01*
X154593009Y-110120504D02*
X155088247Y-110120504D01*
X155088247Y-110120504D02*
X154821581Y-110425266D01*
X154821581Y-110425266D02*
X154935866Y-110425266D01*
X154935866Y-110425266D02*
X155012057Y-110463361D01*
X155012057Y-110463361D02*
X155050152Y-110501456D01*
X155050152Y-110501456D02*
X155088247Y-110577647D01*
X155088247Y-110577647D02*
X155088247Y-110768123D01*
X155088247Y-110768123D02*
X155050152Y-110844313D01*
X155050152Y-110844313D02*
X155012057Y-110882409D01*
X155012057Y-110882409D02*
X154935866Y-110920504D01*
X154935866Y-110920504D02*
X154707295Y-110920504D01*
X154707295Y-110920504D02*
X154631104Y-110882409D01*
X154631104Y-110882409D02*
X154593009Y-110844313D01*
X153963500Y-93012533D02*
X153963500Y-92212533D01*
X153963500Y-92212533D02*
X154153976Y-92212533D01*
X154153976Y-92212533D02*
X154268262Y-92250628D01*
X154268262Y-92250628D02*
X154344452Y-92326818D01*
X154344452Y-92326818D02*
X154382547Y-92403009D01*
X154382547Y-92403009D02*
X154420643Y-92555390D01*
X154420643Y-92555390D02*
X154420643Y-92669676D01*
X154420643Y-92669676D02*
X154382547Y-92822057D01*
X154382547Y-92822057D02*
X154344452Y-92898247D01*
X154344452Y-92898247D02*
X154268262Y-92974438D01*
X154268262Y-92974438D02*
X154153976Y-93012533D01*
X154153976Y-93012533D02*
X153963500Y-93012533D01*
X155182547Y-93012533D02*
X154725404Y-93012533D01*
X154953976Y-93012533D02*
X154953976Y-92212533D01*
X154953976Y-92212533D02*
X154877785Y-92326818D01*
X154877785Y-92326818D02*
X154801595Y-92403009D01*
X154801595Y-92403009D02*
X154725404Y-92441104D01*
D12*
X170635585Y-62363674D02*
X170037555Y-63231701D01*
X170037555Y-63231701D02*
X171036795Y-62896098D01*
X170706058Y-64039709D02*
X170610712Y-63992306D01*
X170610712Y-63992306D02*
X170496081Y-63840185D01*
X170496081Y-63840185D02*
X170476795Y-63735467D01*
X170476795Y-63735467D02*
X170524198Y-63640121D01*
X170524198Y-63640121D02*
X170828440Y-63410858D01*
X170828440Y-63410858D02*
X170933158Y-63391572D01*
X170933158Y-63391572D02*
X171028504Y-63438975D01*
X171028504Y-63438975D02*
X171143136Y-63591096D01*
X171143136Y-63591096D02*
X171162421Y-63695814D01*
X171162421Y-63695814D02*
X171115019Y-63791160D01*
X171115019Y-63791160D02*
X171038958Y-63848476D01*
X171038958Y-63848476D02*
X170676319Y-63525489D01*
X170954607Y-64448669D02*
X171487030Y-64047459D01*
X171334909Y-64162091D02*
X171439628Y-64142805D01*
X171439628Y-64142805D02*
X171506316Y-64152178D01*
X171506316Y-64152178D02*
X171601662Y-64199580D01*
X171601662Y-64199580D02*
X171658977Y-64275641D01*
X171336531Y-64876375D02*
X171355817Y-64981093D01*
X171355817Y-64981093D02*
X171470448Y-65133214D01*
X171470448Y-65133214D02*
X171565794Y-65180617D01*
X171565794Y-65180617D02*
X171670513Y-65161332D01*
X171670513Y-65161332D02*
X171708543Y-65132674D01*
X171708543Y-65132674D02*
X171755946Y-65037328D01*
X171755946Y-65037328D02*
X171736660Y-64932609D01*
X171736660Y-64932609D02*
X171650687Y-64818519D01*
X171650687Y-64818519D02*
X171631401Y-64713800D01*
X171631401Y-64713800D02*
X171678804Y-64618454D01*
X171678804Y-64618454D02*
X171716834Y-64589796D01*
X171716834Y-64589796D02*
X171821552Y-64570511D01*
X171821552Y-64570511D02*
X171916898Y-64617914D01*
X171916898Y-64617914D02*
X172002872Y-64732004D01*
X172002872Y-64732004D02*
X172022157Y-64836723D01*
X171814343Y-65589578D02*
X172346766Y-65188368D01*
X172612978Y-64987763D02*
X172546290Y-64978390D01*
X172546290Y-64978390D02*
X172536918Y-65045078D01*
X172536918Y-65045078D02*
X172603606Y-65054451D01*
X172603606Y-65054451D02*
X172612978Y-64987763D01*
X172612978Y-64987763D02*
X172536918Y-65045078D01*
X172186895Y-66083971D02*
X172167609Y-65979252D01*
X172167609Y-65979252D02*
X172176982Y-65912564D01*
X172176982Y-65912564D02*
X172224384Y-65817218D01*
X172224384Y-65817218D02*
X172452566Y-65645271D01*
X172452566Y-65645271D02*
X172557284Y-65625986D01*
X172557284Y-65625986D02*
X172623972Y-65635358D01*
X172623972Y-65635358D02*
X172719318Y-65682761D01*
X172719318Y-65682761D02*
X172805292Y-65796851D01*
X172805292Y-65796851D02*
X172824577Y-65901570D01*
X172824577Y-65901570D02*
X172815205Y-65968258D01*
X172815205Y-65968258D02*
X172767802Y-66063604D01*
X172767802Y-66063604D02*
X172539621Y-66235551D01*
X172539621Y-66235551D02*
X172434902Y-66254837D01*
X172434902Y-66254837D02*
X172368214Y-66245464D01*
X172368214Y-66245464D02*
X172272868Y-66198061D01*
X172272868Y-66198061D02*
X172186895Y-66083971D01*
X173177844Y-66291245D02*
X172645420Y-66692455D01*
X173101783Y-66348561D02*
X173168472Y-66357933D01*
X173168472Y-66357933D02*
X173263818Y-66405336D01*
X173263818Y-66405336D02*
X173349791Y-66519427D01*
X173349791Y-66519427D02*
X173369077Y-66624145D01*
X173369077Y-66624145D02*
X173321674Y-66719491D01*
X173321674Y-66719491D02*
X172903341Y-67034727D01*
X174342363Y-67440985D02*
X174409051Y-67450357D01*
X174409051Y-67450357D02*
X174504397Y-67497760D01*
X174504397Y-67497760D02*
X174647686Y-67687911D01*
X174647686Y-67687911D02*
X174666972Y-67792630D01*
X174666972Y-67792630D02*
X174657599Y-67859318D01*
X174657599Y-67859318D02*
X174610196Y-67954664D01*
X174610196Y-67954664D02*
X174534136Y-68011979D01*
X174534136Y-68011979D02*
X174391387Y-68059923D01*
X174391387Y-68059923D02*
X173591130Y-67947454D01*
X173591130Y-67947454D02*
X173963682Y-68441847D01*
X174297663Y-68726804D02*
X174288291Y-68793492D01*
X174288291Y-68793492D02*
X174221603Y-68784120D01*
X174221603Y-68784120D02*
X174230975Y-68717432D01*
X174230975Y-68717432D02*
X174297663Y-68726804D01*
X174297663Y-68726804D02*
X174221603Y-68784120D01*
X175421448Y-68714728D02*
X175478764Y-68790788D01*
X175478764Y-68790788D02*
X175498049Y-68895507D01*
X175498049Y-68895507D02*
X175488677Y-68962195D01*
X175488677Y-68962195D02*
X175441274Y-69057541D01*
X175441274Y-69057541D02*
X175317811Y-69210203D01*
X175317811Y-69210203D02*
X175127660Y-69353492D01*
X175127660Y-69353492D02*
X174946881Y-69430093D01*
X174946881Y-69430093D02*
X174842162Y-69449379D01*
X174842162Y-69449379D02*
X174775474Y-69440006D01*
X174775474Y-69440006D02*
X174680128Y-69392604D01*
X174680128Y-69392604D02*
X174622813Y-69316543D01*
X174622813Y-69316543D02*
X174603527Y-69211825D01*
X174603527Y-69211825D02*
X174612899Y-69145136D01*
X174612899Y-69145136D02*
X174660302Y-69049790D01*
X174660302Y-69049790D02*
X174783765Y-68897129D01*
X174783765Y-68897129D02*
X174973917Y-68753840D01*
X174973917Y-68753840D02*
X175154696Y-68677238D01*
X175154696Y-68677238D02*
X175259414Y-68657953D01*
X175259414Y-68657953D02*
X175326102Y-68667325D01*
X175326102Y-68667325D02*
X175421448Y-68714728D01*
D10*
X152713215Y-64713702D02*
X152827501Y-64751797D01*
X152827501Y-64751797D02*
X152865596Y-64789893D01*
X152865596Y-64789893D02*
X152903692Y-64866083D01*
X152903692Y-64866083D02*
X152903692Y-64980369D01*
X152903692Y-64980369D02*
X152865596Y-65056559D01*
X152865596Y-65056559D02*
X152827501Y-65094655D01*
X152827501Y-65094655D02*
X152751311Y-65132750D01*
X152751311Y-65132750D02*
X152446549Y-65132750D01*
X152446549Y-65132750D02*
X152446549Y-64332750D01*
X152446549Y-64332750D02*
X152713215Y-64332750D01*
X152713215Y-64332750D02*
X152789406Y-64370845D01*
X152789406Y-64370845D02*
X152827501Y-64408940D01*
X152827501Y-64408940D02*
X152865596Y-64485131D01*
X152865596Y-64485131D02*
X152865596Y-64561321D01*
X152865596Y-64561321D02*
X152827501Y-64637512D01*
X152827501Y-64637512D02*
X152789406Y-64675607D01*
X152789406Y-64675607D02*
X152713215Y-64713702D01*
X152713215Y-64713702D02*
X152446549Y-64713702D01*
D11*
X154032417Y-105296259D02*
X154413370Y-105296259D01*
X153956227Y-105524831D02*
X154222894Y-104724831D01*
X154222894Y-104724831D02*
X154489560Y-105524831D01*
X155175274Y-105524831D02*
X154718131Y-105524831D01*
X154946703Y-105524831D02*
X154946703Y-104724831D01*
X154946703Y-104724831D02*
X154870512Y-104839116D01*
X154870512Y-104839116D02*
X154794322Y-104915307D01*
X154794322Y-104915307D02*
X154718131Y-104953402D01*
X154474992Y-82160917D02*
X154094040Y-82160917D01*
X154094040Y-82160917D02*
X154055944Y-82541869D01*
X154055944Y-82541869D02*
X154094040Y-82503774D01*
X154094040Y-82503774D02*
X154170230Y-82465679D01*
X154170230Y-82465679D02*
X154360706Y-82465679D01*
X154360706Y-82465679D02*
X154436897Y-82503774D01*
X154436897Y-82503774D02*
X154474992Y-82541869D01*
X154474992Y-82541869D02*
X154513087Y-82618060D01*
X154513087Y-82618060D02*
X154513087Y-82808536D01*
X154513087Y-82808536D02*
X154474992Y-82884726D01*
X154474992Y-82884726D02*
X154436897Y-82922822D01*
X154436897Y-82922822D02*
X154360706Y-82960917D01*
X154360706Y-82960917D02*
X154170230Y-82960917D01*
X154170230Y-82960917D02*
X154094040Y-82922822D01*
X154094040Y-82922822D02*
X154055944Y-82884726D01*
X154741659Y-82160917D02*
X155008326Y-82960917D01*
X155008326Y-82960917D02*
X155274992Y-82160917D01*
X153814850Y-113041660D02*
X154195803Y-113041660D01*
X153738660Y-113270232D02*
X154005327Y-112470232D01*
X154005327Y-112470232D02*
X154271993Y-113270232D01*
X154881517Y-112736898D02*
X154881517Y-113270232D01*
X154691041Y-112432137D02*
X154500564Y-113003565D01*
X154500564Y-113003565D02*
X154995803Y-113003565D01*
X153898230Y-97973071D02*
X153898230Y-97173071D01*
X153898230Y-97173071D02*
X154088706Y-97173071D01*
X154088706Y-97173071D02*
X154202992Y-97211166D01*
X154202992Y-97211166D02*
X154279182Y-97287356D01*
X154279182Y-97287356D02*
X154317277Y-97363547D01*
X154317277Y-97363547D02*
X154355373Y-97515928D01*
X154355373Y-97515928D02*
X154355373Y-97630214D01*
X154355373Y-97630214D02*
X154317277Y-97782595D01*
X154317277Y-97782595D02*
X154279182Y-97858785D01*
X154279182Y-97858785D02*
X154202992Y-97934976D01*
X154202992Y-97934976D02*
X154088706Y-97973071D01*
X154088706Y-97973071D02*
X153898230Y-97973071D01*
X154622039Y-97173071D02*
X155117277Y-97173071D01*
X155117277Y-97173071D02*
X154850611Y-97477833D01*
X154850611Y-97477833D02*
X154964896Y-97477833D01*
X154964896Y-97477833D02*
X155041087Y-97515928D01*
X155041087Y-97515928D02*
X155079182Y-97554023D01*
X155079182Y-97554023D02*
X155117277Y-97630214D01*
X155117277Y-97630214D02*
X155117277Y-97820690D01*
X155117277Y-97820690D02*
X155079182Y-97896880D01*
X155079182Y-97896880D02*
X155041087Y-97934976D01*
X155041087Y-97934976D02*
X154964896Y-97973071D01*
X154964896Y-97973071D02*
X154736325Y-97973071D01*
X154736325Y-97973071D02*
X154660134Y-97934976D01*
X154660134Y-97934976D02*
X154622039Y-97896880D01*
D13*
X161660761Y-89361903D02*
X161660761Y-88409522D01*
X161660761Y-88409522D02*
X163660761Y-88409522D01*
X161660761Y-90028570D02*
X162994095Y-90028570D01*
X163660761Y-90028570D02*
X163565523Y-89933332D01*
X163565523Y-89933332D02*
X163470285Y-90028570D01*
X163470285Y-90028570D02*
X163565523Y-90123808D01*
X163565523Y-90123808D02*
X163660761Y-90028570D01*
X163660761Y-90028570D02*
X163470285Y-90028570D01*
X162994095Y-90980951D02*
X161660761Y-90980951D01*
X162803619Y-90980951D02*
X162898857Y-91076189D01*
X162898857Y-91076189D02*
X162994095Y-91266665D01*
X162994095Y-91266665D02*
X162994095Y-91552380D01*
X162994095Y-91552380D02*
X162898857Y-91742856D01*
X162898857Y-91742856D02*
X162708380Y-91838094D01*
X162708380Y-91838094D02*
X161660761Y-91838094D01*
X161756000Y-93552380D02*
X161660761Y-93361904D01*
X161660761Y-93361904D02*
X161660761Y-92980951D01*
X161660761Y-92980951D02*
X161756000Y-92790475D01*
X161756000Y-92790475D02*
X161946476Y-92695237D01*
X161946476Y-92695237D02*
X162708380Y-92695237D01*
X162708380Y-92695237D02*
X162898857Y-92790475D01*
X162898857Y-92790475D02*
X162994095Y-92980951D01*
X162994095Y-92980951D02*
X162994095Y-93361904D01*
X162994095Y-93361904D02*
X162898857Y-93552380D01*
X162898857Y-93552380D02*
X162708380Y-93647618D01*
X162708380Y-93647618D02*
X162517904Y-93647618D01*
X162517904Y-93647618D02*
X162327428Y-92695237D01*
X161756000Y-95933333D02*
X161660761Y-96219047D01*
X161660761Y-96219047D02*
X161660761Y-96695238D01*
X161660761Y-96695238D02*
X161756000Y-96885714D01*
X161756000Y-96885714D02*
X161851238Y-96980952D01*
X161851238Y-96980952D02*
X162041714Y-97076190D01*
X162041714Y-97076190D02*
X162232190Y-97076190D01*
X162232190Y-97076190D02*
X162422666Y-96980952D01*
X162422666Y-96980952D02*
X162517904Y-96885714D01*
X162517904Y-96885714D02*
X162613142Y-96695238D01*
X162613142Y-96695238D02*
X162708380Y-96314285D01*
X162708380Y-96314285D02*
X162803619Y-96123809D01*
X162803619Y-96123809D02*
X162898857Y-96028571D01*
X162898857Y-96028571D02*
X163089333Y-95933333D01*
X163089333Y-95933333D02*
X163279809Y-95933333D01*
X163279809Y-95933333D02*
X163470285Y-96028571D01*
X163470285Y-96028571D02*
X163565523Y-96123809D01*
X163565523Y-96123809D02*
X163660761Y-96314285D01*
X163660761Y-96314285D02*
X163660761Y-96790476D01*
X163660761Y-96790476D02*
X163565523Y-97076190D01*
X161756000Y-98695238D02*
X161660761Y-98504762D01*
X161660761Y-98504762D02*
X161660761Y-98123809D01*
X161660761Y-98123809D02*
X161756000Y-97933333D01*
X161756000Y-97933333D02*
X161946476Y-97838095D01*
X161946476Y-97838095D02*
X162708380Y-97838095D01*
X162708380Y-97838095D02*
X162898857Y-97933333D01*
X162898857Y-97933333D02*
X162994095Y-98123809D01*
X162994095Y-98123809D02*
X162994095Y-98504762D01*
X162994095Y-98504762D02*
X162898857Y-98695238D01*
X162898857Y-98695238D02*
X162708380Y-98790476D01*
X162708380Y-98790476D02*
X162517904Y-98790476D01*
X162517904Y-98790476D02*
X162327428Y-97838095D01*
X162994095Y-99647619D02*
X161660761Y-99647619D01*
X162803619Y-99647619D02*
X162898857Y-99742857D01*
X162898857Y-99742857D02*
X162994095Y-99933333D01*
X162994095Y-99933333D02*
X162994095Y-100219048D01*
X162994095Y-100219048D02*
X162898857Y-100409524D01*
X162898857Y-100409524D02*
X162708380Y-100504762D01*
X162708380Y-100504762D02*
X161660761Y-100504762D01*
X161756000Y-101361905D02*
X161660761Y-101552381D01*
X161660761Y-101552381D02*
X161660761Y-101933333D01*
X161660761Y-101933333D02*
X161756000Y-102123810D01*
X161756000Y-102123810D02*
X161946476Y-102219048D01*
X161946476Y-102219048D02*
X162041714Y-102219048D01*
X162041714Y-102219048D02*
X162232190Y-102123810D01*
X162232190Y-102123810D02*
X162327428Y-101933333D01*
X162327428Y-101933333D02*
X162327428Y-101647619D01*
X162327428Y-101647619D02*
X162422666Y-101457143D01*
X162422666Y-101457143D02*
X162613142Y-101361905D01*
X162613142Y-101361905D02*
X162708380Y-101361905D01*
X162708380Y-101361905D02*
X162898857Y-101457143D01*
X162898857Y-101457143D02*
X162994095Y-101647619D01*
X162994095Y-101647619D02*
X162994095Y-101933333D01*
X162994095Y-101933333D02*
X162898857Y-102123810D01*
X161660761Y-103361905D02*
X161756000Y-103171429D01*
X161756000Y-103171429D02*
X161851238Y-103076191D01*
X161851238Y-103076191D02*
X162041714Y-102980953D01*
X162041714Y-102980953D02*
X162613142Y-102980953D01*
X162613142Y-102980953D02*
X162803619Y-103076191D01*
X162803619Y-103076191D02*
X162898857Y-103171429D01*
X162898857Y-103171429D02*
X162994095Y-103361905D01*
X162994095Y-103361905D02*
X162994095Y-103647620D01*
X162994095Y-103647620D02*
X162898857Y-103838096D01*
X162898857Y-103838096D02*
X162803619Y-103933334D01*
X162803619Y-103933334D02*
X162613142Y-104028572D01*
X162613142Y-104028572D02*
X162041714Y-104028572D01*
X162041714Y-104028572D02*
X161851238Y-103933334D01*
X161851238Y-103933334D02*
X161756000Y-103838096D01*
X161756000Y-103838096D02*
X161660761Y-103647620D01*
X161660761Y-103647620D02*
X161660761Y-103361905D01*
X161660761Y-104885715D02*
X162994095Y-104885715D01*
X162613142Y-104885715D02*
X162803619Y-104980953D01*
X162803619Y-104980953D02*
X162898857Y-105076191D01*
X162898857Y-105076191D02*
X162994095Y-105266667D01*
X162994095Y-105266667D02*
X162994095Y-105457144D01*
X162708380Y-108314287D02*
X162613142Y-108600001D01*
X162613142Y-108600001D02*
X162517904Y-108695239D01*
X162517904Y-108695239D02*
X162327428Y-108790477D01*
X162327428Y-108790477D02*
X162041714Y-108790477D01*
X162041714Y-108790477D02*
X161851238Y-108695239D01*
X161851238Y-108695239D02*
X161756000Y-108600001D01*
X161756000Y-108600001D02*
X161660761Y-108409525D01*
X161660761Y-108409525D02*
X161660761Y-107647620D01*
X161660761Y-107647620D02*
X163660761Y-107647620D01*
X163660761Y-107647620D02*
X163660761Y-108314287D01*
X163660761Y-108314287D02*
X163565523Y-108504763D01*
X163565523Y-108504763D02*
X163470285Y-108600001D01*
X163470285Y-108600001D02*
X163279809Y-108695239D01*
X163279809Y-108695239D02*
X163089333Y-108695239D01*
X163089333Y-108695239D02*
X162898857Y-108600001D01*
X162898857Y-108600001D02*
X162803619Y-108504763D01*
X162803619Y-108504763D02*
X162708380Y-108314287D01*
X162708380Y-108314287D02*
X162708380Y-107647620D01*
X161660761Y-110504763D02*
X162708380Y-110504763D01*
X162708380Y-110504763D02*
X162898857Y-110409525D01*
X162898857Y-110409525D02*
X162994095Y-110219049D01*
X162994095Y-110219049D02*
X162994095Y-109838096D01*
X162994095Y-109838096D02*
X162898857Y-109647620D01*
X161756000Y-110504763D02*
X161660761Y-110314287D01*
X161660761Y-110314287D02*
X161660761Y-109838096D01*
X161660761Y-109838096D02*
X161756000Y-109647620D01*
X161756000Y-109647620D02*
X161946476Y-109552382D01*
X161946476Y-109552382D02*
X162136952Y-109552382D01*
X162136952Y-109552382D02*
X162327428Y-109647620D01*
X162327428Y-109647620D02*
X162422666Y-109838096D01*
X162422666Y-109838096D02*
X162422666Y-110314287D01*
X162422666Y-110314287D02*
X162517904Y-110504763D01*
X161756000Y-111361906D02*
X161660761Y-111552382D01*
X161660761Y-111552382D02*
X161660761Y-111933334D01*
X161660761Y-111933334D02*
X161756000Y-112123811D01*
X161756000Y-112123811D02*
X161946476Y-112219049D01*
X161946476Y-112219049D02*
X162041714Y-112219049D01*
X162041714Y-112219049D02*
X162232190Y-112123811D01*
X162232190Y-112123811D02*
X162327428Y-111933334D01*
X162327428Y-111933334D02*
X162327428Y-111647620D01*
X162327428Y-111647620D02*
X162422666Y-111457144D01*
X162422666Y-111457144D02*
X162613142Y-111361906D01*
X162613142Y-111361906D02*
X162708380Y-111361906D01*
X162708380Y-111361906D02*
X162898857Y-111457144D01*
X162898857Y-111457144D02*
X162994095Y-111647620D01*
X162994095Y-111647620D02*
X162994095Y-111933334D01*
X162994095Y-111933334D02*
X162898857Y-112123811D01*
X161660761Y-113076192D02*
X162994095Y-113076192D01*
X163660761Y-113076192D02*
X163565523Y-112980954D01*
X163565523Y-112980954D02*
X163470285Y-113076192D01*
X163470285Y-113076192D02*
X163565523Y-113171430D01*
X163565523Y-113171430D02*
X163660761Y-113076192D01*
X163660761Y-113076192D02*
X163470285Y-113076192D01*
X161756000Y-114885716D02*
X161660761Y-114695240D01*
X161660761Y-114695240D02*
X161660761Y-114314287D01*
X161660761Y-114314287D02*
X161756000Y-114123811D01*
X161756000Y-114123811D02*
X161851238Y-114028573D01*
X161851238Y-114028573D02*
X162041714Y-113933335D01*
X162041714Y-113933335D02*
X162613142Y-113933335D01*
X162613142Y-113933335D02*
X162803619Y-114028573D01*
X162803619Y-114028573D02*
X162898857Y-114123811D01*
X162898857Y-114123811D02*
X162994095Y-114314287D01*
X162994095Y-114314287D02*
X162994095Y-114695240D01*
X162994095Y-114695240D02*
X162898857Y-114885716D01*
D10*
X152446549Y-67437713D02*
X152713215Y-67437713D01*
X152827501Y-67856761D02*
X152446549Y-67856761D01*
X152446549Y-67856761D02*
X152446549Y-67056761D01*
X152446549Y-67056761D02*
X152827501Y-67056761D01*
X138792159Y-93116944D02*
X138754063Y-93155040D01*
X138754063Y-93155040D02*
X138639778Y-93193135D01*
X138639778Y-93193135D02*
X138563587Y-93193135D01*
X138563587Y-93193135D02*
X138449301Y-93155040D01*
X138449301Y-93155040D02*
X138373111Y-93078849D01*
X138373111Y-93078849D02*
X138335016Y-93002659D01*
X138335016Y-93002659D02*
X138296920Y-92850278D01*
X138296920Y-92850278D02*
X138296920Y-92735992D01*
X138296920Y-92735992D02*
X138335016Y-92583611D01*
X138335016Y-92583611D02*
X138373111Y-92507420D01*
X138373111Y-92507420D02*
X138449301Y-92431230D01*
X138449301Y-92431230D02*
X138563587Y-92393135D01*
X138563587Y-92393135D02*
X138639778Y-92393135D01*
X138639778Y-92393135D02*
X138754063Y-92431230D01*
X138754063Y-92431230D02*
X138792159Y-92469325D01*
D12*
X140353889Y-127206899D02*
X140401508Y-127254518D01*
X140401508Y-127254518D02*
X140449127Y-127349756D01*
X140449127Y-127349756D02*
X140449127Y-127587851D01*
X140449127Y-127587851D02*
X140401508Y-127683089D01*
X140401508Y-127683089D02*
X140353889Y-127730708D01*
X140353889Y-127730708D02*
X140258651Y-127778327D01*
X140258651Y-127778327D02*
X140163413Y-127778327D01*
X140163413Y-127778327D02*
X140020556Y-127730708D01*
X140020556Y-127730708D02*
X139449127Y-127159280D01*
X139449127Y-127159280D02*
X139449127Y-127778327D01*
X140449127Y-128397375D02*
X140449127Y-128492613D01*
X140449127Y-128492613D02*
X140401508Y-128587851D01*
X140401508Y-128587851D02*
X140353889Y-128635470D01*
X140353889Y-128635470D02*
X140258651Y-128683089D01*
X140258651Y-128683089D02*
X140068175Y-128730708D01*
X140068175Y-128730708D02*
X139830080Y-128730708D01*
X139830080Y-128730708D02*
X139639604Y-128683089D01*
X139639604Y-128683089D02*
X139544366Y-128635470D01*
X139544366Y-128635470D02*
X139496747Y-128587851D01*
X139496747Y-128587851D02*
X139449127Y-128492613D01*
X139449127Y-128492613D02*
X139449127Y-128397375D01*
X139449127Y-128397375D02*
X139496747Y-128302137D01*
X139496747Y-128302137D02*
X139544366Y-128254518D01*
X139544366Y-128254518D02*
X139639604Y-128206899D01*
X139639604Y-128206899D02*
X139830080Y-128159280D01*
X139830080Y-128159280D02*
X140068175Y-128159280D01*
X140068175Y-128159280D02*
X140258651Y-128206899D01*
X140258651Y-128206899D02*
X140353889Y-128254518D01*
X140353889Y-128254518D02*
X140401508Y-128302137D01*
X140401508Y-128302137D02*
X140449127Y-128397375D01*
X140353889Y-129111661D02*
X140401508Y-129159280D01*
X140401508Y-129159280D02*
X140449127Y-129254518D01*
X140449127Y-129254518D02*
X140449127Y-129492613D01*
X140449127Y-129492613D02*
X140401508Y-129587851D01*
X140401508Y-129587851D02*
X140353889Y-129635470D01*
X140353889Y-129635470D02*
X140258651Y-129683089D01*
X140258651Y-129683089D02*
X140163413Y-129683089D01*
X140163413Y-129683089D02*
X140020556Y-129635470D01*
X140020556Y-129635470D02*
X139449127Y-129064042D01*
X139449127Y-129064042D02*
X139449127Y-129683089D01*
X140449127Y-130587851D02*
X140449127Y-130111661D01*
X140449127Y-130111661D02*
X139972937Y-130064042D01*
X139972937Y-130064042D02*
X140020556Y-130111661D01*
X140020556Y-130111661D02*
X140068175Y-130206899D01*
X140068175Y-130206899D02*
X140068175Y-130444994D01*
X140068175Y-130444994D02*
X140020556Y-130540232D01*
X140020556Y-130540232D02*
X139972937Y-130587851D01*
X139972937Y-130587851D02*
X139877699Y-130635470D01*
X139877699Y-130635470D02*
X139639604Y-130635470D01*
X139639604Y-130635470D02*
X139544366Y-130587851D01*
X139544366Y-130587851D02*
X139496747Y-130540232D01*
X139496747Y-130540232D02*
X139449127Y-130444994D01*
X139449127Y-130444994D02*
X139449127Y-130206899D01*
X139449127Y-130206899D02*
X139496747Y-130111661D01*
X139496747Y-130111661D02*
X139544366Y-130064042D01*
X139830080Y-131064042D02*
X139830080Y-131825947D01*
X140449127Y-132492613D02*
X140449127Y-132587851D01*
X140449127Y-132587851D02*
X140401508Y-132683089D01*
X140401508Y-132683089D02*
X140353889Y-132730708D01*
X140353889Y-132730708D02*
X140258651Y-132778327D01*
X140258651Y-132778327D02*
X140068175Y-132825946D01*
X140068175Y-132825946D02*
X139830080Y-132825946D01*
X139830080Y-132825946D02*
X139639604Y-132778327D01*
X139639604Y-132778327D02*
X139544366Y-132730708D01*
X139544366Y-132730708D02*
X139496747Y-132683089D01*
X139496747Y-132683089D02*
X139449127Y-132587851D01*
X139449127Y-132587851D02*
X139449127Y-132492613D01*
X139449127Y-132492613D02*
X139496747Y-132397375D01*
X139496747Y-132397375D02*
X139544366Y-132349756D01*
X139544366Y-132349756D02*
X139639604Y-132302137D01*
X139639604Y-132302137D02*
X139830080Y-132254518D01*
X139830080Y-132254518D02*
X140068175Y-132254518D01*
X140068175Y-132254518D02*
X140258651Y-132302137D01*
X140258651Y-132302137D02*
X140353889Y-132349756D01*
X140353889Y-132349756D02*
X140401508Y-132397375D01*
X140401508Y-132397375D02*
X140449127Y-132492613D01*
X140449127Y-133159280D02*
X140449127Y-133825946D01*
X140449127Y-133825946D02*
X139449127Y-133397375D01*
X139830080Y-134206899D02*
X139830080Y-134968804D01*
X140449127Y-135635470D02*
X140449127Y-135730708D01*
X140449127Y-135730708D02*
X140401508Y-135825946D01*
X140401508Y-135825946D02*
X140353889Y-135873565D01*
X140353889Y-135873565D02*
X140258651Y-135921184D01*
X140258651Y-135921184D02*
X140068175Y-135968803D01*
X140068175Y-135968803D02*
X139830080Y-135968803D01*
X139830080Y-135968803D02*
X139639604Y-135921184D01*
X139639604Y-135921184D02*
X139544366Y-135873565D01*
X139544366Y-135873565D02*
X139496747Y-135825946D01*
X139496747Y-135825946D02*
X139449127Y-135730708D01*
X139449127Y-135730708D02*
X139449127Y-135635470D01*
X139449127Y-135635470D02*
X139496747Y-135540232D01*
X139496747Y-135540232D02*
X139544366Y-135492613D01*
X139544366Y-135492613D02*
X139639604Y-135444994D01*
X139639604Y-135444994D02*
X139830080Y-135397375D01*
X139830080Y-135397375D02*
X140068175Y-135397375D01*
X140068175Y-135397375D02*
X140258651Y-135444994D01*
X140258651Y-135444994D02*
X140353889Y-135492613D01*
X140353889Y-135492613D02*
X140401508Y-135540232D01*
X140401508Y-135540232D02*
X140449127Y-135635470D01*
X140449127Y-136302137D02*
X140449127Y-136968803D01*
X140449127Y-136968803D02*
X139449127Y-136540232D01*
D11*
X153664574Y-84875092D02*
X153588384Y-84836997D01*
X153588384Y-84836997D02*
X153474098Y-84836997D01*
X153474098Y-84836997D02*
X153359812Y-84875092D01*
X153359812Y-84875092D02*
X153283622Y-84951282D01*
X153283622Y-84951282D02*
X153245527Y-85027473D01*
X153245527Y-85027473D02*
X153207431Y-85179854D01*
X153207431Y-85179854D02*
X153207431Y-85294140D01*
X153207431Y-85294140D02*
X153245527Y-85446521D01*
X153245527Y-85446521D02*
X153283622Y-85522711D01*
X153283622Y-85522711D02*
X153359812Y-85598902D01*
X153359812Y-85598902D02*
X153474098Y-85636997D01*
X153474098Y-85636997D02*
X153550289Y-85636997D01*
X153550289Y-85636997D02*
X153664574Y-85598902D01*
X153664574Y-85598902D02*
X153702670Y-85560806D01*
X153702670Y-85560806D02*
X153702670Y-85294140D01*
X153702670Y-85294140D02*
X153550289Y-85294140D01*
X154045527Y-85636997D02*
X154045527Y-84836997D01*
X154045527Y-84836997D02*
X154502670Y-85636997D01*
X154502670Y-85636997D02*
X154502670Y-84836997D01*
X154883622Y-85636997D02*
X154883622Y-84836997D01*
X154883622Y-84836997D02*
X155074098Y-84836997D01*
X155074098Y-84836997D02*
X155188384Y-84875092D01*
X155188384Y-84875092D02*
X155264574Y-84951282D01*
X155264574Y-84951282D02*
X155302669Y-85027473D01*
X155302669Y-85027473D02*
X155340765Y-85179854D01*
X155340765Y-85179854D02*
X155340765Y-85294140D01*
X155340765Y-85294140D02*
X155302669Y-85446521D01*
X155302669Y-85446521D02*
X155264574Y-85522711D01*
X155264574Y-85522711D02*
X155188384Y-85598902D01*
X155188384Y-85598902D02*
X155074098Y-85636997D01*
X155074098Y-85636997D02*
X154883622Y-85636997D01*
X153988903Y-103033558D02*
X154369856Y-103033558D01*
X153912713Y-103262130D02*
X154179380Y-102462130D01*
X154179380Y-102462130D02*
X154446046Y-103262130D01*
X154865094Y-102462130D02*
X154941284Y-102462130D01*
X154941284Y-102462130D02*
X155017475Y-102500225D01*
X155017475Y-102500225D02*
X155055570Y-102538320D01*
X155055570Y-102538320D02*
X155093665Y-102614511D01*
X155093665Y-102614511D02*
X155131760Y-102766892D01*
X155131760Y-102766892D02*
X155131760Y-102957368D01*
X155131760Y-102957368D02*
X155093665Y-103109749D01*
X155093665Y-103109749D02*
X155055570Y-103185939D01*
X155055570Y-103185939D02*
X155017475Y-103224035D01*
X155017475Y-103224035D02*
X154941284Y-103262130D01*
X154941284Y-103262130D02*
X154865094Y-103262130D01*
X154865094Y-103262130D02*
X154788903Y-103224035D01*
X154788903Y-103224035D02*
X154750808Y-103185939D01*
X154750808Y-103185939D02*
X154712713Y-103109749D01*
X154712713Y-103109749D02*
X154674617Y-102957368D01*
X154674617Y-102957368D02*
X154674617Y-102766892D01*
X154674617Y-102766892D02*
X154712713Y-102614511D01*
X154712713Y-102614511D02*
X154750808Y-102538320D01*
X154750808Y-102538320D02*
X154788903Y-102500225D01*
X154788903Y-102500225D02*
X154865094Y-102462130D01*
X153898230Y-90336454D02*
X153898230Y-89536454D01*
X153898230Y-89536454D02*
X154088706Y-89536454D01*
X154088706Y-89536454D02*
X154202992Y-89574549D01*
X154202992Y-89574549D02*
X154279182Y-89650739D01*
X154279182Y-89650739D02*
X154317277Y-89726930D01*
X154317277Y-89726930D02*
X154355373Y-89879311D01*
X154355373Y-89879311D02*
X154355373Y-89993597D01*
X154355373Y-89993597D02*
X154317277Y-90145978D01*
X154317277Y-90145978D02*
X154279182Y-90222168D01*
X154279182Y-90222168D02*
X154202992Y-90298359D01*
X154202992Y-90298359D02*
X154088706Y-90336454D01*
X154088706Y-90336454D02*
X153898230Y-90336454D01*
X154850611Y-89536454D02*
X154926801Y-89536454D01*
X154926801Y-89536454D02*
X155002992Y-89574549D01*
X155002992Y-89574549D02*
X155041087Y-89612644D01*
X155041087Y-89612644D02*
X155079182Y-89688835D01*
X155079182Y-89688835D02*
X155117277Y-89841216D01*
X155117277Y-89841216D02*
X155117277Y-90031692D01*
X155117277Y-90031692D02*
X155079182Y-90184073D01*
X155079182Y-90184073D02*
X155041087Y-90260263D01*
X155041087Y-90260263D02*
X155002992Y-90298359D01*
X155002992Y-90298359D02*
X154926801Y-90336454D01*
X154926801Y-90336454D02*
X154850611Y-90336454D01*
X154850611Y-90336454D02*
X154774420Y-90298359D01*
X154774420Y-90298359D02*
X154736325Y-90260263D01*
X154736325Y-90260263D02*
X154698230Y-90184073D01*
X154698230Y-90184073D02*
X154660134Y-90031692D01*
X154660134Y-90031692D02*
X154660134Y-89841216D01*
X154660134Y-89841216D02*
X154698230Y-89688835D01*
X154698230Y-89688835D02*
X154736325Y-89612644D01*
X154736325Y-89612644D02*
X154774420Y-89574549D01*
X154774420Y-89574549D02*
X154850611Y-89536454D01*
D10*
X165037595Y-90293695D02*
X165418548Y-90293695D01*
X164961405Y-90522267D02*
X165228072Y-89722267D01*
X165228072Y-89722267D02*
X165494738Y-90522267D01*
D11*
X153963500Y-95427532D02*
X153963500Y-94627532D01*
X153963500Y-94627532D02*
X154153976Y-94627532D01*
X154153976Y-94627532D02*
X154268262Y-94665627D01*
X154268262Y-94665627D02*
X154344452Y-94741817D01*
X154344452Y-94741817D02*
X154382547Y-94818008D01*
X154382547Y-94818008D02*
X154420643Y-94970389D01*
X154420643Y-94970389D02*
X154420643Y-95084675D01*
X154420643Y-95084675D02*
X154382547Y-95237056D01*
X154382547Y-95237056D02*
X154344452Y-95313246D01*
X154344452Y-95313246D02*
X154268262Y-95389437D01*
X154268262Y-95389437D02*
X154153976Y-95427532D01*
X154153976Y-95427532D02*
X153963500Y-95427532D01*
X154725404Y-94703722D02*
X154763500Y-94665627D01*
X154763500Y-94665627D02*
X154839690Y-94627532D01*
X154839690Y-94627532D02*
X155030166Y-94627532D01*
X155030166Y-94627532D02*
X155106357Y-94665627D01*
X155106357Y-94665627D02*
X155144452Y-94703722D01*
X155144452Y-94703722D02*
X155182547Y-94779913D01*
X155182547Y-94779913D02*
X155182547Y-94856103D01*
X155182547Y-94856103D02*
X155144452Y-94970389D01*
X155144452Y-94970389D02*
X154687309Y-95427532D01*
X154687309Y-95427532D02*
X155182547Y-95427532D01*
X152936471Y-118461066D02*
X153050757Y-118499161D01*
X153050757Y-118499161D02*
X153241233Y-118499161D01*
X153241233Y-118499161D02*
X153317424Y-118461066D01*
X153317424Y-118461066D02*
X153355519Y-118422970D01*
X153355519Y-118422970D02*
X153393614Y-118346780D01*
X153393614Y-118346780D02*
X153393614Y-118270589D01*
X153393614Y-118270589D02*
X153355519Y-118194399D01*
X153355519Y-118194399D02*
X153317424Y-118156304D01*
X153317424Y-118156304D02*
X153241233Y-118118208D01*
X153241233Y-118118208D02*
X153088852Y-118080113D01*
X153088852Y-118080113D02*
X153012662Y-118042018D01*
X153012662Y-118042018D02*
X152974567Y-118003923D01*
X152974567Y-118003923D02*
X152936471Y-117927732D01*
X152936471Y-117927732D02*
X152936471Y-117851542D01*
X152936471Y-117851542D02*
X152974567Y-117775351D01*
X152974567Y-117775351D02*
X153012662Y-117737256D01*
X153012662Y-117737256D02*
X153088852Y-117699161D01*
X153088852Y-117699161D02*
X153279329Y-117699161D01*
X153279329Y-117699161D02*
X153393614Y-117737256D01*
X153736472Y-118499161D02*
X153736472Y-117699161D01*
X153736472Y-117699161D02*
X153926948Y-117699161D01*
X153926948Y-117699161D02*
X154041234Y-117737256D01*
X154041234Y-117737256D02*
X154117424Y-117813446D01*
X154117424Y-117813446D02*
X154155519Y-117889637D01*
X154155519Y-117889637D02*
X154193615Y-118042018D01*
X154193615Y-118042018D02*
X154193615Y-118156304D01*
X154193615Y-118156304D02*
X154155519Y-118308685D01*
X154155519Y-118308685D02*
X154117424Y-118384875D01*
X154117424Y-118384875D02*
X154041234Y-118461066D01*
X154041234Y-118461066D02*
X153926948Y-118499161D01*
X153926948Y-118499161D02*
X153736472Y-118499161D01*
X154498376Y-118270589D02*
X154879329Y-118270589D01*
X154422186Y-118499161D02*
X154688853Y-117699161D01*
X154688853Y-117699161D02*
X154955519Y-118499161D01*
D10*
X162589601Y-67419414D02*
X162970554Y-67419414D01*
X162513411Y-67647986D02*
X162780078Y-66847986D01*
X162780078Y-66847986D02*
X163046744Y-67647986D01*
D12*
X142556471Y-123365713D02*
X141556471Y-123651428D01*
X141556471Y-123651428D02*
X142270757Y-123937142D01*
X142270757Y-123937142D02*
X141556471Y-124222856D01*
X141556471Y-124222856D02*
X142556471Y-124508570D01*
X142556471Y-124937142D02*
X141556471Y-125222857D01*
X141556471Y-125222857D02*
X142270757Y-125508571D01*
X142270757Y-125508571D02*
X141556471Y-125794285D01*
X141556471Y-125794285D02*
X142556471Y-126079999D01*
X142556471Y-126508571D02*
X141556471Y-126794286D01*
X141556471Y-126794286D02*
X142270757Y-127080000D01*
X142270757Y-127080000D02*
X141556471Y-127365714D01*
X141556471Y-127365714D02*
X142556471Y-127651428D01*
X141699328Y-128222857D02*
X141627900Y-128294286D01*
X141627900Y-128294286D02*
X141556471Y-128222857D01*
X141556471Y-128222857D02*
X141627900Y-128151429D01*
X141627900Y-128151429D02*
X141699328Y-128222857D01*
X141699328Y-128222857D02*
X141556471Y-128222857D01*
X142556471Y-129580001D02*
X141556471Y-129580001D01*
X142556471Y-128937143D02*
X141770757Y-128937143D01*
X141770757Y-128937143D02*
X141627900Y-129008572D01*
X141627900Y-129008572D02*
X141556471Y-129151429D01*
X141556471Y-129151429D02*
X141556471Y-129365715D01*
X141556471Y-129365715D02*
X141627900Y-129508572D01*
X141627900Y-129508572D02*
X141699328Y-129580001D01*
X141556471Y-130294286D02*
X143056471Y-130294286D01*
X142127900Y-130437144D02*
X141556471Y-130865715D01*
X142556471Y-130865715D02*
X141985042Y-130294286D01*
X141556471Y-131508572D02*
X142556471Y-131508572D01*
X142413614Y-131508572D02*
X142485042Y-131580001D01*
X142485042Y-131580001D02*
X142556471Y-131722858D01*
X142556471Y-131722858D02*
X142556471Y-131937144D01*
X142556471Y-131937144D02*
X142485042Y-132080001D01*
X142485042Y-132080001D02*
X142342185Y-132151430D01*
X142342185Y-132151430D02*
X141556471Y-132151430D01*
X142342185Y-132151430D02*
X142485042Y-132222858D01*
X142485042Y-132222858D02*
X142556471Y-132365715D01*
X142556471Y-132365715D02*
X142556471Y-132580001D01*
X142556471Y-132580001D02*
X142485042Y-132722858D01*
X142485042Y-132722858D02*
X142342185Y-132794287D01*
X142342185Y-132794287D02*
X141556471Y-132794287D01*
X141556471Y-134151430D02*
X142342185Y-134151430D01*
X142342185Y-134151430D02*
X142485042Y-134080001D01*
X142485042Y-134080001D02*
X142556471Y-133937144D01*
X142556471Y-133937144D02*
X142556471Y-133651430D01*
X142556471Y-133651430D02*
X142485042Y-133508572D01*
X141627900Y-134151430D02*
X141556471Y-134008572D01*
X141556471Y-134008572D02*
X141556471Y-133651430D01*
X141556471Y-133651430D02*
X141627900Y-133508572D01*
X141627900Y-133508572D02*
X141770757Y-133437144D01*
X141770757Y-133437144D02*
X141913614Y-133437144D01*
X141913614Y-133437144D02*
X142056471Y-133508572D01*
X142056471Y-133508572D02*
X142127900Y-133651430D01*
X142127900Y-133651430D02*
X142127900Y-134008572D01*
X142127900Y-134008572D02*
X142199328Y-134151430D01*
X141556471Y-134865715D02*
X142556471Y-134865715D01*
X142270757Y-134865715D02*
X142413614Y-134937144D01*
X142413614Y-134937144D02*
X142485042Y-135008573D01*
X142485042Y-135008573D02*
X142556471Y-135151430D01*
X142556471Y-135151430D02*
X142556471Y-135294287D01*
X141627900Y-135722858D02*
X141556471Y-135865715D01*
X141556471Y-135865715D02*
X141556471Y-136151429D01*
X141556471Y-136151429D02*
X141627900Y-136294286D01*
X141627900Y-136294286D02*
X141770757Y-136365715D01*
X141770757Y-136365715D02*
X141842185Y-136365715D01*
X141842185Y-136365715D02*
X141985042Y-136294286D01*
X141985042Y-136294286D02*
X142056471Y-136151429D01*
X142056471Y-136151429D02*
X142056471Y-135937144D01*
X142056471Y-135937144D02*
X142127900Y-135794286D01*
X142127900Y-135794286D02*
X142270757Y-135722858D01*
X142270757Y-135722858D02*
X142342185Y-135722858D01*
X142342185Y-135722858D02*
X142485042Y-135794286D01*
X142485042Y-135794286D02*
X142556471Y-135937144D01*
X142556471Y-135937144D02*
X142556471Y-136151429D01*
X142556471Y-136151429D02*
X142485042Y-136294286D01*
X141699328Y-137008572D02*
X141627900Y-137080001D01*
X141627900Y-137080001D02*
X141556471Y-137008572D01*
X141556471Y-137008572D02*
X141627900Y-136937144D01*
X141627900Y-136937144D02*
X141699328Y-137008572D01*
X141699328Y-137008572D02*
X141556471Y-137008572D01*
X141556471Y-137937144D02*
X141627900Y-137794287D01*
X141627900Y-137794287D02*
X141699328Y-137722858D01*
X141699328Y-137722858D02*
X141842185Y-137651430D01*
X141842185Y-137651430D02*
X142270757Y-137651430D01*
X142270757Y-137651430D02*
X142413614Y-137722858D01*
X142413614Y-137722858D02*
X142485042Y-137794287D01*
X142485042Y-137794287D02*
X142556471Y-137937144D01*
X142556471Y-137937144D02*
X142556471Y-138151430D01*
X142556471Y-138151430D02*
X142485042Y-138294287D01*
X142485042Y-138294287D02*
X142413614Y-138365716D01*
X142413614Y-138365716D02*
X142270757Y-138437144D01*
X142270757Y-138437144D02*
X141842185Y-138437144D01*
X141842185Y-138437144D02*
X141699328Y-138365716D01*
X141699328Y-138365716D02*
X141627900Y-138294287D01*
X141627900Y-138294287D02*
X141556471Y-138151430D01*
X141556471Y-138151430D02*
X141556471Y-137937144D01*
X141556471Y-139080001D02*
X142556471Y-139080001D01*
X142270757Y-139080001D02*
X142413614Y-139151430D01*
X142413614Y-139151430D02*
X142485042Y-139222859D01*
X142485042Y-139222859D02*
X142556471Y-139365716D01*
X142556471Y-139365716D02*
X142556471Y-139508573D01*
X142556471Y-140651430D02*
X141342185Y-140651430D01*
X141342185Y-140651430D02*
X141199328Y-140580001D01*
X141199328Y-140580001D02*
X141127900Y-140508572D01*
X141127900Y-140508572D02*
X141056471Y-140365715D01*
X141056471Y-140365715D02*
X141056471Y-140151430D01*
X141056471Y-140151430D02*
X141127900Y-140008572D01*
X141627900Y-140651430D02*
X141556471Y-140508572D01*
X141556471Y-140508572D02*
X141556471Y-140222858D01*
X141556471Y-140222858D02*
X141627900Y-140080001D01*
X141627900Y-140080001D02*
X141699328Y-140008572D01*
X141699328Y-140008572D02*
X141842185Y-139937144D01*
X141842185Y-139937144D02*
X142270757Y-139937144D01*
X142270757Y-139937144D02*
X142413614Y-140008572D01*
X142413614Y-140008572D02*
X142485042Y-140080001D01*
X142485042Y-140080001D02*
X142556471Y-140222858D01*
X142556471Y-140222858D02*
X142556471Y-140508572D01*
X142556471Y-140508572D02*
X142485042Y-140651430D01*
D13*
X175090761Y-90266666D02*
X173471714Y-90266666D01*
X173471714Y-90266666D02*
X173281238Y-90361904D01*
X173281238Y-90361904D02*
X173186000Y-90457142D01*
X173186000Y-90457142D02*
X173090761Y-90647618D01*
X173090761Y-90647618D02*
X173090761Y-91028571D01*
X173090761Y-91028571D02*
X173186000Y-91219047D01*
X173186000Y-91219047D02*
X173281238Y-91314285D01*
X173281238Y-91314285D02*
X173471714Y-91409523D01*
X173471714Y-91409523D02*
X175090761Y-91409523D01*
X173090761Y-92361904D02*
X175090761Y-92361904D01*
X173090761Y-93504761D02*
X174233619Y-92647618D01*
X175090761Y-93504761D02*
X173947904Y-92361904D01*
X173090761Y-94361904D02*
X175090761Y-94361904D01*
X175090761Y-94361904D02*
X173662190Y-95028571D01*
X173662190Y-95028571D02*
X175090761Y-95695237D01*
X175090761Y-95695237D02*
X173090761Y-95695237D01*
X173662190Y-96552380D02*
X173662190Y-97504761D01*
X173090761Y-96361904D02*
X175090761Y-97028570D01*
X175090761Y-97028570D02*
X173090761Y-97695237D01*
X173090761Y-99504761D02*
X174043142Y-98838094D01*
X173090761Y-98361904D02*
X175090761Y-98361904D01*
X175090761Y-98361904D02*
X175090761Y-99123809D01*
X175090761Y-99123809D02*
X174995523Y-99314285D01*
X174995523Y-99314285D02*
X174900285Y-99409523D01*
X174900285Y-99409523D02*
X174709809Y-99504761D01*
X174709809Y-99504761D02*
X174424095Y-99504761D01*
X174424095Y-99504761D02*
X174233619Y-99409523D01*
X174233619Y-99409523D02*
X174138380Y-99314285D01*
X174138380Y-99314285D02*
X174043142Y-99123809D01*
X174043142Y-99123809D02*
X174043142Y-98361904D01*
X173186000Y-100266666D02*
X173090761Y-100552380D01*
X173090761Y-100552380D02*
X173090761Y-101028571D01*
X173090761Y-101028571D02*
X173186000Y-101219047D01*
X173186000Y-101219047D02*
X173281238Y-101314285D01*
X173281238Y-101314285D02*
X173471714Y-101409523D01*
X173471714Y-101409523D02*
X173662190Y-101409523D01*
X173662190Y-101409523D02*
X173852666Y-101314285D01*
X173852666Y-101314285D02*
X173947904Y-101219047D01*
X173947904Y-101219047D02*
X174043142Y-101028571D01*
X174043142Y-101028571D02*
X174138380Y-100647618D01*
X174138380Y-100647618D02*
X174233619Y-100457142D01*
X174233619Y-100457142D02*
X174328857Y-100361904D01*
X174328857Y-100361904D02*
X174519333Y-100266666D01*
X174519333Y-100266666D02*
X174709809Y-100266666D01*
X174709809Y-100266666D02*
X174900285Y-100361904D01*
X174900285Y-100361904D02*
X174995523Y-100457142D01*
X174995523Y-100457142D02*
X175090761Y-100647618D01*
X175090761Y-100647618D02*
X175090761Y-101123809D01*
X175090761Y-101123809D02*
X174995523Y-101409523D01*
X174995523Y-104838095D02*
X175090761Y-104647619D01*
X175090761Y-104647619D02*
X175090761Y-104361905D01*
X175090761Y-104361905D02*
X174995523Y-104076190D01*
X174995523Y-104076190D02*
X174805047Y-103885714D01*
X174805047Y-103885714D02*
X174614571Y-103790476D01*
X174614571Y-103790476D02*
X174233619Y-103695238D01*
X174233619Y-103695238D02*
X173947904Y-103695238D01*
X173947904Y-103695238D02*
X173566952Y-103790476D01*
X173566952Y-103790476D02*
X173376476Y-103885714D01*
X173376476Y-103885714D02*
X173186000Y-104076190D01*
X173186000Y-104076190D02*
X173090761Y-104361905D01*
X173090761Y-104361905D02*
X173090761Y-104552381D01*
X173090761Y-104552381D02*
X173186000Y-104838095D01*
X173186000Y-104838095D02*
X173281238Y-104933333D01*
X173281238Y-104933333D02*
X173947904Y-104933333D01*
X173947904Y-104933333D02*
X173947904Y-104552381D01*
X173186000Y-106552381D02*
X173090761Y-106361905D01*
X173090761Y-106361905D02*
X173090761Y-105980952D01*
X173090761Y-105980952D02*
X173186000Y-105790476D01*
X173186000Y-105790476D02*
X173376476Y-105695238D01*
X173376476Y-105695238D02*
X174138380Y-105695238D01*
X174138380Y-105695238D02*
X174328857Y-105790476D01*
X174328857Y-105790476D02*
X174424095Y-105980952D01*
X174424095Y-105980952D02*
X174424095Y-106361905D01*
X174424095Y-106361905D02*
X174328857Y-106552381D01*
X174328857Y-106552381D02*
X174138380Y-106647619D01*
X174138380Y-106647619D02*
X173947904Y-106647619D01*
X173947904Y-106647619D02*
X173757428Y-105695238D01*
X173090761Y-107504762D02*
X174424095Y-107504762D01*
X174233619Y-107504762D02*
X174328857Y-107600000D01*
X174328857Y-107600000D02*
X174424095Y-107790476D01*
X174424095Y-107790476D02*
X174424095Y-108076191D01*
X174424095Y-108076191D02*
X174328857Y-108266667D01*
X174328857Y-108266667D02*
X174138380Y-108361905D01*
X174138380Y-108361905D02*
X173090761Y-108361905D01*
X174138380Y-108361905D02*
X174328857Y-108457143D01*
X174328857Y-108457143D02*
X174424095Y-108647619D01*
X174424095Y-108647619D02*
X174424095Y-108933333D01*
X174424095Y-108933333D02*
X174328857Y-109123810D01*
X174328857Y-109123810D02*
X174138380Y-109219048D01*
X174138380Y-109219048D02*
X173090761Y-109219048D01*
X173090761Y-110171429D02*
X174424095Y-110171429D01*
X175090761Y-110171429D02*
X174995523Y-110076191D01*
X174995523Y-110076191D02*
X174900285Y-110171429D01*
X174900285Y-110171429D02*
X174995523Y-110266667D01*
X174995523Y-110266667D02*
X175090761Y-110171429D01*
X175090761Y-110171429D02*
X174900285Y-110171429D01*
X174424095Y-111123810D02*
X173090761Y-111123810D01*
X174233619Y-111123810D02*
X174328857Y-111219048D01*
X174328857Y-111219048D02*
X174424095Y-111409524D01*
X174424095Y-111409524D02*
X174424095Y-111695239D01*
X174424095Y-111695239D02*
X174328857Y-111885715D01*
X174328857Y-111885715D02*
X174138380Y-111980953D01*
X174138380Y-111980953D02*
X173090761Y-111980953D01*
X173090761Y-112933334D02*
X174424095Y-112933334D01*
X175090761Y-112933334D02*
X174995523Y-112838096D01*
X174995523Y-112838096D02*
X174900285Y-112933334D01*
X174900285Y-112933334D02*
X174995523Y-113028572D01*
X174995523Y-113028572D02*
X175090761Y-112933334D01*
X175090761Y-112933334D02*
X174900285Y-112933334D01*
D10*
X138601682Y-90173894D02*
X138715968Y-90211989D01*
X138715968Y-90211989D02*
X138754063Y-90250085D01*
X138754063Y-90250085D02*
X138792159Y-90326275D01*
X138792159Y-90326275D02*
X138792159Y-90440561D01*
X138792159Y-90440561D02*
X138754063Y-90516751D01*
X138754063Y-90516751D02*
X138715968Y-90554847D01*
X138715968Y-90554847D02*
X138639778Y-90592942D01*
X138639778Y-90592942D02*
X138335016Y-90592942D01*
X138335016Y-90592942D02*
X138335016Y-89792942D01*
X138335016Y-89792942D02*
X138601682Y-89792942D01*
X138601682Y-89792942D02*
X138677873Y-89831037D01*
X138677873Y-89831037D02*
X138715968Y-89869132D01*
X138715968Y-89869132D02*
X138754063Y-89945323D01*
X138754063Y-89945323D02*
X138754063Y-90021513D01*
X138754063Y-90021513D02*
X138715968Y-90097704D01*
X138715968Y-90097704D02*
X138677873Y-90135799D01*
X138677873Y-90135799D02*
X138601682Y-90173894D01*
X138601682Y-90173894D02*
X138335016Y-90173894D01*
X138297870Y-87722284D02*
X138564536Y-87722284D01*
X138678822Y-88141332D02*
X138297870Y-88141332D01*
X138297870Y-88141332D02*
X138297870Y-87341332D01*
X138297870Y-87341332D02*
X138678822Y-87341332D01*
D11*
X153067011Y-121071875D02*
X153181297Y-121109970D01*
X153181297Y-121109970D02*
X153371773Y-121109970D01*
X153371773Y-121109970D02*
X153447964Y-121071875D01*
X153447964Y-121071875D02*
X153486059Y-121033779D01*
X153486059Y-121033779D02*
X153524154Y-120957589D01*
X153524154Y-120957589D02*
X153524154Y-120881398D01*
X153524154Y-120881398D02*
X153486059Y-120805208D01*
X153486059Y-120805208D02*
X153447964Y-120767113D01*
X153447964Y-120767113D02*
X153371773Y-120729017D01*
X153371773Y-120729017D02*
X153219392Y-120690922D01*
X153219392Y-120690922D02*
X153143202Y-120652827D01*
X153143202Y-120652827D02*
X153105107Y-120614732D01*
X153105107Y-120614732D02*
X153067011Y-120538541D01*
X153067011Y-120538541D02*
X153067011Y-120462351D01*
X153067011Y-120462351D02*
X153105107Y-120386160D01*
X153105107Y-120386160D02*
X153143202Y-120348065D01*
X153143202Y-120348065D02*
X153219392Y-120309970D01*
X153219392Y-120309970D02*
X153409869Y-120309970D01*
X153409869Y-120309970D02*
X153524154Y-120348065D01*
X154324155Y-121033779D02*
X154286059Y-121071875D01*
X154286059Y-121071875D02*
X154171774Y-121109970D01*
X154171774Y-121109970D02*
X154095583Y-121109970D01*
X154095583Y-121109970D02*
X153981297Y-121071875D01*
X153981297Y-121071875D02*
X153905107Y-120995684D01*
X153905107Y-120995684D02*
X153867012Y-120919494D01*
X153867012Y-120919494D02*
X153828916Y-120767113D01*
X153828916Y-120767113D02*
X153828916Y-120652827D01*
X153828916Y-120652827D02*
X153867012Y-120500446D01*
X153867012Y-120500446D02*
X153905107Y-120424255D01*
X153905107Y-120424255D02*
X153981297Y-120348065D01*
X153981297Y-120348065D02*
X154095583Y-120309970D01*
X154095583Y-120309970D02*
X154171774Y-120309970D01*
X154171774Y-120309970D02*
X154286059Y-120348065D01*
X154286059Y-120348065D02*
X154324155Y-120386160D01*
X155047964Y-121109970D02*
X154667012Y-121109970D01*
X154667012Y-121109970D02*
X154667012Y-120309970D01*
D10*
X172158120Y-90571794D02*
X172158120Y-89771794D01*
X172615263Y-90571794D02*
X172272405Y-90114651D01*
X172615263Y-89771794D02*
X172158120Y-90228937D01*
X169710126Y-67697513D02*
X169710126Y-66897513D01*
X170167269Y-67697513D02*
X169824411Y-67240370D01*
X170167269Y-66897513D02*
X169710126Y-67354656D01*
D11*
X168790355Y-124137108D02*
X168457022Y-123660917D01*
X168218927Y-124137108D02*
X168218927Y-123137108D01*
X168218927Y-123137108D02*
X168599879Y-123137108D01*
X168599879Y-123137108D02*
X168695117Y-123184727D01*
X168695117Y-123184727D02*
X168742736Y-123232346D01*
X168742736Y-123232346D02*
X168790355Y-123327584D01*
X168790355Y-123327584D02*
X168790355Y-123470441D01*
X168790355Y-123470441D02*
X168742736Y-123565679D01*
X168742736Y-123565679D02*
X168695117Y-123613298D01*
X168695117Y-123613298D02*
X168599879Y-123660917D01*
X168599879Y-123660917D02*
X168218927Y-123660917D01*
X169266546Y-124137108D02*
X169457022Y-124137108D01*
X169457022Y-124137108D02*
X169552260Y-124089489D01*
X169552260Y-124089489D02*
X169599879Y-124041869D01*
X169599879Y-124041869D02*
X169695117Y-123899012D01*
X169695117Y-123899012D02*
X169742736Y-123708536D01*
X169742736Y-123708536D02*
X169742736Y-123327584D01*
X169742736Y-123327584D02*
X169695117Y-123232346D01*
X169695117Y-123232346D02*
X169647498Y-123184727D01*
X169647498Y-123184727D02*
X169552260Y-123137108D01*
X169552260Y-123137108D02*
X169361784Y-123137108D01*
X169361784Y-123137108D02*
X169266546Y-123184727D01*
X169266546Y-123184727D02*
X169218927Y-123232346D01*
X169218927Y-123232346D02*
X169171308Y-123327584D01*
X169171308Y-123327584D02*
X169171308Y-123565679D01*
X169171308Y-123565679D02*
X169218927Y-123660917D01*
X169218927Y-123660917D02*
X169266546Y-123708536D01*
X169266546Y-123708536D02*
X169361784Y-123756155D01*
X169361784Y-123756155D02*
X169552260Y-123756155D01*
X169552260Y-123756155D02*
X169647498Y-123708536D01*
X169647498Y-123708536D02*
X169695117Y-123660917D01*
X169695117Y-123660917D02*
X169742736Y-123565679D01*
X147947142Y-80294819D02*
X147613809Y-79818628D01*
X147375714Y-80294819D02*
X147375714Y-79294819D01*
X147375714Y-79294819D02*
X147756666Y-79294819D01*
X147756666Y-79294819D02*
X147851904Y-79342438D01*
X147851904Y-79342438D02*
X147899523Y-79390057D01*
X147899523Y-79390057D02*
X147947142Y-79485295D01*
X147947142Y-79485295D02*
X147947142Y-79628152D01*
X147947142Y-79628152D02*
X147899523Y-79723390D01*
X147899523Y-79723390D02*
X147851904Y-79771009D01*
X147851904Y-79771009D02*
X147756666Y-79818628D01*
X147756666Y-79818628D02*
X147375714Y-79818628D01*
X148899523Y-80294819D02*
X148328095Y-80294819D01*
X148613809Y-80294819D02*
X148613809Y-79294819D01*
X148613809Y-79294819D02*
X148518571Y-79437676D01*
X148518571Y-79437676D02*
X148423333Y-79532914D01*
X148423333Y-79532914D02*
X148328095Y-79580533D01*
X149756666Y-79628152D02*
X149756666Y-80294819D01*
X149518571Y-79247200D02*
X149280476Y-79961485D01*
X149280476Y-79961485D02*
X149899523Y-79961485D01*
X149693333Y-83004819D02*
X149360000Y-82528628D01*
X149121905Y-83004819D02*
X149121905Y-82004819D01*
X149121905Y-82004819D02*
X149502857Y-82004819D01*
X149502857Y-82004819D02*
X149598095Y-82052438D01*
X149598095Y-82052438D02*
X149645714Y-82100057D01*
X149645714Y-82100057D02*
X149693333Y-82195295D01*
X149693333Y-82195295D02*
X149693333Y-82338152D01*
X149693333Y-82338152D02*
X149645714Y-82433390D01*
X149645714Y-82433390D02*
X149598095Y-82481009D01*
X149598095Y-82481009D02*
X149502857Y-82528628D01*
X149502857Y-82528628D02*
X149121905Y-82528628D01*
X150645714Y-83004819D02*
X150074286Y-83004819D01*
X150360000Y-83004819D02*
X150360000Y-82004819D01*
X150360000Y-82004819D02*
X150264762Y-82147676D01*
X150264762Y-82147676D02*
X150169524Y-82242914D01*
X150169524Y-82242914D02*
X150074286Y-82290533D01*
X148423333Y-92994819D02*
X148090000Y-92518628D01*
X147851905Y-92994819D02*
X147851905Y-91994819D01*
X147851905Y-91994819D02*
X148232857Y-91994819D01*
X148232857Y-91994819D02*
X148328095Y-92042438D01*
X148328095Y-92042438D02*
X148375714Y-92090057D01*
X148375714Y-92090057D02*
X148423333Y-92185295D01*
X148423333Y-92185295D02*
X148423333Y-92328152D01*
X148423333Y-92328152D02*
X148375714Y-92423390D01*
X148375714Y-92423390D02*
X148328095Y-92471009D01*
X148328095Y-92471009D02*
X148232857Y-92518628D01*
X148232857Y-92518628D02*
X147851905Y-92518628D01*
X148804286Y-92090057D02*
X148851905Y-92042438D01*
X148851905Y-92042438D02*
X148947143Y-91994819D01*
X148947143Y-91994819D02*
X149185238Y-91994819D01*
X149185238Y-91994819D02*
X149280476Y-92042438D01*
X149280476Y-92042438D02*
X149328095Y-92090057D01*
X149328095Y-92090057D02*
X149375714Y-92185295D01*
X149375714Y-92185295D02*
X149375714Y-92280533D01*
X149375714Y-92280533D02*
X149328095Y-92423390D01*
X149328095Y-92423390D02*
X148756667Y-92994819D01*
X148756667Y-92994819D02*
X149375714Y-92994819D01*
X168743333Y-113654819D02*
X168410000Y-113178628D01*
X168171905Y-113654819D02*
X168171905Y-112654819D01*
X168171905Y-112654819D02*
X168552857Y-112654819D01*
X168552857Y-112654819D02*
X168648095Y-112702438D01*
X168648095Y-112702438D02*
X168695714Y-112750057D01*
X168695714Y-112750057D02*
X168743333Y-112845295D01*
X168743333Y-112845295D02*
X168743333Y-112988152D01*
X168743333Y-112988152D02*
X168695714Y-113083390D01*
X168695714Y-113083390D02*
X168648095Y-113131009D01*
X168648095Y-113131009D02*
X168552857Y-113178628D01*
X168552857Y-113178628D02*
X168171905Y-113178628D01*
X169314762Y-113083390D02*
X169219524Y-113035771D01*
X169219524Y-113035771D02*
X169171905Y-112988152D01*
X169171905Y-112988152D02*
X169124286Y-112892914D01*
X169124286Y-112892914D02*
X169124286Y-112845295D01*
X169124286Y-112845295D02*
X169171905Y-112750057D01*
X169171905Y-112750057D02*
X169219524Y-112702438D01*
X169219524Y-112702438D02*
X169314762Y-112654819D01*
X169314762Y-112654819D02*
X169505238Y-112654819D01*
X169505238Y-112654819D02*
X169600476Y-112702438D01*
X169600476Y-112702438D02*
X169648095Y-112750057D01*
X169648095Y-112750057D02*
X169695714Y-112845295D01*
X169695714Y-112845295D02*
X169695714Y-112892914D01*
X169695714Y-112892914D02*
X169648095Y-112988152D01*
X169648095Y-112988152D02*
X169600476Y-113035771D01*
X169600476Y-113035771D02*
X169505238Y-113083390D01*
X169505238Y-113083390D02*
X169314762Y-113083390D01*
X169314762Y-113083390D02*
X169219524Y-113131009D01*
X169219524Y-113131009D02*
X169171905Y-113178628D01*
X169171905Y-113178628D02*
X169124286Y-113273866D01*
X169124286Y-113273866D02*
X169124286Y-113464342D01*
X169124286Y-113464342D02*
X169171905Y-113559580D01*
X169171905Y-113559580D02*
X169219524Y-113607200D01*
X169219524Y-113607200D02*
X169314762Y-113654819D01*
X169314762Y-113654819D02*
X169505238Y-113654819D01*
X169505238Y-113654819D02*
X169600476Y-113607200D01*
X169600476Y-113607200D02*
X169648095Y-113559580D01*
X169648095Y-113559580D02*
X169695714Y-113464342D01*
X169695714Y-113464342D02*
X169695714Y-113273866D01*
X169695714Y-113273866D02*
X169648095Y-113178628D01*
X169648095Y-113178628D02*
X169600476Y-113131009D01*
X169600476Y-113131009D02*
X169505238Y-113083390D01*
X165631905Y-140304819D02*
X165631905Y-139304819D01*
X165631905Y-139304819D02*
X165870000Y-139304819D01*
X165870000Y-139304819D02*
X166012857Y-139352438D01*
X166012857Y-139352438D02*
X166108095Y-139447676D01*
X166108095Y-139447676D02*
X166155714Y-139542914D01*
X166155714Y-139542914D02*
X166203333Y-139733390D01*
X166203333Y-139733390D02*
X166203333Y-139876247D01*
X166203333Y-139876247D02*
X166155714Y-140066723D01*
X166155714Y-140066723D02*
X166108095Y-140161961D01*
X166108095Y-140161961D02*
X166012857Y-140257200D01*
X166012857Y-140257200D02*
X165870000Y-140304819D01*
X165870000Y-140304819D02*
X165631905Y-140304819D01*
X167060476Y-139304819D02*
X166870000Y-139304819D01*
X166870000Y-139304819D02*
X166774762Y-139352438D01*
X166774762Y-139352438D02*
X166727143Y-139400057D01*
X166727143Y-139400057D02*
X166631905Y-139542914D01*
X166631905Y-139542914D02*
X166584286Y-139733390D01*
X166584286Y-139733390D02*
X166584286Y-140114342D01*
X166584286Y-140114342D02*
X166631905Y-140209580D01*
X166631905Y-140209580D02*
X166679524Y-140257200D01*
X166679524Y-140257200D02*
X166774762Y-140304819D01*
X166774762Y-140304819D02*
X166965238Y-140304819D01*
X166965238Y-140304819D02*
X167060476Y-140257200D01*
X167060476Y-140257200D02*
X167108095Y-140209580D01*
X167108095Y-140209580D02*
X167155714Y-140114342D01*
X167155714Y-140114342D02*
X167155714Y-139876247D01*
X167155714Y-139876247D02*
X167108095Y-139781009D01*
X167108095Y-139781009D02*
X167060476Y-139733390D01*
X167060476Y-139733390D02*
X166965238Y-139685771D01*
X166965238Y-139685771D02*
X166774762Y-139685771D01*
X166774762Y-139685771D02*
X166679524Y-139733390D01*
X166679524Y-139733390D02*
X166631905Y-139781009D01*
X166631905Y-139781009D02*
X166584286Y-139876247D01*
X140733333Y-74279580D02*
X140685714Y-74327200D01*
X140685714Y-74327200D02*
X140542857Y-74374819D01*
X140542857Y-74374819D02*
X140447619Y-74374819D01*
X140447619Y-74374819D02*
X140304762Y-74327200D01*
X140304762Y-74327200D02*
X140209524Y-74231961D01*
X140209524Y-74231961D02*
X140161905Y-74136723D01*
X140161905Y-74136723D02*
X140114286Y-73946247D01*
X140114286Y-73946247D02*
X140114286Y-73803390D01*
X140114286Y-73803390D02*
X140161905Y-73612914D01*
X140161905Y-73612914D02*
X140209524Y-73517676D01*
X140209524Y-73517676D02*
X140304762Y-73422438D01*
X140304762Y-73422438D02*
X140447619Y-73374819D01*
X140447619Y-73374819D02*
X140542857Y-73374819D01*
X140542857Y-73374819D02*
X140685714Y-73422438D01*
X140685714Y-73422438D02*
X140733333Y-73470057D01*
X141114286Y-73470057D02*
X141161905Y-73422438D01*
X141161905Y-73422438D02*
X141257143Y-73374819D01*
X141257143Y-73374819D02*
X141495238Y-73374819D01*
X141495238Y-73374819D02*
X141590476Y-73422438D01*
X141590476Y-73422438D02*
X141638095Y-73470057D01*
X141638095Y-73470057D02*
X141685714Y-73565295D01*
X141685714Y-73565295D02*
X141685714Y-73660533D01*
X141685714Y-73660533D02*
X141638095Y-73803390D01*
X141638095Y-73803390D02*
X141066667Y-74374819D01*
X141066667Y-74374819D02*
X141685714Y-74374819D01*
X166017142Y-128814819D02*
X165683809Y-128338628D01*
X165445714Y-128814819D02*
X165445714Y-127814819D01*
X165445714Y-127814819D02*
X165826666Y-127814819D01*
X165826666Y-127814819D02*
X165921904Y-127862438D01*
X165921904Y-127862438D02*
X165969523Y-127910057D01*
X165969523Y-127910057D02*
X166017142Y-128005295D01*
X166017142Y-128005295D02*
X166017142Y-128148152D01*
X166017142Y-128148152D02*
X165969523Y-128243390D01*
X165969523Y-128243390D02*
X165921904Y-128291009D01*
X165921904Y-128291009D02*
X165826666Y-128338628D01*
X165826666Y-128338628D02*
X165445714Y-128338628D01*
X166969523Y-128814819D02*
X166398095Y-128814819D01*
X166683809Y-128814819D02*
X166683809Y-127814819D01*
X166683809Y-127814819D02*
X166588571Y-127957676D01*
X166588571Y-127957676D02*
X166493333Y-128052914D01*
X166493333Y-128052914D02*
X166398095Y-128100533D01*
X167350476Y-127910057D02*
X167398095Y-127862438D01*
X167398095Y-127862438D02*
X167493333Y-127814819D01*
X167493333Y-127814819D02*
X167731428Y-127814819D01*
X167731428Y-127814819D02*
X167826666Y-127862438D01*
X167826666Y-127862438D02*
X167874285Y-127910057D01*
X167874285Y-127910057D02*
X167921904Y-128005295D01*
X167921904Y-128005295D02*
X167921904Y-128100533D01*
X167921904Y-128100533D02*
X167874285Y-128243390D01*
X167874285Y-128243390D02*
X167302857Y-128814819D01*
X167302857Y-128814819D02*
X167921904Y-128814819D01*
X164933333Y-81734819D02*
X164600000Y-81258628D01*
X164361905Y-81734819D02*
X164361905Y-80734819D01*
X164361905Y-80734819D02*
X164742857Y-80734819D01*
X164742857Y-80734819D02*
X164838095Y-80782438D01*
X164838095Y-80782438D02*
X164885714Y-80830057D01*
X164885714Y-80830057D02*
X164933333Y-80925295D01*
X164933333Y-80925295D02*
X164933333Y-81068152D01*
X164933333Y-81068152D02*
X164885714Y-81163390D01*
X164885714Y-81163390D02*
X164838095Y-81211009D01*
X164838095Y-81211009D02*
X164742857Y-81258628D01*
X164742857Y-81258628D02*
X164361905Y-81258628D01*
X165266667Y-80734819D02*
X165885714Y-80734819D01*
X165885714Y-80734819D02*
X165552381Y-81115771D01*
X165552381Y-81115771D02*
X165695238Y-81115771D01*
X165695238Y-81115771D02*
X165790476Y-81163390D01*
X165790476Y-81163390D02*
X165838095Y-81211009D01*
X165838095Y-81211009D02*
X165885714Y-81306247D01*
X165885714Y-81306247D02*
X165885714Y-81544342D01*
X165885714Y-81544342D02*
X165838095Y-81639580D01*
X165838095Y-81639580D02*
X165790476Y-81687200D01*
X165790476Y-81687200D02*
X165695238Y-81734819D01*
X165695238Y-81734819D02*
X165409524Y-81734819D01*
X165409524Y-81734819D02*
X165314286Y-81687200D01*
X165314286Y-81687200D02*
X165266667Y-81639580D01*
X165573477Y-75758026D02*
X165240144Y-75281835D01*
X165002049Y-75758026D02*
X165002049Y-74758026D01*
X165002049Y-74758026D02*
X165383001Y-74758026D01*
X165383001Y-74758026D02*
X165478239Y-74805645D01*
X165478239Y-74805645D02*
X165525858Y-74853264D01*
X165525858Y-74853264D02*
X165573477Y-74948502D01*
X165573477Y-74948502D02*
X165573477Y-75091359D01*
X165573477Y-75091359D02*
X165525858Y-75186597D01*
X165525858Y-75186597D02*
X165478239Y-75234216D01*
X165478239Y-75234216D02*
X165383001Y-75281835D01*
X165383001Y-75281835D02*
X165002049Y-75281835D01*
X166525858Y-75758026D02*
X165954430Y-75758026D01*
X166240144Y-75758026D02*
X166240144Y-74758026D01*
X166240144Y-74758026D02*
X166144906Y-74900883D01*
X166144906Y-74900883D02*
X166049668Y-74996121D01*
X166049668Y-74996121D02*
X165954430Y-75043740D01*
X166859192Y-74758026D02*
X167525858Y-74758026D01*
X167525858Y-74758026D02*
X167097287Y-75758026D01*
X172077142Y-85544819D02*
X171743809Y-85068628D01*
X171505714Y-85544819D02*
X171505714Y-84544819D01*
X171505714Y-84544819D02*
X171886666Y-84544819D01*
X171886666Y-84544819D02*
X171981904Y-84592438D01*
X171981904Y-84592438D02*
X172029523Y-84640057D01*
X172029523Y-84640057D02*
X172077142Y-84735295D01*
X172077142Y-84735295D02*
X172077142Y-84878152D01*
X172077142Y-84878152D02*
X172029523Y-84973390D01*
X172029523Y-84973390D02*
X171981904Y-85021009D01*
X171981904Y-85021009D02*
X171886666Y-85068628D01*
X171886666Y-85068628D02*
X171505714Y-85068628D01*
X173029523Y-85544819D02*
X172458095Y-85544819D01*
X172743809Y-85544819D02*
X172743809Y-84544819D01*
X172743809Y-84544819D02*
X172648571Y-84687676D01*
X172648571Y-84687676D02*
X172553333Y-84782914D01*
X172553333Y-84782914D02*
X172458095Y-84830533D01*
X173981904Y-85544819D02*
X173410476Y-85544819D01*
X173696190Y-85544819D02*
X173696190Y-84544819D01*
X173696190Y-84544819D02*
X173600952Y-84687676D01*
X173600952Y-84687676D02*
X173505714Y-84782914D01*
X173505714Y-84782914D02*
X173410476Y-84830533D01*
X142877142Y-122384819D02*
X142543809Y-121908628D01*
X142305714Y-122384819D02*
X142305714Y-121384819D01*
X142305714Y-121384819D02*
X142686666Y-121384819D01*
X142686666Y-121384819D02*
X142781904Y-121432438D01*
X142781904Y-121432438D02*
X142829523Y-121480057D01*
X142829523Y-121480057D02*
X142877142Y-121575295D01*
X142877142Y-121575295D02*
X142877142Y-121718152D01*
X142877142Y-121718152D02*
X142829523Y-121813390D01*
X142829523Y-121813390D02*
X142781904Y-121861009D01*
X142781904Y-121861009D02*
X142686666Y-121908628D01*
X142686666Y-121908628D02*
X142305714Y-121908628D01*
X143829523Y-122384819D02*
X143258095Y-122384819D01*
X143543809Y-122384819D02*
X143543809Y-121384819D01*
X143543809Y-121384819D02*
X143448571Y-121527676D01*
X143448571Y-121527676D02*
X143353333Y-121622914D01*
X143353333Y-121622914D02*
X143258095Y-121670533D01*
X144686666Y-121384819D02*
X144496190Y-121384819D01*
X144496190Y-121384819D02*
X144400952Y-121432438D01*
X144400952Y-121432438D02*
X144353333Y-121480057D01*
X144353333Y-121480057D02*
X144258095Y-121622914D01*
X144258095Y-121622914D02*
X144210476Y-121813390D01*
X144210476Y-121813390D02*
X144210476Y-122194342D01*
X144210476Y-122194342D02*
X144258095Y-122289580D01*
X144258095Y-122289580D02*
X144305714Y-122337200D01*
X144305714Y-122337200D02*
X144400952Y-122384819D01*
X144400952Y-122384819D02*
X144591428Y-122384819D01*
X144591428Y-122384819D02*
X144686666Y-122337200D01*
X144686666Y-122337200D02*
X144734285Y-122289580D01*
X144734285Y-122289580D02*
X144781904Y-122194342D01*
X144781904Y-122194342D02*
X144781904Y-121956247D01*
X144781904Y-121956247D02*
X144734285Y-121861009D01*
X144734285Y-121861009D02*
X144686666Y-121813390D01*
X144686666Y-121813390D02*
X144591428Y-121765771D01*
X144591428Y-121765771D02*
X144400952Y-121765771D01*
X144400952Y-121765771D02*
X144305714Y-121813390D01*
X144305714Y-121813390D02*
X144258095Y-121861009D01*
X144258095Y-121861009D02*
X144210476Y-121956247D01*
X145080057Y-90265238D02*
X145032438Y-90360476D01*
X145032438Y-90360476D02*
X144937200Y-90455714D01*
X144937200Y-90455714D02*
X144794342Y-90598571D01*
X144794342Y-90598571D02*
X144746723Y-90693809D01*
X144746723Y-90693809D02*
X144746723Y-90789047D01*
X144984819Y-90741428D02*
X144937200Y-90836666D01*
X144937200Y-90836666D02*
X144841961Y-90931904D01*
X144841961Y-90931904D02*
X144651485Y-90979523D01*
X144651485Y-90979523D02*
X144318152Y-90979523D01*
X144318152Y-90979523D02*
X144127676Y-90931904D01*
X144127676Y-90931904D02*
X144032438Y-90836666D01*
X144032438Y-90836666D02*
X143984819Y-90741428D01*
X143984819Y-90741428D02*
X143984819Y-90550952D01*
X143984819Y-90550952D02*
X144032438Y-90455714D01*
X144032438Y-90455714D02*
X144127676Y-90360476D01*
X144127676Y-90360476D02*
X144318152Y-90312857D01*
X144318152Y-90312857D02*
X144651485Y-90312857D01*
X144651485Y-90312857D02*
X144841961Y-90360476D01*
X144841961Y-90360476D02*
X144937200Y-90455714D01*
X144937200Y-90455714D02*
X144984819Y-90550952D01*
X144984819Y-90550952D02*
X144984819Y-90741428D01*
X144984819Y-89360476D02*
X144984819Y-89931904D01*
X144984819Y-89646190D02*
X143984819Y-89646190D01*
X143984819Y-89646190D02*
X144127676Y-89741428D01*
X144127676Y-89741428D02*
X144222914Y-89836666D01*
X144222914Y-89836666D02*
X144270533Y-89931904D01*
X142867142Y-117124819D02*
X142533809Y-116648628D01*
X142295714Y-117124819D02*
X142295714Y-116124819D01*
X142295714Y-116124819D02*
X142676666Y-116124819D01*
X142676666Y-116124819D02*
X142771904Y-116172438D01*
X142771904Y-116172438D02*
X142819523Y-116220057D01*
X142819523Y-116220057D02*
X142867142Y-116315295D01*
X142867142Y-116315295D02*
X142867142Y-116458152D01*
X142867142Y-116458152D02*
X142819523Y-116553390D01*
X142819523Y-116553390D02*
X142771904Y-116601009D01*
X142771904Y-116601009D02*
X142676666Y-116648628D01*
X142676666Y-116648628D02*
X142295714Y-116648628D01*
X143819523Y-117124819D02*
X143248095Y-117124819D01*
X143533809Y-117124819D02*
X143533809Y-116124819D01*
X143533809Y-116124819D02*
X143438571Y-116267676D01*
X143438571Y-116267676D02*
X143343333Y-116362914D01*
X143343333Y-116362914D02*
X143248095Y-116410533D01*
X144724285Y-116124819D02*
X144248095Y-116124819D01*
X144248095Y-116124819D02*
X144200476Y-116601009D01*
X144200476Y-116601009D02*
X144248095Y-116553390D01*
X144248095Y-116553390D02*
X144343333Y-116505771D01*
X144343333Y-116505771D02*
X144581428Y-116505771D01*
X144581428Y-116505771D02*
X144676666Y-116553390D01*
X144676666Y-116553390D02*
X144724285Y-116601009D01*
X144724285Y-116601009D02*
X144771904Y-116696247D01*
X144771904Y-116696247D02*
X144771904Y-116934342D01*
X144771904Y-116934342D02*
X144724285Y-117029580D01*
X144724285Y-117029580D02*
X144676666Y-117077200D01*
X144676666Y-117077200D02*
X144581428Y-117124819D01*
X144581428Y-117124819D02*
X144343333Y-117124819D01*
X144343333Y-117124819D02*
X144248095Y-117077200D01*
X144248095Y-117077200D02*
X144200476Y-117029580D01*
X140773333Y-68939580D02*
X140725714Y-68987200D01*
X140725714Y-68987200D02*
X140582857Y-69034819D01*
X140582857Y-69034819D02*
X140487619Y-69034819D01*
X140487619Y-69034819D02*
X140344762Y-68987200D01*
X140344762Y-68987200D02*
X140249524Y-68891961D01*
X140249524Y-68891961D02*
X140201905Y-68796723D01*
X140201905Y-68796723D02*
X140154286Y-68606247D01*
X140154286Y-68606247D02*
X140154286Y-68463390D01*
X140154286Y-68463390D02*
X140201905Y-68272914D01*
X140201905Y-68272914D02*
X140249524Y-68177676D01*
X140249524Y-68177676D02*
X140344762Y-68082438D01*
X140344762Y-68082438D02*
X140487619Y-68034819D01*
X140487619Y-68034819D02*
X140582857Y-68034819D01*
X140582857Y-68034819D02*
X140725714Y-68082438D01*
X140725714Y-68082438D02*
X140773333Y-68130057D01*
X141725714Y-69034819D02*
X141154286Y-69034819D01*
X141440000Y-69034819D02*
X141440000Y-68034819D01*
X141440000Y-68034819D02*
X141344762Y-68177676D01*
X141344762Y-68177676D02*
X141249524Y-68272914D01*
X141249524Y-68272914D02*
X141154286Y-68320533D01*
X148423333Y-86814819D02*
X148090000Y-86338628D01*
X147851905Y-86814819D02*
X147851905Y-85814819D01*
X147851905Y-85814819D02*
X148232857Y-85814819D01*
X148232857Y-85814819D02*
X148328095Y-85862438D01*
X148328095Y-85862438D02*
X148375714Y-85910057D01*
X148375714Y-85910057D02*
X148423333Y-86005295D01*
X148423333Y-86005295D02*
X148423333Y-86148152D01*
X148423333Y-86148152D02*
X148375714Y-86243390D01*
X148375714Y-86243390D02*
X148328095Y-86291009D01*
X148328095Y-86291009D02*
X148232857Y-86338628D01*
X148232857Y-86338628D02*
X147851905Y-86338628D01*
X149280476Y-86148152D02*
X149280476Y-86814819D01*
X149042381Y-85767200D02*
X148804286Y-86481485D01*
X148804286Y-86481485D02*
X149423333Y-86481485D01*
X164361905Y-93164819D02*
X164361905Y-92164819D01*
X164361905Y-92164819D02*
X164600000Y-92164819D01*
X164600000Y-92164819D02*
X164742857Y-92212438D01*
X164742857Y-92212438D02*
X164838095Y-92307676D01*
X164838095Y-92307676D02*
X164885714Y-92402914D01*
X164885714Y-92402914D02*
X164933333Y-92593390D01*
X164933333Y-92593390D02*
X164933333Y-92736247D01*
X164933333Y-92736247D02*
X164885714Y-92926723D01*
X164885714Y-92926723D02*
X164838095Y-93021961D01*
X164838095Y-93021961D02*
X164742857Y-93117200D01*
X164742857Y-93117200D02*
X164600000Y-93164819D01*
X164600000Y-93164819D02*
X164361905Y-93164819D01*
X165838095Y-92164819D02*
X165361905Y-92164819D01*
X165361905Y-92164819D02*
X165314286Y-92641009D01*
X165314286Y-92641009D02*
X165361905Y-92593390D01*
X165361905Y-92593390D02*
X165457143Y-92545771D01*
X165457143Y-92545771D02*
X165695238Y-92545771D01*
X165695238Y-92545771D02*
X165790476Y-92593390D01*
X165790476Y-92593390D02*
X165838095Y-92641009D01*
X165838095Y-92641009D02*
X165885714Y-92736247D01*
X165885714Y-92736247D02*
X165885714Y-92974342D01*
X165885714Y-92974342D02*
X165838095Y-93069580D01*
X165838095Y-93069580D02*
X165790476Y-93117200D01*
X165790476Y-93117200D02*
X165695238Y-93164819D01*
X165695238Y-93164819D02*
X165457143Y-93164819D01*
X165457143Y-93164819D02*
X165361905Y-93117200D01*
X165361905Y-93117200D02*
X165314286Y-93069580D01*
X161917142Y-72844819D02*
X161583809Y-72368628D01*
X161345714Y-72844819D02*
X161345714Y-71844819D01*
X161345714Y-71844819D02*
X161726666Y-71844819D01*
X161726666Y-71844819D02*
X161821904Y-71892438D01*
X161821904Y-71892438D02*
X161869523Y-71940057D01*
X161869523Y-71940057D02*
X161917142Y-72035295D01*
X161917142Y-72035295D02*
X161917142Y-72178152D01*
X161917142Y-72178152D02*
X161869523Y-72273390D01*
X161869523Y-72273390D02*
X161821904Y-72321009D01*
X161821904Y-72321009D02*
X161726666Y-72368628D01*
X161726666Y-72368628D02*
X161345714Y-72368628D01*
X162869523Y-72844819D02*
X162298095Y-72844819D01*
X162583809Y-72844819D02*
X162583809Y-71844819D01*
X162583809Y-71844819D02*
X162488571Y-71987676D01*
X162488571Y-71987676D02*
X162393333Y-72082914D01*
X162393333Y-72082914D02*
X162298095Y-72130533D01*
X163488571Y-71844819D02*
X163583809Y-71844819D01*
X163583809Y-71844819D02*
X163679047Y-71892438D01*
X163679047Y-71892438D02*
X163726666Y-71940057D01*
X163726666Y-71940057D02*
X163774285Y-72035295D01*
X163774285Y-72035295D02*
X163821904Y-72225771D01*
X163821904Y-72225771D02*
X163821904Y-72463866D01*
X163821904Y-72463866D02*
X163774285Y-72654342D01*
X163774285Y-72654342D02*
X163726666Y-72749580D01*
X163726666Y-72749580D02*
X163679047Y-72797200D01*
X163679047Y-72797200D02*
X163583809Y-72844819D01*
X163583809Y-72844819D02*
X163488571Y-72844819D01*
X163488571Y-72844819D02*
X163393333Y-72797200D01*
X163393333Y-72797200D02*
X163345714Y-72749580D01*
X163345714Y-72749580D02*
X163298095Y-72654342D01*
X163298095Y-72654342D02*
X163250476Y-72463866D01*
X163250476Y-72463866D02*
X163250476Y-72225771D01*
X163250476Y-72225771D02*
X163298095Y-72035295D01*
X163298095Y-72035295D02*
X163345714Y-71940057D01*
X163345714Y-71940057D02*
X163393333Y-71892438D01*
X163393333Y-71892438D02*
X163488571Y-71844819D01*
X148423333Y-133634819D02*
X148090000Y-133158628D01*
X147851905Y-133634819D02*
X147851905Y-132634819D01*
X147851905Y-132634819D02*
X148232857Y-132634819D01*
X148232857Y-132634819D02*
X148328095Y-132682438D01*
X148328095Y-132682438D02*
X148375714Y-132730057D01*
X148375714Y-132730057D02*
X148423333Y-132825295D01*
X148423333Y-132825295D02*
X148423333Y-132968152D01*
X148423333Y-132968152D02*
X148375714Y-133063390D01*
X148375714Y-133063390D02*
X148328095Y-133111009D01*
X148328095Y-133111009D02*
X148232857Y-133158628D01*
X148232857Y-133158628D02*
X147851905Y-133158628D01*
X148756667Y-132634819D02*
X149423333Y-132634819D01*
X149423333Y-132634819D02*
X148994762Y-133634819D01*
X146850057Y-64865238D02*
X146802438Y-64960476D01*
X146802438Y-64960476D02*
X146707200Y-65055714D01*
X146707200Y-65055714D02*
X146564342Y-65198571D01*
X146564342Y-65198571D02*
X146516723Y-65293809D01*
X146516723Y-65293809D02*
X146516723Y-65389047D01*
X146754819Y-65341428D02*
X146707200Y-65436666D01*
X146707200Y-65436666D02*
X146611961Y-65531904D01*
X146611961Y-65531904D02*
X146421485Y-65579523D01*
X146421485Y-65579523D02*
X146088152Y-65579523D01*
X146088152Y-65579523D02*
X145897676Y-65531904D01*
X145897676Y-65531904D02*
X145802438Y-65436666D01*
X145802438Y-65436666D02*
X145754819Y-65341428D01*
X145754819Y-65341428D02*
X145754819Y-65150952D01*
X145754819Y-65150952D02*
X145802438Y-65055714D01*
X145802438Y-65055714D02*
X145897676Y-64960476D01*
X145897676Y-64960476D02*
X146088152Y-64912857D01*
X146088152Y-64912857D02*
X146421485Y-64912857D01*
X146421485Y-64912857D02*
X146611961Y-64960476D01*
X146611961Y-64960476D02*
X146707200Y-65055714D01*
X146707200Y-65055714D02*
X146754819Y-65150952D01*
X146754819Y-65150952D02*
X146754819Y-65341428D01*
X145754819Y-64055714D02*
X145754819Y-64246190D01*
X145754819Y-64246190D02*
X145802438Y-64341428D01*
X145802438Y-64341428D02*
X145850057Y-64389047D01*
X145850057Y-64389047D02*
X145992914Y-64484285D01*
X145992914Y-64484285D02*
X146183390Y-64531904D01*
X146183390Y-64531904D02*
X146564342Y-64531904D01*
X146564342Y-64531904D02*
X146659580Y-64484285D01*
X146659580Y-64484285D02*
X146707200Y-64436666D01*
X146707200Y-64436666D02*
X146754819Y-64341428D01*
X146754819Y-64341428D02*
X146754819Y-64150952D01*
X146754819Y-64150952D02*
X146707200Y-64055714D01*
X146707200Y-64055714D02*
X146659580Y-64008095D01*
X146659580Y-64008095D02*
X146564342Y-63960476D01*
X146564342Y-63960476D02*
X146326247Y-63960476D01*
X146326247Y-63960476D02*
X146231009Y-64008095D01*
X146231009Y-64008095D02*
X146183390Y-64055714D01*
X146183390Y-64055714D02*
X146135771Y-64150952D01*
X146135771Y-64150952D02*
X146135771Y-64341428D01*
X146135771Y-64341428D02*
X146183390Y-64436666D01*
X146183390Y-64436666D02*
X146231009Y-64484285D01*
X146231009Y-64484285D02*
X146326247Y-64531904D01*
X157146666Y-79234819D02*
X157146666Y-79949104D01*
X157146666Y-79949104D02*
X157099047Y-80091961D01*
X157099047Y-80091961D02*
X157003809Y-80187200D01*
X157003809Y-80187200D02*
X156860952Y-80234819D01*
X156860952Y-80234819D02*
X156765714Y-80234819D01*
X158146666Y-80234819D02*
X157575238Y-80234819D01*
X157860952Y-80234819D02*
X157860952Y-79234819D01*
X157860952Y-79234819D02*
X157765714Y-79377676D01*
X157765714Y-79377676D02*
X157670476Y-79472914D01*
X157670476Y-79472914D02*
X157575238Y-79520533D01*
X148423333Y-138714819D02*
X148090000Y-138238628D01*
X147851905Y-138714819D02*
X147851905Y-137714819D01*
X147851905Y-137714819D02*
X148232857Y-137714819D01*
X148232857Y-137714819D02*
X148328095Y-137762438D01*
X148328095Y-137762438D02*
X148375714Y-137810057D01*
X148375714Y-137810057D02*
X148423333Y-137905295D01*
X148423333Y-137905295D02*
X148423333Y-138048152D01*
X148423333Y-138048152D02*
X148375714Y-138143390D01*
X148375714Y-138143390D02*
X148328095Y-138191009D01*
X148328095Y-138191009D02*
X148232857Y-138238628D01*
X148232857Y-138238628D02*
X147851905Y-138238628D01*
X149328095Y-137714819D02*
X148851905Y-137714819D01*
X148851905Y-137714819D02*
X148804286Y-138191009D01*
X148804286Y-138191009D02*
X148851905Y-138143390D01*
X148851905Y-138143390D02*
X148947143Y-138095771D01*
X148947143Y-138095771D02*
X149185238Y-138095771D01*
X149185238Y-138095771D02*
X149280476Y-138143390D01*
X149280476Y-138143390D02*
X149328095Y-138191009D01*
X149328095Y-138191009D02*
X149375714Y-138286247D01*
X149375714Y-138286247D02*
X149375714Y-138524342D01*
X149375714Y-138524342D02*
X149328095Y-138619580D01*
X149328095Y-138619580D02*
X149280476Y-138667200D01*
X149280476Y-138667200D02*
X149185238Y-138714819D01*
X149185238Y-138714819D02*
X148947143Y-138714819D01*
X148947143Y-138714819D02*
X148851905Y-138667200D01*
X148851905Y-138667200D02*
X148804286Y-138619580D01*
X165631905Y-63954819D02*
X165631905Y-62954819D01*
X165631905Y-62954819D02*
X165870000Y-62954819D01*
X165870000Y-62954819D02*
X166012857Y-63002438D01*
X166012857Y-63002438D02*
X166108095Y-63097676D01*
X166108095Y-63097676D02*
X166155714Y-63192914D01*
X166155714Y-63192914D02*
X166203333Y-63383390D01*
X166203333Y-63383390D02*
X166203333Y-63526247D01*
X166203333Y-63526247D02*
X166155714Y-63716723D01*
X166155714Y-63716723D02*
X166108095Y-63811961D01*
X166108095Y-63811961D02*
X166012857Y-63907200D01*
X166012857Y-63907200D02*
X165870000Y-63954819D01*
X165870000Y-63954819D02*
X165631905Y-63954819D01*
X167060476Y-63288152D02*
X167060476Y-63954819D01*
X166822381Y-62907200D02*
X166584286Y-63621485D01*
X166584286Y-63621485D02*
X167203333Y-63621485D01*
D10*
%TO.C,R9*%
X165640000Y-119280000D02*
X172180000Y-119280000D01*
X165640000Y-119610000D02*
X165640000Y-119280000D01*
X165640000Y-121690000D02*
X165640000Y-122020000D01*
X165640000Y-122020000D02*
X172180000Y-122020000D01*
X172180000Y-119280000D02*
X172180000Y-119610000D01*
X172180000Y-122020000D02*
X172180000Y-121690000D01*
%TO.C,R14*%
X145320000Y-76100000D02*
X145320000Y-76430000D01*
X145320000Y-78840000D02*
X145320000Y-78510000D01*
X151860000Y-76100000D02*
X145320000Y-76100000D01*
X151860000Y-76430000D02*
X151860000Y-76100000D01*
X151860000Y-78510000D02*
X151860000Y-78840000D01*
X151860000Y-78840000D02*
X145320000Y-78840000D01*
%TO.C,R1*%
X145320000Y-81180000D02*
X145320000Y-81510000D01*
X145320000Y-83920000D02*
X145320000Y-83590000D01*
X151860000Y-81180000D02*
X145320000Y-81180000D01*
X151860000Y-81510000D02*
X151860000Y-81180000D01*
X151860000Y-83590000D02*
X151860000Y-83920000D01*
X151860000Y-83920000D02*
X145320000Y-83920000D01*
%TO.C,R2*%
X145320000Y-88800000D02*
X145320000Y-89130000D01*
X145320000Y-91540000D02*
X145320000Y-91210000D01*
X151860000Y-88800000D02*
X145320000Y-88800000D01*
X151860000Y-89130000D02*
X151860000Y-88800000D01*
X151860000Y-91210000D02*
X151860000Y-91540000D01*
X151860000Y-91540000D02*
X145320000Y-91540000D01*
%TO.C,R8*%
X165640000Y-114200000D02*
X172180000Y-114200000D01*
X165640000Y-114530000D02*
X165640000Y-114200000D01*
X165640000Y-116610000D02*
X165640000Y-116940000D01*
X165640000Y-116940000D02*
X172180000Y-116940000D01*
X172180000Y-114200000D02*
X172180000Y-114530000D01*
X172180000Y-116940000D02*
X172180000Y-116610000D01*
%TO.C,D6*%
X168930000Y-137435000D02*
X168930000Y-134345000D01*
X163380000Y-135889952D02*
G75*
G02*
X168930000Y-134345170I2990000J-48D01*
G01*
X168930000Y-137434830D02*
G75*
G02*
X163380000Y-135890048I-2560000J1544830D01*
G01*
X168870000Y-135890000D02*
G75*
G02*
X163870000Y-135890000I-2500000J0D01*
G01*
X163870000Y-135890000D02*
G75*
G02*
X168870000Y-135890000I2500000J0D01*
G01*
%TO.C,C2*%
X138299000Y-77754000D02*
X138299000Y-77186000D01*
X138339000Y-77988000D02*
X138339000Y-76952000D01*
X138379000Y-78147000D02*
X138379000Y-76793000D01*
X138419000Y-78275000D02*
X138419000Y-76665000D01*
X138459000Y-78385000D02*
X138459000Y-76555000D01*
X138499000Y-78481000D02*
X138499000Y-76459000D01*
X138539000Y-78568000D02*
X138539000Y-76372000D01*
X138579000Y-78648000D02*
X138579000Y-76292000D01*
X138619000Y-76430000D02*
X138619000Y-76219000D01*
X138619000Y-78721000D02*
X138619000Y-78510000D01*
X138659000Y-76430000D02*
X138659000Y-76151000D01*
X138659000Y-78789000D02*
X138659000Y-78510000D01*
X138699000Y-76430000D02*
X138699000Y-76087000D01*
X138699000Y-78853000D02*
X138699000Y-78510000D01*
X138739000Y-76430000D02*
X138739000Y-76027000D01*
X138739000Y-78913000D02*
X138739000Y-78510000D01*
X138779000Y-76430000D02*
X138779000Y-75970000D01*
X138779000Y-78970000D02*
X138779000Y-78510000D01*
X138819000Y-76430000D02*
X138819000Y-75916000D01*
X138819000Y-79024000D02*
X138819000Y-78510000D01*
X138859000Y-76430000D02*
X138859000Y-75865000D01*
X138859000Y-79075000D02*
X138859000Y-78510000D01*
X138899000Y-76430000D02*
X138899000Y-75817000D01*
X138899000Y-79123000D02*
X138899000Y-78510000D01*
X138939000Y-76430000D02*
X138939000Y-75771000D01*
X138939000Y-79169000D02*
X138939000Y-78510000D01*
X138979000Y-76430000D02*
X138979000Y-75727000D01*
X138979000Y-79213000D02*
X138979000Y-78510000D01*
X139019000Y-76430000D02*
X139019000Y-75685000D01*
X139019000Y-79255000D02*
X139019000Y-78510000D01*
X139059000Y-76430000D02*
X139059000Y-75644000D01*
X139059000Y-79296000D02*
X139059000Y-78510000D01*
X139099000Y-76430000D02*
X139099000Y-75606000D01*
X139099000Y-79334000D02*
X139099000Y-78510000D01*
X139139000Y-76430000D02*
X139139000Y-75569000D01*
X139139000Y-79371000D02*
X139139000Y-78510000D01*
X139179000Y-76430000D02*
X139179000Y-75533000D01*
X139179000Y-79407000D02*
X139179000Y-78510000D01*
X139219000Y-76430000D02*
X139219000Y-75499000D01*
X139219000Y-79441000D02*
X139219000Y-78510000D01*
X139259000Y-76430000D02*
X139259000Y-75466000D01*
X139259000Y-79474000D02*
X139259000Y-78510000D01*
X139299000Y-76430000D02*
X139299000Y-75435000D01*
X139299000Y-79505000D02*
X139299000Y-78510000D01*
X139339000Y-76430000D02*
X139339000Y-75405000D01*
X139339000Y-79535000D02*
X139339000Y-78510000D01*
X139379000Y-76430000D02*
X139379000Y-75375000D01*
X139379000Y-79565000D02*
X139379000Y-78510000D01*
X139419000Y-76430000D02*
X139419000Y-75348000D01*
X139419000Y-79592000D02*
X139419000Y-78510000D01*
X139459000Y-76430000D02*
X139459000Y-75321000D01*
X139459000Y-79619000D02*
X139459000Y-78510000D01*
X139499000Y-76430000D02*
X139499000Y-75295000D01*
X139499000Y-79645000D02*
X139499000Y-78510000D01*
X139539000Y-76430000D02*
X139539000Y-75270000D01*
X139539000Y-79670000D02*
X139539000Y-78510000D01*
X139579000Y-76430000D02*
X139579000Y-75246000D01*
X139579000Y-79694000D02*
X139579000Y-78510000D01*
X139619000Y-76430000D02*
X139619000Y-75223000D01*
X139619000Y-79717000D02*
X139619000Y-78510000D01*
X139659000Y-76430000D02*
X139659000Y-75202000D01*
X139659000Y-79738000D02*
X139659000Y-78510000D01*
X139699000Y-76430000D02*
X139699000Y-75180000D01*
X139699000Y-79760000D02*
X139699000Y-78510000D01*
X139739000Y-76430000D02*
X139739000Y-75160000D01*
X139739000Y-79780000D02*
X139739000Y-78510000D01*
X139779000Y-76430000D02*
X139779000Y-75141000D01*
X139779000Y-79799000D02*
X139779000Y-78510000D01*
X139819000Y-76430000D02*
X139819000Y-75122000D01*
X139819000Y-79818000D02*
X139819000Y-78510000D01*
X139859000Y-76430000D02*
X139859000Y-75105000D01*
X139859000Y-79835000D02*
X139859000Y-78510000D01*
X139899000Y-76430000D02*
X139899000Y-75088000D01*
X139899000Y-79852000D02*
X139899000Y-78510000D01*
X139939000Y-76430000D02*
X139939000Y-75072000D01*
X139939000Y-79868000D02*
X139939000Y-78510000D01*
X139979000Y-76430000D02*
X139979000Y-75056000D01*
X139979000Y-79884000D02*
X139979000Y-78510000D01*
X140019000Y-76430000D02*
X140019000Y-75042000D01*
X140019000Y-79898000D02*
X140019000Y-78510000D01*
X140059000Y-76430000D02*
X140059000Y-75028000D01*
X140059000Y-79912000D02*
X140059000Y-78510000D01*
X140099000Y-76430000D02*
X140099000Y-75015000D01*
X140099000Y-79925000D02*
X140099000Y-78510000D01*
X140139000Y-76430000D02*
X140139000Y-75002000D01*
X140139000Y-79938000D02*
X140139000Y-78510000D01*
X140179000Y-76430000D02*
X140179000Y-74990000D01*
X140179000Y-79950000D02*
X140179000Y-78510000D01*
X140220000Y-76430000D02*
X140220000Y-74979000D01*
X140220000Y-79961000D02*
X140220000Y-78510000D01*
X140260000Y-76430000D02*
X140260000Y-74969000D01*
X140260000Y-79971000D02*
X140260000Y-78510000D01*
X140300000Y-76430000D02*
X140300000Y-74959000D01*
X140300000Y-79981000D02*
X140300000Y-78510000D01*
X140340000Y-76430000D02*
X140340000Y-74950000D01*
X140340000Y-79990000D02*
X140340000Y-78510000D01*
X140380000Y-76430000D02*
X140380000Y-74942000D01*
X140380000Y-79998000D02*
X140380000Y-78510000D01*
X140420000Y-76430000D02*
X140420000Y-74934000D01*
X140420000Y-80006000D02*
X140420000Y-78510000D01*
X140460000Y-76430000D02*
X140460000Y-74927000D01*
X140460000Y-80013000D02*
X140460000Y-78510000D01*
X140500000Y-76430000D02*
X140500000Y-74920000D01*
X140500000Y-80020000D02*
X140500000Y-78510000D01*
X140540000Y-76430000D02*
X140540000Y-74914000D01*
X140540000Y-80026000D02*
X140540000Y-78510000D01*
X140580000Y-76430000D02*
X140580000Y-74909000D01*
X140580000Y-80031000D02*
X140580000Y-78510000D01*
X140620000Y-76430000D02*
X140620000Y-74905000D01*
X140620000Y-80035000D02*
X140620000Y-78510000D01*
X140660000Y-76430000D02*
X140660000Y-74901000D01*
X140660000Y-80039000D02*
X140660000Y-78510000D01*
X140700000Y-80043000D02*
X140700000Y-74897000D01*
X140740000Y-80046000D02*
X140740000Y-74894000D01*
X140780000Y-80048000D02*
X140780000Y-74892000D01*
X140820000Y-80049000D02*
X140820000Y-74891000D01*
X140860000Y-80050000D02*
X140860000Y-74890000D01*
X140900000Y-80050000D02*
X140900000Y-74890000D01*
X143454775Y-79195000D02*
X143454775Y-78695000D01*
X143704775Y-78945000D02*
X143204775Y-78945000D01*
X143520000Y-77470000D02*
G75*
G02*
X138280000Y-77470000I-2620000J0D01*
G01*
X138280000Y-77470000D02*
G75*
G02*
X143520000Y-77470000I2620000J0D01*
G01*
%TO.C,R12*%
X163100000Y-129440000D02*
X163100000Y-129770000D01*
X163100000Y-132180000D02*
X163100000Y-131850000D01*
X169640000Y-129440000D02*
X163100000Y-129440000D01*
X169640000Y-129770000D02*
X169640000Y-129440000D01*
X169640000Y-131850000D02*
X169640000Y-132180000D01*
X169640000Y-132180000D02*
X163100000Y-132180000D01*
%TO.C,R3*%
X168180000Y-79910000D02*
X168180000Y-80240000D01*
X168180000Y-82650000D02*
X168180000Y-82320000D01*
X174720000Y-79910000D02*
X168180000Y-79910000D01*
X174720000Y-80240000D02*
X174720000Y-79910000D01*
X174720000Y-82320000D02*
X174720000Y-82650000D01*
X174720000Y-82650000D02*
X168180000Y-82650000D01*
%TO.C,R17*%
X168180000Y-76100000D02*
X168180000Y-76430000D01*
X168180000Y-78840000D02*
X168180000Y-78510000D01*
X174720000Y-76100000D02*
X168180000Y-76100000D01*
X174720000Y-76430000D02*
X174720000Y-76100000D01*
X174720000Y-78510000D02*
X174720000Y-78840000D01*
X174720000Y-78840000D02*
X168180000Y-78840000D01*
%TO.C,R11*%
X163100000Y-83720000D02*
X163100000Y-84050000D01*
X163100000Y-86460000D02*
X163100000Y-86130000D01*
X169640000Y-83720000D02*
X163100000Y-83720000D01*
X169640000Y-84050000D02*
X169640000Y-83720000D01*
X169640000Y-86130000D02*
X169640000Y-86460000D01*
X169640000Y-86460000D02*
X163100000Y-86460000D01*
%TO.C,R16*%
X140240000Y-118010000D02*
X146780000Y-118010000D01*
X140240000Y-118340000D02*
X140240000Y-118010000D01*
X140240000Y-120420000D02*
X140240000Y-120750000D01*
X140240000Y-120750000D02*
X146780000Y-120750000D01*
X146780000Y-118010000D02*
X146780000Y-118340000D01*
X146780000Y-120750000D02*
X146780000Y-120420000D01*
%TO.C,Q1*%
X139120000Y-88370000D02*
X139120000Y-91970000D01*
X139120000Y-88370000D02*
G75*
G02*
X139847205Y-87845816I1850000J-1800000D01*
G01*
X139847205Y-92494184D02*
G75*
G02*
X139120000Y-91970000I1122795J2324184D01*
G01*
X142068807Y-87813600D02*
G75*
G02*
X143570000Y-90170000I-1098807J-2356400D01*
G01*
X143570000Y-90170000D02*
G75*
G02*
X142068807Y-92526400I-2600000J0D01*
G01*
%TO.C,R15*%
X140240000Y-112930000D02*
X140240000Y-113260000D01*
X140240000Y-115670000D02*
X140240000Y-115340000D01*
X146780000Y-112930000D02*
X140240000Y-112930000D01*
X146780000Y-113260000D02*
X146780000Y-112930000D01*
X146780000Y-115340000D02*
X146780000Y-115670000D01*
X146780000Y-115670000D02*
X140240000Y-115670000D01*
%TO.C,C1*%
X138389000Y-65054000D02*
X138389000Y-64486000D01*
X138429000Y-65288000D02*
X138429000Y-64252000D01*
X138469000Y-65447000D02*
X138469000Y-64093000D01*
X138509000Y-65575000D02*
X138509000Y-63965000D01*
X138549000Y-65685000D02*
X138549000Y-63855000D01*
X138589000Y-65781000D02*
X138589000Y-63759000D01*
X138629000Y-65868000D02*
X138629000Y-63672000D01*
X138669000Y-65948000D02*
X138669000Y-63592000D01*
X138709000Y-63730000D02*
X138709000Y-63519000D01*
X138709000Y-66021000D02*
X138709000Y-65810000D01*
X138749000Y-63730000D02*
X138749000Y-63451000D01*
X138749000Y-66089000D02*
X138749000Y-65810000D01*
X138789000Y-63730000D02*
X138789000Y-63387000D01*
X138789000Y-66153000D02*
X138789000Y-65810000D01*
X138829000Y-63730000D02*
X138829000Y-63327000D01*
X138829000Y-66213000D02*
X138829000Y-65810000D01*
X138869000Y-63730000D02*
X138869000Y-63270000D01*
X138869000Y-66270000D02*
X138869000Y-65810000D01*
X138909000Y-63730000D02*
X138909000Y-63216000D01*
X138909000Y-66324000D02*
X138909000Y-65810000D01*
X138949000Y-63730000D02*
X138949000Y-63165000D01*
X138949000Y-66375000D02*
X138949000Y-65810000D01*
X138989000Y-63730000D02*
X138989000Y-63117000D01*
X138989000Y-66423000D02*
X138989000Y-65810000D01*
X139029000Y-63730000D02*
X139029000Y-63071000D01*
X139029000Y-66469000D02*
X139029000Y-65810000D01*
X139069000Y-63730000D02*
X139069000Y-63027000D01*
X139069000Y-66513000D02*
X139069000Y-65810000D01*
X139109000Y-63730000D02*
X139109000Y-62985000D01*
X139109000Y-66555000D02*
X139109000Y-65810000D01*
X139149000Y-63730000D02*
X139149000Y-62944000D01*
X139149000Y-66596000D02*
X139149000Y-65810000D01*
X139189000Y-63730000D02*
X139189000Y-62906000D01*
X139189000Y-66634000D02*
X139189000Y-65810000D01*
X139229000Y-63730000D02*
X139229000Y-62869000D01*
X139229000Y-66671000D02*
X139229000Y-65810000D01*
X139269000Y-63730000D02*
X139269000Y-62833000D01*
X139269000Y-66707000D02*
X139269000Y-65810000D01*
X139309000Y-63730000D02*
X139309000Y-62799000D01*
X139309000Y-66741000D02*
X139309000Y-65810000D01*
X139349000Y-63730000D02*
X139349000Y-62766000D01*
X139349000Y-66774000D02*
X139349000Y-65810000D01*
X139389000Y-63730000D02*
X139389000Y-62735000D01*
X139389000Y-66805000D02*
X139389000Y-65810000D01*
X139429000Y-63730000D02*
X139429000Y-62705000D01*
X139429000Y-66835000D02*
X139429000Y-65810000D01*
X139469000Y-63730000D02*
X139469000Y-62675000D01*
X139469000Y-66865000D02*
X139469000Y-65810000D01*
X139509000Y-63730000D02*
X139509000Y-62648000D01*
X139509000Y-66892000D02*
X139509000Y-65810000D01*
X139549000Y-63730000D02*
X139549000Y-62621000D01*
X139549000Y-66919000D02*
X139549000Y-65810000D01*
X139589000Y-63730000D02*
X139589000Y-62595000D01*
X139589000Y-66945000D02*
X139589000Y-65810000D01*
X139629000Y-63730000D02*
X139629000Y-62570000D01*
X139629000Y-66970000D02*
X139629000Y-65810000D01*
X139669000Y-63730000D02*
X139669000Y-62546000D01*
X139669000Y-66994000D02*
X139669000Y-65810000D01*
X139709000Y-63730000D02*
X139709000Y-62523000D01*
X139709000Y-67017000D02*
X139709000Y-65810000D01*
X139749000Y-63730000D02*
X139749000Y-62502000D01*
X139749000Y-67038000D02*
X139749000Y-65810000D01*
X139789000Y-63730000D02*
X139789000Y-62480000D01*
X139789000Y-67060000D02*
X139789000Y-65810000D01*
X139829000Y-63730000D02*
X139829000Y-62460000D01*
X139829000Y-67080000D02*
X139829000Y-65810000D01*
X139869000Y-63730000D02*
X139869000Y-62441000D01*
X139869000Y-67099000D02*
X139869000Y-65810000D01*
X139909000Y-63730000D02*
X139909000Y-62422000D01*
X139909000Y-67118000D02*
X139909000Y-65810000D01*
X139949000Y-63730000D02*
X139949000Y-62405000D01*
X139949000Y-67135000D02*
X139949000Y-65810000D01*
X139989000Y-63730000D02*
X139989000Y-62388000D01*
X139989000Y-67152000D02*
X139989000Y-65810000D01*
X140029000Y-63730000D02*
X140029000Y-62372000D01*
X140029000Y-67168000D02*
X140029000Y-65810000D01*
X140069000Y-63730000D02*
X140069000Y-62356000D01*
X140069000Y-67184000D02*
X140069000Y-65810000D01*
X140109000Y-63730000D02*
X140109000Y-62342000D01*
X140109000Y-67198000D02*
X140109000Y-65810000D01*
X140149000Y-63730000D02*
X140149000Y-62328000D01*
X140149000Y-67212000D02*
X140149000Y-65810000D01*
X140189000Y-63730000D02*
X140189000Y-62315000D01*
X140189000Y-67225000D02*
X140189000Y-65810000D01*
X140229000Y-63730000D02*
X140229000Y-62302000D01*
X140229000Y-67238000D02*
X140229000Y-65810000D01*
X140269000Y-63730000D02*
X140269000Y-62290000D01*
X140269000Y-67250000D02*
X140269000Y-65810000D01*
X140310000Y-63730000D02*
X140310000Y-62279000D01*
X140310000Y-67261000D02*
X140310000Y-65810000D01*
X140350000Y-63730000D02*
X140350000Y-62269000D01*
X140350000Y-67271000D02*
X140350000Y-65810000D01*
X140390000Y-63730000D02*
X140390000Y-62259000D01*
X140390000Y-67281000D02*
X140390000Y-65810000D01*
X140430000Y-63730000D02*
X140430000Y-62250000D01*
X140430000Y-67290000D02*
X140430000Y-65810000D01*
X140470000Y-63730000D02*
X140470000Y-62242000D01*
X140470000Y-67298000D02*
X140470000Y-65810000D01*
X140510000Y-63730000D02*
X140510000Y-62234000D01*
X140510000Y-67306000D02*
X140510000Y-65810000D01*
X140550000Y-63730000D02*
X140550000Y-62227000D01*
X140550000Y-67313000D02*
X140550000Y-65810000D01*
X140590000Y-63730000D02*
X140590000Y-62220000D01*
X140590000Y-67320000D02*
X140590000Y-65810000D01*
X140630000Y-63730000D02*
X140630000Y-62214000D01*
X140630000Y-67326000D02*
X140630000Y-65810000D01*
X140670000Y-63730000D02*
X140670000Y-62209000D01*
X140670000Y-67331000D02*
X140670000Y-65810000D01*
X140710000Y-63730000D02*
X140710000Y-62205000D01*
X140710000Y-67335000D02*
X140710000Y-65810000D01*
X140750000Y-63730000D02*
X140750000Y-62201000D01*
X140750000Y-67339000D02*
X140750000Y-65810000D01*
X140790000Y-67343000D02*
X140790000Y-62197000D01*
X140830000Y-67346000D02*
X140830000Y-62194000D01*
X140870000Y-67348000D02*
X140870000Y-62192000D01*
X140910000Y-67349000D02*
X140910000Y-62191000D01*
X140950000Y-67350000D02*
X140950000Y-62190000D01*
X140990000Y-67350000D02*
X140990000Y-62190000D01*
X143544775Y-66495000D02*
X143544775Y-65995000D01*
X143794775Y-66245000D02*
X143294775Y-66245000D01*
X143610000Y-64770000D02*
G75*
G02*
X138370000Y-64770000I-2620000J0D01*
G01*
X138370000Y-64770000D02*
G75*
G02*
X143610000Y-64770000I2620000J0D01*
G01*
%TO.C,R4*%
X145320000Y-84990000D02*
X151860000Y-84990000D01*
X145320000Y-85320000D02*
X145320000Y-84990000D01*
X145320000Y-87400000D02*
X145320000Y-87730000D01*
X145320000Y-87730000D02*
X151860000Y-87730000D01*
X151860000Y-84990000D02*
X151860000Y-85320000D01*
X151860000Y-87730000D02*
X151860000Y-87400000D01*
%TO.C,D5*%
X171470000Y-91715000D02*
X171470000Y-88625000D01*
X165920000Y-90169952D02*
G75*
G02*
X171470000Y-88625170I2990000J-48D01*
G01*
X171470000Y-91714830D02*
G75*
G02*
X165920000Y-90170048I-2560000J1544830D01*
G01*
X171410000Y-90170000D02*
G75*
G02*
X166410000Y-90170000I-2500000J0D01*
G01*
X166410000Y-90170000D02*
G75*
G02*
X171410000Y-90170000I2500000J0D01*
G01*
%TO.C,R10*%
X165640000Y-71020000D02*
X172180000Y-71020000D01*
X165640000Y-71350000D02*
X165640000Y-71020000D01*
X165640000Y-73430000D02*
X165640000Y-73760000D01*
X165640000Y-73760000D02*
X172180000Y-73760000D01*
X172180000Y-71020000D02*
X172180000Y-71350000D01*
X172180000Y-73760000D02*
X172180000Y-73430000D01*
%TO.C,R7*%
X145320000Y-129440000D02*
X145320000Y-129770000D01*
X145320000Y-132180000D02*
X145320000Y-131850000D01*
X151860000Y-129440000D02*
X145320000Y-129440000D01*
X151860000Y-129770000D02*
X151860000Y-129440000D01*
X151860000Y-131850000D02*
X151860000Y-132180000D01*
X151860000Y-132180000D02*
X145320000Y-132180000D01*
%TO.C,Q6*%
X151710000Y-66570000D02*
X151710000Y-62970000D01*
X147260000Y-64770000D02*
G75*
G02*
X148761193Y-62413600I2600000J0D01*
G01*
X148761193Y-67126400D02*
G75*
G02*
X147260000Y-64770000I1098807J2356400D01*
G01*
X150982795Y-62445816D02*
G75*
G02*
X151710000Y-62970000I-1122795J-2324184D01*
G01*
X151710000Y-66570000D02*
G75*
G02*
X150982795Y-67094184I-1850000J1800000D01*
G01*
%TO.C,J1*%
X156150000Y-83820000D02*
X156150000Y-121980000D01*
X156150000Y-83820000D02*
X158810000Y-83820000D01*
X156150000Y-121980000D02*
X158810000Y-121980000D01*
X157480000Y-81220000D02*
X158810000Y-81220000D01*
X158810000Y-81220000D02*
X158810000Y-82550000D01*
X158810000Y-83820000D02*
X158810000Y-121980000D01*
%TO.C,R5*%
X145320000Y-134520000D02*
X145320000Y-134850000D01*
X145320000Y-137260000D02*
X145320000Y-136930000D01*
X151860000Y-134520000D02*
X145320000Y-134520000D01*
X151860000Y-134850000D02*
X151860000Y-134520000D01*
X151860000Y-136930000D02*
X151860000Y-137260000D01*
X151860000Y-137260000D02*
X145320000Y-137260000D01*
%TO.C,D4*%
X168930000Y-68855000D02*
X168930000Y-65765000D01*
X163380000Y-67309952D02*
G75*
G02*
X168930000Y-65765170I2990000J-48D01*
G01*
X168930000Y-68854830D02*
G75*
G02*
X163380000Y-67310048I-2560000J1544830D01*
G01*
X168870000Y-67310000D02*
G75*
G02*
X163870000Y-67310000I-2500000J0D01*
G01*
X163870000Y-67310000D02*
G75*
G02*
X168870000Y-67310000I2500000J0D01*
G01*
%TD*%
M02*
