%TF.GenerationSoftware,KiCad,Pcbnew,8.0.8*%
%TF.CreationDate,2025-08-16T13:43:30+01:00*%
%TF.ProjectId,UKMARSBOT_LineSensorBasic,554b4d41-5253-4424-9f54-5f4c696e6553,rev?*%
%TF.SameCoordinates,Original*%
%TF.FileFunction,Legend,Bot*%
%TF.FilePolarity,Positive*%
%FSLAX46Y46*%
G04 Gerber Fmt 4.6, Leading zero omitted, Abs format (unit mm)*
G04 Created by KiCad (PCBNEW 8.0.8) date 2025-08-16 13:43:30*
%MOMM*%
%LPD*%
G01*
G04 APERTURE LIST*
%ADD10C,0.120000*%
%ADD11C,0.500000*%
%ADD12C,0.200000*%
%ADD13C,0.150000*%
G04 APERTURE END LIST*
D10*
X171226669Y-96177202D02*
X170960003Y-96177202D01*
X170845717Y-96596250D02*
X171226669Y-96596250D01*
X171226669Y-96596250D02*
X171226669Y-95796250D01*
X171226669Y-95796250D02*
X170845717Y-95796250D01*
X161036061Y-132126373D02*
X160769395Y-132126373D01*
X160655109Y-132545421D02*
X161036061Y-132545421D01*
X161036061Y-132545421D02*
X161036061Y-131745421D01*
X161036061Y-131745421D02*
X160655109Y-131745421D01*
D11*
X175078151Y-76152956D02*
X176697198Y-76152956D01*
X176697198Y-76152956D02*
X176887674Y-76248194D01*
X176887674Y-76248194D02*
X176982913Y-76343432D01*
X176982913Y-76343432D02*
X177078151Y-76533908D01*
X177078151Y-76533908D02*
X177078151Y-76914861D01*
X177078151Y-76914861D02*
X176982913Y-77105337D01*
X176982913Y-77105337D02*
X176887674Y-77200575D01*
X176887674Y-77200575D02*
X176697198Y-77295813D01*
X176697198Y-77295813D02*
X175078151Y-77295813D01*
X177078151Y-78248194D02*
X175078151Y-78248194D01*
X177078151Y-79391051D02*
X175935293Y-78533908D01*
X175078151Y-79391051D02*
X176221008Y-78248194D01*
X177078151Y-80248194D02*
X175078151Y-80248194D01*
X175078151Y-80248194D02*
X176506722Y-80914861D01*
X176506722Y-80914861D02*
X175078151Y-81581527D01*
X175078151Y-81581527D02*
X177078151Y-81581527D01*
X176506722Y-82438670D02*
X176506722Y-83391051D01*
X177078151Y-82248194D02*
X175078151Y-82914860D01*
X175078151Y-82914860D02*
X177078151Y-83581527D01*
X177078151Y-85391051D02*
X176125770Y-84724384D01*
X177078151Y-84248194D02*
X175078151Y-84248194D01*
X175078151Y-84248194D02*
X175078151Y-85010099D01*
X175078151Y-85010099D02*
X175173389Y-85200575D01*
X175173389Y-85200575D02*
X175268627Y-85295813D01*
X175268627Y-85295813D02*
X175459103Y-85391051D01*
X175459103Y-85391051D02*
X175744817Y-85391051D01*
X175744817Y-85391051D02*
X175935293Y-85295813D01*
X175935293Y-85295813D02*
X176030532Y-85200575D01*
X176030532Y-85200575D02*
X176125770Y-85010099D01*
X176125770Y-85010099D02*
X176125770Y-84248194D01*
X176982913Y-86152956D02*
X177078151Y-86438670D01*
X177078151Y-86438670D02*
X177078151Y-86914861D01*
X177078151Y-86914861D02*
X176982913Y-87105337D01*
X176982913Y-87105337D02*
X176887674Y-87200575D01*
X176887674Y-87200575D02*
X176697198Y-87295813D01*
X176697198Y-87295813D02*
X176506722Y-87295813D01*
X176506722Y-87295813D02*
X176316246Y-87200575D01*
X176316246Y-87200575D02*
X176221008Y-87105337D01*
X176221008Y-87105337D02*
X176125770Y-86914861D01*
X176125770Y-86914861D02*
X176030532Y-86533908D01*
X176030532Y-86533908D02*
X175935293Y-86343432D01*
X175935293Y-86343432D02*
X175840055Y-86248194D01*
X175840055Y-86248194D02*
X175649579Y-86152956D01*
X175649579Y-86152956D02*
X175459103Y-86152956D01*
X175459103Y-86152956D02*
X175268627Y-86248194D01*
X175268627Y-86248194D02*
X175173389Y-86343432D01*
X175173389Y-86343432D02*
X175078151Y-86533908D01*
X175078151Y-86533908D02*
X175078151Y-87010099D01*
X175078151Y-87010099D02*
X175173389Y-87295813D01*
X175173389Y-90724385D02*
X175078151Y-90533909D01*
X175078151Y-90533909D02*
X175078151Y-90248195D01*
X175078151Y-90248195D02*
X175173389Y-89962480D01*
X175173389Y-89962480D02*
X175363865Y-89772004D01*
X175363865Y-89772004D02*
X175554341Y-89676766D01*
X175554341Y-89676766D02*
X175935293Y-89581528D01*
X175935293Y-89581528D02*
X176221008Y-89581528D01*
X176221008Y-89581528D02*
X176601960Y-89676766D01*
X176601960Y-89676766D02*
X176792436Y-89772004D01*
X176792436Y-89772004D02*
X176982913Y-89962480D01*
X176982913Y-89962480D02*
X177078151Y-90248195D01*
X177078151Y-90248195D02*
X177078151Y-90438671D01*
X177078151Y-90438671D02*
X176982913Y-90724385D01*
X176982913Y-90724385D02*
X176887674Y-90819623D01*
X176887674Y-90819623D02*
X176221008Y-90819623D01*
X176221008Y-90819623D02*
X176221008Y-90438671D01*
X176982913Y-92438671D02*
X177078151Y-92248195D01*
X177078151Y-92248195D02*
X177078151Y-91867242D01*
X177078151Y-91867242D02*
X176982913Y-91676766D01*
X176982913Y-91676766D02*
X176792436Y-91581528D01*
X176792436Y-91581528D02*
X176030532Y-91581528D01*
X176030532Y-91581528D02*
X175840055Y-91676766D01*
X175840055Y-91676766D02*
X175744817Y-91867242D01*
X175744817Y-91867242D02*
X175744817Y-92248195D01*
X175744817Y-92248195D02*
X175840055Y-92438671D01*
X175840055Y-92438671D02*
X176030532Y-92533909D01*
X176030532Y-92533909D02*
X176221008Y-92533909D01*
X176221008Y-92533909D02*
X176411484Y-91581528D01*
X177078151Y-93391052D02*
X175744817Y-93391052D01*
X175935293Y-93391052D02*
X175840055Y-93486290D01*
X175840055Y-93486290D02*
X175744817Y-93676766D01*
X175744817Y-93676766D02*
X175744817Y-93962481D01*
X175744817Y-93962481D02*
X175840055Y-94152957D01*
X175840055Y-94152957D02*
X176030532Y-94248195D01*
X176030532Y-94248195D02*
X177078151Y-94248195D01*
X176030532Y-94248195D02*
X175840055Y-94343433D01*
X175840055Y-94343433D02*
X175744817Y-94533909D01*
X175744817Y-94533909D02*
X175744817Y-94819623D01*
X175744817Y-94819623D02*
X175840055Y-95010100D01*
X175840055Y-95010100D02*
X176030532Y-95105338D01*
X176030532Y-95105338D02*
X177078151Y-95105338D01*
X177078151Y-96057719D02*
X175744817Y-96057719D01*
X175078151Y-96057719D02*
X175173389Y-95962481D01*
X175173389Y-95962481D02*
X175268627Y-96057719D01*
X175268627Y-96057719D02*
X175173389Y-96152957D01*
X175173389Y-96152957D02*
X175078151Y-96057719D01*
X175078151Y-96057719D02*
X175268627Y-96057719D01*
X175744817Y-97010100D02*
X177078151Y-97010100D01*
X175935293Y-97010100D02*
X175840055Y-97105338D01*
X175840055Y-97105338D02*
X175744817Y-97295814D01*
X175744817Y-97295814D02*
X175744817Y-97581529D01*
X175744817Y-97581529D02*
X175840055Y-97772005D01*
X175840055Y-97772005D02*
X176030532Y-97867243D01*
X176030532Y-97867243D02*
X177078151Y-97867243D01*
X177078151Y-98819624D02*
X175744817Y-98819624D01*
X175078151Y-98819624D02*
X175173389Y-98724386D01*
X175173389Y-98724386D02*
X175268627Y-98819624D01*
X175268627Y-98819624D02*
X175173389Y-98914862D01*
X175173389Y-98914862D02*
X175078151Y-98819624D01*
X175078151Y-98819624D02*
X175268627Y-98819624D01*
X177078151Y-102248196D02*
X177078151Y-101295815D01*
X177078151Y-101295815D02*
X175078151Y-101295815D01*
X177078151Y-102914863D02*
X175744817Y-102914863D01*
X175078151Y-102914863D02*
X175173389Y-102819625D01*
X175173389Y-102819625D02*
X175268627Y-102914863D01*
X175268627Y-102914863D02*
X175173389Y-103010101D01*
X175173389Y-103010101D02*
X175078151Y-102914863D01*
X175078151Y-102914863D02*
X175268627Y-102914863D01*
X175744817Y-103867244D02*
X177078151Y-103867244D01*
X175935293Y-103867244D02*
X175840055Y-103962482D01*
X175840055Y-103962482D02*
X175744817Y-104152958D01*
X175744817Y-104152958D02*
X175744817Y-104438673D01*
X175744817Y-104438673D02*
X175840055Y-104629149D01*
X175840055Y-104629149D02*
X176030532Y-104724387D01*
X176030532Y-104724387D02*
X177078151Y-104724387D01*
X176982913Y-106438673D02*
X177078151Y-106248197D01*
X177078151Y-106248197D02*
X177078151Y-105867244D01*
X177078151Y-105867244D02*
X176982913Y-105676768D01*
X176982913Y-105676768D02*
X176792436Y-105581530D01*
X176792436Y-105581530D02*
X176030532Y-105581530D01*
X176030532Y-105581530D02*
X175840055Y-105676768D01*
X175840055Y-105676768D02*
X175744817Y-105867244D01*
X175744817Y-105867244D02*
X175744817Y-106248197D01*
X175744817Y-106248197D02*
X175840055Y-106438673D01*
X175840055Y-106438673D02*
X176030532Y-106533911D01*
X176030532Y-106533911D02*
X176221008Y-106533911D01*
X176221008Y-106533911D02*
X176411484Y-105581530D01*
X176982913Y-108819626D02*
X177078151Y-109105340D01*
X177078151Y-109105340D02*
X177078151Y-109581531D01*
X177078151Y-109581531D02*
X176982913Y-109772007D01*
X176982913Y-109772007D02*
X176887674Y-109867245D01*
X176887674Y-109867245D02*
X176697198Y-109962483D01*
X176697198Y-109962483D02*
X176506722Y-109962483D01*
X176506722Y-109962483D02*
X176316246Y-109867245D01*
X176316246Y-109867245D02*
X176221008Y-109772007D01*
X176221008Y-109772007D02*
X176125770Y-109581531D01*
X176125770Y-109581531D02*
X176030532Y-109200578D01*
X176030532Y-109200578D02*
X175935293Y-109010102D01*
X175935293Y-109010102D02*
X175840055Y-108914864D01*
X175840055Y-108914864D02*
X175649579Y-108819626D01*
X175649579Y-108819626D02*
X175459103Y-108819626D01*
X175459103Y-108819626D02*
X175268627Y-108914864D01*
X175268627Y-108914864D02*
X175173389Y-109010102D01*
X175173389Y-109010102D02*
X175078151Y-109200578D01*
X175078151Y-109200578D02*
X175078151Y-109676769D01*
X175078151Y-109676769D02*
X175173389Y-109962483D01*
X176982913Y-111581531D02*
X177078151Y-111391055D01*
X177078151Y-111391055D02*
X177078151Y-111010102D01*
X177078151Y-111010102D02*
X176982913Y-110819626D01*
X176982913Y-110819626D02*
X176792436Y-110724388D01*
X176792436Y-110724388D02*
X176030532Y-110724388D01*
X176030532Y-110724388D02*
X175840055Y-110819626D01*
X175840055Y-110819626D02*
X175744817Y-111010102D01*
X175744817Y-111010102D02*
X175744817Y-111391055D01*
X175744817Y-111391055D02*
X175840055Y-111581531D01*
X175840055Y-111581531D02*
X176030532Y-111676769D01*
X176030532Y-111676769D02*
X176221008Y-111676769D01*
X176221008Y-111676769D02*
X176411484Y-110724388D01*
X175744817Y-112533912D02*
X177078151Y-112533912D01*
X175935293Y-112533912D02*
X175840055Y-112629150D01*
X175840055Y-112629150D02*
X175744817Y-112819626D01*
X175744817Y-112819626D02*
X175744817Y-113105341D01*
X175744817Y-113105341D02*
X175840055Y-113295817D01*
X175840055Y-113295817D02*
X176030532Y-113391055D01*
X176030532Y-113391055D02*
X177078151Y-113391055D01*
X176982913Y-114248198D02*
X177078151Y-114438674D01*
X177078151Y-114438674D02*
X177078151Y-114819626D01*
X177078151Y-114819626D02*
X176982913Y-115010103D01*
X176982913Y-115010103D02*
X176792436Y-115105341D01*
X176792436Y-115105341D02*
X176697198Y-115105341D01*
X176697198Y-115105341D02*
X176506722Y-115010103D01*
X176506722Y-115010103D02*
X176411484Y-114819626D01*
X176411484Y-114819626D02*
X176411484Y-114533912D01*
X176411484Y-114533912D02*
X176316246Y-114343436D01*
X176316246Y-114343436D02*
X176125770Y-114248198D01*
X176125770Y-114248198D02*
X176030532Y-114248198D01*
X176030532Y-114248198D02*
X175840055Y-114343436D01*
X175840055Y-114343436D02*
X175744817Y-114533912D01*
X175744817Y-114533912D02*
X175744817Y-114819626D01*
X175744817Y-114819626D02*
X175840055Y-115010103D01*
X177078151Y-116248198D02*
X176982913Y-116057722D01*
X176982913Y-116057722D02*
X176887674Y-115962484D01*
X176887674Y-115962484D02*
X176697198Y-115867246D01*
X176697198Y-115867246D02*
X176125770Y-115867246D01*
X176125770Y-115867246D02*
X175935293Y-115962484D01*
X175935293Y-115962484D02*
X175840055Y-116057722D01*
X175840055Y-116057722D02*
X175744817Y-116248198D01*
X175744817Y-116248198D02*
X175744817Y-116533913D01*
X175744817Y-116533913D02*
X175840055Y-116724389D01*
X175840055Y-116724389D02*
X175935293Y-116819627D01*
X175935293Y-116819627D02*
X176125770Y-116914865D01*
X176125770Y-116914865D02*
X176697198Y-116914865D01*
X176697198Y-116914865D02*
X176887674Y-116819627D01*
X176887674Y-116819627D02*
X176982913Y-116724389D01*
X176982913Y-116724389D02*
X177078151Y-116533913D01*
X177078151Y-116533913D02*
X177078151Y-116248198D01*
X177078151Y-117772008D02*
X175744817Y-117772008D01*
X176125770Y-117772008D02*
X175935293Y-117867246D01*
X175935293Y-117867246D02*
X175840055Y-117962484D01*
X175840055Y-117962484D02*
X175744817Y-118152960D01*
X175744817Y-118152960D02*
X175744817Y-118343437D01*
X176030532Y-121200580D02*
X176125770Y-121486294D01*
X176125770Y-121486294D02*
X176221008Y-121581532D01*
X176221008Y-121581532D02*
X176411484Y-121676770D01*
X176411484Y-121676770D02*
X176697198Y-121676770D01*
X176697198Y-121676770D02*
X176887674Y-121581532D01*
X176887674Y-121581532D02*
X176982913Y-121486294D01*
X176982913Y-121486294D02*
X177078151Y-121295818D01*
X177078151Y-121295818D02*
X177078151Y-120533913D01*
X177078151Y-120533913D02*
X175078151Y-120533913D01*
X175078151Y-120533913D02*
X175078151Y-121200580D01*
X175078151Y-121200580D02*
X175173389Y-121391056D01*
X175173389Y-121391056D02*
X175268627Y-121486294D01*
X175268627Y-121486294D02*
X175459103Y-121581532D01*
X175459103Y-121581532D02*
X175649579Y-121581532D01*
X175649579Y-121581532D02*
X175840055Y-121486294D01*
X175840055Y-121486294D02*
X175935293Y-121391056D01*
X175935293Y-121391056D02*
X176030532Y-121200580D01*
X176030532Y-121200580D02*
X176030532Y-120533913D01*
X177078151Y-123391056D02*
X176030532Y-123391056D01*
X176030532Y-123391056D02*
X175840055Y-123295818D01*
X175840055Y-123295818D02*
X175744817Y-123105342D01*
X175744817Y-123105342D02*
X175744817Y-122724389D01*
X175744817Y-122724389D02*
X175840055Y-122533913D01*
X176982913Y-123391056D02*
X177078151Y-123200580D01*
X177078151Y-123200580D02*
X177078151Y-122724389D01*
X177078151Y-122724389D02*
X176982913Y-122533913D01*
X176982913Y-122533913D02*
X176792436Y-122438675D01*
X176792436Y-122438675D02*
X176601960Y-122438675D01*
X176601960Y-122438675D02*
X176411484Y-122533913D01*
X176411484Y-122533913D02*
X176316246Y-122724389D01*
X176316246Y-122724389D02*
X176316246Y-123200580D01*
X176316246Y-123200580D02*
X176221008Y-123391056D01*
X176982913Y-124248199D02*
X177078151Y-124438675D01*
X177078151Y-124438675D02*
X177078151Y-124819627D01*
X177078151Y-124819627D02*
X176982913Y-125010104D01*
X176982913Y-125010104D02*
X176792436Y-125105342D01*
X176792436Y-125105342D02*
X176697198Y-125105342D01*
X176697198Y-125105342D02*
X176506722Y-125010104D01*
X176506722Y-125010104D02*
X176411484Y-124819627D01*
X176411484Y-124819627D02*
X176411484Y-124533913D01*
X176411484Y-124533913D02*
X176316246Y-124343437D01*
X176316246Y-124343437D02*
X176125770Y-124248199D01*
X176125770Y-124248199D02*
X176030532Y-124248199D01*
X176030532Y-124248199D02*
X175840055Y-124343437D01*
X175840055Y-124343437D02*
X175744817Y-124533913D01*
X175744817Y-124533913D02*
X175744817Y-124819627D01*
X175744817Y-124819627D02*
X175840055Y-125010104D01*
X177078151Y-125962485D02*
X175744817Y-125962485D01*
X175078151Y-125962485D02*
X175173389Y-125867247D01*
X175173389Y-125867247D02*
X175268627Y-125962485D01*
X175268627Y-125962485D02*
X175173389Y-126057723D01*
X175173389Y-126057723D02*
X175078151Y-125962485D01*
X175078151Y-125962485D02*
X175268627Y-125962485D01*
X176982913Y-127772009D02*
X177078151Y-127581533D01*
X177078151Y-127581533D02*
X177078151Y-127200580D01*
X177078151Y-127200580D02*
X176982913Y-127010104D01*
X176982913Y-127010104D02*
X176887674Y-126914866D01*
X176887674Y-126914866D02*
X176697198Y-126819628D01*
X176697198Y-126819628D02*
X176125770Y-126819628D01*
X176125770Y-126819628D02*
X175935293Y-126914866D01*
X175935293Y-126914866D02*
X175840055Y-127010104D01*
X175840055Y-127010104D02*
X175744817Y-127200580D01*
X175744817Y-127200580D02*
X175744817Y-127581533D01*
X175744817Y-127581533D02*
X175840055Y-127772009D01*
D10*
X154048341Y-132444466D02*
X154086437Y-132482562D01*
X154086437Y-132482562D02*
X154200722Y-132520657D01*
X154200722Y-132520657D02*
X154276913Y-132520657D01*
X154276913Y-132520657D02*
X154391199Y-132482562D01*
X154391199Y-132482562D02*
X154467389Y-132406371D01*
X154467389Y-132406371D02*
X154505484Y-132330181D01*
X154505484Y-132330181D02*
X154543580Y-132177800D01*
X154543580Y-132177800D02*
X154543580Y-132063514D01*
X154543580Y-132063514D02*
X154505484Y-131911133D01*
X154505484Y-131911133D02*
X154467389Y-131834942D01*
X154467389Y-131834942D02*
X154391199Y-131758752D01*
X154391199Y-131758752D02*
X154276913Y-131720657D01*
X154276913Y-131720657D02*
X154200722Y-131720657D01*
X154200722Y-131720657D02*
X154086437Y-131758752D01*
X154086437Y-131758752D02*
X154048341Y-131796847D01*
X164181957Y-107897319D02*
X164220053Y-107935415D01*
X164220053Y-107935415D02*
X164334338Y-107973510D01*
X164334338Y-107973510D02*
X164410529Y-107973510D01*
X164410529Y-107973510D02*
X164524815Y-107935415D01*
X164524815Y-107935415D02*
X164601005Y-107859224D01*
X164601005Y-107859224D02*
X164639100Y-107783034D01*
X164639100Y-107783034D02*
X164677196Y-107630653D01*
X164677196Y-107630653D02*
X164677196Y-107516367D01*
X164677196Y-107516367D02*
X164639100Y-107363986D01*
X164639100Y-107363986D02*
X164601005Y-107287795D01*
X164601005Y-107287795D02*
X164524815Y-107211605D01*
X164524815Y-107211605D02*
X164410529Y-107173510D01*
X164410529Y-107173510D02*
X164334338Y-107173510D01*
X164334338Y-107173510D02*
X164220053Y-107211605D01*
X164220053Y-107211605D02*
X164181957Y-107249700D01*
X161362288Y-138303842D02*
X161362288Y-137503842D01*
X160905145Y-138303842D02*
X161248003Y-137846699D01*
X160905145Y-137503842D02*
X161362288Y-137960985D01*
D12*
X174868257Y-133520612D02*
X175451047Y-134398944D01*
X175451047Y-134398944D02*
X174457816Y-134045952D01*
X174768544Y-135195161D02*
X174864703Y-135149430D01*
X174864703Y-135149430D02*
X174981972Y-134999333D01*
X174981972Y-134999333D02*
X175003082Y-134894967D01*
X175003082Y-134894967D02*
X174957350Y-134798808D01*
X174957350Y-134798808D02*
X174657156Y-134564270D01*
X174657156Y-134564270D02*
X174552790Y-134543160D01*
X174552790Y-134543160D02*
X174456631Y-134588892D01*
X174456631Y-134588892D02*
X174339362Y-134738989D01*
X174339362Y-134738989D02*
X174318252Y-134843355D01*
X174318252Y-134843355D02*
X174363984Y-134939514D01*
X174363984Y-134939514D02*
X174439032Y-134998148D01*
X174439032Y-134998148D02*
X174807253Y-134681539D01*
X174512896Y-135599722D02*
X173987556Y-135189281D01*
X174137653Y-135306550D02*
X174033287Y-135285440D01*
X174033287Y-135285440D02*
X173966445Y-135293647D01*
X173966445Y-135293647D02*
X173870287Y-135339378D01*
X173870287Y-135339378D02*
X173811652Y-135414427D01*
X174123565Y-136020697D02*
X174102455Y-136125063D01*
X174102455Y-136125063D02*
X173985186Y-136275160D01*
X173985186Y-136275160D02*
X173889027Y-136320892D01*
X173889027Y-136320892D02*
X173784661Y-136299781D01*
X173784661Y-136299781D02*
X173747137Y-136270464D01*
X173747137Y-136270464D02*
X173701406Y-136174305D01*
X173701406Y-136174305D02*
X173722516Y-136069940D01*
X173722516Y-136069940D02*
X173810467Y-135957367D01*
X173810467Y-135957367D02*
X173831577Y-135853001D01*
X173831577Y-135853001D02*
X173785846Y-135756842D01*
X173785846Y-135756842D02*
X173748322Y-135727525D01*
X173748322Y-135727525D02*
X173643956Y-135706415D01*
X173643956Y-135706415D02*
X173547797Y-135752146D01*
X173547797Y-135752146D02*
X173459845Y-135864719D01*
X173459845Y-135864719D02*
X173438735Y-135969085D01*
X173633379Y-136725452D02*
X173108039Y-136315011D01*
X172845369Y-136109791D02*
X172912210Y-136101584D01*
X172912210Y-136101584D02*
X172920417Y-136168425D01*
X172920417Y-136168425D02*
X172853576Y-136176632D01*
X172853576Y-136176632D02*
X172845369Y-136109791D01*
X172845369Y-136109791D02*
X172920417Y-136168425D01*
X173252256Y-137213268D02*
X173273366Y-137108902D01*
X173273366Y-137108902D02*
X173265159Y-137042061D01*
X173265159Y-137042061D02*
X173219427Y-136945902D01*
X173219427Y-136945902D02*
X172994281Y-136769999D01*
X172994281Y-136769999D02*
X172889916Y-136748888D01*
X172889916Y-136748888D02*
X172823074Y-136757096D01*
X172823074Y-136757096D02*
X172726915Y-136802827D01*
X172726915Y-136802827D02*
X172638964Y-136915400D01*
X172638964Y-136915400D02*
X172617854Y-137019766D01*
X172617854Y-137019766D02*
X172626061Y-137086607D01*
X172626061Y-137086607D02*
X172671792Y-137182766D01*
X172671792Y-137182766D02*
X172896938Y-137358669D01*
X172896938Y-137358669D02*
X173001304Y-137379779D01*
X173001304Y-137379779D02*
X173068145Y-137371572D01*
X173068145Y-137371572D02*
X173164304Y-137325841D01*
X173164304Y-137325841D02*
X173252256Y-137213268D01*
X172257840Y-137403216D02*
X172783180Y-137813657D01*
X172332889Y-137461851D02*
X172266047Y-137470058D01*
X172266047Y-137470058D02*
X172169888Y-137515789D01*
X172169888Y-137515789D02*
X172081937Y-137628362D01*
X172081937Y-137628362D02*
X172060826Y-137732728D01*
X172060826Y-137732728D02*
X172106558Y-137828887D01*
X172106558Y-137828887D02*
X172519325Y-138151376D01*
X171073433Y-138532457D02*
X171006591Y-138540664D01*
X171006591Y-138540664D02*
X170910433Y-138586396D01*
X170910433Y-138586396D02*
X170763846Y-138774017D01*
X170763846Y-138774017D02*
X170742736Y-138878383D01*
X170742736Y-138878383D02*
X170750943Y-138945225D01*
X170750943Y-138945225D02*
X170796675Y-139041384D01*
X170796675Y-139041384D02*
X170871724Y-139100018D01*
X170871724Y-139100018D02*
X171013614Y-139150445D01*
X171013614Y-139150445D02*
X171815712Y-139051960D01*
X171815712Y-139051960D02*
X171434588Y-139539776D01*
X171095685Y-139818861D02*
X171103892Y-139885702D01*
X171103892Y-139885702D02*
X171170733Y-139877495D01*
X171170733Y-139877495D02*
X171162526Y-139810654D01*
X171162526Y-139810654D02*
X171095685Y-139818861D01*
X171095685Y-139818861D02*
X171170733Y-139877495D01*
X170555072Y-140665506D02*
X170906879Y-140215214D01*
X170730976Y-140440360D02*
X169942965Y-139824698D01*
X169942965Y-139824698D02*
X170114172Y-139837601D01*
X170114172Y-139837601D02*
X170247855Y-139821187D01*
X170247855Y-139821187D02*
X170344014Y-139775455D01*
D10*
X154081323Y-138020240D02*
X153700370Y-138020240D01*
X154157513Y-138248812D02*
X153890846Y-137448812D01*
X153890846Y-137448812D02*
X153624180Y-138248812D01*
X160609526Y-71505614D02*
X160647622Y-71543710D01*
X160647622Y-71543710D02*
X160761907Y-71581805D01*
X160761907Y-71581805D02*
X160838098Y-71581805D01*
X160838098Y-71581805D02*
X160952384Y-71543710D01*
X160952384Y-71543710D02*
X161028574Y-71467519D01*
X161028574Y-71467519D02*
X161066669Y-71391329D01*
X161066669Y-71391329D02*
X161104765Y-71238948D01*
X161104765Y-71238948D02*
X161104765Y-71124662D01*
X161104765Y-71124662D02*
X161066669Y-70972281D01*
X161066669Y-70972281D02*
X161028574Y-70896090D01*
X161028574Y-70896090D02*
X160952384Y-70819900D01*
X160952384Y-70819900D02*
X160838098Y-70781805D01*
X160838098Y-70781805D02*
X160761907Y-70781805D01*
X160761907Y-70781805D02*
X160647622Y-70819900D01*
X160647622Y-70819900D02*
X160609526Y-70857995D01*
X164238949Y-96495295D02*
X164277045Y-96533391D01*
X164277045Y-96533391D02*
X164391330Y-96571486D01*
X164391330Y-96571486D02*
X164467521Y-96571486D01*
X164467521Y-96571486D02*
X164581807Y-96533391D01*
X164581807Y-96533391D02*
X164657997Y-96457200D01*
X164657997Y-96457200D02*
X164696092Y-96381010D01*
X164696092Y-96381010D02*
X164734188Y-96228629D01*
X164734188Y-96228629D02*
X164734188Y-96114343D01*
X164734188Y-96114343D02*
X164696092Y-95961962D01*
X164696092Y-95961962D02*
X164657997Y-95885771D01*
X164657997Y-95885771D02*
X164581807Y-95809581D01*
X164581807Y-95809581D02*
X164467521Y-95771486D01*
X164467521Y-95771486D02*
X164391330Y-95771486D01*
X164391330Y-95771486D02*
X164277045Y-95809581D01*
X164277045Y-95809581D02*
X164238949Y-95847676D01*
D13*
X152279887Y-81944295D02*
X152660839Y-81944295D01*
X152660839Y-81944295D02*
X152698935Y-82325247D01*
X152698935Y-82325247D02*
X152660839Y-82287152D01*
X152660839Y-82287152D02*
X152584649Y-82249057D01*
X152584649Y-82249057D02*
X152394173Y-82249057D01*
X152394173Y-82249057D02*
X152317982Y-82287152D01*
X152317982Y-82287152D02*
X152279887Y-82325247D01*
X152279887Y-82325247D02*
X152241792Y-82401438D01*
X152241792Y-82401438D02*
X152241792Y-82591914D01*
X152241792Y-82591914D02*
X152279887Y-82668104D01*
X152279887Y-82668104D02*
X152317982Y-82706200D01*
X152317982Y-82706200D02*
X152394173Y-82744295D01*
X152394173Y-82744295D02*
X152584649Y-82744295D01*
X152584649Y-82744295D02*
X152660839Y-82706200D01*
X152660839Y-82706200D02*
X152698935Y-82668104D01*
X152013220Y-81944295D02*
X151746553Y-82744295D01*
X151746553Y-82744295D02*
X151479887Y-81944295D01*
D10*
X161775285Y-65417167D02*
X161394332Y-65417167D01*
X161851475Y-65645739D02*
X161584808Y-64845739D01*
X161584808Y-64845739D02*
X161318142Y-65645739D01*
X171169677Y-107579226D02*
X170903011Y-107579226D01*
X170788725Y-107998274D02*
X171169677Y-107998274D01*
X171169677Y-107998274D02*
X171169677Y-107198274D01*
X171169677Y-107198274D02*
X170788725Y-107198274D01*
X153825175Y-65645739D02*
X153825175Y-64845739D01*
X153368032Y-65645739D02*
X153710890Y-65188596D01*
X153368032Y-64845739D02*
X153825175Y-65302882D01*
X154504279Y-71113229D02*
X154237613Y-71113229D01*
X154123327Y-71532277D02*
X154504279Y-71532277D01*
X154504279Y-71532277D02*
X154504279Y-70732277D01*
X154504279Y-70732277D02*
X154123327Y-70732277D01*
X164992831Y-101804683D02*
X164611878Y-101804683D01*
X165069021Y-102033255D02*
X164802354Y-101233255D01*
X164802354Y-101233255D02*
X164535688Y-102033255D01*
X172273796Y-102088285D02*
X172273796Y-101288285D01*
X171816653Y-102088285D02*
X172159511Y-101631142D01*
X171816653Y-101288285D02*
X172273796Y-101745428D01*
D13*
X155595238Y-129600057D02*
X155690476Y-129552438D01*
X155690476Y-129552438D02*
X155785714Y-129457200D01*
X155785714Y-129457200D02*
X155928571Y-129314342D01*
X155928571Y-129314342D02*
X156023809Y-129266723D01*
X156023809Y-129266723D02*
X156119047Y-129266723D01*
X156071428Y-129504819D02*
X156166666Y-129457200D01*
X156166666Y-129457200D02*
X156261904Y-129361961D01*
X156261904Y-129361961D02*
X156309523Y-129171485D01*
X156309523Y-129171485D02*
X156309523Y-128838152D01*
X156309523Y-128838152D02*
X156261904Y-128647676D01*
X156261904Y-128647676D02*
X156166666Y-128552438D01*
X156166666Y-128552438D02*
X156071428Y-128504819D01*
X156071428Y-128504819D02*
X155880952Y-128504819D01*
X155880952Y-128504819D02*
X155785714Y-128552438D01*
X155785714Y-128552438D02*
X155690476Y-128647676D01*
X155690476Y-128647676D02*
X155642857Y-128838152D01*
X155642857Y-128838152D02*
X155642857Y-129171485D01*
X155642857Y-129171485D02*
X155690476Y-129361961D01*
X155690476Y-129361961D02*
X155785714Y-129457200D01*
X155785714Y-129457200D02*
X155880952Y-129504819D01*
X155880952Y-129504819D02*
X156071428Y-129504819D01*
X155261904Y-128600057D02*
X155214285Y-128552438D01*
X155214285Y-128552438D02*
X155119047Y-128504819D01*
X155119047Y-128504819D02*
X154880952Y-128504819D01*
X154880952Y-128504819D02*
X154785714Y-128552438D01*
X154785714Y-128552438D02*
X154738095Y-128600057D01*
X154738095Y-128600057D02*
X154690476Y-128695295D01*
X154690476Y-128695295D02*
X154690476Y-128790533D01*
X154690476Y-128790533D02*
X154738095Y-128933390D01*
X154738095Y-128933390D02*
X155309523Y-129504819D01*
X155309523Y-129504819D02*
X154690476Y-129504819D01*
X163963685Y-106287539D02*
X164058923Y-106239920D01*
X164058923Y-106239920D02*
X164154161Y-106144682D01*
X164154161Y-106144682D02*
X164297018Y-106001824D01*
X164297018Y-106001824D02*
X164392256Y-105954205D01*
X164392256Y-105954205D02*
X164487494Y-105954205D01*
X164439875Y-106192301D02*
X164535113Y-106144682D01*
X164535113Y-106144682D02*
X164630351Y-106049443D01*
X164630351Y-106049443D02*
X164677970Y-105858967D01*
X164677970Y-105858967D02*
X164677970Y-105525634D01*
X164677970Y-105525634D02*
X164630351Y-105335158D01*
X164630351Y-105335158D02*
X164535113Y-105239920D01*
X164535113Y-105239920D02*
X164439875Y-105192301D01*
X164439875Y-105192301D02*
X164249399Y-105192301D01*
X164249399Y-105192301D02*
X164154161Y-105239920D01*
X164154161Y-105239920D02*
X164058923Y-105335158D01*
X164058923Y-105335158D02*
X164011304Y-105525634D01*
X164011304Y-105525634D02*
X164011304Y-105858967D01*
X164011304Y-105858967D02*
X164058923Y-106049443D01*
X164058923Y-106049443D02*
X164154161Y-106144682D01*
X164154161Y-106144682D02*
X164249399Y-106192301D01*
X164249399Y-106192301D02*
X164439875Y-106192301D01*
X163154161Y-105525634D02*
X163154161Y-106192301D01*
X163392256Y-105144682D02*
X163630351Y-105858967D01*
X163630351Y-105858967D02*
X163011304Y-105858967D01*
X163890667Y-94996952D02*
X163985905Y-94949333D01*
X163985905Y-94949333D02*
X164081143Y-94854095D01*
X164081143Y-94854095D02*
X164224000Y-94711237D01*
X164224000Y-94711237D02*
X164319238Y-94663618D01*
X164319238Y-94663618D02*
X164414476Y-94663618D01*
X164366857Y-94901714D02*
X164462095Y-94854095D01*
X164462095Y-94854095D02*
X164557333Y-94758856D01*
X164557333Y-94758856D02*
X164604952Y-94568380D01*
X164604952Y-94568380D02*
X164604952Y-94235047D01*
X164604952Y-94235047D02*
X164557333Y-94044571D01*
X164557333Y-94044571D02*
X164462095Y-93949333D01*
X164462095Y-93949333D02*
X164366857Y-93901714D01*
X164366857Y-93901714D02*
X164176381Y-93901714D01*
X164176381Y-93901714D02*
X164081143Y-93949333D01*
X164081143Y-93949333D02*
X163985905Y-94044571D01*
X163985905Y-94044571D02*
X163938286Y-94235047D01*
X163938286Y-94235047D02*
X163938286Y-94568380D01*
X163938286Y-94568380D02*
X163985905Y-94758856D01*
X163985905Y-94758856D02*
X164081143Y-94854095D01*
X164081143Y-94854095D02*
X164176381Y-94901714D01*
X164176381Y-94901714D02*
X164366857Y-94901714D01*
X163604952Y-93901714D02*
X162985905Y-93901714D01*
X162985905Y-93901714D02*
X163319238Y-94282666D01*
X163319238Y-94282666D02*
X163176381Y-94282666D01*
X163176381Y-94282666D02*
X163081143Y-94330285D01*
X163081143Y-94330285D02*
X163033524Y-94377904D01*
X163033524Y-94377904D02*
X162985905Y-94473142D01*
X162985905Y-94473142D02*
X162985905Y-94711237D01*
X162985905Y-94711237D02*
X163033524Y-94806475D01*
X163033524Y-94806475D02*
X163081143Y-94854095D01*
X163081143Y-94854095D02*
X163176381Y-94901714D01*
X163176381Y-94901714D02*
X163462095Y-94901714D01*
X163462095Y-94901714D02*
X163557333Y-94854095D01*
X163557333Y-94854095D02*
X163604952Y-94806475D01*
X153688094Y-135604819D02*
X153688094Y-134604819D01*
X153688094Y-134604819D02*
X153449999Y-134604819D01*
X153449999Y-134604819D02*
X153307142Y-134652438D01*
X153307142Y-134652438D02*
X153211904Y-134747676D01*
X153211904Y-134747676D02*
X153164285Y-134842914D01*
X153164285Y-134842914D02*
X153116666Y-135033390D01*
X153116666Y-135033390D02*
X153116666Y-135176247D01*
X153116666Y-135176247D02*
X153164285Y-135366723D01*
X153164285Y-135366723D02*
X153211904Y-135461961D01*
X153211904Y-135461961D02*
X153307142Y-135557200D01*
X153307142Y-135557200D02*
X153449999Y-135604819D01*
X153449999Y-135604819D02*
X153688094Y-135604819D01*
X152735713Y-134700057D02*
X152688094Y-134652438D01*
X152688094Y-134652438D02*
X152592856Y-134604819D01*
X152592856Y-134604819D02*
X152354761Y-134604819D01*
X152354761Y-134604819D02*
X152259523Y-134652438D01*
X152259523Y-134652438D02*
X152211904Y-134700057D01*
X152211904Y-134700057D02*
X152164285Y-134795295D01*
X152164285Y-134795295D02*
X152164285Y-134890533D01*
X152164285Y-134890533D02*
X152211904Y-135033390D01*
X152211904Y-135033390D02*
X152783332Y-135604819D01*
X152783332Y-135604819D02*
X152164285Y-135604819D01*
X165146426Y-100121348D02*
X165146426Y-99121348D01*
X165146426Y-99121348D02*
X164908331Y-99121348D01*
X164908331Y-99121348D02*
X164765474Y-99168967D01*
X164765474Y-99168967D02*
X164670236Y-99264205D01*
X164670236Y-99264205D02*
X164622617Y-99359443D01*
X164622617Y-99359443D02*
X164574998Y-99549919D01*
X164574998Y-99549919D02*
X164574998Y-99692776D01*
X164574998Y-99692776D02*
X164622617Y-99883252D01*
X164622617Y-99883252D02*
X164670236Y-99978490D01*
X164670236Y-99978490D02*
X164765474Y-100073729D01*
X164765474Y-100073729D02*
X164908331Y-100121348D01*
X164908331Y-100121348D02*
X165146426Y-100121348D01*
X163622617Y-100121348D02*
X164194045Y-100121348D01*
X163908331Y-100121348D02*
X163908331Y-99121348D01*
X163908331Y-99121348D02*
X164003569Y-99264205D01*
X164003569Y-99264205D02*
X164098807Y-99359443D01*
X164098807Y-99359443D02*
X164194045Y-99407062D01*
X162967581Y-62861598D02*
X162967581Y-61861598D01*
X162967581Y-61861598D02*
X162729486Y-61861598D01*
X162729486Y-61861598D02*
X162586629Y-61909217D01*
X162586629Y-61909217D02*
X162491391Y-62004455D01*
X162491391Y-62004455D02*
X162443772Y-62099693D01*
X162443772Y-62099693D02*
X162396153Y-62290169D01*
X162396153Y-62290169D02*
X162396153Y-62433026D01*
X162396153Y-62433026D02*
X162443772Y-62623502D01*
X162443772Y-62623502D02*
X162491391Y-62718740D01*
X162491391Y-62718740D02*
X162586629Y-62813979D01*
X162586629Y-62813979D02*
X162729486Y-62861598D01*
X162729486Y-62861598D02*
X162967581Y-62861598D01*
X162062819Y-61861598D02*
X161396153Y-61861598D01*
X161396153Y-61861598D02*
X161824724Y-62861598D01*
X161385238Y-70400057D02*
X161480476Y-70352438D01*
X161480476Y-70352438D02*
X161575714Y-70257200D01*
X161575714Y-70257200D02*
X161718571Y-70114342D01*
X161718571Y-70114342D02*
X161813809Y-70066723D01*
X161813809Y-70066723D02*
X161909047Y-70066723D01*
X161861428Y-70304819D02*
X161956666Y-70257200D01*
X161956666Y-70257200D02*
X162051904Y-70161961D01*
X162051904Y-70161961D02*
X162099523Y-69971485D01*
X162099523Y-69971485D02*
X162099523Y-69638152D01*
X162099523Y-69638152D02*
X162051904Y-69447676D01*
X162051904Y-69447676D02*
X161956666Y-69352438D01*
X161956666Y-69352438D02*
X161861428Y-69304819D01*
X161861428Y-69304819D02*
X161670952Y-69304819D01*
X161670952Y-69304819D02*
X161575714Y-69352438D01*
X161575714Y-69352438D02*
X161480476Y-69447676D01*
X161480476Y-69447676D02*
X161432857Y-69638152D01*
X161432857Y-69638152D02*
X161432857Y-69971485D01*
X161432857Y-69971485D02*
X161480476Y-70161961D01*
X161480476Y-70161961D02*
X161575714Y-70257200D01*
X161575714Y-70257200D02*
X161670952Y-70304819D01*
X161670952Y-70304819D02*
X161861428Y-70304819D01*
X160528095Y-69304819D02*
X161004285Y-69304819D01*
X161004285Y-69304819D02*
X161051904Y-69781009D01*
X161051904Y-69781009D02*
X161004285Y-69733390D01*
X161004285Y-69733390D02*
X160909047Y-69685771D01*
X160909047Y-69685771D02*
X160670952Y-69685771D01*
X160670952Y-69685771D02*
X160575714Y-69733390D01*
X160575714Y-69733390D02*
X160528095Y-69781009D01*
X160528095Y-69781009D02*
X160480476Y-69876247D01*
X160480476Y-69876247D02*
X160480476Y-70114342D01*
X160480476Y-70114342D02*
X160528095Y-70209580D01*
X160528095Y-70209580D02*
X160575714Y-70257200D01*
X160575714Y-70257200D02*
X160670952Y-70304819D01*
X160670952Y-70304819D02*
X160909047Y-70304819D01*
X160909047Y-70304819D02*
X161004285Y-70257200D01*
X161004285Y-70257200D02*
X161051904Y-70209580D01*
D10*
%TO.C,Q2*%
X155970000Y-131014000D02*
X155970000Y-131170000D01*
X155970000Y-133330000D02*
X155970000Y-133486000D01*
X155970000Y-131014484D02*
G75*
G02*
X159201397Y-131169939I1560000J-1235516D01*
G01*
X156489039Y-131170000D02*
G75*
G02*
X158570910Y-131169951I1040961J-1080000D01*
G01*
X158570910Y-133330049D02*
G75*
G02*
X156489039Y-133330000I-1040910J1080049D01*
G01*
X159201397Y-133330061D02*
G75*
G02*
X155970000Y-133485516I-1671397J1080061D01*
G01*
%TO.C,Q4*%
X166234866Y-106121028D02*
X166234866Y-106277028D01*
X166234866Y-108437028D02*
X166234866Y-108593028D01*
X166234866Y-106121512D02*
G75*
G02*
X169466263Y-106276967I1560000J-1235516D01*
G01*
X166753905Y-106277028D02*
G75*
G02*
X168835776Y-106276979I1040961J-1080000D01*
G01*
X168835776Y-108437077D02*
G75*
G02*
X166753905Y-108437028I-1040910J1080049D01*
G01*
X169466263Y-108437089D02*
G75*
G02*
X166234866Y-108592544I-1671397J1080061D01*
G01*
%TO.C,Q3*%
X166216079Y-95025089D02*
X166216079Y-95181089D01*
X166216079Y-97341089D02*
X166216079Y-97497089D01*
X166216079Y-95025573D02*
G75*
G02*
X169447476Y-95181028I1560000J-1235516D01*
G01*
X166735118Y-95181089D02*
G75*
G02*
X168816989Y-95181040I1040961J-1080000D01*
G01*
X168816989Y-97341138D02*
G75*
G02*
X166735118Y-97341089I-1040910J1080049D01*
G01*
X169447476Y-97341150D02*
G75*
G02*
X166216079Y-97496605I-1671397J1080061D01*
G01*
%TO.C,D2*%
X160140000Y-139495000D02*
X160140000Y-136405000D01*
X154590000Y-137949952D02*
G75*
G02*
X160140000Y-136405170I2990000J-48D01*
G01*
X160140000Y-139494830D02*
G75*
G02*
X154590000Y-137950048I-2560000J1544830D01*
G01*
X160080000Y-137950000D02*
G75*
G02*
X155080000Y-137950000I-2500000J0D01*
G01*
X155080000Y-137950000D02*
G75*
G02*
X160080000Y-137950000I2500000J0D01*
G01*
%TO.C,D1*%
X171090000Y-103345000D02*
X171090000Y-100255000D01*
X165540000Y-101799952D02*
G75*
G02*
X171090000Y-100255170I2990000J-48D01*
G01*
X171090000Y-103344830D02*
G75*
G02*
X165540000Y-101800048I-2560000J1544830D01*
G01*
X171030000Y-101800000D02*
G75*
G02*
X166030000Y-101800000I-2500000J0D01*
G01*
X166030000Y-101800000D02*
G75*
G02*
X171030000Y-101800000I2500000J0D01*
G01*
%TO.C,D7*%
X155070000Y-63805000D02*
X155070000Y-66895000D01*
X155070000Y-63805170D02*
G75*
G02*
X160620000Y-65349952I2560000J-1544830D01*
G01*
X160620000Y-65350048D02*
G75*
G02*
X155070000Y-66894830I-2990000J48D01*
G01*
X160130000Y-65350000D02*
G75*
G02*
X155130000Y-65350000I-2500000J0D01*
G01*
X155130000Y-65350000D02*
G75*
G02*
X160130000Y-65350000I2500000J0D01*
G01*
%TO.C,Q5*%
X159190000Y-70020000D02*
X159190000Y-69864000D01*
X159190000Y-72336000D02*
X159190000Y-72180000D01*
X155958603Y-70019939D02*
G75*
G02*
X159190000Y-69864484I1671397J-1080061D01*
G01*
X156589090Y-70019951D02*
G75*
G02*
X158670961Y-70020000I1040910J-1080049D01*
G01*
X158670961Y-72180000D02*
G75*
G02*
X156589090Y-72180049I-1040961J1080000D01*
G01*
X159190000Y-72335516D02*
G75*
G02*
X155958603Y-72180061I-1560000J1235516D01*
G01*
%TD*%
M02*
