%TF.GenerationSoftware,KiCad,Pcbnew,8.0.8*%
%TF.CreationDate,2025-08-16T13:43:30+01:00*%
%TF.ProjectId,UKMARSBOT_LineSensorBasic,554b4d41-5253-4424-9f54-5f4c696e6553,rev?*%
%TF.SameCoordinates,Original*%
%TF.FileFunction,Copper,L1,Top*%
%TF.FilePolarity,Positive*%
%FSLAX46Y46*%
G04 Gerber Fmt 4.6, Leading zero omitted, Abs format (unit mm)*
G04 Created by KiCad (PCBNEW 8.0.8) date 2025-08-16 13:43:30*
%MOMM*%
%LPD*%
G01*
G04 APERTURE LIST*
%TA.AperFunction,ComponentPad*%
%ADD10R,1.600000X1.600000*%
%TD*%
%TA.AperFunction,ComponentPad*%
%ADD11C,1.600000*%
%TD*%
%TA.AperFunction,ComponentPad*%
%ADD12O,1.600000X1.600000*%
%TD*%
%TA.AperFunction,ComponentPad*%
%ADD13R,1.800000X1.800000*%
%TD*%
%TA.AperFunction,ComponentPad*%
%ADD14C,1.800000*%
%TD*%
%TA.AperFunction,ComponentPad*%
%ADD15R,2.400000X1.800000*%
%TD*%
%TA.AperFunction,ComponentPad*%
%ADD16O,2.400000X1.800000*%
%TD*%
%TA.AperFunction,ComponentPad*%
%ADD17R,1.700000X1.700000*%
%TD*%
%TA.AperFunction,ComponentPad*%
%ADD18O,1.700000X1.700000*%
%TD*%
%TA.AperFunction,ViaPad*%
%ADD19C,0.800000*%
%TD*%
%TA.AperFunction,Conductor*%
%ADD20C,0.800000*%
%TD*%
%TA.AperFunction,Conductor*%
%ADD21C,0.600000*%
%TD*%
G04 APERTURE END LIST*
D10*
%TO.P,C2,1*%
%TO.N,3v3*%
X142150000Y-77470000D03*
D11*
%TO.P,C2,2*%
%TO.N,GND*%
X139650000Y-77470000D03*
%TD*%
D10*
%TO.P,C1,1*%
%TO.N,Vemit*%
X142240000Y-64770000D03*
D11*
%TO.P,C1,2*%
%TO.N,GND*%
X139740000Y-64770000D03*
%TD*%
%TO.P,R9,1*%
%TO.N,SEN2AIP*%
X165100000Y-120650000D03*
D12*
%TO.P,R9,2*%
%TO.N,3v3*%
X172720000Y-120650000D03*
%TD*%
D11*
%TO.P,R14,1*%
%TO.N,SEN1AIP*%
X154940000Y-77470000D03*
D12*
%TO.P,R14,2*%
%TO.N,3v3*%
X147320000Y-77470000D03*
%TD*%
D11*
%TO.P,R1,1*%
%TO.N,+5V*%
X152400000Y-82550000D03*
D12*
%TO.P,R1,2*%
%TO.N,Vemit*%
X144780000Y-82550000D03*
%TD*%
D11*
%TO.P,R2,1*%
%TO.N,SEN0DI0*%
X152400000Y-90170000D03*
D12*
%TO.P,R2,2*%
%TO.N,Net-(Q1-B)*%
X144780000Y-90170000D03*
%TD*%
D11*
%TO.P,R8,1*%
%TO.N,SEN0AIP*%
X165100000Y-115570000D03*
D12*
%TO.P,R8,2*%
%TO.N,3v3*%
X172720000Y-115570000D03*
%TD*%
D13*
%TO.P,D6,1,K*%
%TO.N,Net-(D6-K)*%
X167640000Y-135890000D03*
D14*
%TO.P,D6,2,A*%
%TO.N,SEN3DI0*%
X165100000Y-135890000D03*
%TD*%
D11*
%TO.P,R12,1*%
%TO.N,Net-(D6-K)*%
X170180000Y-130810000D03*
D12*
%TO.P,R12,2*%
%TO.N,GND*%
X162560000Y-130810000D03*
%TD*%
D11*
%TO.P,R3,1*%
%TO.N,Net-(D1-A)*%
X175260000Y-81280000D03*
D12*
%TO.P,R3,2*%
%TO.N,Vemit*%
X167640000Y-81280000D03*
%TD*%
D11*
%TO.P,R17,1*%
%TO.N,Net-(D7-A)*%
X175260000Y-77470000D03*
D12*
%TO.P,R17,2*%
%TO.N,Vemit*%
X167640000Y-77470000D03*
%TD*%
D11*
%TO.P,R11,1*%
%TO.N,Net-(D5-K)*%
X170180000Y-85090000D03*
D12*
%TO.P,R11,2*%
%TO.N,GND*%
X162560000Y-85090000D03*
%TD*%
D11*
%TO.P,R16,1*%
%TO.N,Net-(Q6-B)*%
X139700000Y-119380000D03*
D12*
%TO.P,R16,2*%
%TO.N,GND*%
X147320000Y-119380000D03*
%TD*%
D15*
%TO.P,Q1,1,E*%
%TO.N,GND*%
X140970000Y-87630000D03*
D16*
%TO.P,Q1,2,B*%
%TO.N,Net-(Q1-B)*%
X140970000Y-90170000D03*
%TO.P,Q1,3,C*%
%TO.N,Net-(D1-K)*%
X140970000Y-92710000D03*
%TD*%
D11*
%TO.P,R15,1*%
%TO.N,SEN4DI0*%
X147320000Y-114300000D03*
D12*
%TO.P,R15,2*%
%TO.N,Net-(Q6-B)*%
X139700000Y-114300000D03*
%TD*%
D11*
%TO.P,R4,1*%
%TO.N,Net-(Q1-B)*%
X144780000Y-86360000D03*
D12*
%TO.P,R4,2*%
%TO.N,GND*%
X152400000Y-86360000D03*
%TD*%
D13*
%TO.P,D5,1,K*%
%TO.N,Net-(D5-K)*%
X170180000Y-90170000D03*
D14*
%TO.P,D5,2,A*%
%TO.N,SEN2DI0*%
X167640000Y-90170000D03*
%TD*%
D11*
%TO.P,R10,1*%
%TO.N,Net-(D4-K)*%
X165100000Y-72390000D03*
D12*
%TO.P,R10,2*%
%TO.N,GND*%
X172720000Y-72390000D03*
%TD*%
D11*
%TO.P,R7,1*%
%TO.N,SEN1AIP*%
X152400000Y-130810000D03*
D12*
%TO.P,R7,2*%
%TO.N,3v3*%
X144780000Y-130810000D03*
%TD*%
D15*
%TO.P,Q6,1,E*%
%TO.N,GND*%
X149860000Y-67310000D03*
D16*
%TO.P,Q6,2,B*%
%TO.N,Net-(Q6-B)*%
X149860000Y-64770000D03*
%TO.P,Q6,3,C*%
%TO.N,Net-(D7-K)*%
X149860000Y-62230000D03*
%TD*%
D17*
%TO.P,J1,1,Pin_1*%
%TO.N,+5V*%
X157480000Y-82550000D03*
D18*
%TO.P,J1,2,Pin_2*%
%TO.N,GND*%
X157480000Y-85090000D03*
%TO.P,J1,3,Pin_3*%
%TO.N,3v3*%
X157480000Y-87630000D03*
%TO.P,J1,4,Pin_4*%
%TO.N,SEN0DI0*%
X157480000Y-90170000D03*
%TO.P,J1,5,Pin_5*%
%TO.N,SEN1DI0*%
X157480000Y-92710000D03*
%TO.P,J1,6,Pin_6*%
%TO.N,SEN2DI0*%
X157480000Y-95250000D03*
%TO.P,J1,7,Pin_7*%
%TO.N,SEN3DI0*%
X157480000Y-97790000D03*
%TO.P,J1,8,Pin_8*%
%TO.N,SEN4DI0*%
X157480000Y-100330000D03*
%TO.P,J1,9,Pin_9*%
%TO.N,SEN0AIP*%
X157480000Y-102870000D03*
%TO.P,J1,10,Pin_10*%
%TO.N,SEN1AIP*%
X157480000Y-105410000D03*
%TO.P,J1,11,Pin_11*%
%TO.N,SEN2AIP*%
X157480000Y-107950000D03*
%TO.P,J1,12,Pin_12*%
%TO.N,SEN3AIP*%
X157480000Y-110490000D03*
%TO.P,J1,13,Pin_13*%
%TO.N,SEN4AIP*%
X157480000Y-113030000D03*
%TO.P,J1,14,Pin_14*%
%TO.N,SEN5AIP*%
X157480000Y-115570000D03*
%TO.P,J1,15,Pin_15*%
%TO.N,SDA*%
X157480000Y-118110000D03*
%TO.P,J1,16,Pin_16*%
%TO.N,SCL*%
X157480000Y-120650000D03*
%TD*%
D11*
%TO.P,R5,1*%
%TO.N,Net-(D2-A)*%
X152400000Y-135890000D03*
D12*
%TO.P,R5,2*%
%TO.N,Vemit*%
X144780000Y-135890000D03*
%TD*%
D13*
%TO.P,D4,1,K*%
%TO.N,Net-(D4-K)*%
X167640000Y-67310000D03*
D14*
%TO.P,D4,2,A*%
%TO.N,SEN1DI0*%
X165100000Y-67310000D03*
%TD*%
D13*
%TO.P,Q2,1,C*%
%TO.N,SEN1AIP*%
X156260000Y-132250000D03*
D14*
%TO.P,Q2,2,E*%
%TO.N,GND*%
X158800000Y-132250000D03*
%TD*%
D13*
%TO.P,Q4,1,C*%
%TO.N,SEN2AIP*%
X166524866Y-107357028D03*
D14*
%TO.P,Q4,2,E*%
%TO.N,GND*%
X169064866Y-107357028D03*
%TD*%
D13*
%TO.P,Q3,1,C*%
%TO.N,SEN0AIP*%
X166506079Y-96261089D03*
D14*
%TO.P,Q3,2,E*%
%TO.N,GND*%
X169046079Y-96261089D03*
%TD*%
D13*
%TO.P,D2,1,K*%
%TO.N,Net-(D1-K)*%
X158850000Y-137950000D03*
D14*
%TO.P,D2,2,A*%
%TO.N,Net-(D2-A)*%
X156310000Y-137950000D03*
%TD*%
D13*
%TO.P,D1,1,K*%
%TO.N,Net-(D1-K)*%
X169800000Y-101800000D03*
D14*
%TO.P,D1,2,A*%
%TO.N,Net-(D1-A)*%
X167260000Y-101800000D03*
%TD*%
D13*
%TO.P,D7,1,K*%
%TO.N,Net-(D7-K)*%
X156360000Y-65350000D03*
D14*
%TO.P,D7,2,A*%
%TO.N,Net-(D7-A)*%
X158900000Y-65350000D03*
%TD*%
D13*
%TO.P,Q5,1,C*%
%TO.N,SEN1AIP*%
X158900000Y-71100000D03*
D14*
%TO.P,Q5,2,E*%
%TO.N,GND*%
X156360000Y-71100000D03*
%TD*%
D19*
%TO.N,Vemit*%
X147320000Y-86360000D03*
%TO.N,SEN3DI0*%
X153670000Y-107950000D03*
%TO.N,SEN1AIP*%
X149860000Y-86360000D03*
%TD*%
D20*
%TO.N,Vemit*%
X149860000Y-78740000D02*
X149860000Y-69850000D01*
X144780000Y-82550000D02*
X146050000Y-82550000D01*
X149860000Y-69850000D02*
X142240000Y-69850000D01*
X146050000Y-82550000D02*
X149860000Y-78740000D01*
X153670000Y-69850000D02*
X149860000Y-69850000D01*
D21*
%TO.N,SEN1AIP*%
X154940000Y-76200000D02*
X154940000Y-77470000D01*
X158900000Y-72240000D02*
X154940000Y-76200000D01*
D20*
%TO.N,3v3*%
X142150000Y-77470000D02*
X147320000Y-77470000D01*
%TO.N,Vemit*%
X143510000Y-135890000D02*
X144780000Y-135890000D01*
X161290000Y-69850000D02*
X160020000Y-68580000D01*
X142240000Y-134620000D02*
X143510000Y-135890000D01*
X143510000Y-127000000D02*
X142240000Y-128270000D01*
X160020000Y-68580000D02*
X154940000Y-68580000D01*
X167640000Y-77470000D02*
X167640000Y-77051321D01*
X142240000Y-128270000D02*
X142240000Y-134620000D01*
X167640000Y-77051321D02*
X161290000Y-70701321D01*
X143510000Y-95250000D02*
X143510000Y-127000000D01*
X147320000Y-91440000D02*
X143510000Y-95250000D01*
X167640000Y-77470000D02*
X167640000Y-81280000D01*
X161290000Y-70701321D02*
X161290000Y-69850000D01*
X142240000Y-69850000D02*
X142240000Y-64770000D01*
X147320000Y-86360000D02*
X147320000Y-91440000D01*
X154940000Y-68580000D02*
X153670000Y-69850000D01*
%TO.N,3v3*%
X146050000Y-130810000D02*
X149090000Y-133850000D01*
X144780000Y-96520000D02*
X148590000Y-92710000D01*
X160020000Y-135890000D02*
X161290000Y-135890000D01*
X158750000Y-134620000D02*
X160020000Y-135890000D01*
X172720000Y-115570000D02*
X172720000Y-120650000D01*
X156210000Y-87630000D02*
X152998110Y-84418110D01*
X161290000Y-135890000D02*
X161290000Y-137160000D01*
X152998110Y-84418110D02*
X150458110Y-84418110D01*
X150458110Y-84418110D02*
X149860000Y-84418110D01*
X142150000Y-82292684D02*
X142255418Y-82398102D01*
X168910000Y-139414366D02*
X172720000Y-135604366D01*
X144275426Y-84418110D02*
X142255418Y-82398102D01*
X144780000Y-130810000D02*
X144780000Y-96520000D01*
X168910000Y-139700000D02*
X168910000Y-139414366D01*
X149090000Y-133850000D02*
X154170000Y-133850000D01*
X172720000Y-135604366D02*
X172720000Y-120650000D01*
X154940000Y-134620000D02*
X158750000Y-134620000D01*
X161290000Y-137160000D02*
X163830000Y-139700000D01*
X144780000Y-130810000D02*
X146050000Y-130810000D01*
X142150000Y-77470000D02*
X142150000Y-82292684D01*
X148590000Y-84418110D02*
X144275426Y-84418110D01*
X163830000Y-139700000D02*
X168910000Y-139700000D01*
X149860000Y-84418110D02*
X148590000Y-84418110D01*
X148590000Y-92710000D02*
X148590000Y-84418110D01*
X154170000Y-133850000D02*
X154940000Y-134620000D01*
X157480000Y-87630000D02*
X156210000Y-87630000D01*
%TO.N,+5V*%
X157480000Y-82550000D02*
X152400000Y-82550000D01*
%TO.N,Net-(D1-K)*%
X143510000Y-140970000D02*
X157480000Y-140970000D01*
X177400000Y-132480000D02*
X171450000Y-138430000D01*
X141200000Y-92940000D02*
X140970000Y-92710000D01*
X171450000Y-138430000D02*
X171450000Y-139700000D01*
X161290000Y-140970000D02*
X158850000Y-138530000D01*
X157480000Y-140970000D02*
X158750000Y-139700000D01*
X172920000Y-101800000D02*
X177400000Y-106280000D01*
X158750000Y-139700000D02*
X158750000Y-138050000D01*
X158750000Y-138050000D02*
X158850000Y-137950000D01*
X177400000Y-106280000D02*
X177400000Y-132480000D01*
X158850000Y-138530000D02*
X158850000Y-137950000D01*
X171450000Y-139700000D02*
X170180000Y-140970000D01*
X141200000Y-126770000D02*
X141200000Y-92940000D01*
X139700000Y-128270000D02*
X141200000Y-126770000D01*
X169800000Y-101800000D02*
X172920000Y-101800000D01*
X170180000Y-140970000D02*
X161290000Y-140970000D01*
X139700000Y-128270000D02*
X139700000Y-137160000D01*
X139700000Y-137160000D02*
X143510000Y-140970000D01*
%TO.N,Net-(D1-A)*%
X172720000Y-99060000D02*
X168910000Y-99060000D01*
X167260000Y-100710000D02*
X167260000Y-101800000D01*
X175260000Y-96520000D02*
X172720000Y-99060000D01*
X175260000Y-96520000D02*
X175260000Y-81280000D01*
X168910000Y-99060000D02*
X167260000Y-100710000D01*
%TO.N,Net-(D2-A)*%
X152400000Y-135890000D02*
X154460000Y-137950000D01*
X154460000Y-137950000D02*
X156310000Y-137950000D01*
D21*
%TO.N,SEN2AIP*%
X167640000Y-111760000D02*
X167640000Y-116840000D01*
X165931894Y-107950000D02*
X166524866Y-107357028D01*
X166524866Y-110644866D02*
X167640000Y-111760000D01*
X166524866Y-107357028D02*
X166524866Y-110644866D01*
X157480000Y-107950000D02*
X165931894Y-107950000D01*
X167640000Y-116840000D02*
X165100000Y-119380000D01*
X165100000Y-119380000D02*
X165100000Y-120650000D01*
%TO.N,SEN0AIP*%
X170180000Y-110490000D02*
X171450000Y-109220000D01*
X165100000Y-123190000D02*
X168910000Y-123190000D01*
X165760000Y-102210000D02*
X164465000Y-103505000D01*
X171450000Y-106680000D02*
X168910000Y-104140000D01*
X164465000Y-103505000D02*
X162560000Y-105410000D01*
X165760000Y-97007168D02*
X165760000Y-102210000D01*
X167005000Y-103505000D02*
X164465000Y-103505000D01*
X167640000Y-104140000D02*
X167005000Y-103505000D01*
X170180000Y-121920000D02*
X170180000Y-110490000D01*
X160020000Y-105410000D02*
X157480000Y-102870000D01*
X168910000Y-104140000D02*
X167640000Y-104140000D01*
X171450000Y-109220000D02*
X171450000Y-106680000D01*
X168910000Y-123190000D02*
X170180000Y-121920000D01*
X165100000Y-115570000D02*
X163700000Y-116970000D01*
X162560000Y-105410000D02*
X160020000Y-105410000D01*
X166506079Y-96261089D02*
X165760000Y-97007168D01*
X163700000Y-116970000D02*
X163700000Y-121790000D01*
X163700000Y-121790000D02*
X165100000Y-123190000D01*
%TO.N,SEN3DI0*%
X159960000Y-130750000D02*
X158690000Y-130750000D01*
X158690000Y-130750000D02*
X153670000Y-125730000D01*
X165100000Y-135890000D02*
X159960000Y-130750000D01*
X153670000Y-125730000D02*
X153670000Y-107950000D01*
%TO.N,SEN4DI0*%
X153667208Y-104140000D02*
X153670000Y-104140000D01*
X154940000Y-100330000D02*
X157480000Y-100330000D01*
X153670000Y-101600000D02*
X154940000Y-100330000D01*
X147320000Y-114300000D02*
X147320000Y-110487208D01*
X153670000Y-104140000D02*
X153670000Y-101600000D01*
X147320000Y-110487208D02*
X153667208Y-104140000D01*
%TO.N,SEN1AIP*%
X152400000Y-130810000D02*
X152400000Y-124460000D01*
X152400000Y-130810000D02*
X154820000Y-130810000D01*
X153670000Y-105410000D02*
X157480000Y-105410000D01*
X145920000Y-106810000D02*
X145920000Y-124330000D01*
X149860000Y-102870000D02*
X145920000Y-106810000D01*
X152400000Y-124460000D02*
X149860000Y-121920000D01*
X149860000Y-121920000D02*
X149860000Y-109220000D01*
X145920000Y-124330000D02*
X152400000Y-130810000D01*
X158900000Y-72240000D02*
X158900000Y-71100000D01*
X149860000Y-86360000D02*
X149860000Y-102870000D01*
X149860000Y-109220000D02*
X153670000Y-105410000D01*
X154820000Y-130810000D02*
X156260000Y-132250000D01*
%TO.N,SEN0DI0*%
X157480000Y-90170000D02*
X152400000Y-90170000D01*
%TO.N,SEN1DI0*%
X170180000Y-81989899D02*
X164539899Y-87630000D01*
X166370000Y-64770000D02*
X168910000Y-64770000D01*
X165100000Y-67310000D02*
X165100000Y-66040000D01*
X165100000Y-66040000D02*
X166370000Y-64770000D01*
X168910000Y-64770000D02*
X170180000Y-66040000D01*
X170180000Y-66040000D02*
X170180000Y-81989899D01*
X164539899Y-87630000D02*
X164539899Y-89460101D01*
X157480000Y-92710000D02*
X161290000Y-92710000D01*
X164539899Y-89460101D02*
X161290000Y-92710000D01*
%TO.N,SEN2DI0*%
X162560000Y-95250000D02*
X167640000Y-90170000D01*
X157480000Y-95250000D02*
X162560000Y-95250000D01*
D20*
%TO.N,Net-(D7-K)*%
X156360000Y-65350000D02*
X153240000Y-62230000D01*
X153240000Y-62230000D02*
X149860000Y-62230000D01*
%TO.N,Net-(D7-A)*%
X158900000Y-65350000D02*
X162020000Y-62230000D01*
X168910000Y-62230000D02*
X175260000Y-68580000D01*
X162020000Y-62230000D02*
X168910000Y-62230000D01*
X175260000Y-68580000D02*
X175260000Y-77470000D01*
D21*
%TO.N,Net-(Q1-B)*%
X140970000Y-90170000D02*
X144780000Y-90170000D01*
X144780000Y-90170000D02*
X144780000Y-86360000D01*
%TO.N,Net-(Q6-B)*%
X148590000Y-64770000D02*
X149860000Y-64770000D01*
X138250000Y-64280101D02*
X138250000Y-98880000D01*
X139700000Y-102870000D02*
X139700000Y-100330000D01*
X146050000Y-62230000D02*
X140300101Y-62230000D01*
X140300101Y-62230000D02*
X138250000Y-64280101D01*
X138430000Y-104140000D02*
X139700000Y-102870000D01*
X138250000Y-98880000D02*
X139700000Y-100330000D01*
X139700000Y-114300000D02*
X139700000Y-119380000D01*
X139700000Y-110490000D02*
X138430000Y-109220000D01*
X139700000Y-114300000D02*
X139700000Y-110490000D01*
X138430000Y-109220000D02*
X138430000Y-104140000D01*
X146050000Y-62230000D02*
X148590000Y-64770000D01*
%TO.N,Net-(D4-K)*%
X167640000Y-67310000D02*
X167640000Y-69850000D01*
X167640000Y-69850000D02*
X165100000Y-72390000D01*
%TO.N,Net-(D5-K)*%
X170180000Y-90170000D02*
X170180000Y-85092792D01*
X170180000Y-85092792D02*
X170181396Y-85091396D01*
%TO.N,Net-(D6-K)*%
X170180000Y-133350000D02*
X167640000Y-135890000D01*
X170180000Y-130810000D02*
X170180000Y-133350000D01*
%TD*%
M02*
