%TF.GenerationSoftware,KiCad,Pcbnew,8.0.8*%
%TF.CreationDate,2025-03-19T14:02:34+00:00*%
%TF.ProjectId,UKMARSBOT_LineSensorBasic,554b4d41-5253-4424-9f54-5f4c696e6553,rev?*%
%TF.SameCoordinates,Original*%
%TF.FileFunction,Copper,L2,Bot*%
%TF.FilePolarity,Positive*%
%FSLAX46Y46*%
G04 Gerber Fmt 4.6, Leading zero omitted, Abs format (unit mm)*
G04 Created by KiCad (PCBNEW 8.0.8) date 2025-03-19 14:02:34*
%MOMM*%
%LPD*%
G01*
G04 APERTURE LIST*
G04 Aperture macros list*
%AMRoundRect*
0 Rectangle with rounded corners*
0 $1 Rounding radius*
0 $2 $3 $4 $5 $6 $7 $8 $9 X,Y pos of 4 corners*
0 Add a 4 corners polygon primitive as box body*
4,1,4,$2,$3,$4,$5,$6,$7,$8,$9,$2,$3,0*
0 Add four circle primitives for the rounded corners*
1,1,$1+$1,$2,$3*
1,1,$1+$1,$4,$5*
1,1,$1+$1,$6,$7*
1,1,$1+$1,$8,$9*
0 Add four rect primitives between the rounded corners*
20,1,$1+$1,$2,$3,$4,$5,0*
20,1,$1+$1,$4,$5,$6,$7,0*
20,1,$1+$1,$6,$7,$8,$9,0*
20,1,$1+$1,$8,$9,$2,$3,0*%
G04 Aperture macros list end*
%TA.AperFunction,ComponentPad*%
%ADD10C,1.600000*%
%TD*%
%TA.AperFunction,ComponentPad*%
%ADD11O,1.600000X1.600000*%
%TD*%
%TA.AperFunction,ComponentPad*%
%ADD12R,1.800000X1.800000*%
%TD*%
%TA.AperFunction,ComponentPad*%
%ADD13C,1.800000*%
%TD*%
%TA.AperFunction,ComponentPad*%
%ADD14R,1.600000X1.600000*%
%TD*%
%TA.AperFunction,ComponentPad*%
%ADD15R,1.100000X1.800000*%
%TD*%
%TA.AperFunction,ComponentPad*%
%ADD16RoundRect,0.275000X-0.275000X-0.625000X0.275000X-0.625000X0.275000X0.625000X-0.275000X0.625000X0*%
%TD*%
%TA.AperFunction,ComponentPad*%
%ADD17R,1.800000X1.100000*%
%TD*%
%TA.AperFunction,ComponentPad*%
%ADD18RoundRect,0.275000X0.625000X-0.275000X0.625000X0.275000X-0.625000X0.275000X-0.625000X-0.275000X0*%
%TD*%
%TA.AperFunction,ComponentPad*%
%ADD19R,1.700000X1.700000*%
%TD*%
%TA.AperFunction,ComponentPad*%
%ADD20O,1.700000X1.700000*%
%TD*%
%TA.AperFunction,ViaPad*%
%ADD21C,0.800000*%
%TD*%
%TA.AperFunction,Conductor*%
%ADD22C,0.800000*%
%TD*%
%TA.AperFunction,Conductor*%
%ADD23C,0.600000*%
%TD*%
G04 APERTURE END LIST*
D10*
%TO.P,R9,1*%
%TO.N,SEN2AIP*%
X165100000Y-120650000D03*
D11*
%TO.P,R9,2*%
%TO.N,3v3*%
X172720000Y-120650000D03*
%TD*%
D10*
%TO.P,R7,1*%
%TO.N,SEN1AIP*%
X152400000Y-77470000D03*
D11*
%TO.P,R7,2*%
%TO.N,3v3*%
X144780000Y-77470000D03*
%TD*%
D10*
%TO.P,R1,1*%
%TO.N,+5V*%
X152400000Y-82550000D03*
D11*
%TO.P,R1,2*%
%TO.N,Vemit*%
X144780000Y-82550000D03*
%TD*%
D10*
%TO.P,R2,1*%
%TO.N,SEN0DI0*%
X152400000Y-90170000D03*
D11*
%TO.P,R2,2*%
%TO.N,Net-(Q1-B)*%
X144780000Y-90170000D03*
%TD*%
D10*
%TO.P,R8,1*%
%TO.N,SEN0AIP*%
X165100000Y-115570000D03*
D11*
%TO.P,R8,2*%
%TO.N,3v3*%
X172720000Y-115570000D03*
%TD*%
D12*
%TO.P,D6,1,K*%
%TO.N,Net-(D6-K)*%
X167640000Y-135890000D03*
D13*
%TO.P,D6,2,A*%
%TO.N,SEN3DI0*%
X165100000Y-135890000D03*
%TD*%
D14*
%TO.P,C2,1*%
%TO.N,3v3*%
X142150000Y-77470000D03*
D10*
%TO.P,C2,2*%
%TO.N,GND*%
X139650000Y-77470000D03*
%TD*%
%TO.P,R12,1*%
%TO.N,Net-(D6-K)*%
X170180000Y-130810000D03*
D11*
%TO.P,R12,2*%
%TO.N,GND*%
X162560000Y-130810000D03*
%TD*%
D10*
%TO.P,R3,1*%
%TO.N,Net-(D1-A)*%
X175260000Y-82550000D03*
D11*
%TO.P,R3,2*%
%TO.N,Vemit*%
X167640000Y-82550000D03*
%TD*%
D10*
%TO.P,R17,1*%
%TO.N,Net-(D7-A)*%
X175260000Y-77470000D03*
D11*
%TO.P,R17,2*%
%TO.N,Vemit*%
X167640000Y-77470000D03*
%TD*%
D10*
%TO.P,R11,1*%
%TO.N,Net-(D5-K)*%
X147960737Y-106675827D03*
D11*
%TO.P,R11,2*%
%TO.N,GND*%
X140340737Y-106675827D03*
%TD*%
D10*
%TO.P,R16,1*%
%TO.N,Net-(Q6-B)*%
X139700000Y-119380000D03*
D11*
%TO.P,R16,2*%
%TO.N,GND*%
X147320000Y-119380000D03*
%TD*%
D15*
%TO.P,Q1,1,E*%
%TO.N,GND*%
X139700000Y-87200000D03*
D16*
%TO.P,Q1,2,B*%
%TO.N,Net-(Q1-B)*%
X140970000Y-85130000D03*
%TO.P,Q1,3,C*%
%TO.N,Net-(D1-K)*%
X142240000Y-87200000D03*
%TD*%
D10*
%TO.P,R15,1*%
%TO.N,SEN4DI0*%
X147320000Y-114300000D03*
D11*
%TO.P,R15,2*%
%TO.N,Net-(Q6-B)*%
X139700000Y-114300000D03*
%TD*%
D14*
%TO.P,C1,1*%
%TO.N,Vemit*%
X142240000Y-64770000D03*
D10*
%TO.P,C1,2*%
%TO.N,GND*%
X139740000Y-64770000D03*
%TD*%
%TO.P,R4,1*%
%TO.N,Net-(Q1-B)*%
X144780000Y-86360000D03*
D11*
%TO.P,R4,2*%
%TO.N,GND*%
X152400000Y-86360000D03*
%TD*%
D12*
%TO.P,D5,1,K*%
%TO.N,Net-(D5-K)*%
X149860000Y-101600000D03*
D13*
%TO.P,D5,2,A*%
%TO.N,SEN2DI0*%
X147320000Y-101600000D03*
%TD*%
D10*
%TO.P,R10,1*%
%TO.N,Net-(D4-K)*%
X165100000Y-72390000D03*
D11*
%TO.P,R10,2*%
%TO.N,GND*%
X172720000Y-72390000D03*
%TD*%
D10*
%TO.P,R14,1*%
%TO.N,SEN1AIP*%
X152400000Y-130810000D03*
D11*
%TO.P,R14,2*%
%TO.N,3v3*%
X144780000Y-130810000D03*
%TD*%
D17*
%TO.P,Q6,1,E*%
%TO.N,GND*%
X150260000Y-67310000D03*
D18*
%TO.P,Q6,2,B*%
%TO.N,Net-(Q6-B)*%
X148190000Y-66040000D03*
%TO.P,Q6,3,C*%
%TO.N,Net-(D7-K)*%
X150260000Y-64770000D03*
%TD*%
D19*
%TO.P,J1,1,Pin_1*%
%TO.N,+5V*%
X157480000Y-82550000D03*
D20*
%TO.P,J1,2,Pin_2*%
%TO.N,GND*%
X157480000Y-85090000D03*
%TO.P,J1,3,Pin_3*%
%TO.N,3v3*%
X157480000Y-87630000D03*
%TO.P,J1,4,Pin_4*%
%TO.N,SEN0DI0*%
X157480000Y-90170000D03*
%TO.P,J1,5,Pin_5*%
%TO.N,SEN1DI0*%
X157480000Y-92710000D03*
%TO.P,J1,6,Pin_6*%
%TO.N,SEN2DI0*%
X157480000Y-95250000D03*
%TO.P,J1,7,Pin_7*%
%TO.N,SEN3DI0*%
X157480000Y-97790000D03*
%TO.P,J1,8,Pin_8*%
%TO.N,SEN4DI0*%
X157480000Y-100330000D03*
%TO.P,J1,9,Pin_9*%
%TO.N,SEN0AIP*%
X157480000Y-102870000D03*
%TO.P,J1,10,Pin_10*%
%TO.N,SEN1AIP*%
X157480000Y-105410000D03*
%TO.P,J1,11,Pin_11*%
%TO.N,SEN2AIP*%
X157480000Y-107950000D03*
%TO.P,J1,12,Pin_12*%
%TO.N,SEN3AIP*%
X157480000Y-110490000D03*
%TO.P,J1,13,Pin_13*%
%TO.N,SEN4AIP*%
X157480000Y-113030000D03*
%TO.P,J1,14,Pin_14*%
%TO.N,SEN5AIP*%
X157480000Y-115570000D03*
%TO.P,J1,15,Pin_15*%
%TO.N,SDA*%
X157480000Y-118110000D03*
%TO.P,J1,16,Pin_16*%
%TO.N,SCL*%
X157480000Y-120650000D03*
%TD*%
D10*
%TO.P,R5,1*%
%TO.N,Net-(D2-A)*%
X152400000Y-135890000D03*
D11*
%TO.P,R5,2*%
%TO.N,Vemit*%
X144780000Y-135890000D03*
%TD*%
D12*
%TO.P,D4,1,K*%
%TO.N,Net-(D4-K)*%
X167640000Y-67310000D03*
D13*
%TO.P,D4,2,A*%
%TO.N,SEN1DI0*%
X165100000Y-67310000D03*
%TD*%
D12*
%TO.P,Q2,1,C*%
%TO.N,SEN1AIP*%
X156260000Y-132250000D03*
D13*
%TO.P,Q2,2,E*%
%TO.N,GND*%
X158800000Y-132250000D03*
%TD*%
D12*
%TO.P,Q4,1,C*%
%TO.N,SEN2AIP*%
X166524866Y-107357028D03*
D13*
%TO.P,Q4,2,E*%
%TO.N,GND*%
X169064866Y-107357028D03*
%TD*%
D12*
%TO.P,Q3,1,C*%
%TO.N,SEN0AIP*%
X166506079Y-96261089D03*
D13*
%TO.P,Q3,2,E*%
%TO.N,GND*%
X169046079Y-96261089D03*
%TD*%
D12*
%TO.P,D2,1,K*%
%TO.N,Net-(D1-K)*%
X158850000Y-137950000D03*
D13*
%TO.P,D2,2,A*%
%TO.N,Net-(D2-A)*%
X156310000Y-137950000D03*
%TD*%
D12*
%TO.P,D1,1,K*%
%TO.N,Net-(D1-K)*%
X169800000Y-101800000D03*
D13*
%TO.P,D1,2,A*%
%TO.N,Net-(D1-A)*%
X167260000Y-101800000D03*
%TD*%
D12*
%TO.P,D7,1,K*%
%TO.N,Net-(D7-K)*%
X156360000Y-65350000D03*
D13*
%TO.P,D7,2,A*%
%TO.N,Net-(D7-A)*%
X158900000Y-65350000D03*
%TD*%
D12*
%TO.P,Q5,1,C*%
%TO.N,SEN1AIP*%
X158900000Y-71100000D03*
D13*
%TO.P,Q5,2,E*%
%TO.N,GND*%
X156360000Y-71100000D03*
%TD*%
D21*
%TO.N,Vemit*%
X147320000Y-86360000D03*
%TO.N,SEN3DI0*%
X153670000Y-107950000D03*
%TD*%
D22*
%TO.N,GND*%
X139650000Y-86750000D02*
X139650000Y-77470000D01*
X143510000Y-106680000D02*
X143510000Y-93980000D01*
X157480000Y-85090000D02*
X170180000Y-85090000D01*
X168910000Y-125730000D02*
X169064866Y-125575134D01*
X149860000Y-113030000D02*
X143510000Y-106680000D01*
X172720000Y-104140000D02*
X172281894Y-104140000D01*
X170180000Y-85090000D02*
X172720000Y-87630000D01*
X139650000Y-77470000D02*
X139650000Y-64860000D01*
X149860000Y-67310000D02*
X152400000Y-69850000D01*
X169064866Y-125575134D02*
X169064866Y-107357028D01*
X172720000Y-87630000D02*
X172720000Y-92587168D01*
X168910000Y-127000000D02*
X168910000Y-125730000D01*
X140340737Y-106675827D02*
X143505827Y-106675827D01*
X172281894Y-104140000D02*
X169064866Y-107357028D01*
X172720000Y-87630000D02*
X172720000Y-72390000D01*
X139700000Y-90170000D02*
X139700000Y-86800000D01*
X172720000Y-92587168D02*
X169046079Y-96261089D01*
X169046079Y-96261089D02*
X172720000Y-99935010D01*
X156210000Y-86360000D02*
X157480000Y-85090000D01*
X147320000Y-69850000D02*
X149860000Y-67310000D01*
X152400000Y-69850000D02*
X155110000Y-69850000D01*
X147320000Y-119380000D02*
X149860000Y-116840000D01*
X139650000Y-64860000D02*
X139740000Y-64770000D01*
X155110000Y-69850000D02*
X156360000Y-71100000D01*
X139700000Y-86800000D02*
X139650000Y-86750000D01*
X158800000Y-132250000D02*
X161120000Y-132250000D01*
X151130000Y-86360000D02*
X143510000Y-93980000D01*
X152400000Y-86360000D02*
X156210000Y-86360000D01*
X139740000Y-65901370D02*
X143688630Y-69850000D01*
X149860000Y-116840000D02*
X149860000Y-113030000D01*
X161120000Y-132250000D02*
X162560000Y-130810000D01*
X143688630Y-69850000D02*
X147320000Y-69850000D01*
X172720000Y-99935010D02*
X172720000Y-104140000D01*
X143505827Y-106675827D02*
X143510000Y-106680000D01*
X143510000Y-93980000D02*
X139700000Y-90170000D01*
X139740000Y-64770000D02*
X139740000Y-65901370D01*
X165100000Y-130810000D02*
X168910000Y-127000000D01*
X162560000Y-130810000D02*
X165100000Y-130810000D01*
X152400000Y-86360000D02*
X151130000Y-86360000D01*
%TO.N,Vemit*%
X147320000Y-85090000D02*
X144780000Y-82550000D01*
X147320000Y-86360000D02*
X147320000Y-85090000D01*
D23*
%TO.N,SEN3DI0*%
X154940000Y-97790000D02*
X157480000Y-97790000D01*
X153670000Y-99060000D02*
X154940000Y-97790000D01*
X153670000Y-107950000D02*
X153670000Y-99060000D01*
%TD*%
%TA.AperFunction,Conductor*%
%TO.N,GND*%
G36*
X170491344Y-60959937D02*
G01*
X170558359Y-60979692D01*
X170587305Y-61005568D01*
X177770250Y-69813520D01*
X177772097Y-69815784D01*
X177799210Y-69880178D01*
X177800000Y-69894151D01*
X177800000Y-133305378D01*
X177780315Y-133372417D01*
X177771567Y-133384390D01*
X170487143Y-142195073D01*
X170429255Y-142234198D01*
X170391707Y-142240061D01*
X137474131Y-142274898D01*
X137407071Y-142255284D01*
X137361260Y-142202529D01*
X137350000Y-142150898D01*
X137350000Y-137949999D01*
X155104357Y-137949999D01*
X155104357Y-137950000D01*
X155124884Y-138171535D01*
X155124885Y-138171537D01*
X155185769Y-138385523D01*
X155185775Y-138385538D01*
X155284938Y-138584683D01*
X155284943Y-138584691D01*
X155419020Y-138762238D01*
X155583437Y-138912123D01*
X155583439Y-138912125D01*
X155772595Y-139029245D01*
X155772596Y-139029245D01*
X155772599Y-139029247D01*
X155980060Y-139109618D01*
X156198757Y-139150500D01*
X156198759Y-139150500D01*
X156421241Y-139150500D01*
X156421243Y-139150500D01*
X156639940Y-139109618D01*
X156847401Y-139029247D01*
X157036562Y-138912124D01*
X157200981Y-138762236D01*
X157335058Y-138584689D01*
X157414500Y-138425149D01*
X157462002Y-138373911D01*
X157529665Y-138356490D01*
X157596006Y-138378415D01*
X157639961Y-138432727D01*
X157649500Y-138480420D01*
X157649500Y-138894856D01*
X157649502Y-138894882D01*
X157652413Y-138919987D01*
X157652415Y-138919991D01*
X157697793Y-139022764D01*
X157697794Y-139022765D01*
X157777235Y-139102206D01*
X157880009Y-139147585D01*
X157905135Y-139150500D01*
X159794864Y-139150499D01*
X159794879Y-139150497D01*
X159794882Y-139150497D01*
X159819987Y-139147586D01*
X159819988Y-139147585D01*
X159819991Y-139147585D01*
X159922765Y-139102206D01*
X160002206Y-139022765D01*
X160047585Y-138919991D01*
X160050500Y-138894865D01*
X160050499Y-137005136D01*
X160048802Y-136990500D01*
X160047586Y-136980012D01*
X160047585Y-136980010D01*
X160047585Y-136980009D01*
X160002206Y-136877235D01*
X159922765Y-136797794D01*
X159922763Y-136797793D01*
X159819992Y-136752415D01*
X159794865Y-136749500D01*
X157905143Y-136749500D01*
X157905117Y-136749502D01*
X157880012Y-136752413D01*
X157880008Y-136752415D01*
X157777235Y-136797793D01*
X157697794Y-136877234D01*
X157652415Y-136980006D01*
X157652415Y-136980008D01*
X157649500Y-137005131D01*
X157649500Y-137419578D01*
X157629815Y-137486617D01*
X157577011Y-137532372D01*
X157507853Y-137542316D01*
X157444297Y-137513291D01*
X157414500Y-137474850D01*
X157335061Y-137315316D01*
X157335056Y-137315308D01*
X157200979Y-137137761D01*
X157036562Y-136987876D01*
X157036560Y-136987874D01*
X156847404Y-136870754D01*
X156847398Y-136870752D01*
X156819626Y-136859993D01*
X156639940Y-136790382D01*
X156421243Y-136749500D01*
X156198757Y-136749500D01*
X155980060Y-136790382D01*
X155865229Y-136834868D01*
X155772601Y-136870752D01*
X155772595Y-136870754D01*
X155583439Y-136987874D01*
X155583437Y-136987876D01*
X155419020Y-137137761D01*
X155284943Y-137315308D01*
X155284938Y-137315316D01*
X155185775Y-137514461D01*
X155185769Y-137514476D01*
X155124885Y-137728462D01*
X155124884Y-137728464D01*
X155104357Y-137949999D01*
X137350000Y-137949999D01*
X137350000Y-135889999D01*
X143674785Y-135889999D01*
X143674785Y-135890000D01*
X143693602Y-136093082D01*
X143749417Y-136289247D01*
X143749422Y-136289260D01*
X143840327Y-136471821D01*
X143963237Y-136634581D01*
X144113958Y-136771980D01*
X144113960Y-136771982D01*
X144213141Y-136833392D01*
X144287363Y-136879348D01*
X144477544Y-136953024D01*
X144678024Y-136990500D01*
X144678026Y-136990500D01*
X144881974Y-136990500D01*
X144881976Y-136990500D01*
X145082456Y-136953024D01*
X145272637Y-136879348D01*
X145446041Y-136771981D01*
X145596764Y-136634579D01*
X145719673Y-136471821D01*
X145810582Y-136289250D01*
X145866397Y-136093083D01*
X145885215Y-135890000D01*
X145885215Y-135889999D01*
X151294785Y-135889999D01*
X151294785Y-135890000D01*
X151313602Y-136093082D01*
X151369417Y-136289247D01*
X151369422Y-136289260D01*
X151460327Y-136471821D01*
X151583237Y-136634581D01*
X151733958Y-136771980D01*
X151733960Y-136771982D01*
X151833141Y-136833392D01*
X151907363Y-136879348D01*
X152097544Y-136953024D01*
X152298024Y-136990500D01*
X152298026Y-136990500D01*
X152501974Y-136990500D01*
X152501976Y-136990500D01*
X152702456Y-136953024D01*
X152892637Y-136879348D01*
X153066041Y-136771981D01*
X153216764Y-136634579D01*
X153339673Y-136471821D01*
X153430582Y-136289250D01*
X153486397Y-136093083D01*
X153505215Y-135890000D01*
X153505215Y-135889999D01*
X163894357Y-135889999D01*
X163894357Y-135890000D01*
X163914884Y-136111535D01*
X163914885Y-136111537D01*
X163975769Y-136325523D01*
X163975775Y-136325538D01*
X164074938Y-136524683D01*
X164074943Y-136524691D01*
X164209020Y-136702238D01*
X164373437Y-136852123D01*
X164373439Y-136852125D01*
X164562595Y-136969245D01*
X164562596Y-136969245D01*
X164562599Y-136969247D01*
X164770060Y-137049618D01*
X164988757Y-137090500D01*
X164988759Y-137090500D01*
X165211241Y-137090500D01*
X165211243Y-137090500D01*
X165429940Y-137049618D01*
X165637401Y-136969247D01*
X165826562Y-136852124D01*
X165990981Y-136702236D01*
X166125058Y-136524689D01*
X166204500Y-136365149D01*
X166252002Y-136313911D01*
X166319665Y-136296490D01*
X166386006Y-136318415D01*
X166429961Y-136372727D01*
X166439500Y-136420420D01*
X166439500Y-136834856D01*
X166439502Y-136834882D01*
X166442413Y-136859987D01*
X166442415Y-136859991D01*
X166487793Y-136962764D01*
X166487794Y-136962765D01*
X166567235Y-137042206D01*
X166670009Y-137087585D01*
X166695135Y-137090500D01*
X168584864Y-137090499D01*
X168584879Y-137090497D01*
X168584882Y-137090497D01*
X168609987Y-137087586D01*
X168609988Y-137087585D01*
X168609991Y-137087585D01*
X168712765Y-137042206D01*
X168792206Y-136962765D01*
X168837585Y-136859991D01*
X168840500Y-136834865D01*
X168840499Y-134945136D01*
X168840497Y-134945117D01*
X168837586Y-134920012D01*
X168837585Y-134920010D01*
X168837585Y-134920009D01*
X168792206Y-134817235D01*
X168712765Y-134737794D01*
X168712763Y-134737793D01*
X168609992Y-134692415D01*
X168584865Y-134689500D01*
X166695143Y-134689500D01*
X166695117Y-134689502D01*
X166670012Y-134692413D01*
X166670008Y-134692415D01*
X166567235Y-134737793D01*
X166487794Y-134817234D01*
X166442415Y-134920006D01*
X166442415Y-134920008D01*
X166439500Y-134945131D01*
X166439500Y-135359578D01*
X166419815Y-135426617D01*
X166367011Y-135472372D01*
X166297853Y-135482316D01*
X166234297Y-135453291D01*
X166204500Y-135414850D01*
X166125061Y-135255316D01*
X166125056Y-135255308D01*
X165990979Y-135077761D01*
X165826562Y-134927876D01*
X165826560Y-134927874D01*
X165637404Y-134810754D01*
X165637398Y-134810752D01*
X165429940Y-134730382D01*
X165211243Y-134689500D01*
X164988757Y-134689500D01*
X164770060Y-134730382D01*
X164638864Y-134781207D01*
X164562601Y-134810752D01*
X164562595Y-134810754D01*
X164373439Y-134927874D01*
X164373437Y-134927876D01*
X164209020Y-135077761D01*
X164074943Y-135255308D01*
X164074938Y-135255316D01*
X163975775Y-135454461D01*
X163975769Y-135454476D01*
X163914885Y-135668462D01*
X163914884Y-135668464D01*
X163894357Y-135889999D01*
X153505215Y-135889999D01*
X153486397Y-135686917D01*
X153430582Y-135490750D01*
X153426382Y-135482316D01*
X153386272Y-135401764D01*
X153339673Y-135308179D01*
X153216764Y-135145421D01*
X153216762Y-135145418D01*
X153066041Y-135008019D01*
X153066039Y-135008017D01*
X152892642Y-134900655D01*
X152892635Y-134900651D01*
X152797546Y-134863814D01*
X152702456Y-134826976D01*
X152501976Y-134789500D01*
X152298024Y-134789500D01*
X152097544Y-134826976D01*
X152097541Y-134826976D01*
X152097541Y-134826977D01*
X151907364Y-134900651D01*
X151907357Y-134900655D01*
X151733960Y-135008017D01*
X151733958Y-135008019D01*
X151583237Y-135145418D01*
X151460327Y-135308178D01*
X151369422Y-135490739D01*
X151369417Y-135490752D01*
X151313602Y-135686917D01*
X151294785Y-135889999D01*
X145885215Y-135889999D01*
X145866397Y-135686917D01*
X145810582Y-135490750D01*
X145806382Y-135482316D01*
X145766272Y-135401764D01*
X145719673Y-135308179D01*
X145596764Y-135145421D01*
X145596762Y-135145418D01*
X145446041Y-135008019D01*
X145446039Y-135008017D01*
X145272642Y-134900655D01*
X145272635Y-134900651D01*
X145177546Y-134863814D01*
X145082456Y-134826976D01*
X144881976Y-134789500D01*
X144678024Y-134789500D01*
X144477544Y-134826976D01*
X144477541Y-134826976D01*
X144477541Y-134826977D01*
X144287364Y-134900651D01*
X144287357Y-134900655D01*
X144113960Y-135008017D01*
X144113958Y-135008019D01*
X143963237Y-135145418D01*
X143840327Y-135308178D01*
X143749422Y-135490739D01*
X143749417Y-135490752D01*
X143693602Y-135686917D01*
X143674785Y-135889999D01*
X137350000Y-135889999D01*
X137350000Y-130809999D01*
X143674785Y-130809999D01*
X143674785Y-130810000D01*
X143693602Y-131013082D01*
X143749417Y-131209247D01*
X143749422Y-131209260D01*
X143840327Y-131391821D01*
X143963237Y-131554581D01*
X144113958Y-131691980D01*
X144113960Y-131691982D01*
X144213141Y-131753392D01*
X144287363Y-131799348D01*
X144477544Y-131873024D01*
X144678024Y-131910500D01*
X144678026Y-131910500D01*
X144881974Y-131910500D01*
X144881976Y-131910500D01*
X145082456Y-131873024D01*
X145272637Y-131799348D01*
X145446041Y-131691981D01*
X145596764Y-131554579D01*
X145719673Y-131391821D01*
X145810582Y-131209250D01*
X145866397Y-131013083D01*
X145885215Y-130810000D01*
X145885215Y-130809999D01*
X151294785Y-130809999D01*
X151294785Y-130810000D01*
X151313602Y-131013082D01*
X151369417Y-131209247D01*
X151369422Y-131209260D01*
X151460327Y-131391821D01*
X151583237Y-131554581D01*
X151733958Y-131691980D01*
X151733960Y-131691982D01*
X151833141Y-131753392D01*
X151907363Y-131799348D01*
X152097544Y-131873024D01*
X152298024Y-131910500D01*
X152298026Y-131910500D01*
X152501974Y-131910500D01*
X152501976Y-131910500D01*
X152702456Y-131873024D01*
X152892637Y-131799348D01*
X153066041Y-131691981D01*
X153216764Y-131554579D01*
X153339673Y-131391821D01*
X153382839Y-131305131D01*
X155059500Y-131305131D01*
X155059500Y-133194856D01*
X155059502Y-133194882D01*
X155062413Y-133219987D01*
X155062415Y-133219991D01*
X155107793Y-133322764D01*
X155107794Y-133322765D01*
X155187235Y-133402206D01*
X155290009Y-133447585D01*
X155315135Y-133450500D01*
X157204864Y-133450499D01*
X157204879Y-133450497D01*
X157204882Y-133450497D01*
X157229987Y-133447586D01*
X157229988Y-133447585D01*
X157229991Y-133447585D01*
X157332765Y-133402206D01*
X157412206Y-133322765D01*
X157457585Y-133219991D01*
X157460500Y-133194865D01*
X157460499Y-133165629D01*
X157480182Y-133098593D01*
X157532984Y-133052836D01*
X157597291Y-133042291D01*
X157648811Y-133047634D01*
X158357861Y-132338584D01*
X158380667Y-132423694D01*
X158439910Y-132526306D01*
X158523694Y-132610090D01*
X158626306Y-132669333D01*
X158711414Y-132692138D01*
X158001201Y-133402351D01*
X158031649Y-133426050D01*
X158235697Y-133536476D01*
X158235706Y-133536479D01*
X158455139Y-133611811D01*
X158683993Y-133650000D01*
X158916007Y-133650000D01*
X159144860Y-133611811D01*
X159364293Y-133536479D01*
X159364301Y-133536476D01*
X159568355Y-133426047D01*
X159598797Y-133402351D01*
X159598798Y-133402350D01*
X158888585Y-132692137D01*
X158973694Y-132669333D01*
X159076306Y-132610090D01*
X159160090Y-132526306D01*
X159219333Y-132423694D01*
X159242137Y-132338585D01*
X159951186Y-133047634D01*
X160035484Y-132918606D01*
X160128682Y-132706135D01*
X160185638Y-132481218D01*
X160204798Y-132250005D01*
X160204798Y-132249994D01*
X160185638Y-132018781D01*
X160128682Y-131793864D01*
X160035483Y-131581390D01*
X159951186Y-131452364D01*
X159242137Y-132161413D01*
X159219333Y-132076306D01*
X159160090Y-131973694D01*
X159076306Y-131889910D01*
X158973694Y-131830667D01*
X158888584Y-131807861D01*
X159598797Y-131097647D01*
X159598797Y-131097645D01*
X159568360Y-131073955D01*
X159568354Y-131073951D01*
X159364302Y-130963523D01*
X159364293Y-130963520D01*
X159144860Y-130888188D01*
X158916007Y-130850000D01*
X158683993Y-130850000D01*
X158455139Y-130888188D01*
X158235706Y-130963520D01*
X158235697Y-130963523D01*
X158031650Y-131073949D01*
X158001200Y-131097647D01*
X158711415Y-131807861D01*
X158626306Y-131830667D01*
X158523694Y-131889910D01*
X158439910Y-131973694D01*
X158380667Y-132076306D01*
X158357861Y-132161414D01*
X157648811Y-131452364D01*
X157597290Y-131457708D01*
X157528577Y-131445043D01*
X157477620Y-131397241D01*
X157460499Y-131334369D01*
X157460499Y-131305143D01*
X157460499Y-131305136D01*
X157460497Y-131305117D01*
X157457586Y-131280012D01*
X157457585Y-131280010D01*
X157457585Y-131280009D01*
X157412206Y-131177235D01*
X157332765Y-131097794D01*
X157278766Y-131073951D01*
X157229992Y-131052415D01*
X157204865Y-131049500D01*
X155315143Y-131049500D01*
X155315117Y-131049502D01*
X155290012Y-131052413D01*
X155290008Y-131052415D01*
X155187235Y-131097793D01*
X155107794Y-131177234D01*
X155062415Y-131280006D01*
X155062415Y-131280008D01*
X155059500Y-131305131D01*
X153382839Y-131305131D01*
X153430582Y-131209250D01*
X153486397Y-131013083D01*
X153505215Y-130810000D01*
X153486397Y-130606917D01*
X153473048Y-130559999D01*
X161281127Y-130559999D01*
X161281128Y-130560000D01*
X162244314Y-130560000D01*
X162239920Y-130564394D01*
X162187259Y-130655606D01*
X162160000Y-130757339D01*
X162160000Y-130862661D01*
X162187259Y-130964394D01*
X162239920Y-131055606D01*
X162244314Y-131060000D01*
X161281128Y-131060000D01*
X161333730Y-131256317D01*
X161333734Y-131256326D01*
X161429865Y-131462482D01*
X161560342Y-131648820D01*
X161721179Y-131809657D01*
X161907517Y-131940134D01*
X162113673Y-132036265D01*
X162113682Y-132036269D01*
X162309999Y-132088872D01*
X162310000Y-132088871D01*
X162310000Y-131125686D01*
X162314394Y-131130080D01*
X162405606Y-131182741D01*
X162507339Y-131210000D01*
X162612661Y-131210000D01*
X162714394Y-131182741D01*
X162805606Y-131130080D01*
X162810000Y-131125686D01*
X162810000Y-132088872D01*
X163006317Y-132036269D01*
X163006326Y-132036265D01*
X163212482Y-131940134D01*
X163398820Y-131809657D01*
X163559657Y-131648820D01*
X163690134Y-131462482D01*
X163786265Y-131256326D01*
X163786269Y-131256317D01*
X163838872Y-131060000D01*
X162875686Y-131060000D01*
X162880080Y-131055606D01*
X162932741Y-130964394D01*
X162960000Y-130862661D01*
X162960000Y-130809999D01*
X169074785Y-130809999D01*
X169074785Y-130810000D01*
X169093602Y-131013082D01*
X169149417Y-131209247D01*
X169149422Y-131209260D01*
X169240327Y-131391821D01*
X169363237Y-131554581D01*
X169513958Y-131691980D01*
X169513960Y-131691982D01*
X169613141Y-131753392D01*
X169687363Y-131799348D01*
X169877544Y-131873024D01*
X170078024Y-131910500D01*
X170078026Y-131910500D01*
X170281974Y-131910500D01*
X170281976Y-131910500D01*
X170482456Y-131873024D01*
X170672637Y-131799348D01*
X170846041Y-131691981D01*
X170996764Y-131554579D01*
X171119673Y-131391821D01*
X171210582Y-131209250D01*
X171266397Y-131013083D01*
X171285215Y-130810000D01*
X171266397Y-130606917D01*
X171210582Y-130410750D01*
X171119673Y-130228179D01*
X170996764Y-130065421D01*
X170996762Y-130065418D01*
X170846041Y-129928019D01*
X170846039Y-129928017D01*
X170672642Y-129820655D01*
X170672635Y-129820651D01*
X170577546Y-129783814D01*
X170482456Y-129746976D01*
X170281976Y-129709500D01*
X170078024Y-129709500D01*
X169877544Y-129746976D01*
X169877541Y-129746976D01*
X169877541Y-129746977D01*
X169687364Y-129820651D01*
X169687357Y-129820655D01*
X169513960Y-129928017D01*
X169513958Y-129928019D01*
X169363237Y-130065418D01*
X169240327Y-130228178D01*
X169149422Y-130410739D01*
X169149417Y-130410752D01*
X169093602Y-130606917D01*
X169074785Y-130809999D01*
X162960000Y-130809999D01*
X162960000Y-130757339D01*
X162932741Y-130655606D01*
X162880080Y-130564394D01*
X162875686Y-130560000D01*
X163838872Y-130560000D01*
X163838872Y-130559999D01*
X163786269Y-130363682D01*
X163786265Y-130363673D01*
X163690134Y-130157517D01*
X163559657Y-129971179D01*
X163398820Y-129810342D01*
X163212482Y-129679865D01*
X163006328Y-129583734D01*
X162810000Y-129531127D01*
X162810000Y-130494314D01*
X162805606Y-130489920D01*
X162714394Y-130437259D01*
X162612661Y-130410000D01*
X162507339Y-130410000D01*
X162405606Y-130437259D01*
X162314394Y-130489920D01*
X162310000Y-130494314D01*
X162310000Y-129531127D01*
X162113671Y-129583734D01*
X161907517Y-129679865D01*
X161721179Y-129810342D01*
X161560342Y-129971179D01*
X161429865Y-130157517D01*
X161333734Y-130363673D01*
X161333730Y-130363682D01*
X161281127Y-130559999D01*
X153473048Y-130559999D01*
X153430582Y-130410750D01*
X153339673Y-130228179D01*
X153216764Y-130065421D01*
X153216762Y-130065418D01*
X153066041Y-129928019D01*
X153066039Y-129928017D01*
X152892642Y-129820655D01*
X152892635Y-129820651D01*
X152797546Y-129783814D01*
X152702456Y-129746976D01*
X152501976Y-129709500D01*
X152298024Y-129709500D01*
X152097544Y-129746976D01*
X152097541Y-129746976D01*
X152097541Y-129746977D01*
X151907364Y-129820651D01*
X151907357Y-129820655D01*
X151733960Y-129928017D01*
X151733958Y-129928019D01*
X151583237Y-130065418D01*
X151460327Y-130228178D01*
X151369422Y-130410739D01*
X151369417Y-130410752D01*
X151313602Y-130606917D01*
X151294785Y-130809999D01*
X145885215Y-130809999D01*
X145866397Y-130606917D01*
X145810582Y-130410750D01*
X145719673Y-130228179D01*
X145596764Y-130065421D01*
X145596762Y-130065418D01*
X145446041Y-129928019D01*
X145446039Y-129928017D01*
X145272642Y-129820655D01*
X145272635Y-129820651D01*
X145177546Y-129783814D01*
X145082456Y-129746976D01*
X144881976Y-129709500D01*
X144678024Y-129709500D01*
X144477544Y-129746976D01*
X144477541Y-129746976D01*
X144477541Y-129746977D01*
X144287364Y-129820651D01*
X144287357Y-129820655D01*
X144113960Y-129928017D01*
X144113958Y-129928019D01*
X143963237Y-130065418D01*
X143840327Y-130228178D01*
X143749422Y-130410739D01*
X143749417Y-130410752D01*
X143693602Y-130606917D01*
X143674785Y-130809999D01*
X137350000Y-130809999D01*
X137350000Y-125553122D01*
X157689500Y-125553122D01*
X157689500Y-125906877D01*
X157724173Y-126258929D01*
X157724176Y-126258946D01*
X157793185Y-126605884D01*
X157793188Y-126605895D01*
X157895882Y-126944436D01*
X158031262Y-127271271D01*
X158031264Y-127271276D01*
X158198017Y-127583247D01*
X158198028Y-127583265D01*
X158394558Y-127877393D01*
X158394568Y-127877407D01*
X158618992Y-128150869D01*
X158869130Y-128401007D01*
X158869135Y-128401011D01*
X158869136Y-128401012D01*
X159142598Y-128625436D01*
X159436741Y-128821976D01*
X159436750Y-128821981D01*
X159436752Y-128821982D01*
X159748723Y-128988735D01*
X159748725Y-128988735D01*
X159748731Y-128988739D01*
X160075565Y-129124118D01*
X160414095Y-129226809D01*
X160414101Y-129226810D01*
X160414104Y-129226811D01*
X160414115Y-129226814D01*
X160631674Y-129270088D01*
X160761060Y-129295825D01*
X161113119Y-129330500D01*
X161113122Y-129330500D01*
X161466878Y-129330500D01*
X161466881Y-129330500D01*
X161818940Y-129295825D01*
X161990679Y-129261663D01*
X162165884Y-129226814D01*
X162165895Y-129226811D01*
X162165895Y-129226810D01*
X162165905Y-129226809D01*
X162504435Y-129124118D01*
X162831269Y-128988739D01*
X163143259Y-128821976D01*
X163437402Y-128625436D01*
X163710864Y-128401012D01*
X163961012Y-128150864D01*
X164185436Y-127877402D01*
X164381976Y-127583259D01*
X164548739Y-127271269D01*
X164684118Y-126944435D01*
X164786809Y-126605905D01*
X164786811Y-126605895D01*
X164786814Y-126605884D01*
X164821663Y-126430679D01*
X164855825Y-126258940D01*
X164890500Y-125906881D01*
X164890500Y-125553119D01*
X164855825Y-125201060D01*
X164830088Y-125071674D01*
X164786814Y-124854115D01*
X164786811Y-124854104D01*
X164786810Y-124854101D01*
X164786809Y-124854095D01*
X164684118Y-124515565D01*
X164548739Y-124188731D01*
X164381976Y-123876741D01*
X164185436Y-123582598D01*
X163961012Y-123309136D01*
X163961011Y-123309135D01*
X163961007Y-123309130D01*
X163710869Y-123058992D01*
X163437407Y-122834568D01*
X163437406Y-122834567D01*
X163437402Y-122834564D01*
X163143259Y-122638024D01*
X163143254Y-122638021D01*
X163143247Y-122638017D01*
X162831276Y-122471264D01*
X162831271Y-122471262D01*
X162504436Y-122335882D01*
X162165895Y-122233188D01*
X162165884Y-122233185D01*
X161818946Y-122164176D01*
X161818929Y-122164173D01*
X161552700Y-122137952D01*
X161466881Y-122129500D01*
X161113119Y-122129500D01*
X161033748Y-122137317D01*
X160761070Y-122164173D01*
X160761053Y-122164176D01*
X160414115Y-122233185D01*
X160414104Y-122233188D01*
X160075563Y-122335882D01*
X159748728Y-122471262D01*
X159748723Y-122471264D01*
X159436752Y-122638017D01*
X159436734Y-122638028D01*
X159142606Y-122834558D01*
X159142592Y-122834568D01*
X158869130Y-123058992D01*
X158618992Y-123309130D01*
X158394568Y-123582592D01*
X158394558Y-123582606D01*
X158198028Y-123876734D01*
X158198017Y-123876752D01*
X158031264Y-124188723D01*
X158031262Y-124188728D01*
X157895882Y-124515563D01*
X157793188Y-124854104D01*
X157793185Y-124854115D01*
X157724176Y-125201053D01*
X157724173Y-125201070D01*
X157689500Y-125553122D01*
X137350000Y-125553122D01*
X137350000Y-119379999D01*
X138594785Y-119379999D01*
X138594785Y-119380000D01*
X138613602Y-119583082D01*
X138669417Y-119779247D01*
X138669422Y-119779260D01*
X138760327Y-119961821D01*
X138883237Y-120124581D01*
X139033958Y-120261980D01*
X139033960Y-120261982D01*
X139133141Y-120323392D01*
X139207363Y-120369348D01*
X139397544Y-120443024D01*
X139598024Y-120480500D01*
X139598026Y-120480500D01*
X139801974Y-120480500D01*
X139801976Y-120480500D01*
X140002456Y-120443024D01*
X140192637Y-120369348D01*
X140366041Y-120261981D01*
X140516764Y-120124579D01*
X140639673Y-119961821D01*
X140730582Y-119779250D01*
X140786397Y-119583083D01*
X140805215Y-119380000D01*
X140786397Y-119176917D01*
X140773048Y-119129999D01*
X146041127Y-119129999D01*
X146041128Y-119130000D01*
X147004314Y-119130000D01*
X146999920Y-119134394D01*
X146947259Y-119225606D01*
X146920000Y-119327339D01*
X146920000Y-119432661D01*
X146947259Y-119534394D01*
X146999920Y-119625606D01*
X147004314Y-119630000D01*
X146041128Y-119630000D01*
X146093730Y-119826317D01*
X146093734Y-119826326D01*
X146189865Y-120032482D01*
X146320342Y-120218820D01*
X146481179Y-120379657D01*
X146667517Y-120510134D01*
X146873673Y-120606265D01*
X146873682Y-120606269D01*
X147069999Y-120658872D01*
X147070000Y-120658871D01*
X147070000Y-119695686D01*
X147074394Y-119700080D01*
X147165606Y-119752741D01*
X147267339Y-119780000D01*
X147372661Y-119780000D01*
X147474394Y-119752741D01*
X147565606Y-119700080D01*
X147570000Y-119695686D01*
X147570000Y-120658872D01*
X147766317Y-120606269D01*
X147766326Y-120606265D01*
X147972482Y-120510134D01*
X148158820Y-120379657D01*
X148319657Y-120218820D01*
X148450134Y-120032482D01*
X148546265Y-119826326D01*
X148546269Y-119826317D01*
X148598872Y-119630000D01*
X147635686Y-119630000D01*
X147640080Y-119625606D01*
X147692741Y-119534394D01*
X147720000Y-119432661D01*
X147720000Y-119327339D01*
X147692741Y-119225606D01*
X147640080Y-119134394D01*
X147635686Y-119130000D01*
X148598872Y-119130000D01*
X148598872Y-119129999D01*
X148546269Y-118933682D01*
X148546265Y-118933673D01*
X148450134Y-118727517D01*
X148319657Y-118541179D01*
X148158820Y-118380342D01*
X147972482Y-118249865D01*
X147766328Y-118153734D01*
X147570000Y-118101127D01*
X147570000Y-119064314D01*
X147565606Y-119059920D01*
X147474394Y-119007259D01*
X147372661Y-118980000D01*
X147267339Y-118980000D01*
X147165606Y-119007259D01*
X147074394Y-119059920D01*
X147070000Y-119064314D01*
X147070000Y-118101127D01*
X146873671Y-118153734D01*
X146667517Y-118249865D01*
X146481179Y-118380342D01*
X146320342Y-118541179D01*
X146189865Y-118727517D01*
X146093734Y-118933673D01*
X146093730Y-118933682D01*
X146041127Y-119129999D01*
X140773048Y-119129999D01*
X140730582Y-118980750D01*
X140639673Y-118798179D01*
X140516764Y-118635421D01*
X140516762Y-118635418D01*
X140366041Y-118498019D01*
X140366039Y-118498017D01*
X140192642Y-118390655D01*
X140192635Y-118390651D01*
X140097546Y-118353814D01*
X140002456Y-118316976D01*
X139801976Y-118279500D01*
X139598024Y-118279500D01*
X139397544Y-118316976D01*
X139397541Y-118316976D01*
X139397541Y-118316977D01*
X139207364Y-118390651D01*
X139207357Y-118390655D01*
X139033960Y-118498017D01*
X139033958Y-118498019D01*
X138883237Y-118635418D01*
X138760327Y-118798178D01*
X138669422Y-118980739D01*
X138669417Y-118980752D01*
X138613602Y-119176917D01*
X138594785Y-119379999D01*
X137350000Y-119379999D01*
X137350000Y-114299999D01*
X138594785Y-114299999D01*
X138594785Y-114300000D01*
X138613602Y-114503082D01*
X138669417Y-114699247D01*
X138669422Y-114699260D01*
X138760327Y-114881821D01*
X138883237Y-115044581D01*
X139033958Y-115181980D01*
X139033960Y-115181982D01*
X139133141Y-115243392D01*
X139207363Y-115289348D01*
X139397544Y-115363024D01*
X139598024Y-115400500D01*
X139598026Y-115400500D01*
X139801974Y-115400500D01*
X139801976Y-115400500D01*
X140002456Y-115363024D01*
X140192637Y-115289348D01*
X140366041Y-115181981D01*
X140516764Y-115044579D01*
X140639673Y-114881821D01*
X140730582Y-114699250D01*
X140786397Y-114503083D01*
X140805215Y-114300000D01*
X140805215Y-114299999D01*
X146214785Y-114299999D01*
X146214785Y-114300000D01*
X146233602Y-114503082D01*
X146289417Y-114699247D01*
X146289422Y-114699260D01*
X146380327Y-114881821D01*
X146503237Y-115044581D01*
X146653958Y-115181980D01*
X146653960Y-115181982D01*
X146753141Y-115243392D01*
X146827363Y-115289348D01*
X147017544Y-115363024D01*
X147218024Y-115400500D01*
X147218026Y-115400500D01*
X147421974Y-115400500D01*
X147421976Y-115400500D01*
X147622456Y-115363024D01*
X147812637Y-115289348D01*
X147986041Y-115181981D01*
X148136764Y-115044579D01*
X148259673Y-114881821D01*
X148350582Y-114699250D01*
X148406397Y-114503083D01*
X148425215Y-114300000D01*
X148406397Y-114096917D01*
X148350582Y-113900750D01*
X148259673Y-113718179D01*
X148136764Y-113555421D01*
X148136762Y-113555418D01*
X147986041Y-113418019D01*
X147986039Y-113418017D01*
X147812642Y-113310655D01*
X147812635Y-113310651D01*
X147717546Y-113273814D01*
X147622456Y-113236976D01*
X147421976Y-113199500D01*
X147218024Y-113199500D01*
X147017544Y-113236976D01*
X147017541Y-113236976D01*
X147017541Y-113236977D01*
X146827364Y-113310651D01*
X146827357Y-113310655D01*
X146653960Y-113418017D01*
X146653958Y-113418019D01*
X146503237Y-113555418D01*
X146380327Y-113718178D01*
X146289422Y-113900739D01*
X146289417Y-113900752D01*
X146233602Y-114096917D01*
X146214785Y-114299999D01*
X140805215Y-114299999D01*
X140786397Y-114096917D01*
X140730582Y-113900750D01*
X140639673Y-113718179D01*
X140516764Y-113555421D01*
X140516762Y-113555418D01*
X140366041Y-113418019D01*
X140366039Y-113418017D01*
X140192642Y-113310655D01*
X140192635Y-113310651D01*
X140097546Y-113273814D01*
X140002456Y-113236976D01*
X139801976Y-113199500D01*
X139598024Y-113199500D01*
X139397544Y-113236976D01*
X139397541Y-113236976D01*
X139397541Y-113236977D01*
X139207364Y-113310651D01*
X139207357Y-113310655D01*
X139033960Y-113418017D01*
X139033958Y-113418019D01*
X138883237Y-113555418D01*
X138760327Y-113718178D01*
X138669422Y-113900739D01*
X138669417Y-113900752D01*
X138613602Y-114096917D01*
X138594785Y-114299999D01*
X137350000Y-114299999D01*
X137350000Y-106425826D01*
X139061864Y-106425826D01*
X139061865Y-106425827D01*
X140025051Y-106425827D01*
X140020657Y-106430221D01*
X139967996Y-106521433D01*
X139940737Y-106623166D01*
X139940737Y-106728488D01*
X139967996Y-106830221D01*
X140020657Y-106921433D01*
X140025051Y-106925827D01*
X139061865Y-106925827D01*
X139114467Y-107122144D01*
X139114471Y-107122153D01*
X139210602Y-107328309D01*
X139341079Y-107514647D01*
X139501916Y-107675484D01*
X139688254Y-107805961D01*
X139894410Y-107902092D01*
X139894419Y-107902096D01*
X140090736Y-107954699D01*
X140090737Y-107954698D01*
X140090737Y-106991513D01*
X140095131Y-106995907D01*
X140186343Y-107048568D01*
X140288076Y-107075827D01*
X140393398Y-107075827D01*
X140495131Y-107048568D01*
X140586343Y-106995907D01*
X140590737Y-106991513D01*
X140590737Y-107954699D01*
X140608274Y-107950000D01*
X152964355Y-107950000D01*
X152984859Y-108118869D01*
X152984860Y-108118874D01*
X153045182Y-108277931D01*
X153061734Y-108301910D01*
X153141817Y-108417929D01*
X153244878Y-108509233D01*
X153269150Y-108530736D01*
X153419773Y-108609789D01*
X153419775Y-108609790D01*
X153584944Y-108650500D01*
X153755056Y-108650500D01*
X153920225Y-108609790D01*
X154018416Y-108558255D01*
X154070849Y-108530736D01*
X154070850Y-108530734D01*
X154070852Y-108530734D01*
X154198183Y-108417929D01*
X154294818Y-108277930D01*
X154355140Y-108118872D01*
X154375645Y-107950000D01*
X154355140Y-107781128D01*
X154294818Y-107622070D01*
X154292448Y-107618637D01*
X154291489Y-107615727D01*
X154291331Y-107615426D01*
X154291381Y-107615399D01*
X154270567Y-107552283D01*
X154270500Y-107548199D01*
X154270500Y-99360097D01*
X154290185Y-99293058D01*
X154306819Y-99272416D01*
X155152416Y-98426819D01*
X155213739Y-98393334D01*
X155240097Y-98390500D01*
X156430033Y-98390500D01*
X156497072Y-98410185D01*
X156528987Y-98439773D01*
X156626128Y-98568407D01*
X156783698Y-98712052D01*
X156964981Y-98824298D01*
X157163802Y-98901321D01*
X157360613Y-98938111D01*
X157422893Y-98969779D01*
X157458166Y-99030092D01*
X157455232Y-99099900D01*
X157415023Y-99157040D01*
X157360613Y-99181888D01*
X157163802Y-99218679D01*
X157163799Y-99218679D01*
X157163799Y-99218680D01*
X156964982Y-99295701D01*
X156964980Y-99295702D01*
X156783699Y-99407947D01*
X156626127Y-99551593D01*
X156497632Y-99721746D01*
X156402596Y-99912605D01*
X156402596Y-99912607D01*
X156344244Y-100117689D01*
X156324571Y-100329999D01*
X156324571Y-100330000D01*
X156344244Y-100542310D01*
X156402596Y-100747392D01*
X156402596Y-100747394D01*
X156497632Y-100938253D01*
X156596805Y-101069578D01*
X156626128Y-101108407D01*
X156783698Y-101252052D01*
X156964981Y-101364298D01*
X157163802Y-101441321D01*
X157360613Y-101478111D01*
X157422893Y-101509779D01*
X157458166Y-101570092D01*
X157455232Y-101639900D01*
X157415023Y-101697040D01*
X157360613Y-101721888D01*
X157163802Y-101758679D01*
X157163799Y-101758679D01*
X157163799Y-101758680D01*
X156964982Y-101835701D01*
X156964980Y-101835702D01*
X156783699Y-101947947D01*
X156626127Y-102091593D01*
X156497632Y-102261746D01*
X156402596Y-102452605D01*
X156402596Y-102452607D01*
X156344244Y-102657689D01*
X156324571Y-102869999D01*
X156324571Y-102870000D01*
X156344244Y-103082310D01*
X156402596Y-103287392D01*
X156402596Y-103287394D01*
X156497632Y-103478253D01*
X156497634Y-103478255D01*
X156626128Y-103648407D01*
X156783698Y-103792052D01*
X156964981Y-103904298D01*
X157163802Y-103981321D01*
X157360613Y-104018111D01*
X157422893Y-104049779D01*
X157458166Y-104110092D01*
X157455232Y-104179900D01*
X157415023Y-104237040D01*
X157360613Y-104261888D01*
X157163802Y-104298679D01*
X157163799Y-104298679D01*
X157163799Y-104298680D01*
X156964982Y-104375701D01*
X156964980Y-104375702D01*
X156783699Y-104487947D01*
X156626127Y-104631593D01*
X156497632Y-104801746D01*
X156402596Y-104992605D01*
X156402596Y-104992607D01*
X156402595Y-104992611D01*
X156344244Y-105197690D01*
X156324571Y-105410000D01*
X156344244Y-105622310D01*
X156393050Y-105793844D01*
X156402596Y-105827392D01*
X156402596Y-105827394D01*
X156497632Y-106018253D01*
X156626127Y-106188406D01*
X156626128Y-106188407D01*
X156783698Y-106332052D01*
X156964981Y-106444298D01*
X157163802Y-106521321D01*
X157360613Y-106558111D01*
X157422893Y-106589779D01*
X157458166Y-106650092D01*
X157455232Y-106719900D01*
X157415023Y-106777040D01*
X157360613Y-106801888D01*
X157163802Y-106838679D01*
X157163799Y-106838679D01*
X157163799Y-106838680D01*
X156964982Y-106915701D01*
X156964980Y-106915702D01*
X156783699Y-107027947D01*
X156626127Y-107171593D01*
X156497632Y-107341746D01*
X156402596Y-107532605D01*
X156402596Y-107532607D01*
X156344244Y-107737689D01*
X156337251Y-107813163D01*
X156324571Y-107950000D01*
X156344244Y-108162310D01*
X156391107Y-108327015D01*
X156402596Y-108367392D01*
X156402596Y-108367394D01*
X156497632Y-108558253D01*
X156626127Y-108728406D01*
X156626128Y-108728407D01*
X156783698Y-108872052D01*
X156964981Y-108984298D01*
X157163802Y-109061321D01*
X157360613Y-109098111D01*
X157422893Y-109129779D01*
X157458166Y-109190092D01*
X157455232Y-109259900D01*
X157415023Y-109317040D01*
X157360613Y-109341888D01*
X157163802Y-109378679D01*
X157163799Y-109378679D01*
X157163799Y-109378680D01*
X156964982Y-109455701D01*
X156964980Y-109455702D01*
X156783699Y-109567947D01*
X156626127Y-109711593D01*
X156497632Y-109881746D01*
X156402596Y-110072605D01*
X156402596Y-110072607D01*
X156344244Y-110277689D01*
X156324571Y-110489999D01*
X156324571Y-110490000D01*
X156344244Y-110702310D01*
X156402596Y-110907392D01*
X156402596Y-110907394D01*
X156497632Y-111098253D01*
X156497634Y-111098255D01*
X156626128Y-111268407D01*
X156783698Y-111412052D01*
X156964981Y-111524298D01*
X157163802Y-111601321D01*
X157360613Y-111638111D01*
X157422893Y-111669779D01*
X157458166Y-111730092D01*
X157455232Y-111799900D01*
X157415023Y-111857040D01*
X157360613Y-111881888D01*
X157163802Y-111918679D01*
X157163799Y-111918679D01*
X157163799Y-111918680D01*
X156964982Y-111995701D01*
X156964980Y-111995702D01*
X156783699Y-112107947D01*
X156626127Y-112251593D01*
X156497632Y-112421746D01*
X156402596Y-112612605D01*
X156402596Y-112612607D01*
X156344244Y-112817689D01*
X156324571Y-113029999D01*
X156324571Y-113030000D01*
X156344244Y-113242310D01*
X156402596Y-113447392D01*
X156402596Y-113447394D01*
X156497632Y-113638253D01*
X156557990Y-113718179D01*
X156626128Y-113808407D01*
X156783698Y-113952052D01*
X156964981Y-114064298D01*
X157163802Y-114141321D01*
X157360613Y-114178111D01*
X157422893Y-114209779D01*
X157458166Y-114270092D01*
X157455232Y-114339900D01*
X157415023Y-114397040D01*
X157360613Y-114421888D01*
X157163802Y-114458679D01*
X157163799Y-114458679D01*
X157163799Y-114458680D01*
X156964982Y-114535701D01*
X156964980Y-114535702D01*
X156783699Y-114647947D01*
X156626127Y-114791593D01*
X156497632Y-114961746D01*
X156402596Y-115152605D01*
X156402596Y-115152607D01*
X156344244Y-115357689D01*
X156324571Y-115569999D01*
X156324571Y-115570000D01*
X156344244Y-115782310D01*
X156402596Y-115987392D01*
X156402596Y-115987394D01*
X156497632Y-116178253D01*
X156626127Y-116348406D01*
X156626128Y-116348407D01*
X156783698Y-116492052D01*
X156964981Y-116604298D01*
X157163802Y-116681321D01*
X157360613Y-116718111D01*
X157422893Y-116749779D01*
X157458166Y-116810092D01*
X157455232Y-116879900D01*
X157415023Y-116937040D01*
X157360613Y-116961888D01*
X157163802Y-116998679D01*
X157163799Y-116998679D01*
X157163799Y-116998680D01*
X156964982Y-117075701D01*
X156964980Y-117075702D01*
X156783699Y-117187947D01*
X156626127Y-117331593D01*
X156497632Y-117501746D01*
X156402596Y-117692605D01*
X156402596Y-117692607D01*
X156344244Y-117897689D01*
X156324571Y-118109999D01*
X156324571Y-118110000D01*
X156344244Y-118322310D01*
X156402596Y-118527392D01*
X156402596Y-118527394D01*
X156497632Y-118718253D01*
X156557990Y-118798179D01*
X156626128Y-118888407D01*
X156783698Y-119032052D01*
X156964981Y-119144298D01*
X157163802Y-119221321D01*
X157360613Y-119258111D01*
X157422893Y-119289779D01*
X157458166Y-119350092D01*
X157455232Y-119419900D01*
X157415023Y-119477040D01*
X157360613Y-119501888D01*
X157163802Y-119538679D01*
X157163799Y-119538679D01*
X157163799Y-119538680D01*
X156964982Y-119615701D01*
X156964980Y-119615702D01*
X156783699Y-119727947D01*
X156626127Y-119871593D01*
X156497632Y-120041746D01*
X156402596Y-120232605D01*
X156402596Y-120232607D01*
X156344244Y-120437689D01*
X156324571Y-120649999D01*
X156324571Y-120650000D01*
X156344244Y-120862310D01*
X156402596Y-121067392D01*
X156402596Y-121067394D01*
X156497632Y-121258253D01*
X156626127Y-121428406D01*
X156626128Y-121428407D01*
X156783698Y-121572052D01*
X156964981Y-121684298D01*
X157163802Y-121761321D01*
X157373390Y-121800500D01*
X157373392Y-121800500D01*
X157586608Y-121800500D01*
X157586610Y-121800500D01*
X157796198Y-121761321D01*
X157995019Y-121684298D01*
X158176302Y-121572052D01*
X158333872Y-121428407D01*
X158462366Y-121258255D01*
X158462367Y-121258253D01*
X158557403Y-121067394D01*
X158557403Y-121067393D01*
X158557405Y-121067389D01*
X158615756Y-120862310D01*
X158635429Y-120650000D01*
X158635429Y-120649999D01*
X163994785Y-120649999D01*
X163994785Y-120650000D01*
X164013602Y-120853082D01*
X164069417Y-121049247D01*
X164069422Y-121049260D01*
X164160327Y-121231821D01*
X164283237Y-121394581D01*
X164433958Y-121531980D01*
X164433960Y-121531982D01*
X164498676Y-121572052D01*
X164607363Y-121639348D01*
X164797544Y-121713024D01*
X164998024Y-121750500D01*
X164998026Y-121750500D01*
X165201974Y-121750500D01*
X165201976Y-121750500D01*
X165402456Y-121713024D01*
X165592637Y-121639348D01*
X165766041Y-121531981D01*
X165916764Y-121394579D01*
X166039673Y-121231821D01*
X166130582Y-121049250D01*
X166186397Y-120853083D01*
X166205215Y-120650000D01*
X166205215Y-120649999D01*
X171614785Y-120649999D01*
X171614785Y-120650000D01*
X171633602Y-120853082D01*
X171689417Y-121049247D01*
X171689422Y-121049260D01*
X171780327Y-121231821D01*
X171903237Y-121394581D01*
X172053958Y-121531980D01*
X172053960Y-121531982D01*
X172118676Y-121572052D01*
X172227363Y-121639348D01*
X172417544Y-121713024D01*
X172618024Y-121750500D01*
X172618026Y-121750500D01*
X172821974Y-121750500D01*
X172821976Y-121750500D01*
X173022456Y-121713024D01*
X173212637Y-121639348D01*
X173386041Y-121531981D01*
X173536764Y-121394579D01*
X173659673Y-121231821D01*
X173750582Y-121049250D01*
X173806397Y-120853083D01*
X173825215Y-120650000D01*
X173821162Y-120606265D01*
X173806397Y-120446917D01*
X173803771Y-120437689D01*
X173750582Y-120250750D01*
X173659673Y-120068179D01*
X173536764Y-119905421D01*
X173536762Y-119905418D01*
X173386041Y-119768019D01*
X173386039Y-119768017D01*
X173212642Y-119660655D01*
X173212635Y-119660651D01*
X173096604Y-119615701D01*
X173022456Y-119586976D01*
X172821976Y-119549500D01*
X172618024Y-119549500D01*
X172417544Y-119586976D01*
X172417541Y-119586976D01*
X172417541Y-119586977D01*
X172227364Y-119660651D01*
X172227357Y-119660655D01*
X172053960Y-119768017D01*
X172053958Y-119768019D01*
X171903237Y-119905418D01*
X171780327Y-120068178D01*
X171689422Y-120250739D01*
X171689417Y-120250752D01*
X171633602Y-120446917D01*
X171614785Y-120649999D01*
X166205215Y-120649999D01*
X166201162Y-120606265D01*
X166186397Y-120446917D01*
X166183771Y-120437689D01*
X166130582Y-120250750D01*
X166039673Y-120068179D01*
X165916764Y-119905421D01*
X165916762Y-119905418D01*
X165766041Y-119768019D01*
X165766039Y-119768017D01*
X165592642Y-119660655D01*
X165592635Y-119660651D01*
X165476604Y-119615701D01*
X165402456Y-119586976D01*
X165201976Y-119549500D01*
X164998024Y-119549500D01*
X164797544Y-119586976D01*
X164797541Y-119586976D01*
X164797541Y-119586977D01*
X164607364Y-119660651D01*
X164607357Y-119660655D01*
X164433960Y-119768017D01*
X164433958Y-119768019D01*
X164283237Y-119905418D01*
X164160327Y-120068178D01*
X164069422Y-120250739D01*
X164069417Y-120250752D01*
X164013602Y-120446917D01*
X163994785Y-120649999D01*
X158635429Y-120649999D01*
X158615756Y-120437690D01*
X158557405Y-120232611D01*
X158557403Y-120232606D01*
X158557403Y-120232605D01*
X158462367Y-120041746D01*
X158333872Y-119871593D01*
X158284207Y-119826317D01*
X158176302Y-119727948D01*
X157995019Y-119615702D01*
X157995017Y-119615701D01*
X157824130Y-119549500D01*
X157796198Y-119538679D01*
X157599385Y-119501888D01*
X157537106Y-119470221D01*
X157501833Y-119409908D01*
X157504767Y-119340100D01*
X157544976Y-119282960D01*
X157599384Y-119258111D01*
X157796198Y-119221321D01*
X157995019Y-119144298D01*
X158176302Y-119032052D01*
X158333872Y-118888407D01*
X158462366Y-118718255D01*
X158503614Y-118635418D01*
X158557403Y-118527394D01*
X158557403Y-118527393D01*
X158557405Y-118527389D01*
X158615756Y-118322310D01*
X158635429Y-118110000D01*
X158615756Y-117897690D01*
X158557405Y-117692611D01*
X158557403Y-117692606D01*
X158557403Y-117692605D01*
X158462367Y-117501746D01*
X158333872Y-117331593D01*
X158176302Y-117187948D01*
X157995019Y-117075702D01*
X157995017Y-117075701D01*
X157895608Y-117037190D01*
X157796198Y-116998679D01*
X157599385Y-116961888D01*
X157537106Y-116930221D01*
X157501833Y-116869908D01*
X157504767Y-116800100D01*
X157544976Y-116742960D01*
X157599384Y-116718111D01*
X157796198Y-116681321D01*
X157995019Y-116604298D01*
X158176302Y-116492052D01*
X158333872Y-116348407D01*
X158462366Y-116178255D01*
X158462367Y-116178253D01*
X158557403Y-115987394D01*
X158557403Y-115987393D01*
X158557405Y-115987389D01*
X158615756Y-115782310D01*
X158635429Y-115570000D01*
X158635429Y-115569999D01*
X163994785Y-115569999D01*
X163994785Y-115570000D01*
X164013602Y-115773082D01*
X164069417Y-115969247D01*
X164069422Y-115969260D01*
X164160327Y-116151821D01*
X164283237Y-116314581D01*
X164433958Y-116451980D01*
X164433960Y-116451982D01*
X164498676Y-116492052D01*
X164607363Y-116559348D01*
X164797544Y-116633024D01*
X164998024Y-116670500D01*
X164998026Y-116670500D01*
X165201974Y-116670500D01*
X165201976Y-116670500D01*
X165402456Y-116633024D01*
X165592637Y-116559348D01*
X165766041Y-116451981D01*
X165916764Y-116314579D01*
X166039673Y-116151821D01*
X166130582Y-115969250D01*
X166186397Y-115773083D01*
X166205215Y-115570000D01*
X166205215Y-115569999D01*
X171614785Y-115569999D01*
X171614785Y-115570000D01*
X171633602Y-115773082D01*
X171689417Y-115969247D01*
X171689422Y-115969260D01*
X171780327Y-116151821D01*
X171903237Y-116314581D01*
X172053958Y-116451980D01*
X172053960Y-116451982D01*
X172118676Y-116492052D01*
X172227363Y-116559348D01*
X172417544Y-116633024D01*
X172618024Y-116670500D01*
X172618026Y-116670500D01*
X172821974Y-116670500D01*
X172821976Y-116670500D01*
X173022456Y-116633024D01*
X173212637Y-116559348D01*
X173386041Y-116451981D01*
X173536764Y-116314579D01*
X173659673Y-116151821D01*
X173750582Y-115969250D01*
X173806397Y-115773083D01*
X173825215Y-115570000D01*
X173806397Y-115366917D01*
X173750582Y-115170750D01*
X173659673Y-114988179D01*
X173536764Y-114825421D01*
X173536762Y-114825418D01*
X173386041Y-114688019D01*
X173386039Y-114688017D01*
X173212642Y-114580655D01*
X173212635Y-114580651D01*
X173096604Y-114535701D01*
X173022456Y-114506976D01*
X172821976Y-114469500D01*
X172618024Y-114469500D01*
X172417544Y-114506976D01*
X172417541Y-114506976D01*
X172417541Y-114506977D01*
X172227364Y-114580651D01*
X172227357Y-114580655D01*
X172053960Y-114688017D01*
X172053958Y-114688019D01*
X171903237Y-114825418D01*
X171780327Y-114988178D01*
X171689422Y-115170739D01*
X171689417Y-115170752D01*
X171633602Y-115366917D01*
X171614785Y-115569999D01*
X166205215Y-115569999D01*
X166186397Y-115366917D01*
X166130582Y-115170750D01*
X166039673Y-114988179D01*
X165916764Y-114825421D01*
X165916762Y-114825418D01*
X165766041Y-114688019D01*
X165766039Y-114688017D01*
X165592642Y-114580655D01*
X165592635Y-114580651D01*
X165476604Y-114535701D01*
X165402456Y-114506976D01*
X165201976Y-114469500D01*
X164998024Y-114469500D01*
X164797544Y-114506976D01*
X164797541Y-114506976D01*
X164797541Y-114506977D01*
X164607364Y-114580651D01*
X164607357Y-114580655D01*
X164433960Y-114688017D01*
X164433958Y-114688019D01*
X164283237Y-114825418D01*
X164160327Y-114988178D01*
X164069422Y-115170739D01*
X164069417Y-115170752D01*
X164013602Y-115366917D01*
X163994785Y-115569999D01*
X158635429Y-115569999D01*
X158615756Y-115357690D01*
X158557405Y-115152611D01*
X158557403Y-115152606D01*
X158557403Y-115152605D01*
X158462367Y-114961746D01*
X158333872Y-114791593D01*
X158232577Y-114699250D01*
X158176302Y-114647948D01*
X157995019Y-114535702D01*
X157995017Y-114535701D01*
X157824130Y-114469500D01*
X157796198Y-114458679D01*
X157599385Y-114421888D01*
X157537106Y-114390221D01*
X157501833Y-114329908D01*
X157504767Y-114260100D01*
X157544976Y-114202960D01*
X157599384Y-114178111D01*
X157796198Y-114141321D01*
X157995019Y-114064298D01*
X158176302Y-113952052D01*
X158333872Y-113808407D01*
X158462366Y-113638255D01*
X158557405Y-113447389D01*
X158615756Y-113242310D01*
X158635429Y-113030000D01*
X158615756Y-112817690D01*
X158557405Y-112612611D01*
X158557403Y-112612606D01*
X158557403Y-112612605D01*
X158462367Y-112421746D01*
X158333872Y-112251593D01*
X158176302Y-112107948D01*
X157995019Y-111995702D01*
X157995017Y-111995701D01*
X157895608Y-111957190D01*
X157796198Y-111918679D01*
X157599385Y-111881888D01*
X157537106Y-111850221D01*
X157501833Y-111789908D01*
X157504767Y-111720100D01*
X157544976Y-111662960D01*
X157599384Y-111638111D01*
X157796198Y-111601321D01*
X157995019Y-111524298D01*
X158176302Y-111412052D01*
X158333872Y-111268407D01*
X158462366Y-111098255D01*
X158557405Y-110907389D01*
X158615756Y-110702310D01*
X158635429Y-110490000D01*
X158615756Y-110277690D01*
X158557405Y-110072611D01*
X158557403Y-110072606D01*
X158557403Y-110072605D01*
X158462367Y-109881746D01*
X158333872Y-109711593D01*
X158176302Y-109567948D01*
X157995019Y-109455702D01*
X157995017Y-109455701D01*
X157895608Y-109417190D01*
X157796198Y-109378679D01*
X157599385Y-109341888D01*
X157537106Y-109310221D01*
X157501833Y-109249908D01*
X157504767Y-109180100D01*
X157544976Y-109122960D01*
X157599384Y-109098111D01*
X157796198Y-109061321D01*
X157995019Y-108984298D01*
X158176302Y-108872052D01*
X158333872Y-108728407D01*
X158462366Y-108558255D01*
X158462728Y-108557528D01*
X158557403Y-108367394D01*
X158557403Y-108367393D01*
X158557405Y-108367389D01*
X158615756Y-108162310D01*
X158635429Y-107950000D01*
X158615756Y-107737690D01*
X158557405Y-107532611D01*
X158557403Y-107532606D01*
X158557403Y-107532605D01*
X158462367Y-107341746D01*
X158333872Y-107171593D01*
X158176302Y-107027948D01*
X157995019Y-106915702D01*
X157995017Y-106915701D01*
X157895608Y-106877190D01*
X157796198Y-106838679D01*
X157599385Y-106801888D01*
X157537106Y-106770221D01*
X157501833Y-106709908D01*
X157504767Y-106640100D01*
X157544976Y-106582960D01*
X157599384Y-106558111D01*
X157796198Y-106521321D01*
X157995019Y-106444298D01*
X158046925Y-106412159D01*
X165324366Y-106412159D01*
X165324366Y-108301884D01*
X165324368Y-108301910D01*
X165327279Y-108327015D01*
X165327281Y-108327019D01*
X165372659Y-108429792D01*
X165372660Y-108429793D01*
X165452101Y-108509234D01*
X165554875Y-108554613D01*
X165580001Y-108557528D01*
X167469730Y-108557527D01*
X167469745Y-108557525D01*
X167469748Y-108557525D01*
X167494853Y-108554614D01*
X167494854Y-108554613D01*
X167494857Y-108554613D01*
X167597631Y-108509234D01*
X167677072Y-108429793D01*
X167722451Y-108327019D01*
X167725366Y-108301893D01*
X167725365Y-108272657D01*
X167745048Y-108205621D01*
X167797850Y-108159864D01*
X167862157Y-108149319D01*
X167913677Y-108154662D01*
X168622727Y-107445612D01*
X168645533Y-107530722D01*
X168704776Y-107633334D01*
X168788560Y-107717118D01*
X168891172Y-107776361D01*
X168976280Y-107799166D01*
X168266067Y-108509379D01*
X168296515Y-108533078D01*
X168500563Y-108643504D01*
X168500572Y-108643507D01*
X168720005Y-108718839D01*
X168948859Y-108757028D01*
X169180873Y-108757028D01*
X169409726Y-108718839D01*
X169629159Y-108643507D01*
X169629167Y-108643504D01*
X169833221Y-108533075D01*
X169863663Y-108509379D01*
X169863664Y-108509378D01*
X169153451Y-107799165D01*
X169238560Y-107776361D01*
X169341172Y-107717118D01*
X169424956Y-107633334D01*
X169484199Y-107530722D01*
X169507003Y-107445613D01*
X170216052Y-108154662D01*
X170300350Y-108025634D01*
X170393548Y-107813163D01*
X170450504Y-107588246D01*
X170469664Y-107357033D01*
X170469664Y-107357022D01*
X170450504Y-107125809D01*
X170393548Y-106900892D01*
X170300349Y-106688418D01*
X170216052Y-106559392D01*
X169507003Y-107268441D01*
X169484199Y-107183334D01*
X169424956Y-107080722D01*
X169341172Y-106996938D01*
X169238560Y-106937695D01*
X169153450Y-106914889D01*
X169863663Y-106204675D01*
X169863663Y-106204673D01*
X169833226Y-106180983D01*
X169833220Y-106180979D01*
X169629168Y-106070551D01*
X169629159Y-106070548D01*
X169409726Y-105995216D01*
X169180873Y-105957028D01*
X168948859Y-105957028D01*
X168720005Y-105995216D01*
X168500572Y-106070548D01*
X168500563Y-106070551D01*
X168296516Y-106180977D01*
X168266066Y-106204675D01*
X168976281Y-106914889D01*
X168891172Y-106937695D01*
X168788560Y-106996938D01*
X168704776Y-107080722D01*
X168645533Y-107183334D01*
X168622727Y-107268442D01*
X167913677Y-106559392D01*
X167862156Y-106564736D01*
X167793443Y-106552071D01*
X167742486Y-106504269D01*
X167725365Y-106441397D01*
X167725365Y-106412171D01*
X167725365Y-106412164D01*
X167725363Y-106412145D01*
X167722452Y-106387040D01*
X167722451Y-106387038D01*
X167722451Y-106387037D01*
X167677072Y-106284263D01*
X167597631Y-106204822D01*
X167597294Y-106204673D01*
X167494858Y-106159443D01*
X167469731Y-106156528D01*
X165580009Y-106156528D01*
X165579983Y-106156530D01*
X165554878Y-106159441D01*
X165554874Y-106159443D01*
X165452101Y-106204821D01*
X165372660Y-106284262D01*
X165327281Y-106387034D01*
X165327281Y-106387036D01*
X165324366Y-106412159D01*
X158046925Y-106412159D01*
X158176302Y-106332052D01*
X158333872Y-106188407D01*
X158462366Y-106018255D01*
X158505690Y-105931248D01*
X158557403Y-105827394D01*
X158557403Y-105827393D01*
X158557405Y-105827389D01*
X158615756Y-105622310D01*
X158635429Y-105410000D01*
X158615756Y-105197690D01*
X158557405Y-104992611D01*
X158557403Y-104992606D01*
X158557403Y-104992605D01*
X158462367Y-104801746D01*
X158333872Y-104631593D01*
X158176302Y-104487948D01*
X157995019Y-104375702D01*
X157995017Y-104375701D01*
X157895608Y-104337190D01*
X157796198Y-104298679D01*
X157599385Y-104261888D01*
X157537106Y-104230221D01*
X157501833Y-104169908D01*
X157504767Y-104100100D01*
X157544976Y-104042960D01*
X157599384Y-104018111D01*
X157796198Y-103981321D01*
X157995019Y-103904298D01*
X158176302Y-103792052D01*
X158333872Y-103648407D01*
X158462366Y-103478255D01*
X158557405Y-103287389D01*
X158615756Y-103082310D01*
X158635429Y-102870000D01*
X158615756Y-102657690D01*
X158557405Y-102452611D01*
X158557403Y-102452606D01*
X158557403Y-102452605D01*
X158462367Y-102261746D01*
X158333872Y-102091593D01*
X158176302Y-101947948D01*
X157995019Y-101835702D01*
X157995017Y-101835701D01*
X157902859Y-101799999D01*
X166054357Y-101799999D01*
X166054357Y-101800000D01*
X166074884Y-102021535D01*
X166074885Y-102021537D01*
X166135769Y-102235523D01*
X166135775Y-102235538D01*
X166234938Y-102434683D01*
X166234943Y-102434691D01*
X166369020Y-102612238D01*
X166442524Y-102679245D01*
X166522558Y-102752206D01*
X166533437Y-102762123D01*
X166533439Y-102762125D01*
X166722595Y-102879245D01*
X166722596Y-102879245D01*
X166722599Y-102879247D01*
X166930060Y-102959618D01*
X167148757Y-103000500D01*
X167148759Y-103000500D01*
X167371241Y-103000500D01*
X167371243Y-103000500D01*
X167589940Y-102959618D01*
X167797401Y-102879247D01*
X167986562Y-102762124D01*
X168150981Y-102612236D01*
X168285058Y-102434689D01*
X168364500Y-102275149D01*
X168412002Y-102223911D01*
X168479665Y-102206490D01*
X168546006Y-102228415D01*
X168589961Y-102282727D01*
X168599500Y-102330420D01*
X168599500Y-102744856D01*
X168599502Y-102744882D01*
X168602413Y-102769987D01*
X168602415Y-102769991D01*
X168647793Y-102872764D01*
X168647794Y-102872765D01*
X168727235Y-102952206D01*
X168830009Y-102997585D01*
X168855135Y-103000500D01*
X170744864Y-103000499D01*
X170744879Y-103000497D01*
X170744882Y-103000497D01*
X170769987Y-102997586D01*
X170769988Y-102997585D01*
X170769991Y-102997585D01*
X170872765Y-102952206D01*
X170952206Y-102872765D01*
X170997585Y-102769991D01*
X171000500Y-102744865D01*
X171000499Y-100855136D01*
X171000497Y-100855117D01*
X170997586Y-100830012D01*
X170997585Y-100830010D01*
X170997585Y-100830009D01*
X170952206Y-100727235D01*
X170872765Y-100647794D01*
X170872763Y-100647793D01*
X170769992Y-100602415D01*
X170744865Y-100599500D01*
X168855143Y-100599500D01*
X168855117Y-100599502D01*
X168830012Y-100602413D01*
X168830008Y-100602415D01*
X168727235Y-100647793D01*
X168647794Y-100727234D01*
X168602415Y-100830006D01*
X168602415Y-100830008D01*
X168599500Y-100855131D01*
X168599500Y-101269578D01*
X168579815Y-101336617D01*
X168527011Y-101382372D01*
X168457853Y-101392316D01*
X168394297Y-101363291D01*
X168364500Y-101324850D01*
X168285061Y-101165316D01*
X168285056Y-101165308D01*
X168150979Y-100987761D01*
X167986562Y-100837876D01*
X167986560Y-100837874D01*
X167797404Y-100720754D01*
X167797398Y-100720752D01*
X167589940Y-100640382D01*
X167371243Y-100599500D01*
X167148757Y-100599500D01*
X166930060Y-100640382D01*
X166891976Y-100655136D01*
X166722601Y-100720752D01*
X166722595Y-100720754D01*
X166533439Y-100837874D01*
X166533437Y-100837876D01*
X166369020Y-100987761D01*
X166234943Y-101165308D01*
X166234938Y-101165316D01*
X166135775Y-101364461D01*
X166135769Y-101364476D01*
X166074885Y-101578462D01*
X166074884Y-101578464D01*
X166054357Y-101799999D01*
X157902859Y-101799999D01*
X157895608Y-101797190D01*
X157796198Y-101758679D01*
X157599385Y-101721888D01*
X157537106Y-101690221D01*
X157501833Y-101629908D01*
X157504767Y-101560100D01*
X157544976Y-101502960D01*
X157599384Y-101478111D01*
X157796198Y-101441321D01*
X157995019Y-101364298D01*
X158176302Y-101252052D01*
X158333872Y-101108407D01*
X158462366Y-100938255D01*
X158462367Y-100938253D01*
X158557403Y-100747394D01*
X158557403Y-100747393D01*
X158557405Y-100747389D01*
X158615756Y-100542310D01*
X158635429Y-100330000D01*
X158615756Y-100117690D01*
X158557405Y-99912611D01*
X158557403Y-99912606D01*
X158557403Y-99912605D01*
X158462367Y-99721746D01*
X158333872Y-99551593D01*
X158176302Y-99407948D01*
X157995019Y-99295702D01*
X157995017Y-99295701D01*
X157895608Y-99257190D01*
X157796198Y-99218679D01*
X157599385Y-99181888D01*
X157537106Y-99150221D01*
X157501833Y-99089908D01*
X157504767Y-99020100D01*
X157544976Y-98962960D01*
X157599384Y-98938111D01*
X157796198Y-98901321D01*
X157995019Y-98824298D01*
X158176302Y-98712052D01*
X158333872Y-98568407D01*
X158462366Y-98398255D01*
X158464816Y-98393334D01*
X158557403Y-98207394D01*
X158557403Y-98207393D01*
X158557405Y-98207389D01*
X158615756Y-98002310D01*
X158635429Y-97790000D01*
X158615756Y-97577690D01*
X158557405Y-97372611D01*
X158557403Y-97372606D01*
X158557403Y-97372605D01*
X158462367Y-97181746D01*
X158333872Y-97011593D01*
X158176302Y-96867948D01*
X157995019Y-96755702D01*
X157995017Y-96755701D01*
X157895608Y-96717190D01*
X157796198Y-96678679D01*
X157599385Y-96641888D01*
X157537106Y-96610221D01*
X157501833Y-96549908D01*
X157504767Y-96480100D01*
X157544976Y-96422960D01*
X157599384Y-96398111D01*
X157796198Y-96361321D01*
X157995019Y-96284298D01*
X158176302Y-96172052D01*
X158333872Y-96028407D01*
X158462366Y-95858255D01*
X158557405Y-95667389D01*
X158615756Y-95462310D01*
X158629293Y-95316220D01*
X165305579Y-95316220D01*
X165305579Y-97205945D01*
X165305581Y-97205971D01*
X165308492Y-97231076D01*
X165308494Y-97231080D01*
X165353872Y-97333853D01*
X165353873Y-97333854D01*
X165433314Y-97413295D01*
X165536088Y-97458674D01*
X165561214Y-97461589D01*
X167450943Y-97461588D01*
X167450958Y-97461586D01*
X167450961Y-97461586D01*
X167476066Y-97458675D01*
X167476067Y-97458674D01*
X167476070Y-97458674D01*
X167578844Y-97413295D01*
X167658285Y-97333854D01*
X167703664Y-97231080D01*
X167706579Y-97205954D01*
X167706578Y-97176718D01*
X167726261Y-97109682D01*
X167779063Y-97063925D01*
X167843370Y-97053380D01*
X167894890Y-97058723D01*
X168603940Y-96349673D01*
X168626746Y-96434783D01*
X168685989Y-96537395D01*
X168769773Y-96621179D01*
X168872385Y-96680422D01*
X168957493Y-96703227D01*
X168247280Y-97413440D01*
X168277728Y-97437139D01*
X168481776Y-97547565D01*
X168481785Y-97547568D01*
X168701218Y-97622900D01*
X168930072Y-97661089D01*
X169162086Y-97661089D01*
X169390939Y-97622900D01*
X169610372Y-97547568D01*
X169610380Y-97547565D01*
X169814434Y-97437136D01*
X169844876Y-97413440D01*
X169844877Y-97413439D01*
X169134664Y-96703226D01*
X169219773Y-96680422D01*
X169322385Y-96621179D01*
X169406169Y-96537395D01*
X169465412Y-96434783D01*
X169488216Y-96349674D01*
X170197265Y-97058723D01*
X170281563Y-96929695D01*
X170374761Y-96717224D01*
X170431717Y-96492307D01*
X170450877Y-96261094D01*
X170450877Y-96261083D01*
X170431717Y-96029870D01*
X170374761Y-95804953D01*
X170281562Y-95592479D01*
X170197265Y-95463453D01*
X169488216Y-96172502D01*
X169465412Y-96087395D01*
X169406169Y-95984783D01*
X169322385Y-95900999D01*
X169219773Y-95841756D01*
X169134663Y-95818950D01*
X169844876Y-95108736D01*
X169844876Y-95108734D01*
X169814439Y-95085044D01*
X169814433Y-95085040D01*
X169610381Y-94974612D01*
X169610372Y-94974609D01*
X169390939Y-94899277D01*
X169162086Y-94861089D01*
X168930072Y-94861089D01*
X168701218Y-94899277D01*
X168481785Y-94974609D01*
X168481776Y-94974612D01*
X168277729Y-95085038D01*
X168247279Y-95108736D01*
X168957494Y-95818950D01*
X168872385Y-95841756D01*
X168769773Y-95900999D01*
X168685989Y-95984783D01*
X168626746Y-96087395D01*
X168603940Y-96172503D01*
X167894890Y-95463453D01*
X167843369Y-95468797D01*
X167774656Y-95456132D01*
X167723699Y-95408330D01*
X167706578Y-95345458D01*
X167706578Y-95316232D01*
X167706578Y-95316225D01*
X167706576Y-95316206D01*
X167703665Y-95291101D01*
X167703664Y-95291099D01*
X167703664Y-95291098D01*
X167658285Y-95188324D01*
X167578844Y-95108883D01*
X167524845Y-95085040D01*
X167476071Y-95063504D01*
X167450944Y-95060589D01*
X165561222Y-95060589D01*
X165561196Y-95060591D01*
X165536091Y-95063502D01*
X165536087Y-95063504D01*
X165433314Y-95108882D01*
X165353873Y-95188323D01*
X165308494Y-95291095D01*
X165308494Y-95291097D01*
X165305579Y-95316220D01*
X158629293Y-95316220D01*
X158635429Y-95250000D01*
X158615756Y-95037690D01*
X158557405Y-94832611D01*
X158557403Y-94832606D01*
X158557403Y-94832605D01*
X158462367Y-94641746D01*
X158333872Y-94471593D01*
X158176302Y-94327948D01*
X157995019Y-94215702D01*
X157995017Y-94215701D01*
X157895608Y-94177190D01*
X157796198Y-94138679D01*
X157599385Y-94101888D01*
X157537106Y-94070221D01*
X157501833Y-94009908D01*
X157504767Y-93940100D01*
X157544976Y-93882960D01*
X157599384Y-93858111D01*
X157796198Y-93821321D01*
X157995019Y-93744298D01*
X158176302Y-93632052D01*
X158333872Y-93488407D01*
X158462366Y-93318255D01*
X158557405Y-93127389D01*
X158615756Y-92922310D01*
X158635429Y-92710000D01*
X158615756Y-92497690D01*
X158557405Y-92292611D01*
X158557403Y-92292606D01*
X158557403Y-92292605D01*
X158462367Y-92101746D01*
X158333872Y-91931593D01*
X158176302Y-91787948D01*
X157995019Y-91675702D01*
X157995017Y-91675701D01*
X157895608Y-91637190D01*
X157796198Y-91598679D01*
X157599385Y-91561888D01*
X157537106Y-91530221D01*
X157501833Y-91469908D01*
X157504767Y-91400100D01*
X157544976Y-91342960D01*
X157599384Y-91318111D01*
X157796198Y-91281321D01*
X157995019Y-91204298D01*
X158176302Y-91092052D01*
X158333872Y-90948407D01*
X158462366Y-90778255D01*
X158462367Y-90778253D01*
X158557403Y-90587394D01*
X158557403Y-90587393D01*
X158557405Y-90587389D01*
X158615756Y-90382310D01*
X158635429Y-90170000D01*
X158615756Y-89957690D01*
X158557405Y-89752611D01*
X158557403Y-89752606D01*
X158557403Y-89752605D01*
X158462367Y-89561746D01*
X158333872Y-89391593D01*
X158220255Y-89288017D01*
X158176302Y-89247948D01*
X157995019Y-89135702D01*
X157995017Y-89135701D01*
X157824130Y-89069500D01*
X157796198Y-89058679D01*
X157599385Y-89021888D01*
X157537106Y-88990221D01*
X157501833Y-88929908D01*
X157504767Y-88860100D01*
X157544976Y-88802960D01*
X157599384Y-88778111D01*
X157796198Y-88741321D01*
X157995019Y-88664298D01*
X158176302Y-88552052D01*
X158333872Y-88408407D01*
X158462366Y-88238255D01*
X158507385Y-88147844D01*
X158557403Y-88047394D01*
X158557403Y-88047393D01*
X158557405Y-88047389D01*
X158615756Y-87842310D01*
X158635429Y-87630000D01*
X158615756Y-87417690D01*
X158557405Y-87212611D01*
X158557403Y-87212606D01*
X158557403Y-87212605D01*
X158462367Y-87021746D01*
X158333872Y-86851593D01*
X158176302Y-86707948D01*
X157995019Y-86595702D01*
X157995014Y-86595700D01*
X157988129Y-86593032D01*
X157966037Y-86584474D01*
X157910636Y-86541903D01*
X157887045Y-86476136D01*
X157902756Y-86408056D01*
X157952779Y-86359276D01*
X157958426Y-86356466D01*
X158157578Y-86263599D01*
X158351082Y-86128105D01*
X158518105Y-85961082D01*
X158653600Y-85767578D01*
X158753429Y-85553492D01*
X158753432Y-85553486D01*
X158810636Y-85340000D01*
X157913012Y-85340000D01*
X157945925Y-85282993D01*
X157980000Y-85155826D01*
X157980000Y-85024174D01*
X157945925Y-84897007D01*
X157913012Y-84840000D01*
X158810636Y-84840000D01*
X158810635Y-84839999D01*
X158753432Y-84626513D01*
X158753429Y-84626507D01*
X158653600Y-84412422D01*
X158653599Y-84412420D01*
X158518113Y-84218926D01*
X158518108Y-84218920D01*
X158351082Y-84051894D01*
X158171394Y-83926074D01*
X158127769Y-83871496D01*
X158120577Y-83801998D01*
X158152099Y-83739643D01*
X158212329Y-83704230D01*
X158242517Y-83700499D01*
X158374864Y-83700499D01*
X158374879Y-83700497D01*
X158374882Y-83700497D01*
X158399987Y-83697586D01*
X158399988Y-83697585D01*
X158399991Y-83697585D01*
X158502765Y-83652206D01*
X158582206Y-83572765D01*
X158627585Y-83469991D01*
X158630500Y-83444865D01*
X158630499Y-82549999D01*
X166534785Y-82549999D01*
X166534785Y-82550000D01*
X166553602Y-82753082D01*
X166609417Y-82949247D01*
X166609422Y-82949260D01*
X166700327Y-83131821D01*
X166823237Y-83294581D01*
X166973958Y-83431980D01*
X166973960Y-83431982D01*
X167073141Y-83493392D01*
X167147363Y-83539348D01*
X167337544Y-83613024D01*
X167538024Y-83650500D01*
X167538026Y-83650500D01*
X167741974Y-83650500D01*
X167741976Y-83650500D01*
X167942456Y-83613024D01*
X168132637Y-83539348D01*
X168306041Y-83431981D01*
X168456764Y-83294579D01*
X168579673Y-83131821D01*
X168670582Y-82949250D01*
X168726397Y-82753083D01*
X168745215Y-82550000D01*
X168745215Y-82549999D01*
X174154785Y-82549999D01*
X174154785Y-82550000D01*
X174173602Y-82753082D01*
X174229417Y-82949247D01*
X174229422Y-82949260D01*
X174320327Y-83131821D01*
X174443237Y-83294581D01*
X174593958Y-83431980D01*
X174593960Y-83431982D01*
X174693141Y-83493392D01*
X174767363Y-83539348D01*
X174957544Y-83613024D01*
X175158024Y-83650500D01*
X175158026Y-83650500D01*
X175361974Y-83650500D01*
X175361976Y-83650500D01*
X175562456Y-83613024D01*
X175752637Y-83539348D01*
X175926041Y-83431981D01*
X176076764Y-83294579D01*
X176199673Y-83131821D01*
X176290582Y-82949250D01*
X176346397Y-82753083D01*
X176365215Y-82550000D01*
X176346397Y-82346917D01*
X176290582Y-82150750D01*
X176199673Y-81968179D01*
X176076764Y-81805421D01*
X176076762Y-81805418D01*
X175926041Y-81668019D01*
X175926039Y-81668017D01*
X175752642Y-81560655D01*
X175752635Y-81560651D01*
X175657546Y-81523814D01*
X175562456Y-81486976D01*
X175361976Y-81449500D01*
X175158024Y-81449500D01*
X174957544Y-81486976D01*
X174957541Y-81486976D01*
X174957541Y-81486977D01*
X174767364Y-81560651D01*
X174767357Y-81560655D01*
X174593960Y-81668017D01*
X174593958Y-81668019D01*
X174443237Y-81805418D01*
X174320327Y-81968178D01*
X174229422Y-82150739D01*
X174229417Y-82150752D01*
X174173602Y-82346917D01*
X174154785Y-82549999D01*
X168745215Y-82549999D01*
X168726397Y-82346917D01*
X168670582Y-82150750D01*
X168579673Y-81968179D01*
X168456764Y-81805421D01*
X168456762Y-81805418D01*
X168306041Y-81668019D01*
X168306039Y-81668017D01*
X168132642Y-81560655D01*
X168132635Y-81560651D01*
X168037546Y-81523814D01*
X167942456Y-81486976D01*
X167741976Y-81449500D01*
X167538024Y-81449500D01*
X167337544Y-81486976D01*
X167337541Y-81486976D01*
X167337541Y-81486977D01*
X167147364Y-81560651D01*
X167147357Y-81560655D01*
X166973960Y-81668017D01*
X166973958Y-81668019D01*
X166823237Y-81805418D01*
X166700327Y-81968178D01*
X166609422Y-82150739D01*
X166609417Y-82150752D01*
X166553602Y-82346917D01*
X166534785Y-82549999D01*
X158630499Y-82549999D01*
X158630499Y-81655136D01*
X158630497Y-81655117D01*
X158627586Y-81630012D01*
X158627585Y-81630010D01*
X158627585Y-81630009D01*
X158582206Y-81527235D01*
X158502765Y-81447794D01*
X158502763Y-81447793D01*
X158399992Y-81402415D01*
X158374865Y-81399500D01*
X156585143Y-81399500D01*
X156585117Y-81399502D01*
X156560012Y-81402413D01*
X156560008Y-81402415D01*
X156457235Y-81447793D01*
X156377794Y-81527234D01*
X156332415Y-81630006D01*
X156332415Y-81630008D01*
X156329500Y-81655131D01*
X156329500Y-83444856D01*
X156329502Y-83444882D01*
X156332413Y-83469987D01*
X156332415Y-83469991D01*
X156377793Y-83572764D01*
X156377794Y-83572765D01*
X156457235Y-83652206D01*
X156560009Y-83697585D01*
X156585135Y-83700500D01*
X156717483Y-83700499D01*
X156784520Y-83720183D01*
X156830275Y-83772987D01*
X156840219Y-83842145D01*
X156811195Y-83905701D01*
X156788605Y-83926074D01*
X156608922Y-84051890D01*
X156608920Y-84051891D01*
X156441891Y-84218920D01*
X156441886Y-84218926D01*
X156306400Y-84412420D01*
X156306399Y-84412422D01*
X156206570Y-84626507D01*
X156206567Y-84626513D01*
X156149364Y-84839999D01*
X156149364Y-84840000D01*
X157046988Y-84840000D01*
X157014075Y-84897007D01*
X156980000Y-85024174D01*
X156980000Y-85155826D01*
X157014075Y-85282993D01*
X157046988Y-85340000D01*
X156149364Y-85340000D01*
X156206567Y-85553486D01*
X156206570Y-85553492D01*
X156306399Y-85767578D01*
X156441894Y-85961082D01*
X156608917Y-86128105D01*
X156802421Y-86263600D01*
X157001573Y-86356466D01*
X157054012Y-86402638D01*
X157073164Y-86469832D01*
X157052948Y-86536713D01*
X156999783Y-86582048D01*
X156993968Y-86584472D01*
X156986771Y-86587260D01*
X156964982Y-86595701D01*
X156964980Y-86595702D01*
X156783699Y-86707947D01*
X156626127Y-86851593D01*
X156497632Y-87021746D01*
X156402596Y-87212605D01*
X156402596Y-87212607D01*
X156344244Y-87417689D01*
X156324571Y-87629999D01*
X156324571Y-87630000D01*
X156344244Y-87842310D01*
X156402596Y-88047392D01*
X156402596Y-88047394D01*
X156497632Y-88238253D01*
X156608970Y-88385687D01*
X156626128Y-88408407D01*
X156783698Y-88552052D01*
X156964981Y-88664298D01*
X157163802Y-88741321D01*
X157360613Y-88778111D01*
X157422893Y-88809779D01*
X157458166Y-88870092D01*
X157455232Y-88939900D01*
X157415023Y-88997040D01*
X157360613Y-89021888D01*
X157163802Y-89058679D01*
X157163799Y-89058679D01*
X157163799Y-89058680D01*
X156964982Y-89135701D01*
X156964980Y-89135702D01*
X156783699Y-89247947D01*
X156626127Y-89391593D01*
X156497632Y-89561746D01*
X156402596Y-89752605D01*
X156402596Y-89752607D01*
X156344244Y-89957689D01*
X156324571Y-90169999D01*
X156324571Y-90170000D01*
X156344244Y-90382310D01*
X156402596Y-90587392D01*
X156402596Y-90587394D01*
X156497632Y-90778253D01*
X156626127Y-90948406D01*
X156626128Y-90948407D01*
X156783698Y-91092052D01*
X156964981Y-91204298D01*
X157163802Y-91281321D01*
X157360613Y-91318111D01*
X157422893Y-91349779D01*
X157458166Y-91410092D01*
X157455232Y-91479900D01*
X157415023Y-91537040D01*
X157360613Y-91561888D01*
X157163802Y-91598679D01*
X157163799Y-91598679D01*
X157163799Y-91598680D01*
X156964982Y-91675701D01*
X156964980Y-91675702D01*
X156783699Y-91787947D01*
X156626127Y-91931593D01*
X156497632Y-92101746D01*
X156402596Y-92292605D01*
X156402596Y-92292607D01*
X156344244Y-92497689D01*
X156324571Y-92709999D01*
X156324571Y-92710000D01*
X156344244Y-92922310D01*
X156402596Y-93127392D01*
X156402596Y-93127394D01*
X156497632Y-93318253D01*
X156497634Y-93318255D01*
X156626128Y-93488407D01*
X156783698Y-93632052D01*
X156964981Y-93744298D01*
X157163802Y-93821321D01*
X157360613Y-93858111D01*
X157422893Y-93889779D01*
X157458166Y-93950092D01*
X157455232Y-94019900D01*
X157415023Y-94077040D01*
X157360613Y-94101888D01*
X157163802Y-94138679D01*
X157163799Y-94138679D01*
X157163799Y-94138680D01*
X156964982Y-94215701D01*
X156964980Y-94215702D01*
X156783699Y-94327947D01*
X156626127Y-94471593D01*
X156497632Y-94641746D01*
X156402596Y-94832605D01*
X156402596Y-94832607D01*
X156344244Y-95037689D01*
X156324571Y-95249999D01*
X156324571Y-95250000D01*
X156344244Y-95462310D01*
X156402596Y-95667392D01*
X156402596Y-95667394D01*
X156497632Y-95858253D01*
X156593184Y-95984783D01*
X156626128Y-96028407D01*
X156783698Y-96172052D01*
X156964981Y-96284298D01*
X157163802Y-96361321D01*
X157360613Y-96398111D01*
X157422893Y-96429779D01*
X157458166Y-96490092D01*
X157455232Y-96559900D01*
X157415023Y-96617040D01*
X157360613Y-96641888D01*
X157163802Y-96678679D01*
X157163799Y-96678679D01*
X157163799Y-96678680D01*
X156964982Y-96755701D01*
X156964980Y-96755702D01*
X156783699Y-96867947D01*
X156626127Y-97011593D01*
X156528987Y-97140227D01*
X156472878Y-97181863D01*
X156430033Y-97189500D01*
X155019057Y-97189500D01*
X154860942Y-97189500D01*
X154708215Y-97230423D01*
X154708214Y-97230423D01*
X154708212Y-97230424D01*
X154708209Y-97230425D01*
X154658096Y-97259359D01*
X154658095Y-97259360D01*
X154614689Y-97284420D01*
X154571285Y-97309479D01*
X154571282Y-97309481D01*
X153189480Y-98691283D01*
X153182558Y-98703273D01*
X153177490Y-98712052D01*
X153110423Y-98828215D01*
X153069499Y-98980943D01*
X153069499Y-98980945D01*
X153069499Y-99149046D01*
X153069500Y-99149059D01*
X153069500Y-107548199D01*
X153049815Y-107615238D01*
X153047551Y-107618638D01*
X153045182Y-107622069D01*
X152984860Y-107781125D01*
X152984859Y-107781130D01*
X152964355Y-107950000D01*
X140608274Y-107950000D01*
X140787054Y-107902096D01*
X140787063Y-107902092D01*
X140993219Y-107805961D01*
X141179557Y-107675484D01*
X141340394Y-107514647D01*
X141470871Y-107328309D01*
X141567002Y-107122153D01*
X141567006Y-107122144D01*
X141619609Y-106925827D01*
X140656423Y-106925827D01*
X140660817Y-106921433D01*
X140713478Y-106830221D01*
X140740737Y-106728488D01*
X140740737Y-106675826D01*
X146855522Y-106675826D01*
X146855522Y-106675827D01*
X146874339Y-106878909D01*
X146930154Y-107075074D01*
X146930159Y-107075087D01*
X147021064Y-107257648D01*
X147143974Y-107420408D01*
X147294695Y-107557807D01*
X147294697Y-107557809D01*
X147343855Y-107588246D01*
X147468100Y-107665175D01*
X147658281Y-107738851D01*
X147858761Y-107776327D01*
X147858763Y-107776327D01*
X148062711Y-107776327D01*
X148062713Y-107776327D01*
X148263193Y-107738851D01*
X148453374Y-107665175D01*
X148626778Y-107557808D01*
X148777501Y-107420406D01*
X148900410Y-107257648D01*
X148991319Y-107075077D01*
X149047134Y-106878910D01*
X149065952Y-106675827D01*
X149062641Y-106640100D01*
X149047134Y-106472744D01*
X149033785Y-106425827D01*
X148991319Y-106276577D01*
X148955589Y-106204822D01*
X148943716Y-106180977D01*
X148900410Y-106094006D01*
X148777501Y-105931248D01*
X148777499Y-105931245D01*
X148626778Y-105793846D01*
X148626776Y-105793844D01*
X148453379Y-105686482D01*
X148453372Y-105686478D01*
X148358283Y-105649641D01*
X148263193Y-105612803D01*
X148062713Y-105575327D01*
X147858761Y-105575327D01*
X147658281Y-105612803D01*
X147658278Y-105612803D01*
X147658278Y-105612804D01*
X147468101Y-105686478D01*
X147468094Y-105686482D01*
X147294697Y-105793844D01*
X147294695Y-105793846D01*
X147143974Y-105931245D01*
X147021064Y-106094005D01*
X146930159Y-106276566D01*
X146930154Y-106276579D01*
X146874339Y-106472744D01*
X146855522Y-106675826D01*
X140740737Y-106675826D01*
X140740737Y-106623166D01*
X140713478Y-106521433D01*
X140660817Y-106430221D01*
X140656423Y-106425827D01*
X141619609Y-106425827D01*
X141619609Y-106425826D01*
X141567006Y-106229509D01*
X141567002Y-106229500D01*
X141470871Y-106023344D01*
X141340394Y-105837006D01*
X141179557Y-105676169D01*
X140993219Y-105545692D01*
X140787065Y-105449561D01*
X140590737Y-105396954D01*
X140590737Y-106360141D01*
X140586343Y-106355747D01*
X140495131Y-106303086D01*
X140393398Y-106275827D01*
X140288076Y-106275827D01*
X140186343Y-106303086D01*
X140095131Y-106355747D01*
X140090737Y-106360141D01*
X140090737Y-105396954D01*
X139894408Y-105449561D01*
X139688254Y-105545692D01*
X139501916Y-105676169D01*
X139341079Y-105837006D01*
X139210602Y-106023344D01*
X139114471Y-106229500D01*
X139114467Y-106229509D01*
X139061864Y-106425826D01*
X137350000Y-106425826D01*
X137350000Y-101599999D01*
X146114357Y-101599999D01*
X146114357Y-101600000D01*
X146134884Y-101821535D01*
X146134885Y-101821537D01*
X146195769Y-102035523D01*
X146195775Y-102035538D01*
X146294938Y-102234683D01*
X146294943Y-102234691D01*
X146429020Y-102412238D01*
X146593437Y-102562123D01*
X146593439Y-102562125D01*
X146782595Y-102679245D01*
X146782596Y-102679245D01*
X146782599Y-102679247D01*
X146990060Y-102759618D01*
X147208757Y-102800500D01*
X147208759Y-102800500D01*
X147431241Y-102800500D01*
X147431243Y-102800500D01*
X147649940Y-102759618D01*
X147857401Y-102679247D01*
X148046562Y-102562124D01*
X148210981Y-102412236D01*
X148345058Y-102234689D01*
X148424500Y-102075149D01*
X148472002Y-102023911D01*
X148539665Y-102006490D01*
X148606006Y-102028415D01*
X148649961Y-102082727D01*
X148659500Y-102130420D01*
X148659500Y-102544856D01*
X148659502Y-102544882D01*
X148662413Y-102569987D01*
X148662415Y-102569991D01*
X148707793Y-102672764D01*
X148707794Y-102672765D01*
X148787235Y-102752206D01*
X148890009Y-102797585D01*
X148915135Y-102800500D01*
X150804864Y-102800499D01*
X150804879Y-102800497D01*
X150804882Y-102800497D01*
X150829987Y-102797586D01*
X150829988Y-102797585D01*
X150829991Y-102797585D01*
X150932765Y-102752206D01*
X151012206Y-102672765D01*
X151057585Y-102569991D01*
X151060500Y-102544865D01*
X151060499Y-100655136D01*
X151059648Y-100647794D01*
X151057586Y-100630012D01*
X151057585Y-100630010D01*
X151057585Y-100630009D01*
X151012206Y-100527235D01*
X150932765Y-100447794D01*
X150932763Y-100447793D01*
X150829992Y-100402415D01*
X150804865Y-100399500D01*
X148915143Y-100399500D01*
X148915117Y-100399502D01*
X148890012Y-100402413D01*
X148890008Y-100402415D01*
X148787235Y-100447793D01*
X148707794Y-100527234D01*
X148662415Y-100630006D01*
X148662415Y-100630008D01*
X148659500Y-100655131D01*
X148659500Y-101069578D01*
X148639815Y-101136617D01*
X148587011Y-101182372D01*
X148517853Y-101192316D01*
X148454297Y-101163291D01*
X148424500Y-101124850D01*
X148345061Y-100965316D01*
X148345056Y-100965308D01*
X148210979Y-100787761D01*
X148046562Y-100637876D01*
X148046560Y-100637874D01*
X147857404Y-100520754D01*
X147857398Y-100520752D01*
X147649940Y-100440382D01*
X147431243Y-100399500D01*
X147208757Y-100399500D01*
X146990060Y-100440382D01*
X146858864Y-100491207D01*
X146782601Y-100520752D01*
X146782595Y-100520754D01*
X146593439Y-100637874D01*
X146593437Y-100637876D01*
X146429020Y-100787761D01*
X146294943Y-100965308D01*
X146294938Y-100965316D01*
X146195775Y-101164461D01*
X146195769Y-101164476D01*
X146134885Y-101378462D01*
X146134884Y-101378464D01*
X146114357Y-101599999D01*
X137350000Y-101599999D01*
X137350000Y-90169999D01*
X143674785Y-90169999D01*
X143674785Y-90170000D01*
X143693602Y-90373082D01*
X143749417Y-90569247D01*
X143749422Y-90569260D01*
X143840327Y-90751821D01*
X143963237Y-90914581D01*
X144113958Y-91051980D01*
X144113960Y-91051982D01*
X144178676Y-91092052D01*
X144287363Y-91159348D01*
X144477544Y-91233024D01*
X144678024Y-91270500D01*
X144678026Y-91270500D01*
X144881974Y-91270500D01*
X144881976Y-91270500D01*
X145082456Y-91233024D01*
X145272637Y-91159348D01*
X145446041Y-91051981D01*
X145596764Y-90914579D01*
X145719673Y-90751821D01*
X145810582Y-90569250D01*
X145866397Y-90373083D01*
X145885215Y-90170000D01*
X145885215Y-90169999D01*
X151294785Y-90169999D01*
X151294785Y-90170000D01*
X151313602Y-90373082D01*
X151369417Y-90569247D01*
X151369422Y-90569260D01*
X151460327Y-90751821D01*
X151583237Y-90914581D01*
X151733958Y-91051980D01*
X151733960Y-91051982D01*
X151798676Y-91092052D01*
X151907363Y-91159348D01*
X152097544Y-91233024D01*
X152298024Y-91270500D01*
X152298026Y-91270500D01*
X152501974Y-91270500D01*
X152501976Y-91270500D01*
X152702456Y-91233024D01*
X152892637Y-91159348D01*
X153066041Y-91051981D01*
X153216764Y-90914579D01*
X153339673Y-90751821D01*
X153430582Y-90569250D01*
X153486397Y-90373083D01*
X153505215Y-90170000D01*
X153486397Y-89966917D01*
X153430582Y-89770750D01*
X153339673Y-89588179D01*
X153216764Y-89425421D01*
X153216762Y-89425418D01*
X153066041Y-89288019D01*
X153066039Y-89288017D01*
X152892642Y-89180655D01*
X152892635Y-89180651D01*
X152776604Y-89135701D01*
X152702456Y-89106976D01*
X152501976Y-89069500D01*
X152298024Y-89069500D01*
X152097544Y-89106976D01*
X152097541Y-89106976D01*
X152097541Y-89106977D01*
X151907364Y-89180651D01*
X151907357Y-89180655D01*
X151733960Y-89288017D01*
X151733958Y-89288019D01*
X151583237Y-89425418D01*
X151460327Y-89588178D01*
X151369422Y-89770739D01*
X151369417Y-89770752D01*
X151313602Y-89966917D01*
X151294785Y-90169999D01*
X145885215Y-90169999D01*
X145866397Y-89966917D01*
X145810582Y-89770750D01*
X145719673Y-89588179D01*
X145596764Y-89425421D01*
X145596762Y-89425418D01*
X145446041Y-89288019D01*
X145446039Y-89288017D01*
X145272642Y-89180655D01*
X145272635Y-89180651D01*
X145156604Y-89135701D01*
X145082456Y-89106976D01*
X144881976Y-89069500D01*
X144678024Y-89069500D01*
X144477544Y-89106976D01*
X144477541Y-89106976D01*
X144477541Y-89106977D01*
X144287364Y-89180651D01*
X144287357Y-89180655D01*
X144113960Y-89288017D01*
X144113958Y-89288019D01*
X143963237Y-89425418D01*
X143840327Y-89588178D01*
X143749422Y-89770739D01*
X143749417Y-89770752D01*
X143693602Y-89966917D01*
X143674785Y-90169999D01*
X137350000Y-90169999D01*
X137350000Y-88147844D01*
X138650000Y-88147844D01*
X138656401Y-88207372D01*
X138656403Y-88207379D01*
X138706645Y-88342086D01*
X138706649Y-88342093D01*
X138792809Y-88457187D01*
X138792812Y-88457190D01*
X138907906Y-88543350D01*
X138907913Y-88543354D01*
X139042620Y-88593596D01*
X139042627Y-88593598D01*
X139102155Y-88599999D01*
X139102172Y-88600000D01*
X139450000Y-88600000D01*
X139950000Y-88600000D01*
X140297828Y-88600000D01*
X140297844Y-88599999D01*
X140357372Y-88593598D01*
X140357379Y-88593596D01*
X140492086Y-88543354D01*
X140492093Y-88543350D01*
X140607187Y-88457190D01*
X140607190Y-88457187D01*
X140693350Y-88342093D01*
X140693354Y-88342086D01*
X140743596Y-88207379D01*
X140743598Y-88207372D01*
X140749999Y-88147844D01*
X140750000Y-88147827D01*
X140750000Y-87450000D01*
X139950000Y-87450000D01*
X139950000Y-88600000D01*
X139450000Y-88600000D01*
X139450000Y-87450000D01*
X138650000Y-87450000D01*
X138650000Y-88147844D01*
X137350000Y-88147844D01*
X137350000Y-86252155D01*
X138650000Y-86252155D01*
X138650000Y-86950000D01*
X139353590Y-86950000D01*
X139399925Y-87030255D01*
X139469745Y-87100075D01*
X139555255Y-87149444D01*
X139650630Y-87175000D01*
X139749370Y-87175000D01*
X139844745Y-87149444D01*
X139930255Y-87100075D01*
X140000075Y-87030255D01*
X140046410Y-86950000D01*
X140750000Y-86950000D01*
X140750000Y-86454500D01*
X140769685Y-86387461D01*
X140822489Y-86341706D01*
X140874000Y-86330500D01*
X141275328Y-86330500D01*
X141342367Y-86350185D01*
X141388122Y-86402989D01*
X141398267Y-86470685D01*
X141389501Y-86537269D01*
X141389500Y-86537286D01*
X141389500Y-87862727D01*
X141402461Y-87961171D01*
X141404313Y-87975236D01*
X141462302Y-88115233D01*
X141554549Y-88235451D01*
X141674767Y-88327698D01*
X141814764Y-88385687D01*
X141927280Y-88400500D01*
X141927287Y-88400500D01*
X142552713Y-88400500D01*
X142552720Y-88400500D01*
X142665236Y-88385687D01*
X142805233Y-88327698D01*
X142925451Y-88235451D01*
X143017698Y-88115233D01*
X143075687Y-87975236D01*
X143090500Y-87862720D01*
X143090500Y-86537280D01*
X143075687Y-86424764D01*
X143048860Y-86359999D01*
X143674785Y-86359999D01*
X143674785Y-86360000D01*
X143693602Y-86563082D01*
X143749417Y-86759247D01*
X143749422Y-86759260D01*
X143840327Y-86941821D01*
X143963237Y-87104581D01*
X144113958Y-87241980D01*
X144113960Y-87241982D01*
X144213141Y-87303392D01*
X144287363Y-87349348D01*
X144477544Y-87423024D01*
X144678024Y-87460500D01*
X144678026Y-87460500D01*
X144881974Y-87460500D01*
X144881976Y-87460500D01*
X145082456Y-87423024D01*
X145272637Y-87349348D01*
X145446041Y-87241981D01*
X145596764Y-87104579D01*
X145719673Y-86941821D01*
X145810582Y-86759250D01*
X145866397Y-86563083D01*
X145885215Y-86360000D01*
X145882481Y-86330500D01*
X145866397Y-86156917D01*
X145853048Y-86110000D01*
X145810582Y-85960750D01*
X145801648Y-85942809D01*
X145758744Y-85856645D01*
X145719673Y-85778179D01*
X145596764Y-85615421D01*
X145596762Y-85615418D01*
X145446041Y-85478019D01*
X145446039Y-85478017D01*
X145272642Y-85370655D01*
X145272635Y-85370651D01*
X145177546Y-85333814D01*
X145082456Y-85296976D01*
X144881976Y-85259500D01*
X144678024Y-85259500D01*
X144477544Y-85296976D01*
X144477541Y-85296976D01*
X144477541Y-85296977D01*
X144287364Y-85370651D01*
X144287357Y-85370655D01*
X144113960Y-85478017D01*
X144113958Y-85478019D01*
X143963237Y-85615418D01*
X143840327Y-85778178D01*
X143749422Y-85960739D01*
X143749417Y-85960752D01*
X143693602Y-86156917D01*
X143674785Y-86359999D01*
X143048860Y-86359999D01*
X143017698Y-86284767D01*
X142925451Y-86164549D01*
X142805233Y-86072302D01*
X142805229Y-86072300D01*
X142727056Y-86039920D01*
X142665236Y-86014313D01*
X142651171Y-86012461D01*
X142552727Y-85999500D01*
X142552720Y-85999500D01*
X141934672Y-85999500D01*
X141867633Y-85979815D01*
X141821878Y-85927011D01*
X141811733Y-85859315D01*
X141814921Y-85835095D01*
X141820500Y-85792720D01*
X141820500Y-84467280D01*
X141805687Y-84354764D01*
X141747698Y-84214767D01*
X141655451Y-84094549D01*
X141535233Y-84002302D01*
X141535229Y-84002300D01*
X141471801Y-83976027D01*
X141395236Y-83944313D01*
X141381171Y-83942461D01*
X141282727Y-83929500D01*
X141282720Y-83929500D01*
X140657280Y-83929500D01*
X140657272Y-83929500D01*
X140544764Y-83944313D01*
X140544763Y-83944313D01*
X140404770Y-84002300D01*
X140284549Y-84094549D01*
X140192300Y-84214770D01*
X140134313Y-84354763D01*
X140134313Y-84354764D01*
X140119500Y-84467272D01*
X140119500Y-85676000D01*
X140099815Y-85743039D01*
X140047011Y-85788794D01*
X139995500Y-85800000D01*
X139950000Y-85800000D01*
X139950000Y-86519670D01*
X139930255Y-86499925D01*
X139844745Y-86450556D01*
X139749370Y-86425000D01*
X139650630Y-86425000D01*
X139555255Y-86450556D01*
X139469745Y-86499925D01*
X139450000Y-86519670D01*
X139450000Y-85800000D01*
X139102155Y-85800000D01*
X139042627Y-85806401D01*
X139042620Y-85806403D01*
X138907913Y-85856645D01*
X138907906Y-85856649D01*
X138792812Y-85942809D01*
X138792809Y-85942812D01*
X138706649Y-86057906D01*
X138706645Y-86057913D01*
X138656403Y-86192620D01*
X138656401Y-86192627D01*
X138650000Y-86252155D01*
X137350000Y-86252155D01*
X137350000Y-82549999D01*
X143674785Y-82549999D01*
X143674785Y-82550000D01*
X143693602Y-82753082D01*
X143749417Y-82949247D01*
X143749422Y-82949260D01*
X143840327Y-83131821D01*
X143963237Y-83294581D01*
X144113958Y-83431980D01*
X144113960Y-83431982D01*
X144213141Y-83493392D01*
X144287363Y-83539348D01*
X144477544Y-83613024D01*
X144678024Y-83650500D01*
X144678026Y-83650500D01*
X144838482Y-83650500D01*
X144905521Y-83670185D01*
X144926163Y-83686819D01*
X146583181Y-85343837D01*
X146616666Y-85405160D01*
X146619500Y-85431518D01*
X146619500Y-86310125D01*
X146618596Y-86325071D01*
X146614355Y-86360000D01*
X146617689Y-86387461D01*
X146618596Y-86394926D01*
X146619500Y-86409873D01*
X146619500Y-86428991D01*
X146626882Y-86466105D01*
X146628360Y-86475347D01*
X146634859Y-86528870D01*
X146634860Y-86528871D01*
X146640678Y-86544212D01*
X146646353Y-86563992D01*
X146646420Y-86564327D01*
X146646420Y-86564329D01*
X146668046Y-86616538D01*
X146669423Y-86620010D01*
X146695182Y-86687930D01*
X146712197Y-86712580D01*
X146739983Y-86752836D01*
X146741035Y-86754385D01*
X146775885Y-86806541D01*
X146779751Y-86811252D01*
X146779371Y-86811563D01*
X146786061Y-86819590D01*
X146791817Y-86827929D01*
X146791817Y-86827930D01*
X146836845Y-86867821D01*
X146842299Y-86872955D01*
X146873458Y-86904114D01*
X146884154Y-86911261D01*
X146897485Y-86921543D01*
X146919148Y-86940734D01*
X146919150Y-86940735D01*
X146919151Y-86940736D01*
X146955836Y-86959990D01*
X146967097Y-86966681D01*
X146988189Y-86980775D01*
X147017398Y-86992874D01*
X147027559Y-86997633D01*
X147042093Y-87005261D01*
X147069772Y-87019789D01*
X147069774Y-87019789D01*
X147069775Y-87019790D01*
X147077708Y-87021745D01*
X147091791Y-87025216D01*
X147109571Y-87031052D01*
X147115672Y-87033580D01*
X147165023Y-87043396D01*
X147170473Y-87044609D01*
X147234944Y-87060500D01*
X147234945Y-87060500D01*
X147405058Y-87060500D01*
X147405058Y-87060499D01*
X147469510Y-87044613D01*
X147474975Y-87043396D01*
X147524328Y-87033580D01*
X147530417Y-87031057D01*
X147548204Y-87025216D01*
X147570225Y-87019790D01*
X147612449Y-86997628D01*
X147622606Y-86992871D01*
X147651811Y-86980775D01*
X147672914Y-86966673D01*
X147684171Y-86959985D01*
X147720852Y-86940734D01*
X147742512Y-86921544D01*
X147755835Y-86911267D01*
X147766542Y-86904114D01*
X147797730Y-86872924D01*
X147803133Y-86867838D01*
X147848183Y-86827929D01*
X147853939Y-86819590D01*
X147860643Y-86811581D01*
X147860246Y-86811255D01*
X147864113Y-86806543D01*
X147864114Y-86806542D01*
X147899034Y-86754279D01*
X147899939Y-86752946D01*
X147944818Y-86687930D01*
X147970587Y-86619978D01*
X147971926Y-86616601D01*
X147993580Y-86564328D01*
X147993646Y-86563995D01*
X147999321Y-86544211D01*
X148005140Y-86528872D01*
X148011637Y-86475350D01*
X148013116Y-86466109D01*
X148020500Y-86428996D01*
X148020500Y-86409873D01*
X148021404Y-86394926D01*
X148025645Y-86360000D01*
X148021404Y-86325071D01*
X148020500Y-86310125D01*
X148020500Y-86109999D01*
X151121127Y-86109999D01*
X151121128Y-86110000D01*
X152084314Y-86110000D01*
X152079920Y-86114394D01*
X152027259Y-86205606D01*
X152000000Y-86307339D01*
X152000000Y-86412661D01*
X152027259Y-86514394D01*
X152079920Y-86605606D01*
X152084314Y-86610000D01*
X151121128Y-86610000D01*
X151173730Y-86806317D01*
X151173734Y-86806326D01*
X151269865Y-87012482D01*
X151400342Y-87198820D01*
X151561179Y-87359657D01*
X151747517Y-87490134D01*
X151953673Y-87586265D01*
X151953682Y-87586269D01*
X152149999Y-87638872D01*
X152150000Y-87638871D01*
X152150000Y-86675686D01*
X152154394Y-86680080D01*
X152245606Y-86732741D01*
X152347339Y-86760000D01*
X152452661Y-86760000D01*
X152554394Y-86732741D01*
X152645606Y-86680080D01*
X152650000Y-86675686D01*
X152650000Y-87638872D01*
X152846317Y-87586269D01*
X152846326Y-87586265D01*
X153052482Y-87490134D01*
X153238820Y-87359657D01*
X153399657Y-87198820D01*
X153530134Y-87012482D01*
X153626265Y-86806326D01*
X153626269Y-86806317D01*
X153678872Y-86610000D01*
X152715686Y-86610000D01*
X152720080Y-86605606D01*
X152772741Y-86514394D01*
X152800000Y-86412661D01*
X152800000Y-86307339D01*
X152772741Y-86205606D01*
X152720080Y-86114394D01*
X152715686Y-86110000D01*
X153678872Y-86110000D01*
X153678872Y-86109999D01*
X153626269Y-85913682D01*
X153626265Y-85913673D01*
X153530134Y-85707517D01*
X153399657Y-85521179D01*
X153238820Y-85360342D01*
X153052482Y-85229865D01*
X152846328Y-85133734D01*
X152650000Y-85081127D01*
X152650000Y-86044314D01*
X152645606Y-86039920D01*
X152554394Y-85987259D01*
X152452661Y-85960000D01*
X152347339Y-85960000D01*
X152245606Y-85987259D01*
X152154394Y-86039920D01*
X152150000Y-86044314D01*
X152150000Y-85081127D01*
X151953671Y-85133734D01*
X151747517Y-85229865D01*
X151561179Y-85360342D01*
X151400342Y-85521179D01*
X151269865Y-85707517D01*
X151173734Y-85913673D01*
X151173730Y-85913682D01*
X151121127Y-86109999D01*
X148020500Y-86109999D01*
X148020500Y-85021004D01*
X147993581Y-84885677D01*
X147993580Y-84885676D01*
X147993580Y-84885672D01*
X147974662Y-84839999D01*
X147940778Y-84758195D01*
X147940771Y-84758182D01*
X147864115Y-84643459D01*
X147844731Y-84624075D01*
X147766542Y-84545886D01*
X146869916Y-83649260D01*
X145916660Y-82696003D01*
X145883175Y-82634680D01*
X145880870Y-82596886D01*
X145885215Y-82550000D01*
X145885215Y-82549999D01*
X151294785Y-82549999D01*
X151294785Y-82550000D01*
X151313602Y-82753082D01*
X151369417Y-82949247D01*
X151369422Y-82949260D01*
X151460327Y-83131821D01*
X151583237Y-83294581D01*
X151733958Y-83431980D01*
X151733960Y-83431982D01*
X151833141Y-83493392D01*
X151907363Y-83539348D01*
X152097544Y-83613024D01*
X152298024Y-83650500D01*
X152298026Y-83650500D01*
X152501974Y-83650500D01*
X152501976Y-83650500D01*
X152702456Y-83613024D01*
X152892637Y-83539348D01*
X153066041Y-83431981D01*
X153216764Y-83294579D01*
X153339673Y-83131821D01*
X153430582Y-82949250D01*
X153486397Y-82753083D01*
X153505215Y-82550000D01*
X153486397Y-82346917D01*
X153430582Y-82150750D01*
X153339673Y-81968179D01*
X153216764Y-81805421D01*
X153216762Y-81805418D01*
X153066041Y-81668019D01*
X153066039Y-81668017D01*
X152892642Y-81560655D01*
X152892635Y-81560651D01*
X152797546Y-81523814D01*
X152702456Y-81486976D01*
X152501976Y-81449500D01*
X152298024Y-81449500D01*
X152097544Y-81486976D01*
X152097541Y-81486976D01*
X152097541Y-81486977D01*
X151907364Y-81560651D01*
X151907357Y-81560655D01*
X151733960Y-81668017D01*
X151733958Y-81668019D01*
X151583237Y-81805418D01*
X151460327Y-81968178D01*
X151369422Y-82150739D01*
X151369417Y-82150752D01*
X151313602Y-82346917D01*
X151294785Y-82549999D01*
X145885215Y-82549999D01*
X145866397Y-82346917D01*
X145810582Y-82150750D01*
X145719673Y-81968179D01*
X145596764Y-81805421D01*
X145596762Y-81805418D01*
X145446041Y-81668019D01*
X145446039Y-81668017D01*
X145272642Y-81560655D01*
X145272635Y-81560651D01*
X145177546Y-81523814D01*
X145082456Y-81486976D01*
X144881976Y-81449500D01*
X144678024Y-81449500D01*
X144477544Y-81486976D01*
X144477541Y-81486976D01*
X144477541Y-81486977D01*
X144287364Y-81560651D01*
X144287357Y-81560655D01*
X144113960Y-81668017D01*
X144113958Y-81668019D01*
X143963237Y-81805418D01*
X143840327Y-81968178D01*
X143749422Y-82150739D01*
X143749417Y-82150752D01*
X143693602Y-82346917D01*
X143674785Y-82549999D01*
X137350000Y-82549999D01*
X137350000Y-77469997D01*
X138345034Y-77469997D01*
X138345034Y-77470002D01*
X138364858Y-77696599D01*
X138364860Y-77696610D01*
X138423730Y-77916317D01*
X138423735Y-77916331D01*
X138519863Y-78122478D01*
X138570974Y-78195472D01*
X139250000Y-77516446D01*
X139250000Y-77522661D01*
X139277259Y-77624394D01*
X139329920Y-77715606D01*
X139404394Y-77790080D01*
X139495606Y-77842741D01*
X139597339Y-77870000D01*
X139603553Y-77870000D01*
X138924526Y-78549025D01*
X138997513Y-78600132D01*
X138997521Y-78600136D01*
X139203668Y-78696264D01*
X139203682Y-78696269D01*
X139423389Y-78755139D01*
X139423400Y-78755141D01*
X139649998Y-78774966D01*
X139650002Y-78774966D01*
X139876599Y-78755141D01*
X139876610Y-78755139D01*
X140096317Y-78696269D01*
X140096331Y-78696264D01*
X140302478Y-78600136D01*
X140375471Y-78549024D01*
X139696447Y-77870000D01*
X139702661Y-77870000D01*
X139804394Y-77842741D01*
X139895606Y-77790080D01*
X139970080Y-77715606D01*
X140022741Y-77624394D01*
X140050000Y-77522661D01*
X140050000Y-77516447D01*
X140729024Y-78195471D01*
X140780135Y-78122480D01*
X140813117Y-78051748D01*
X140859289Y-77999308D01*
X140926482Y-77980155D01*
X140993363Y-78000370D01*
X141038699Y-78053534D01*
X141049500Y-78104150D01*
X141049500Y-78314856D01*
X141049502Y-78314882D01*
X141052413Y-78339987D01*
X141052415Y-78339991D01*
X141097793Y-78442764D01*
X141097794Y-78442765D01*
X141177235Y-78522206D01*
X141280009Y-78567585D01*
X141305135Y-78570500D01*
X142994864Y-78570499D01*
X142994879Y-78570497D01*
X142994882Y-78570497D01*
X143019987Y-78567586D01*
X143019988Y-78567585D01*
X143019991Y-78567585D01*
X143122765Y-78522206D01*
X143202206Y-78442765D01*
X143247585Y-78339991D01*
X143250500Y-78314865D01*
X143250499Y-77469999D01*
X143674785Y-77469999D01*
X143674785Y-77470000D01*
X143693602Y-77673082D01*
X143749417Y-77869247D01*
X143749422Y-77869260D01*
X143840327Y-78051821D01*
X143963237Y-78214581D01*
X144113958Y-78351980D01*
X144113960Y-78351982D01*
X144213141Y-78413392D01*
X144287363Y-78459348D01*
X144477544Y-78533024D01*
X144678024Y-78570500D01*
X144678026Y-78570500D01*
X144881974Y-78570500D01*
X144881976Y-78570500D01*
X145082456Y-78533024D01*
X145272637Y-78459348D01*
X145446041Y-78351981D01*
X145596764Y-78214579D01*
X145719673Y-78051821D01*
X145810582Y-77869250D01*
X145866397Y-77673083D01*
X145885215Y-77470000D01*
X145885215Y-77469999D01*
X151294785Y-77469999D01*
X151294785Y-77470000D01*
X151313602Y-77673082D01*
X151369417Y-77869247D01*
X151369422Y-77869260D01*
X151460327Y-78051821D01*
X151583237Y-78214581D01*
X151733958Y-78351980D01*
X151733960Y-78351982D01*
X151833141Y-78413392D01*
X151907363Y-78459348D01*
X152097544Y-78533024D01*
X152298024Y-78570500D01*
X152298026Y-78570500D01*
X152501974Y-78570500D01*
X152501976Y-78570500D01*
X152702456Y-78533024D01*
X152892637Y-78459348D01*
X153066041Y-78351981D01*
X153216764Y-78214579D01*
X153339673Y-78051821D01*
X153430582Y-77869250D01*
X153486397Y-77673083D01*
X153505215Y-77470000D01*
X153488825Y-77293122D01*
X157689500Y-77293122D01*
X157689500Y-77646877D01*
X157724173Y-77998929D01*
X157724176Y-77998946D01*
X157793185Y-78345884D01*
X157793188Y-78345895D01*
X157895882Y-78684436D01*
X158031262Y-79011271D01*
X158031264Y-79011276D01*
X158198017Y-79323247D01*
X158198028Y-79323265D01*
X158394558Y-79617393D01*
X158394568Y-79617407D01*
X158618992Y-79890869D01*
X158869130Y-80141007D01*
X158869135Y-80141011D01*
X158869136Y-80141012D01*
X159142598Y-80365436D01*
X159436741Y-80561976D01*
X159436750Y-80561981D01*
X159436752Y-80561982D01*
X159748723Y-80728735D01*
X159748725Y-80728735D01*
X159748731Y-80728739D01*
X160075565Y-80864118D01*
X160414095Y-80966809D01*
X160414101Y-80966810D01*
X160414104Y-80966811D01*
X160414115Y-80966814D01*
X160631674Y-81010088D01*
X160761060Y-81035825D01*
X161113119Y-81070500D01*
X161113122Y-81070500D01*
X161466878Y-81070500D01*
X161466881Y-81070500D01*
X161818940Y-81035825D01*
X161990679Y-81001663D01*
X162165884Y-80966814D01*
X162165895Y-80966811D01*
X162165895Y-80966810D01*
X162165905Y-80966809D01*
X162504435Y-80864118D01*
X162831269Y-80728739D01*
X163143259Y-80561976D01*
X163437402Y-80365436D01*
X163710864Y-80141012D01*
X163961012Y-79890864D01*
X164185436Y-79617402D01*
X164381976Y-79323259D01*
X164548739Y-79011269D01*
X164684118Y-78684435D01*
X164786809Y-78345905D01*
X164786811Y-78345895D01*
X164786814Y-78345884D01*
X164831251Y-78122480D01*
X164855825Y-77998940D01*
X164890500Y-77646881D01*
X164890500Y-77469999D01*
X166534785Y-77469999D01*
X166534785Y-77470000D01*
X166553602Y-77673082D01*
X166609417Y-77869247D01*
X166609422Y-77869260D01*
X166700327Y-78051821D01*
X166823237Y-78214581D01*
X166973958Y-78351980D01*
X166973960Y-78351982D01*
X167073141Y-78413392D01*
X167147363Y-78459348D01*
X167337544Y-78533024D01*
X167538024Y-78570500D01*
X167538026Y-78570500D01*
X167741974Y-78570500D01*
X167741976Y-78570500D01*
X167942456Y-78533024D01*
X168132637Y-78459348D01*
X168306041Y-78351981D01*
X168456764Y-78214579D01*
X168579673Y-78051821D01*
X168670582Y-77869250D01*
X168726397Y-77673083D01*
X168745215Y-77470000D01*
X168745215Y-77469999D01*
X174154785Y-77469999D01*
X174154785Y-77470000D01*
X174173602Y-77673082D01*
X174229417Y-77869247D01*
X174229422Y-77869260D01*
X174320327Y-78051821D01*
X174443237Y-78214581D01*
X174593958Y-78351980D01*
X174593960Y-78351982D01*
X174693141Y-78413392D01*
X174767363Y-78459348D01*
X174957544Y-78533024D01*
X175158024Y-78570500D01*
X175158026Y-78570500D01*
X175361974Y-78570500D01*
X175361976Y-78570500D01*
X175562456Y-78533024D01*
X175752637Y-78459348D01*
X175926041Y-78351981D01*
X176076764Y-78214579D01*
X176199673Y-78051821D01*
X176290582Y-77869250D01*
X176346397Y-77673083D01*
X176365215Y-77470000D01*
X176346397Y-77266917D01*
X176290582Y-77070750D01*
X176199673Y-76888179D01*
X176140704Y-76810091D01*
X176076762Y-76725418D01*
X175926041Y-76588019D01*
X175926039Y-76588017D01*
X175752642Y-76480655D01*
X175752635Y-76480651D01*
X175657546Y-76443814D01*
X175562456Y-76406976D01*
X175361976Y-76369500D01*
X175158024Y-76369500D01*
X174957544Y-76406976D01*
X174957541Y-76406976D01*
X174957541Y-76406977D01*
X174767364Y-76480651D01*
X174767357Y-76480655D01*
X174593960Y-76588017D01*
X174593958Y-76588019D01*
X174443237Y-76725418D01*
X174320327Y-76888178D01*
X174229422Y-77070739D01*
X174229417Y-77070752D01*
X174173602Y-77266917D01*
X174154785Y-77469999D01*
X168745215Y-77469999D01*
X168726397Y-77266917D01*
X168670582Y-77070750D01*
X168579673Y-76888179D01*
X168520704Y-76810091D01*
X168456762Y-76725418D01*
X168306041Y-76588019D01*
X168306039Y-76588017D01*
X168132642Y-76480655D01*
X168132635Y-76480651D01*
X168037546Y-76443814D01*
X167942456Y-76406976D01*
X167741976Y-76369500D01*
X167538024Y-76369500D01*
X167337544Y-76406976D01*
X167337541Y-76406976D01*
X167337541Y-76406977D01*
X167147364Y-76480651D01*
X167147357Y-76480655D01*
X166973960Y-76588017D01*
X166973958Y-76588019D01*
X166823237Y-76725418D01*
X166700327Y-76888178D01*
X166609422Y-77070739D01*
X166609417Y-77070752D01*
X166553602Y-77266917D01*
X166534785Y-77469999D01*
X164890500Y-77469999D01*
X164890500Y-77293119D01*
X164855825Y-76941060D01*
X164812931Y-76725418D01*
X164786814Y-76594115D01*
X164786811Y-76594104D01*
X164786810Y-76594101D01*
X164786809Y-76594095D01*
X164684118Y-76255565D01*
X164548739Y-75928731D01*
X164381976Y-75616741D01*
X164185436Y-75322598D01*
X163961012Y-75049136D01*
X163961011Y-75049135D01*
X163961007Y-75049130D01*
X163710869Y-74798992D01*
X163437407Y-74574568D01*
X163437406Y-74574567D01*
X163437402Y-74574564D01*
X163143259Y-74378024D01*
X163143254Y-74378021D01*
X163143247Y-74378017D01*
X162831276Y-74211264D01*
X162831271Y-74211262D01*
X162504436Y-74075882D01*
X162165895Y-73973188D01*
X162165884Y-73973185D01*
X161818946Y-73904176D01*
X161818929Y-73904173D01*
X161552700Y-73877952D01*
X161466881Y-73869500D01*
X161113119Y-73869500D01*
X161033748Y-73877317D01*
X160761070Y-73904173D01*
X160761053Y-73904176D01*
X160414115Y-73973185D01*
X160414104Y-73973188D01*
X160075563Y-74075882D01*
X159748728Y-74211262D01*
X159748723Y-74211264D01*
X159436752Y-74378017D01*
X159436734Y-74378028D01*
X159142606Y-74574558D01*
X159142592Y-74574568D01*
X158869130Y-74798992D01*
X158618992Y-75049130D01*
X158394568Y-75322592D01*
X158394558Y-75322606D01*
X158198028Y-75616734D01*
X158198017Y-75616752D01*
X158031264Y-75928723D01*
X158031262Y-75928728D01*
X157895882Y-76255563D01*
X157793188Y-76594104D01*
X157793185Y-76594115D01*
X157724176Y-76941053D01*
X157724173Y-76941070D01*
X157689500Y-77293122D01*
X153488825Y-77293122D01*
X153486397Y-77266917D01*
X153430582Y-77070750D01*
X153339673Y-76888179D01*
X153280704Y-76810091D01*
X153216762Y-76725418D01*
X153066041Y-76588019D01*
X153066039Y-76588017D01*
X152892642Y-76480655D01*
X152892635Y-76480651D01*
X152797546Y-76443814D01*
X152702456Y-76406976D01*
X152501976Y-76369500D01*
X152298024Y-76369500D01*
X152097544Y-76406976D01*
X152097541Y-76406976D01*
X152097541Y-76406977D01*
X151907364Y-76480651D01*
X151907357Y-76480655D01*
X151733960Y-76588017D01*
X151733958Y-76588019D01*
X151583237Y-76725418D01*
X151460327Y-76888178D01*
X151369422Y-77070739D01*
X151369417Y-77070752D01*
X151313602Y-77266917D01*
X151294785Y-77469999D01*
X145885215Y-77469999D01*
X145866397Y-77266917D01*
X145810582Y-77070750D01*
X145719673Y-76888179D01*
X145660704Y-76810091D01*
X145596762Y-76725418D01*
X145446041Y-76588019D01*
X145446039Y-76588017D01*
X145272642Y-76480655D01*
X145272635Y-76480651D01*
X145177546Y-76443814D01*
X145082456Y-76406976D01*
X144881976Y-76369500D01*
X144678024Y-76369500D01*
X144477544Y-76406976D01*
X144477541Y-76406976D01*
X144477541Y-76406977D01*
X144287364Y-76480651D01*
X144287357Y-76480655D01*
X144113960Y-76588017D01*
X144113958Y-76588019D01*
X143963237Y-76725418D01*
X143840327Y-76888178D01*
X143749422Y-77070739D01*
X143749417Y-77070752D01*
X143693602Y-77266917D01*
X143674785Y-77469999D01*
X143250499Y-77469999D01*
X143250499Y-76625136D01*
X143250497Y-76625117D01*
X143247586Y-76600012D01*
X143247585Y-76600010D01*
X143247585Y-76600009D01*
X143202206Y-76497235D01*
X143122765Y-76417794D01*
X143098267Y-76406977D01*
X143019992Y-76372415D01*
X142994865Y-76369500D01*
X141305143Y-76369500D01*
X141305117Y-76369502D01*
X141280012Y-76372413D01*
X141280008Y-76372415D01*
X141177235Y-76417793D01*
X141097794Y-76497234D01*
X141052415Y-76600006D01*
X141052415Y-76600008D01*
X141049500Y-76625131D01*
X141049500Y-76835846D01*
X141029815Y-76902885D01*
X140977011Y-76948640D01*
X140907853Y-76958584D01*
X140844297Y-76929559D01*
X140813118Y-76888251D01*
X140780134Y-76817517D01*
X140780132Y-76817513D01*
X140729025Y-76744526D01*
X140050000Y-77423551D01*
X140050000Y-77417339D01*
X140022741Y-77315606D01*
X139970080Y-77224394D01*
X139895606Y-77149920D01*
X139804394Y-77097259D01*
X139702661Y-77070000D01*
X139696445Y-77070000D01*
X140375472Y-76390974D01*
X140302478Y-76339863D01*
X140096331Y-76243735D01*
X140096317Y-76243730D01*
X139876610Y-76184860D01*
X139876599Y-76184858D01*
X139650002Y-76165034D01*
X139649998Y-76165034D01*
X139423400Y-76184858D01*
X139423389Y-76184860D01*
X139203682Y-76243730D01*
X139203673Y-76243734D01*
X138997516Y-76339866D01*
X138997512Y-76339868D01*
X138924526Y-76390973D01*
X138924526Y-76390974D01*
X139603553Y-77070000D01*
X139597339Y-77070000D01*
X139495606Y-77097259D01*
X139404394Y-77149920D01*
X139329920Y-77224394D01*
X139277259Y-77315606D01*
X139250000Y-77417339D01*
X139250000Y-77423552D01*
X138570974Y-76744526D01*
X138570973Y-76744526D01*
X138519868Y-76817512D01*
X138519866Y-76817516D01*
X138423734Y-77023673D01*
X138423730Y-77023682D01*
X138364860Y-77243389D01*
X138364858Y-77243400D01*
X138345034Y-77469997D01*
X137350000Y-77469997D01*
X137350000Y-71099994D01*
X154955202Y-71099994D01*
X154955202Y-71100005D01*
X154974361Y-71331218D01*
X155031317Y-71556135D01*
X155124516Y-71768609D01*
X155208811Y-71897633D01*
X155917861Y-71188584D01*
X155940667Y-71273694D01*
X155999910Y-71376306D01*
X156083694Y-71460090D01*
X156186306Y-71519333D01*
X156271414Y-71542138D01*
X155561201Y-72252351D01*
X155591649Y-72276050D01*
X155795697Y-72386476D01*
X155795706Y-72386479D01*
X156015139Y-72461811D01*
X156243993Y-72500000D01*
X156476007Y-72500000D01*
X156704860Y-72461811D01*
X156914040Y-72389999D01*
X163994785Y-72389999D01*
X163994785Y-72390000D01*
X164013602Y-72593082D01*
X164069417Y-72789247D01*
X164069422Y-72789260D01*
X164160327Y-72971821D01*
X164283237Y-73134581D01*
X164433958Y-73271980D01*
X164433960Y-73271982D01*
X164533141Y-73333392D01*
X164607363Y-73379348D01*
X164797544Y-73453024D01*
X164998024Y-73490500D01*
X164998026Y-73490500D01*
X165201974Y-73490500D01*
X165201976Y-73490500D01*
X165402456Y-73453024D01*
X165592637Y-73379348D01*
X165766041Y-73271981D01*
X165916764Y-73134579D01*
X166039673Y-72971821D01*
X166130582Y-72789250D01*
X166186397Y-72593083D01*
X166205215Y-72390000D01*
X166204888Y-72386476D01*
X166186397Y-72186917D01*
X166173048Y-72140000D01*
X166173048Y-72139999D01*
X171441127Y-72139999D01*
X171441128Y-72140000D01*
X172404314Y-72140000D01*
X172399920Y-72144394D01*
X172347259Y-72235606D01*
X172320000Y-72337339D01*
X172320000Y-72442661D01*
X172347259Y-72544394D01*
X172399920Y-72635606D01*
X172404314Y-72640000D01*
X171441128Y-72640000D01*
X171493730Y-72836317D01*
X171493734Y-72836326D01*
X171589865Y-73042482D01*
X171720342Y-73228820D01*
X171881179Y-73389657D01*
X172067517Y-73520134D01*
X172273673Y-73616265D01*
X172273682Y-73616269D01*
X172469999Y-73668872D01*
X172470000Y-73668871D01*
X172470000Y-72705686D01*
X172474394Y-72710080D01*
X172565606Y-72762741D01*
X172667339Y-72790000D01*
X172772661Y-72790000D01*
X172874394Y-72762741D01*
X172965606Y-72710080D01*
X172970000Y-72705686D01*
X172970000Y-73668872D01*
X173166317Y-73616269D01*
X173166326Y-73616265D01*
X173372482Y-73520134D01*
X173558820Y-73389657D01*
X173719657Y-73228820D01*
X173850134Y-73042482D01*
X173946265Y-72836326D01*
X173946269Y-72836317D01*
X173998872Y-72640000D01*
X173035686Y-72640000D01*
X173040080Y-72635606D01*
X173092741Y-72544394D01*
X173120000Y-72442661D01*
X173120000Y-72337339D01*
X173092741Y-72235606D01*
X173040080Y-72144394D01*
X173035686Y-72140000D01*
X173998872Y-72140000D01*
X173998872Y-72139999D01*
X173946269Y-71943682D01*
X173946265Y-71943673D01*
X173850134Y-71737517D01*
X173719657Y-71551179D01*
X173558820Y-71390342D01*
X173372482Y-71259865D01*
X173166328Y-71163734D01*
X172970000Y-71111127D01*
X172970000Y-72074314D01*
X172965606Y-72069920D01*
X172874394Y-72017259D01*
X172772661Y-71990000D01*
X172667339Y-71990000D01*
X172565606Y-72017259D01*
X172474394Y-72069920D01*
X172470000Y-72074314D01*
X172470000Y-71111127D01*
X172273671Y-71163734D01*
X172067517Y-71259865D01*
X171881179Y-71390342D01*
X171720342Y-71551179D01*
X171589865Y-71737517D01*
X171493734Y-71943673D01*
X171493730Y-71943682D01*
X171441127Y-72139999D01*
X166173048Y-72139999D01*
X166130582Y-71990750D01*
X166039673Y-71808179D01*
X165916764Y-71645421D01*
X165916762Y-71645418D01*
X165766041Y-71508019D01*
X165766039Y-71508017D01*
X165592642Y-71400655D01*
X165592635Y-71400651D01*
X165497546Y-71363814D01*
X165402456Y-71326976D01*
X165201976Y-71289500D01*
X164998024Y-71289500D01*
X164797544Y-71326976D01*
X164797541Y-71326976D01*
X164797541Y-71326977D01*
X164607364Y-71400651D01*
X164607357Y-71400655D01*
X164433960Y-71508017D01*
X164433958Y-71508019D01*
X164283237Y-71645418D01*
X164160327Y-71808178D01*
X164069422Y-71990739D01*
X164069417Y-71990752D01*
X164013602Y-72186917D01*
X163994785Y-72389999D01*
X156914040Y-72389999D01*
X156924293Y-72386479D01*
X156924301Y-72386476D01*
X157128355Y-72276047D01*
X157158797Y-72252351D01*
X157158798Y-72252350D01*
X156448585Y-71542137D01*
X156533694Y-71519333D01*
X156636306Y-71460090D01*
X156720090Y-71376306D01*
X156779333Y-71273694D01*
X156802138Y-71188585D01*
X157511186Y-71897634D01*
X157562708Y-71892291D01*
X157631421Y-71904954D01*
X157682379Y-71952757D01*
X157699500Y-72015625D01*
X157699500Y-72044854D01*
X157699502Y-72044882D01*
X157702413Y-72069987D01*
X157702415Y-72069991D01*
X157747793Y-72172764D01*
X157747794Y-72172765D01*
X157827235Y-72252206D01*
X157930009Y-72297585D01*
X157955135Y-72300500D01*
X159844864Y-72300499D01*
X159844879Y-72300497D01*
X159844882Y-72300497D01*
X159869987Y-72297586D01*
X159869988Y-72297585D01*
X159869991Y-72297585D01*
X159972765Y-72252206D01*
X160052206Y-72172765D01*
X160097585Y-72069991D01*
X160100500Y-72044865D01*
X160100499Y-70155136D01*
X160100497Y-70155117D01*
X160097586Y-70130012D01*
X160097585Y-70130010D01*
X160097585Y-70130009D01*
X160052206Y-70027235D01*
X159972765Y-69947794D01*
X159918766Y-69923951D01*
X159869992Y-69902415D01*
X159844865Y-69899500D01*
X157955143Y-69899500D01*
X157955117Y-69899502D01*
X157930012Y-69902413D01*
X157930008Y-69902415D01*
X157827235Y-69947793D01*
X157747794Y-70027234D01*
X157702415Y-70130006D01*
X157702415Y-70130008D01*
X157699500Y-70155131D01*
X157699500Y-70184369D01*
X157679815Y-70251408D01*
X157627011Y-70297163D01*
X157562709Y-70307708D01*
X157511186Y-70302364D01*
X156802137Y-71011413D01*
X156779333Y-70926306D01*
X156720090Y-70823694D01*
X156636306Y-70739910D01*
X156533694Y-70680667D01*
X156448584Y-70657861D01*
X157158797Y-69947647D01*
X157158797Y-69947645D01*
X157128360Y-69923955D01*
X157128354Y-69923951D01*
X156924302Y-69813523D01*
X156924293Y-69813520D01*
X156704860Y-69738188D01*
X156476007Y-69700000D01*
X156243993Y-69700000D01*
X156015139Y-69738188D01*
X155795706Y-69813520D01*
X155795697Y-69813523D01*
X155591650Y-69923949D01*
X155561200Y-69947647D01*
X156271415Y-70657861D01*
X156186306Y-70680667D01*
X156083694Y-70739910D01*
X155999910Y-70823694D01*
X155940667Y-70926306D01*
X155917861Y-71011414D01*
X155208812Y-70302365D01*
X155124516Y-70431391D01*
X155124514Y-70431395D01*
X155031317Y-70643864D01*
X154974361Y-70868781D01*
X154955202Y-71099994D01*
X137350000Y-71099994D01*
X137350000Y-64769997D01*
X138435034Y-64769997D01*
X138435034Y-64770002D01*
X138454858Y-64996599D01*
X138454860Y-64996610D01*
X138513730Y-65216317D01*
X138513735Y-65216331D01*
X138609863Y-65422478D01*
X138660974Y-65495472D01*
X139340000Y-64816446D01*
X139340000Y-64822661D01*
X139367259Y-64924394D01*
X139419920Y-65015606D01*
X139494394Y-65090080D01*
X139585606Y-65142741D01*
X139687339Y-65170000D01*
X139693553Y-65170000D01*
X139014526Y-65849025D01*
X139087513Y-65900132D01*
X139087521Y-65900136D01*
X139293668Y-65996264D01*
X139293682Y-65996269D01*
X139513389Y-66055139D01*
X139513400Y-66055141D01*
X139739998Y-66074966D01*
X139740002Y-66074966D01*
X139966599Y-66055141D01*
X139966610Y-66055139D01*
X140186317Y-65996269D01*
X140186331Y-65996264D01*
X140392478Y-65900136D01*
X140465471Y-65849024D01*
X139786447Y-65170000D01*
X139792661Y-65170000D01*
X139894394Y-65142741D01*
X139985606Y-65090080D01*
X140060080Y-65015606D01*
X140112741Y-64924394D01*
X140140000Y-64822661D01*
X140140000Y-64816447D01*
X140819024Y-65495471D01*
X140870135Y-65422480D01*
X140903117Y-65351748D01*
X140949289Y-65299308D01*
X141016482Y-65280155D01*
X141083363Y-65300370D01*
X141128699Y-65353534D01*
X141139500Y-65404150D01*
X141139500Y-65614856D01*
X141139502Y-65614882D01*
X141142413Y-65639987D01*
X141142415Y-65639991D01*
X141187793Y-65742764D01*
X141187794Y-65742765D01*
X141267235Y-65822206D01*
X141370009Y-65867585D01*
X141395135Y-65870500D01*
X143084864Y-65870499D01*
X143084879Y-65870497D01*
X143084882Y-65870497D01*
X143109987Y-65867586D01*
X143109988Y-65867585D01*
X143109991Y-65867585D01*
X143212765Y-65822206D01*
X143292206Y-65742765D01*
X143299047Y-65727272D01*
X146989500Y-65727272D01*
X146989500Y-66352727D01*
X147004313Y-66465235D01*
X147004313Y-66465236D01*
X147038423Y-66547586D01*
X147062302Y-66605233D01*
X147154549Y-66725451D01*
X147274767Y-66817698D01*
X147414764Y-66875687D01*
X147527280Y-66890500D01*
X147527287Y-66890500D01*
X148736000Y-66890500D01*
X148803039Y-66910185D01*
X148848794Y-66962989D01*
X148860000Y-67014500D01*
X148860000Y-67060000D01*
X149579670Y-67060000D01*
X149559925Y-67079745D01*
X149510556Y-67165255D01*
X149485000Y-67260630D01*
X149485000Y-67359370D01*
X149510556Y-67454745D01*
X149559925Y-67540255D01*
X149579670Y-67560000D01*
X148860000Y-67560000D01*
X148860000Y-67907844D01*
X148866401Y-67967372D01*
X148866403Y-67967379D01*
X148916645Y-68102086D01*
X148916649Y-68102093D01*
X149002809Y-68217187D01*
X149002812Y-68217190D01*
X149117906Y-68303350D01*
X149117913Y-68303354D01*
X149252620Y-68353596D01*
X149252627Y-68353598D01*
X149312155Y-68359999D01*
X149312172Y-68360000D01*
X150010000Y-68360000D01*
X150510000Y-68360000D01*
X151207828Y-68360000D01*
X151207844Y-68359999D01*
X151267372Y-68353598D01*
X151267379Y-68353596D01*
X151402086Y-68303354D01*
X151402093Y-68303350D01*
X151517187Y-68217190D01*
X151517190Y-68217187D01*
X151603350Y-68102093D01*
X151603354Y-68102086D01*
X151653596Y-67967379D01*
X151653598Y-67967372D01*
X151659999Y-67907844D01*
X151660000Y-67907827D01*
X151660000Y-67560000D01*
X150510000Y-67560000D01*
X150510000Y-68360000D01*
X150010000Y-68360000D01*
X150010000Y-67656410D01*
X150090255Y-67610075D01*
X150160075Y-67540255D01*
X150209444Y-67454745D01*
X150235000Y-67359370D01*
X150235000Y-67309999D01*
X163894357Y-67309999D01*
X163894357Y-67310000D01*
X163914884Y-67531535D01*
X163914885Y-67531537D01*
X163975769Y-67745523D01*
X163975775Y-67745538D01*
X164074938Y-67944683D01*
X164074943Y-67944691D01*
X164209020Y-68122238D01*
X164373437Y-68272123D01*
X164373439Y-68272125D01*
X164562595Y-68389245D01*
X164562596Y-68389245D01*
X164562599Y-68389247D01*
X164770060Y-68469618D01*
X164988757Y-68510500D01*
X164988759Y-68510500D01*
X165211241Y-68510500D01*
X165211243Y-68510500D01*
X165429940Y-68469618D01*
X165637401Y-68389247D01*
X165826562Y-68272124D01*
X165990981Y-68122236D01*
X166125058Y-67944689D01*
X166204500Y-67785149D01*
X166252002Y-67733911D01*
X166319665Y-67716490D01*
X166386006Y-67738415D01*
X166429961Y-67792727D01*
X166439500Y-67840420D01*
X166439500Y-68254856D01*
X166439502Y-68254882D01*
X166442413Y-68279987D01*
X166442415Y-68279991D01*
X166487793Y-68382764D01*
X166487794Y-68382765D01*
X166567235Y-68462206D01*
X166670009Y-68507585D01*
X166695135Y-68510500D01*
X168584864Y-68510499D01*
X168584879Y-68510497D01*
X168584882Y-68510497D01*
X168609987Y-68507586D01*
X168609988Y-68507585D01*
X168609991Y-68507585D01*
X168712765Y-68462206D01*
X168792206Y-68382765D01*
X168837585Y-68279991D01*
X168840500Y-68254865D01*
X168840499Y-66365136D01*
X168839060Y-66352727D01*
X168837586Y-66340012D01*
X168837585Y-66340010D01*
X168837585Y-66340009D01*
X168792206Y-66237235D01*
X168712765Y-66157794D01*
X168712763Y-66157793D01*
X168609992Y-66112415D01*
X168584865Y-66109500D01*
X166695143Y-66109500D01*
X166695117Y-66109502D01*
X166670012Y-66112413D01*
X166670008Y-66112415D01*
X166567235Y-66157793D01*
X166487794Y-66237234D01*
X166442415Y-66340006D01*
X166442415Y-66340008D01*
X166439500Y-66365131D01*
X166439500Y-66779578D01*
X166419815Y-66846617D01*
X166367011Y-66892372D01*
X166297853Y-66902316D01*
X166234297Y-66873291D01*
X166204500Y-66834850D01*
X166125061Y-66675316D01*
X166125056Y-66675308D01*
X165990979Y-66497761D01*
X165826562Y-66347876D01*
X165826560Y-66347874D01*
X165637404Y-66230754D01*
X165637398Y-66230752D01*
X165429940Y-66150382D01*
X165211243Y-66109500D01*
X164988757Y-66109500D01*
X164770060Y-66150382D01*
X164674219Y-66187511D01*
X164562601Y-66230752D01*
X164562595Y-66230754D01*
X164373439Y-66347874D01*
X164373437Y-66347876D01*
X164209020Y-66497761D01*
X164074943Y-66675308D01*
X164074938Y-66675316D01*
X163975775Y-66874461D01*
X163975769Y-66874476D01*
X163914885Y-67088462D01*
X163914884Y-67088464D01*
X163894357Y-67309999D01*
X150235000Y-67309999D01*
X150235000Y-67260630D01*
X150209444Y-67165255D01*
X150160075Y-67079745D01*
X150140330Y-67060000D01*
X150510000Y-67060000D01*
X151660000Y-67060000D01*
X151660000Y-66712172D01*
X151659999Y-66712155D01*
X151653598Y-66652627D01*
X151653596Y-66652620D01*
X151603354Y-66517913D01*
X151603350Y-66517906D01*
X151517190Y-66402812D01*
X151517187Y-66402809D01*
X151402093Y-66316649D01*
X151402086Y-66316645D01*
X151267379Y-66266403D01*
X151267372Y-66266401D01*
X151207844Y-66260000D01*
X150510000Y-66260000D01*
X150510000Y-67060000D01*
X150140330Y-67060000D01*
X150090255Y-67009925D01*
X150010000Y-66963589D01*
X150010000Y-66260000D01*
X149514500Y-66260000D01*
X149447461Y-66240315D01*
X149401706Y-66187511D01*
X149390500Y-66136000D01*
X149390500Y-65734671D01*
X149410185Y-65667632D01*
X149462989Y-65621877D01*
X149530683Y-65611732D01*
X149597280Y-65620500D01*
X149597287Y-65620500D01*
X150922713Y-65620500D01*
X150922720Y-65620500D01*
X151035236Y-65605687D01*
X151175233Y-65547698D01*
X151295451Y-65455451D01*
X151387698Y-65335233D01*
X151445687Y-65195236D01*
X151460500Y-65082720D01*
X151460500Y-64457280D01*
X151453634Y-64405131D01*
X155159500Y-64405131D01*
X155159500Y-66294856D01*
X155159502Y-66294882D01*
X155162413Y-66319987D01*
X155162415Y-66319991D01*
X155207793Y-66422764D01*
X155207794Y-66422765D01*
X155287235Y-66502206D01*
X155390009Y-66547585D01*
X155415135Y-66550500D01*
X157304864Y-66550499D01*
X157304879Y-66550497D01*
X157304882Y-66550497D01*
X157329987Y-66547586D01*
X157329988Y-66547585D01*
X157329991Y-66547585D01*
X157432765Y-66502206D01*
X157512206Y-66422765D01*
X157557585Y-66319991D01*
X157560500Y-66294865D01*
X157560499Y-65880418D01*
X157580183Y-65813382D01*
X157632987Y-65767627D01*
X157702146Y-65757683D01*
X157765702Y-65786708D01*
X157795499Y-65825149D01*
X157874938Y-65984683D01*
X157874943Y-65984691D01*
X158009020Y-66162238D01*
X158173437Y-66312123D01*
X158173439Y-66312125D01*
X158362595Y-66429245D01*
X158362596Y-66429245D01*
X158362599Y-66429247D01*
X158570060Y-66509618D01*
X158788757Y-66550500D01*
X158788759Y-66550500D01*
X159011241Y-66550500D01*
X159011243Y-66550500D01*
X159229940Y-66509618D01*
X159437401Y-66429247D01*
X159626562Y-66312124D01*
X159790981Y-66162236D01*
X159925058Y-65984689D01*
X160024229Y-65785528D01*
X160085115Y-65571536D01*
X160105643Y-65350000D01*
X160085115Y-65128464D01*
X160024229Y-64914472D01*
X160004500Y-64874851D01*
X159925061Y-64715316D01*
X159925056Y-64715308D01*
X159790979Y-64537761D01*
X159626562Y-64387876D01*
X159626560Y-64387874D01*
X159437404Y-64270754D01*
X159437398Y-64270752D01*
X159229940Y-64190382D01*
X159011243Y-64149500D01*
X158788757Y-64149500D01*
X158570060Y-64190382D01*
X158468933Y-64229559D01*
X158362601Y-64270752D01*
X158362595Y-64270754D01*
X158173439Y-64387874D01*
X158173437Y-64387876D01*
X158009020Y-64537761D01*
X157874943Y-64715308D01*
X157874938Y-64715316D01*
X157795499Y-64874851D01*
X157747996Y-64926088D01*
X157680333Y-64943509D01*
X157613993Y-64921583D01*
X157570038Y-64867272D01*
X157560499Y-64819579D01*
X157560499Y-64405143D01*
X157560499Y-64405136D01*
X157560497Y-64405117D01*
X157557586Y-64380012D01*
X157557585Y-64380010D01*
X157557585Y-64380009D01*
X157512206Y-64277235D01*
X157432765Y-64197794D01*
X157432763Y-64197793D01*
X157329992Y-64152415D01*
X157304865Y-64149500D01*
X155415143Y-64149500D01*
X155415117Y-64149502D01*
X155390012Y-64152413D01*
X155390008Y-64152415D01*
X155287235Y-64197793D01*
X155207794Y-64277234D01*
X155162415Y-64380006D01*
X155162415Y-64380008D01*
X155159500Y-64405131D01*
X151453634Y-64405131D01*
X151445687Y-64344764D01*
X151387698Y-64204767D01*
X151295451Y-64084549D01*
X151175233Y-63992302D01*
X151175229Y-63992300D01*
X151111801Y-63966027D01*
X151035236Y-63934313D01*
X151021171Y-63932461D01*
X150922727Y-63919500D01*
X150922720Y-63919500D01*
X149597280Y-63919500D01*
X149597272Y-63919500D01*
X149484764Y-63934313D01*
X149484763Y-63934313D01*
X149344770Y-63992300D01*
X149344767Y-63992301D01*
X149344767Y-63992302D01*
X149224549Y-64084549D01*
X149137654Y-64197793D01*
X149132300Y-64204770D01*
X149074313Y-64344763D01*
X149074313Y-64344764D01*
X149059500Y-64457272D01*
X149059500Y-65075328D01*
X149039815Y-65142367D01*
X148987011Y-65188122D01*
X148919315Y-65198267D01*
X148852730Y-65189501D01*
X148852725Y-65189500D01*
X148852720Y-65189500D01*
X147527280Y-65189500D01*
X147527272Y-65189500D01*
X147414764Y-65204313D01*
X147414763Y-65204313D01*
X147274770Y-65262300D01*
X147274767Y-65262301D01*
X147274767Y-65262302D01*
X147154549Y-65354549D01*
X147102424Y-65422480D01*
X147062300Y-65474770D01*
X147004313Y-65614763D01*
X147004313Y-65614764D01*
X146989500Y-65727272D01*
X143299047Y-65727272D01*
X143337585Y-65639991D01*
X143340500Y-65614865D01*
X143340499Y-63925136D01*
X143340497Y-63925117D01*
X143337586Y-63900012D01*
X143337585Y-63900010D01*
X143337585Y-63900009D01*
X143292206Y-63797235D01*
X143212765Y-63717794D01*
X143212763Y-63717793D01*
X143109992Y-63672415D01*
X143084865Y-63669500D01*
X141395143Y-63669500D01*
X141395117Y-63669502D01*
X141370012Y-63672413D01*
X141370008Y-63672415D01*
X141267235Y-63717793D01*
X141187794Y-63797234D01*
X141142415Y-63900006D01*
X141142415Y-63900008D01*
X141139500Y-63925131D01*
X141139500Y-64135846D01*
X141119815Y-64202885D01*
X141067011Y-64248640D01*
X140997853Y-64258584D01*
X140934297Y-64229559D01*
X140903118Y-64188251D01*
X140870134Y-64117517D01*
X140870132Y-64117513D01*
X140819025Y-64044526D01*
X140140000Y-64723551D01*
X140140000Y-64717339D01*
X140112741Y-64615606D01*
X140060080Y-64524394D01*
X139985606Y-64449920D01*
X139894394Y-64397259D01*
X139792661Y-64370000D01*
X139786445Y-64370000D01*
X140465472Y-63690974D01*
X140392478Y-63639863D01*
X140186331Y-63543735D01*
X140186317Y-63543730D01*
X139966610Y-63484860D01*
X139966599Y-63484858D01*
X139740002Y-63465034D01*
X139739998Y-63465034D01*
X139513400Y-63484858D01*
X139513389Y-63484860D01*
X139293682Y-63543730D01*
X139293673Y-63543734D01*
X139087516Y-63639866D01*
X139087512Y-63639868D01*
X139014526Y-63690973D01*
X139014526Y-63690974D01*
X139693553Y-64370000D01*
X139687339Y-64370000D01*
X139585606Y-64397259D01*
X139494394Y-64449920D01*
X139419920Y-64524394D01*
X139367259Y-64615606D01*
X139340000Y-64717339D01*
X139340000Y-64723552D01*
X138660974Y-64044526D01*
X138660973Y-64044526D01*
X138609868Y-64117512D01*
X138609866Y-64117516D01*
X138513734Y-64323673D01*
X138513730Y-64323682D01*
X138454860Y-64543389D01*
X138454858Y-64543400D01*
X138435034Y-64769997D01*
X137350000Y-64769997D01*
X137350000Y-61049099D01*
X137369685Y-60982060D01*
X137422489Y-60936305D01*
X137474126Y-60925099D01*
X170491344Y-60959937D01*
G37*
%TD.AperFunction*%
%TD*%
M02*
